<?xml version="1.0" encoding="utf-8"?>
<!-- Generator: Adobe Illustrator 25.2.1, SVG Export Plug-In . SVG Version: 6.00 Build 0)  -->
<svg version="1.1" xmlns="http://www.w3.org/2000/svg" xmlns:xlink="http://www.w3.org/1999/xlink" x="0px" y="0px"
	 viewBox="0 0 1609 1703" style="enable-background:new 0 0 1609 1703;" xml:space="preserve">
<style type="text/css">
	.st0{fill:#D9D9D9;}
	.st1{fill:#FFFFFF;stroke:#398CAE;stroke-width:40;stroke-miterlimit:4.0009;}
	.st2{fill:#398CAE;}
	.st3{fill:#FFFFFF;stroke:#398CAE;stroke-width:41;stroke-miterlimit:4.0009;}
	.st4{fill:#FFFFFF;}
	.st5{fill:#3A8CAF;}
	.st6{fill:none;stroke:#707070;stroke-width:17;}
	.st7{fill:#CFE3F9;}
	.st8{fill:#47C347;stroke:#707070;stroke-width:9;}
	.st9{fill:#EFC94F;stroke:#707070;stroke-width:9;}
	.st10{fill:none;stroke:#707070;stroke-width:10;stroke-linecap:round;}
	.st11{fill:#E89F94;}
	.st12{fill:none;stroke:#707070;stroke-width:11;stroke-linejoin:round;}
	.st13{enable-background:new    ;}
	.st14{fill:#707070;}
	.st15{fill:#5D5D5D;}
	.st16{fill:#CDE5F7;}
	.st17{fill:#E08A81;}
	.st18{fill:#FDFDFD;}
	.st19{fill:#8DB32B;}
	.st20{fill:#F0BA39;}
	.st21{fill:#ECF4FD;}
	.st22{fill:#6A8194;}
	.st23{fill:#6F8598;}
	.st24{fill:#5EBFBF;}
	.st25{fill:#88D2E6;}
	.st26{fill:#99D4DC;}
	.st27{fill:#6C8396;}
	.st28{fill:#6D8396;}
	.st29{fill:#6B8295;}
	.st30{fill:#6E8497;}
	.st31{fill:#FEFEFE;}
	.st32{display:none;}
	.st33{display:inline;fill:#00A4CA;}
	.st34{fill:#00A4CA;}
</style>
<g id="Calque_1">
</g>
<g id="Calque_2">
</g>
<g id="Calque_3">
</g>
<g id="Calque_4">
</g>
<g id="Calque_5">
</g>
<g id="Calque_6">
</g>
<g id="Calque_7">
	<g>
		<path class="st14" d="M717.5,346c82.6,0,162.6,16.2,238,48.1c36.2,15.3,71.2,34.3,103.9,56.4c32.4,21.9,62.8,47,90.5,74.7
			s52.8,58.1,74.7,90.5c22.1,32.7,41.1,67.6,56.4,103.9c31.9,75.4,48.1,155.5,48.1,238s-16.2,162.6-48.1,238
			c-15.3,36.2-34.3,71.2-56.4,103.9c-21.9,32.4-47,62.8-74.7,90.5c-27.7,27.7-58.1,52.8-90.5,74.7c-32.7,22.1-67.6,41.1-103.9,56.4
			c-75.4,31.9-155.5,48.1-238,48.1s-162.6-16.2-238-48.1c-36.2-15.3-71.2-34.3-103.9-56.4c-32.4-21.9-62.8-47-90.5-74.7
			c-27.7-27.7-52.8-58.1-74.7-90.5c-22.1-32.7-41.1-67.6-56.4-103.9c-31.9-75.4-48.1-155.5-48.1-238s16.2-162.6,48.1-238
			c15.3-36.2,34.3-71.2,56.4-103.9c21.9-32.4,47-62.8,74.7-90.5s58.1-52.8,90.5-74.7c32.7-22.1,67.6-41.1,103.9-56.4
			C554.9,362.2,634.9,346,717.5,346 M717.5,337C374.8,337,97,614.8,97,957.5S374.8,1578,717.5,1578S1338,1300.2,1338,957.5
			S1060.2,337,717.5,337L717.5,337z"/>
	</g>
	<g class="st32">
		<circle class="st33" cx="777.8" cy="925.8" r="609.5"/>
	</g>
	<g>
		<circle class="st4" cx="778.5" cy="925.5" r="609.5"/>
	</g>
	<g>
		<path class="st34" d="M1071.5,816.5h-41.6v-4.7c0-11.6-9.5-21.1-21.1-21.1h-82.1c-5.7,0-10.2,4.6-10.2,10.2
			c0,5.7,4.6,10.2,10.2,10.2h82.1c0.3,0,0.6,0.3,0.6,0.6v124.9c0,5.7,4.6,10.2,10.2,10.2s10.2-4.6,10.2-10.2V837h41.6
			c1.4,0,2.5,1.1,2.5,2.5V1197c0,23.4-19.1,42.5-42.5,42.5H524.8c-23.4,0-42.5-19.1-42.5-42.5V839.5c0-1.4,1.1-2.5,2.5-2.5h43v350.4
			c0,14.4,11.8,26.2,26.2,26.2h449.7c14.5,0,26.2-11.8,26.2-26.2v-207c0-5.7-4.6-10.2-10.2-10.2c-5.7,0-10.2,4.6-10.2,10.2v147.5
			H843.6c-21.5,0-40.8,9.1-54.5,23.6V1019c0-5.7-4.6-10.2-10.2-10.2c-5.7,0-10.2,4.6-10.2,10.2v132.5
			c-13.7-14.5-33.1-23.6-54.5-23.6h-46.6c-5.7,0-10.2,4.6-10.2,10.2s4.6,10.2,10.2,10.2H714c26.7,0,49,19.3,53.6,44.7H554
			c-3.2,0-5.7-2.6-5.7-5.7v-39h75.5c5.7,0,10.2-4.6,10.2-10.2s-4.6-10.2-10.2-10.2h-75.5V811.8c0-0.3,0.3-0.6,0.6-0.6H631
			c5.7,0,10.2-4.6,10.2-10.2s-4.6-10.2-10.2-10.2h-82.1c-11.6,0-21.1,9.5-21.1,21.1v4.7h-43c-12.7,0-23,10.3-23,23V1197
			c0,34.7,28.3,63,63,63h506.7c34.7,0,63-28.3,63-63V839.5C1094.5,826.8,1084.2,816.5,1071.5,816.5L1071.5,816.5z M843.6,1148.4
			h165.8v39c0,3.2-2.6,5.7-5.7,5.7H790C794.6,1167.7,816.9,1148.4,843.6,1148.4L843.6,1148.4z"/>
		<path class="st34" d="M642.2,705.3c5.6,0.5,10.6-3.6,11.2-9.2c2.9-31.1,17.3-59.8,40.4-81c23.3-21.3,53.5-33,85-33
			c69.5,0,126,56.5,126,126c0,26.1-7.9,51.2-22.9,72.5c-0.1,0.1-0.2,0.2-0.2,0.4L816.1,883c-1.1,1.7-1.6,3.6-1.6,5.5v13.3
			c0,2.7-2.2,4.9-4.9,4.9h-0.7l6.5-110.8h11.7c16.7,0,30.3-13.6,30.3-30.3v-1.2c0-16.7-13.6-30.3-30.3-30.3
			c-16,0-29.3,12.5-30.2,28.5l-0.8,12.8h-35.9l-0.8-12.8c-0.9-16-14.2-28.5-30.2-28.5c-16.7,0-30.3,13.6-30.3,30.3v1.2
			c0,16.7,13.6,30.3,30.3,30.3h11.7l6.5,110.7c-2.4-0.3-4.2-2.4-4.2-4.8v-13.3c0-2-0.6-3.9-1.6-5.5L676,780.9
			c-0.1-0.1-0.2-0.2-0.2-0.4c-9.4-13.4-16.1-28.2-19.7-44.2c-1.3-5.5-6.8-9-12.3-7.7c-5.5,1.3-9,6.8-7.7,12.3
			c4.2,18.5,11.9,35.7,22.8,51.2l63.8,99.4v10.3c0,10.3,6.2,19.3,15.1,23.2v17.3c0,18.2,14.8,33.1,33.1,33.1h15.9
			c18.2,0,33.1-14.8,33.1-33.1V925c8.9-3.9,15.1-12.9,15.1-23.2v-10.3l63.8-99.4c17.4-24.7,26.6-53.8,26.6-84.1
			c0-80.8-65.7-146.5-146.5-146.5c-36.7,0-71.8,13.6-98.9,38.4c-26.9,24.6-43.6,58.1-47,94.2C632.4,699.7,636.6,704.7,642.2,705.3
			L642.2,705.3z M817.3,763.8c0.3-5.2,4.6-9.2,9.8-9.2c5.4,0,9.8,4.4,9.8,9.8v1.2c0,5.4-4.4,9.8-9.8,9.8h-10.5L817.3,763.8z
			 M729.2,775.4c-5.4,0-9.8-4.4-9.8-9.8v-1.2c0-5.4,4.4-9.8,9.8-9.8c5.2,0,9.5,4.1,9.8,9.2l0.7,11.6L729.2,775.4z M794.9,795.9
			l-6.5,110.8h-20.5l-6.5-110.8H794.9z M799.3,942.3c0,6.9-5.6,12.6-12.6,12.6h-15.9c-6.9,0-12.6-5.6-12.6-12.6v-15.1h41
			L799.3,942.3L799.3,942.3z"/>
		<path class="st34" d="M958.3,639.3c2.4,0,4.8-0.8,6.8-2.5l22.4-19.6c4.3-3.7,4.7-10.2,0.9-14.5c-3.7-4.3-10.2-4.7-14.5-0.9
			l-22.4,19.6c-4.3,3.7-4.7,10.2-0.9,14.5C952.6,638.1,955.5,639.3,958.3,639.3L958.3,639.3z"/>
		<path class="st34" d="M951.5,701.1l22.4,19.6c1.9,1.7,4.4,2.5,6.8,2.5c2.8,0,5.7-1.2,7.7-3.5c3.7-4.3,3.3-10.7-0.9-14.5
			l-22.4-19.6c-4.3-3.7-10.7-3.3-14.5,0.9C946.9,690.9,947.3,697.4,951.5,701.1L951.5,701.1z"/>
		<path class="st34" d="M570.2,617.1l22.4,19.6c1.9,1.7,4.4,2.5,6.8,2.5c2.8,0,5.7-1.2,7.7-3.5c3.7-4.3,3.3-10.7-0.9-14.5
			l-22.4-19.6c-4.3-3.7-10.7-3.3-14.5,0.9C565.6,606.9,566,613.4,570.2,617.1z"/>
		<path class="st34" d="M577,723.3c2.4,0,4.8-0.8,6.8-2.5l22.4-19.6c4.3-3.7,4.7-10.2,0.9-14.5c-3.7-4.3-10.2-4.7-14.5-0.9
			l-22.4,19.6c-4.3,3.7-4.7,10.2-0.9,14.5C571.3,722.1,574.1,723.3,577,723.3z"/>
		<path class="st34" d="M688.2,916.9c0-5.7-4.6-10.2-10.2-10.2H577c-5.7,0-10.2,4.6-10.2,10.2s4.6,10.2,10.2,10.2h100.9
			C683.6,927.2,688.2,922.6,688.2,916.9z"/>
		<path class="st34" d="M709.1,958.8H595.5c-5.7,0-10.2,4.6-10.2,10.2s4.6,10.2,10.2,10.2h113.6c5.7,0,10.2-4.6,10.2-10.2
			S714.8,958.8,709.1,958.8z"/>
		<path class="st34" d="M709.1,1008.7H595.5c-5.7,0-10.2,4.6-10.2,10.2s4.6,10.2,10.2,10.2h113.6c5.7,0,10.2-4.6,10.2-10.2
			S714.8,1008.7,709.1,1008.7z"/>
		<path class="st34" d="M709.1,1058.6H595.5c-5.7,0-10.2,4.6-10.2,10.2c0,5.7,4.6,10.2,10.2,10.2h113.6c5.7,0,10.2-4.6,10.2-10.2
			C719.4,1063.2,714.8,1058.6,709.1,1058.6z"/>
		<path class="st34" d="M990.9,916.9c0-5.7-4.6-10.2-10.2-10.2H879.7c-5.7,0-10.2,4.6-10.2,10.2s4.6,10.2,10.2,10.2h100.9
			C986.3,927.2,990.9,922.6,990.9,916.9z"/>
		<path class="st34" d="M962.1,958.8H848.5c-5.7,0-10.2,4.6-10.2,10.2s4.6,10.2,10.2,10.2h113.6c5.7,0,10.2-4.6,10.2-10.2
			S967.8,958.8,962.1,958.8z"/>
		<path class="st34" d="M962.1,1008.7H848.5c-5.7,0-10.2,4.6-10.2,10.2s4.6,10.2,10.2,10.2h113.6c5.7,0,10.2-4.6,10.2-10.2
			S967.8,1008.7,962.1,1008.7z"/>
		<path class="st34" d="M962.1,1058.6H848.5c-5.7,0-10.2,4.6-10.2,10.2c0,5.7,4.6,10.2,10.2,10.2h113.6c5.7,0,10.2-4.6,10.2-10.2
			C972.4,1063.2,967.8,1058.6,962.1,1058.6z"/>
	</g>
	<g class="st32">
		<path class="st33" d="M786.4,649.2c0-25.5-20.7-46.2-46.2-46.2c-25.5,0-46.2,20.7-46.2,46.2c0,25.5,20.7,46.2,46.2,46.2
			C765.7,695.4,786.4,674.7,786.4,649.2z M715.9,649.2c0-13.4,10.9-24.3,24.3-24.3s24.3,10.9,24.3,24.3c0,13.4-10.9,24.3-24.3,24.3
			S715.9,662.7,715.9,649.2z"/>
		<path class="st33" d="M535.3,937.9h409.8c6,0,10.9-4.9,10.9-10.9s-4.9-10.9-10.9-10.9H535.3c-6,0-10.9,4.9-10.9,10.9
			S529.3,937.9,535.3,937.9z"/>
		<path class="st33" d="M535.3,990.2h409.8c6,0,10.9-4.9,10.9-10.9c0-6-4.9-10.9-10.9-10.9H535.3c-6,0-10.9,4.9-10.9,10.9
			C524.4,985.4,529.3,990.2,535.3,990.2z"/>
		<path class="st33" d="M535.3,1042.6h409.8c6,0,10.9-4.9,10.9-10.9c0-6-4.9-10.9-10.9-10.9H535.3c-6,0-10.9,4.9-10.9,10.9
			C524.4,1037.7,529.3,1042.6,535.3,1042.6z"/>
		<path class="st33" d="M826.3,1073h-291c-6,0-10.9,4.9-10.9,10.9c0,6,4.9,10.9,10.9,10.9h291c6,0,10.9-4.9,10.9-10.9
			C837.3,1077.9,832.4,1073,826.3,1073z"/>
		<path class="st33" d="M567.2,882.1c5.6,2.1,12-0.7,14.1-6.3l4.1-10.8h28.8l4.1,10.8c1.7,4.4,5.8,7.1,10.2,7.1
			c1.3,0,2.6-0.2,3.9-0.7c5.6-2.1,8.5-8.4,6.4-14.1l-27-71.7c0-0.1-0.1-0.2-0.1-0.3c-1.9-4.7-6.5-7.8-11.6-7.8c0,0,0,0,0,0
			c-5.1,0-9.7,3.1-11.6,7.8c0,0.1-0.1,0.2-0.1,0.2L560.8,868C558.7,873.6,561.5,879.9,567.2,882.1L567.2,882.1z M605.9,843.1h-12.2
			l6.1-16.1L605.9,843.1z"/>
		<path class="st33" d="M830.7,882.8c6,0,10.9-4.9,10.9-10.9v-72.7c0-6-4.9-10.9-10.9-10.9s-10.9,4.9-10.9,10.9v72.7
			C819.8,877.9,824.7,882.8,830.7,882.8L830.7,882.8z"/>
		<path class="st33" d="M735.5,871.9c0,2.9,1.2,5.7,3.2,7.7c2,2,4.8,3.2,7.7,3.2h0c0.6,0,15.3-0.1,21.2-0.2
			c22.9-0.4,39.5-20.2,39.5-47.1c0-28.3-16.2-47.3-40.3-47.3h-20.6c-2.9,0-5.7,1.2-7.7,3.2c-2,2.1-3.2,4.8-3.2,7.7
			C735.4,799.2,735.5,871.9,735.5,871.9L735.5,871.9z M766.9,810.1c17.1,0,18.4,19.4,18.4,25.4c0,12.4-5.6,25-18,25.3
			c-2.3,0-6.2,0.1-10,0.1c0-8.4-0.1-42-0.1-50.8H766.9z"/>
		<path class="st33" d="M665,877.2c5.8,3.7,12.2,5.5,19.3,5.6h0.1c6,0,11.7-1.3,16.9-3.9c12.7-6.4,19.7-17,19.7-29.7v-50
			c0-6-4.9-10.9-10.9-10.9s-10.9,4.9-10.9,10.9v50c0,3.1-0.9,6.8-7.7,10.2c-2.1,1.1-4.4,1.6-7,1.6c0,0,0,0,0,0
			c-2.8,0-5.3-0.7-7.5-2.1c-5.3-3.4-6.4-6.2-6.4-9.6v-50c0-6-4.9-10.9-10.9-10.9s-10.9,4.9-10.9,10.9v50
			C648.5,860.8,654,870.2,665,877.2z"/>
		<path class="st33" d="M869.3,810.1h9.1v61.7c0,6,4.9,10.9,10.9,10.9s10.9-4.9,10.9-10.9v-61.7h9.2c6,0,10.9-4.9,10.9-10.9
			s-4.9-10.9-10.9-10.9h-40.1c-6,0-10.9,4.9-10.9,10.9S863.2,810.1,869.3,810.1z"/>
		<path class="st33" d="M1099.3,1235.8c-1.4-5.9-7.3-9.5-13.1-8.2c-5.9,1.4-9.5,7.2-8.2,13.1c0.5,2.2,0.8,4.4,0.8,6.6
			c0,7.8-3,15-8.5,20.5c-11.3,11.3-29.7,11.3-41,0l-33.5-33.5c-2.1-2.1-4.8-3.2-7.7-3.2s-5.7,1.2-7.7,3.2l-33.5,33.5
			c-5.5,5.5-12.8,8.5-20.5,8.5s-15-3-20.5-8.5c-11.3-11.3-11.3-29.7,0-41l33.5-33.5c4.3-4.3,4.3-11.2,0-15.5l-33.5-33.5
			c-5.5-5.5-8.5-12.8-8.5-20.5c0-7.7,3-15,8.5-20.5c11.3-11.3,29.7-11.3,41,0l33.5,33.5c2.1,2.1,4.8,3.2,7.7,3.2
			c2.9,0,5.7-1.2,7.7-3.2l33.5-33.5c5.5-5.5,12.8-8.5,20.5-8.5c7.8,0,15,3,20.5,8.5c11.3,11.3,11.3,29.7,0,41l-33.5,33.5
			c-2,2-3.2,4.8-3.2,7.7c0,2.9,1.2,5.7,3.2,7.7l18.1,18.1c4.3,4.3,11.2,4.3,15.5,0c4.3-4.3,4.3-11.2,0-15.5l-10.4-10.4l25.8-25.8
			c19.8-19.8,19.8-52.1,0-71.9c-9.6-9.6-22.4-14.9-36-14.9c-9.3,0-18.3,2.5-26.1,7.2V730.6c0-58-47.2-105.2-105.2-105.2h-20.1
			c-13-12.2-29.8-18.8-47.7-18.8h-23.2c-16.2-33.3-49.7-54.4-87.2-54.4c-8.8,0-17.6,1.2-26.1,3.6c-5.8,1.6-9.2,7.6-7.6,13.5
			c1.6,5.8,7.6,9.2,13.5,7.6c6.6-1.8,13.4-2.8,20.3-2.8c31,0,58.5,18.6,69.9,47.5c1.7,4.2,5.7,6.9,10.2,6.9h30.4
			c12.8,0,24.9,5,34,14.1c9.1,9.1,14.1,21.1,14.1,34c0,26.5-21.5,48-48,48H629.8c-12.8,0-24.9-5-34-14.1
			c-9.1-9.1-14.1-21.1-14.1-33.9c0-26.5,21.5-48,48-48h30.3c4.5,0,8.5-2.7,10.2-6.9c3.8-9.6,9.4-18.2,16.8-25.5
			c4.3-4.3,4.3-11.2,0-15.5c-4.3-4.3-11.2-4.3-15.5,0c-7.7,7.6-13.9,16.4-18.6,26h-23.2c-18.4,0-35.2,7.2-47.7,18.8H562
			c-58,0-105.2,47.2-105.2,105.2v424.9c0,58,47.2,105.2,105.2,105.2h315.1c2.3,8.6,6.8,16.4,13.2,22.8c9.6,9.6,22.4,14.9,35.9,14.9
			c13.6,0,26.3-5.3,36-14.9l25.8-25.8l25.8,25.8c19.8,19.8,52.1,19.8,71.9,0c9.6-9.6,14.9-22.4,14.9-36
			C1100.6,1243.5,1100.2,1239.6,1099.3,1235.8L1099.3,1235.8z M478.7,1155.4V730.6c0-45.9,37.4-83.3,83.3-83.3h4.3
			c-4.1,8.9-6.4,18.8-6.4,29.2c0,18.7,7.3,36.2,20.5,49.4c13.2,13.2,30.8,20.5,49.4,20.5h220.9c38.5,0,69.9-31.3,69.9-69.9
			c0-10.2-2.2-20.2-6.4-29.2h4.3c45.9,0,83.3,37.4,83.3,83.3v369.4l-13.8,13.8l-25.8-25.8c-19.8-19.8-52.1-19.8-71.9,0
			c-9.6,9.6-14.9,22.4-14.9,36c0,13.6,5.3,26.3,14.9,36l25.8,25.8l-25.8,25.8c-7.5,7.5-12.4,17-14.1,27.2H562
			C516.1,1238.7,478.7,1201.3,478.7,1155.4L478.7,1155.4z"/>
	</g>
	<g class="st32">
		<path class="st33" d="M1096.9,654H458.7c-32.6,0-59.1,26.5-59.1,59.1v425.5c0,32.6,26.5,59.1,59.1,59.1h638.2
			c32.6,0,59.1-26.5,59.1-59.1V713.1C1156,680.5,1129.4,654,1096.9,654z M423.2,1138.5v-390h153.6V1174H458.7
			C439.1,1174,423.2,1158.1,423.2,1138.5z M1096.9,1174H600.5V748.5h460.9c6.5,0,11.8-5.3,11.8-11.8c0-6.5-5.3-11.8-11.8-11.8H423.2
			v-11.8c0-19.5,15.9-35.5,35.5-35.5h638.2c19.6,0,35.5,15.9,35.5,35.5v11.8h-23.6c-6.5,0-11.8,5.3-11.8,11.8
			c0,6.5,5.3,11.8,11.8,11.8h23.6v390C1132.3,1158.1,1116.4,1174,1096.9,1174z"/>
		<path class="st33" d="M458.7,689.4c-3.1,0-6.2,1.3-8.4,3.5s-3.5,5.2-3.5,8.4c0,3.1,1.3,6.2,3.5,8.4c2.2,2.2,5.3,3.5,8.4,3.5
			s6.1-1.3,8.4-3.5c2.2-2.2,3.5-5.2,3.5-8.4c0-3.1-1.3-6.2-3.5-8.4S461.8,689.4,458.7,689.4z"/>
		<path class="st33" d="M494.1,689.4c-3.1,0-6.2,1.3-8.4,3.5s-3.5,5.2-3.5,8.4c0,3.1,1.3,6.2,3.5,8.4c2.2,2.2,5.3,3.5,8.4,3.5
			s6.1-1.3,8.4-3.5c2.2-2.2,3.5-5.2,3.5-8.4c0-3.1-1.3-6.2-3.5-8.4S497.2,689.4,494.1,689.4z"/>
		<path class="st33" d="M529.6,689.4c-3.1,0-6.2,1.3-8.4,3.5s-3.5,5.2-3.5,8.4c0,3.1,1.3,6.2,3.5,8.4c2.2,2.2,5.3,3.5,8.4,3.5
			s6.2-1.3,8.4-3.5c2.2-2.2,3.5-5.3,3.5-8.4c0-3.1-1.3-6.2-3.5-8.4S532.7,689.4,529.6,689.4z"/>
		<path class="st33" d="M458.7,795.8h82.7c6.5,0,11.8-5.3,11.8-11.8c0-6.5-5.3-11.8-11.8-11.8h-82.7c-6.5,0-11.8,5.3-11.8,11.8
			C446.8,790.5,452.1,795.8,458.7,795.8z"/>
		<path class="st33" d="M541.4,819.4h-82.7c-6.5,0-11.8,5.3-11.8,11.8s5.3,11.8,11.8,11.8h82.7c6.5,0,11.8-5.3,11.8-11.8
			S547.9,819.4,541.4,819.4z"/>
		<path class="st33" d="M541.4,866.7h-82.7c-6.5,0-11.8,5.3-11.8,11.8c0,6.5,5.3,11.8,11.8,11.8h82.7c6.5,0,11.8-5.3,11.8-11.8
			C553.2,872,547.9,866.7,541.4,866.7z"/>
		<path class="st33" d="M505.9,914h-47.3c-6.5,0-11.8,5.3-11.8,11.8c0,6.5,5.3,11.8,11.8,11.8h47.3c6.5,0,11.8-5.3,11.8-11.8
			C517.8,919.3,512.5,914,505.9,914z"/>
		<path class="st33" d="M505.9,961.3h-47.3c-6.5,0-11.8,5.3-11.8,11.8s5.3,11.8,11.8,11.8h47.3c6.5,0,11.8-5.3,11.8-11.8
			S512.5,961.3,505.9,961.3z"/>
		<path class="st33" d="M470.5,1008.5h-11.8c-6.5,0-11.8,5.3-11.8,11.8s5.3,11.8,11.8,11.8h11.8c6.5,0,11.8-5.3,11.8-11.8
			S477,1008.5,470.5,1008.5z"/>
		<path class="st33" d="M718.7,902.2c15.8,0,30.6,6.1,41.8,17.3c4.6,4.6,12.1,4.6,16.7,0c4.6-4.6,4.6-12.1,0-16.7
			c-32.3-32.3-84.7-32.3-117,0c-15.6,15.6-24.2,36.4-24.2,58.5s8.6,42.9,24.2,58.5c16.1,16.1,37.3,24.2,58.5,24.2
			c21.2,0,42.4-8.1,58.5-24.2c4.6-4.6,4.6-12.1,0-16.7c-4.6-4.6-12.1-4.6-16.7,0c-11.2,11.2-26,17.3-41.8,17.3s-30.6-6.1-41.8-17.3
			c-11.2-11.2-17.3-26-17.3-41.8s6.1-30.6,17.3-41.8C688,908.3,702.9,902.2,718.7,902.2z"/>
		<path class="st33" d="M884.2,991.8c20.9-9.1,35.5-30,35.5-54.2c0-32.6-26.5-59.1-59.1-59.1h-47.3c-6.5,0-11.8,5.3-11.8,11.8
			c0,0.4,0,0.8,0.1,1.2v140.6c0,6.5,5.3,11.8,11.8,11.8s11.8-5.3,11.8-11.8v-130h35.5c19.5,0,35.5,15.9,35.5,35.5
			c0,19.5-15.9,35.5-35.5,35.5c-4.8,0-9.1,2.9-10.9,7.3s-0.8,9.5,2.6,12.9l47.3,47.3c2.3,2.3,5.3,3.5,8.4,3.5c3,0,6-1.2,8.4-3.5
			c4.6-4.6,4.6-12.1,0-16.7L884.2,991.8z"/>
		<path class="st33" d="M1076.2,878.9c-5.2-1.3-10.7,1-13.3,5.7l-48.8,87.8l-48.8-87.8c-2.6-4.7-8.1-7.1-13.3-5.7
			c-5.2,1.4-8.9,6.1-8.9,11.4v141.8c0,6.5,5.3,11.8,11.8,11.8s11.8-5.3,11.8-11.8V936l36.9,66.5c2.1,3.8,6,6.1,10.3,6.1
			s8.2-2.3,10.3-6.1l36.9-66.5v96.2c0,6.5,5.3,11.8,11.8,11.8s11.8-5.3,11.8-11.8V890.3C1085.1,885,1081.5,880.3,1076.2,878.9z"/>
	</g>
</g>
</svg>
