<?xml version="1.0" encoding="utf-8"?>
<!-- Generator: Adobe Illustrator 25.2.1, SVG Export Plug-In . SVG Version: 6.00 Build 0)  -->
<svg version="1.1" id="Calque_1" xmlns="http://www.w3.org/2000/svg" xmlns:xlink="http://www.w3.org/1999/xlink" x="0px" y="0px"
	 viewBox="0 0 1609 1284.1" style="enable-background:new 0 0 1609 1284.1;" xml:space="preserve">
<style type="text/css">
	.st0{opacity:0.8;}
	.st1{fill:#3A3A3A;}
	.st2{fill:#00A4CA;}
	.st3{display:none;}
	.st4{display:inline;}
	.st5{fill:#FFFFFF;}
	.st6{display:inline;fill:#FFFFFF;}
	.st7{display:inline;fill:#00A4CA;}
	.st8{display:inline;fill:#3A3A3A;}
</style>
<g class="st0">
	<path class="st1" d="M635.2,53.3c81,0,159.5,15.9,233.5,47.2c35.5,15,69.9,33.7,101.9,55.3c31.8,21.5,61.6,46.1,88.8,73.3
		s51.8,57,73.3,88.8c21.7,32.1,40.3,66.3,55.3,101.9c31.3,74,47.2,152.6,47.2,233.5s-15.9,159.5-47.2,233.5
		c-15,35.5-33.7,69.9-55.3,101.9c-21.5,31.8-46.1,61.6-73.3,88.8c-27.2,27.2-57,51.8-88.8,73.3c-32.1,21.7-66.3,40.3-101.9,55.3
		c-74,31.3-152.6,47.2-233.5,47.2s-159.5-15.9-233.5-47.2c-35.5-15-69.9-33.7-101.9-55.3c-31.8-21.5-61.6-46.1-88.8-73.3
		c-27.2-27.2-51.8-57-73.3-88.8c-21.7-32.1-40.3-66.3-55.3-101.9c-31.3-74-47.2-152.6-47.2-233.5s15.9-159.5,47.2-233.5
		c15-35.5,33.7-69.9,55.3-101.9c21.5-31.8,46.1-61.6,73.3-88.8s57-51.8,88.8-73.3c32.1-21.7,66.3-40.3,101.9-55.3
		C475.7,69.2,554.2,53.3,635.2,53.3 M635.2,32.7c-342.7,0-620.5,277.8-620.5,620.5s277.8,620.5,620.5,620.5s620.5-277.8,620.5-620.5
		S977.9,32.7,635.2,32.7L635.2,32.7z"/>
</g>
<g>
	<circle class="st2" cx="695" cy="622.1" r="609.5"/>
</g>
<g class="st3">
	
		<image style="display:inline;overflow:visible;opacity:0.2;" width="1339" height="1339" xlink:href="FCD83BEE.png"  transform="matrix(1 0 0 1 32.4724 -40.4117)">
	</image>
	<g class="st4">
		<g>
			<circle class="st5" cx="695.2" cy="622.2" r="609.5"/>
		</g>
	</g>
</g>
<g id="expertise" class="st3">
	<path class="st6" d="M989.2,512.2h-41.6v-4.7c0-11.6-9.5-21.1-21.1-21.1h-82.1c-5.7,0-10.2,4.6-10.2,10.2c0,5.7,4.6,10.2,10.2,10.2
		h82.1c0.3,0,0.6,0.3,0.6,0.6v124.9c0,5.7,4.6,10.2,10.2,10.2s10.2-4.6,10.2-10.2v-99.6h41.6c1.4,0,2.5,1.1,2.5,2.5v357.5
		c0,23.4-19.1,42.5-42.5,42.5H442.5c-23.4,0-42.5-19.1-42.5-42.5V535.2c0-1.4,1.1-2.5,2.5-2.5h43v350.4c0,14.4,11.8,26.2,26.2,26.2
		h449.7c14.5,0,26.2-11.8,26.2-26.2v-207c0-5.7-4.6-10.2-10.2-10.2c-5.7,0-10.2,4.6-10.2,10.2v147.5H761.3
		c-21.5,0-40.8,9.1-54.5,23.6V714.7c0-5.7-4.6-10.2-10.2-10.2c-5.7,0-10.2,4.6-10.2,10.2v132.5c-13.7-14.5-33.1-23.6-54.5-23.6
		h-46.6c-5.7,0-10.2,4.6-10.2,10.2s4.6,10.2,10.2,10.2h46.4c26.7,0,49,19.3,53.6,44.7H471.7c-3.2,0-5.7-2.6-5.7-5.7v-39h75.5
		c5.7,0,10.2-4.6,10.2-10.2s-4.6-10.2-10.2-10.2H466V507.5c0-0.3,0.3-0.6,0.6-0.6h82.1c5.7,0,10.2-4.6,10.2-10.2
		s-4.6-10.2-10.2-10.2h-82.1c-11.6,0-21.1,9.5-21.1,21.1v4.7h-43c-12.7,0-23,10.3-23,23v357.4c0,34.7,28.3,63,63,63h506.7
		c34.7,0,63-28.3,63-63V535.2C1012.2,522.5,1001.9,512.2,989.2,512.2L989.2,512.2z M761.3,844.1h165.8v39c0,3.2-2.6,5.7-5.7,5.7
		H707.7C712.3,863.4,734.6,844.1,761.3,844.1L761.3,844.1z"/>
	<path class="st6" d="M559.9,401c5.6,0.5,10.6-3.6,11.2-9.2c2.9-31.1,17.3-59.8,40.4-81c23.3-21.3,53.5-33,85-33
		c69.5,0,126,56.5,126,126c0,26.1-7.9,51.2-22.9,72.5c-0.1,0.1-0.2,0.2-0.2,0.4l-65.6,102c-1.1,1.7-1.6,3.6-1.6,5.5v13.3
		c0,2.7-2.2,4.9-4.9,4.9h-0.7l6.5-110.8h11.7c16.7,0,30.3-13.6,30.3-30.3v-1.2c0-16.7-13.6-30.3-30.3-30.3
		c-16,0-29.3,12.5-30.2,28.5l-0.8,12.8h-35.9l-0.8-12.8c-0.9-16-14.2-28.5-30.2-28.5c-16.7,0-30.3,13.6-30.3,30.3v1.2
		c0,16.7,13.6,30.3,30.3,30.3h11.7l6.5,110.7c-2.4-0.3-4.2-2.4-4.2-4.8v-13.3c0-2-0.6-3.9-1.6-5.5l-65.6-102.1
		c-0.1-0.1-0.2-0.2-0.2-0.4c-9.4-13.4-16.1-28.2-19.7-44.2c-1.3-5.5-6.8-9-12.3-7.7s-9,6.8-7.7,12.3c4.2,18.5,11.9,35.7,22.8,51.2
		l63.8,99.4v10.3c0,10.3,6.2,19.3,15.1,23.2V638c0,18.2,14.8,33.1,33.1,33.1h15.9c18.2,0,33.1-14.8,33.1-33.1v-17.3
		c8.9-3.9,15.1-12.9,15.1-23.2v-10.3l63.8-99.4c17.4-24.7,26.6-53.8,26.6-84.1c0-80.8-65.7-146.5-146.5-146.5
		c-36.7,0-71.8,13.6-98.9,38.4c-26.9,24.6-43.6,58.1-47,94.2C550.1,395.4,554.3,400.4,559.9,401L559.9,401z M735,459.5
		c0.3-5.2,4.6-9.2,9.8-9.2c5.4,0,9.8,4.4,9.8,9.8v1.2c0,5.4-4.4,9.8-9.8,9.8h-10.5L735,459.5z M646.9,471.1c-5.4,0-9.8-4.4-9.8-9.8
		v-1.2c0-5.4,4.4-9.8,9.8-9.8c5.2,0,9.5,4.1,9.8,9.2l0.7,11.6H646.9z M712.6,491.6l-6.5,110.8h-20.5l-6.5-110.8H712.6z M717,638
		c0,6.9-5.6,12.6-12.6,12.6h-15.9c-6.9,0-12.6-5.6-12.6-12.6v-15.1h41L717,638L717,638z"/>
	<path class="st6" d="M876,335c2.4,0,4.8-0.8,6.8-2.5l22.4-19.6c4.3-3.7,4.7-10.2,0.9-14.5c-3.7-4.3-10.2-4.7-14.5-0.9l-22.4,19.6
		c-4.3,3.7-4.7,10.2-0.9,14.5C870.3,333.8,873.2,335,876,335L876,335z"/>
	<path class="st6" d="M869.2,396.8l22.4,19.6c1.9,1.7,4.4,2.5,6.8,2.5c2.8,0,5.7-1.2,7.7-3.5c3.7-4.3,3.3-10.7-0.9-14.5l-22.4-19.6
		c-4.3-3.7-10.7-3.3-14.5,0.9C864.6,386.6,865,393.1,869.2,396.8L869.2,396.8z"/>
	<path class="st6" d="M487.9,312.8l22.4,19.6c1.9,1.7,4.4,2.5,6.8,2.5c2.8,0,5.7-1.2,7.7-3.5c3.7-4.3,3.3-10.7-0.9-14.5l-22.4-19.6
		c-4.3-3.7-10.7-3.3-14.5,0.9C483.3,302.6,483.7,309.1,487.9,312.8z"/>
	<path class="st6" d="M494.7,419c2.4,0,4.8-0.8,6.8-2.5l22.4-19.6c4.3-3.7,4.7-10.2,0.9-14.5c-3.7-4.3-10.2-4.7-14.5-0.9l-22.4,19.6
		c-4.3,3.7-4.7,10.2-0.9,14.5C489,417.8,491.8,419,494.7,419z"/>
	<path class="st6" d="M605.9,612.6c0-5.7-4.6-10.2-10.2-10.2h-101c-5.7,0-10.2,4.6-10.2,10.2s4.6,10.2,10.2,10.2h100.9
		C601.3,622.9,605.9,618.3,605.9,612.6z"/>
	<path class="st6" d="M626.8,654.5H513.2c-5.7,0-10.2,4.6-10.2,10.2s4.6,10.2,10.2,10.2h113.6c5.7,0,10.2-4.6,10.2-10.2
		S632.5,654.5,626.8,654.5z"/>
	<path class="st6" d="M626.8,704.4H513.2c-5.7,0-10.2,4.6-10.2,10.2c0,5.6,4.6,10.2,10.2,10.2h113.6c5.7,0,10.2-4.6,10.2-10.2
		S632.5,704.4,626.8,704.4z"/>
	<path class="st6" d="M626.8,754.3H513.2c-5.7,0-10.2,4.6-10.2,10.2c0,5.7,4.6,10.2,10.2,10.2h113.6c5.7,0,10.2-4.6,10.2-10.2
		C637.1,758.9,632.5,754.3,626.8,754.3z"/>
	<path class="st6" d="M908.6,612.6c0-5.7-4.6-10.2-10.2-10.2h-101c-5.7,0-10.2,4.6-10.2,10.2s4.6,10.2,10.2,10.2h100.9
		C904,622.9,908.6,618.3,908.6,612.6z"/>
	<path class="st6" d="M879.8,654.5H766.2c-5.7,0-10.2,4.6-10.2,10.2s4.6,10.2,10.2,10.2h113.6c5.7,0,10.2-4.6,10.2-10.2
		S885.5,654.5,879.8,654.5z"/>
	<path class="st6" d="M879.8,704.4H766.2c-5.7,0-10.2,4.6-10.2,10.2c0,5.6,4.6,10.2,10.2,10.2h113.6c5.7,0,10.2-4.6,10.2-10.2
		S885.5,704.4,879.8,704.4z"/>
	<path class="st6" d="M879.8,754.3H766.2c-5.7,0-10.2,4.6-10.2,10.2c0,5.7,4.6,10.2,10.2,10.2h113.6c5.7,0,10.2-4.6,10.2-10.2
		C890.1,758.9,885.5,754.3,879.8,754.3z"/>
</g>
<g id="audit" class="st3">
	<path class="st6" d="M756.1,345.4c0-25.5-20.7-46.2-46.2-46.2s-46.2,20.7-46.2,46.2s20.7,46.2,46.2,46.2S756.1,370.9,756.1,345.4z
		 M685.6,345.4c0-13.4,10.9-24.3,24.3-24.3s24.3,10.9,24.3,24.3c0,13.4-10.9,24.3-24.3,24.3S685.6,358.9,685.6,345.4z"/>
	<path class="st6" d="M505,634.1h409.8c6,0,10.9-4.9,10.9-10.9s-4.9-10.9-10.9-10.9H505c-6,0-10.9,4.9-10.9,10.9
		S499,634.1,505,634.1z"/>
	<path class="st6" d="M505,686.4h409.8c6,0,10.9-4.9,10.9-10.9s-4.9-10.9-10.9-10.9H505c-6,0-10.9,4.9-10.9,10.9
		C494.1,681.6,499,686.4,505,686.4z"/>
	<path class="st6" d="M505,738.8h409.8c6,0,10.9-4.9,10.9-10.9s-4.9-10.9-10.9-10.9H505c-6,0-10.9,4.9-10.9,10.9
		C494.1,733.9,499,738.8,505,738.8z"/>
	<path class="st6" d="M796,769.2H505c-6,0-10.9,4.9-10.9,10.9S499,791,505,791h291c6,0,10.9-4.9,10.9-10.9
		C807,774.1,802.1,769.2,796,769.2z"/>
	<path class="st6" d="M536.9,578.3c5.6,2.1,12-0.7,14.1-6.3l4.1-10.8h28.8L588,572c1.7,4.4,5.8,7.1,10.2,7.1c1.3,0,2.6-0.2,3.9-0.7
		c5.6-2.1,8.5-8.4,6.4-14.1l-27-71.7c0-0.1-0.1-0.2-0.1-0.3c-1.9-4.7-6.5-7.8-11.6-7.8l0,0c-5.1,0-9.7,3.1-11.6,7.8
		c0,0.1-0.1,0.2-0.1,0.2l-27.6,71.7C528.4,569.8,531.2,576.1,536.9,578.3L536.9,578.3z M575.6,539.3h-12.2l6.1-16.1L575.6,539.3z"/>
	<path class="st6" d="M800.4,579c6,0,10.9-4.9,10.9-10.9v-72.7c0-6-4.9-10.9-10.9-10.9s-10.9,4.9-10.9,10.9v72.7
		C789.5,574.1,794.4,579,800.4,579L800.4,579z"/>
	<path class="st6" d="M705.2,568.1c0,2.9,1.2,5.7,3.2,7.7s4.8,3.2,7.7,3.2l0,0c0.6,0,15.3-0.1,21.2-0.2
		c22.9-0.4,39.5-20.2,39.5-47.1c0-28.3-16.2-47.3-40.3-47.3h-20.6c-2.9,0-5.7,1.2-7.7,3.2c-2,2.1-3.2,4.8-3.2,7.7
		C705.1,495.4,705.2,568.1,705.2,568.1L705.2,568.1z M736.6,506.3c17.1,0,18.4,19.4,18.4,25.4c0,12.4-5.6,25-18,25.3
		c-2.3,0-6.2,0.1-10,0.1c0-8.4-0.1-42-0.1-50.8H736.6z"/>
	<path class="st6" d="M634.7,573.4c5.8,3.7,12.2,5.5,19.3,5.6h0.1c6,0,11.7-1.3,16.9-3.9c12.7-6.4,19.7-17,19.7-29.7v-50
		c0-6-4.9-10.9-10.9-10.9s-10.9,4.9-10.9,10.9v50c0,3.1-0.9,6.8-7.7,10.2c-2.1,1.1-4.4,1.6-7,1.6l0,0c-2.8,0-5.3-0.7-7.5-2.1
		c-5.3-3.4-6.4-6.2-6.4-9.6v-50c0-6-4.9-10.9-10.9-10.9s-10.9,4.9-10.9,10.9v50C618.2,557,623.7,566.4,634.7,573.4z"/>
	<path class="st6" d="M839,506.3h9.1V568c0,6,4.9,10.9,10.9,10.9s10.9-4.9,10.9-10.9v-61.7h9.2c6,0,10.9-4.9,10.9-10.9
		s-4.9-10.9-10.9-10.9H839c-6,0-10.9,4.9-10.9,10.9S832.9,506.3,839,506.3z"/>
	<path class="st6" d="M1069,932c-1.4-5.9-7.3-9.5-13.1-8.2c-5.9,1.4-9.5,7.2-8.2,13.1c0.5,2.2,0.8,4.4,0.8,6.6c0,7.8-3,15-8.5,20.5
		c-11.3,11.3-29.7,11.3-41,0l-33.5-33.5c-2.1-2.1-4.8-3.2-7.7-3.2s-5.7,1.2-7.7,3.2L916.6,964c-5.5,5.5-12.8,8.5-20.5,8.5
		s-15-3-20.5-8.5c-11.3-11.3-11.3-29.7,0-41l33.5-33.5c4.3-4.3,4.3-11.2,0-15.5l-33.5-33.5c-5.5-5.5-8.5-12.8-8.5-20.5
		s3-15,8.5-20.5c11.3-11.3,29.7-11.3,41,0l33.5,33.5c2.1,2.1,4.8,3.2,7.7,3.2s5.7-1.2,7.7-3.2l33.5-33.5c5.5-5.5,12.8-8.5,20.5-8.5
		c7.8,0,15,3,20.5,8.5c11.3,11.3,11.3,29.7,0,41l-33.5,33.5c-2,2-3.2,4.8-3.2,7.7c0,2.9,1.2,5.7,3.2,7.7l18.1,18.1
		c4.3,4.3,11.2,4.3,15.5,0s4.3-11.2,0-15.5l-10.4-10.4l25.8-25.8c19.8-19.8,19.8-52.1,0-71.9c-9.6-9.6-22.4-14.9-36-14.9
		c-9.3,0-18.3,2.5-26.1,7.2V426.8c0-58-47.2-105.2-105.2-105.2h-20.1c-13-12.2-29.8-18.8-47.7-18.8h-23.2
		c-16.2-33.3-49.7-54.4-87.2-54.4c-8.8,0-17.6,1.2-26.1,3.6c-5.8,1.6-9.2,7.6-7.6,13.5c1.6,5.8,7.6,9.2,13.5,7.6
		c6.6-1.8,13.4-2.8,20.3-2.8c31,0,58.5,18.6,69.9,47.5c1.7,4.2,5.7,6.9,10.2,6.9h30.4c12.8,0,24.9,5,34,14.1s14.1,21.1,14.1,34
		c0,26.5-21.5,48-48,48H599.5c-12.8,0-24.9-5-34-14.1s-14.1-21.1-14.1-33.9c0-26.5,21.5-48,48-48h30.3c4.5,0,8.5-2.7,10.2-6.9
		c3.8-9.6,9.4-18.2,16.8-25.5c4.3-4.3,4.3-11.2,0-15.5s-11.2-4.3-15.5,0c-7.7,7.6-13.9,16.4-18.6,26h-23.2
		c-18.4,0-35.2,7.2-47.7,18.8h-20c-58,0-105.2,47.2-105.2,105.2v424.9c0,58,47.2,105.2,105.2,105.2h315.1
		c2.3,8.6,6.8,16.4,13.2,22.8c9.6,9.6,22.4,14.9,35.9,14.9c13.6,0,26.3-5.3,36-14.9l25.8-25.8l25.8,25.8c19.8,19.8,52.1,19.8,71.9,0
		c9.6-9.6,14.9-22.4,14.9-36C1070.3,939.7,1069.9,935.8,1069,932L1069,932z M448.4,851.6V426.8c0-45.9,37.4-83.3,83.3-83.3h4.3
		c-4.1,8.9-6.4,18.8-6.4,29.2c0,18.7,7.3,36.2,20.5,49.4s30.8,20.5,49.4,20.5h220.9c38.5,0,69.9-31.3,69.9-69.9
		c0-10.2-2.2-20.2-6.4-29.2h4.3c45.9,0,83.3,37.4,83.3,83.3v369.4L957.7,810l-25.8-25.8c-19.8-19.8-52.1-19.8-71.9,0
		c-9.6,9.6-14.9,22.4-14.9,36s5.3,26.3,14.9,36l25.8,25.8L860,907.8c-7.5,7.5-12.4,17-14.1,27.2H531.7
		C485.8,934.9,448.4,897.5,448.4,851.6L448.4,851.6z"/>
</g>
<g id="crmside" class="st3">
	<g class="st4">
		<path class="st5" d="M1014.6,350.1H376.4c-32.6,0-59.1,26.5-59.1,59.1v425.5c0,32.6,26.5,59.1,59.1,59.1h638.2
			c32.6,0,59.1-26.5,59.1-59.1V409.2C1073.7,376.6,1047.1,350.1,1014.6,350.1z M340.9,834.6v-390h153.6v425.5H376.4
			C356.8,870.1,340.9,854.2,340.9,834.6z M1014.6,870.1H518.2V444.6h460.9c6.5,0,11.8-5.3,11.8-11.8s-5.3-11.8-11.8-11.8H340.9
			v-11.8c0-19.5,15.9-35.5,35.5-35.5h638.2c19.6,0,35.5,15.9,35.5,35.5V421h-23.6c-6.5,0-11.8,5.3-11.8,11.8s5.3,11.8,11.8,11.8
			h23.6v390C1050,854.2,1034.1,870.1,1014.6,870.1z"/>
		<path class="st5" d="M376.4,385.5c-3.1,0-6.2,1.3-8.4,3.5s-3.5,5.2-3.5,8.4c0,3.1,1.3,6.2,3.5,8.4s5.3,3.5,8.4,3.5
			s6.1-1.3,8.4-3.5c2.2-2.2,3.5-5.2,3.5-8.4c0-3.1-1.3-6.2-3.5-8.4S379.5,385.5,376.4,385.5z"/>
		<path class="st5" d="M411.8,385.5c-3.1,0-6.2,1.3-8.4,3.5s-3.5,5.2-3.5,8.4c0,3.1,1.3,6.2,3.5,8.4s5.3,3.5,8.4,3.5
			s6.1-1.3,8.4-3.5c2.2-2.2,3.5-5.2,3.5-8.4c0-3.1-1.3-6.2-3.5-8.4S414.9,385.5,411.8,385.5z"/>
		<path class="st5" d="M447.3,385.5c-3.1,0-6.2,1.3-8.4,3.5s-3.5,5.2-3.5,8.4c0,3.1,1.3,6.2,3.5,8.4s5.3,3.5,8.4,3.5
			s6.2-1.3,8.4-3.5s3.5-5.3,3.5-8.4c0-3.1-1.3-6.2-3.5-8.4S450.4,385.5,447.3,385.5z"/>
		<path class="st5" d="M376.4,491.9h82.7c6.5,0,11.8-5.3,11.8-11.8s-5.3-11.8-11.8-11.8h-82.7c-6.5,0-11.8,5.3-11.8,11.8
			C364.5,486.6,369.8,491.9,376.4,491.9z"/>
		<path class="st5" d="M459.1,515.5h-82.7c-6.5,0-11.8,5.3-11.8,11.8s5.3,11.8,11.8,11.8h82.7c6.5,0,11.8-5.3,11.8-11.8
			S465.6,515.5,459.1,515.5z"/>
		<path class="st5" d="M459.1,562.8h-82.7c-6.5,0-11.8,5.3-11.8,11.8s5.3,11.8,11.8,11.8h82.7c6.5,0,11.8-5.3,11.8-11.8
			S465.6,562.8,459.1,562.8z"/>
		<path class="st5" d="M423.6,610.1h-47.3c-6.5,0-11.8,5.3-11.8,11.8s5.3,11.8,11.8,11.8h47.3c6.5,0,11.8-5.3,11.8-11.8
			C435.5,615.4,430.2,610.1,423.6,610.1z"/>
		<path class="st5" d="M423.6,657.4h-47.3c-6.5,0-11.8,5.3-11.8,11.8s5.3,11.8,11.8,11.8h47.3c6.5,0,11.8-5.3,11.8-11.8
			S430.2,657.4,423.6,657.4z"/>
		<path class="st5" d="M388.2,704.6h-11.8c-6.5,0-11.8,5.3-11.8,11.8c0,6.5,5.3,11.8,11.8,11.8h11.8c6.5,0,11.8-5.3,11.8-11.8
			S394.7,704.6,388.2,704.6z"/>
	</g>
	<g class="st4">
		<g>
			<path class="st5" d="M644,528.5c15.8,0,30.6,6.1,41.8,17.3c4.6,4.6,12.1,4.6,16.7,0c4.6-4.6,4.6-12.1,0-16.7
				c-32.3-32.3-84.7-32.3-117,0c-15.6,15.6-24.2,36.4-24.2,58.5s8.6,42.9,24.2,58.5c16.1,16.1,37.3,24.2,58.5,24.2
				s42.4-8.1,58.5-24.2c4.6-4.6,4.6-12.1,0-16.7c-4.6-4.6-12.1-4.6-16.7,0c-11.2,11.2-26,17.3-41.8,17.3s-30.6-6.1-41.8-17.3
				s-17.3-26-17.3-41.8s6.1-30.6,17.3-41.8C613.3,534.6,628.2,528.5,644,528.5z"/>
			<path class="st5" d="M809.5,618.1c20.9-9.1,35.5-30,35.5-54.2c0-32.6-26.5-59.1-59.1-59.1h-47.3c-6.5,0-11.8,5.3-11.8,11.8
				c0,0.4,0,0.8,0.1,1.2v140.6c0,6.5,5.3,11.8,11.8,11.8s11.8-5.3,11.8-11.8v-130H786c19.5,0,35.5,15.9,35.5,35.5
				c0,19.5-15.9,35.5-35.5,35.5c-4.8,0-9.1,2.9-10.9,7.3s-0.8,9.5,2.6,12.9l47.3,47.3c2.3,2.3,5.3,3.5,8.4,3.5c3,0,6-1.2,8.4-3.5
				c4.6-4.6,4.6-12.1,0-16.7L809.5,618.1z"/>
			<path class="st5" d="M1001.5,505.2c-5.2-1.3-10.7,1-13.3,5.7l-48.8,87.8l-48.8-87.8c-2.6-4.7-8.1-7.1-13.3-5.7
				c-5.2,1.4-8.9,6.1-8.9,11.4v141.8c0,6.5,5.3,11.8,11.8,11.8s11.8-5.3,11.8-11.8v-96.1l36.9,66.5c2.1,3.8,6,6.1,10.3,6.1
				s8.2-2.3,10.3-6.1l36.9-66.5v96.2c0,6.5,5.3,11.8,11.8,11.8s11.8-5.3,11.8-11.8V516.6C1010.4,511.3,1006.8,506.6,1001.5,505.2z"
				/>
		</g>
		<g>
			<path class="st5" d="M627.5,693.8c-13.9,0-19.1,6.5-19.1,13.2c0,21.9,61,11.7,61,53.5c0,20.4-14.4,33.1-42,33.1
				c-19.9,0-35.8-9.9-42.3-20.4c-0.8-1.3-1.3-3-1.3-4.7c0-5,4-9,8.9-9c3.7,0,5.7,2,7.4,3.7c7,7,15.9,12.7,27.4,12.7
				c15.2,0,22.6-5,22.6-15.4c0-24.4-61-13.2-61-53.5c0-16.6,11.9-30.6,38.5-30.6c16.7,0,31.3,6.2,38,15.7c1,1.5,1.7,3.3,1.7,5.4
				c0,4.8-4,8.9-9,8.9c-2.3,0-4.7-1.3-7.2-3.7C645.8,697.7,637.1,693.8,627.5,693.8z"/>
			<path class="st5" d="M737.8,783c0,5.4-4.3,9.7-9.7,9.7s-9.7-4.3-9.7-9.7v-95.8c0-5.4,4.3-9.7,9.7-9.7s9.7,4.3,9.7,9.7V783z"/>
			<path class="st5" d="M823.6,678.8c33.3,0,54.4,15.1,54.4,56.4c0,41.3-21.1,56.2-54.4,56.2H801c-5.4,0-9.7-4.3-9.7-9.7v-93.2
				c0-5.4,4.3-9.7,9.7-9.7H823.6z M810.7,774h12.9c21.4,0,34.3-9.7,34.3-38.8c0-29.1-12.9-39-34.3-39h-12.9V774z"/>
			<path class="st5" d="M946.3,726.1H978c4.7,0,8.5,3.8,8.5,8.5c0,4.7-3.8,8.5-8.5,8.5h-31.6V774h44.3c4.9,0,8.7,3.8,8.7,8.7
				s-3.8,8.7-8.7,8.7h-54c-5.4,0-9.7-4.3-9.7-9.7v-93.2c0-5.4,4.3-9.7,9.7-9.7h52.2c4.9,0,8.7,3.8,8.7,8.7s-3.8,8.7-8.7,8.7h-42.5
				V726.1z"/>
		</g>
	</g>
</g>
<g id="salesforce" class="st3">
	<g>
		<path class="st7" d="M756.9,569.2c5.2,0,9.9,0,14.6,0c3.4,0,3.5,0.2,2.9,3.6c-0.4,2.3-0.7,4.5-1.2,6.8c-0.7,3.3-0.7,3.3-4,3.4
			c-3.9,0-7.8,0-11.7,0c-3.1,0-3.2,0-3.7,3.1c-1.7,9.6-3.3,19.2-5.1,28.8c-2.5,13.7-4.5,27.4-7.5,41c-1.1,4.8-2.6,9.5-4.8,14
			c-4.9,9.7-12.8,14.8-23.6,15.2c-4.6,0.2-9.2,0-13.6-1.5c-2.3-0.8-2.6-1.3-1.9-3.5c1-2.8,2.1-5.6,3.1-8.4c0.6-1.7,1.5-2,3.2-1.4
			c2.3,0.8,4.7,1.1,7.1,1c5.1-0.2,8.7-2.4,11-7c2.2-4.4,3.5-9,4.3-13.8c3.3-17.9,6.5-35.7,9.7-53.6c0.6-3.4,1.2-6.8,1.8-10.2
			c0.2-1.1,0.6-2.2,0.1-3.5c-3-0.4-6.1-0.1-9.2-0.2c-3.1-0.1-3.4-0.4-2.9-3.4c0.4-2.5,0.9-5,1.3-7.5c0.5-2.5,0.9-2.9,3.4-2.9
			c2.8-0.1,5.5-0.1,8.3,0c1.4,0,2-0.5,2.2-1.9c0.6-3.2,1.3-6.3,2.1-9.4c0.7-2.8,1.9-5.4,3.2-8c4.6-8.9,12-13.6,21.9-14.7
			c5-0.6,9.9-0.3,14.7,0.8c3.5,0.8,3.6,1.1,2.5,4.4c-0.8,2.3-1.6,4.5-2.5,6.8c-1.1,3.1-1.2,3.2-4.5,2.3c-2.2-0.5-4.3-0.6-6.5-0.6
			c-5.4,0.1-9.2,2.8-11.4,7.5C758.3,560.3,757.5,564.5,756.9,569.2z"/>
		<path class="st7" d="M523.8,618.1c0,7.9,0,15.9,0,23.8c0,3.1,0,3.2-3.1,3.9c-10.9,2.6-21.8,4.6-33,4.1c-4-0.2-8-0.6-11.9-1.6
			c-13.7-3.7-19.2-14.1-17.8-26.8c1.2-11.2,8.2-17.8,18.4-21.4c8.2-2.9,16.7-2.6,25.2-1.7c6.7,0.6,6.2,2,5.7-5.7
			c-0.3-5.1-3.2-8.4-8.2-10c-4.1-1.3-8.4-1.4-12.6-1c-6.1,0.6-12,1.9-17.5,4.7c-2.1,1.1-2.5,0.9-3.3-1.2c-1-2.6-1.9-5.2-2.9-7.7
			c-0.6-1.7-0.3-2.9,1.3-3.7c0.6-0.3,1.2-0.7,1.8-1c12.4-5.2,25.3-6.8,38.4-3.8c11.4,2.6,17.4,9.7,19.1,21.2
			c0.7,4.7,0.4,9.4,0.5,14.1C523.9,608.9,523.8,613.5,523.8,618.1C523.8,618.1,523.8,618.1,523.8,618.1z M507.5,623.5
			c0-3.2,0-6.4,0-9.6c0-1.4-0.5-2-1.9-2.2c-3.4-0.6-6.9-0.7-10.3-0.9c-4.6-0.3-9.2,0.2-13.5,2c-5.4,2.3-7.9,6.5-7.5,12.6
			c0.3,5.4,3.3,8.9,8.8,10.5c1.6,0.5,3.3,0.8,5.1,0.9c5.8,0.3,11.4-0.4,17.1-1.3c1.9-0.3,2.2-1.2,2.1-2.7
			C507.4,629.7,507.5,626.6,507.5,623.5z"/>
		<path class="st7" d="M1023.5,613.2c-7.8,0-15.6,0-23.5,0c-2.5,0-2.5,0.1-2.4,2.5c0.6,12.1,8,19.6,20,20.3c7.6,0.4,15.1-0.2,22.4-3
			c2.9-1.1,3.1-0.9,4.2,2c0.9,2.4,1.6,4.8,2.6,7.1c0.8,1.8,0.1,2.8-1.5,3.5c-4.2,2-8.6,3.1-13.2,3.7c-7.9,1.1-15.8,1.2-23.7-0.4
			c-15.1-3.1-25.1-13.5-27.8-28.9c-1.6-9.1-1.3-18.1,1.3-27c4.4-15.2,16.8-24.9,32.7-25.5c3.9-0.1,7.8,0,11.6,1
			c13.3,3.5,20.4,12.6,23.1,25.5c1.1,5.2,1.1,10.5,0.7,15.8c-0.2,3-0.4,3.2-3.6,3.2C1038.9,613.2,1031.2,613.2,1023.5,613.2
			C1023.5,613.2,1023.5,613.2,1023.5,613.2z M1015.8,600.7c5,0,10.1,0,15.1,0c3,0,3.1-0.1,2.7-3.2c-0.3-2.5-0.9-5-2.1-7.2
			c-2.2-4.4-5.6-7.6-10.6-8.6c-10-2-18.1,1.6-21.7,12c-0.5,1.5-0.9,3.1-1.3,4.6c-0.4,2.1-0.2,2.3,2,2.4
			C1005.3,600.7,1010.6,600.7,1015.8,600.7z"/>
		<path class="st7" d="M615,613.2c-7.8,0-15.6,0-23.4,0c-2.8,0-2.8,0-2.5,2.9c0.2,1.3,0.3,2.5,0.5,3.8c2,9.6,8.6,15.3,18.9,16.1
			c7.7,0.6,15.4,0,22.7-2.8c3.3-1.2,3.4-1.1,4.6,2.3c0.8,2.2,1.6,4.3,2.3,6.5c0.8,2.4,0.6,2.8-1.8,4c-4,1.9-8.2,2.9-12.6,3.5
			c-7.7,1.1-15.3,1.3-23-0.2c-15.4-2.9-25.5-12.7-28.5-28.1c-1.8-9.4-1.6-18.7,1.1-28c4.6-15.5,16.9-25,33-25.4
			c3.8-0.1,7.6,0,11.3,1c12.1,3.1,19.2,11.1,22.5,22.8c1.6,5.9,1.8,12,1.4,18.1c-0.2,3.4-0.5,3.6-4,3.6
			C630.1,613.2,622.6,613.2,615,613.2C615,613.2,615,613.2,615,613.2z M607.2,600.6c5.4,0,10.8,0,16.2,0c1.5,0,2.1-0.5,1.9-2
			c-0.5-4.6-1.8-9-5.1-12.5c-2.1-2.2-4.6-3.9-7.6-4.5c-9.9-1.9-18.1,1.3-21.8,11.8c-0.5,1.3-0.9,2.6-1.2,4c-0.7,2.9-0.5,3.2,2.5,3.2
			C597.1,600.7,602.2,600.7,607.2,600.6z"/>
		<path class="st7" d="M849.5,608.6c0.1,6.6-0.7,12.6-2.8,18.4c-4.9,13.6-14.6,21.3-29,23c-5.5,0.6-10.8,0.3-16.1-1.1
			c-11.6-3.2-19.3-10.9-23-22.2c-3.7-11.5-3.7-23.1-0.2-34.6c4.6-14.8,17-23.9,32.4-24.3c5.6-0.1,11,0.4,16.2,2.5
			c11.5,4.6,18.1,13.4,20.9,25.2C849.1,599.8,849.7,604.4,849.5,608.6z M793.5,609.2c-0.1,5.7,0.6,11.5,2.9,17
			c1.9,4.4,4.8,7.8,9.5,9.4c10.7,3.8,20.6-0.9,24.2-11.7c2.4-7.1,2.6-14.4,1.8-21.8c-0.4-3.4-1.1-6.8-2.5-10
			c-3.2-7.4-9-10.7-16.9-10.6c-8.1,0.1-13.3,3.6-16.3,10.9C794,597.8,793.4,603.3,793.5,609.2z"/>
		<path class="st7" d="M683.7,567.3c8.3,0.2,16.2,1.9,23.6,5.7c0.8,0.4,1.6,0.9,2.4,1.4c0.8,0.6,1.2,1.3,0.8,2.4
			c-1.1,3-2.2,6-3.3,9.1c-0.4,1.2-1.3,1.5-2.5,1c-0.6-0.3-1.2-0.6-1.9-0.9c-6.3-3-13-4.5-19.9-5c-2.9-0.2-5.7,0.3-8.3,1.7
			c-4.4,2.3-6.9,9.1-0.8,13.3c2.2,1.5,4.6,2.5,7.1,3.4c3.6,1.3,7.2,2.4,10.8,3.6c3.2,1.1,6.2,2.4,9.2,3.9
			c14.2,7.3,13.9,20.3,9.7,29.6c-3.6,7.9-10.4,11.9-18.6,13.3c-13.3,2.3-25.8,0.1-37.5-6.9c-3.2-1.9-3.2-2-1.9-5.4
			c0.9-2.5,1.7-5,2.7-7.5c0.7-1.7,1.3-1.9,2.9-1c1.4,0.8,2.7,1.7,4.1,2.5c7.7,4.4,15.9,6.4,24.8,5.5c2.4-0.3,4.5-1.1,6.3-2.6
			c4.6-3.7,4.3-10.1-0.6-13.4c-3-2-6.4-3-9.8-4.1c-3.6-1.2-7.2-2.3-10.8-3.4c-2.4-0.8-4.7-1.8-6.9-3.1c-11.5-6.5-14.8-20-7.6-31.2
			c4.5-6.9,11.3-10.2,19.3-11.3C679.1,567.4,681.4,567.4,683.7,567.3z"/>
		<path class="st7" d="M419.5,567.7c8.6-0.3,16.6,1.7,24.2,5.7c3.1,1.6,3.1,1.9,2,5.1c-0.8,2-1.5,4.1-2.3,6.1
			c-1.2,3-1.4,3.1-4.2,1.8c-4.5-2.2-9.2-3.7-14.1-4.5c-3.7-0.6-7.5-1.3-11.3-0.4c-2.3,0.5-4.4,1.4-6,3.2c-2.9,3.3-2.6,7.9,0.8,10.7
			c1.8,1.5,3.9,2.5,6,3.3c4.1,1.5,8.2,2.9,12.4,4.3c3.3,1.1,6.5,2.3,9.5,4c12.1,6.5,15.8,19.6,8.8,31.4c-3.9,6.6-10,10.1-17.3,11.4
			c-13.5,2.4-26.3,0.2-38.1-7.1c-2.8-1.7-2.8-1.8-1.7-4.9c0.9-2.6,1.8-5.2,2.8-7.8c0.7-1.7,1.3-1.9,2.9-1c0.7,0.4,1.4,0.8,2.1,1.3
			c6.7,4.4,14.1,6.7,22.1,7.1c3.4,0.2,6.6-0.3,9.7-1.9c5-2.6,7.3-10.9,0.3-14.8c-2.9-1.6-6.1-2.7-9.3-3.7c-3.6-1.2-7.2-2.3-10.8-3.4
			c-2.4-0.8-4.7-1.8-6.9-3.1c-12.6-7.1-15.1-23.8-5.1-34.4c4.8-5.1,10.9-7.5,17.8-8.2C415.5,567.5,417.5,567.7,419.5,567.7z"/>
		<path class="st7" d="M953.8,567.6c5.6-0.2,11.3,0.7,17,2.3c3.8,1.1,3.9,1.3,2.6,4.9c-0.7,2.1-1.5,4.1-2.3,6.1
			c-1.2,3.1-1.2,3.2-4.5,2.3c-3.9-1.1-7.9-1.6-11.9-1.7c-13.3-0.3-20.9,5.8-23.6,18.8c-1.2,5.8-1.2,11.7,0,17.5
			c2.4,11.2,9.8,17.5,21.2,18c5.2,0.2,10.3-0.3,15.3-2c3-1,3-1,4.2,2.1c0.9,2.5,1.9,5,2.7,7.5c0.7,2.2,0.6,2.5-1.6,3.3
			c-3.7,1.4-7.5,2.2-11.4,2.7c-7.6,0.9-15.2,1-22.6-1.1c-12.7-3.5-20.3-12.1-23.9-24.5c-2.7-9.6-2.7-19.3-0.2-29
			c4.4-16.4,17.4-26.8,34.3-27.3C950.7,567.5,952.1,567.6,953.8,567.6z"/>
		<path class="st7" d="M556.9,592.5c0,17,0,34,0,51c0,0.8,0,1.6,0,2.4c0.1,1.7-0.6,2.6-2.4,2.6c-3.9,0-7.8,0-11.7,0
			c-1.8,0-2.5-0.8-2.4-2.5c0-0.7,0-1.4,0-2.1c0-34.2,0-68.5,0-102.7c0-4.6,0-4.6,4.8-4.6c2.9,0,5.7,0,8.6,0c2.9,0,3,0.2,3.1,3.2
			c0,1.5,0,3,0,4.5C556.9,560.3,556.9,576.4,556.9,592.5z"/>
		<path class="st7" d="M878.9,576.4c4.5-4.1,8.8-6.6,13.8-7.6c5.2-1,10.3-0.5,15.4,0.8c2.1,0.5,2.2,0.9,1.5,3c-1,2.9-2,5.9-3.2,8.8
			c-0.9,2.3-1.2,2.5-3.6,2c-2.4-0.5-4.8-0.6-7.2-0.2c-8.9,1.3-14.3,7-15.6,16.7c-0.4,3.2-0.7,6.4-0.7,9.6c0.1,11.5,0,23,0,34.5
			c0,0.8,0,1.6,0,2.4c0,1.2-0.7,2-1.9,2c-4.1,0-8.3,0-12.4,0c-1.4,0-2.1-0.8-2.2-2.1c0-0.7,0-1.4,0-2.1c0-23.6,0-47.1,0-70.7
			c0-0.6,0-1.2,0-1.7c0-1.7,0.7-2.6,2.5-2.5c3.8,0,7.6,0,11.4,0c1.7,0,2.2,0.9,2.3,2.4C878.9,572.8,878.9,574.2,878.9,576.4z"/>
	</g>
	<g class="st4">
		<path class="st2" d="M260.8,707.9c0.3-1.4,0-2.8-0.5-4.2c0-10.8,0-21.7,0-32.5c0.7-1.3,0.6-2.8,0.5-4.2c7-46,30.2-81.5,69.2-106.7
			c2.8-1.8,2.9-1.4,1.5-4.8c-10.1-24.6-14.2-50.2-12.4-76.6c2.7-38,16.6-71.7,41.7-100.4c24-27.5,53.9-45.5,89.4-54.1
			c20-4.8,40.2-5.9,60.6-3.3c46.3,6,84,27.5,113.3,63.8c0.4,0.5,0.9,1,1.4,1.6c1.3-0.5,2-1.6,2.8-2.4c21.8-21.4,47.5-35.9,77.5-41.8
			c46.2-9.2,88.3,0.6,125.9,29.1c16.3,12.4,29.4,27.7,39.8,45.3c2,3.4,1.7,2.7,4.7,1.4c16.4-7,33.4-11.5,51.1-13.6
			c95.1-11.4,181.2,49.8,205.7,139.6c5.8,21.4,7.8,43.2,6.1,65.3c-6.2,80.8-61.4,147-135.9,169.1c-19.5,5.8-39.6,8.3-59.9,7.6
			c-9.3-0.3-18.6-1.3-27.7-3c-3.3-0.6-3.2-0.6-5.1,2.4c-19.8,32.4-47.8,54-84.6,63.6c-31.5,8.3-62.2,5.3-91.9-7.8
			c-4.1-1.8-3.3-1.9-5.1,1.9c-22.5,46.9-58.9,76.7-109.4,89.1c-5.5,1.3-11,2-16.7,1.9c-12.4-0.1-24.8-0.2-37.3,0
			c-8.2,0.1-16-1.8-23.7-4.1c-49.6-14.9-84.2-46.5-104.1-94.2c-0.2-0.5-0.5-1.1-0.6-1.6c-0.4-1.4-1.1-1.6-2.6-1.4
			c-3.8,0.8-7.7,1.3-11.6,1.8c-24.4,2.8-48.1,0.1-70.6-9.5c-48.7-20.6-78.6-57.1-90-108.8C261.7,713.8,261.3,710.8,260.8,707.9z
			 M756.9,569.2c0.6-4.7,1.4-8.9,3.2-12.7c2.3-4.7,6-7.4,11.4-7.5c2.2,0,4.3,0,6.5,0.6c3.3,0.8,3.4,0.7,4.5-2.3
			c0.8-2.3,1.7-4.5,2.5-6.8c1.2-3.2,1-3.6-2.5-4.4c-4.9-1.1-9.7-1.4-14.7-0.8c-9.9,1.1-17.2,5.9-21.9,14.7c-1.3,2.6-2.5,5.2-3.2,8
			c-0.8,3.1-1.5,6.3-2.1,9.4c-0.3,1.4-0.8,1.9-2.2,1.9c-2.8-0.1-5.5-0.1-8.3,0c-2.5,0-2.9,0.4-3.4,2.9c-0.5,2.5-0.9,5-1.3,7.5
			c-0.5,3-0.2,3.3,2.9,3.4c3.1,0.1,6.2-0.2,9.2,0.2c0.5,1.3,0.1,2.4-0.1,3.5c-0.6,3.4-1.2,6.8-1.8,10.2c-3.2,17.9-6.4,35.7-9.7,53.6
			c-0.9,4.8-2.2,9.4-4.3,13.8c-2.3,4.6-5.9,6.8-11,7c-2.4,0.1-4.8-0.2-7.1-1c-1.6-0.6-2.6-0.3-3.2,1.4c-1,2.8-2.1,5.6-3.1,8.4
			c-0.8,2.3-0.5,2.7,1.9,3.5c4.4,1.5,9,1.7,13.6,1.5c10.9-0.4,18.7-5.5,23.6-15.2c2.2-4.4,3.7-9.1,4.8-14c3.1-13.6,5-27.3,7.5-41
			c1.8-9.6,3.4-19.2,5.1-28.8c0.5-3,0.6-3,3.7-3.1c3.9,0,7.8,0,11.7,0c3.3,0,3.3,0,4-3.4c0.4-2.3,0.8-4.5,1.2-6.8
			c0.6-3.4,0.5-3.6-2.9-3.6C766.8,569.1,762.1,569.2,756.9,569.2z M523.8,618.1C523.8,618.1,523.8,618.1,523.8,618.1
			c0-4.6,0-9.2,0-13.8c-0.1-4.7,0.2-9.4-0.5-14.1c-1.7-11.6-7.7-18.6-19.1-21.2c-13.1-3-26-1.4-38.4,3.8c-0.6,0.3-1.2,0.7-1.8,1
			c-1.6,0.8-2,2.1-1.3,3.7c1,2.6,1.9,5.2,2.9,7.7c0.9,2.1,1.2,2.3,3.3,1.2c5.5-2.8,11.4-4.1,17.5-4.7c4.2-0.4,8.5-0.3,12.6,1
			c4.9,1.5,7.8,4.9,8.2,10c0.5,7.7,1,6.4-5.7,5.7c-8.5-0.8-17-1.1-25.2,1.7c-10.2,3.6-17.2,10.2-18.4,21.4
			c-1.4,12.7,4.2,23.1,17.8,26.8c3.9,1,7.9,1.5,11.9,1.6c11.3,0.5,22.2-1.6,33-4.1c3-0.7,3.1-0.8,3.1-3.9
			C523.8,633.9,523.8,626,523.8,618.1z M1023.5,613.2C1023.5,613.2,1023.5,613.2,1023.5,613.2c7.7,0,15.4,0,23.1,0
			c3.1,0,3.4-0.2,3.6-3.2c0.3-5.3,0.4-10.6-0.7-15.8c-2.8-13-9.9-22.1-23.1-25.5c-3.8-1-7.7-1.1-11.6-1
			c-15.9,0.6-28.3,10.2-32.7,25.5c-2.6,8.9-2.9,17.9-1.3,27c2.7,15.4,12.7,25.7,27.8,28.9c7.9,1.6,15.8,1.5,23.7,0.4
			c4.6-0.6,9-1.7,13.2-3.7c1.6-0.8,2.3-1.7,1.5-3.5c-1-2.3-1.7-4.8-2.6-7.1c-1.1-3-1.3-3.1-4.2-2c-7.2,2.8-14.7,3.4-22.4,3
			c-12.1-0.7-19.5-8.3-20-20.3c-0.1-2.4-0.1-2.5,2.4-2.5C1007.9,613.2,1015.7,613.2,1023.5,613.2z M615,613.2
			C615,613.2,615,613.2,615,613.2c7.6,0,15.2,0,22.7,0c3.5,0,3.8-0.2,4-3.6c0.4-6.1,0.2-12.2-1.4-18.1
			c-3.3-11.7-10.4-19.7-22.5-22.8c-3.7-1-7.5-1.1-11.3-1c-16.1,0.5-28.5,10-33,25.4c-2.7,9.2-2.9,18.6-1.1,28
			c3,15.3,13.1,25.2,28.5,28.1c7.6,1.5,15.3,1.3,23,0.2c4.3-0.6,8.6-1.6,12.6-3.5c2.4-1.2,2.6-1.5,1.8-4c-0.7-2.2-1.5-4.3-2.3-6.5
			c-1.2-3.4-1.3-3.5-4.6-2.3c-7.4,2.8-15,3.4-22.7,2.8c-10.3-0.8-16.9-6.4-18.9-16.1c-0.3-1.2-0.4-2.5-0.5-3.8
			c-0.4-2.9-0.4-2.9,2.5-2.9C599.4,613.2,607.2,613.2,615,613.2z M849.5,608.6c0.2-4.2-0.4-8.8-1.5-13.3
			c-2.8-11.8-9.4-20.6-20.9-25.2c-5.2-2.1-10.7-2.6-16.2-2.5c-15.5,0.4-27.9,9.5-32.4,24.3c-3.6,11.5-3.6,23.1,0.2,34.6
			c3.7,11.4,11.4,19,23,22.2c5.2,1.5,10.6,1.8,16.1,1.1c14.4-1.7,24.1-9.3,29-23C848.8,621.2,849.6,615.2,849.5,608.6z M683.7,567.3
			c-2.3,0.1-4.6,0.1-6.9,0.5c-7.9,1.2-14.7,4.4-19.3,11.3c-7.2,11.1-3.9,24.7,7.6,31.2c2.2,1.2,4.5,2.3,6.9,3.1
			c3.6,1.2,7.2,2.3,10.8,3.4c3.4,1.1,6.8,2.1,9.8,4.1c4.9,3.3,5.2,9.7,0.6,13.4c-1.8,1.5-3.9,2.4-6.3,2.6c-8.9,1-17.1-1.1-24.8-5.5
			c-1.4-0.8-2.7-1.7-4.1-2.5c-1.6-0.9-2.3-0.7-2.9,1c-1,2.5-1.8,5-2.7,7.5c-1.2,3.5-1.2,3.5,1.9,5.4c11.6,7,24.2,9.2,37.5,6.9
			c8.2-1.4,15-5.3,18.6-13.3c4.2-9.3,4.5-22.3-9.7-29.6c-3-1.5-6-2.8-9.2-3.9c-3.6-1.2-7.2-2.3-10.8-3.6c-2.5-0.9-4.9-1.9-7.1-3.4
			c-6.1-4.1-3.6-11,0.8-13.3c2.6-1.4,5.4-1.9,8.3-1.7c6.9,0.5,13.6,2,19.9,5c0.6,0.3,1.2,0.6,1.9,0.9c1.2,0.5,2,0.1,2.5-1
			c1.1-3,2.2-6,3.3-9.1c0.4-1.1,0.1-1.8-0.8-2.4c-0.8-0.5-1.6-1-2.4-1.4C699.9,569.2,692,567.5,683.7,567.3z M419.5,567.7
			c-2,0-3.9-0.2-5.9,0c-6.8,0.7-12.9,3.1-17.8,8.2c-10,10.6-7.5,27.3,5.1,34.4c2.2,1.2,4.5,2.3,6.9,3.1c3.6,1.2,7.2,2.3,10.8,3.4
			c3.2,1,6.3,2.1,9.3,3.7c7,3.8,4.7,12.2-0.3,14.8c-3.1,1.6-6.3,2.1-9.7,1.9c-8-0.4-15.3-2.7-22.1-7.1c-0.7-0.4-1.3-0.9-2.1-1.3
			c-1.6-0.8-2.2-0.7-2.9,1c-1,2.6-1.9,5.2-2.8,7.8c-1.1,3.1-1.1,3.2,1.7,4.9c11.8,7.2,24.6,9.4,38.1,7.1c7.3-1.3,13.4-4.8,17.3-11.4
			c7-11.8,3.3-24.9-8.8-31.4c-3-1.6-6.2-2.9-9.5-4c-4.1-1.4-8.3-2.8-12.4-4.3c-2.2-0.8-4.2-1.8-6-3.3c-3.4-2.8-3.7-7.4-0.8-10.7
			c1.6-1.8,3.6-2.7,6-3.2c3.8-0.9,7.6-0.2,11.3,0.4c4.9,0.8,9.6,2.3,14.1,4.5c2.8,1.4,3,1.2,4.2-1.8c0.8-2,1.6-4.1,2.3-6.1
			c1.2-3.2,1.1-3.5-2-5.1C436.1,569.4,428,567.4,419.5,567.7z M953.8,567.6c-1.7,0-3.1,0-4.5,0c-17,0.5-30,10.9-34.3,27.3
			c-2.6,9.7-2.5,19.4,0.2,29c3.5,12.4,11.2,20.9,23.9,24.5c7.4,2.1,15,2,22.6,1.1c3.9-0.5,7.7-1.3,11.4-2.7c2.2-0.8,2.3-1.1,1.6-3.3
			c-0.8-2.5-1.8-5-2.7-7.5c-1.1-3-1.2-3.1-4.2-2.1c-5,1.7-10.1,2.2-15.3,2c-11.5-0.5-18.9-6.8-21.2-18c-1.2-5.8-1.2-11.7,0-17.5
			c2.7-13,10.3-19.1,23.6-18.8c4,0.1,8,0.6,11.9,1.7c3.3,0.9,3.4,0.8,4.5-2.3c0.8-2,1.5-4.1,2.3-6.1c1.3-3.6,1.2-3.8-2.6-4.9
			C965.2,568.3,959.4,567.4,953.8,567.6z M556.9,592.5c0-16.1,0-32.2,0-48.3c0-1.5,0-3,0-4.5c-0.1-3-0.2-3.2-3.1-3.2
			c-2.9,0-5.7,0-8.6,0c-4.8,0-4.8,0-4.8,4.6c0,34.2,0,68.5,0,102.7c0,0.7,0,1.4,0,2.1c-0.1,1.7,0.6,2.6,2.4,2.5
			c3.9-0.1,7.8,0,11.7,0c1.8,0,2.5-0.9,2.4-2.6c0-0.8,0-1.6,0-2.4C556.9,626.5,556.9,609.5,556.9,592.5z M878.9,576.4
			c0-2.2,0-3.6,0-4.9c0-1.5-0.6-2.4-2.3-2.4c-3.8,0-7.6,0-11.4,0c-1.8,0-2.5,0.9-2.5,2.5c0,0.6,0,1.1,0,1.7c0,23.6,0,47.1,0,70.7
			c0,0.7,0,1.4,0,2.1c0.1,1.4,0.8,2.1,2.2,2.1c4.1,0,8.3,0,12.4,0c1.2,0,1.9-0.7,1.9-2c0-0.8,0-1.6,0-2.4c0-11.5,0-23,0-34.5
			c0-3.2,0.3-6.4,0.7-9.6c1.3-9.7,6.7-15.4,15.6-16.7c2.4-0.3,4.8-0.2,7.2,0.2c2.4,0.5,2.8,0.3,3.6-2c1.1-2.9,2.2-5.8,3.2-8.8
			c0.7-2.1,0.6-2.4-1.5-3c-5.1-1.3-10.2-1.8-15.4-0.8C887.6,569.8,883.3,572.4,878.9,576.4z"/>
		<path class="st2" d="M507.5,623.5c0,3.1,0,6.2,0,9.3c0,1.6-0.3,2.4-2.1,2.7c-5.7,0.9-11.3,1.6-17.1,1.3c-1.7-0.1-3.4-0.4-5.1-0.9
			c-5.6-1.6-8.5-5.1-8.8-10.5c-0.4-6.1,2.1-10.4,7.5-12.6c4.3-1.8,8.9-2.4,13.5-2c3.4,0.3,6.9,0.3,10.3,0.9c1.4,0.2,1.9,0.8,1.9,2.2
			C507.4,617,507.5,620.3,507.5,623.5z"/>
		<path class="st2" d="M1015.8,600.7c-5.3,0-10.5,0-15.8,0c-2.3,0-2.5-0.2-2-2.4c0.3-1.6,0.7-3.1,1.3-4.6
			c3.7-10.4,11.7-13.9,21.7-12c4.9,1,8.3,4.2,10.6,8.6c1.2,2.3,1.8,4.7,2.1,7.2c0.4,3.1,0.3,3.2-2.7,3.2
			C1025.9,600.7,1020.9,600.7,1015.8,600.7z"/>
		<path class="st2" d="M607.2,600.6c-5,0-10.1,0-15.1,0c-2.9,0-3.1-0.3-2.5-3.2c0.3-1.3,0.7-2.7,1.2-4c3.7-10.5,11.9-13.8,21.8-11.8
			c3,0.6,5.5,2.2,7.6,4.5c3.3,3.5,4.5,7.9,5.1,12.5c0.2,1.5-0.4,2-1.9,2C618,600.6,612.6,600.6,607.2,600.6z"/>
		<path class="st2" d="M793.5,609.2c-0.1-5.8,0.5-11.4,2.7-16.7c3-7.4,8.2-10.8,16.3-10.9c7.9-0.1,13.7,3.2,16.9,10.6
			c1.4,3.2,2.1,6.5,2.5,10c0.8,7.4,0.6,14.7-1.8,21.8c-3.6,10.8-13.5,15.5-24.2,11.7c-4.7-1.7-7.6-5-9.5-9.4
			C794.1,620.7,793.4,614.9,793.5,609.2z"/>
	</g>
</g>
<g id="vmv">
	<path class="st5" d="M458.9,677.6c2,5.4,5.2,10.3,9.2,14.3c7.2,7.2,17,11.6,27.9,11.6c10.8,0,20.7-4.4,27.9-11.6
		c7.2-7.2,11.6-17,11.6-27.9v-22c-8.3,0.7-15.6-1.1-21.3-3.5c-0.5,2.5-1.1,4.9-1.8,7.3c-2.8,9.2-7.5,17.5-15,23.5
		c-7.6,6.1-17.6,9.6-30.9,9C464,678.3,461.5,678,458.9,677.6L458.9,677.6z M691.7,618.7h79v-24.8h-60.8c-5,0-9.5,2.1-12.8,5.4
		c-3.3,3.3-5.3,7.8-5.3,12.8V618.7z M770.7,636.7h-79V664c0,10.8,4.4,20.7,11.6,27.9c7.2,7.2,17,11.6,27.9,11.6
		c10.9,0,20.8-4.4,27.9-11.6c7.2-7.2,11.6-17,11.6-27.9L770.7,636.7L770.7,636.7z M1016.9,696.7c4.8,2.5,9.1,6,12.6,10.1
		c6.3,7.4,10.1,16.9,10.1,27.3v60.6c0,5-4,9-9,9c-5,0-9-4-9-9v-60.6c0-6-2.2-11.5-5.8-15.7c-3.2-3.8-7.5-6.6-12.4-7.9
		c-9.5,6.9-21.1,11-33.7,11c-13,0-25-4.3-34.7-11.7c-1.8,0.2-3.6,0.7-5.3,1.5c-2.3,1.1-4.4,2.8-6.1,5l-48.3,63.9
		c-1.7,2.2-4.3,3.6-7.2,3.6h-61.8c-4.6,0-8.7,1.8-11.7,4.8c-3,3-4.9,7.2-4.9,11.7c0,4.6,1.9,8.7,4.9,11.7c3,3,7.1,4.9,11.7,4.9h73.9
		c3,0,5.2-0.3,8.1-1.7c5.2-2.6,10.1-10.6,13.7-15.3l32-42.3c3-4,8.6-4.8,12.6-1.8c3.9,3,4.7,8.6,1.7,12.6l-30.4,40.3V887h103.8
		v-51.6c0-5,4-9,9-9s9,4,9,9V896c0,5-4,9-9,9c-198.5,0-397,0-595.5,0c-5,0-9-4-9-9v-60.6c0-5,4-9,9-9c5,0,9,4,9,9V887h103.9v-78.3
		l-30.4-40.3c-3-3.9-2.2-9.6,1.8-12.6c3.9-3,9.6-2.2,12.6,1.8l31.2,41.4c2.9,3.8,5.7,7.6,8.6,11.4c1.6,2.1,3.6,3.8,5.8,4.9
		c2.5,1.3,4.8,1.7,7.5,1.7h74.4c4.6,0,8.7-1.9,11.7-4.9c3-3,4.8-7.1,4.8-11.7c0-4.6-1.8-8.7-4.8-11.7c-3-3-7.2-4.8-11.7-4.8h-61.9
		c-2.7,0-5.4-1.3-7.2-3.6l-48.3-63.9c-2.8-3.6-6.9-6-11.4-6.5c-9.6,7.3-21.7,11.7-34.7,11.7c-12.6,0-24.3-4.1-33.7-11
		c-4.8,1.3-9.1,4-12.3,7.7c-3.7,4.3-5.9,9.8-5.9,15.9v60.6c0,5-4,9-9,9c-5,0-9-4-9-9v-60.6c0-10.5,3.9-20.2,10.3-27.6
		c3.5-4,7.6-7.3,12.3-9.8c-6.7-9.6-10.2-21-10.2-32.6v-52c0-10,4-19,10.6-25.5c6.6-6.5,15.6-10.6,25.5-10.6h42.7
		c10,0,19,4.1,25.5,10.6c6.6,6.6,10.6,15.6,10.6,25.5v52c0,11.5-3.4,22.3-9.3,31.3c4.9,2.4,9,5.8,12.3,10.2l45.5,60.3h36v-36.4
		c0-10.3,5.5-19.7,14.3-27.6c6.9-6.1,15.9-11.4,25.9-15.7c-2.9-6.8-4.4-14.3-4.4-22.1v-36.3v-15.7c0-10,4.1-19,10.6-25.5
		c6.6-6.5,15.6-10.6,25.5-10.6h69.8c5,0,9,4,9,9v42.8V664c0,7.4-1.4,14.4-4,21c10.7,4.2,20.4,9.6,27.8,16
		c9.4,8.1,15.2,17.7,15.2,28.4v36.4h36l45.5-60.3c3.4-4.4,7.6-7.8,12.3-10.1c-5.9-9-9.3-19.8-9.3-31.3v-52c0-10,4.1-19,10.6-25.5
		c6.6-6.5,15.6-10.6,25.5-10.6H991c10,0,19,4.1,25.5,10.6c6.5,6.6,10.6,15.6,10.6,25.5v52C1027.2,675.7,1023.6,687.1,1016.9,696.7
		L1016.9,696.7z M1006.8,677.6c-2.6,0.4-5.1,0.7-7.5,0.8c-13.3,0.7-23.3-2.9-30.9-9c-7.5-6-12.2-14.4-15-23.5
		c-0.7-2.4-1.3-4.8-1.8-7.3c-5.7,2.4-13,4.2-21.4,3.5v22c0,10.8,4.4,20.7,11.6,27.9c7.2,7.2,17,11.6,27.9,11.6
		c10.8,0,20.7-4.4,27.9-11.6C1001.6,687.9,1004.8,683,1006.8,677.6L1006.8,677.6z M930.2,624.1c12,1.7,20.8-5.3,22.3-6.6
		c1.8-1.5,3.4-2.4,5.8-2.5c5-0.2,9.1,3.6,9.4,8.5c0.3,5.8,1.1,11.8,2.8,17.2c1.8,6,4.7,11.3,9.1,14.8c4.3,3.5,10.4,5.4,18.9,5
		c3.3-0.2,6.8-0.7,10.8-1.6v-46.8c0-5-2.1-9.5-5.4-12.8c-3.3-3.3-7.8-5.4-12.8-5.4h-42.7c-5,0-9.5,2.1-12.8,5.4
		c-3.3,3.3-5.4,7.8-5.4,12.8L930.2,624.1z M535.5,624.1v-12c0-5-2-9.5-5.3-12.8c-3.3-3.3-7.8-5.4-12.8-5.4h-42.7
		c-5,0-9.5,2.1-12.8,5.4c-3.3,3.3-5.3,7.8-5.3,12.8v46.8c3.9,0.9,7.5,1.4,10.7,1.6c8.5,0.4,14.5-1.6,18.8-5
		c4.4-3.5,7.3-8.8,9.1-14.8c1.7-5.4,2.5-11.3,2.8-17.2c0.2-5,4.4-8.8,9.4-8.5c2.3,0.1,4.1,1,5.8,2.4
		C514.4,618.5,523.3,625.8,535.5,624.1z M687.8,701.6c-9.4,3.6-17.7,8.3-23.6,13.6c-5.1,4.6-8.3,9.4-8.3,14.2v36.4h3.5
		c9.5,0,18.2,3.9,24.4,10.1c6.2,6.2,10.1,14.9,10.1,24.4c0,6-1.6,11.6-4.2,16.6H776c-2.7-4.9-4.2-10.6-4.2-16.6
		c0-9.5,3.9-18.2,10.1-24.4c6.2-6.2,14.9-10.1,24.4-10.1h3.5v-36.4c0-5-3.4-10.1-8.9-14.8c-6.5-5.5-15.4-10.3-25.4-14
		c-1.2,1.4-2.4,2.8-3.6,4c-10.4,10.4-24.8,16.9-40.6,16.9c-15.8,0-30.2-6.5-40.6-16.9C689.6,703.6,688.7,702.6,687.8,701.6
		L687.8,701.6z M501,377.6c-5,0-9-4-9-9s4-9,9-9h166.4c5,0,9,4,9,9c0,5-4,9-9,9H501z M501,472.2c-5,0-9-4-9-9s4-9,9-9h83.2
		c5,0,9,4,9,9s-4,9-9,9H501z M501,424.9c-5,0-9-4-9-9c0-5,4-9,9-9h166.4c5,0,9,4,9,9c0,5-4,9-9,9H501z M676.6,520.7
		c1.3,3.5,3.3,6.6,5.8,9.2c4.6,4.6,10.9,7.4,17.9,7.4h52.8c5,0,9,4,9,9c0,5-4,9-9,9h-52.8c-12,0-22.8-4.9-30.6-12.8
		c-5.8-5.9-10-13.4-11.8-21.8H532.6l-40.7,40.7c-1.6,1.6-3.9,2.6-6.4,2.6c-5,0-9-4-9-9v-35.1c-11.4-1.9-21.6-7.4-29.5-15.2
		c-9.9-9.8-16-23.5-16-38.5V365.5c0-15,6.1-28.6,16-38.5c9.8-9.8,23.5-16,38.5-16h197.3c15,0,28.6,6.1,38.5,16
		c9.9,9.9,16,23.5,16,38.5v16.6h152.6c11.9,0,22.7,4.9,30.6,12.7c7.8,7.8,12.7,18.6,12.7,30.6V512c0,11.9-4.9,22.7-12.7,30.6
		c-5.8,5.8-13.3,10-21.6,11.8v35.3c0,2.3-0.8,4.6-2.6,6.4c-3.5,3.5-9.2,3.5-12.7,0l-40.7-40.7h-49.1c-5,0-9-4-9-9c0-5,4-9,9-9h52.8
		c2.5,0,4.8,1,6.4,2.7l28,28v-21.6c0-5,4-9,9-9c6.9,0,13.3-2.9,17.9-7.4c4.6-4.6,7.4-10.9,7.4-17.9v-86.5c0-7-2.9-13.3-7.4-17.9
		c-4.6-4.6-10.9-7.4-17.9-7.4H737.3v66.1c0,15-6.1,28.6-16,38.5c-9.8,9.9-23.5,16-38.5,16L676.6,520.7L676.6,520.7z M528.9,502.7
		h153.9c10.1,0,19.2-4.1,25.8-10.7c6.6-6.6,10.7-15.8,10.7-25.8V365.5c0-10-4.1-19.2-10.7-25.8S692.9,329,682.8,329H485.6
		c-10.1,0-19.2,4.1-25.8,10.7c-6.6,6.6-10.7,15.8-10.7,25.8v100.7c0,10,4.1,19.2,10.7,25.8c6.6,6.6,15.7,10.7,25.8,10.7c5,0,9,4,9,9
		v21.6l28-28C524.3,503.6,526.6,502.7,528.9,502.7L528.9,502.7z M899.8,834.9H565.9V887h333.9L899.8,834.9L899.8,834.9z"/>
</g>
<g class="st3">
	<path class="st8" d="M821.9,1107.3c0-33.1,29-60.9,63.3-60.9c18.4,0,35.2,7.9,46.9,20.3l-21.5,19.1c-6.2-7.7-15.4-12.7-25.4-12.7
		c-18,0-33.3,15.8-33.3,34.3c0,18.7,15.3,34.5,33.3,34.5c10.1,0,19.2-5,25.6-12.7l21.3,18.9c-11.7,12.5-28.5,20.4-46.9,20.4
		C850.9,1168.4,821.9,1140.4,821.9,1107.3z"/>
	<path class="st8" d="M1016.3,1166.4l-25.9-36.9H976v36.9h-29.3v-117.9h54.8c25.9,0,44.8,16.6,44.8,40.5c0,17.2-9.8,30.7-25.1,36.9
		l28.5,40.5H1016.3z M976,1102.7h22.7c10.1,0,17.3-5.5,17.3-13.7s-7.2-13.7-17.3-13.7H976V1102.7z"/>
	<path class="st8" d="M1065.3,1048.4h29.3l34,61.4l34-61.4h29.3v117.9h-29.3V1098l-34,61.4l-34-61.4v68.3h-29.3V1048.4z"/>
	<path class="st8" d="M1206.2,1148.7l16.5-19.7c11.5,9.4,24.4,14.9,38.8,14.9c11,0,16.6-4.5,16.6-10.8c0-7-5.5-8.6-22.7-12.7
		c-25.2-5.7-43.9-12.5-43.9-36.2c0-22.7,18.2-37.8,45.1-37.8c19.7,0,35.2,5.7,47.7,16.1l-14.9,20.9c-10.8-8.2-22.7-12.5-33.6-12.5
		c-9.4,0-14.8,4.5-14.8,10.3c0,7.2,5.7,9.6,23.2,13.4c26.4,5.7,43.4,13.2,43.4,35.4c0,23.7-18,38.4-47.2,38.4
		C1239.5,1168.4,1220.4,1161.5,1206.2,1148.7z"/>
	<path class="st8" d="M1324.6,1048.4h29.3v117.9h-29.3V1048.4z"/>
	<path class="st8" d="M1376.8,1048.4h43.1c40.5,0,69,24.4,69,58.9s-28.5,59-69,59h-43.1V1048.4z M1424.3,1139.7
		c20.1,0,34.5-13.6,34.5-32.4s-14.4-32.3-34.5-32.3h-18.2v64.7H1424.3z"/>
	<path class="st8" d="M1536,1074.7v18.4h57.7v26.3H1536v20.8h63.5v26.3h-92.9v-117.9h92.9v26.3H1536z"/>
</g>
<g class="st3">
	<path class="st8" d="M1021.8,1149.2h-46.7l-6.9,17.2h-33l46.7-117.9h33l46.7,117.9h-33L1021.8,1149.2z M1012.7,1126.2l-14.2-36.2
		l-14.2,36.2H1012.7z"/>
	<path class="st8" d="M1073.1,1114.7v-66.2h29.3v64.9c0,16.6,10.6,28.5,25.4,28.5c14.9,0,25.6-11.8,25.6-28.5v-64.9h29.2v66.2
		c0,31.6-22.5,53.7-54.8,53.7C1095.7,1168.4,1073.1,1146.3,1073.1,1114.7z"/>
	<path class="st8" d="M1204.4,1048.4h43.1c40.5,0,69,24.4,69,58.9s-28.5,59-69,59h-43.1V1048.4z M1251.9,1139.7
		c20.1,0,34.5-13.6,34.5-32.4s-14.4-32.3-34.5-32.3h-18.2v64.7H1251.9z"/>
	<path class="st8" d="M1334.8,1048.4h29.3v117.9h-29.3V1048.4z"/>
	<path class="st8" d="M1416,1074.7h-35.9v-26.3h100.9v26.3h-35.7v91.7H1416V1074.7z"/>
</g>
<g class="st3">
	<path class="st8" d="M430.3,1150.8l16.8-20.1c11.7,9.6,24.8,15.2,39.4,15.2c11.2,0,16.9-4.5,16.9-11c0-7.2-5.6-8.7-23-12.9
		c-25.7-5.8-44.7-12.7-44.7-36.8c0-23,18.5-38.4,45.9-38.4c20.1,0,35.8,5.8,48.5,16.4l-15.2,21.3c-11-8.4-23-12.7-34.2-12.7
		c-9.6,0-15,4.5-15,10.5c0,7.3,5.8,9.8,23.6,13.6c26.9,5.8,44.2,13.4,44.2,36c0,24.1-18.3,39.1-48,39.1
		C464.1,1170.9,444.8,1163.9,430.3,1150.8z"/>
	<path class="st8" d="M628.2,1151.3h-47.5l-7,17.5h-33.5l47.5-119.9h33.5l47.5,119.9h-33.5L628.2,1151.3z M618.9,1127.9l-14.5-36.8
		l-14.5,36.8H618.9z"/>
	<path class="st8" d="M768.2,1142.1v26.7h-87.4v-119.9h29.7v93.2H768.2z"/>
	<path class="st8" d="M813.7,1075.6v18.7h58.6v26.7h-58.6v21.1h64.6v26.7h-94.4v-119.9h94.4v26.7H813.7z"/>
	<path class="st8" d="M888.2,1150.8l16.8-20.1c11.7,9.6,24.8,15.2,39.4,15.2c11.2,0,16.9-4.5,16.9-11c0-7.2-5.6-8.7-23-12.9
		c-25.7-5.8-44.7-12.7-44.7-36.8c0-23,18.5-38.4,45.9-38.4c20.1,0,35.8,5.8,48.5,16.4l-15.2,21.3c-11-8.4-23-12.7-34.2-12.7
		c-9.6,0-15,4.5-15,10.5c0,7.3,5.8,9.8,23.6,13.6c26.9,5.8,44.2,13.4,44.2,36c0,24.1-18.3,39.1-48,39.1
		C922.1,1170.9,902.7,1163.9,888.2,1150.8z"/>
	<path class="st8" d="M1038,1075.6v21.5h58.6v26.7H1038v45h-29.8v-119.9h94.4v26.7H1038z"/>
	<path class="st8" d="M1115.8,1108.7c0-33.7,29.5-62,64.4-62c35.1,0,64.6,28.3,64.6,62c0,33.7-29.5,62.1-64.6,62.1
		C1145.3,1170.9,1115.8,1142.4,1115.8,1108.7z M1214.1,1108.7c0-18.8-15.5-34.9-33.9-34.9c-18.3,0-33.9,16.1-33.9,34.9
		c0,19,15.5,35.1,33.9,35.1C1198.6,1143.8,1214.1,1127.8,1214.1,1108.7z"/>
	<path class="st8" d="M1333.1,1168.8l-26.4-37.5h-14.7v37.5h-29.8v-119.9h55.7c26.4,0,45.6,16.9,45.6,41.2
		c0,17.5-9.9,31.2-25.5,37.5l29,41.2H1333.1z M1292.1,1104h23c10.3,0,17.6-5.6,17.6-14c0-8.4-7.3-14-17.6-14h-23V1104z"/>
	<path class="st8" d="M1377.8,1108.7c0-33.7,29.5-62,64.4-62c18.7,0,35.8,8,47.6,20.6l-21.8,19.4c-6.3-7.9-15.7-12.9-25.8-12.9
		c-18.3,0-33.9,16.1-33.9,34.9c0,19,15.5,35.1,33.9,35.1c10.3,0,19.5-5.1,26-12.9l21.6,19.2c-11.9,12.7-29,20.8-47.6,20.8
		C1407.3,1170.9,1377.8,1142.4,1377.8,1108.7z"/>
	<path class="st8" d="M1534.5,1075.6v18.7h58.6v26.7h-58.6v21.1h64.6v26.7h-94.4v-119.9h94.4v26.7H1534.5z"/>
</g>
<g>
	<g>
		<path class="st1" d="M775,1048.5l-46.9,118.3h-33.1l-46.9-118.3h33.1l30.3,76.7l30.3-76.7H775z"/>
		<path class="st1" d="M787.8,1048.5h29.5v118.3h-29.5V1048.5z"/>
		<path class="st1" d="M831.3,1149.1l16.5-19.8c11.5,9.5,24.5,15,38.9,15c11,0,16.7-4.5,16.7-10.9c0-7.1-5.5-8.6-22.7-12.7
			c-25.3-5.7-44.1-12.6-44.1-36.3c0-22.7,18.3-37.9,45.3-37.9c19.8,0,35.3,5.7,47.9,16.2l-15,21c-10.9-8.3-22.7-12.6-33.8-12.6
			c-9.5,0-14.8,4.5-14.8,10.3c0,7.2,5.7,9.6,23.3,13.4c26.5,5.7,43.6,13.3,43.6,35.5c0,23.8-18.1,38.6-47.4,38.6
			C864.8,1168.9,845.6,1162,831.3,1149.1z"/>
		<path class="st1" d="M997.7,1048.5h29.5l34.1,61.7l34.1-61.7h29.5v118.3h-29.5v-68.6l-34.1,61.7l-34.1-61.7v68.6h-29.5V1048.5z"/>
		<path class="st1" d="M1224.4,1149.6h-46.9l-6.9,17.2h-33.1l46.9-118.3h33.1l46.9,118.3h-33.1L1224.4,1149.6z M1215.3,1126.5
			l-14.3-36.3l-14.3,36.3H1215.3z"/>
		<path class="st1" d="M1441.1,1048.5l-46.9,118.3h-33.1l-46.9-118.3h33.1l30.3,76.7l30.3-76.7H1441.1z"/>
		<path class="st1" d="M1453.9,1048.5h29.5v118.3h-29.5V1048.5z"/>
		<path class="st1" d="M1535.2,1074.8v18.4h57.9v26.4h-57.9v20.8h63.7v26.4h-93.2v-118.3h93.2v26.4H1535.2z"/>
	</g>
</g>
</svg>
