<?xml version="1.0" encoding="utf-8"?>
<!-- Generator: Adobe Illustrator 25.2.1, SVG Export Plug-In . SVG Version: 6.00 Build 0)  -->
<svg version="1.1" id="Calque_1" xmlns="http://www.w3.org/2000/svg" xmlns:xlink="http://www.w3.org/1999/xlink" x="0px" y="0px"
	 viewBox="0 0 850.4 850.4" style="enable-background:new 0 0 850.4 850.4;" xml:space="preserve">
<style type="text/css">
	.st0{display:none;}
	.st1{display:inline;}
	.st2{display:inline;fill:#398CAF;}
	.st3{fill:#FFFFFF;}
	.st4{fill:#99D5DD;}
</style>
<g class="st0">
	<path class="st1" d="M24,445.9c0-13.2,0-26.4,0-39.6c0.3-1.4,0.7-2.9,0.8-4.3c1.1-10.8,1.7-21.7,3.3-32.4
		c7.6-54.5,25.8-105.4,54.6-152.3c42.7-69.7,101.2-122,175.3-156.7c38.9-18.2,79.8-29.6,122.5-34.3c9.5-1,18.9-1.9,28.4-2.8
		c12.2,0,24.4,0,36.6,0c1.8,0.3,3.5,0.7,5.3,0.9c13.4,1.5,27,2.2,40.3,4.4C581.8,44,659.4,84.9,721.7,152.7
		C802,240,836.9,343.6,827.5,461.9c-3.9,49-16.7,95.9-39.3,139.4c-64.8,125-166.3,200.4-305.9,222.6c-53.1,8.4-106,5-157.8-9.1
		c-107.1-29.2-189.1-91.9-245.9-187.2c-28.5-47.9-45.5-99.9-51.8-155.3C25.9,463.5,25,454.7,24,445.9z M426.9,69
		C231.3,68.7,70,229.9,69.7,425.9c-0.3,195,160.6,355.9,356.5,356.4c195,0.5,353.6-159.5,355.1-356.6
		C782.8,230.3,622.2,69.4,426.9,69z"/>
	<path class="st1" d="M354.2,467.4c0.1-66.1,27-115.8,73.4-156c4.8-4.2,10.1-7.9,15.4-11.6c8.5-5.9,9.9-19.4,2.8-29.1
		c-6.5-8.8-17.2-12.2-28.2-8.8c-10.5,3.2-17,11.7-17.5,22.7c-1.3,30.6-19.9,55.8-48.8,66c-39,13.8-86.4-14.8-91.7-55.8
		c-3.6-27.5,1.9-54,13.6-78.8c25.5-54.2,68.6-85.8,127.6-94.6c56.3-8.4,105.3,8.2,144.6,49.4c61,64,62.6,163.8,0.9,227.4
		c-9.7,10-21.4,18-31.8,27.4c-9.1,8.2-16.5,17.7-18.1,30.3c-0.8,6.5-0.3,13.2-0.5,19.8c-0.7,32.6-25.6,62.2-57.6,68.3
		c-38,7.3-76.8-20-82.8-58.5C354.4,478.5,354.5,471.2,354.2,467.4z M398,463.5c0,4.1-0.2,8.3,0,12.4c0.7,12.4,10,22.5,21.4,23.5
		c13.5,1.2,25-6.2,27.6-18.7c1.2-5.9,1-12.1,1-18.2c0-11.3,1.6-22.3,5.7-32.9c8.1-20.8,22.6-36.5,40.3-49.6
		c11-8.2,20.2-17.9,27.4-29.5c20.5-32.5,20.6-67.3,9.9-102.4c-15.9-52.3-66.5-84.9-122.1-80.5C349.1,172.4,302.1,222.8,302,283
		c0,4.5,1.4,9.6,3.6,13.5c5.3,9.5,17.7,13.9,28.4,11c11.3-3.1,17.9-12.1,18.2-25.2c0.8-40.5,39.3-77.9,84.5-67.9
		c50,11,75.4,70.5,41.8,112.2c-6.9,8.6-16.6,14.9-25.1,22.1C418.5,379,398,416.3,398,463.5z"/>
	<path class="st1" d="M426,591c37.5-0.1,69.8,32.8,70,71.3c0.2,38-32.1,70.6-69.9,70.7c-38.1,0.1-71.3-32.2-71.5-69.4
		C354.3,624.1,386.7,591.1,426,591z M426.4,636.8c-14.8-0.1-26,10.8-26.2,25.6c-0.2,13.6,11.1,24.6,25.4,24.8
		c12.4,0.2,24.5-11.7,24.7-24.2C450.5,648.7,439.8,636.9,426.4,636.8z"/>
</g>
<g id="Groupe_2122" transform="translate(0)" class="st0">
	<path id="puzzle_piece_jl" class="st2" d="M640.1,384.5c28.9,14.9,60.8,7.3,80.3-19.3c6.6-9.1,14.2-16.5,24.8-20.3
		c10.6-3.8,19-0.2,22.5,10.5c24.8,76.2,49.4,152.5,73.9,228.7c3.8,11.8-0.5,18.5-13.5,22.6c-73.2,23.7-146.3,47.8-219.8,70.6
		c-24.4,7.6-21.6,21.9-10.5,35.9c4.9,6.2,11.6,10.2,17.4,15.2c24.4,21.7,29.5,55.6,11.9,81.8c-17.7,27-52.6,36.7-81.7,22.8
		c-29.8-14.5-42.8-45.3-32.4-76.6c2.8-7.9,4-16.3,3.4-24.7c-1.5-15.4-9.9-21.1-24.4-16.4c-39.9,12.7-79.6,25.6-119.3,38.4
		c-34.8,11.2-69.5,22.5-104.3,33.7c-15,4.9-21,1.6-25.9-13.6l-71.4-220.7c-5.6-17.2-14.1-20.9-30.2-12.8
		c-7.7,4.2-14.4,10.1-19.4,17.3c-20.4,27.2-50.2,34.7-79,20.6c-28.1-13.8-41.6-43.9-33.6-75c8.6-32.7,42-52.3,74.8-43.7
		c0.9,0.2,1.7,0.5,2.6,0.7c11.2,3.3,22.3,6.2,34,3c14.4-4,18.2-10.6,13.6-24.9c-23.8-73.9-47.6-147.8-71.6-221.6
		c-5.5-17.1-2.8-22.5,14.5-28l220.8-71c15.7-5.1,24.1,0.5,26.2,16.8c1,8.7-0.1,17.6-3,25.8c-9.1,27.8-0.9,54,22.1,70.9
		c22.8,16.2,53.4,15.9,75.9-0.7c21.9-16.1,31.1-44.3,23.1-70.3c-4.5-14.5-14.5-24.5-26.2-33.2c-8.8-6-15.2-14.9-18.3-25
		c-2.6-9.2,0.6-15.9,9.4-19.5c3.9-1.6,8-2.7,11.9-4C489.8,55.8,560.7,32.9,631.6,10c19-6.2,23.6-3.8,29.6,14.7
		c23.5,72.8,47.1,145.7,70.7,218.6c5.8,17.7-0.5,26.4-19.2,28.1c-10.2,0.9-19.3-2.7-28.8-4.9c-31.3-8.2-63.6,8.9-74.4,39.4
		C598.3,336,611.4,369.9,640.1,384.5z"/>
	<g id="question_mark" transform="translate(112.652 87.429)" class="st1">
		<path id="Tracé_1453" class="st3" d="M142.8,365.9v-17.4c0.2-0.6,0.3-1.3,0.4-1.9c0.5-4.8,0.7-9.6,1.5-14.3
			c3.3-23.8,11.5-46.6,24-67.1c18.3-30.2,45.1-54.2,77.2-69c17-8,35.3-13.1,53.9-15.1c4.2-0.4,8.3-0.8,12.5-1.2h16.1
			c0.8,0.1,1.5,0.3,2.3,0.4c5.9,0.7,11.9,1,17.7,1.9c39.1,6.1,74.9,25.3,101.6,54.6c35.4,38.4,50.7,84.1,46.6,136.2
			c-1.6,21.4-7.5,42.3-17.3,61.4c-28.5,55.1-73.2,88.3-134.7,98c-23.2,3.6-46.9,2.3-69.5-4c-45.7-11.8-84.7-41.5-108.3-82.4
			c-12.4-20.9-20.2-44.2-22.8-68.4C143.6,373.6,143.2,369.7,142.8,365.9z M320.2,199.9c-86.7,0.4-156.8,70.5-157.3,157.2
			c-0.1,85.9,70.7,156.7,157,156.9c85.9,0.2,155.7-70.2,156.4-157C477,270.9,406.2,200.1,320.2,199.9z"/>
		<path id="Tracé_1454" class="st3" d="M288.2,375.3c0-29.1,11.9-51,32.3-68.7c2.2-1.8,4.4-3.5,6.8-5.1c3.8-3.2,4.4-8.9,1.2-12.8
			c-2.8-3.9-7.9-5.4-12.4-3.9c-4.5,1.3-7.6,5.3-7.7,10c-0.4,13.2-9,24.8-21.5,29.1c-17.2,6.1-38-6.5-40.4-24.6
			c-1.4-11.9,0.7-24,6-34.7c17.3-36.9,61.3-52.8,98.2-35.4c8.1,3.8,15.5,9.1,21.7,15.5c27.1,27.8,27.3,72.1,0.4,100.1
			c-4.3,4.4-9.4,7.9-14,12.1c-4.2,3.3-7,8.1-8,13.3c-0.4,2.9-0.1,5.8-0.2,8.7c-0.5,14.7-11,27.1-25.4,30.1
			c-17.2,2.9-33.5-8.6-36.5-25.8C288.3,380.2,288.3,377,288.2,375.3z M307.5,373.6c0,1.8-0.1,3.6,0,5.5c0.3,6,5.4,10.7,11.4,10.5
			c4.9-0.2,9-3.6,10.2-8.4c0.4-2.7,0.6-5.3,0.4-8c-0.1-4.9,0.8-9.9,2.5-14.5c3.7-8.8,9.9-16.4,17.7-21.8c4.8-3.5,8.9-7.9,12.1-13
			c9-14.3,9.1-29.6,4.4-45.1c-8.9-27.2-38.2-42-65.3-33.1c-21,6.9-35.3,26.3-35.7,48.5c0,2.1,0.6,4.1,1.6,5.9
			c2.6,4.2,7.7,6.2,12.5,4.8c5-1.3,8.3-6,8-11.1c0.4-17.8,17.3-34.3,37.2-29.9c22,4.8,33.2,31,18.4,49.4c-3.4,3.6-7.1,6.8-11.1,9.7
			C316.5,336.4,307.5,352.8,307.5,373.6L307.5,373.6z"/>
		<path id="Tracé_1455" class="st3" d="M319.8,429.8c17.3,0.1,31.2,14.2,31.1,31.4c-0.1,17.3-14.2,31.2-31.4,31.1
			c-16.9-0.1-30.7-13.6-31.1-30.6C288.3,444.2,302.3,429.9,319.8,429.8z M320,449.9c-6.2-0.2-11.3,4.6-11.5,10.8c0,0.2,0,0.3,0,0.5
			c0,6.1,5,11,11.1,10.9c0,0,0.1,0,0.1,0c5.8-0.3,10.5-4.8,10.9-10.6C330.8,455.4,326.1,450.2,320,449.9
			C320,449.9,320,449.9,320,449.9L320,449.9z"/>
	</g>
</g>
<g id="Groupe_2123" transform="translate(0 0)">
	<path id="puzzle_piece_jl_1_" class="st4" d="M386.8,215.3c14.3-28.9,6.2-60.3-20.5-79.2c-9.1-6.4-16.6-13.8-20.5-24.2
		c-3.9-10.5-0.5-18.9,10-22.5c75-25.9,150.1-51.6,225.2-77.1c11.6-4,18.3,0.1,22.6,13c24.7,72.1,49.8,144,73.8,216.4
		c7.9,24,22,21,35.7,9.7c6.1-5,9.9-11.7,14.7-17.5c21-24.6,54.5-30.1,80.8-13.3c27,17.1,37.2,51.5,24,80.5
		c-13.8,29.8-44.1,43.2-75.3,33.4c-7.9-2.7-16.2-3.7-24.5-2.9c-15.2,1.8-20.7,10.1-15.8,24.5c13.3,39.2,26.8,78.4,40.1,117.5
		c11.7,34.3,23.5,68.4,35.2,102.7c5.1,14.8,2,20.8-13,25.9C706.8,627,634.4,651.9,562,676.7c-16.9,5.8-20.4,14.4-12.1,30.1
		c4.3,7.6,10.3,14,17.5,18.9c27.3,19.7,35.3,49.1,21.8,77.8c-13.2,28-42.8,41.9-73.7,34.6c-32.5-7.9-52.5-40.7-44.6-73.3
		c0.2-0.9,0.4-1.7,0.7-2.6c3-11.1,5.8-22.2,2.4-33.7c-4.2-14.2-10.8-17.8-24.9-13c-72.8,24.8-145.5,49.8-218.2,74.7
		c-16.8,5.8-22.2,3.2-28-13.9L128.7,559c-5.3-15.5,0-23.9,16.2-26.2c8.6-1.1,17.4-0.2,25.6,2.5c27.7,8.6,53.5-0.1,69.8-23.1
		c15.6-22.8,14.8-53.1-2-75.1c-16.3-21.4-44.4-30.1-70-21.7c-14.3,4.7-24,14.8-32.4,26.5c-5.8,8.8-14.4,15.3-24.5,18.5
		c-9,2.8-15.7-0.3-19.5-9c-1.6-3.8-2.8-7.8-4.2-11.8C64,369.9,40.2,300.1,16.3,230.3c-6.4-18.7-4.1-23.3,14-29.6
		c71.7-24.6,143.4-49.2,215.2-73.8c17.4-6,26.2,0,28.2,18.5c1.1,10.1-2.3,19.2-4.4,28.6c-7.6,31.1,9.9,62.8,40.3,72.9
		C339.6,257.6,372.9,244,386.8,215.3z"/>
	<g id="idea" transform="translate(91.219 107.629)">
		<g id="Groupe_2101" transform="translate(51.845 12.904)">
			<g id="Groupe_2100">
				<path id="Tracé_1442" class="st3" d="M304.9,201.5c-5.4,0-9.7,4.3-9.7,9.7c0,5.4,4.3,9.7,9.7,9.7c0,0,0,0,0,0
					c32.2,0,58.3,26.1,58.3,58.3c0,5.4,4.3,9.7,9.7,9.7c5.4,0,9.7-4.3,9.7-9.7l0,0C382.6,236.3,347.8,201.5,304.9,201.5z"/>
			</g>
		</g>
		<g id="Groupe_2103" transform="translate(16.353 0)">
			<g id="Groupe_2102">
				<path id="Tracé_1443" class="st3" d="M315.4,178.1c-62.8,13.7-102.7,75.8-88.9,138.7c4.3,19.5,13.5,37.7,26.8,52.6
					c12.2,13.7,19,31.3,19.1,49.6v19.4c0,12.6,8.1,23.8,20.1,27.7c4.2,26.4,29,44.4,55.5,40.2c20.7-3.3,36.9-19.5,40.2-40.2
					c12-3.9,20.1-15.1,20.1-27.7V419c0.3-18.6,7.3-36.4,19.7-50.2c42.4-48.4,37.5-122.1-10.9-164.5
					C389.3,179.9,351.5,170.2,315.4,178.1z M340.4,487.6c-12.5-0.3-23.5-8.3-27.5-20.1h55C363.9,479.3,352.9,487.3,340.4,487.6z
					 M389,438.4c0,5.4-4.4,9.7-9.7,9.7h-77.7c-5.4,0-9.7-4.3-9.7-9.7v-9.7H389L389,438.4z M413.5,355.9
					c-13.3,14.9-21.6,33.5-24,53.3h-98.2c-2.2-19.6-10.5-38-23.5-52.8c-35.6-40.1-32-101.5,8.1-137.1s101.5-32,137.1,8.1
					C445.5,264.1,445.7,319.1,413.5,355.9L413.5,355.9z"/>
			</g>
		</g>
		<g id="Groupe_2105" transform="translate(0 38.72)">
			<g id="Groupe_2104">
				<path id="Tracé_1444" class="st3" d="M220.1,253.4h-19.4c-5.4,0-9.7,4.3-9.7,9.7c0,5.4,4.3,9.7,9.7,9.7c0,0,0,0,0,0h19.4
					c5.4,0,9.7-4.3,9.7-9.7C229.8,257.7,225.5,253.4,220.1,253.4C220.1,253.4,220.1,253.4,220.1,253.4z"/>
			</g>
		</g>
		<g id="Groupe_2107" transform="translate(0.945 17.076)">
			<g id="Groupe_2106">
				<path id="Tracé_1445" class="st3" d="M223.2,226.4l-13.7-13.7c-3.8-3.8-9.9-3.8-13.7,0s-3.8,9.9,0,13.7l0,0l13.7,13.7
					c3.8,3.8,9.9,3.8,13.7,0S227,230.2,223.2,226.4L223.2,226.4L223.2,226.4z"/>
			</g>
		</g>
		<g id="Groupe_2109" transform="translate(0.945 55.801)">
			<g id="Groupe_2108">
				<path id="Tracé_1446" class="st3" d="M223.2,290.5c-3.8-3.8-9.9-3.8-13.7,0c0,0,0,0,0,0l-13.7,13.7c-3.7,3.9-3.6,10,0.3,13.7
					c3.8,3.6,9.7,3.6,13.4,0l13.7-13.7C227,300.5,227,294.3,223.2,290.5z"/>
			</g>
		</g>
		<g id="Groupe_2111" transform="translate(97.243 38.72)">
			<g id="Groupe_2110">
				<path id="Tracé_1447" class="st3" d="M415.6,253.4h-19.4c-5.4,0-9.7,4.3-9.7,9.7c0,5.4,4.3,9.7,9.7,9.7c0,0,0,0,0,0h19.4
					c5.4,0,9.7-4.3,9.7-9.7C425.3,257.7,421,253.4,415.6,253.4C415.6,253.4,415.6,253.4,415.6,253.4z"/>
			</g>
		</g>
		<g id="Groupe_2113" transform="translate(98.188 17.076)">
			<g id="Groupe_2112">
				<path id="Tracé_1448" class="st3" d="M418.6,212.7c-3.8-3.8-9.9-3.8-13.7,0c0,0,0,0,0,0l-13.7,13.7c-3.8,3.8-3.8,9.9,0,13.7
					c3.8,3.8,9.9,3.8,13.7,0l0,0l13.7-13.7C422.4,222.6,422.4,216.5,418.6,212.7C418.6,212.7,418.6,212.7,418.6,212.7z"/>
			</g>
		</g>
		<g id="Groupe_2115" transform="translate(98.188 55.801)">
			<g id="Groupe_2114">
				<path id="Tracé_1449" class="st3" d="M418.6,304.3l-13.7-13.7c-3.8-3.8-9.9-3.8-13.7,0c-3.8,3.8-3.8,9.9,0,13.7l13.7,13.7
					c3.8,3.8,9.9,3.8,13.7,0C422.4,314.2,422.4,308.1,418.6,304.3z"/>
			</g>
		</g>
	</g>
</g>
</svg>
