<?xml version="1.0" encoding="utf-8"?>
<!-- Generator: Adobe Illustrator 25.2.1, SVG Export Plug-In . SVG Version: 6.00 Build 0)  -->
<svg version="1.1" id="Capa_1" xmlns="http://www.w3.org/2000/svg" xmlns:xlink="http://www.w3.org/1999/xlink" x="0px" y="0px"
	 viewBox="0 0 512 512" style="enable-background:new 0 0 512 512;" xml:space="preserve">
<style type="text/css">
	.st0{fill:#B9D8EF;}
	.st1{display:none;fill:#B3D2E2;}
	.st2{fill:#CFE3F9;}
</style>
<g>
	<g>
		<g>
			<path class="st0" d="M396.5,294.7c-132.1-50-43-110,1.8-133.6c0.6-0.3,0.4-1.3-0.3-1.3h-32c-5.1,0-10.1,1.3-14.7,3.8
				c-50.8,27.5-153.2,94.5-70.5,150.6c94.9,64.4-6.8,148.5-60.1,184.5h208.7C457.5,454.5,515.3,339.7,396.5,294.7z"/>
			<path class="st1" d="M220.9,498.7h45.8c54.7-41.8,138.4-124.5,49.5-188.8c-74.2-53.7,0.5-116.6,53.4-150.1h-3.5
				c-5.1,0-10.1,1.3-14.7,3.8c-50.8,27.5-153.2,94.5-70.5,150.6C375.8,378.6,274.1,462.6,220.9,498.7L220.9,498.7z"/>
		</g>
		<path class="st2" d="M407.1,282.5c-125.9-43.1-53.2-92.2-6.6-117.5c2.2-1.2,1.5-5.2-0.9-5.2h-1.7c-43.8,22.6-139,83.9-4.4,135
			c118.8,45,61,159.8,33.1,204h23.7c5.9,0,11.4-4,14.2-10.4C491.1,427.1,516.1,319.8,407.1,282.5L407.1,282.5z"/>
		<g>
			<g>
				<path class="st2" d="M282.1,314.2c-61.2-41.5-22.4-88.9,23.2-121.9c-51,31.7-109.4,83.7-40.9,130.2
					c80.2,54.5-3.9,123-65.2,164.7c-4.6,3.1-2.8,11.6,2.5,11.6h20.4C275.3,462.6,377,378.6,282.1,314.2z"/>
			</g>
		</g>
	</g>
	<g>
		<g>
			<path class="st2" d="M319.2,207c-1.5,0-3-0.8-3.9-2.3c-1.4-2.4-0.8-5.5,1.3-7.1c2-1.5,3.3-2.3,3.4-2.3c2.2-1.4,5-0.5,6.3,1.9
				c1.3,2.5,0.5,5.6-1.7,7c0,0-1.1,0.7-2.9,2C320.9,206.7,320,207,319.2,207z"/>
		</g>
		<g>
			<path class="st2" d="M363.1,452.3c-1.1,0-2.3-0.5-3.1-1.4c-1.9-1.9-2-5.2-0.2-7.2c1.7-2,3.3-4.1,4.9-6.1c1.7-2.2,4.6-2.4,6.5-0.6
				c1.9,1.8,2.2,5.1,0.5,7.2c-1.6,2.1-3.4,4.3-5.1,6.4C365.6,451.8,364.4,452.3,363.1,452.3L363.1,452.3z"/>
			<path class="st2" d="M382.7,423.5c-0.8,0-1.6-0.2-2.3-0.7c-2.2-1.4-3-4.5-1.7-7c1.2-2.4,2.3-4.7,3.3-7c1.1-2.5,3.9-3.6,6.2-2.4
				c2.3,1.2,3.3,4.3,2.2,6.8c-1.1,2.5-2.3,5.1-3.7,7.7C385.9,422.6,384.3,423.5,382.7,423.5z"/>
			<path class="st2" d="M393.1,389.6c-0.1,0-0.2,0-0.4,0c-2.5-0.2-4.4-2.7-4.2-5.5c0.1-1.4,0.1-2.8,0.1-4.1c0-1.2,0-2.3-0.1-3.4
				c-0.2-2.8,1.7-5.3,4.3-5.5c2.5-0.2,4.8,1.9,4.9,4.7c0.1,1.4,0.1,2.8,0.1,4.2c0,1.6-0.1,3.3-0.2,4.9
				C397.5,387.5,395.5,389.6,393.1,389.6z"/>
			<path class="st2" d="M385,355.3c-1.5,0-3-0.8-3.9-2.3c-1.2-2.1-2.6-4.1-4.2-6.1c-1.7-2.1-1.4-5.4,0.5-7.2s4.9-1.6,6.5,0.6
				c1.8,2.3,3.4,4.7,4.9,7.1c1.4,2.4,0.8,5.5-1.3,7.1C386.8,355,385.9,355.3,385,355.3L385,355.3z"/>
			<path class="st2" d="M361.4,330.7c-0.9,0-1.7-0.3-2.5-0.8c-2-1.4-4.1-2.8-6.2-4.2c-2.2-1.4-3-4.5-1.7-7c1.3-2.5,4.1-3.3,6.3-1.9
				c2.3,1.4,4.6,2.9,6.7,4.5c2.1,1.5,2.8,4.7,1.4,7.1C364.4,329.9,363,330.7,361.4,330.7L361.4,330.7z"/>
			<path class="st2" d="M332.5,314.1c-0.7,0-1.4-0.2-2.1-0.6c-2.3-1.3-4.6-2.7-6.8-4c-2.2-1.4-3-4.5-1.8-7c1.2-2.5,4.1-3.4,6.3-2
				c2.1,1.3,4.3,2.6,6.5,3.8c2.3,1.3,3.2,4.4,2,6.9C335.8,313.1,334.2,314.1,332.5,314.1L332.5,314.1z"/>
			<path class="st2" d="M305.2,294.7c-1.1,0-2.1-0.4-3-1.2c-2.1-2-4-4-5.8-6c-1.8-2-1.7-5.3,0.1-7.2c1.8-2,4.8-1.9,6.5,0.1
				c1.6,1.8,3.3,3.6,5.2,5.4c1.9,1.8,2.2,5.1,0.5,7.2C307.8,294.1,306.5,294.7,305.2,294.7L305.2,294.7z"/>
			<path class="st2" d="M287.3,265.3c-2.1,0-4.1-1.7-4.5-4.1c-0.5-2.8-0.8-5.6-0.8-8.4c0-0.4,0-0.7,0-1.1c0.1-2.8,2.2-5,4.7-5
				c2.5,0.1,4.6,2.4,4.5,5.3c0,0.3,0,0.5,0,0.8c0,2.1,0.2,4.2,0.6,6.3c0.5,2.8-1.1,5.5-3.6,6.1C287.9,265.2,287.6,265.3,287.3,265.3
				L287.3,265.3z"/>
			<path class="st2" d="M295.3,231.4c-0.9,0-1.9-0.3-2.7-1c-2.1-1.7-2.5-4.9-1-7.1c1.5-2.3,3.2-4.6,5.1-6.9c1.7-2.1,4.6-2.3,6.5-0.4
				c1.9,1.9,2,5.1,0.3,7.2c-1.6,2-3.1,4-4.4,6C298.2,230.6,296.8,231.4,295.3,231.4z"/>
		</g>
		<g>
			<path class="st2" d="M342,474.1c-1.4,0-2.8-0.7-3.7-2c-1.5-2.3-1.1-5.5,0.9-7.2c0,0,1-0.9,2.7-2.4c2-1.8,4.9-1.5,6.5,0.7
				c1.6,2.2,1.3,5.4-0.6,7.2c-1.9,1.7-3,2.7-3,2.7C343.9,473.7,343,474.1,342,474.1z"/>
		</g>
	</g>
</g>
<path d="M417.9,126.2c-4.2,4.2-8.6,7.6-13.2,10.3l-74.8-74.8c2.7-4.6,6.1-9,10.3-13.2c8-8,8-21.1,0-29.2c-8-8-21.1-8-29.2,0
	c-33.5,33.5-34,74-28.1,110.5c-42.6-8.8-89.6-12.5-127.2,25c-17,17-26.7,36.9-29.8,61c-0.5,3.5,2,6.8,5.6,7.2c3.5,0.5,6.8-2,7.2-5.6
	c2.7-21.1,11.3-38.6,26.2-53.5c34.6-34.6,78.3-29.6,120.5-20.5c1.3,6.3,2.4,11.3,3.6,16.7c-41.9-9.5-82.6-16.3-113.2,14.8
	c-68.5,68.6,47.9,185.6-28.7,262.1c-3,3-7.9,3-11,0c-3-3-3-7.9,0-11c48.5-48.5,5.2-118.3,1.8-185c-0.2-3.6-3.2-6.3-6.8-6.1
	c-3.6,0.2-6.3,3.2-6.1,6.8c0.7,13.8,3.1,27.7,5.6,40.3c-36.6-5.9-77-5.4-110.5,28.1c-8.1,8.1-8.1,21.1,0,29.2
	c8.1,8.1,21.1,8.1,29.2,0c4.2-4.2,8.6-7.6,13.2-10.3l74.8,74.8c-2.7,4.6-6.1,9-10.3,13.2c-8,8-8,21.1,0,29.2c8,8,21.1,8,29.2,0
	c33.5-33.5,34-74,28.1-110.5c48.6,10,92,10.1,127.2-25c37.6-37.6,33.8-84.6,25-127.2c12.2,1.9,24.5,3.1,36.8,2.7
	c3.6-0.1,6.3-3.1,6.2-6.6c-0.1-3.6-3.1-6.4-6.6-6.2c-11.5,0.4-24.1-0.7-39.4-3.4c-1.2-5.4-2.4-10.6-3.8-16.4
	c35.7,7.2,69.7,9.3,97.2-18.2c3-3,7.9-3,11,0c3,3,3,7.9,0,11c-12,12.1-25.7,19.9-41.6,23.9c-3.4,0.9-5.5,4.4-4.7,7.8
	c0.9,3.4,4.4,5.5,7.8,4.7c18.3-4.6,33.8-13.6,47.5-27.3c3.9-3.9,6-9.1,6-14.6C453.1,122.5,430.8,113.3,417.9,126.2z M40.2,330.3
	c-3,3-7.9,3-11,0c-3-3-3-7.9,0-11c20.9-20.9,45.3-27.1,69.6-27.1c11.8,0,23.5,1.5,34.8,3.5c1.2,5.4,2.5,10.7,3.8,16.5
	C101.7,304.9,67.7,302.8,40.2,330.3z M75.1,323.5c17.5-5.4,38.4-3.3,65.4,2.4c5.7,27,7.8,47.9,2.4,65.4L75.1,323.5z M175,291.4
	c-4.9-21.2-9.3-41-9.1-58.9l67.9,67.9C216,300.7,196.2,296.3,175,291.4z M250.4,298.8L167.6,216c2-9.8,6.1-18.8,12.9-27.1l97,97
	C269.2,292.7,260.2,296.7,250.4,298.8z M286.6,276.7l-97-97c8.3-6.8,17.3-10.9,27.1-12.9l82.8,82.8
	C297.5,259.4,293.5,268.5,286.6,276.7z M292.2,174.2c4.9,21.2,9.3,41,9.1,58.9l-67.9-67.9C251.2,165,271,169.3,292.2,174.2z
	 M302.4,301.6c-34.6,34.6-78.3,29.6-120.5,20.5c-0.9-4.5-1.9-9.2-3.6-16.7c42.5,9.7,82.3,16.1,113.2-14.8
	c68-68-47.4-186.1,28.7-262.2c3-3,7.9-3,11,0c3,3,3,7.9,0,11C262.7,107.8,378.9,225.1,302.4,301.6z M326.7,139.7
	c-5.7-27-7.8-47.9-2.4-65.4l67.8,67.8C374.6,147.5,353.7,145.4,326.7,139.7z"/>
</svg>
