<?xml version="1.0" encoding="utf-8"?>
<!-- Generator: Adobe Illustrator 25.2.1, SVG Export Plug-In . SVG Version: 6.00 Build 0)  -->
<svg version="1.1" id="Capa_1" xmlns="http://www.w3.org/2000/svg" xmlns:xlink="http://www.w3.org/1999/xlink" x="0px" y="0px"
	 viewBox="0 0 512 512" style="enable-background:new 0 0 512 512;" xml:space="preserve">
<style type="text/css">
	.st0{fill:#CFE3F9;}
	.st1{fill:#B9D8EF;}
</style>
<g>
	<path class="st0" d="M449.5,444.2c-12.5,24.9-38.8,37.3-64.9,32.9c-6.3-1.1-12.7,0.8-17.4,5.2c-23.1,21.5-56.8,30.4-89.1,20.4
		c-3-0.9-6.2-1.4-9.1-2.7c-42.3-18.2-65-66.4-50.7-111.2c15.2-47.5,65.9-74,113.7-59.1c8.4,2.6,16.2,6.4,23.2,11
		c1.5,1,1.1,8.1,2.6,9.2c1.1,0.8,4-4.4,5.1-3.5l50.2-65.6l-24.9-7.8l-2.9,9.3c-1.1,3.6-4.9,5.5-8.4,4.4l-13.5-4.2
		c-3.6-1.1-5.5-4.9-4.4-8.4l2.9-9.3l7.8-3.7l-5-5.3l9.9-31.9c3.2-10.2,14-15.8,24.1-12.7l37.2,11.6l17.3,6.1c0.3,0.1,0.7,0.2,1,0.3
		c1.1,0.4,2.1,0.8,3.1,1.3c10,5,15.1,14.7,14.4,25.2c0,0.1,0,0.2,0,0.2L456,421.6l0,0C455.3,429.3,453.2,436.9,449.5,444.2
		L449.5,444.2z"/>
	<g>
		<path class="st1" d="M347,406.6c-0.8,0.2-1.6,0.1-2.4-0.1c-1.6-0.5-2.9-1.8-3.2-3.6c-4.6-21.8,0.4-44.5,13.8-62.3
			c2.7,1.8,5.2,3.6,7.6,5.7c-11.8,15.6-16.2,35.5-12.2,54.6C351.2,403.5,349.6,406,347,406.6z"/>
		<path class="st1" d="M450.1,444.4c-12.5,24.9-39.6,37.7-65.7,33.3c-6.3-1.1-12.7,0.8-17.4,5.2c-23.1,21.5-56.8,30.4-89.1,20.4
			c-3-0.9-6-2-8.9-3.3c29.4,5.9,59-3.2,79.9-22.7c4.6-4.3,11.1-6.2,17.4-5.2c26.1,4.4,53.2-8.4,65.7-33.3c3.7-7.3,5.8-15,6.4-22.6
			l0,0l15.7-165.8c0-0.1,0-0.2,0-0.2c0.7-10.5-4.8-20.9-14.8-26c-1-0.5-2.1-1-3.1-1.3c-0.3-0.1-0.7-0.2-1-0.3l18.1,5.7
			c0.3,0.1,0.7,0.2,1,0.3c1.1,0.4,2.1,0.8,3.1,1.3c10,5,15.5,15.5,14.8,26c0,0.1,0,0.2,0,0.2l-15.7,165.8l0,0
			C455.9,429.4,453.8,437.1,450.1,444.4L450.1,444.4z"/>
		<path class="st1" d="M361.7,264.7l2.8-9.1l14,4.4l8.3-26.8c0.8-2.5,3.4-3.9,5.9-3.1c2.5,0.8,3.9,3.4,3.1,5.9l-8.3,26.8l9.5,2.9
			l8.3-26.8c0.8-2.5,3.4-3.9,5.9-3.1c2.5,0.8,3.9,3.4,3.1,5.9l-8.3,26.8l9.5,3l8.3-26.8c0.8-2.5,3.4-3.9,5.9-3.1
			c2.5,0.8,3.9,3.4,3.1,5.9l-8.3,26.8l9.5,3l8.3-26.8c0.8-2.5,3.4-3.9,5.9-3.1c2.5,0.8,3.9,3.4,3.1,5.9l-9.8,31.3
			c-0.8,2.5-3.4,3.9-5.9,3.1L361.7,264.7z"/>
		<path class="st1" d="M240.7,427.3c-2.5-0.8-3.9-3.5-3.1-6c0.8-2.5,3.4-3.9,5.9-3.1c30.7,9.6,63.5-7.6,73-38.3
			c0.8-2.5,3.4-3.9,5.9-3.1c2.5,0.8,3.9,3.4,3.1,5.9C314.5,418.5,276.4,438.5,240.7,427.3L240.7,427.3z"/>
	</g>
</g>
<g transform="translate(0 -1)">
	<g>
		<g>
			<path d="M361.1,95.1c-6.4-21.7-19.6-40.8-37.8-54.3C287.7,12.9,254.4,1.3,215.4,3.3c-20.5,1.4-41,4.3-61.1,8.7
				c-28.5,5.7-49.2,15.7-63.3,30.6C79.9,54.5,71.3,68.6,65.7,83.9c-2.3,6.7-4.2,13.6-5.7,20.6l-0.5,2.3c-1.3,4.9-3.1,9.7-5.4,14.3
				c-1.3,2.9-2.6,5.9-3.7,8.8c-1.5,3.3-2,7-1.7,10.6c1.3,5.6,4.6,10.6,9.2,14.1c3.1,2.8,5.1,4.8,5.1,6.6c-0.2,0.9-0.6,1.9-1.1,2.7
				c-7.6,15.9-16.8,31-27.6,45c-4.5,5.5-9.3,12-8.3,18.6c1.4,5,4.7,9.2,9.2,11.8c2.1,1.5,4.3,2.7,6.6,3.8c2.7,1.4,7.3,3.7,7.6,5.4
				c0.4,2.1,0.2,4.3-0.7,6.3c-0.9,2-1.9,3.7-2.8,5.2c-2.3,4.1-6.2,11-0.3,15.9c1.4,1.2,3.7,3,5.8,4.7c-1.6,2.8-2.3,6-2,9.1
				c0.3,2.5,1.7,4.7,3.7,6.1c1.4,1,2.9,1.9,4.4,2.7c3.7,2.1,5.2,3.1,5.7,5.1c0.3,2.6,0.1,5.2-0.7,7.7c-0.4,1.7-0.7,3.3-0.9,5
				c-0.6,5.7,0.1,11.6,2.1,17c3.3,12,15.4,19.3,27.5,16.7c18-4.3,35.8-9.7,53.3-15.9c14.2,8.4,23.2,33.8,25.5,43.3
				c0.7,2.8,3.2,4.8,6.1,4.8h159.7c2,0,3.9-1,5.1-2.6c1.2-1.6,1.5-3.7,1-5.6c-1.7-4.5-4.1-8.6-7.1-12.3c-1.7-2.2-3.2-4.5-4.6-6.9
				c-2.8-5.8-5.2-11.9-7.1-18.1c-3.6-12.2-6.1-24.7-7.4-37.3c-2.2-18.9,0.6-38,8.3-55.4c4.7-9.6,10.4-18.7,17.1-27.1
				c3.8-5.1,7.8-10.4,11.3-16c10-15.5,15.3-33.5,15.5-51.9C368,130.7,365.8,112.6,361.1,95.1z M355,148.6
				c-0.1,16.1-4.8,31.8-13.5,45.3c-3.3,5.2-7.1,10.3-10.8,15.3c-7.3,9.1-13.5,19-18.6,29.5c-8.5,19.5-11.7,40.9-9.2,62
				c1.4,13.4,4.1,26.6,7.9,39.6c2.1,6.8,4.7,13.4,7.8,19.8c1.6,3.1,3.6,6.1,5.7,8.9c0.1,0.1,0.2,0.2,0.3,0.3H180.8
				c-4.2-15-11.8-28.8-22.3-40.3c1.7-0.6,3.2-1.1,4.7-1.6c4.7-1.7,8.3-2.9,10.1-3.5c27.1-8.5,40.6-20.8,40.2-36.6
				c-0.1-3.5-3-6.2-6.5-6.2c-3.5,0.1-6.2,3-6.2,6.5c0.2,6.5-5.2,16-31.4,24.2c-1.9,0.6-5.6,1.9-10.5,3.6c-4.5,1.6-10.1,3.5-16.2,5.6
				l0,0c-17.8,6.4-35.9,11.9-54.2,16.4c-5.9,1.1-11.7-2.6-13-8.5c-1.4-3.5-1.9-7.4-1.5-11.1c0.2-1.3,0.5-2.6,0.8-3.9
				c1.3-4.4,1.5-9,0.6-13.5c-1.8-5.8-6.1-10.5-11.6-12.9c-0.4-0.3-0.9-0.5-1.4-0.8c0.7-1.4,1.5-2.7,2.4-3.9c1.1-1.3,1.5-3.1,1.3-4.7
				c-0.2-1.7-1.1-3.2-2.5-4.2c-1.5-1.1-5.1-3.8-7.7-5.9c0.3-0.6,0.7-1.2,1-1.8c1-1.7,2.1-3.7,3.2-6c2-4.4,2.6-9.4,1.7-14.1
				c-1.5-7.7-8.9-11.5-14.3-14.3c-1.8-0.9-3.6-1.9-5.2-3c-1.3-0.9-2.6-1.9-3.7-3c0-0.9,1-3.3,5.9-9.2c11.3-14.5,21-30.3,28.9-46.9
				c1.5-2.6,2.4-5.5,2.5-8.6c-0.6-6.4-4-12.1-9.3-15.8c-2.6-2.3-5-4.5-5.2-6.5c0-1.5,0.4-3,1-4.4c1-2.8,2.3-5.4,3.5-8.1
				c2.6-5.3,4.6-10.8,6.1-16.5l0.5-2.3c1.3-6.4,3.1-12.8,5.3-19c5-13.7,12.7-26.3,22.7-37c12.2-12.9,30.7-21.7,56.6-26.9
				c19.5-4.3,39.3-7.1,59.2-8.5c35.7-1.8,66.4,8.9,99.5,34.9c16.1,11.8,27.8,28.6,33.4,47.8C353.3,114.9,355.4,131.7,355,148.6z"/>
			<path d="M328.1,105.2H315c-1.5-4.9-3.4-9.7-5.9-14.2l9.3-9.3c2.2-2.2,2.5-5.6,0.7-8.1c-6.1-8.7-13.6-16.3-22.3-22.3
				c-2.5-1.8-5.9-1.5-8.1,0.7l-9.3,9.3c-4.5-2.5-9.3-4.4-14.2-5.9V42.3c0-3.1-2.2-5.7-5.2-6.2c-10.5-1.8-21.2-1.8-31.6,0
				c-3,0.5-5.2,3.2-5.2,6.2v13.1c-4.9,1.5-9.7,3.4-14.2,5.9l-9.3-9.3c-2.2-2.2-5.6-2.5-8.1-0.7c-8.7,6.1-16.3,13.6-22.3,22.3
				c-1.8,2.5-1.4,5.9,0.7,8.1l9.3,9.3c-2.5,4.5-4.4,9.3-5.9,14.2h-13.1c-3.1,0-5.7,2.2-6.2,5.2c-1.9,10.5-1.9,21.2,0,31.6
				c0.5,3,3.2,5.2,6.2,5.2h13.1c1.5,4.9,3.4,9.7,5.9,14.2l-9.3,9.3c-2.2,2.2-2.5,5.6-0.7,8.1c6.1,8.7,13.6,16.3,22.3,22.3
				c2.5,1.7,5.9,1.4,8.1-0.7l9.3-9.3c4.5,2.5,9.3,4.4,14.2,5.9v13.1c0,3.1,2.2,5.7,5.2,6.2c10.5,1.9,21.2,1.9,31.6,0
				c3-0.5,5.2-3.2,5.2-6.2v-13.1c4.9-1.5,9.7-3.4,14.2-5.9l9.3,9.3c2.2,2.2,5.6,2.5,8.1,0.7c8.7-6.1,16.3-13.6,22.3-22.3
				c1.8-2.5,1.4-5.9-0.7-8.1l-9.3-9.3c2.5-4.5,4.4-9.3,5.9-14.2h13.1c3.1,0,5.7-2.2,6.2-5.2c1.9-10.5,1.9-21.2,0-31.6
				C333.8,107.4,331.2,105.2,328.1,105.2z M322.6,134.6h-12.5c-3,0-5.5,2.1-6.2,5c-1.5,6.9-4.2,13.5-8.1,19.5
				c-1.6,2.5-1.3,5.8,0.8,7.9l8.9,8.9c-3.5,4.4-7.5,8.3-11.9,11.9l-8.9-8.9c-2.1-2.1-5.4-2.5-7.9-0.9c-6,3.8-12.6,6.6-19.5,8.1
				c-2.9,0.6-5,3.2-5,6.2v12.5c-5.6,0.6-11.2,0.6-16.8,0v-12.5c0-3-2.1-5.5-5-6.2c-6.9-1.5-13.5-4.3-19.5-8.1
				c-2.5-1.6-5.8-1.3-7.9,0.9l-8.9,8.9c-4.4-3.5-8.3-7.5-11.9-11.9l8.9-8.9c2.1-2.1,2.5-5.4,0.8-7.9c-3.8-6-6.6-12.6-8.1-19.5
				c-0.6-2.9-3.2-5-6.2-5h-12.5c-0.6-5.6-0.6-11.2,0-16.8l0,0h12.5c3,0,5.5-2.1,6.2-5c1.5-6.9,4.2-13.5,8.1-19.5
				c1.6-2.5,1.3-5.8-0.8-7.9l-8.9-8.9c3.5-4.4,7.5-8.3,11.9-11.9l8.9,8.9c2.1,2.1,5.4,2.5,7.9,0.9c6-3.8,12.6-6.6,19.5-8.1
				c2.9-0.6,5-3.2,5-6.2V47.7c5.6-0.6,11.2-0.6,16.8,0v12.5c0,3,2.1,5.5,5,6.2c6.9,1.5,13.5,4.3,19.5,8.1c2.5,1.6,5.8,1.2,7.9-0.9
				l8.9-8.9c4.4,3.5,8.3,7.5,11.9,11.9l-8.9,8.9c-2.1,2.1-2.5,5.4-0.8,7.9c3.8,6,6.6,12.6,8.1,19.5c0.6,2.9,3.2,5,6.2,5h12.5
				C323.2,123.4,323.2,129,322.6,134.6z"/>
			<path d="M158.9,186.2h-7.2c-0.6-2.3-1.5-4.4-2.7-6.4l5.1-5.1c2.5-2.5,2.5-6.5,0-8.9c-2.5-2.5-6.5-2.5-8.9,0l-5.1,5.1
				c-2-1.2-4.2-2.1-6.4-2.7V161c0-3.5-2.8-6.3-6.3-6.3s-6.3,2.8-6.3,6.3v7.2c-2.3,0.6-4.4,1.5-6.4,2.7l-5.1-5.1
				c-1.6-1.6-3.9-2.2-6.1-1.6s-3.9,2.3-4.5,4.5c-0.6,2.2,0,4.5,1.6,6.1l5.1,5.1c-1.2,2-2.1,4.2-2.7,6.4h-7.2c-3.5,0-6.3,2.8-6.3,6.3
				s2.8,6.3,6.3,6.3h7.2c0.6,2.3,1.5,4.4,2.7,6.4l-5.1,5.1c-1.6,1.6-2.2,3.9-1.6,6.1c0.6,2.2,2.3,3.9,4.5,4.5c2.2,0.6,4.5,0,6.1-1.6
				l5.1-5.1c2,1.2,4.2,2.1,6.4,2.7v7.2c0,3.5,2.8,6.3,6.3,6.3c3.5,0,6.3-2.8,6.3-6.3v-7.2c2.3-0.6,4.4-1.5,6.4-2.7l5.1,5.1
				c2.5,2.5,6.5,2.5,8.9,0c2.5-2.5,2.5-6.5,0-8.9l-5.1-5.1c1.2-2,2.1-4.2,2.7-6.4h7.2c3.5,0,6.3-2.8,6.3-6.3
				S162.4,186.2,158.9,186.2z M127.3,205.2c-7,0-12.6-5.7-12.6-12.6c0-7,5.7-12.6,12.6-12.6s12.6,5.7,12.6,12.6
				C139.9,199.5,134.3,205.2,127.3,205.2z"/>
			<path d="M94.3,123.1c0.4,1.3,0.9,2.5,1.5,3.7l-3.4,3.4c-1.6,1.6-2.2,3.9-1.6,6.1c0.6,2.2,2.3,3.9,4.5,4.5c2.2,0.6,4.5,0,6.1-1.6
				l3.4-3.4c1.2,0.6,2.4,1.1,3.7,1.5v4.8c0,3.5,2.8,6.3,6.3,6.3c3.5,0,6.3-2.8,6.3-6.3v-4.8c1.3-0.4,2.5-0.9,3.7-1.5l3.4,3.4
				c2.5,2.5,6.5,2.5,8.9,0c2.5-2.5,2.5-6.5,0-8.9l-3.4-3.4c0.6-1.2,1.1-2.4,1.5-3.7h4.8c3.5,0,6.3-2.8,6.3-6.3
				c0-3.5-2.8-6.3-6.3-6.3h-4.8c-0.4-1.3-0.9-2.5-1.5-3.7l3.4-3.4c1.6-1.6,2.2-3.9,1.6-6.1c-0.6-2.2-2.3-3.9-4.5-4.5
				c-2.2-0.6-4.5,0-6.1,1.6l-3.4,3.4c-1.2-0.6-2.4-1.1-3.7-1.5v-4.8c0-3.5-2.8-6.3-6.3-6.3c-3.5,0-6.3,2.8-6.3,6.3v4.8
				c-1.3,0.4-2.5,0.9-3.7,1.5l-3.4-3.4c-2.5-2.5-6.5-2.5-8.9,0c-2.5,2.5-2.5,6.5,0,8.9l3.4,3.4c-0.6,1.2-1.1,2.4-1.5,3.7h-4.8
				c-3.5,0-6.3,2.8-6.3,6.3c0,3.5,2.8,6.3,6.3,6.3L94.3,123.1L94.3,123.1z M112.4,108.2c3.9-1,7.9,0.7,9.9,4.1
				c2,3.5,1.4,7.8-1.4,10.7c-2.5,2.5-6.3,3.3-9.6,1.9c-3.3-1.4-5.5-4.6-5.5-8.2C105.8,112.8,108.5,109.3,112.4,108.2z"/>
			<path d="M244.1,85.2c-22.7,0-41,18.4-41,41c0,22.7,18.4,41,41,41c22.7,0,41-18.4,41-41S266.8,85.2,244.1,85.2z M244.1,154.6
				c-15.7,0-28.4-12.7-28.4-28.4c0-15.7,12.7-28.4,28.4-28.4c15.7,0,28.4,12.7,28.4,28.4S259.8,154.6,244.1,154.6z"/>
		</g>
	</g>
</g>
</svg>
