<?xml version="1.0" encoding="utf-8"?>
<!-- Generator: Adobe Illustrator 25.2.1, SVG Export Plug-In . SVG Version: 6.00 Build 0)  -->
<svg version="1.1" id="Capa_1" xmlns="http://www.w3.org/2000/svg" xmlns:xlink="http://www.w3.org/1999/xlink" x="0px" y="0px"
	 viewBox="0 0 419 419" style="enable-background:new 0 0 419 419;" xml:space="preserve">
<style type="text/css">
	.st0{fill:#CFE3F9;}
	.st1{fill:#B9D8EF;}
</style>
<g>
	<path class="st0" d="M384.2,205.2h-147c-10.2,0.1-18.5,8.1-19.1,18.2v171.2c0,9.9,9.3,16.7,19.1,16.7h147c9.9,0,19.1-6.9,19.1-16.7
		V223.4C402.7,213.3,394.3,205.3,384.2,205.2z"/>
	<g>
		<path class="st1" d="M260.2,332.8c-1.6,0.1-3.1-0.6-4.2-1.8l-12.2-12.5c-2.3-2.4-2.3-6.2,0-8.7c2.4-2.2,6.1-2.1,8.4,0.3l8.1,8.4
			l19.1-18.2c2.4-2.2,6.1-2.1,8.4,0.3c2.3,2.4,2.3,6.2,0,8.7L264.4,331C263.3,332.1,261.7,332.7,260.2,332.8z"/>
		<path class="st1" d="M373.4,325.3h-68.7c-3.3,0-6-2.7-6-6c0-3.3,2.7-6,6-6h68.7c3.3,0,6,2.7,6,6
			C379.4,322.6,376.7,325.3,373.4,325.3z"/>
		<path class="st1" d="M260.2,285c-1.6,0.1-3.1-0.6-4.2-1.8l-12.2-12.5c-2.3-2.4-2.3-6.2,0-8.7c2.4-2.2,6.1-2.1,8.4,0.3l8.1,8.4
			l19.1-18.2c2.4-2.2,6.1-2.1,8.4,0.3c2.3,2.4,2.3,6.2,0,8.7l-23.3,21.8C263.3,284.3,261.7,284.9,260.2,285z"/>
		<path class="st1" d="M373.4,277.5h-68.7c-3.3,0-6-2.7-6-6c0-3.3,2.7-6,6-6h68.7c3.3,0,6,2.7,6,6
			C379.4,274.8,376.7,277.5,373.4,277.5z"/>
		<path class="st1" d="M260.2,380.6c-1.6,0.1-3.1-0.6-4.2-1.8l-12.2-12.5c-2.3-2.4-2.3-6.2,0-8.7c2.4-2.2,6.1-2.1,8.4,0.3l8.1,8.4
			l19.1-18.2c2.4-2.2,6.1-2.1,8.4,0.3c2.3,2.4,2.3,6.2,0,8.7l-23.3,21.8C263.3,379.9,261.7,380.5,260.2,380.6z"/>
		<path class="st1" d="M373.4,373.1h-68.7c-3.3,0-6-2.7-6-6c0-3.3,2.7-6,6-6h68.7c3.3,0,6,2.7,6,6
			C379.4,370.4,376.7,373.1,373.4,373.1z"/>
	</g>
	<path class="st1" d="M354.6,206.1V227h-88.1v-37.3h21.8c2.2-10.4,11.4-17.9,22.1-17.9c10.7-0.1,20,7.4,22.1,17.9h22.1L354.6,206.1
		L354.6,206.1z"/>
</g>
<g>
	<g>
		<g>
			<g>
				<path d="M92.7,112.3c-2.6,0-5.1-1.7-6-4.1c-1-2.5-0.3-5.5,1.8-7.3c2.1-1.8,5.1-2.1,7.5-0.7c2.4,1.4,3.7,4.2,3.1,6.9
					C98.5,110.1,95.7,112.3,92.7,112.3L92.7,112.3z"/>
			</g>
		</g>
		<g>
			<g>
				<path d="M211.4,245.6c-2.7,0-5.2-1.7-6.1-4.3c-0.9-2.5-0.2-5.3,1.8-7.1c2.1-1.8,5.2-2.1,7.6-0.7c2.2,1.3,3.5,4,3.1,6.6
					C217.3,243.3,214.5,245.6,211.4,245.6L211.4,245.6z"/>
			</g>
		</g>
	</g>
	<g>
		<g>
			<path d="M338.6,55.9c-0.9-2.4-3.1-4-5.6-4.2l-35.4-2.6L295,13.7c-0.2-2.5-1.8-4.7-4.2-5.6c-2.4-0.9-5.1-0.3-6.9,1.5l-28.3,28.3
				c-4.7,4.7-7.4,10.9-7.6,17.5c0,0.1,0,0.2,0,0.4l0.4,21.7c-25.4-20.5-57.7-32.8-92.8-32.8C74.1,44.6,7.8,110.9,7.8,192.4
				s66.3,147.8,147.8,147.8s147.8-66.3,147.8-147.8c0-35.7-12.7-68.4-33.8-94l21.4,0.3c0,0,0.1,0,0.1,0c0.1,0,0.2,0,0.2,0
				c6.6-0.2,12.9-3,17.5-7.6l28.3-28.3C338.9,61,339.5,58.3,338.6,55.9L338.6,55.9z M264.8,47l18.3-18.3l1.8,23.9l-23.6,23.6
				L261,55.7C261.1,52.4,262.5,49.4,264.8,47z M155.6,327.1c-74.3,0-134.8-60.5-134.8-134.8S81.3,57.6,155.6,57.6
				c34.5,0,66.1,13,89.9,34.5l-15,15c-20-17.6-46.2-28.3-74.9-28.3c-13.2,0-26.2,2.3-38.5,6.7c-3.4,1.2-5.1,4.9-3.9,8.3
				c1.2,3.4,4.9,5.1,8.3,3.9c10.9-3.9,22.4-5.9,34.1-5.9c25.1,0,48.1,9.2,65.7,24.5l-15.1,15.1c-13.7-11.4-31.4-18.3-50.6-18.3
				c-43.7,0-79.3,35.6-79.3,79.3s35.6,79.3,79.3,79.3c12.5,0,25-3,36-8.7c3.2-1.6,4.5-5.5,2.8-8.7c-1.6-3.2-5.5-4.5-8.7-2.8
				c-9.4,4.8-19.5,7.2-30.1,7.2c-36.6,0-66.3-29.8-66.3-66.3S119,126,155.6,126c15.6,0,30,5.4,41.4,14.5l-15.1,15.1
				c-7.4-5.3-16.5-8.5-26.2-8.5c-24.9,0-45.1,20.2-45.1,45.1s20.2,45.1,45.1,45.1c24.9,0,45.1-20.2,45.1-45.1
				c0-10.4-3.5-20-9.5-27.6l15.1-15.1c9.7,11.5,15.6,26.5,15.6,42.7c0,7.1-1.1,14.2-3.4,20.9c-1.1,3.4,0.7,7.1,4.1,8.2
				c3.4,1.1,7.1-0.7,8.2-4.1c2.7-8,4-16.4,4-25c0-19.8-7.3-38-19.4-51.9l15-15c15.9,17.8,25.6,41.3,25.6,67
				c0,55.4-45.1,100.5-100.6,100.5S55,247.8,55,192.4c0-21.4,6.7-41.9,19.3-59.2c2.1-2.9,1.5-7-1.4-9.1s-7-1.5-9.1,1.4
				C49.6,145.1,42,168.2,42,192.4C42,255,93,305.9,155.6,305.9c62.6,0,113.5-50.9,113.5-113.5c0-29.3-11.1-56-29.4-76.2l15-15
				c22.1,24,35.6,56,35.6,91.2C290.4,266.7,229.9,327.1,155.6,327.1L155.6,327.1z M187.7,192.4c0,17.7-14.4,32.1-32.1,32.1
				s-32.1-14.4-32.1-32.1s14.4-32.1,32.1-32.1c6.2,0,12,1.8,16.9,4.8l-20.7,20.7c-2.5,2.5-2.5,6.6,0,9.2c1.3,1.3,2.9,1.9,4.6,1.9
				c1.7,0,3.3-0.6,4.6-1.9l21-21C185.5,179.2,187.7,185.6,187.7,192.4z M299.7,81.9c-2.3,2.3-5.4,3.7-8.7,3.8l-20.4-0.3L283,72.9
				c0.1-0.1,0.3-0.3,0.4-0.4l10.7-10.7l23.9,1.8L299.7,81.9z"/>
		</g>
	</g>
</g>
</svg>
