<?xml version="1.0" encoding="utf-8"?>
<!-- Generator: Adobe Illustrator 25.2.1, SVG Export Plug-In . SVG Version: 6.00 Build 0)  -->
<svg version="1.1" id="Capa_1" xmlns="http://www.w3.org/2000/svg" xmlns:xlink="http://www.w3.org/1999/xlink" x="0px" y="0px"
	 viewBox="0 0 512 512" style="enable-background:new 0 0 512 512;" xml:space="preserve">
<style type="text/css">
	.st0{fill:#CFE3F9;}
	.st1{fill:#B9D8EF;}
</style>
<g>
	<path class="st0" d="M509.2,315.6v144.9c0,13.3-10.8,24.2-24.2,24.2H316V291.5h76.8c-12.6-8.6-19.6-25.1-13.5-42.1
		c3.6-10.1,12.2-18.2,22.5-21.3c24.1-7.1,46.2,10.9,46.2,33.9c0,12.2-6.3,23.1-15.7,29.5H485C498.4,291.5,509.2,302.3,509.2,315.6z"
		/>
	<path class="st1" d="M380.4,394.6c-2.5,13.9-13.7,25.5-27.6,28.2c-15.3,3-29.1-3.7-36.8-15v76.8h-76.8c9.4-6.4,15.7-17.3,15.7-29.5
		c0-11.4-5.3-21.4-13.6-27.9c-8.4-6.7-19.8-9.5-31.6-6.3c-10.6,2.8-19.5,10.9-23.4,21.2c-6.3,17.1,0.7,33.8,13.3,42.4h-52.7
		c-13.3,0-24.2-10.8-24.2-24.2V315.6c0-13.3,10.8-24.2,24.2-24.2h52.7c-9.4,6.4-15.7,17.2-15.7,29.5c0,6.3,1.7,12.2,4.5,17.4
		c0,0,0.2,0.1,0.1,0.2c1.2,1.9,2.5,3.7,4,5.3c0,0.1,0.1,0.2,0.4,0.4c6.4,7.5,15.9,12.1,26.6,12.1c8.8,0,16.9-3.3,23.2-8.6
		c7.5-6.5,12.3-16.1,12.3-26.8c0-12.3-6.3-23.1-15.7-29.5H316v76.7c6.4-9.4,17.2-15.6,29.5-15.6C367.1,352.6,384.4,372,380.4,394.6z
		"/>
</g>
<g>
	<g>
		<g>
			<path d="M392.3,166.1L320,103.4c-1.7-1.5-4.1-1.8-6.1-0.9c-2,0.9-3.3,3-3.3,5.2v32.7l-28.9,0l-0.1,0
				c-19.6-0.4-38.5,4.2-55.2,13.4V98.9h35.8c2.3,0,4.3-1.3,5.2-3.4c0.9-2.1,0.6-4.5-0.9-6.1L202.8,18c-1.1-1.2-2.6-1.9-4.3-1.9
				c-1.6,0-3.2,0.7-4.3,1.9l-63.6,71.4c-1.5,1.7-1.9,4.1-0.9,6.1c0.9,2.1,3,3.4,5.2,3.4h35.8v25.2c0,3.2,2.6,5.7,5.7,5.7
				c3.2,0,5.7-2.6,5.7-5.7V93.2c0-3.2-2.6-5.7-5.7-5.7h-28.8l50.8-57.1l50.8,57.1h-28.8c-3.2,0-5.7,2.6-5.7,5.7v67.9
				c-4,2.9-7.9,6.1-11.5,9.7c-8.8,8.4-15.9,18-21.2,28.4V147c0-3.2-2.6-5.7-5.7-5.7c-3.2,0-5.7,2.6-5.7,5.7v80.3
				c-16.6-9.2-35.5-13.9-55.2-13.4l-0.1,0l-28.9,0v-32.7c0-2.2-1.3-4.3-3.3-5.2c-2-0.9-4.4-0.6-6.1,0.9L4.7,239.6
				c-1.3,1.1-2,2.7-2,4.3s0.7,3.2,2,4.3L27,267.5c2.4,2.1,6,1.8,8.1-0.6c2.1-2.4,1.8-6-0.6-8.1l-17.3-15l57.9-50.2v25.8
				c0,3.2,2.6,5.7,5.7,5.7l34.7,0c0,0,0.1,0,0.1,0l0.2,0c26.3-0.6,51.1,9.1,69.9,27.2c18.6,17.9,28.9,41.8,29.1,67.4v13.6
				c0,3.2,2.6,5.7,5.7,5.7c0,0,0,0,0,0c0,0,0,0,0,0c3.2,0,5.7-2.6,5.7-5.7v-12.7c0-0.3,0-0.6,0-0.8v-72.6c0-14.1,5.6-27.3,15.8-37.1
				c10.2-9.8,23.7-15.1,38-14.8c0,0,0.1,0,0.1,0l30.3,0v37.9c0,2.2,1.3,4.3,3.3,5.2c2,0.9,4.4,0.6,6.1-0.9l72.3-62.7
				c1.3-1.1,2-2.7,2-4.3S393.6,167.2,392.3,166.1z M322,220.6v-31.1c0-1.5-0.6-3-1.7-4c-1.1-1.1-2.5-1.7-4-1.7c0,0,0,0,0,0l-35.9,0
				c-17.3-0.3-33.7,6-46.1,18c-12.5,12-19.3,28.1-19.3,45.3v25.5c-5.3-10.4-12.4-20.1-21.2-28.5c-3.4-3.3-7-6.3-10.7-9.1
				c2.7-21.5,12.5-40.8,28.3-56.1c18.8-18.1,43.6-27.8,70-27.2c0,0,0.1,0,0.1,0c0,0,0.1,0,0.1,0l34.7,0c3.2,0,5.7-2.6,5.7-5.7v-25.8
				l57.9,50.2L322,220.6z"/>
		</g>
	</g>
	<g>
		<g>
			<path d="M220.6,350.5c-3.2,0-5.7,2.6-5.7,5.7V395h-32.7v-74.3c0-17.2-6.9-33.3-19.3-45.3c-12.4-12-28.8-18.4-46.1-18l-35.9,0
				c0,0,0,0,0,0c-1.5,0-3,0.6-4,1.7c-1.1,1.1-1.7,2.5-1.7,4v31.1l-23.3-20.2c-2.4-2.1-6-1.8-8.1,0.6c-2.1,2.4-1.8,6,0.6,8.1
				l32.8,28.4c1.7,1.5,4.1,1.8,6.1,0.9c2-0.9,3.3-3,3.3-5.2v-37.9l30.3,0c0,0,0.1,0,0.1,0c14.3-0.3,27.8,5,38,14.8
				c10.2,9.8,15.8,23,15.8,37.1v80.1c0,3.2,2.6,5.7,5.7,5.7h44.1c3.2,0,5.7-2.6,5.7-5.7v-44.5C226.3,353.1,223.7,350.5,220.6,350.5z
				"/>
		</g>
	</g>
</g>
</svg>
