<?xml version="1.0" encoding="utf-8"?>
<!-- Generator: Adobe Illustrator 25.2.1, SVG Export Plug-In . SVG Version: 6.00 Build 0)  -->
<svg version="1.1" xmlns="http://www.w3.org/2000/svg" xmlns:xlink="http://www.w3.org/1999/xlink" x="0px" y="0px"
	 viewBox="0 0 3992 3574" style="enable-background:new 0 0 3992 3574;" xml:space="preserve">
<style type="text/css">
	.st0{fill:#D9D9D9;}
	.st1{fill:#FFFFFF;stroke:#398CAE;stroke-width:40;stroke-miterlimit:4.0009;}
	.st2{fill:#398CAE;}
	.st3{fill:#FFFFFF;stroke:#398CAE;stroke-width:41;stroke-miterlimit:4.0009;}
	.st4{fill:#FFFFFF;}
	.st5{fill:#3A8CAF;}
	.st6{fill:none;stroke:#707070;stroke-width:17;}
	.st7{fill:#CFE3F9;}
	.st8{fill:#47C347;stroke:#707070;stroke-width:9;}
	.st9{fill:#EFC94F;stroke:#707070;stroke-width:9;}
	.st10{fill:none;stroke:#707070;stroke-width:10;stroke-linecap:round;}
	.st11{fill:#E89F94;}
	.st12{fill:none;stroke:#707070;stroke-width:11;stroke-linejoin:round;}
	.st13{enable-background:new    ;}
	.st14{fill:#707070;}
	.st15{fill:#5D5D5D;}
	.st16{fill:#CDE5F7;}
	.st17{fill:#E08A81;}
	.st18{fill:#FDFDFD;}
	.st19{fill:#8DB32B;}
	.st20{fill:#F0BA39;}
	.st21{fill:#ECF4FD;}
	.st22{fill:#6A8194;}
	.st23{fill:#6F8598;}
	.st24{fill:#5EBFBF;}
	.st25{fill:#88D2E6;}
	.st26{fill:#99D4DC;}
	.st27{fill:#6C8396;}
	.st28{fill:#6D8396;}
	.st29{fill:#6B8295;}
	.st30{fill:#6E8497;}
	.st31{fill:#FEFEFE;}
</style>
<g id="Calque_1">
</g>
<g id="Calque_2">
</g>
<g id="Calque_3">
</g>
<g id="Calque_4">
</g>
<g id="Calque_5">
	<path id="Tracé_2922" class="st22" d="M3629,1406c-0.1,3.9-1.6,11.3-2.8,14.8c-2.2,6.2-1.1,14-3.3,20.1
		c-3.6,8.9-8.9,15.2-18.8,13.4c-7.5-0.9-12.9-7.8-11.9-15.3c0.1-0.6,0.2-1.1,0.3-1.7c4.6-35.9,7-72,7.1-108.1
		c0.5-12.3,5.4-15.1,11.8-14.6c10.5,0.8,18.4,10,18.2,20.5C3629.2,1360.2,3629.7,1380.8,3629,1406z"/>
	<path id="Tracé_2923" class="st23" d="M1466.7,27.4c12.4,1.7,13.4,2.1,21.8,4.6c7.1,2.7,12.5,7.1,11.6,16.1
		c-0.5,7-6.7,12.3-13.7,11.8c-0.5,0-1-0.1-1.5-0.2c-37.4-4-75-5.8-112.6-5.4c-10.3,0-15.1-4.7-14.4-12.6c0.8-9.1,8.7-16,17.9-16
		l85.5,1.2C1463.1,27,1464.9,27.1,1466.7,27.4z"/>
	<path id="Tracé_2924" class="st24" d="M1508.8,2976.8c-29.5,0-45.6-12.5-55.4-38.4l-32.2-88.4c-3.6-10.7-8-15.2-19.7-13.4
		c-38.4,6.3-76.8,0.9-115.2-5.4c-17.9-2.7-28.6,0.9-35.7,18.8c-10.5,25.7-22.4,50.7-35.7,75c-17,34-44.7,42.9-77.7,27.7
		c-56.3-26.8-112.6-52.7-168-79.5c-40.2-19.7-48.2-44.7-29.5-85.8c12.5-25.9,24.1-51.8,36.6-76.8c4.5-8.9,6.3-15.2-3.6-23.2
		c-32.3-26.8-60.6-58.1-84-92.9c-7.1-10.7-14.3-11.6-25-7.1c-28.6,10.7-57.2,21.4-86.7,31.3c-36.6,12.5-60.8,0.9-74.2-34.8
		c-22.3-60.8-44.7-121.5-66.1-183.2c-10.7-31.3,2.7-58.1,34-69.7c29.5-10.7,59-21.4,88.4-31.3c9.8-3.6,15.2-8,14.3-19.7
		c-3-42.1-0.6-84.5,7.1-126c2.7-12.5-2.7-17.9-13.4-23.2c-26.8-11.6-52.7-24.1-79.5-37.5c-39.3-19.7-47.4-43.8-28.6-84
		c25.9-53.6,51.8-108.1,76.8-162.6c18.8-40.2,43.8-50,84.9-30.4c25.9,11.6,51.8,24.1,76.8,36.6c11.6,6.3,18.8,5.4,26.8-5.4
		c25.9-33.1,58.1-59,92-83.1c10.7-7.1,11.6-13.4,7.1-25c-11.6-29.5-21.4-59-32.2-88.4c-10.7-32.2,1.8-59.9,34.8-71.5
		c59-21.4,117.9-42.9,176.9-63.4c42.9-15.2,66.1-3.6,81.3,39.3c8.9,25.9,18.8,51.8,27.7,78.6c4.5,12.5,9.8,18.8,24.1,17
		c38.4-5.4,76.8-0.9,114.4,4.5c17,2.7,25.9-1.8,33.1-17.9c10.7-25.9,23.2-50.9,35.7-75c17.9-35.7,43.8-44.7,79.5-27.7
		c56.2,25.9,112.5,52.7,167.9,79.5c39.3,18.8,47.4,43.8,29.5,83.1c-12.5,26.8-25,52.7-37.5,79.5c-4.5,9.8-5.4,16.1,4.5,23.2
		c32,26.2,60,56.9,83.1,91.1c8.9,12.5,16.1,12.5,28.6,8l80.4-29.5c38.4-13.4,64.3-2.7,78.6,34.8c22.3,59.9,43.8,118.8,64.3,178.7
		c12.5,36.6,0.9,59.9-35.7,74.2c-27.7,10.7-56.3,20.5-84.9,30.4c-12.5,4.5-16.1,10.7-15.2,23.2c3,41.2,0.6,82.7-7.1,123.3
		c-1.8,10.7,1.8,17,11.6,21.4c26.8,11.6,52.7,25,79.5,37.5c40.2,18.8,49.1,43.8,30.4,83.1c-25.9,55.4-52.7,110.8-78.6,166.2
		c-17.9,38.4-42.9,46.5-82.2,28.6c-26.8-12.5-52.7-24.1-79.5-37.5c-9.8-5.4-17-6.3-25,4.5c-26.3,31.2-56.7,58.9-90.2,82.2
		c-12.5,8.9-14.3,17-8.9,30.4c10.7,27.7,20.5,56.3,30.4,84.9c11.6,33.1-0.9,59-34,71.5c-59.9,22.3-120.6,42.9-181.4,64.3
		C1521.7,2974.5,1515.4,2976.3,1508.8,2976.8z M1804.5,2246.8c-0.9-237.6-184.9-437.8-437.8-436.9
		c-246.6,0.9-430.6,193.9-434.2,427.9c-3.6,246.6,189.4,443.1,439.6,441.3C1617.8,2677.5,1801,2482.7,1804.5,2246.8z"/>
	<path id="Tracé_2925" class="st25" d="M3116.7,764.8c-1.8,18.8-16.1,41.1-24.1,65.2c-5.4,17-18.8,34-17,50
		c0.9,16.1,24.1,22.3,35.7,34c20.5,20.5,42.9,39.3,59.9,63.4c7.1,10.7,15.2,12.5,26.8,7.1c26.8-12.5,53.6-24.1,80.4-34.8
		c37.5-16.1,61.6-7.1,78.6,29.5c25.9,58.1,51.8,117,75.9,176.9c15.2,35.7,5.4,59-31.3,75.9c-25.9,12.5-51.8,23.2-78.6,33.1
		c-15.2,5.4-21.4,14.3-17.9,30.4c8,39.3,4.5,79.5,1.8,119.7c-0.9,13.4,2.7,17,13.4,21.4c27.7,9.8,53.6,22.3,81.3,32.2
		c32.2,11.6,50.9,42,35.7,77.7c-25,59-47.4,118.8-71.5,178.7c-13.4,32.2-40.2,43.8-73.3,31.3c-29.5-10.7-58.1-22.3-87.6-34.8
		c-10.7-4.5-17-3.6-24.1,6.3c-25.2,33.7-54.6,64-87.6,90.2c-8.9,7.1-9.8,14.3-5.4,24.1c12.5,27.7,23.2,55.4,35.7,82.2
		c15.2,35.7,8.9,59.9-25.9,75.9c-62.5,28.6-125.1,55.4-188.5,81.3c-28.6,11.6-53.6-2.7-67.9-34.8c-11.6-26.8-24.1-53.6-34-80.4
		c-5.4-14.3-13.4-17.9-27.7-16.1c-41.1,7.1-82.2,5.4-123.3,0.9c-12.5-1.8-14.3,6.3-17.9,13.4c-10.7,25.9-21.4,50.9-30.4,77.7
		c-14.3,41.1-46.5,57.2-86.7,37.5c-51.8-24.1-105.4-42.9-158.1-63.4c-49.1-19.7-59-41.1-39.3-91.1c9.8-25,19.7-50.9,30.4-75
		c4.5-9.8,2.7-16.1-5.4-22.3c-34.8-25-64.3-56.3-92-89.3c-8.9-10.7-17-8-25.9-3.6c-28.6,12.5-57.2,25-86.7,36.6
		c-31.3,12.5-56.3,1.8-69.7-28.6c-26.8-60.8-52.7-121.5-77.7-182.3c-12.5-30.4-1.8-57.2,29.5-72.4c27.7-13.4,56.3-24.1,84.9-35.7
		c12.5-5.4,17-12.5,14.3-25.9c-7.1-39.3-5.4-78.6-1.8-117c1.8-17-3.6-22.3-17-27.7c-27.7-10.7-55.4-21.4-83.1-33.1
		c-32.2-13.4-43.8-37.5-31.3-70.6c23.2-61.6,47.4-122.4,72.4-183.2c15.2-35.7,40.2-44.7,75.9-30.4c28.6,11.6,57.2,22.3,84.9,34
		c8.9,3.6,14.3,4.5,21.4-4.5c25.5-33.5,54.8-63.8,87.6-90.2c10.7-8,10.7-16.1,5.4-27.7c-13.4-28.6-25.9-57.2-36.6-86.7
		c-11.6-29.5-1.8-56.3,26.8-69.7c62.5-28.6,126.9-55.4,190.3-82.2c23.9-9.6,51.2,1.4,61.6,25c14.3,30.4,27.7,60.7,40.2,92
		c5.4,11.6,9.8,16.1,25,15.2c39.3-3.6,79.5-8.9,118.8-1.8c12.5,2.7,20.5-1.8,25-15.2c9.8-27.7,21.4-54.5,32.2-81.3
		c14.3-36.6,41.1-48.2,76.8-34c59,23.2,117.9,46.5,176.9,70.6C3105,717.4,3116.7,733.5,3116.7,764.8z M3150.6,1359.8
		c1.5-239.7-191.6-435.3-431.3-436.9c-1.8,0-3.7,0-5.5,0c-246.6,1.8-428.8,199.2-432.4,428.8c-4.4,239.8,186.5,437.8,426.3,442.2
		c1.1,0,2.3,0,3.4,0C2952.3,1797.6,3149.7,1602.8,3150.6,1359.8L3150.6,1359.8z"/>
	<path id="Tracé_2926" class="st26" d="M2707.4,2096.3h90.2c33.1,0,52.7,18.8,53.6,52.7c0.9,28.6,0.9,57.2,0,85.8
		c0,10.7,3.6,17,14.3,19.7c35.7,10,70.2,24.1,102.7,42c11.6,6.3,20.5,6.3,29.5-4.5c17-18.8,35.7-36.6,54.5-54.5
		c30.4-29.5,55.4-28.6,84.9,0.9c40.2,40.2,81.3,80.4,121.5,121.5c27.7,27.7,27.7,52.7,0,82.2l-59,59c-7.1,7.1-9.8,12.5-3.6,22.3
		c19.5,33.2,34.2,69,43.8,106.3c3.6,12.5,9.8,17,22.3,17c29.5-0.9,58.1,0,87.6,0c29.5,0,50,19.7,50,50c0,62.5,0.9,126,0,188.5
		c0,29.5-20.5,49.1-50,49.1c-27.7,0-55.4,0.9-83.1,0c-15.2-0.9-22.3,2.7-26.8,18.8c-9.6,35.7-24.1,70-42.9,101.8
		c-6.3,9.8-4.5,16.1,3.6,24.1c20.5,18.8,40.2,39.3,59,59c27.7,28.6,26.8,53.6-0.9,81.3l-121.5,121.5c-28.6,28.6-54.5,29.5-84,0.9
		c-19.7-18.8-38.4-38.4-57.2-57.2c-7.1-8-14.3-10.7-24.1-4.5c-32.2,19.7-67,32.2-101.8,42.9c-13.4,4.5-17.9,10.7-17,24.1
		c0.9,27.7,0.9,55.4,0,83.1c0,32.2-20.5,51.8-51.8,51.8h-184.1c-34,0-53.6-19.7-54.5-54.5c-0.9-26.8-0.9-54.5,0-81.3
		c0-12.5-2.7-19.7-16.1-23.2c-35.5-10.2-69.7-24.6-101.8-42.9c-9.8-6.3-17.9-4.5-26.8,3.6c-17.9,18.8-36.6,37.5-56.3,56.3
		c-30.4,29.5-55.4,29.5-84.9,0c-40.2-39.3-79.5-79.5-119.7-119.7c-29.5-29.5-29.5-55.4-0.9-84.9c18.8-18.8,36.6-37.5,56.3-56.3
		c8-8,10.7-14.3,4.5-25.9c-19.3-33.4-34.3-69.2-44.7-106.3c-2.7-10.7-8.9-14.3-19.7-14.3c-29.5,0.9-58.1,0-87.6,0
		c-32.2,0-51.8-20.5-51.8-51.8v-182.2c0-34,19.7-52.7,52.7-52.7c28.6,0,57.2-0.9,85.8,0c11.6,0,17.9-3.6,21.4-15.2
		c10.7-36.6,24.1-73.3,43.8-106.3c6.3-9.8,3.6-16.1-4.5-24.1c-20.5-18.8-40.2-39.3-59-59c-25.9-26.8-25.9-53.6,0-80.4
		c41.1-41.1,81.3-82.2,122.4-122.4c28.6-28.6,54.5-28.6,84,0c18.8,17.9,36.6,35.7,54.5,54.5c8.9,9.8,17,12.5,29.5,5.4
		c31.4-18.1,65-31.9,100.1-41.1c12.5-3.6,17-8.9,17-22.3c-0.9-26.8,0-52.7,0-79.5c0-39.3,18.8-58.1,57.2-58.1
		C2647.5,2096.3,2677,2096.3,2707.4,2096.3z M2705.6,3194.3c222.4,4.5,408.3-184.9,407.4-404.7c-1.8-222.4-175.1-408.3-407.4-408.3
		s-405.6,185.8-407.4,405.6C2296.4,3014.7,2485.8,3198.8,2705.6,3194.3z"/>
	<path id="Tracé_2927" class="st5" d="M748.7,812.5v-85.8c0-34,17.9-52.7,52.7-53.6c26.8-0.9,52.7-0.9,79.5,0
		c11.6,0,17.9-3.6,21.4-15.2c9.2-34.5,23-67.5,41.1-98.3c6.3-10.7,4.5-17.9-4.5-25.9c-18.8-17.9-36.6-35.7-54.5-54.5
		c-25.9-26.8-25.9-50.9,0.9-77.7c38.4-38.4,75.9-76.8,115.2-115.2c28.6-28.6,52.7-28.6,81.3-0.9c18.8,17.9,36.6,35.7,54.5,54.5
		c5.4,6.8,15.1,8.4,22.3,3.6c32.5-18,67-32.1,102.7-42c10.7-2.7,12.5-8.9,12.5-18.8v-81.3c0-34,19.7-52.7,53.6-52.7h171.5
		c31.3,0,50.9,18.8,51.8,50c0.9,27.7,0.9,55.4,0,83.1c0,11.6,3.6,16.1,14.3,19.7c34.9,9.9,68.5,24,100.1,42
		c9.8,5.4,16.1,4.5,23.2-3.6c17.9-19.7,36.6-37.5,55.4-56.3c25.9-25.9,50-25.9,76.8,0c40.2,39.3,80.4,79.5,119.7,119.7
		c25,25,24.1,49.1,0,75c-17.9,18.8-36.6,37.5-56.3,56.3c-8.9,8-9.8,15.2-3.6,25.9c17.4,31,30.9,64,40.2,98.3
		c2.7,11.6,9.8,15.2,21.4,15.2c27.7-0.9,55.4-0.9,83.1,0.9c31.3,1.8,48.2,20.5,48.2,50.9v173.3c0,33.1-18.8,50.9-51.8,51.8
		c-26.8,0-54.5,0.9-81.3,0c-11.6,0-16.1,3.6-18.8,14.3c-10.1,35-23.9,68.8-41.1,101c-5.4,9.8-4.5,16.1,3.6,24.1
		c18.8,17.9,37.5,36.6,56.3,56.3c25,26.8,25,50.9-0.9,76.8l-117.9,117.9c-26.8,25.9-50.9,25.9-78.6,0
		c-18.8-18.8-37.5-37.5-55.4-56.3c-7.1-8-13.4-8-22.3-2.7c-31.3,18.4-65,32.5-100.1,42c-10.7,2.7-15.2,8-14.3,19.7
		c0.9,26.8,0,52.7,0,79.5c0,35.7-18.8,54.5-53.6,55.4h-168.9c-34,0-52.7-18.8-53.6-52.7c-0.9-26.8-0.9-52.7,0-79.5
		c0-11.6-2.7-17.9-15.2-21.4c-35.1-9.5-68.7-23.6-100.1-42c-8.9-5.4-15.2-3.6-22.3,3.6c-17.9,18.8-36.6,37.5-55.4,56.3
		c-26.8,25.9-50.9,26.8-77.7,0c-39.3-39.3-79.5-78.6-117.9-117.9c-25.9-26.8-25-50.9,0.9-78.6c17-17.9,34.8-35.7,52.7-52.7
		c10.7-9.8,9.8-17.9,3.6-29.5c-16.7-29.9-29.9-61.7-39.3-94.7c-3.6-12.5-8.9-17-22.3-17c-26.8,0.9-54.5,0.9-81.3,0
		c-30.4-0.9-49.1-19.7-50-49.1C748.7,871.4,748.7,841.9,748.7,812.5z M1798.5,812.5c0-214.4-173.3-388.6-386-389.5
		c-214.4-0.9-389.5,174.2-389.5,388.6s172.4,388.6,385.9,389.5C1622.5,1203.8,1798.5,1027.8,1798.5,812.5L1798.5,812.5z"/>
	<path id="Tracé_2928" class="st27" d="M1065,3040.1c12.5,0.9,21.4,0.9,29.5,1.8c13.4,0.9,27.7,0.9,15.2,21.4
		c-5.4,8.9,5.4,9.8,9.8,12.5c36.9,20.4,76.2,36,117,46.5c10.7,2.7,22.3,6.3,18.8,20.5c-3.6,14.3-16.1,11.6-26.8,8.9
		c-42.1-11-82.6-27.2-120.6-48.2c-10.7-6.3-17.9-9.8-25,4.5c-5.4,10.7-12.5,6.3-17-1.8c-10.7-17-21.4-33.1-32.2-50
		c-8-12.5-5.4-18.8,10.7-17C1051.6,3039.2,1060.5,3040.1,1065,3040.1z"/>
	<path id="Tracé_2929" class="st27" d="M3018.9,599.3c-18.8-1.8-34.8-2.7-50.9-3.6c-9.8-0.9-17.9-4.5-10.7-16.1s-1.8-14.3-8.9-18.8
		c-36.5-19.1-74.8-34.3-114.4-45.6c-10.7-2.7-22.3-5.4-18.8-20.5c3.6-14.3,15.2-11.6,26.8-8c42.7,11.3,83.8,27.8,122.4,49.1
		c9.8,5.4,17,7.1,22.3-4.5c6.3-12.5,12.5-8,18.8,0.9c8.9,13.4,17.9,26.8,25.9,41.1c3.6,7.1,14.3,12.5,8,22.3
		C3033.2,603.8,3024.3,597.5,3018.9,599.3z"/>
	<path id="Tracé_2930" class="st28" d="M562,1922.4c-0.9,5.4-1.8,17.9-2.7,29.5c-0.9,13.4,1.8,30.4-21.4,17.9
		c-8-3.6-9.8,6.3-12.5,10.7c-19.2,37.2-34.2,76.5-44.7,117c-1.8,7.1-2.7,16.1-11.6,18.8c-12.5,4.5-20.5-6.3-17-22.3
		c9.9-43.7,25.8-85.8,47.4-125.1c5.4-10.7,11.6-19.7-4.5-27.7c-9.8-4.5-5.4-11.6,1.8-16.1c15.2-10.7,30.4-20.5,46.5-30.4
		c5.4-3.6,9.8-8.9,17-5.4c7.1,4.5,3.6,11.6,3.6,17.9C563.8,1910.8,562.9,1913.5,562,1922.4z"/>
	<path id="Tracé_2931" class="st27" d="M3611.2,1493.6c-10.9,46.3-27.7,91.1-50,133.1c-6.3,11.6-10.7,18.8,4.5,26.8
		c9.8,4.5,5.4,11.6-1.8,16.1c-17,11.6-34.8,22.3-51.8,34c-10.7,7.1-16.1,3.6-16.1-8.9c0.9-21.4,2.7-42.9,4.5-63.4
		c0.9-8,5.4-14.3,14.3-8.9c12.5,8,16.1-0.9,20.5-8.9c18.8-37.4,33.8-76.6,44.7-117.1c2.7-8.9,5.4-18.8,17-17.9
		C3608.6,1478.4,3611.2,1485.6,3611.2,1493.6z"/>
	<path id="Tracé_2932" class="st27" d="M1727.9,154.4c-18.8-1.8-35.7-2.7-52.7-4.5c-8-0.9-17.9-1.8-11.6-13.4
		c7.1-13.4-0.9-17.9-9.8-22.3c-32.7-17.2-67.2-31-102.7-41.1c-3.6-0.9-7.1-1.8-9.8-2.7c-10.7-2.7-22.3-6.3-18.8-20.5
		s15.2-11.6,25.9-8.9c30.8,8.4,61,19.2,90.2,32.2c9.8,4.2,19.3,9,28.6,14.3c10.7,6.3,20.5,12.5,28.6-4.5c5.4-10.7,11.6-3.6,16.1,2.7
		c9.8,15.2,19.7,29.5,28.6,44.7c3.6,5.4,11.6,10.7,7.1,18.8C1741.3,157.9,1733.3,152.6,1727.9,154.4z"/>
	<path id="Tracé_2933" class="st29" d="M654.9,1114.8c-26.8,9.8-21.4-6.3-17.9-21.4c3.6-16.1,6.3-32.2,9.8-48.2
		c2.7-13.4,8.9-17.9,19.7-5.4c12.5,15.2,25.9,30.4,38.4,45.6c6.3,7.1,8,14.3-4.5,17c-10.7,2.7-9.8,8.9-7.1,17.9
		c10.6,36.3,24.9,71.3,42.9,104.5c2.7,5.4,5.4,9.8,8,15.2c6.3,9.8,8,18.8-3.6,25.9c-11.6,6.3-17-2.7-21.4-10.7
		c-23.1-39.4-41.4-81.4-54.5-125.1C663.9,1124.6,665.7,1113.9,654.9,1114.8z"/>
	<path id="Tracé_2934" class="st27" d="M3043,3546.7c-20.5-4.5-40.2-8.9-60.7-13.4c-10.7-2.7-13.4-8-5.4-16.1
		c16.1-14.3,32.2-27.7,48.2-42c7.1-6.3,14.3-5.4,16.1,4.5c2.7,13.4,8.9,10.7,18.8,8c39.5-12.1,77.6-28.6,113.5-49.2
		c8.9-5.4,19.7-12.5,27.7,0c8.9,14.3-4.5,19.7-14.3,25.9c-36.9,21.5-76.2,38.6-117,50.9c-9.8,2.7-17,5.4-14.3,17.9
		C3058.2,3543.1,3053.7,3548.4,3043,3546.7z"/>
	<path id="Tracé_2935" class="st28" d="M3232.4,3431.4c-6.1,0.2-11.8-3.3-14.3-8.9c-2.9-5-1.8-11.5,2.7-15.2
		c31.4-24.3,60.9-50.9,88.4-79.5c4.9-4.8,12.8-4.6,17.5,0.3c0.4,0.5,0.9,1,1.2,1.5c5.6,5.2,6,14,0.9,19.7
		c-26.8,30.3-57.1,57.2-90.2,80.4C3236.9,3430.9,3234.7,3431.6,3232.4,3431.4z"/>
	<path id="Tracé_2936" class="st28" d="M2707.1,500.1h-38.4c-10.7,0-18.8-4.5-18.8-16.1c0-9.8,7.1-15.2,16.1-16.1
		c35.5-2.3,71.2-0.5,106.3,5.4c9.8,1.8,18.8,7.1,16.1,18.8c-1.8,12.5-10.7,15.2-22.3,13.4c-19.7-2.7-39.3-4.5-59-7.1
		C2707.1,498.3,2707.1,499.2,2707.1,500.1z"/>
	<path id="Tracé_2937" class="st29" d="M1361.6,3171.4c-23.2-2.7-43.8-4.5-63.4-7.1c-11.6-0.9-19.7-7.1-17-19.7
		c1.8-11.6,10.7-14.3,21.4-11.6c32.2,5.2,64.8,7.3,97.4,6.3c10.7-0.9,18.8,2.7,19.7,14.3s-6.3,16.1-17.9,17
		C1387.5,3170.5,1373.2,3171.4,1361.6,3171.4z"/>
	<path id="Tracé_2938" class="st27" d="M431.6,2232.5c-1.8-27.7,2.7-50.9,5.4-74.2c0.9-10.7,5.4-20.5,18.8-18.8
		c12.5,1.8,14.3,11.6,12.5,22.3c-4.5,32.2-8,65.2-5.4,97.4c0.9,10.7-2.7,18.8-14.3,19.7c-11.6,0.9-16.1-7.1-17-17.9L431.6,2232.5z"
		/>
	<path id="Tracé_2939" class="st28" d="M853.3,1375.7c0.3,8.1-6,14.9-14.1,15.3c-3.3,0.1-6.5-0.8-9.1-2.7
		c-31.4-24.8-59.1-54-82.2-86.7c-4.1-4.6-3.7-11.6,0.9-15.7c0.6-0.5,1.2-0.9,1.8-1.3c6.3-5.4,14.3-6.3,19.7-0.9
		c24.7,30.2,51.6,58.6,80.4,84.9C852.2,1370.6,853.2,1373.1,853.3,1375.7z"/>
	<path id="Tracé_2940" class="st28" d="M3624.6,1275.6c0.7,8.3-5.1,15.7-13.4,17c-6.6,2-13.6-1.8-15.6-8.4
		c-0.2-0.8-0.4-1.5-0.5-2.3c-6.3-31.3-14.3-62.5-23.2-92.9c-1.4-6.5,2.8-12.8,9.2-14.2c0.2,0,0.4-0.1,0.6-0.1
		c8.9-2.7,16.1,0,19.7,8.9C3612.1,1213.1,3618.4,1244.3,3624.6,1275.6z"/>
	<path id="Tracé_2941" class="st23" d="M2605.3,476c13.4-0.9,19.7,2.7,21.4,11.6s-4.5,15.2-12.5,17c-29.9,5.3-59.4,12.4-88.4,21.5
		c-8.9,2.7-15.2-0.9-18.8-9.8c-3.6-9,1.8-15.2,9.8-17.9C2545.4,487.8,2575.1,480.3,2605.3,476z"/>
	<path id="Tracé_2942" class="st30" d="M1460.8,3161.6c-8.9,0.9-16.1-1.8-17.9-11.6c-2.7-10.7,4.5-16.1,13.4-17.9
		c29.4-4.6,58.3-11.5,86.7-20.5c8.9-2.7,16.1,0,18.8,8.9c3.6,9.8-0.9,16.1-10.7,19.7C1521.7,3150.1,1491.5,3157.3,1460.8,3161.6z"/>
	<path id="Tracé_2943" class="st30" d="M3350.4,3315.3c-11.6,0-18.8-11.6-11.6-23.2c17-25.3,32.5-51.5,46.5-78.6
		c2.7-7.1,10.7-10.7,17.8-8c0.6,0.2,1.2,0.5,1.8,0.9c7.1,3.6,10.7,9.8,7.1,17.9c-13.5,30.5-30.6,59.3-50.9,85.8
		C3358.9,3313.7,3354.7,3315.8,3350.4,3315.3z"/>
	<path id="Tracé_2944" class="st30" d="M1232.1,82c-9.8,0.9-16.1-2.7-18.8-9.8c-2.7-6.4,0.3-13.8,6.7-16.5c0.4-0.2,0.9-0.3,1.3-0.5
		c30.9-12.1,63.4-19.9,96.5-23.2c8-0.9,13.4,4.5,15.2,12.5c1.8,6.9-2.2,13.9-9.1,15.8c-0.5,0.1-1.1,0.2-1.6,0.3
		C1291.6,64.5,1261.3,71.7,1232.1,82z"/>
	<path id="Tracé_2945" class="st30" d="M440.5,2317.3c-0.6-7.6,4.9-14.3,12.5-15.2c6.4-1.8,13,2,14.8,8.3c0.3,1.1,0.4,2.2,0.4,3.3
		c5.4,30.4,12.5,59.9,20.5,89.3c2.7,8.9-1.8,15.2-10.7,17.9s-14.3-2.7-16.1-9.8C452.2,2380.5,445,2349.1,440.5,2317.3z"/>
	<path id="Tracé_2946" class="st27" d="M973,1457.9c-2.7,10.7-8.9,17.9-21.4,11.6c-28.3-12.9-55-29.1-79.5-48.2
		c-7.1-5.4-9.8-12.5-3.6-20.5c5.4-8,13.4-7.1,20.5-2.7c24.5,16.8,49.8,32.4,75.9,46.5C969.5,1447.5,972.5,1452.4,973,1457.9z"/>
	<path id="Tracé_2947" class="st28" d="M1196.3,84.7c-0.7,6.6-4.8,12.3-10.7,15.2c-17,8-34,17-50.9,25.9
		c-8.9,4.5-16.1,5.4-22.3-4.5c-5.4-9.8-0.9-17,7.1-21.4c18.8-10.7,37.5-20.5,57.2-29.5C1189.2,65,1194.6,73.1,1196.3,84.7z"/>
	<path id="Tracé_2948" class="st30" d="M1671.6,3076.7c-0.1,6.3-3.5,12-8.9,15.2c-18.8,9.8-37.5,19.7-57.2,29.5
		c-7.1,3.6-15.2,3.6-19.7-6.3c-3.8-7.4-1-16.5,6.3-20.5c19.7-10.7,39.3-20.5,59-29.5C1663.6,3059.7,1668.1,3068.7,1671.6,3076.7z"/>
	<path id="Tracé_2949" class="st30" d="M2484.6,528.7c0,8-5.4,12.5-11.6,16.1l-50.9,26.8c-8.9,4.5-17,3.6-22.3-5.4
		c-5.4-8.9-0.9-16.1,6.3-19.7c18.8-10.7,38.4-20.5,59-30.4C2476.6,510.8,2482,517.1,2484.6,528.7z"/>
	<path id="Tracé_2950" class="st30" d="M1061.4,1515c-17.9-6.3-40.2-13.4-62.5-20.5c-6.3-2.7-10.7-7.1-8-15.2
		c2.7-7.1,8.9-12.5,16.1-10.7c23.2,6.3,46.5,13.4,68.8,20.5c7.1,2.7,8.9,8.9,6.3,16.1C1080.2,1513.2,1073.9,1515.9,1061.4,1515z"/>
	<path id="Tracé_2951" class="st29" d="M539.7,2511.2c-0.9,8.9-2.7,13.4-8.9,16.1c-5,2.9-11.5,1.8-15.2-2.7
		c-14.5-20-26.3-42-34.8-65.2c-1.6-4.9,0.7-10.3,5.4-12.5c6.3-3.6,14.3-5.4,17.9,0C517.4,2468.3,529,2490.6,539.7,2511.2z"/>
	<path id="Tracé_2952" class="st23" d="M3452.2,3121.4c-5.4,16.1-12.5,35.7-19.7,56.3c-2.7,7.1-8,12.5-16.1,9.8
		c-8-2.7-13.4-9.8-10.7-17.9c6.3-20.5,12.5-40.2,19.7-60.8c2.7-7.1,8.9-12.5,17-9.8C3450.4,3100.9,3454,3108,3452.2,3121.4z"/>
	<path id="Tracé_2953" class="st27" d="M3584.4,1136.2c0.7,6.5-3.5,12.6-9.8,14.3c-6.7,2.9-14.5,0.2-17.9-6.3l-29.5-56.3
		c-3.3-6-1.8-13.6,3.6-17.9c4.9-4.9,12.9-4.9,17.9,0C3565.7,1088.9,3574.6,1113.9,3584.4,1136.2z"/>
	<path id="Tracé_2954" class="st31" d="M1804.2,2245.4c-4.5,235.9-186.7,430.6-432.4,432.4c-250.1,1.8-443.1-195.7-439.6-441.3
		c3.6-234.1,187.6-427.1,434.2-427.9C1620.2,1807.7,1803.4,2007.8,1804.2,2245.4z"/>
	<path id="Tracé_2955" class="st31" d="M3150,1361.5c-0.3,240.1-195.1,434.5-435.2,434.2c-240.1-0.3-434.5-195.1-434.2-435.2
		c0-2.4,0-4.7,0.1-7.1c3.6-229.6,185.8-427.1,432.4-428.8C2958.8,923.7,3150,1122.9,3150,1361.5z"/>
	<path id="Tracé_2956" class="st31" d="M2706.7,3195.2c-219.8,4.5-409.2-179.6-407.4-406.5c1.8-220.7,175.1-405.6,407.4-405.6
		c231.4,0,405.6,185.8,407.4,408.3C3115,3009.3,2929.2,3199.6,2706.7,3195.2z"/>
	<path id="Tracé_2957" class="st31" d="M1798.9,813.3c0,215.3-176,390.4-389.5,389.5c-214-1.4-386.5-175.6-385.9-389.5
		c0-214.4,175.1-389.5,389.5-388.6C1625.6,424.7,1798.9,598.9,1798.9,813.3z"/>
	<path class="st5" d="M1413.1,1012.3c-3.8,0-7.7,0-11.5,0c-14.7-0.6-29.2-2.5-43.5-6.3c-29.6-7.8-56-21.7-79-41.9
		c-27.3-24-46.5-53.5-57.4-88.2c-4.8-15.3-7.6-31-8.5-47c-1.7-29.9,3-58.6,14.6-86.2c14-33.3,35.7-60.5,64.9-81.7
		c23.3-16.9,49.1-28,77.3-33.4c21.3-4.1,42.6-4.6,64.1-1.9c27.7,3.5,53.3,12.7,76.7,27.8c1.4,0.9,2.2,0.5,3.2-0.5
		c11.1-11.2,22.3-22.2,33.3-33.5c7.6-7.7,17.9-3.6,21.5,3c1.7,3.2,1.7,6.6,1.2,10c-1.1,8.1-2.2,16.1-3.4,24.2
		c-0.2,1.3-0.1,1.7,1.4,1.4c8.3-1.2,16.6-2.3,24.9-3.5c5.5-0.8,10.2,0.5,13.6,5c3,3.9,3.9,8.3,2.1,13.1c-0.8,2.1-2.2,3.7-3.7,5.2
		c-10.9,10.8-21.7,21.7-32.6,32.5c-1.4,1.4-1.7,2.3-0.6,4.2c14.2,23.2,23.4,48.2,27.2,75.1c6.5,46.8-2.3,90.6-27.3,130.7
		c-24.5,39.4-59,66.6-102.9,81.8C1450.7,1008.5,1432.1,1011.6,1413.1,1012.3z M1575.5,821.3c-0.1-20.9-2.7-38.2-8.3-55
		c-3.8-11.6-8.9-22.7-15.2-33.2c-0.4-0.6-0.4-1.7-1.8-1.4c-8.6,1.5-17.3,2.8-26,4.2c-1.9,0.3-1.4,0.9-0.6,1.9
		c2.3,3.3,4.8,6.6,6.9,10.1c21.3,35.9,25.4,74,12.5,113.3c-16.1,48.9-49.7,80.5-99.3,94.6c-21.8,6.2-44,6.2-66.1,1.1
		c-27.7-6.4-51.5-19.9-71.1-40.6c-24.1-25.4-37.2-55.7-39.3-90.5c-1.5-25.7,3.9-50,15.9-72.8c30.3-57.7,96.7-87.4,159.8-71.4
		c16.6,4.2,32,11.2,46.2,20.9c0.9,0.6,2,2,2.3-0.5c0.6-5.8,1.2-11.6,2-17.4c0.3-2.4-0.1-5.1,1.6-7.2c1.1-1.5,0.8-2.2-0.8-3.1
		c-37.2-21.1-76.8-28.6-118.9-20.2c-34.7,6.9-64.5,23.2-88.4,49.3c-40,43.7-53.4,95.1-41,152.8c7.2,33.7,24.1,62.5,49.7,85.6
		c40,36.1,87,50,140.1,41.8c35.5-5.5,65.9-21.6,91.1-47.2C1558.8,903.6,1574.7,863.9,1575.5,821.3z M1409,934.6
		c5.4,0.1,12.3-0.5,19-1.7c58.3-10.7,99.3-64,95-123.2c-1.7-23.5-10.2-44.3-24-63.1c-1-1.4-1.5-1.4-2.7-0.2
		c-5.3,5.4-10.6,10.7-15.9,15.9c-1.2,1.1-1,1.8,0,2.9c4.3,5.2,7.8,10.9,10.4,17.2c7.5,17.9,8.8,36.4,4.9,55.4
		c-7.9,38.9-42.5,69-82.1,71.2c-17.5,1-33.9-2.5-49.4-10.6c-37.5-19.7-56.5-64.4-44.6-105.2c11-37.7,45.5-63.9,85.7-64.8
		c20.1-0.4,38.4,5.3,54.6,17.4c1.3,1,2,0.9,3.1-0.3c4.6-5,9.4-9.9,14-14.8c2.3-2.4,2.3-2.5-0.3-4.4c-25.9-19-54.7-26.8-86.7-22.2
		c-23.9,3.4-44.9,13.1-62.7,29.5c-33.6,30.8-45.5,79.8-30.2,123.1C1313.8,903.8,1357.4,934.6,1409,934.6z M1405.8,751.9
		c-3.6-0.1-7.2,0.2-10.7,0.8c-38.3,6.5-62.6,44.9-51.9,82.2c9.5,32.8,44.1,52.8,77.2,45.1c28.8-6.8,53.1-33.8,50.7-68.2
		c-0.7-10.5-4-20.1-10.2-28.7c-1.1-1.6-1.8-1.4-3-0.2c-4.2,4.4-8.4,8.8-12.9,12.8c-2.6,2.4-3.1,4.5-1.9,7.8
		c3.4,8.8,3.5,17.7,0.3,26.7c-6.4,17.6-24.8,28.6-42.2,25.3c-20.4-3.9-34.1-22.7-31.7-43.6c2.1-18.5,18.2-33,36.7-33.5
		c5-0.1,9.7,0.9,14.4,2.3c2,0.6,3.2,0.2,4.6-1.3c4.8-5,9.8-9.9,14.7-14.8c2-2,2-2-0.5-3.6C1429,754.8,1417.8,752,1405.8,751.9z
		 M1539.4,666.3c-0.2,0.2-0.5,0.3-0.7,0.5c-6.4,6.4-12.9,12.9-19.3,19.3c-0.8,0.8-1,1.8-1.1,2.8c-0.6,6.8-1,13.5-1.6,20.3
		c-0.2,1.8,0.3,2.4,2.2,2c5.6-1,11.3-2,17-2.8c3-0.4,5.3-1.6,7.4-3.8c4.9-5.2,10-10.1,15-15.1c0.6-0.6,1.4-1,1.6-2.3
		c-6.3,0.9-12.8,1.9-17.6-3.1C1537.3,679,1537.4,672.7,1539.4,666.3z M1408.7,805.9c-6.9-0.1-13,5.5-13.1,12
		c-0.1,6.7,6.1,13.4,12.4,13.5c6.6,0.1,12.1-6.2,12.2-13.7C1420.3,811.1,1415.2,806,1408.7,805.9z"/>
	<g id="valeur_JL_1" transform="translate(0 201.271)">
		<path id="Tracé_2889" class="st24" d="M1478.4,2002.4c-1.1-0.6-2.2-1.2-3.2-1.7c-13.2-6.8-22.2-19.7-24-34.4
			c-3.7-24.9,15.3-48.1,39.2-51.7c23.8-3.1,46,12.3,51.6,35.6c3.2,13.8,0.2,28.3-8.2,39.6c-0.7,1-1.4,1.9-2.9,3.8
			c0.8,0.3,1.5,0.7,2.2,1.1c5.3,4.5,9,10.7,10.5,17.5c5,20.3,10.5,40.5,15.7,60.7c3,11.2,6.4,22.4,8.6,33.8
			c3.4,15-4.1,30.3-18.1,36.7c-1.9,0.9-2.3,1.9-1.8,3.9c5,20.9,9.9,41.8,14.8,62.7c1.5,6.5,3.1,13,4.8,19.5
			c1.4,5.1-1.5,10.4-6.6,11.8c-0.1,0-0.2,0-0.2,0.1c-2.2,0.8-4.6,1.2-7,1.2c-4.5-0.7-8-4.2-8.7-8.7c-2.6-11.8-5.2-23.7-7.8-35.5
			c-0.7-3.5-0.7-3.5-4.3-3.5c-24.7,0-49.4,0.1-74.1-0.1c-2.5,0-3.9,0.5-4.6,3.2c-1.8,6.7-4.1,13.3-6.1,20
			c-4.4,15.2-19,25.2-34.8,23.9c-19.2-1.5-33.6-18.2-32.4-37.4c0.9-5.8,2.1-11.6,3.9-17.3c6.7-26.9,13.5-53.7,20.3-80.6
			c1.2-5.1,3.7-9.9,7.2-13.8c1.5-1.1,1.7-3.2,0.6-4.7c-0.1-0.1-0.2-0.3-0.4-0.4c-3.8-4.9-6.3-10.6-7.4-16.7
			c-2.7-18.7,10.3-35.9,29-38.6c1.5-0.2,3-0.3,4.5-0.3c7.9,0,15.7-0.1,23.5,0c1.4,0.2,2.8-0.5,3.3-1.8c4.1-8.7,8.3-17.4,12.5-26
			C1478.1,2003.6,1478.3,2003,1478.4,2002.4z M1496.3,2124.8h37.9c4.3,0.2,8.4-2.3,10.2-6.2c2-3.7,2.4-8,1.3-12
			c-7.8-30.5-15.5-60.9-23.2-91.4c-0.9-5.2-5.3-9-10.5-9.2c-4.8-0.5-9.4,1.9-11.8,6.1c-5.5,10.6-10.9,21.3-16.4,31.9
			c-2.2,5-7.2,8.2-12.6,8.3c-10.5,0.2-20.9,0-31.3,0.1c-6.5-0.1-12,4.9-12.4,11.5c-0.4,6.7,4.7,12.3,11.4,12.7c0.2,0,0.5,0,0.7,0
			c16,0.2,32,0.1,48.1,0c4,0.3,7.8-1.8,9.7-5.4c1.5-3.1,4.2-5.4,7.5-6.4c4.5-1.9,9.7-0.5,12.7,3.4c3,3.4,3.7,8.4,1.7,12.5
			c-8,12-18.6,19.7-33.6,19.7c-15.2,0.1-30.2,0-45.4,0c-6.5-0.6-12.3,3.9-13.3,10.3c-7.1,28.2-14.2,56.4-21.3,84.6
			c-1,3.8-2.3,7.4-2.9,11.2c-0.5,6.4,4.2,12,10.5,12.7c6.1,1.3,12.1-2.5,13.6-8.6c6.4-25.4,12.9-50.8,19.3-76.1
			c1.2-6.1,6.7-10.3,12.9-9.9L1496.3,2124.8z M1474.6,1959.9c-0.4,13.5,10.3,24.8,23.9,25.2c13.5,0.4,24.8-10.3,25.2-23.9
			c0-0.5,0-0.9,0-1.4c-0.4-13.5-11.7-24.2-25.2-23.8C1485.4,1936.4,1475,1946.9,1474.6,1959.9z M1460.6,2171.7h68.3
			c-0.1-0.9-0.3-1.9-0.5-2.8c-1.4-6.1-2.9-12.2-4.2-18.4c-0.4-2.2-1.3-2.9-3.5-2.9c-15.5,0.1-30.9,0.1-46.3,0.1
			c-2.6,0-6.1-0.8-7.8,0.5c-1.7,1.4-1.8,5-2.4,7.6C1463,2161,1461.9,2166.2,1460.6,2171.7z"/>
		<path id="Tracé_2890" class="st24" d="M1285.8,1964.6c-0.2,11.5-7.3,23.4-19,32.9c-2.2,1.8-4.5,3.4-7,4.8c-1.3,0.8-1.7,1.5-1,2.9
			c3.9,8.3,7.7,16.6,11.5,24.9c0.8,1.7,2.1,1.8,3.6,1.8c8.7,0,17.3-0.1,26,0.1c15.5,0.9,28.4,12.1,31.5,27.3
			c1.8,10.3-1,20.8-7.6,28.9c-1.2,1.5-1,2.3,0.1,3.9c2.2,3.2,4,6.6,5.2,10.3c5.8,21.3,11.4,42.6,16.9,63.9
			c2.8,10.6,5.5,21.3,8.5,31.8c4,15.1-2.7,30.9-16.3,38.6c-21.4,12.6-43.8,0.4-50.5-19c-2.3-6.2-3.9-12.5-5.5-18.8
			c-0.2-2-1.9-3.4-3.9-3.2c-0.1,0-0.2,0-0.2,0c-25.3,0.1-50.7,0.1-76,0c-2.2,0-3.1,0.7-3.5,2.8c-2.8,11.6-5.7,23.1-8.6,34.6
			c-1.4,5.2-6.1,8.8-11.5,8.8c-4.2,0.1-8.1-2.4-9.7-6.3c-1.2-2.9-1.3-6.2-0.4-9.2c6.1-24.9,12.2-49.9,18.3-74.9
			c0.5-2.1,1.7-4.3,1.1-6.1c-0.5-1.4-3.1-1.9-4.7-3.1c-8-5.7-13.3-14.5-14.6-24.2c-1.4-8.7,1.5-16.6,3.6-24.7
			c7-27.2,14.1-54.4,21.3-81.6c1.5-7.1,5.3-13.4,10.9-17.9c1.5-1.1,0.4-1.9-0.2-2.9c-4.4-6.2-7.6-13.2-9.4-20.6
			c-3.7-17.8,3.2-36.1,17.8-47c7.8-6,17.4-9.3,27.3-9.2c12.3,0.1,24.1,5.2,32.5,14.1C1281.1,1937.2,1285.8,1948,1285.8,1964.6z
			 M1272.5,2078.7c7.9,0,15.9,0.1,23.8-0.1c1.4,0,2.7-0.2,4-0.7c5.8-2.5,9-8.8,7.6-14.9c-1.4-5.7-6.6-9.7-12.5-9.6
			c-10.5,0-21.1,0.1-31.6-0.1c-4.2,0.4-8.1-1.8-10.1-5.5c-5.8-11.6-11.8-23-17.7-34.5c-2.4-4.4-7.3-6.9-12.2-6
			c-4.7,0.6-8.6,4.1-9.6,8.8c-7.8,29.9-15.6,59.9-23.5,89.8c-1.4,4.7-1.2,9.8,0.4,14.5c0.5,1.3,1.3,2.4,2.4,3.2
			c3,2.5,6.9,3.7,10.8,3.4c10.2-0.1,20.4,0,30.6,0c14.7,0,29.3-0.1,44,0.1c5.9-0.5,11.1,3.8,11.8,9.7c5.8,24.4,11.6,48.9,17.5,73.3
			c0.5,2,1.6,3.8,3,5.4c3.3,3.9,8.5,5.5,13.5,4.2c4-0.9,7-4.3,7.4-8.4c0.4-2.2,0.3-4.5-0.2-6.7c-7.8-30.9-15.6-61.9-23.4-92.8
			c-1.3-6.3-7-10.7-13.4-10.3c-15.2,0-30.5,0.1-45.7,0c-13.4,0.4-25.8-7.2-31.6-19.3c-3.2-5.5-1.4-12.5,4-15.7
			c5.4-2.7,12-1.2,15.6,3.7c0.7,1.1,1.4,2.2,2.2,3.2c2.3,3.4,6.2,5.4,10.3,5.3C1257.2,2078.6,1264.9,2078.7,1272.5,2078.7
			L1272.5,2078.7z M1260.9,1960.7c0.4-13.2-10-24.3-23.2-24.8c-0.1,0-0.2,0-0.3,0c-13.8,0.2-24.9,11.2-25.3,25
			c0.1,13.4,11.1,24.1,24.5,23.9c0.2,0,0.3,0,0.5,0c13,0.2,23.8-10.3,23.9-23.3C1260.9,1961.2,1260.9,1960.9,1260.9,1960.7
			L1260.9,1960.7z M1272.5,2172c0-0.8,0-1.7-0.2-2.5c-1.5-6.4-3-12.9-4.4-19.4c-0.4-1.8-1.2-2.4-3.1-2.4c-17.5,0.1-34.9,0.1-52.4,0
			c-1.4-0.2-2.8,0.7-3,2.1c0,0.1,0,0.2,0,0.4c-1.3,6.2-2.7,12.3-4.2,18.4c-0.8,3.4-0.8,3.4,2.7,3.4h61.7
			C1270.4,2171.9,1271.3,2171.9,1272.5,2172L1272.5,2172z"/>
		<path id="Tracé_2891" class="st24" d="M1368.3,1841.6c16.7,0,33.4-0.3,50,0.1c15.8,0.5,29.2,11.9,32,27.5
			c0.4,1.8,0.6,3.7,0.6,5.5c0.1,9.2,0.3,18.5-0.1,27.6c-0.2,12.6-7.5,24.1-18.8,29.6c-3.9,1.5-6.2,5.5-5.6,9.6
			c0.4,10,0.1,20.1,0.1,30.1c0.1,0.9,0,1.8-0.2,2.6c-0.8,3.6-1.8,7.3-6,8.4c-4.4,1.4-9.3,0.3-12.6-3c-10-9.7-19.9-19.4-29.9-29.2
			c-4.4-4.3-8.9-8.8-13.5-13c-1-0.9-2.4-1.5-3.8-1.5c-13.4-0.1-26.7,0-40.1-0.1c-9.7,0.2-19-3.9-25.5-11c-5.6-5.9-8.8-13.6-9-21.7
			c-0.2-9.9-0.2-19.7,0-29.6c0.9-15.3,11.9-28.2,26.9-31.4c3.1-0.5,6.2-0.7,9.4-0.7c15.3-0.1,30.6-0.1,45.9-0.1
			C1368.3,1841.5,1368.3,1841.5,1368.3,1841.6z M1404.5,1943.1c0.1-1.6,0.2-2.3,0.2-3.1v-13.4c-0.2-7.1,5.2-13.2,12.4-13.6
			c6.9-0.9,12.2-6.6,12.4-13.6v-24c0.2-7.1-5.4-13.1-12.5-13.3c-0.3,0-0.5,0-0.8,0h-96.4c-6.6-0.1-12.1,5.2-12.2,11.8
			c0,0.1,0,0.2,0,0.2c-0.1,8.6-0.1,17.2,0,25.7c0,7.3,5.9,13.1,13.1,13.1c0.1,0,0.1,0,0.2,0c15,0,30.1,0.1,45.1-0.1
			c4.6-0.1,9,1.7,12.1,5c7.4,7.2,14.9,14.4,22.4,21.5C1401.6,1940.5,1402.8,1941.5,1404.5,1943.1L1404.5,1943.1z"/>
	</g>
	<g id="valeur_JL_4" transform="translate(303.09)">
		<path id="Tracé_2894" class="st25" d="M2410.5,1560.9h-82.3c-6.6,0.6-12.5-4.3-13.1-10.9c-0.1-0.7-0.1-1.5,0-2.2v-22
			c-0.4-14.1,7.6-27,20.4-33c2.4-1,3.9-3.5,3.8-6.1c0.7-4.5-1.8-8.9-5.9-10.6c-21.2-12.3-36-33.1-40.5-57.2
			c-0.7-3.8-1.1-7.6-1.3-11.4c-0.1-18.5-0.6-36.8,0.1-55.3c0.4-16.3,8.7-31.3,22.2-40.3c1.7-1,2.7-2.9,2.6-4.9
			c-0.1-8.1-0.1-16.4,0.1-24.5c1.3-15.8,13.2-28.8,28.8-31.5c5.7-0.7,11.5-0.3,17,1.3c2.2,0.5,2.9-0.1,3.7-2
			c6-18,25.4-27.8,43.4-21.8c10.3,3.4,18.4,11.6,21.8,21.9c0.6,2.1,1.5,2.4,3.4,1.9c8.7-2.7,18-2.1,26.3,1.6
			c8,3.7,14.2,10.3,17.5,18.4c1.5,3.4,1.5,3.4,5.2,2.6c9.3-2.7,19.4-1.5,27.8,3.4c9.7,5.5,16.1,15.4,16.9,26.5c0.2,3,0.4,5.9,0.4,9
			c0,29.7,0.1,59.5,0,89.4c0,12.2-2.6,24.3-7.6,35.4c-7.8,17.2-21.2,31.2-38,39.8c-1.6,0.6-2.6,2.2-2.4,3.9c0.2,2.1,0.2,4.2,0,6.3
			c-0.2,1.6,0.8,3.1,2.4,3.4c9.3,3.5,16.7,10.9,20.2,20.2c1.3,3.8,2.1,7.8,2.3,11.9c0.3,7.9,0.1,15.9,0.1,23.8
			c0.7,6.6-4.1,12.5-10.7,13.1c-0.8,0.1-1.5,0.1-2.3,0C2465.5,1560.9,2438,1560.9,2410.5,1560.9z M2409.5,1367.5
			c0.1,0.4,0.1,0.7,0.3,0.8l1.3,1.6c4.6,5.7,8.9,11.6,12.9,17.7c7.3,12.4,11.2,26.6,11.3,41c0.4,6.7-4.7,12.3-11.4,12.7
			s-12.3-4.7-12.7-11.4c0-0.1,0-0.3,0-0.4c0-2.2-0.1-4.5-0.4-6.7c-2.5-21.1-15.9-39.2-35.3-47.9c-7.8-3.6-16.3-5.4-24.9-5.5
			c-3.2,0-6.3-1.5-8.2-4.1c-4.4-5.1-3.9-12.7,1.1-17.2c2.4-2.1,5.6-3.2,8.8-3h46.8c4.4,0.1,8.4-2.3,10.4-6.2
			c2.4-3.9,2.3-8.8-0.2-12.5c-2.8-4.3-7.8-6.6-12.8-6.1h-43.5c-8.1-0.3-16,2-22.7,6.7c-8.8,6.1-14.1,16-14.3,26.7
			c0,0.7,0.1,1.5,0.3,2.2c0.2,1.2,0.2,2.4,0.2,3.5c0,15.4,2.4,30.5,2.5,45.8c0,8.8,2.1,17.5,5.9,25.4c6.5,13.8,18.4,24.4,33,29.1
			c6.9,2.3,9.1,5.4,9.1,12.5c0,4.2,0.1,8.4,0,12.5c-0.1,2,0.4,2.8,2.6,2.8c30.5-0.1,60.9,0,91.4,0c1.9,0,2.7-0.6,2.6-2.6
			c-0.1-4,0-8,0-12c-0.8-6.2,3.2-11.9,9.3-13.4c22.2-8.5,37-29.7,37.3-53.4v-40.1c-1.6,0.4-2.6,0.8-3.7,1.1
			c-2.5,0.8-5.1,1.5-7.7,1.9c-7.1,0.6-14.1-1.5-19.6-5.9c-2.8-3-7.4-3.2-10.4-0.4c-0.1,0.1-0.2,0.1-0.2,0.2
			c-7.4,5.6-16.8,7.6-25.9,5.6c-5.7-1.3-11-3.9-15.6-7.6c-1.5-1.1-2.3-0.9-3.9,0c-3.2,1.9-6.5,3.6-9.8,5.2
			C2411.9,1366.9,2410.6,1367.2,2409.5,1367.5z M2410.6,1536.8h69.7c1.8,0,2.5-0.6,2.5-2.5c-0.1-3.1,0-6.4,0-9.5
			c0.2-6.9-5.2-12.6-12.1-12.8c-0.2,0-0.4,0-0.6,0h-119.2c-5.9-0.1-11.1,4.2-12,10c-0.4,3.4-0.6,6.8-0.5,10.2
			c-0.1,4.7,0,4.7,4.6,4.7C2365.5,1536.8,2388,1536.8,2410.6,1536.8L2410.6,1536.8z M2435.3,1308.7v24.5c0.1,6.7,5.6,12.1,12.3,12
			c0,0,0.1,0,0.1,0c6.6,0.1,12-5.2,12.1-11.8c0-0.1,0-0.1,0-0.2v-48.3c0-6.8-5.5-12.3-12.3-12.3c-6.8,0-12.3,5.5-12.3,12.3V1308.7z
			 M2507.8,1320.4v-12.2c0-6.6-5.1-12.1-11.7-12.5c-7-0.8-13.3,4.3-14.1,11.3c0,0.3-0.1,0.6-0.1,0.9c-0.2,8.5-0.2,16.8,0,25.3
			c0.3,7,6.2,12.5,13.3,12.3c0.2,0,0.5,0,0.7,0c6.7-0.2,12-5.8,11.9-12.5L2507.8,1320.4z M2411.8,1299.5c0.2-0.5,0.3-1,0.4-1.5
			c0-12.5,0.3-25.1-0.1-37.5c0.3-6.9-5.1-12.7-12-12.9c-0.2,0-0.4,0-0.6,0c-6.8,0.2-12.2,5.8-12.2,12.5c-0.2,11.4-0.1,22.7-0.1,34
			c0,1.5,0.6,2,2.1,2C2396.9,1296.3,2404.5,1295.5,2411.8,1299.5L2411.8,1299.5z M2339.5,1299c3.7-0.5,6.9-1.3,10-1.5
			c4.2-0.2,8.4-0.2,12.5,0c2.4,0.1,3.5-0.5,3.3-3.2c-0.2-3.1,0-6.4-0.1-9.5c-0.1-6.2-4.9-11.4-11.1-12.1c-6-1.1-11.8,2.4-13.8,8.1
			C2338.5,1286.9,2339.6,1292.9,2339.5,1299L2339.5,1299z"/>
		<path id="Tracé_2895" class="st25" d="M2411.1,1183V1165c0.2-6.6,5.7-11.8,12.3-11.7c4.7,0.1,8.8,2.9,10.7,7.2
			c0.6,1.5,0.9,3,0.8,4.6c0.1,11.9,0.1,23.8,0,35.8c0.3,5-2.8,9.6-7.5,11.3c-4.8,1.8-10.3,0.4-13.7-3.5c-1.5-2-2.4-4.3-2.6-6.8
			C2410.9,1195.6,2411.2,1189.3,2411.1,1183L2411.1,1183z"/>
		<path id="Tracé_2896" class="st25" d="M2350.6,1223.7c-2.8,0.1-5.5-1.1-7.4-3.2c-7.7-7.5-15.6-14.8-23.3-22.2
			c-4.2-4.3-5-10.9-1.9-16.1c3.9-4.5,10.6-5.2,15.4-1.7c8.7,8,17.1,16.3,25.7,24.4c3.2,3.3,4.2,8.2,2.5,12.5
			C2359.6,1221.6,2355.2,1224.1,2350.6,1223.7z"/>
		<path id="Tracé_2897" class="st25" d="M2484.3,1213.2c-0.1-3.2,1.1-6.2,3.4-8.4c8.4-8.1,16.7-16.3,25.2-24.2
			c3.1-2.5,7.4-3.1,11.1-1.5c3.6,1.3,6,4.7,5.8,8.6c0.6,4.1-0.9,8.3-4,11.1c-7.2,6.7-14.2,13.6-21.3,20.4c-0.5,0.5-1.1,1-1.6,1.6
			c-2.5,3.7-7.3,5.1-11.5,3.3C2487,1222.3,2484.2,1218,2484.3,1213.2z"/>
		<path id="Tracé_2898" class="st25" d="M2543.3,1262.4c-6.4-0.5-10-3.2-11.4-8.9c-1.7-5.4,0.9-11.2,6.1-13.6
			c7.8-4.3,15.7-8.6,23.5-12.9c5.5-3.1,12.6-1.2,15.7,4.4c0.7,1.2,1.1,2.4,1.3,3.8c1.4,5.3-1.4,10.8-6.5,12.9
			c-7.1,3.8-14,7.8-21.1,11.5C2548.5,1260.7,2545.9,1261.6,2543.3,1262.4z"/>
		<path id="Tracé_2899" class="st25" d="M2279.5,1260c-1.5-0.3-2.9-0.7-4.3-1.3c-7.8-3.8-15.8-7.6-23.6-11.6
			c-4.7-2.3-7.6-7.1-7.4-12.3c0.9-6.5,7-11,13.5-10.1c1.1,0.2,2.1,0.5,3.1,0.9c8.2,3.9,16.3,7.9,24.3,12.1c4.8,2.6,7.3,7.9,6.4,13.3
			C2290.2,1256.4,2285.2,1260.2,2279.5,1260z"/>
		<path id="Tracé_2900" class="st25" d="M2245.1,1344.3h-12c-6.3,0.4-11.8-4.4-12.2-10.7c0-0.2,0-0.3,0-0.5
			c-0.1-6.5,5.1-11.7,11.6-11.8c0,0,0.1,0,0.1,0c8.5-0.2,16.8-0.2,25.3,0c6.4,0.3,11.3,5.6,11.1,12c-0.2,6.1-5.2,11-11.4,11.1
			C2253.4,1344.3,2249.3,1344.3,2245.1,1344.3z"/>
		<path id="Tracé_2901" class="st25" d="M2579.4,1344.3h-12c-6.3,0.1-11.6-5-11.6-11.3c-0.1-6.3,4.9-11.4,11.1-11.6
			c8.2-0.2,16.5-0.2,24.7,0c6.3-0.2,11.7,4.8,11.9,11.1c0.2,6.3-4.8,11.7-11.1,11.9c-0.4,0-0.7,0-1.1,0H2579.4z"/>
	</g>
	<g id="transparence" transform="translate(52.318 103.026)">
		<path id="Tracé_2961" class="st26" d="M2534.2,2696.6c-4-3.7-7.5-8-10.4-12.7c-15-24-12.7-55,5.7-76.5
			c11.1-13.6,27.1-22.2,44.5-23.9c18.8-2.2,37.6,3.8,51.6,16.6c11.1,9.5,18.6,22.6,21.1,37c3.5,18.5-1.2,37.6-12.9,52.3
			c-1.4,1.9-2.9,3.6-4.6,5.3c-1.5,1.4-1.3,2.2,0.6,2.9c9.4,4,18.2,9.2,26.1,15.6c21.7,16.7,36.8,40.5,42.8,67.3
			c1.9,8.2,2.8,16.6,2.8,24.9c0,17.9-0.1,36,0.1,53.9c0,7.7-6.3,13.9-13.9,13.9c-70.2-0.2-140.4-0.1-210.6-0.1
			c-7.3,0.1-13.9-4.5-16.4-11.4c-0.4-1.1-0.6-2.3-0.6-3.5c0-18.4-0.4-36.7,0.1-55.1c0.5-25.8,9.7-50.8,26.1-70.7
			c11.5-14.3,26.1-25.8,42.8-33.6C2530.7,2698.2,2532.3,2697.5,2534.2,2696.6z M2580.7,2845.8h89.1c2.6,0,3.3-0.7,3.3-3.3
			c-0.1-13,0-26-0.1-39c0-7-0.8-14-2.6-20.7c-11.9-48.9-60.9-79.2-109.9-68.1c-19.5,4.3-36.9,14.9-49.6,30.4
			c-14.1,16.2-22,37-22.2,58.5c-0.2,13,0,26-0.1,39c0,2.6,0.7,3.3,3.3,3.3L2580.7,2845.8z M2582.3,2684.6c8,0.3,15.9-2,22.5-6.6
			c11.8-7.1,18.7-20.2,17.7-34c-0.6-11.6-6.5-22.3-15.9-28.9c-7.6-5.8-17.1-8.6-26.6-8c-10.5,0.7-20.3,5.7-27,13.8
			c-8.5,8.8-12.1,21.2-9.5,33.2C2547.8,2672.1,2563.9,2684.7,2582.3,2684.6L2582.3,2684.6z"/>
		<g>
			<path id="Tracé_2960" class="st26" d="M2850.8,2591.8c-0.5,3.3-1.1,6.4-1.7,9.7c-3,15.2-10,29.4-20.3,41
				c-7.8,9-17.4,16.3-28.2,21.5c-9.1,4.4-18.8,7.2-28.9,8.3c-13.2,1.6-26.6,0.4-39.4-3.4c-3.2-1-6.3-2.3-9.3-4
				c-1.1-0.7-2.5-0.8-3.8-0.4c-11.2,2.8-22.5,5.6-33.8,8.2c-3.7,0.8-7.6,0.1-10.9-1.9c-1.1-0.8-1.9-2-2.1-3.4
				c-1.2-3.1-1.3-6.6-0.2-9.7c3.3-9.6,6.4-19.3,9.7-28.8c0.4-1.2,0.3-2.6-0.3-3.8c-5.5-11-8.8-22.9-9.6-35.1
				c-1.4-15.8,1.8-31.6,9-45.7c10.9-22,30.4-38.4,53.9-45.4c10.2-3.2,20.8-4.5,31.4-3.7c17.4,1,34,7.2,47.8,17.8
				c10.1,7.7,18.5,17.5,24.6,28.6c5.5,10,9.3,20.9,11,32.1c0.2,2.4,0.5,4.8,1,7.2C2850.8,2584.5,2850.8,2588.2,2850.8,2591.8z
				 M2761.8,2513.8c-28,0.1-53.4,16.7-64.6,42.4c-4.9,10.8-6.7,22.8-5,34.6c1.5,10.4,5.2,20.4,10.8,29.3c1.6,2.4,2.1,5.4,1.1,8.2
				c-1.9,6-3.7,12.1-5.5,18.2c-0.2,0.5-0.8,1.2-0.3,1.8c0.4,0.4,1.1-0.1,1.6-0.2c6.5-1.6,13.2-3.2,19.7-4.8c1-0.2,2.1-0.2,3.1-0.1
				c3.3,0.5,6.4,1.7,9.2,3.4c15.2,7.1,32.4,8.3,48.4,3.5c28.1-8.7,48.1-33.6,50.5-63c1.2-13.6-2.1-27.2-9.4-38.8
				C2809.1,2527.1,2786.4,2513.8,2761.8,2513.8L2761.8,2513.8z"/>
			<path id="Tracé_2962" class="st26" d="M2770.8,2604.1v19.7c0.1,5-3.5,9.3-8.5,10.1c-5.6,1.1-11-2.6-12-8.2
				c-0.1-0.5-0.2-1-0.2-1.5c-0.1-13.2-0.1-26.5,0-39.7c-0.2-4,2.2-7.7,5.9-9.3c3.5-1.8,7.7-1.4,10.8,1.1c2.5,1.9,4,4.9,4,8
				L2770.8,2604.1z"/>
			<path id="Tracé_2963" class="st26" d="M2760.8,2544.5c5.4-0.1,9.9,4.3,10,9.7c-0.1,5.4-4.5,9.7-9.9,9.8
				c-5.4,0.5-10.2-3.4-10.7-8.8c-0.5-5.4,3.4-10.2,8.8-10.7C2759.5,2544.4,2760.2,2544.4,2760.8,2544.5L2760.8,2544.5z"/>
		</g>
	</g>
</g>
<g id="Calque_6">
</g>
<g id="Calque_7">
</g>
</svg>
