<?xml version="1.0" encoding="utf-8"?>
<!-- Generator: Adobe Illustrator 25.2.1, SVG Export Plug-In . SVG Version: 6.00 Build 0)  -->
<svg version="1.1" xmlns="http://www.w3.org/2000/svg" xmlns:xlink="http://www.w3.org/1999/xlink" x="0px" y="0px"
	 viewBox="0 0 4007 3116" style="enable-background:new 0 0 4007 3116;" xml:space="preserve">
<style type="text/css">
	.st0{fill:#D9D9D9;}
	.st1{fill:#FFFFFF;stroke:#398CAE;stroke-width:40;stroke-miterlimit:4.0009;}
	.st2{fill:#398CAE;}
	.st3{fill:#FFFFFF;stroke:#398CAE;stroke-width:41;stroke-miterlimit:4.0009;}
	.st4{fill:#FFFFFF;}
	.st5{fill:#3A8CAF;}
	.st6{fill:none;stroke:#707070;stroke-width:17;}
	.st7{fill:#CFE3F9;}
	.st8{fill:#47C347;stroke:#707070;stroke-width:9;}
	.st9{fill:#EFC94F;stroke:#707070;stroke-width:9;}
	.st10{fill:none;stroke:#707070;stroke-width:10;stroke-linecap:round;}
	.st11{fill:#E89F94;}
	.st12{fill:none;stroke:#707070;stroke-width:11;stroke-linejoin:round;}
	.st13{enable-background:new    ;}
	.st14{fill:#707070;}
	.st15{fill:#5D5D5D;}
	.st16{fill:#CDE5F7;}
	.st17{fill:#E08A81;}
	.st18{fill:#FDFDFD;}
	.st19{fill:#8DB32B;}
	.st20{fill:#F0BA39;}
	.st21{fill:#ECF4FD;}
	.st22{fill:#6A8194;}
	.st23{fill:#6F8598;}
	.st24{fill:#5EBFBF;}
	.st25{fill:#88D2E6;}
	.st26{fill:#99D4DC;}
	.st27{fill:#6C8396;}
	.st28{fill:#6D8396;}
	.st29{fill:#6B8295;}
	.st30{fill:#6E8497;}
	.st31{fill:#FEFEFE;}
</style>
<g id="Calque_1">
</g>
<g id="Calque_2">
	<g>
		<path id="Tracé_2904" class="st1" d="M995.6,634.4v-7.8c3.7-2.5,1.6-5.8,2.1-9c2.5-18.1,3.3-35.8,6.6-53.9
			c12.8-73.2,39.9-143.2,79.7-205.9c56.7-91.1,137.9-164.4,234.3-211.7c112.2-56,240.1-71.9,362.5-45.2
			c140.6,29.2,255.7,100.7,342.4,215.4c78.1,103.2,115.9,219.9,115.5,349.4c0,8.6,2.1,12.3,11.1,14.8
			c123.3,32.5,247,65.3,370.3,97.8c8.2,2.1,11.1,4.9,8.6,14.4c-21.4,77.7-41.9,155.8-62.5,233.5c-2.5,8.6-5.8,10.3-14,7.8
			c-122.1-33.3-244.6-66.2-366.6-99.5c-14.4-3.7-14.4-4.1-21.8,9c-0.8,1.6-2.1,3.3-2.9,4.9c-86.3,150.4-237.2,252.5-408.9,276.6
			c-92.1,13.7-186.2,4.8-274.1-25.9c-80.6-27.5-153.7-73.2-213.7-133.6c-48.4-48.7-87.6-105.8-115.5-168.5
			c-29.9-64.4-47.4-133.8-51.4-204.7c0-11.9,0.4-24.2,0-36.2C996.9,648.4,999.7,641,995.6,634.4z"/>
		<path id="Tracé_2904-2" class="st2" d="M3041.6,464.6h7.8c2.5,3.7,5.8,1.6,9,2.1c18.1,2.5,35.8,3.3,53.9,6.6
			c73.2,12.8,143.2,39.9,205.9,79.7c91.1,56.7,164.4,137.9,211.7,234.3c56,112.2,71.9,240.1,45.2,362.5
			c-29.2,140.6-100.7,255.7-215.4,342.4c-103.2,78.1-219.9,115.9-349.4,115.5c-8.6,0-12.3,2.1-14.8,11.1
			c-32.5,123.3-65.4,247-97.8,370.3c-2.1,8.2-4.9,11.1-14.4,8.6c-77.7-21.4-155.8-41.9-233.5-62.5c-8.6-2.5-10.3-5.8-7.8-14
			c33.3-122.1,66.2-244.6,99.5-366.6c3.7-14.4,4.1-14.4-9-21.8c-1.6-0.8-3.3-2.1-4.9-2.9c-150.4-86.3-252.5-237.2-276.6-408.9
			c-13.7-92.1-4.8-186.2,25.9-274.1c27.5-80.6,73.2-153.7,133.6-213.7c48.7-48.4,105.8-87.6,168.5-115.5
			c64.4-29.9,133.8-47.4,204.7-51.4c11.9,0,24.2,0.4,36.2,0C3027.6,465.9,3035,468.7,3041.6,464.6z"/>
		<path id="Tracé_2904-3" class="st3" d="M3211.4,2518.8v7.8c-3.7,2.5-1.6,5.8-2.1,9c-2.5,18.1-3.3,35.8-6.6,53.9
			c-12.8,73.2-39.9,143.2-79.7,205.9c-56.8,91.1-137.9,164.4-234.3,211.7c-112.2,56-240.1,71.9-362.5,45.2
			c-140.6-29.2-255.7-100.7-342.4-215.4c-78.1-103.2-115.9-219.9-115.5-349.4c0-8.6-2.1-12.3-11.1-14.8
			c-123.3-32.5-247-65.4-370.3-97.8c-8.2-2.1-11.1-4.9-8.6-14.4c21.4-77.7,41.9-155.8,62.5-233.5c2.5-8.6,5.8-10.3,14-7.8
			c122.1,33.3,244.6,66.2,366.6,99.5c14.4,3.7,14.4,4.1,21.8-9c0.8-1.6,2.1-3.3,2.9-4.9c86.3-150.4,237.2-252.5,408.9-276.6
			c92.1-13.7,186.2-4.8,274.1,25.9c80.6,27.5,153.7,73.2,213.7,133.6c48.4,48.7,87.6,105.8,115.5,168.5
			c29.9,64.4,47.4,133.8,51.4,204.7c0,11.9-0.4,24.2,0,36.2C3210.1,2504.8,3207.3,2512.2,3211.4,2518.8z"/>
		<path id="Tracé_2904-4" class="st2" d="M1165.4,2688.6h-7.8c-2.5-3.7-5.8-1.6-9-2.1c-18.1-2.5-35.8-3.3-53.9-6.6
			c-73.2-12.8-143.2-39.9-205.9-79.7c-91.1-56.7-164.4-137.9-211.7-234.3c-56-112.2-71.9-240.1-45.2-362.5
			c29.2-140.6,100.7-255.7,215.4-342.4c103.2-78.1,219.9-115.9,349.4-115.5c8.6,0,12.3-2.1,14.8-11.1
			c32.5-123.3,65.3-247,97.8-370.3c2.1-8.2,4.9-11.1,14.4-8.6c37.9,10.4,95.1,57.4,95.1,57.4s98.6-5.4,138.4,5.1
			c8.6,2.5,10.3,5.8,7.8,14c-33.3,122.1-66.2,244.6-99.5,366.6c-3.7,14.4-4.1,14.4,9,21.8c1.6,0.8,3.3,2.1,4.9,2.9
			c150.4,86.3,252.5,237.2,276.6,408.9c13.7,92.1,4.8,186.2-25.9,274.1c-27.5,80.6-73.2,153.7-133.6,213.7
			c-48.7,48.4-105.8,87.6-168.5,115.5c-64.4,29.9-133.8,47.4-204.7,51.4c-11.9,0-24.2-0.4-36.2,0
			C1179.4,2687.4,1172,2684.5,1165.4,2688.6z"/>
		<circle id="Ellipse_113" class="st4" cx="3017.4" cy="1038.1" r="404.8"/>
		<circle id="Ellipse_114" class="st2" cx="2630.7" cy="2496.3" r="404.8"/>
		<circle id="Ellipse_115" class="st4" cx="1189.3" cy="2118.4" r="404.8"/>
		<circle id="Ellipse_116" class="st2" cx="1570.2" cy="650.1" r="404.8"/>
		<g id="Bulle" transform="translate(22404.711 -11824.945)">
			<path id="Tracé_2905" class="st5" d="M-19200.3,12838.6v19.3c-0.7,0.5-0.4,1.3-0.4,1.9c-0.8,9.6-2.6,19-5.3,28.3
				c-9.2,30.6-27.6,57.7-52.8,77.5c-33.8,27.5-75.7,42.9-119.2,43.7c-25,1-49.9-2.7-73.5-10.9c-1.2-0.6-2.7-0.2-3.5,0.8
				c-21.9,20.4-50.7,31.7-80.5,31.7c-4.4,0.3-8.5-2.4-10.2-6.5c-1.8-4.1-0.8-8.9,2.5-11.9c14.3-14.3,21.1-34.5,18.4-54.6
				c0-3.7-1.5-7.3-4-10c-2.5-2.5-4.8-5.2-6.8-8c-17-21.3-27.8-46.9-31.3-73.9c-0.1-3-0.5-6-1.1-8.9v-19c0.7-0.5,0.4-1.3,0.4-1.9
				c0.8-9.5,2.5-18.9,5.2-28.1c7.9-27.4,23.4-52,44.6-71c31.2-28.7,71.1-46.1,113.3-49.5c25.3-2.5,50.8-0.3,75.2,6.6
				c36.7,9.7,69.5,30.5,93.9,59.4c18.5,21.5,30.2,48,33.9,76.1C-19201.3,12832.7-19200.9,12835.6-19200.3,12838.6z
				 M-19512.3,13006.3c0.5,0.4,0.9,0.1,1.3,0c17.8-4.7,33.9-14.3,46.4-27.8c3.1-3.8,8.4-5,12.8-3c36.7,14.4,77.1,16.6,115.1,6.2
				c32.6-8,61.9-26,83.8-51.5c16.7-19,27.2-42.6,30.2-67.7c3.3-26.6-2.4-53.5-16.2-76.5c-14.8-25-36.5-45.2-62.6-57.9
				c-31.9-16.4-68-22.9-103.7-18.6c-33.2,3.1-64.7,16.1-90.5,37.1c-27.3,22.4-44.9,50.7-49.7,86.2c-2.2,16.5-0.9,33.4,3.9,49.3
				c6.2,21,17.4,40.1,32.6,55.7c1.6,1.6,2.7,3.6,3.2,5.8c3.9,14.3,4.1,29.5,0.6,43.9
				C-19506.8,12994-19509.3,13000.3-19512.3,13006.3L-19512.3,13006.3z"/>
			<path id="Tracé_2906" class="st5" d="M-19384.9,12882.5c-15.9-0.4-28.4-13.6-27.9-29.5s13.6-28.4,29.5-27.9
				c15.8,0.4,28.3,13.5,28,29.3C-19355.8,12870.3-19369,12882.9-19384.9,12882.5C-19384.9,12882.5-19384.9,12882.5-19384.9,12882.5z
				 M-19377.1,12853.8c0-4-3.2-7.2-7.2-7.2s-7.2,3.2-7.2,7.2c0,0,0,0,0,0c0,4,3.2,7.2,7.2,7.2
				C-19380.3,12861-19377.1,12857.8-19377.1,12853.8z"/>
			<path id="Tracé_2907" class="st5" d="M-19304.7,12825c15.9,0,28.8,12.8,28.8,28.7c0,15.9-12.8,28.8-28.7,28.8
				c-15.8,0-28.7-12.8-28.8-28.6C-19333.4,12838-19320.6,12825.1-19304.7,12825C-19304.7,12825-19304.7,12825-19304.7,12825z
				 M-19297.5,12853.9c0.1-4-3-7.3-6.9-7.4c-4-0.1-7.3,3-7.4,6.9c-0.1,4,3,7.3,6.9,7.4c0.1,0,0.2,0,0.3,0
				C-19300.7,12860.8-19297.6,12857.8-19297.5,12853.9L-19297.5,12853.9z"/>
			<path id="Tracé_2908" class="st5" d="M-19463.9,12882.5c-15.9,0.2-29-12.5-29.2-28.4s12.5-29,28.4-29.2
				c15.9-0.2,29,12.5,29.2,28.4c0,0.1,0,0.3,0,0.4C-19435.5,12869.5-19448.2,12882.4-19463.9,12882.5z M-19464.1,12860.9
				c3.9,0,7-3.1,7.1-7c0-4-3.2-7.2-7.2-7.3c-3.9,0-7.1,3.2-7.1,7.1C-19471.3,12857.7-19468.1,12860.9-19464.1,12860.9
				L-19464.1,12860.9z"/>
		</g>
		<g id="Case" transform="translate(22311.664 -11484.504)">
			<path id="Tracé_2909" class="st4" d="M-19491.5,13873.7v244.1c-0.1,0.2-0.3,0.4-0.4,0.5c-2.3,11-12.2,18.9-23.4,18.5
				c-110.3-0.2-220.5-0.2-330.7-0.1c-12.3,0.6-22.8-8.9-23.4-21.3c0-0.7,0-1.4,0-2.1c0-78.2,0-156.5-0.1-234.8
				c-0.2-12.9,10.1-23.5,23-23.6c0.2,0,0.4,0,0.6,0c29.3,0.3,58.6,0.1,88,0.2c2.2,0,2.6-0.6,2.7-2.7c0-9.6-0.4-19.1,0.2-28.6
				c1.2-16.2,12.8-29.7,28.6-33.4c1.6-0.4,3.2-0.6,4.7-1h82.9c0.3,0.1,0.5,0.4,0.7,0.4c19.1,2.5,33.2,19.2,32.5,38.5
				c-0.2,7.8,0,15.7,0,23.5c0,3,0,3,3,3h82c3,0,6.1,0,9,0.3c5.6,0.5,10.7,3.2,14.4,7.4
				C-19494.6,13865.7-19492.6,13869.5-19491.5,13873.7z M-19680.6,14114.4h107.8c2.1,0,2.8-0.4,2.7-2.6c-0.1-6.4-0.1-12.7,0.2-19.1
				c1-20.1,17.3-36.1,37.4-36.7c5.4-0.1,10.8-0.1,16.2,0c2,0.1,2.5-0.6,2.5-2.5c-0.1-38.4-0.1-76.7,0-115.1c0-2-0.6-2.5-2.5-2.5
				c-6.6,0.2-13.2,0.1-19.8-0.4c-18.5-2.4-32.7-17.6-33.8-36.3c-0.3-6.2-0.1-12.5-0.2-18.7c0-3.2,0-3.2-3.2-3.2h-215.9
				c-1.3-0.1-1.8,0.5-1.7,1.8c0.1,1.9,0,4,0,5.9c0.3,6.4,0,12.9-0.8,19.3c-3.2,16.7-16.8,29.3-33.7,31.3c-6.3,0.6-12.6,0.3-18.9,0.3
				c-1.9,0-2.6,0.4-2.6,2.5c0.1,38.4,0.1,76.7,0,115.1c0,1.8,0.4,2.5,2.4,2.5c4.9-0.1,9.8,0,14.8-0.1c20.5-0.1,37.5,15.8,38.7,36.2
				c0.4,6.4,0.1,12.9,0.2,19.3c0.1,2.9,0,2.9,3,2.9C-19752.1,14114.3-19716.3,14114.4-19680.6,14114.4z M-19680.5,13855.1h49.9
				c1.8,0,2.5-0.4,2.5-2.3c-0.1-8.9,0-17.8-0.1-26.7c-0.1-7.1-5.4-13-12.5-13.9c-6.4-0.4-12.9-0.5-19.3-0.3
				c-18.9-0.1-37.7,0.1-56.5-0.1c-8.4-0.5-15.6,5.8-16.2,14.2c0,0.7,0,1.3,0,2c0.4,8.1,0.1,16.2,0.1,24.1c0,2.9,0,2.9,2.8,2.9
				L-19680.5,13855.1z M-19513.9,14096.3v-16c0-1.3-0.3-2.1-1.8-2.1c-5.4,0.1-10.6-0.1-16,0.1c-8.6,0.2-15.4,7.1-15.7,15.6
				c-0.2,6.2,0,12.5-0.1,18.7c0,1.4,0.5,1.8,1.8,1.8c9.9,0,19.9-0.1,29.9,0c1.5,0,1.9-0.4,1.9-1.9
				C-19514,14107.1-19513.9,14101.6-19513.9,14096.3L-19513.9,14096.3z M-19513.9,13895.3v-16c0-1.5-0.4-1.9-1.9-1.9
				c-9.9,0.1-19.9,0.1-29.9,0c-1.3,0-1.8,0.4-1.8,1.8c0.1,6.3-0.1,12.6,0.1,18.9c0.3,7.6,6,14,13.6,15.1c5.9,0.8,11.8,0.1,17.6,0.4
				c1.8,0.1,2.3-0.5,2.3-2.3C-19514,13906-19513.9,13900.6-19513.9,13895.3L-19513.9,13895.3z M-19846.9,14096.2v16.2
				c0,1.4,0.4,1.9,1.9,1.9c9.9-0.1,19.8-0.1,29.7,0c1.3,0,1.8-0.4,1.8-1.8c-0.1-6.3,0.1-12.6-0.1-18.9c-0.4-7.7-6.2-14.1-13.9-15.1
				c-6-0.7-11.9-0.1-17.8-0.4c-1.6-0.1-1.7,0.9-1.6,2C-19846.9,14085.6-19846.9,14090.9-19846.9,14096.2L-19846.9,14096.2z
				 M-19846.9,13895.2v16c0,1.5,0.4,2.1,2,2.1c5.4-0.1,10.8,0.1,16.2-0.1c8.2-0.4,14.8-7,15.1-15.2c0.1-6.2,0-12.5,0.1-18.7
				c0-1.5-0.4-1.9-1.9-1.9c-9.8,0.1-19.7,0.1-29.4,0c-1.6,0-2,0.5-2,2C-19846.8,13884.8-19846.9,13890-19846.9,13895.2
				L-19846.9,13895.2z"/>
			<path id="Tracé_2910" class="st4" d="M-19683.4,14056.4h-82.7c-5.5,0.3-10.4-3.5-11.4-8.9c-0.2-1-0.3-2.1-0.3-3.2V13938
				c-0.5-6.2,4.1-11.6,10.3-12.1c0.6-0.1,1.3-0.1,1.9,0h164.5c6.2-0.6,11.6,4,12.2,10.1c0.1,0.7,0.1,1.5,0,2.2
				c0,35.3-0.1,70.5,0.1,105.8c0.3,6.6-4.9,12.2-11.5,12.5c-0.3,0-0.6,0-0.9,0C-19628.5,14056.2-19655.9,14056.4-19683.4,14056.4z
				 M-19683.2,14034c23.2,0,46.3,0,69.5,0.1c2.1,0,2.7-0.5,2.7-2.6c-0.1-26.8-0.1-53.6-0.1-80.3c0-2.8,0-2.8-2.8-2.8h-138.6
				c-2.7,0-2.7,0-2.7,2.8c0,26.8,0,53.6-0.1,80.3c0,2.2,0.6,2.6,2.7,2.6C-19729.6,14033.9-19706.4,14034-19683.2,14034
				L-19683.2,14034z"/>
			<path id="Tracé_2911" class="st4" d="M-19680.3,13997.3c15.5,0,31-0.1,46.5,0c6.1,0,11,5,11,11.1c0,0.6-0.1,1.2-0.2,1.8
				c-1,5.5-6,9.5-11.6,9.3h-89.9c-3.7,0.3-7.3-1-10-3.5c-3.2-3.1-4.2-7.8-2.5-11.9c1.5-4.2,5.5-7,9.9-6.9
				c10.4-0.1,20.7-0.1,31.2-0.1C-19690.7,13997.3-19685.5,13997.3-19680.3,13997.3L-19680.3,13997.3z"/>
			<path id="Tracé_2912" class="st4" d="M-19680.3,13962.4c8.5,0,17-0.1,25.5,0c5.6,0.1,10.2,4.3,10.9,9.8
				c0.6,5.4-2.7,10.5-7.9,12.2c-1.4,0.4-2.9,0.6-4.4,0.6h-48.6c-4.4,0.2-8.6-2.2-10.5-6.1c-2.1-3.7-1.8-8.3,0.7-11.8
				c1.9-3,5.3-4.9,8.9-4.8C-19697.3,13962.4-19688.7,13962.4-19680.3,13962.4z"/>
		</g>
		<path id="handshake" class="st4" d="M1610.8,818.5c-9.4,0.2-18.4-3.4-25-10.1c-6.4-6.5-12.6-13.1-18.9-19.8
			c-1.3-1.4-1.9-1.2-3.3-0.1c-3.8,3.2-7,6.8-11.1,9.7c-13.6,9-31.8,6.4-42.2-6.1c-4.5-4.9-7.4-11.2-8.1-17.8
			c-0.1-1.1-0.7-1.1-1.6-1.2c-11.9-1.8-22-9.4-27-20.4c-1.1-2.3-1.7-4.8-1.8-7.3c0.1-2.1-0.8-2.7-2.6-3.1c-7.8-1.2-14.9-5-20.4-10.6
			c-4.9-4.7-8-11-8.7-17.7c0-1.1-0.8-2.1-1.9-2.3c-5.3-1.2-10.3-3.2-14.9-6.1c-6.8-4.8-11.4-12.2-12.5-20.5
			c-1.8-9.4,1-19.1,7.4-26.2c0.8-0.9,0.8-1.3-0.1-2.2c-7.2-7.5-14.3-15-21.6-22.4c-11.5-12.2-11.5-31.3,0-43.5
			c25.5-25.5,51.2-51.2,76.8-76.7c6.6-6.6,13.3-13.2,19.8-19.7c9.4-9.2,23.5-11.6,35.4-6.1c4.7,2.4,8.9,5.5,12.6,9.3
			c6,5.6,11.9,11.3,17.7,17c1.1,1.1,1.8,1.1,3,0c9.8-9.9,19.8-19.8,29.6-29.6c12.4-12.2,32.3-12.2,44.6,0.1
			c11.7,11.7,23.7,23.1,35.6,34.7c8.8,8.5,17.6,17,26.3,25.5c9.9,9.7,19.9,19.3,29.9,29c5.5,5.4,11.1,10.5,16.5,15.9
			c7.5,6.9,11.4,16.9,10.5,27c-0.3,6.9-3.2,13.5-8.2,18.3c-8.7,8.5-17.1,17.1-25.8,25.6c-1.2,1.2-1.2,1.9,0,3.2
			c3.7,3.3,7.1,6.9,10.3,10.8c4.6,6.3,6.6,14.2,5.8,21.9c-0.4,6.7-3,13.1-7.4,18.2c-5.3,6.5-13,10.6-21.3,11.3
			c-1.9,0.1-1.9,1.2-2.1,2.5c-0.6,5.6-2.9,10.9-6.4,15.3c-6.1,6.8-13,12.5-22.7,13c-1.1,0.1-1.1,0.5-1.3,1.4
			c-1.2,7.7-4.9,14.9-10.5,20.3c-4.5,4.9-10.7,7.9-17.3,8.6c-1.7,0.2-2.7,0.5-3.1,2.7c-1,6.9-4.1,13.4-8.9,18.5
			c-4,4.1-9.1,6.9-14.7,8.2C1617.8,818.2,1614.3,818.6,1610.8,818.5z M1408.3,610.6c-0.2,3.6,1.2,7.1,3.8,9.6
			c6.7,6.1,13.3,12.6,19.8,18.9c1,1,1.5,1.1,2.5,0c4.5-4.6,9-9,13.5-13.5c12-12.1,31.2-13.3,44.6-2.7c6.8,4.9,11.1,12.6,11.7,21
			c0.1,1.2,0.7,1.5,1.7,1.8c2.7,0.8,5.4,1.5,8,2.5c11.3,3.7,19.7,13.4,21.7,25.1c0.4,2,1.1,3,3,3.4c7.9,1.7,15.1,6.1,20.2,12.4
			c4.1,4.6,6.8,10.2,7.6,16.3c0.2,2,1,2.1,2.5,2.2c6.4,0.1,12.6,2.6,17.4,6.9c5.1,4.7,10.1,9.5,15.1,14.3
			c10.8,10.4,21.7,20.7,32.5,31.2c3.5,3.5,8.8,4.7,13.5,3.1c6.4-1.7,7.6-11.7,3.7-15.5c-1.8-1.8-3.4-3.5-5.1-5.3
			c-8.4-8.6-16.9-17.2-25.4-25.8c-5.4-5.4-10.7-10.7-16-16.2c-2-1.9-2.9-4.6-2.6-7.3c0.1-4.1,2.8-7.6,6.8-8.8
			c3.9-1.5,8.2-0.4,11.1,2.5l21.1,20.8c8.1,8.1,16.2,16.2,24.3,24.2c2.6,2.7,6.5,3.8,10.1,2.7c5.5-1.3,8.9-6.9,7.6-12.4
			c-0.5-1.9-1.5-3.7-2.9-5c-5.5-5.6-11.2-11.2-16.9-16.8c-9.4-9.4-18.8-18.7-28.1-28.1c-3.6-3.5-4.3-9-1.8-13.3
			c3.3-4.9,9.9-6.3,14.8-3c0.6,0.4,1.1,0.8,1.6,1.3c13,12.9,25.9,25.9,38.9,38.8c2.4,2.7,5,5.1,7.7,7.4c4.5,3.2,10.7,2.5,14.2-1.8
			c3.3-4.3,3-10.3-0.7-14.2c-9-8.1-17.1-17-25.9-25.2c-6.4-6-12.5-12.3-18.8-18.4c-14.9-14.4-29.7-29.1-44.5-43.5
			c-6.8-6.8-13.7-13.4-20.6-20.2c-3.8-3.4-9.5-3.7-13.7-0.7c-11,10.3-21.9,20.5-32.7,30.8c-6.9,7.2-17,10.5-26.9,8.8
			c-17.6-2.8-29.7-19.3-26.9-36.9c0.8-5.3,3-10.3,6.2-14.6c4.8-5.7,10-11.1,15.5-16c6.7-6.8,13.5-13.5,20.2-20.3
			c0.5-0.5,1.8-1,0.5-2.1c-7.1-6.8-14.2-13.5-21.4-20.2c-4-3.5-10-3.5-14,0c-9,9-18,17.9-27,26.8c-14.1,13.8-28,27.7-42.1,41.5
			c-8.3,8.1-16.2,16.5-24.8,24.3C1409.8,603.6,1408.2,607,1408.3,610.6z M1523.1,587.2c-0.4,4.3,2.1,8.4,6.2,9.8
			c3.8,1.7,8.4,0.9,11.3-2.1c2.5-2.3,4.9-4.7,7.3-6.9c8.2-7.8,16.1-15.9,24.4-23.4c7.6-6.7,17.8-9.6,27.7-7.6c7.3,1.3,14,5,19,10.5
			c10.3,10.3,20.6,20.4,31,30.6c16.4,16.2,32.8,32.4,49.2,48.7c1.1,1.1,1.8,1.1,3,0c8.6-8.7,17.3-17.4,26-26.1
			c4.9-4.2,5.5-11.5,1.4-16.5c-0.4-0.5-0.9-1-1.5-1.5c-9.7-9.5-19.4-18.9-29.1-28.3c-9-8.8-18-17.5-27-26.2
			c-9.8-9.5-19.6-19.1-29.4-28.5c-7-6.8-14-13.6-21-20.4c-4.2-3.9-10.7-3.9-14.8,0.1c-27,26.9-53.8,53.7-80.7,80.6
			C1524.1,581.9,1523,584.5,1523.1,587.2z M1482.8,647.2c0.1-2.6-0.8-5.1-2.5-7.1c-4.4-3.1-10.3-3.1-14.7,0.1
			c-10.9,10.7-21.7,21.5-32.4,32.4c-3.2,4.3-2.7,10.4,1.2,14c4.9,3,11.1,2.6,15.5-1.1c9.7-9.9,19.5-19.7,29.4-29.4
			C1481.8,653.8,1483,650.6,1482.8,647.2L1482.8,647.2z M1502.3,749.5c3.3,0.1,6.5-1.2,8.7-3.7c9.2-9.2,18.3-18.5,27.7-27.6
			c3.1-2.9,4.6-7,4.2-11.2c0.1-3.5-2.1-6.6-5.4-7.8c-3.6-1.7-7.8-1.2-10.9,1.3c-2.3,2-4.4,4.1-6.5,6.2c-7.9,7.6-15.7,15.2-23.6,22.7
			c-1.5,1.2-2.6,2.7-3.4,4.5C1490.4,740.9,1492.6,749.7,1502.3,749.5L1502.3,749.5z M1514,678.7c0.2-4-2.3-7.7-6.1-9
			c-3.8-1.8-8.4-1.1-11.5,1.8c-10.9,10.7-21.3,21.9-32.6,32.2c-1,0.9-1.8,2.2-2.2,3.5c-0.7,5.4,2.6,10.6,7.8,12.3
			c4.1,1.3,8.7,0.1,11.6-3.1c9.7-9.8,19.5-19.6,29.4-29.4C1512.9,685,1514.2,681.9,1514,678.7L1514,678.7z M1523.1,769.7
			c0,1.2,0.1,2.5,0.4,3.7c2,5.4,8.1,8.2,13.5,6.2c1.6-0.6,3-1.5,4.1-2.7c10-9.9,19.9-19.9,29.9-29.9c4.3-3.9,4.6-10.5,0.7-14.8
			s-10.5-4.6-14.8-0.7c-0.3,0.2-0.5,0.5-0.7,0.7l-30,30C1524.1,764.1,1523,766.9,1523.1,769.7L1523.1,769.7z M1610.8,794.9
			c3,0,5.8-1.3,7.8-3.6c3.7-3.2,4.1-8.8,0.9-12.4c-0.3-0.4-0.7-0.7-1-1c-2.1-1.7-4-3.5-5.9-5.4l-19.2-17.9c-0.9-0.8-1.3-1.1-1.8,0.4
			c-0.7,2.3-1.9,4.4-3.7,6.1c-2.7,2.3-4.7,5.2-7.1,7.6c-1.2,1.2-1.2,2,0,3.2c6.4,6.3,12.7,12.6,19.1,19.1
			C1602.7,793.7,1606.7,795.1,1610.8,794.9z"/>
		<g id="idea" transform="translate(21972.998 -11567.281)">
			<path id="Tracé_2914" class="st5" d="M-20793.9,13872.3c-2-0.6-4-0.9-6.1-1c-22.6-4.8-36.3-18.6-41.9-40.9
				c-0.1-1-0.8-1.9-1.8-2.3c-12.3-4.6-20.3-16.5-20-29.6c0-7.7,0.2-15.5-0.1-23.2c-0.6-17.8-7.5-34.7-19.3-47.9
				c-16.5-17.9-27.2-40.4-30.6-64.5c-5.8-44,7.6-81.4,40.7-111.2c17.4-15.8,39.1-25.9,62.3-29c36.4-6,73.5,4.9,100.9,29.6
				c21.9,18.8,36.2,44.9,40.1,73.5c5.9,35.3-4.4,71.4-27.9,98.3c-9.7,10.8-16.6,23.8-20.1,37.8c-1.3,5.3-1.9,10.7-1.9,16.1
				c0,7.1,0.1,14.3,0,21.4c-0.1,12.6-7.8,23.8-19.5,28.4c-1.2,0.4-2.1,1.4-2.3,2.7c-4.3,20.9-21.1,37.1-42.1,40.7
				c-2.1,0.1-4.3,0.4-6.3,1L-20793.9,13872.3z M-20791.5,13768.6h49.9c1.3,0,2.2,0,2.5-1.8c2.6-20.1,11.2-38.9,24.6-54.1
				c21.3-23.6,30.3-55.9,24.2-87.2c-3.3-19.6-12.6-37.8-26.6-51.9c-23.2-24.6-57-36-90.3-30.6c-18.9,2.4-36.6,10.5-50.9,23.1
				c-26.4,21.9-39.7,55.9-35.3,89.9c1.9,20.5,10.4,39.8,24.1,55.1c13.9,15.3,22.9,34.5,25.7,55c0.3,1.8,0.9,2.4,2.7,2.4
				C-20824.6,13768.6-20808.1,13768.6-20791.5,13768.6L-20791.5,13768.6z M-20791.2,13789h-49.7c-1.8,0-2.3,0.5-2.2,2.3
				c0.2,2.5,0,5.2,0.1,7.8c-0.2,5.6,4.1,10.3,9.7,10.5c0.2,0,0.4,0,0.6,0h82.4c5.6,0.1,10.1-4.4,10.2-9.9c0,0,0-0.1,0-0.1
				c0.1-2.8-0.1-5.6,0.1-8.4c0.1-1.8-0.6-2-2.1-2C-20758.5,13789-20774.9,13789-20791.2,13789z M-20791.6,13830.1h-27.1
				c-1.7,0-1.8,0.4-1.2,1.8c1.8,4.1,4.4,7.9,7.6,11c12.1,11.5,31.3,11.1,42.8-1c2.7-2.8,4.8-6.2,6.3-9.8c0.7-1.6,0.5-2-1.3-2
				C-20773.6,13830.2-20782.6,13830.1-20791.6,13830.1L-20791.6,13830.1z"/>
			<path id="Tracé_2915" class="st5" d="M-20615.9,13656.7c-0.8,2.8-2.6,5.3-5.1,6.9c-1.5,0.9-3.2,1.4-5,1.4
				c-6.9,0-13.9,0.1-20.8,0c-5.3,0-9.7-4-10.3-9.2c-0.4-5,2.7-9.6,7.6-11c1.1-0.3,2.2-0.4,3.3-0.4h19.1c5-0.5,9.5,2.8,10.7,7.6
				c0.1,0.2,0.3,0.3,0.4,0.4C-20615.9,13654-20615.9,13655.4-20615.9,13656.7z"/>
			<path id="Tracé_2916" class="st5" d="M-20964.1,13723.2c0.1-2.4,1.1-4.7,2.9-6.3c4.8-4.9,9.6-9.8,14.5-14.7
				c3.8-4,10.2-4.2,14.3-0.4c0.1,0.1,0.1,0.1,0.2,0.2c4.1,4,4.2,10.5,0.2,14.5c0,0,0,0,0,0c-4.8,5-9.8,9.9-14.7,14.8
				c-2.9,3-7.3,3.9-11.1,2.3C-20961.9,13731.8-20964.4,13727.6-20964.1,13723.2z"/>
			<path id="Tracé_2917" class="st5" d="M-20644,13610.9c-3.9,0-7.5-2.3-9.1-5.9c-2-3.5-1.4-7.9,1.4-10.8
				c5.1-5.4,10.3-10.7,15.7-15.7c4.3-3.7,10.7-3.2,14.4,1.1c3.5,4.1,3.3,10.2-0.6,14c-4.7,4.8-9.6,9.7-14.4,14.4
				C-20638.6,13609.8-20641.2,13610.8-20644,13610.9z"/>
			<path id="Tracé_2918" class="st5" d="M-20643.7,13699.1c2.8,0,5.4,1.1,7.4,3.1c4.7,4.7,9.5,9.4,14.1,14
				c4.1,3.7,4.5,10.1,0.7,14.3c-0.1,0.1-0.3,0.3-0.4,0.4c-4,4.1-10.6,4.1-14.7,0.1c-0.1-0.1-0.1-0.1-0.2-0.2
				c-4.8-4.7-9.6-9.4-14.3-14.2c-3.1-2.9-4-7.4-2.1-11.2C-20651.6,13701.5-20647.8,13699.1-20643.7,13699.1z"/>
			<path id="Tracé_2919" class="st5" d="M-20946.3,13644.5c3.3,0,6.8-0.1,10.1,0c5.7,0,10.3,4.6,10.3,10.2
				c0,5.7-4.6,10.3-10.2,10.3c-6.8,0.1-13.6,0.1-20.4,0c-5.7,0-10.2-4.7-10.2-10.4c0-5.7,4.7-10.2,10.4-10.2
				C-20953,13644.4-20949.7,13644.5-20946.3,13644.5z"/>
			<path id="Tracé_2920" class="st5" d="M-20954.4,13576c2.9-0.2,5.8,0.8,7.9,2.8c4.9,4.9,9.8,9.8,14.7,14.8
				c3.9,4,3.8,10.5-0.3,14.4c0,0,0,0-0.1,0.1c-3.9,3.9-10.3,3.9-14.2,0c0,0,0,0-0.1-0.1c-4.7-4.7-9.5-9.4-14.1-14.1
				c-3.2-2.9-4.1-7.6-2.3-11.6C-20961.5,13578.7-20958.2,13576.2-20954.4,13576z"/>
			<path id="Tracé_2921" class="st5" d="M-20789.4,13562.4c27.9,0.7,53.5,15.6,67.9,39.5c7.9,12.6,12.1,27.1,12.1,42
				c0.4,5.7-3.8,10.6-9.5,11c-5.7,0.4-10.6-3.8-11-9.5c0-0.4,0-0.9,0-1.3c-0.2-28.5-20-53.1-47.8-59.5c-4.6-1-9.3-1.5-14-1.6
				c-5.7-0.1-10.2-4.7-10.2-10.4c0-3.7,2.1-7.1,5.3-8.9C-20794.3,13562.6-20791.8,13562.2-20789.4,13562.4z"/>
		</g>
	</g>
</g>
<g id="Calque_3">
</g>
<g id="Calque_4">
</g>
<g id="Calque_5">
</g>
<g id="Calque_6">
</g>
<g id="Calque_7">
</g>
</svg>
