<?xml version="1.0" encoding="utf-8"?>
<!-- Generator: Adobe Illustrator 25.2.1, SVG Export Plug-In . SVG Version: 6.00 Build 0)  -->
<svg version="1.1" id="Calque_1" xmlns="http://www.w3.org/2000/svg" xmlns:xlink="http://www.w3.org/1999/xlink" x="0px" y="0px"
	 viewBox="0 0 1920 1140" style="enable-background:new 0 0 1920 1140;" xml:space="preserve">
<style type="text/css">
	.st0{fill:#D9D9D9;}
	.st1{fill:#ECF4FD;}
	.st2{fill:#FFFFFF;}
</style>
<g>
	<path class="st0" d="M5653.1,505.6c-90.6,0-164.1,71.9-164.1,160.7v327.4c0,137.5-114.3,249.4-254.7,249.4
		c-140.4,0-254.7-111.9-254.7-249.4l0-74.4l-328.2,74.4c0,314.7,261.4,570.7,582.8,570.7c321.4,0,582.9-256.1,582.9-570.7V666.2
		C5817.2,577.5,5743.7,505.6,5653.1,505.6z"/>
	<path class="st0" d="M6222.5,992.6c27.2-367.4-29.6-742.8-443.2-842.4c107.5,79.2,89.1,268.5-31,325.2
		c207.1,70.9,149.9,349.6,156.6,517.2c-1.9,346.9,302.6,603.4,638.8,570.7L6469,1242C6333.1,1242,6222.5,1130.2,6222.5,992.6z"/>
	<path class="st0" d="M5658.4,176.7c-68.5,0-124.3,56.4-124.3,125.8c0,69.3,55.8,125.7,124.3,125.7c68.5,0,124.3-56.4,124.3-125.7
		C5782.7,233.2,5727,176.7,5658.4,176.7z"/>
</g>
<g>
	<path class="st0" d="M7443.1,1601.6c-90.6,0-164.1,71.9-164.1,160.7v327.4c0,137.5-114.3,249.4-254.7,249.4
		c-140.4,0-254.7-111.9-254.7-249.4l0-74.4l-328.2,74.4c0,314.7,261.4,570.7,582.8,570.7c321.4,0,582.9-256.1,582.9-570.7v-327.4
		C7607.2,1673.5,7533.7,1601.6,7443.1,1601.6z"/>
	<path class="st0" d="M8012.5,2088.6c27.2-367.4-29.6-742.8-443.2-842.4c107.5,79.2,89.1,268.5-31,325.2
		c207.1,70.9,149.9,349.6,156.6,517.2c-1.9,346.9,302.6,603.4,638.8,570.7L8259,2338C8123.1,2338,8012.5,2226.2,8012.5,2088.6z"/>
	<path class="st0" d="M7448.4,1272.7c-68.5,0-124.3,56.4-124.3,125.8c0,69.3,55.8,125.7,124.3,125.7c68.5,0,124.3-56.4,124.3-125.7
		C7572.7,1329.2,7517,1272.7,7448.4,1272.7z"/>
</g>
<g>
	<path class="st0" d="M7443.1,3784.6c-90.6,0-164.1,71.9-164.1,160.7v327.4c0,137.5-114.3,249.4-254.7,249.4
		c-140.4,0-254.7-111.9-254.7-249.4l0-74.4l-328.2,74.4c0,314.7,261.4,570.7,582.8,570.7c321.4,0,582.9-256.1,582.9-570.7v-327.4
		C7607.2,3856.5,7533.7,3784.6,7443.1,3784.6z"/>
	<path class="st0" d="M8012.5,4271.6c27.2-367.4-29.6-742.8-443.2-842.4c107.5,79.2,89.1,268.5-31,325.2
		c207.1,70.9,149.9,349.6,156.6,517.2c-1.9,346.9,302.6,603.4,638.8,570.7L8259,4521C8123.1,4521,8012.5,4409.2,8012.5,4271.6z"/>
	<path class="st0" d="M7448.4,3455.7c-68.5,0-124.3,56.4-124.3,125.8c0,69.3,55.8,125.7,124.3,125.7c68.5,0,124.3-56.4,124.3-125.7
		C7572.7,3512.2,7517,3455.7,7448.4,3455.7z"/>
</g>
<g>
	<path class="st0" d="M5653.1,2697.6c-90.6,0-164.1,71.9-164.1,160.7v327.4c0,137.5-114.3,249.4-254.7,249.4
		c-140.4,0-254.7-111.9-254.7-249.4l0-74.4l-328.2,74.4c0,314.7,261.4,570.7,582.8,570.7c321.4,0,582.9-256.1,582.9-570.7v-327.4
		C5817.2,2769.5,5743.7,2697.6,5653.1,2697.6z"/>
	<path class="st0" d="M6222.5,3184.6c27.2-367.4-29.6-742.8-443.2-842.4c107.5,79.2,89.1,268.5-31,325.2
		c207.1,70.9,149.9,349.6,156.6,517.2c-1.9,346.9,302.6,603.4,638.8,570.7L6469,3434C6333.1,3434,6222.5,3322.2,6222.5,3184.6z"/>
	<path class="st0" d="M5658.4,2368.7c-68.5,0-124.3,56.4-124.3,125.8c0,69.3,55.8,125.7,124.3,125.7c68.5,0,124.3-56.4,124.3-125.7
		C5782.7,2425.2,5727,2368.7,5658.4,2368.7z"/>
</g>
<g>
	<path class="st0" d="M5653.1,4884.6c-90.6,0-164.1,71.9-164.1,160.7v327.4c0,137.5-114.3,249.4-254.7,249.4
		c-140.4,0-254.7-111.9-254.7-249.4l0-74.4l-328.2,74.4c0,314.7,261.4,570.7,582.8,570.7c321.4,0,582.9-256.1,582.9-570.7v-327.4
		C5817.2,4956.5,5743.7,4884.6,5653.1,4884.6z"/>
	<path class="st0" d="M6222.5,5371.6c27.2-367.4-29.6-742.8-443.2-842.4c107.5,79.2,89.1,268.5-31,325.2
		c207.1,70.9,149.9,349.6,156.6,517.2c-1.9,346.9,302.6,603.4,638.8,570.7L6469,5621C6333.1,5621,6222.5,5509.2,6222.5,5371.6z"/>
	<path class="st0" d="M5658.4,4555.7c-68.5,0-124.3,56.4-124.3,125.8c0,69.3,55.8,125.7,124.3,125.7c68.5,0,124.3-56.4,124.3-125.7
		C5782.7,4612.2,5727,4555.7,5658.4,4555.7z"/>
</g>
<g>
	<path class="st0" d="M7443.1,5980.6c-90.6,0-164.1,71.9-164.1,160.7v327.4c0,137.5-114.3,249.4-254.7,249.4
		c-140.4,0-254.7-111.9-254.7-249.4l0-74.4l-328.2,74.4c0,314.7,261.4,570.7,582.8,570.7c321.4,0,582.9-256.1,582.9-570.7v-327.4
		C7607.2,6052.5,7533.7,5980.6,7443.1,5980.6z"/>
	<path class="st0" d="M8012.5,6467.6c27.2-367.4-29.6-742.8-443.2-842.4c107.5,79.2,89.1,268.5-31,325.2
		c207.1,70.9,149.9,349.6,156.6,517.2c-1.9,346.9,302.6,603.4,638.8,570.7L8259,6717C8123.1,6717,8012.5,6605.2,8012.5,6467.6z"/>
	<path class="st0" d="M7448.4,5651.7c-68.5,0-124.3,56.4-124.3,125.8c0,69.3,55.8,125.7,124.3,125.7c68.5,0,124.3-56.4,124.3-125.7
		C7572.7,5708.2,7517,5651.7,7448.4,5651.7z"/>
</g>
<g>
	<path class="st0" d="M7443.1,8163.6c-90.6,0-164.1,71.9-164.1,160.7v327.4c0,137.5-114.3,249.4-254.7,249.4
		c-140.4,0-254.7-111.9-254.7-249.4l0-74.4l-328.2,74.4c0,314.7,261.4,570.7,582.8,570.7c321.4,0,582.9-256.1,582.9-570.7v-327.4
		C7607.2,8235.5,7533.7,8163.6,7443.1,8163.6z"/>
	<path class="st0" d="M8012.5,8650.6c27.2-367.4-29.6-742.8-443.2-842.4c107.5,79.2,89.1,268.5-31,325.2
		c207.1,70.9,149.9,349.6,156.6,517.2c-1.9,346.9,302.6,603.4,638.8,570.7L8259,8900C8123.1,8900,8012.5,8788.2,8012.5,8650.6z"/>
	<path class="st0" d="M7448.4,7834.7c-68.5,0-124.3,56.4-124.3,125.8c0,69.3,55.8,125.7,124.3,125.7c68.5,0,124.3-56.4,124.3-125.7
		C7572.7,7891.2,7517,7834.7,7448.4,7834.7z"/>
</g>
<g>
	<path class="st0" d="M5653.1,7076.6c-90.6,0-164.1,71.9-164.1,160.7v327.4c0,137.5-114.3,249.4-254.7,249.4
		c-140.4,0-254.7-111.9-254.7-249.4l0-74.4l-328.2,74.4c0,314.7,261.4,570.7,582.8,570.7c321.4,0,582.9-256.1,582.9-570.7v-327.4
		C5817.2,7148.5,5743.7,7076.6,5653.1,7076.6z"/>
	<path class="st0" d="M6222.5,7563.6c27.2-367.4-29.6-742.8-443.2-842.4c107.5,79.2,89.1,268.5-31,325.2
		c207.1,70.9,149.9,349.6,156.6,517.2c-1.9,346.9,302.6,603.4,638.8,570.7L6469,7813C6333.1,7813,6222.5,7701.2,6222.5,7563.6z"/>
	<path class="st0" d="M5658.4,6747.7c-68.5,0-124.3,56.4-124.3,125.8c0,69.3,55.8,125.7,124.3,125.7c68.5,0,124.3-56.4,124.3-125.7
		C5782.7,6804.2,5727,6747.7,5658.4,6747.7z"/>
</g>
<rect x="1.7" y="3" class="st1" width="1917" height="1135"/>
<g>
	<path class="st2" d="M509.4,183.3c-45.9,0-83.2,36.5-83.2,81.4v165.9c0,69.7-57.9,126.4-129.1,126.4C225.9,557,168,500.3,168,430.6
		l0-37.7L1.7,430.6c0,159.5,132.5,289.2,295.4,289.2c162.9,0,295.4-129.8,295.4-289.2V264.7C592.5,219.8,555.3,183.3,509.4,183.3z"
		/>
	<path class="st2" d="M797.9,430.1c13.8-186.2-15-376.4-224.6-426.9c54.5,40.1,45.1,136.1-15.7,164.8c105,35.9,76,177.2,79.3,262.1
		C636,605.9,790.3,736,960.7,719.4l-37.9-162.9C854,556.5,797.9,499.8,797.9,430.1z"/>
	<path class="st2" d="M512.1,16.6c-34.7,0-63,28.6-63,63.7c0,35.1,28.3,63.7,63,63.7c34.7,0,63-28.6,63-63.7
		C575,45.2,546.8,16.6,512.1,16.6z"/>
</g>
<g>
	<path class="st2" d="M1468.4,600.3c-45.9,0-83.2,36.5-83.2,81.4v165.9c0,69.7-57.9,126.4-129.1,126.4
		c-71.2,0-129.1-56.7-129.1-126.4l0-37.7l-166.3,37.7c0,159.5,132.5,289.2,295.4,289.2c162.9,0,295.4-129.8,295.4-289.2V681.7
		C1551.5,636.8,1514.3,600.3,1468.4,600.3z"/>
	<path class="st2" d="M1756.9,847.1c13.8-186.2-15-376.4-224.6-426.9c54.5,40.1,45.1,136.1-15.7,164.8c105,35.9,76,177.2,79.3,262.1
		c-1,175.8,153.3,305.8,323.8,289.3l-37.9-162.9C1813,973.5,1756.9,916.8,1756.9,847.1z"/>
	<path class="st2" d="M1471.1,433.6c-34.7,0-63,28.6-63,63.7c0,35.1,28.3,63.7,63,63.7c34.7,0,63-28.6,63-63.7
		C1534,462.2,1505.8,433.6,1471.1,433.6z"/>
</g>
</svg>
