<?xml version="1.0" encoding="utf-8"?>
<!-- Generator: Adobe Illustrator 25.2.1, SVG Export Plug-In . SVG Version: 6.00 Build 0)  -->
<svg version="1.1" xmlns="http://www.w3.org/2000/svg" xmlns:xlink="http://www.w3.org/1999/xlink" x="0px" y="0px"
	 viewBox="0 0 1920 1140" style="enable-background:new 0 0 1920 1140;" xml:space="preserve">
<style type="text/css">
	.st0{fill:#FFFFFF;stroke:#398CAE;stroke-width:40;stroke-miterlimit:4.0009;}
	.st1{fill:#398CAE;}
	.st2{fill:#FFFFFF;stroke:#398CAE;stroke-width:41;stroke-miterlimit:4.0009;}
	.st3{fill:#FFFFFF;}
	.st4{fill:#3A8CAF;}
	.st5{fill:none;stroke:#707070;stroke-width:17;}
	.st6{fill:#CFE3F9;}
	.st7{fill:#47C347;stroke:#707070;stroke-width:9;}
	.st8{fill:#EFC94F;stroke:#707070;stroke-width:9;}
	.st9{fill:none;stroke:#707070;stroke-width:10;stroke-linecap:round;}
	.st10{fill:#E89F94;}
	.st11{fill:none;stroke:#707070;stroke-width:11;stroke-linejoin:round;}
	.st12{enable-background:new    ;}
	.st13{fill:#707070;}
	.st14{fill:#5D5D5D;}
	.st15{fill:#CDE5F7;}
	.st16{fill:#E08A81;}
	.st17{fill:#FDFDFD;}
	.st18{fill:#8DB32B;}
	.st19{fill:#F0BA39;}
	.st20{fill:#ECF4FD;}
	.st21{fill:#6A8194;}
	.st22{fill:#6F8598;}
	.st23{fill:#5EBFBF;}
	.st24{fill:#88D2E6;}
	.st25{fill:#99D4DC;}
	.st26{fill:#6C8396;}
	.st27{fill:#6D8396;}
	.st28{fill:#6B8295;}
	.st29{fill:#6E8497;}
	.st30{fill:#FEFEFE;}
	.st31{fill:#00A4CA;}
	.st32{display:none;}
	.st33{display:inline;fill:#FFFFFF;}
	.st34{display:inline;fill:#00A4CA;}
	.st35{clip-path:url(#SVGID_2_);}
	.st36{fill:#D9D9D9;}
</style>
<g id="Calque_1">
</g>
<g id="Calque_2">
</g>
<g id="Calque_3">
</g>
<g id="Calque_4">
</g>
<g id="Calque_5">
	<rect x="1.2" y="2.9" class="st20" width="1917" height="1135"/>
	<g>
		<path class="st3" d="M508.9,183.2c-45.9,0-83.2,36.5-83.2,81.4v165.9c0,69.7-57.9,126.4-129.1,126.4
			c-71.2,0-129.1-56.7-129.1-126.4l0-37.7L1.2,430.5c0,159.5,132.5,289.2,295.4,289.2C459.5,719.8,592,590,592,430.5V264.6
			C592,219.6,554.8,183.2,508.9,183.2z"/>
		<path class="st3" d="M797.4,430c13.8-186.2-15-376.4-224.6-426.9c54.5,40.1,45.1,136.1-15.7,164.8c105,35.9,76,177.2,79.3,262.1
			c-1,175.8,153.3,305.8,323.8,289.3l-37.9-162.9C853.5,556.4,797.4,499.7,797.4,430z"/>
		<path class="st3" d="M511.6,16.5c-34.7,0-63,28.6-63,63.7c0,35.1,28.3,63.7,63,63.7c34.7,0,63-28.6,63-63.7
			C574.5,45.1,546.3,16.5,511.6,16.5z"/>
	</g>
	<g>
		<path class="st3" d="M1467.9,600.2c-45.9,0-83.2,36.5-83.2,81.4v165.9c0,69.7-57.9,126.4-129.1,126.4
			c-71.2,0-129.1-56.7-129.1-126.4l0-37.7l-166.3,37.7c0,159.5,132.5,289.2,295.4,289.2c162.9,0,295.4-129.8,295.4-289.2V681.6
			C1551,636.6,1513.8,600.2,1467.9,600.2z"/>
		<path class="st3" d="M1756.4,847c13.8-186.2-15-376.4-224.6-426.9c54.5,40.1,45.1,136.1-15.7,164.8c105,35.9,76,177.2,79.3,262.1
			c-1,175.8,153.3,305.8,323.8,289.3l-37.9-162.9C1812.5,973.4,1756.4,916.7,1756.4,847z"/>
		<path class="st3" d="M1470.6,433.5c-34.7,0-63,28.6-63,63.7c0,35.1,28.3,63.7,63,63.7c34.7,0,63-28.6,63-63.7
			C1533.5,462.1,1505.3,433.5,1470.6,433.5z"/>
	</g>
</g>
<g id="Calque_6">
</g>
<g id="Calque_7">
</g>
</svg>
