<?xml version="1.0" encoding="utf-8"?>
<!-- Generator: Adobe Illustrator 25.2.1, SVG Export Plug-In . SVG Version: 6.00 Build 0)  -->
<svg version="1.1" id="Calque_1" xmlns="http://www.w3.org/2000/svg" xmlns:xlink="http://www.w3.org/1999/xlink" x="0px" y="0px"
	 viewBox="0 0 1920 9077" style="enable-background:new 0 0 1920 9077;" xml:space="preserve">
<style type="text/css">
	.st0{fill:#D9D9D9;}
</style>
<g>
	<path class="st0" d="M34.4,358.6c-90.6,0-164.1,71.9-164.1,160.7v327.4c0,137.5-114.3,249.4-254.7,249.4
		c-140.4,0-254.7-111.9-254.7-249.4l0-74.4l-328.2,74.4c0,314.7,261.4,570.7,582.8,570.7c321.4,0,582.9-256.1,582.9-570.7V519.2
		C198.5,430.5,125,358.6,34.4,358.6z"/>
	<path class="st0" d="M603.8,845.6C631,478.2,574.2,102.8,160.6,3.2c107.5,79.2,89.1,268.5-31,325.2
		c207.1,70.9,149.9,349.6,156.6,517.2c-1.9,346.9,302.6,603.4,638.8,570.7L850.2,1095C714.3,1095,603.8,983.2,603.8,845.6z"/>
	<path class="st0" d="M39.7,29.7c-68.5,0-124.3,56.4-124.3,125.8c0,69.3,55.8,125.7,124.3,125.7c68.5,0,124.3-56.4,124.3-125.7
		C164,86.2,108.2,29.7,39.7,29.7z"/>
</g>
<g>
	<path class="st0" d="M1824.4,1454.6c-90.6,0-164.1,71.9-164.1,160.7v327.4c0,137.5-114.3,249.4-254.7,249.4
		c-140.4,0-254.7-111.9-254.7-249.4l0-74.4l-328.2,74.4c0,314.7,261.4,570.7,582.8,570.7c321.4,0,582.9-256.1,582.9-570.7v-327.4
		C1988.5,1526.5,1915,1454.6,1824.4,1454.6z"/>
	<path class="st0" d="M2393.8,1941.6c27.2-367.4-29.6-742.8-443.2-842.4c107.5,79.2,89.1,268.5-31,325.2
		c207.1,70.9,149.9,349.6,156.6,517.2c-1.9,346.9,302.6,603.4,638.8,570.7l-74.8-321.3C2504.3,2191,2393.8,2079.2,2393.8,1941.6z"/>
	<path class="st0" d="M1829.7,1125.7c-68.5,0-124.3,56.4-124.3,125.8c0,69.3,55.8,125.7,124.3,125.7c68.5,0,124.3-56.4,124.3-125.7
		C1954,1182.2,1898.2,1125.7,1829.7,1125.7z"/>
</g>
<g>
	<path class="st0" d="M1824.4,3637.6c-90.6,0-164.1,71.9-164.1,160.7v327.4c0,137.5-114.3,249.4-254.7,249.4
		c-140.4,0-254.7-111.9-254.7-249.4l0-74.4l-328.2,74.4c0,314.7,261.4,570.7,582.8,570.7c321.4,0,582.9-256.1,582.9-570.7v-327.4
		C1988.5,3709.5,1915,3637.6,1824.4,3637.6z"/>
	<path class="st0" d="M2393.8,4124.6c27.2-367.4-29.6-742.8-443.2-842.4c107.5,79.2,89.1,268.5-31,325.2
		c207.1,70.9,149.9,349.6,156.6,517.2c-1.9,346.9,302.6,603.4,638.8,570.7l-74.8-321.3C2504.3,4374,2393.8,4262.2,2393.8,4124.6z"/>
	<path class="st0" d="M1829.7,3308.7c-68.5,0-124.3,56.4-124.3,125.8c0,69.3,55.8,125.7,124.3,125.7c68.5,0,124.3-56.4,124.3-125.7
		C1954,3365.2,1898.2,3308.7,1829.7,3308.7z"/>
</g>
<g>
	<path class="st0" d="M34.4,2550.6c-90.6,0-164.1,71.9-164.1,160.7v327.4c0,137.5-114.3,249.4-254.7,249.4
		c-140.4,0-254.7-111.9-254.7-249.4l0-74.4l-328.2,74.4c0,314.7,261.4,570.7,582.8,570.7c321.4,0,582.9-256.1,582.9-570.7v-327.4
		C198.5,2622.5,125,2550.6,34.4,2550.6z"/>
	<path class="st0" d="M603.8,3037.6c27.2-367.4-29.6-742.8-443.2-842.4c107.5,79.2,89.1,268.5-31,325.2
		c207.1,70.9,149.9,349.6,156.6,517.2c-1.9,346.9,302.6,603.4,638.8,570.7L850.2,3287C714.3,3287,603.8,3175.2,603.8,3037.6z"/>
	<path class="st0" d="M39.7,2221.7c-68.5,0-124.3,56.4-124.3,125.8c0,69.3,55.8,125.7,124.3,125.7c68.5,0,124.3-56.4,124.3-125.7
		C164,2278.2,108.2,2221.7,39.7,2221.7z"/>
</g>
<g>
	<path class="st0" d="M34.4,4737.6c-90.6,0-164.1,71.9-164.1,160.7v327.4c0,137.5-114.3,249.4-254.7,249.4
		c-140.4,0-254.7-111.9-254.7-249.4l0-74.4l-328.2,74.4c0,314.7,261.4,570.7,582.8,570.7c321.4,0,582.9-256.1,582.9-570.7v-327.4
		C198.5,4809.5,125,4737.6,34.4,4737.6z"/>
	<path class="st0" d="M603.8,5224.6c27.2-367.4-29.6-742.8-443.2-842.4c107.5,79.2,89.1,268.5-31,325.2
		c207.1,70.9,149.9,349.6,156.6,517.2c-1.9,346.9,302.6,603.4,638.8,570.7L850.2,5474C714.3,5474,603.8,5362.2,603.8,5224.6z"/>
	<path class="st0" d="M39.7,4408.7c-68.5,0-124.3,56.4-124.3,125.8c0,69.3,55.8,125.7,124.3,125.7c68.5,0,124.3-56.4,124.3-125.7
		C164,4465.2,108.2,4408.7,39.7,4408.7z"/>
</g>
<g>
	<path class="st0" d="M1824.4,5833.6c-90.6,0-164.1,71.9-164.1,160.7v327.4c0,137.5-114.3,249.4-254.7,249.4
		c-140.4,0-254.7-111.9-254.7-249.4l0-74.4l-328.2,74.4c0,314.7,261.4,570.7,582.8,570.7c321.4,0,582.9-256.1,582.9-570.7v-327.4
		C1988.5,5905.5,1915,5833.6,1824.4,5833.6z"/>
	<path class="st0" d="M2393.8,6320.6c27.2-367.4-29.6-742.8-443.2-842.4c107.5,79.2,89.1,268.5-31,325.2
		c207.1,70.9,149.9,349.6,156.6,517.2c-1.9,346.9,302.6,603.4,638.8,570.7l-74.8-321.3C2504.3,6570,2393.8,6458.2,2393.8,6320.6z"/>
	<path class="st0" d="M1829.7,5504.7c-68.5,0-124.3,56.4-124.3,125.8c0,69.3,55.8,125.7,124.3,125.7c68.5,0,124.3-56.4,124.3-125.7
		C1954,5561.2,1898.2,5504.7,1829.7,5504.7z"/>
</g>
<g>
	<path class="st0" d="M1824.4,8016.6c-90.6,0-164.1,71.9-164.1,160.7v327.4c0,137.5-114.3,249.4-254.7,249.4
		c-140.4,0-254.7-111.9-254.7-249.4l0-74.4l-328.2,74.4c0,314.7,261.4,570.7,582.8,570.7c321.4,0,582.9-256.1,582.9-570.7v-327.4
		C1988.5,8088.5,1915,8016.6,1824.4,8016.6z"/>
	<path class="st0" d="M2393.8,8503.6c27.2-367.4-29.6-742.8-443.2-842.4c107.5,79.2,89.1,268.5-31,325.2
		c207.1,70.9,149.9,349.6,156.6,517.2c-1.9,346.9,302.6,603.4,638.8,570.7l-74.8-321.3C2504.3,8753,2393.8,8641.2,2393.8,8503.6z"/>
	<path class="st0" d="M1829.7,7687.7c-68.5,0-124.3,56.4-124.3,125.8c0,69.3,55.8,125.7,124.3,125.7c68.5,0,124.3-56.4,124.3-125.7
		C1954,7744.2,1898.2,7687.7,1829.7,7687.7z"/>
</g>
<g>
	<path class="st0" d="M34.4,6929.6c-90.6,0-164.1,71.9-164.1,160.7v327.4c0,137.5-114.3,249.4-254.7,249.4
		c-140.4,0-254.7-111.9-254.7-249.4l0-74.4l-328.2,74.4c0,314.7,261.4,570.7,582.8,570.7c321.4,0,582.9-256.1,582.9-570.7v-327.4
		C198.5,7001.5,125,6929.6,34.4,6929.6z"/>
	<path class="st0" d="M603.8,7416.6c27.2-367.4-29.6-742.8-443.2-842.4c107.5,79.2,89.1,268.5-31,325.2
		c207.1,70.9,149.9,349.6,156.6,517.2c-1.9,346.9,302.6,603.4,638.8,570.7L850.2,7666C714.3,7666,603.8,7554.2,603.8,7416.6z"/>
	<path class="st0" d="M39.7,6600.7c-68.5,0-124.3,56.4-124.3,125.8c0,69.3,55.8,125.7,124.3,125.7c68.5,0,124.3-56.4,124.3-125.7
		C164,6657.2,108.2,6600.7,39.7,6600.7z"/>
</g>
</svg>
