<?xml version="1.0" standalone="no"?>
<!DOCTYPE svg PUBLIC "-//W3C//DTD SVG 20010904//EN"
 "http://www.w3.org/TR/2001/REC-SVG-20010904/DTD/svg10.dtd">
<svg version="1.0" xmlns="http://www.w3.org/2000/svg"
 width="10223.000000pt" height="2641.000000pt" viewBox="0 0 10223.000000 2641.000000"
 preserveAspectRatio="xMidYMid meet">

<g transform="translate(0.000000,2641.000000) scale(0.100000,-0.100000)"
fill="#000000" stroke="none">
<path d="M18092 25754 c-772 -234 -1384 -884 -1575 -1675 -50 -206 -62 -308
-62 -554 0 -259 13 -368 70 -591 196 -763 770 -1378 1517 -1626 87 -28 160
-49 163 -47 3 3 4 1023 3 2266 l-3 2261 -113 -34z"/>
<path d="M18015 19683 c-471 -107 -867 -289 -1230 -564 -586 -444 -999 -1113
-1125 -1818 -47 -262 -44 -46 -50 -3626 -7 -3652 -3 -3386 -61 -3735 -134
-802 -490 -1566 -1028 -2205 -104 -124 -344 -368 -471 -479 -234 -206 -519
-411 -780 -561 -266 -154 -624 -312 -929 -409 -984 -315 -2089 -298 -3064 48
-1662 590 -2863 2053 -3087 3759 -35 266 -40 425 -40 1211 l0 768 -22 -5 c-13
-3 -1380 -313 -3038 -688 -1658 -375 -3019 -686 -3024 -690 -11 -10 9 -567 29
-819 176 -2171 1009 -4195 2420 -5885 287 -343 748 -820 1080 -1116 1742
-1555 3940 -2509 6270 -2724 385 -35 509 -40 1030 -39 569 0 768 11 1274 69
2098 242 4089 1095 5714 2449 l187 157 0 8454 c0 8046 -1 8455 -17 8454 -10
-1 -27 -3 -38 -6z"/>
</g>
</svg>
