<?xml version="1.0" standalone="no"?>
<!DOCTYPE svg PUBLIC "-//W3C//DTD SVG 20010904//EN"
 "http://www.w3.org/TR/2001/REC-SVG-20010904/DTD/svg10.dtd">
<svg version="1.0" xmlns="http://www.w3.org/2000/svg"
 width="10223.000000pt" height="2641.000000pt" viewBox="0 0 10223.000000 2641.000000"
 preserveAspectRatio="xMidYMid meet">

<g transform="translate(0.000000,2641.000000) scale(0.100000,-0.100000)"
fill="#000000" stroke="none">
<path d="M18160 25773 c-25 -8 -56 -16 -69 -19 -39 -8 -209 -73 -297 -114
-298 -137 -626 -395 -834 -655 -205 -257 -366 -585 -443 -906 -50 -206 -62
-308 -62 -554 0 -259 13 -368 70 -591 124 -482 400 -911 795 -1234 105 -87
296 -207 435 -276 122 -60 438 -174 450 -163 3 3 4 1023 3 2266 l-3 2260 -45
-14z"/>
<path d="M18175 19710 c-16 -7 -17 -9 -3 -9 9 -1 20 4 23 9 7 11 7 11 -20 0z"/>
<path d="M18065 19690 c-12 -4 -41 -11 -66 -14 -109 -15 -353 -89 -524 -161
-889 -368 -1546 -1121 -1774 -2032 -32 -126 -43 -182 -69 -352 -15 -96 -17
-420 -22 -3456 -7 -3651 -3 -3386 -61 -3735 -101 -605 -338 -1211 -676 -1730
-683 -1045 -1759 -1782 -2987 -2044 -321 -69 -555 -95 -906 -103 -284 -6 -467
3 -730 38 -1558 203 -2926 1171 -3623 2565 -222 444 -382 968 -442 1449 -30
244 -33 341 -34 1144 -1 443 -3 806 -4 808 -2 2 -132 -26 -288 -61 -156 -36
-882 -200 -1614 -366 -1480 -335 -1350 -306 -2985 -676 -652 -147 -1187 -269
-1190 -271 -9 -7 4 -604 14 -660 2 -10 7 -70 10 -133 4 -63 9 -122 11 -130 2
-8 7 -55 10 -104 4 -50 8 -97 10 -105 1 -9 6 -43 9 -76 56 -494 185 -1144 327
-1640 385 -1346 1049 -2620 1940 -3722 414 -511 988 -1091 1509 -1524 1611
-1338 3645 -2200 5730 -2429 240 -26 258 -28 365 -35 50 -4 104 -8 120 -10
234 -30 1340 -23 1653 10 20 2 91 9 157 15 913 83 1900 308 2765 630 850 316
1657 737 2403 1251 255 177 744 552 877 674 14 13 40 37 58 53 l32 30 0 8444
c0 6554 3 8447 12 8456 14 14 11 14 -17 2z"/>
<path d="M18118 19693 c7 -3 16 -2 19 1 4 3 -2 6 -13 5 -11 0 -14 -3 -6 -6z"/>
</g>
</svg>
