<?xml version="1.0" encoding="utf-8"?>
<!-- Generator: Adobe Illustrator 25.2.1, SVG Export Plug-In . SVG Version: 6.00 Build 0)  -->
<svg version="1.1" id="Calque_1" xmlns="http://www.w3.org/2000/svg" xmlns:xlink="http://www.w3.org/1999/xlink" x="0px" y="0px"
	 viewBox="0 0 1920 1080" style="enable-background:new 0 0 1920 1080;" xml:space="preserve">
<style type="text/css">
	.st0{fill:#019E4E;}
	.st1{fill:#FCFDFD;}
	.st2{fill:#FCFDFC;}
	.st3{fill:#FBFDFC;}
	.st4{fill:#EDF7F2;}
	.st5{fill:#0CA256;}
	.st6{fill:#0BA155;}
	.st7{fill:#059F51;}
	.st8{fill:#E3F4EB;}
	.st9{fill:#06A052;}
</style>
<g>
	<path class="st0" d="M1399.4,545.4c-1.1,81.7-22.3,161.4-66.6,235.3c-26.1,43.6-59.1,80.6-97.6,113.4
		c-91.7,78-198.4,109.4-317.4,101.2c-83.9-5.8-160.2-34.2-227.3-84.7c-43.1-32.5-80.8-71.2-109.8-117.3
		c-57.6-91.6-81.9-191.5-71.4-299.3c5.3-54,20.3-105.3,43.6-154.5c19.3-40.7,45.2-76.4,74.8-110c49.9-56.7,112.1-94,182.3-120.1
		c90.3-33.5,181.5-33.9,271.9-5.6c69.6,21.8,132.6,57.8,183.6,111.2c32.1,33.6,61.2,69.8,81.8,111.9
		C1382.1,397.9,1398,456.6,1399.4,545.4z M936.2,503.6c-24.9-19.7-46-0.8-49.3,19c-2,12.2,0.3,23.7,9.1,32.7c4,4.1,4,6.5,0.3,10.7
		c-11.7,13-20.2,28.1-27.1,44.1c-13.9,32.4-19.3,66.4-19.8,101.3c-0.1,6.9-0.4,9.7-8.9,7.3c-27-7.6-54.4-8.4-81.4,0.5
		c-14,4.6-28.1,9.9-33.9,25c-7.7,20.1-8.7,41-3,62c0.4,1.6,2.1,3.9,3.3,4c2.5,0.2,3.4-2.5,3.9-4.5c1.8-6.2,3.1-12.6,4.8-18.8
		c4.3-15.6,11.6-28.6,28.3-34.1c15.8-5.3,31.9-5.5,49.7-4.6c-17.2,16.2-36.9,28.6-44.3,51.3c-7,21.7-12.4,43.7-10.5,68.4
		c5.2-3.8,6.7-7.9,8.4-11.8c5.5-12.8,10.9-25.6,16.5-38.3c9.7-22.3,29.8-26.1,52.7-29.6c-14.7,16-26.4,31.3-31.3,50.9
		c-4.7,18.7-13.3,36.6-12.7,57.5c6.3-2.6,7.7-7,9.5-10.8c5.3-11.2,10.7-22.3,15.3-33.8c8.6-21,25.6-30.8,46.3-36.3
		c2.5-0.7,4.4-1.2,6.5,1.3c8,9.5,19.3,13.2,30.7,16.2c33.8,8.8,68,9.6,102.2,2.7c15.8-3.1,31.7-6.5,43.1-19.5
		c2.3-2.6,4.5-0.8,6.8-0.2c20.5,5.3,36.6,15.7,45.1,36.3c5.4,13.1,11.9,25.8,18,38.6c1,2,2.1,5.2,5.2,4.1c2.3-0.8,1.5-3.7,1.5-5.8
		c0-1.2-0.1-2.5-0.4-3.7c-8.1-34-14.4-68.7-41.2-94.6c-0.5-0.5-0.6-1.5-1-2.8c24.5,2.8,45.1,10.1,54.1,35.7c4,11.3,9.1,22.3,14,33.3
		c1.5,3.4,2.4,7.5,7.9,9.3c1.5-23.7-3.7-45.5-10.5-67c-7.3-22.9-27.4-35.3-44.3-51.7c10,0,18.4-0.5,26.7,0.1
		c31.7,2.1,44.4,12.8,52,43c0.9,3.6,2,7.1,3.1,10.7c0.9,3.2,1,8.2,4.8,8.1c4.1-0.2,4.4-5.3,5.1-8.8c2.7-13.2,1.9-26.4,0.3-39.7
		c-2.4-20.3-13.1-33.1-32.3-40c-28.7-10.4-57.6-10.8-86.7-2.8c-7.4,2-9.3,1.2-9.5-6.8c-0.8-54.1-12-105-48.3-147.6
		c-2.7-3.2-1.8-5.1,0.7-7.8c6.2-6.6,8.8-14.8,9.6-23.6c1.4-14.8-6.6-30.1-18.5-35.8c-11.1-5.4-21.4-2.6-33.1,8.9
		c-0.3,0.3-1.1,0.1-2.3,0.2c1.6-19.8,6.4-38.2,17.6-54.9c5.9-8.7,12-16.5,22.7-18.9c5-1.1,8.4-3.3,7.4-8.6
		c-1.1-5.8-5.6-6.6-10.8-5.5c-10.9,2.3-19.2,8.7-26,16.9c-13.2,16.2-20,35.2-23.5,55.6c-2.3,13.4-3.5,26.9-4.1,41.1
		c-2.6-3.1-1.8-6.4-2-9.3c-2-26.4-5.8-52.2-19.3-75.7c-8-14-18.1-24.9-34.4-28.8c-4.9-1.1-9.1,0.3-10.2,5.4c-1.2,5.2,2,7.9,7.1,8.7
		c8.2,1.2,14.4,6.2,18.8,12.6C926.9,462.1,934.8,481.4,936.2,503.6z M671.1,384c-0.4,68.4,55.9,103.3,109.6,75.2
		c25.6-13.4,47.1-32.5,63.1-57c7.5-11.5,12.7-24,15.5-37.5c1.6-7.7-2.7-11.9-10.4-9.8c-6.2,1.7-11,5.7-15.4,10
		c-9.3,9.1-18.6,18.2-27.5,27.6c-8.2,8.7-17.8,11.2-29.4,9.5c-26.2-3.8-41.5-19.3-40.5-43.3c0.8-21.3,6.8-40.8,23.2-55.8
		c9.4-8.6,18.8-17.1,28-25.8c13.1-12.5,17.7-28.6,19-46c0.4-5.5-1.3-6.3-6.3-4.3c-13.8,5.5-27.3,11.5-40.5,18.3
		C699.5,275.7,678.4,329.7,671.1,384z M1238.2,393.4c-0.1-22-7-46.5-17.5-69.5c-24.7-54.5-70.4-80.8-125.3-95.4
		c-5.3-1.4-5,1-4.6,4.5c1.9,18.3,8.8,34.1,23.3,45.9c7.5,6,15,11.9,22.9,17.5c19,13.5,29.4,31.8,33,54.7c3,19.5-3.1,34.8-18.7,43.7
		c-19.9,11.5-34.8,10.6-50.9-2.9c-5-4.2-9.8-8.6-14.7-12.8c-6.8-5.9-13.4-12-21.5-16.2c-4.8-2.5-9.8-4.3-14.7-0.4
		c-5.1,4.1-1.4,8.7,0.1,12.6c16.4,44.4,50.9,70.2,92.9,86.9C1179.2,476.6,1242.3,448.1,1238.2,393.4z M660.8,494.4
		c0.2,26.5,4.9,50.6,29.4,66.8c10,6.6,23.5,8.5,28.1,0.3c7.3-13.2,13.3-27.1,15.3-42.3c0.8-5.8,1.9-12.2-2.1-17.1
		c-15.2-18.3-34-31.1-57.1-37.3c-5.8-1.6-9.4,1-11.2,6.7C660.7,479.1,661.1,486.8,660.8,494.4z M1245.8,494.2
		c-0.3-5.2-0.2-10.5-1.1-15.7c-2.4-14.3-6.6-16.8-20.2-11.7c-17.3,6.5-32.2,16.8-45.4,29.7c-5,4.8-7.2,10.5-6.8,17.5
		c0.9,15.1,5.7,28.9,13,42c7,12.6,14.8,15.3,26.8,7.2c14.8-10,28.6-21.4,30.6-41.4C1243.7,512.6,1245.8,503.6,1245.8,494.2z
		 M795.6,666.3c7.6,0.1,19.7-8.2,22-15c0.9-2.5-0.2-4.1-1.7-5.8c-15.4-17.7-29.8-36.5-47.9-51.6c-13.6-11.4-30.5-14.6-48-11.7
		c-11.4,1.9-16.3,11.8-11.6,22.3c3.7,8.3,9.4,15.3,16.3,21.1c17.8,15,37.2,27.6,58.5,37.1C787.2,664.6,791.2,666.3,795.6,666.3z
		 M1199.4,595.3c-0.3-6.1-4.5-11.7-12.5-12.9c-18.9-2.9-36.6,0.5-51,13.5c-16.5,14.9-30.7,32.2-45.1,49.2c-1.5,1.7-3.5,3-2.1,6.3
		c3.9,9.3,17.5,17.7,26.6,14.1c30.1-12,57.9-27.8,78.5-53.8C1197,607.6,1199.4,602.9,1199.4,595.3z M954.3,289.1
		c27.9,0,49.8-21.8,49.7-49.3c-0.1-28.5-21.5-50.5-49.4-50.8c-28-0.3-50.1,22.2-50.3,51C904.1,267.3,926.4,289.1,954.3,289.1z"/>
	<path class="st1" d="M936.2,503.6c-1.4-22.3-9.3-41.5-21.3-59.1c-4.4-6.4-10.6-11.3-18.8-12.6c-5.1-0.8-8.3-3.4-7.1-8.7
		c1.2-5.1,5.4-6.5,10.2-5.4c16.3,3.8,26.4,14.8,34.4,28.8c13.4,23.5,17.3,49.3,19.3,75.7c0.2,2.9-0.6,6.2,2,9.3
		c0.6-14.1,1.9-27.7,4.1-41.1c3.5-20.4,10.2-39.5,23.5-55.6c6.8-8.2,15.1-14.6,26-16.9c5.3-1.1,9.7-0.3,10.8,5.5
		c1,5.2-2.3,7.4-7.4,8.6c-10.7,2.4-16.9,10.2-22.7,18.9c-11.2,16.7-16,35.1-17.6,54.9c1.2-0.1,2,0.1,2.3-0.2
		c11.7-11.5,22-14.3,33.1-8.9c11.9,5.8,19.9,21.1,18.5,35.8c-0.8,8.8-3.4,17.1-9.6,23.6c-2.5,2.7-3.4,4.6-0.7,7.8
		c36.3,42.6,47.5,93.4,48.3,147.6c0.1,8.1,2.1,8.9,9.5,6.8c29.1-8,58-7.5,86.7,2.8c19.2,6.9,29.8,19.7,32.3,40
		c1.6,13.3,2.4,26.5-0.3,39.7c-0.7,3.5-1,8.6-5.1,8.8c-3.8,0.2-3.8-4.9-4.8-8.1c-1-3.6-2.2-7.1-3.1-10.7c-7.6-30.3-20.3-41-52-43
		c-8.3-0.5-16.7-0.1-26.7-0.1c16.9,16.5,37,28.8,44.3,51.7c6.8,21.5,12,43.3,10.5,67c-5.5-1.8-6.5-5.9-7.9-9.3
		c-4.9-11-10-22-14-33.3c-9-25.6-29.6-32.8-54.1-35.7c0.5,1.3,0.5,2.3,1,2.8c26.7,25.9,33.1,60.6,41.2,94.6c0.3,1.2,0.4,2.5,0.4,3.7
		c0,2.1,0.8,5-1.5,5.8c-3.1,1.1-4.2-2.1-5.2-4.1c-6.2-12.8-12.7-25.5-18-38.6c-8.4-20.6-24.6-31-45.1-36.3c-2.3-0.6-4.5-2.3-6.8,0.2
		c-11.4,13-27.4,16.3-43.1,19.5c-34.2,6.8-68.4,6.1-102.2-2.7c-11.4-3-22.7-6.7-30.7-16.2c-2.1-2.5-4-2-6.5-1.3
		c-20.6,5.4-37.7,15.2-46.3,36.3c-4.7,11.4-10,22.6-15.3,33.8c-1.8,3.8-3.2,8.2-9.5,10.8c-0.6-20.9,8-38.8,12.7-57.5
		c4.9-19.6,16.6-34.9,31.3-50.9c-22.9,3.4-42.9,7.3-52.7,29.6c-5.5,12.7-11,25.5-16.5,38.3c-1.7,3.9-3.1,8-8.4,11.8
		c-1.9-24.7,3.5-46.7,10.5-68.4c7.3-22.7,27-35.1,44.3-51.3c-17.8-1-33.9-0.7-49.7,4.6c-16.6,5.5-24,18.5-28.3,34.1
		c-1.7,6.2-3.1,12.6-4.8,18.8c-0.6,2-1.5,4.7-3.9,4.5c-1.3-0.1-2.9-2.4-3.3-4c-5.7-20.9-4.7-41.8,3-62c5.8-15.1,19.9-20.4,33.9-25
		c27.1-8.8,54.4-8.1,81.4-0.5c8.5,2.4,8.8-0.4,8.9-7.3c0.5-34.9,5.9-69,19.8-101.3c6.9-16,15.4-31.1,27.1-44.1
		c3.7-4.1,3.7-6.6-0.3-10.7c-8.9-9.1-11.2-20.6-9.1-32.7C890.2,502.9,911.3,483.9,936.2,503.6z M925.1,516.9
		c-0.9-5.7-2.2-11.8-9.1-12.1c-6.9-0.3-9.3,5.2-9.5,11.3c-0.1,6.3,1.5,12.3,9.1,12.5C922.8,528.6,924,522.4,925.1,516.9z
		 M1003.3,516.4c-1.1-5.8-2.7-12-9.6-11.7c-7.2,0.3-9.3,6.3-8.9,12.7c0.3,6,2.5,11.5,9.6,11C1001.4,528,1002.3,521.9,1003.3,516.4z"
		/>
	<path class="st2" d="M671.1,384c7.3-54.3,28.4-108.3,88.4-139c13.2-6.8,26.7-12.8,40.5-18.3c5-2,6.7-1.2,6.3,4.3
		c-1.3,17.4-5.9,33.5-19,46c-9.2,8.8-18.6,17.3-28,25.8c-16.4,15-22.4,34.6-23.2,55.8c-0.9,24,14.3,39.5,40.5,43.3
		c11.6,1.7,21.2-0.8,29.4-9.5c8.9-9.5,18.2-18.5,27.5-27.6c4.4-4.3,9.3-8.3,15.4-10c7.7-2.1,12,2.1,10.4,9.8
		c-2.8,13.5-8,26-15.5,37.5c-16,24.6-37.5,43.6-63.1,57C727,487.2,670.7,452.3,671.1,384z"/>
	<path class="st1" d="M1238.2,393.4c4.1,54.6-59,83.2-95.8,68.5c-42-16.7-76.5-42.5-92.9-86.9c-1.5-4-5.2-8.5-0.1-12.6
		c4.9-3.9,9.9-2.1,14.7,0.4c8.1,4.2,14.7,10.3,21.5,16.2c4.9,4.3,9.7,8.6,14.7,12.8c16.1,13.6,31,14.4,50.9,2.9
		c15.6-9,21.7-24.2,18.7-43.7c-3.5-22.9-14-41.2-33-54.7c-7.8-5.6-15.4-11.5-22.9-17.5c-14.5-11.8-21.5-27.6-23.3-45.9
		c-0.4-3.5-0.7-5.9,4.6-4.5c54.9,14.6,100.6,40.9,125.3,95.4C1231.2,347,1238.1,371.4,1238.2,393.4z"/>
	<path class="st3" d="M660.8,494.4c0.3-7.6-0.1-15.4,2.4-22.9c1.8-5.7,5.4-8.2,11.2-6.7c23.1,6.2,42,19.1,57.1,37.3
		c4,4.8,2.9,11.3,2.1,17.1c-2,15.2-8,29.1-15.3,42.3c-4.5,8.2-18.1,6.3-28.1-0.3C665.7,545,661,520.9,660.8,494.4z"/>
	<path class="st2" d="M1245.8,494.2c0,9.3-2.1,18.4-3,27.6c-2,20-15.8,31.4-30.6,41.4c-12.1,8.2-19.8,5.4-26.8-7.2
		c-7.3-13.1-12-27-13-42c-0.4-6.9,1.8-12.6,6.8-17.5c13.2-12.9,28.1-23.2,45.4-29.7c13.6-5.1,17.8-2.6,20.2,11.7
		C1245.6,483.7,1245.4,489,1245.8,494.2z"/>
	<path class="st3" d="M795.6,666.3c-4.4-0.1-8.4-1.7-12.4-3.5c-21.3-9.5-40.7-22-58.5-37.1c-6.9-5.8-12.6-12.9-16.3-21.1
		c-4.7-10.5,0.2-20.5,11.6-22.3c17.5-2.9,34.3,0.3,48,11.7c18.1,15.1,32.5,33.9,47.9,51.6c1.4,1.7,2.6,3.3,1.7,5.8
		C815.2,658.1,803.2,666.5,795.6,666.3z"/>
	<path class="st3" d="M1199.4,595.3c0,7.6-2.4,12.2-5.7,16.4c-20.5,26.1-48.3,41.9-78.5,53.8c-9.1,3.6-22.6-4.8-26.6-14.1
		c-1.4-3.3,0.6-4.6,2.1-6.3c14.5-16.9,28.6-34.2,45.1-49.2c14.4-13,32.2-16.4,51-13.5C1194.9,583.6,1199.1,589.2,1199.4,595.3z"/>
	<path class="st4" d="M954.3,289.1c-27.9,0-50.1-21.8-50-49.1c0.1-28.8,22.3-51.3,50.3-51c27.9,0.3,49.3,22.3,49.4,50.8
		C1004,267.3,982.1,289,954.3,289.1z M997.1,240c0-26-18-44.7-43.1-44.7c-24.8,0-43.2,19.3-43,45c0.1,23.9,19.3,42.9,43.3,42.8
		C978.4,283.1,997.1,264.3,997.1,240z"/>
	<path class="st5" d="M925.1,516.9c-1.1,5.6-2.2,11.7-9.4,11.6c-7.6-0.1-9.2-6.2-9.1-12.5c0.1-6.1,2.6-11.6,9.5-11.3
		C922.9,505,924.2,511.1,925.1,516.9z"/>
	<path class="st6" d="M1003.3,516.4c-1,5.4-1.9,11.6-8.9,12c-7.1,0.4-9.3-5-9.6-11c-0.3-6.4,1.7-12.4,8.9-12.7
		C1000.6,504.5,1002.2,510.6,1003.3,516.4z"/>
	<path class="st7" d="M997.1,240c0,24.2-18.7,43.1-42.8,43.1c-24,0-43.2-18.9-43.3-42.8c-0.1-25.7,18.3-44.9,43-45
		C979,195.3,997.1,214,997.1,240z M980.1,268.5c-4.7-6.8-8.8-12.9-13.1-18.9c-2.4-3.3-4.3-5.6,1.6-8c9-3.7,9.9-11.7,8.5-20.4
		c-1.5-8.8-7.8-11.5-15.3-12.1c-7.1-0.6-14.2-0.2-21.4-0.3c-2.6,0-5.1,0.1-5.1,3.7c0,17.6,0,35.3,0,52.9c0,2.6,1.1,4.1,3.8,4
		c3.2,0,3.2-2.3,3.2-4.5c0-4-0.5-8.1,0.2-12c0.5-3.1-3-8.2,3-9c4.8-0.7,9.7-1.1,12.8,4.6c3.3,5.9,7.6,11.3,11.2,17
		C971.8,269.4,974.7,270.5,980.1,268.5z"/>
	<path class="st8" d="M980.1,268.5c-5.4,2-8.3,0.9-10.7-2.9c-3.6-5.8-7.9-11.1-11.2-17c-3.1-5.7-8-5.3-12.8-4.6c-6,0.9-2.5,6-3,9
		c-0.6,3.9-0.1,8-0.2,12c0,2.2,0,4.5-3.2,4.5c-2.8,0-3.8-1.5-3.8-4c0-17.6,0-35.3,0-52.9c0-3.6,2.5-3.7,5.1-3.7
		c7.1,0.1,14.3-0.3,21.4,0.3c7.5,0.6,13.9,3.3,15.3,12.1c1.5,8.7,0.5,16.6-8.5,20.4c-5.9,2.4-3.9,4.7-1.6,8
		C971.3,255.5,975.4,261.6,980.1,268.5z M942.3,225.4c0.4,12.9-2.5,11.8,11.3,11.9c2.2,0,4.3,0,6.5-0.3c9.4-1.1,12.8-6.8,9.2-15.5
		c-2.3-5.7-12.2-8.6-22.9-6.6C938.5,216.4,944.3,222.6,942.3,225.4z"/>
	<path class="st9" d="M942.3,225.4c2-2.8-3.8-9.1,4-10.5c10.8-2,20.6,0.9,22.9,6.6c3.6,8.8,0.2,14.5-9.2,15.5
		c-2.1,0.2-4.3,0.3-6.5,0.3C939.8,237.3,942.7,238.3,942.3,225.4z"/>
</g>
</svg>
