<?xml version="1.0" encoding="utf-8"?>
<!-- Generator: Adobe Illustrator 25.2.1, SVG Export Plug-In . SVG Version: 6.00 Build 0)  -->
<svg version="1.1" id="Calque_1" xmlns="http://www.w3.org/2000/svg" xmlns:xlink="http://www.w3.org/1999/xlink" x="0px" y="0px"
	 viewBox="0 0 1920 1080" style="enable-background:new 0 0 1920 1080;" xml:space="preserve">
<style type="text/css">
	.st0{fill:#00A1E0;}
	.st1{fill:#FBFEFE;}
	.st2{fill:#FCFEFE;}
	.st3{fill:#FAFDFD;}
	.st4{fill:#07A4E1;}
	.st5{fill:#06A3E1;}
	.st6{fill:#04A2E0;}
	.st7{fill:#03A2E0;}
</style>
<g>
	<path class="st0" d="M164.9,670c0.1-14.4,0.2-28.9,0.3-43.3c0-4.6-0.2-9.2-0.3-13.8c5.9-52.6,26.6-98.6,61.4-138.4
		c16.3-18.6,35.2-34.3,56.2-47.4c4.2-2.6,4.2-2.7,2.4-7.2c-15-36.3-22.5-74-21.7-113.2c1.5-75.7,28.1-141.3,80.5-196
		c43.6-45.5,96.7-74,158.8-84c86.7-14,164.7,7,233,62.5c15.4,12.5,29,26.8,41.3,42.4c0.9,1.2,1.5,2.7,3.2,3.3
		c1.8-0.5,2.7-2.1,3.9-3.3c38.5-38.2,84.2-63.2,137.6-72.4c80.9-13.8,153.1,6.1,216,59c22.9,19.2,41.5,42.2,56.7,67.9
		c3.1,5.3,2.7,4.4,7.6,2.3c31.4-13.3,64.1-21.4,98.1-24.2c125.6-10.5,243.1,54.2,304,162.1c20.6,36.5,34.1,75.5,38.9,117.1
		c11.7,101.7-16.5,190.9-86.7,265.7c-47.4,50.6-106,81.6-174.2,94.1c-37.9,6.9-75.8,6.7-113.7-0.4c-5.4-1-5.3-1-8.2,3.7
		c-35.9,58.7-87.3,96.1-154.6,110.4c-49.2,10.4-97,4.5-142.9-16c-5.8-2.6-5.7-2.5-8.3,2.8c-37.7,78.7-98.6,129.1-183.4,150.1
		c-9.6,2.4-19.3,3.6-29.3,3.5c-17.8-0.3-35.6-0.6-53.4,0.1c-18.5,0.7-36.2-2.7-53.6-8.3c-81.3-26-138-78.7-170.8-157.5
		c-0.2-0.5-0.5-1.1-0.6-1.6c-0.7-2.9-2-3.9-5.4-3.2c-14.2,3-28.7,4.4-43.2,4.6c-36.9,0.4-72.5-6.3-105.8-22.4
		c-76.8-37.1-123.6-97.8-140.9-181.3C166.3,681.9,165.4,676,164.9,670z M1001.3,441.6c0.4-6.8,1.9-13,4.3-18.9
		c3.6-9,10.2-14.3,20.4-14.5c4.3-0.1,8.5,0.3,12.6,1.4c2.4,0.7,4.1,0.1,4.9-2.5c1.8-5.1,3.7-10.2,5.6-15.3c0.9-2.5,0.2-4-2.5-4.8
		c-4.9-1.5-9.8-2.3-14.8-2.5c-25.6-1-43.1,8-52.6,32.9c-2.5,6.5-4,13.3-5.2,20.2c-0.8,4.5-0.8,4.5-5.5,4.6c-4.1,0-8.1,0-12.2,0
		c-4.6,0.1-4.9,0.3-5.8,4.7c-0.9,4.4-1.6,8.7-2.4,13.1c-0.8,4.9-0.5,5.3,4.4,5.4c5.4,0.1,10.8,0,15.9,0c0.8,1.4,0.5,2.3,0.3,3.3
		c-2.5,14.1-5,28.2-7.5,42.2c-4.2,23.4-8.4,46.8-12.8,70.2c-1.3,7.2-3.6,14.2-6.8,20.9c-3.8,8-10.2,11.7-19,11.9
		c-4.1,0.1-8.1-0.4-12-1.8c-2.6-0.9-4-0.1-4.9,2.3c-1.6,4.5-3.3,9.1-5,13.6c-1.7,4.8-1.5,5.3,3.6,6.9c9.6,3,19.4,2.9,29.3,1.5
		c14.4-2.1,24.3-10.2,31.4-22.4c1.7-3,3.1-6.2,4.4-9.5c3.9-9.5,6.1-19.6,7.9-29.6c6.3-35,12.4-70,18.6-105.1
		c0.8-4.4,0.8-4.5,5.6-4.5c7,0,13.9,0,20.9,0c4.8,0,5.1-0.4,6-5.1c0.7-4,1.5-8,2.2-12c0.9-5.3,0.3-6-5.2-6.1c-6-0.1-12,0-18,0
		C1005.5,442.3,1003.5,442.7,1001.3,441.6z M1449.7,516.5C1449.7,516.5,1449.7,516.5,1449.7,516.5c12.6,0,25.1,0,37.7,0
		c6.9,0,7,0,7.6-7c1-12.3,0-24.5-4.5-36c-6.5-16.5-18.1-27.6-35.6-32c-6.6-1.7-13.4-1.9-20.2-1.7c-26,1-46.5,16.6-54.3,41.5
		c-4.4,13.9-5.1,28.1-3.4,42.5c3.4,27.9,20.4,47.2,47.1,52.9c13.2,2.8,26.5,2.6,39.8,0.8c7.1-0.9,14.1-2.6,20.7-5.4
		c5.7-2.4,5.9-2.9,3.9-8.6c-1.2-3.3-2.3-6.6-3.5-9.8c-2-5.6-2.2-5.7-7.9-3.6c-12.4,4.6-25.3,5.7-38.3,4.6
		c-16.7-1.3-27.7-10.4-31.3-25.5c-0.6-2.4-1-4.9-1.3-7.4c-0.6-5.1-0.5-5.3,4.6-5.3C1423.8,516.5,1436.7,516.5,1449.7,516.5z
		 M761.8,516.5C761.8,516.5,761.8,516.5,761.8,516.5c13.2,0,26.3,0.1,39.5,0c4.6,0,4.9-0.3,5.4-4.8c1.5-11.5,0.6-22.9-2.8-33.9
		c-5.8-19-18.1-31.7-37.7-36.5c-6.5-1.6-13-1.7-19.6-1.5c-25.8,1-46.1,16.5-54,41.1c-4.6,14.5-5.3,29.2-3.3,44.2
		c3.8,27.3,20.9,46.1,47.2,51.6c13,2.7,26.2,2.5,39.3,0.8c7.9-1,15.6-2.8,22.8-6.4c3.6-1.8,3.7-2.2,2.5-5.8c-1.3-3.9-2.7-7.7-4-11.5
		c-2-5.6-2.3-5.8-7.9-3.7c-12.4,4.7-25.3,6-38.3,4.6c-22.4-2.3-31.1-15-32.7-34c-0.3-4.1-0.2-4.2,4-4.2
		C735.5,516.4,748.6,516.5,761.8,516.5z M608.3,523.3c-0.1,0-0.2,0-0.3,0c0-13.7,0.5-27.5-0.1-41.2c-1-22.9-14.1-37.5-36.7-41.1
		c-19.5-3.1-38.5-1.1-57,5.9c-2.3,0.9-4.5,2.1-6.8,3.3c-2.4,1.3-3.3,3-2.1,5.7c1.7,4.1,3.1,8.3,4.7,12.5c1.8,4.7,2.1,4.9,6.6,2.7
		c9.5-4.7,19.7-6.8,30.1-7.8c7-0.6,13.9-0.4,20.6,2c7.2,2.5,11.7,7.3,12.8,15c0.2,1.7,0.6,3.4,0.7,5.2c0.5,7.2,0.4,7.5-6.6,6.4
		c-9-1.4-18.1-1.4-27.2-1.1c-7.4,0.3-14.5,1.9-21.4,4.6c-14.9,5.7-29.5,19-28.4,42.7c0.8,18.1,10.2,31.1,27.6,36.7
		c7.2,2.3,14.7,3.2,22.3,3.5c18.9,0.8,37.4-2.5,55.6-6.9c5.4-1.3,5.5-1.4,5.5-6.9C608.3,550.8,608.3,537,608.3,523.3z M1033.1,510.3
		c-0.3,5.1,0.4,10.8,1.4,16.6c2.2,12.6,6.7,24.3,15.5,33.8c10.8,11.7,24.6,17.1,40.3,18.1c29.8,1.8,54.7-12.3,63.3-43.1
		c5.1-18.3,4.9-36.8-0.8-55c-5.9-19-18.5-31.9-37.6-38.1c-8.8-2.8-17.9-3.5-27-2.5c-24.9,2.6-42,15.5-50.5,39.2
		C1034.2,489,1032.9,499.2,1033.1,510.3z M877.6,439.2c-3.7,0.2-7.4,0.2-11,0.7c-9,1.1-17.2,4.3-24.5,9.7
		c-17.9,13.4-22.9,48.1,4.9,62.2c5.7,2.9,11.6,5.2,17.7,7.1c6.3,1.9,12.6,3.9,18.8,6c4,1.4,8,3,11.3,5.8c4.7,3.9,5.9,8.9,3.8,14.6
		c-1.6,4.5-4.8,7.4-9.1,9.2c-4.7,2-9.7,2.4-14.8,2.2c-13.5-0.6-25.8-4.7-37.1-12c-0.8-0.5-1.6-1.1-2.5-1.5c-3.4-1.8-4.3-1.6-5.7,1.9
		c-1.6,4.1-3.1,8.3-4.5,12.5c-1.8,5.2-1.7,5.5,3,8.4c19.7,12,41,15.9,63.6,11.9c17.3-3.1,30.1-12.4,34-30.6
		c3.9-17.9-0.9-30.9-17.1-40.5c-5.5-3.3-11.5-5.6-17.5-7.7c-6-2-12.1-3.9-18.1-6.1c-4.6-1.6-9.1-3.4-12.9-6.4
		c-6.7-5.3-6.7-14.6-0.1-20c2.4-2,5.3-3,8.4-3.8c6.6-1.6,13.1-0.3,19.6,0.8c8,1.4,15.7,3.9,23.1,7.5c4.7,2.3,5.2,2,7.1-3
		c1.3-3.4,2.5-6.9,3.8-10.4c1.9-5.4,1.8-5.8-3.4-8.6C905.6,442.5,892,439.4,877.6,439.2z M432.2,439.8c-3.3,0-6.6-0.3-9.9,0.1
		c-13.2,1.6-24.7,6.6-32.6,17.7c-13.5,18.8-7.9,43.1,12.2,54.2c5.4,3,11.3,5.1,17.2,7c6.3,2,12.6,3.9,18.8,6
		c3.7,1.2,7.3,2.7,10.5,4.9c7.3,5,8.3,14,2.4,20.6c-2,2.2-4.4,3.8-7.2,4.8c-4.1,1.5-8.3,2-12.5,1.9c-13.2-0.5-25.5-4.1-36.8-11.2
		c-1.3-0.8-2.6-1.7-4-2.4c-3.6-2-4.3-1.8-5.9,2.2c-1.5,4-2.9,8-4.3,12c-1.9,5.5-1.8,5.6,3.2,8.7c17.5,10.8,36.6,14.3,56.8,12.7
		c9.3-0.7,18.1-3.7,26-9c17.9-12.1,24.7-48.5-2.5-63c-5-2.6-10-5.1-15.3-6.9c-6.8-2.3-13.6-4.5-20.3-6.9c-4.6-1.6-9.1-3.4-13-6.4
		c-7-5.5-6.9-15,0.2-20.4c2.3-1.8,5-2.8,7.9-3.5c6.4-1.5,12.7-0.4,19,0.6c8.6,1.4,16.9,4.2,24.7,8c3.5,1.7,4.2,1.4,5.6-2.2
		c1.5-3.8,2.9-7.6,4.3-11.4c2-5.5,1.9-5.9-3.2-8.6C460.6,442.5,446.8,439.2,432.2,439.8z M1331.2,439.7c-1.8,0-4.2-0.1-6.5,0
		c-27.6,1-49.1,17.5-56.9,44c-5.1,17.3-5.1,34.8,0.1,52.1c6.6,21.8,20.9,35.7,43.4,40.7c11.3,2.5,22.7,2.4,34.1,1
		c6.7-0.8,13.3-2.4,19.7-4.7c2.8-1,3.7-2.5,2.6-5.3c-1.7-4.5-3.2-9.1-5-13.6c-1.6-4.2-1.9-4.3-6.5-2.8c-8.4,2.8-17,3.8-25.7,3.4
		c-18.3-0.7-30.7-10.2-35.2-27.3c-3.2-12-3.2-24.2,0.1-36.2c5.3-19.4,17.2-28.2,37.3-28c7.4,0.1,14.6,1,21.8,2.9
		c5.4,1.5,5.4,1.4,7.4-4c1.3-3.6,2.6-7.3,3.9-10.9c1.8-5.2,1.6-5.7-3.8-7.3C1352.1,440.8,1342,439.4,1331.2,439.7z M664,481.6
		c0-22.6,0-45.3,0-67.9c0-6.8,0-13.5,0-20.3c0-5.9-0.1-5.9-5.7-6c-4.6,0-9.3,0-13.9,0c-8.1,0-8.1,0-8.1,7.8c0,57.7,0,115.3,0,173
		c0,1.2,0,2.3,0,3.5c0,2.8,1,4.3,4.1,4.3c6.6-0.1,13.2-0.1,19.7,0c2.7,0,4-1.1,3.9-3.8c0-1.4,0-2.7,0-4.1
		C664,539.3,664,510.4,664,481.6z M1206.2,453.2c0-2.1,0.1-4.4,0-6.6c-0.2-3.7-0.7-4.3-4.5-4.3c-6-0.1-12-0.1-18,0
		c-3.8,0.1-4.2,0.6-4.3,4.5c0,1,0,1.9,0,2.9c0,39.5,0,78.9,0,118.4c0,1.4,0,2.7,0,4.1c0,2.4,1.4,3.5,3.7,3.5c6.8,0,13.5,0,20.3,0
		c2.6,0,3.8-1.5,3.8-4c0-1.4,0-2.7,0-4.1c0-19.7,0-39.5,0-59.2c0-5.8,0.3-11.6,1.4-17.3c2.8-14.5,11.7-23.3,25.8-25.3
		c4-0.6,8.1-0.4,12.1,0.4c4.1,0.8,4.7,0.5,6.2-3.2c2-5,3.7-10.2,5.5-15.3c1-2.6,0.1-4.1-2.6-4.6c-2.8-0.5-5.7-1.2-8.5-1.6
		c-13.9-1.9-26.5,0.9-37.4,10.2C1208.8,452.3,1208.3,453.6,1206.2,453.2z"/>
	<path class="st1" d="M1001.3,441.6c2.2,1,4.2,0.6,6.1,0.7c6,0.1,12,0,18,0c5.6,0,6.1,0.7,5.2,6.1c-0.7,4-1.4,8-2.2,12
		c-0.9,4.7-1.2,5.1-6,5.1c-7,0.1-13.9,0-20.9,0c-4.8,0-4.8,0.1-5.6,4.5c-6.2,35-12.3,70.1-18.6,105.1c-1.8,10.1-4,20.1-7.9,29.6
		c-1.3,3.2-2.7,6.5-4.4,9.5c-7,12.2-17,20.3-31.4,22.4c-9.9,1.4-19.6,1.6-29.3-1.5c-5.1-1.6-5.4-2.1-3.6-6.9c1.6-4.6,3.3-9.1,5-13.6
		c0.9-2.4,2.4-3.3,4.9-2.3c3.8,1.4,7.9,1.9,12,1.8c8.7-0.2,15.1-3.9,19-11.9c3.2-6.7,5.4-13.7,6.8-20.9c4.3-23.4,8.5-46.8,12.8-70.2
		c2.5-14.1,5-28.2,7.5-42.2c0.2-0.9,0.5-1.9-0.3-3.3c-5.1,0-10.5,0.1-15.9,0c-5-0.1-5.3-0.5-4.4-5.4c0.7-4.4,1.5-8.8,2.4-13.1
		c0.9-4.4,1.2-4.6,5.8-4.7c4.1-0.1,8.1,0,12.2,0c4.7,0,4.7-0.1,5.5-4.6c1.2-6.9,2.7-13.6,5.2-20.2c9.5-25,27-33.9,52.6-32.9
		c5,0.2,10,1,14.8,2.5c2.6,0.8,3.4,2.3,2.5,4.8c-1.9,5.1-3.8,10.1-5.6,15.3c-0.9,2.6-2.5,3.2-4.9,2.5c-4.1-1.1-8.3-1.5-12.6-1.4
		c-10.1,0.2-16.7,5.5-20.4,14.5C1003.2,428.6,1001.7,434.9,1001.3,441.6z"/>
	<path class="st1" d="M1449.7,516.5c-13,0-25.9,0-38.9,0c-5,0-5.2,0.2-4.6,5.3c0.3,2.5,0.7,5,1.3,7.4c3.6,15.1,14.6,24.2,31.3,25.5
		c13,1,25.9,0,38.3-4.6c5.7-2.2,5.9-2,7.9,3.6c1.2,3.3,2.4,6.5,3.5,9.8c2,5.7,1.8,6.1-3.9,8.6c-6.6,2.8-13.6,4.5-20.7,5.4
		c-13.3,1.7-26.6,2-39.8-0.8c-26.6-5.7-43.7-25.1-47.1-52.9c-1.7-14.4-1-28.6,3.4-42.5c7.8-24.9,28.3-40.4,54.3-41.5
		c6.8-0.3,13.5,0,20.2,1.7c17.5,4.4,29.1,15.5,35.6,32c4.5,11.5,5.5,23.7,4.5,36c-0.6,7-0.7,7-7.6,7
		C1474.9,516.5,1462.3,516.5,1449.7,516.5C1449.7,516.5,1449.7,516.5,1449.7,516.5z M1406.5,494.6c2.1,1.3,4.1,0.7,6,0.8
		c13.5,0,27,0,40.5,0c3.7,0,7.3-0.1,11,0c2.8,0.1,3.9-1,3.3-3.8c-0.8-4.2-1.5-8.3-3.1-12.3c-9.3-22.2-38.7-20.3-48.8-7.4
		C1410.2,478.7,1407.5,486.3,1406.5,494.6z"/>
	<path class="st1" d="M761.8,516.5c-13.2,0-26.3,0-39.5,0c-4.2,0-4.4,0.1-4,4.2c1.6,19,10.3,31.7,32.7,34c13,1.3,25.9,0,38.3-4.6
		c5.6-2.1,5.8-1.9,7.9,3.7c1.4,3.8,2.8,7.6,4,11.5c1.2,3.7,1,4.1-2.5,5.8c-7.2,3.5-14.9,5.3-22.8,6.4c-13.1,1.7-26.3,1.9-39.3-0.8
		c-26.3-5.4-43.4-24.3-47.2-51.6c-2.1-15-1.3-29.7,3.3-44.2c7.9-24.7,28.1-40.1,54-41.1c6.6-0.3,13.2-0.1,19.6,1.5
		c19.7,4.8,31.9,17.5,37.7,36.5c3.4,11,4.2,22.4,2.8,33.9c-0.6,4.5-0.8,4.8-5.4,4.8C788.1,516.5,775,516.5,761.8,516.5
		C761.8,516.5,761.8,516.5,761.8,516.5z M749.1,495.3c9.1,0,18.1,0,27.2,0c2.5,0,3.6-0.7,3.1-3.4c-0.5-2.1-0.6-4.2-1.1-6.3
		c-3.3-14-12.1-21.8-26-23.1c-13.7-1.2-24.4,5.1-30,17.9c-1.5,3.4-2.5,6.9-3.2,10.5c-0.7,4.2-0.8,4.3,3.3,4.3
		C731.3,495.4,740.2,495.3,749.1,495.3z"/>
	<path class="st2" d="M608.3,523.3c0,13.7,0,27.5,0,41.2c0,5.5,0,5.6-5.5,6.9c-18.3,4.3-36.7,7.7-55.6,6.9c-7.6-0.3-15-1.2-22.3-3.5
		c-17.3-5.6-26.8-18.6-27.6-36.7c-1.1-23.7,13.6-37,28.4-42.7c6.9-2.6,14-4.3,21.4-4.6c9.1-0.3,18.2-0.3,27.2,1.1
		c7,1,7.1,0.8,6.6-6.4c-0.1-1.7-0.5-3.4-0.7-5.2c-1-7.7-5.6-12.5-12.8-15c-6.7-2.4-13.7-2.6-20.6-2c-10.4,0.9-20.6,3-30.1,7.8
		c-4.5,2.3-4.8,2.1-6.6-2.7c-1.6-4.1-3-8.4-4.7-12.5c-1.2-2.8-0.3-4.5,2.1-5.7c2.2-1.2,4.4-2.4,6.8-3.3c18.5-7,37.5-9.1,57-5.9
		c22.6,3.6,35.7,18.2,36.7,41.1c0.6,13.7,0.1,27.5,0.1,41.2C608.1,523.3,608.2,523.3,608.3,523.3z M581.1,534.5c0-5.2,0-10.5,0-15.7
		c0-4.4,0-4.6-4.2-5.1c-7.5-1-15-1.9-22.6-1.5c-6.6,0.3-13.1,1.4-19,4.6c-8.5,4.6-10.6,12.2-10,21.1c0.5,8.2,5.1,13.1,12.4,15.9
		c3.5,1.3,7,2.1,10.7,2.3c9.9,0.6,19.7-0.6,29.4-2.3c2.8-0.5,3.4-1.8,3.3-4.3C581,544.6,581.1,539.6,581.1,534.5z"/>
	<path class="st2" d="M1033.1,510.3c-0.2-11.1,1.1-21.3,4.6-31c8.5-23.7,25.6-36.6,50.5-39.2c9.1-0.9,18.2-0.3,27,2.5
		c19.1,6.1,31.6,19,37.6,38.1c5.7,18.2,5.9,36.7,0.8,55c-8.6,30.8-33.5,44.9-63.3,43.1c-15.7-0.9-29.4-6.4-40.3-18.1
		c-8.9-9.6-13.3-21.2-15.5-33.8C1033.4,521.1,1032.8,515.4,1033.1,510.3z M1128,509.7c-0.4-9.8-1-19.4-4.9-28.5
		c-5.5-12.8-14.7-18.4-29.5-18.1c-13.2,0.3-22,6.6-26.9,19.3c-2.5,6.4-3.5,13.1-4.1,19.8c-0.9,11.7,0,23.2,4.1,34.3
		c2.6,7.1,6.7,13,13.8,16.5c17.3,8.5,36.5,0.9,43.3-17.2C1127,527.4,1127.6,518.5,1128,509.7z"/>
	<path class="st1" d="M877.6,439.2c14.4,0.2,28,3.3,40.7,10c5.2,2.8,5.3,3.2,3.4,8.6c-1.2,3.5-2.5,6.9-3.8,10.4
		c-1.9,5-2.4,5.2-7.1,3c-7.4-3.6-15.1-6.1-23.1-7.5c-6.5-1.1-13-2.4-19.6-0.8c-3.1,0.7-5.9,1.8-8.4,3.8c-6.7,5.4-6.6,14.7,0.1,20
		c3.8,3.1,8.4,4.8,12.9,6.4c6,2.1,12.1,4,18.1,6.1c6.1,2,12,4.4,17.5,7.7c16.2,9.6,21,22.5,17.1,40.5c-3.9,18.1-16.7,27.5-34,30.6
		c-22.5,4-43.9,0.1-63.6-11.9c-4.7-2.9-4.8-3.2-3-8.4c1.5-4.2,2.9-8.4,4.5-12.5c1.4-3.5,2.3-3.7,5.7-1.9c0.9,0.5,1.7,1,2.5,1.5
		c11.3,7.3,23.6,11.4,37.1,12c5.1,0.2,10.1-0.2,14.8-2.2c4.2-1.8,7.5-4.8,9.1-9.2c2.1-5.7,0.8-10.7-3.8-14.6
		c-3.3-2.8-7.3-4.4-11.3-5.8c-6.2-2.1-12.5-4-18.8-6c-6.1-1.9-12-4.2-17.7-7.1c-27.7-14.1-22.8-48.7-4.9-62.2
		c7.3-5.5,15.5-8.7,24.5-9.7C870.2,439.5,873.9,439.4,877.6,439.2z"/>
	<path class="st1" d="M432.2,439.8c14.6-0.6,28.4,2.7,41.3,9.5c5.1,2.7,5.2,3.2,3.2,8.6c-1.4,3.8-2.8,7.6-4.3,11.4
		c-1.4,3.6-2.1,3.9-5.6,2.2c-7.9-3.9-16.1-6.6-24.7-8c-6.3-1-12.6-2.1-19-0.6c-2.9,0.7-5.5,1.7-7.9,3.5c-7,5.4-7.2,14.9-0.2,20.4
		c3.9,3,8.4,4.8,13,6.4c6.7,2.4,13.6,4.6,20.3,6.9c5.3,1.8,10.3,4.2,15.3,6.9c27.3,14.5,20.5,50.9,2.5,63c-7.9,5.3-16.7,8.3-26,9
		c-20.2,1.6-39.3-2-56.8-12.7c-5.1-3.1-5.1-3.3-3.2-8.7c1.4-4,2.8-8,4.3-12c1.6-4.1,2.3-4.3,5.9-2.2c1.4,0.8,2.6,1.6,4,2.4
		c11.2,7.1,23.5,10.6,36.8,11.2c4.3,0.2,8.5-0.4,12.5-1.9c2.8-1,5.2-2.6,7.2-4.8c5.9-6.6,4.9-15.5-2.4-20.6
		c-3.2-2.2-6.8-3.7-10.5-4.9c-6.2-2.1-12.5-4-18.8-6c-5.9-1.9-11.7-4-17.2-7c-20.2-11.1-25.7-35.4-12.2-54.2
		c8-11.1,19.4-16.2,32.6-17.7C425.6,439.5,428.9,439.8,432.2,439.8z"/>
	<path class="st2" d="M1331.2,439.7c10.8-0.3,20.9,1.2,30.8,4.2c5.4,1.7,5.6,2.2,3.8,7.3c-1.3,3.7-2.6,7.3-3.9,10.9
		c-2,5.5-2,5.5-7.4,4c-7.1-1.9-14.4-2.9-21.8-2.9c-20.1-0.2-32,8.7-37.3,28c-3.3,12-3.3,24.2-0.1,36.2c4.5,17.1,17,26.6,35.2,27.3
		c8.8,0.3,17.4-0.6,25.7-3.4c4.6-1.5,4.9-1.4,6.5,2.8c1.8,4.5,3.3,9.1,5,13.6c1.1,2.8,0.2,4.3-2.6,5.3c-6.4,2.2-13,3.8-19.7,4.7
		c-11.4,1.4-22.8,1.5-34.1-1c-22.5-5-36.8-18.9-43.4-40.7c-5.2-17.3-5.2-34.8-0.1-52.1c7.8-26.5,29.3-43.1,56.9-44
		C1327,439.6,1329.3,439.7,1331.2,439.7z"/>
	<path class="st3" d="M664,481.6c0,28.8,0,57.7,0,86.5c0,1.4,0,2.7,0,4.1c0.1,2.7-1.2,3.8-3.9,3.8c-6.6-0.1-13.2-0.1-19.7,0
		c-3.1,0-4.1-1.5-4.1-4.3c0-1.2,0-2.3,0-3.5c0-57.7,0-115.3,0-173c0-7.8,0-7.8,8.1-7.8c4.6,0,9.3,0,13.9,0c5.6,0,5.7,0.1,5.7,6
		c0,6.8,0,13.5,0,20.3C664,436.3,664,459,664,481.6z"/>
	<path class="st2" d="M1206.2,453.2c2,0.4,2.6-0.9,3.4-1.6c10.8-9.4,23.5-12.1,37.4-10.2c2.9,0.4,5.7,1.1,8.5,1.6
		c2.7,0.5,3.6,2,2.6,4.6c-1.9,5.1-3.6,10.2-5.5,15.3c-1.4,3.7-2.1,4.1-6.2,3.2c-4-0.8-8.1-0.9-12.1-0.4c-14.1,2-23,10.8-25.8,25.3
		c-1.1,5.7-1.4,11.5-1.4,17.3c0,19.7,0,39.5,0,59.2c0,1.4,0,2.7,0,4.1c0,2.6-1.2,4-3.8,4c-6.8,0-13.5,0-20.3,0
		c-2.3,0-3.6-1.1-3.7-3.5c0-1.4,0-2.7,0-4.1c0-39.5,0-78.9,0-118.4c0-1,0-1.9,0-2.9c0.2-3.9,0.5-4.4,4.3-4.5c6-0.1,12-0.1,18,0
		c3.8,0.1,4.3,0.6,4.5,4.3C1206.3,448.8,1206.2,451.1,1206.2,453.2z"/>
	<path class="st4" d="M1406.5,494.6c1-8.3,3.7-15.9,8.9-22.6c10.1-12.9,39.5-14.9,48.8,7.4c1.7,4,2.3,8.1,3.1,12.3
		c0.6,2.8-0.5,3.9-3.3,3.8c-3.7-0.2-7.3,0-11,0c-13.5,0-27,0-40.5,0C1410.6,495.3,1408.6,495.8,1406.5,494.6z"/>
	<path class="st5" d="M749.1,495.3c-8.9,0-17.8,0-26.6,0c-4.1,0-4.1-0.1-3.3-4.3c0.6-3.6,1.7-7.1,3.2-10.5
		c5.6-12.8,16.3-19.2,30-17.9c13.9,1.3,22.7,9.1,26,23.1c0.5,2.1,0.6,4.2,1.1,6.3c0.6,2.7-0.6,3.4-3.1,3.4
		C767.2,495.3,758.2,495.3,749.1,495.3z"/>
	<path class="st6" d="M581.1,534.5c0,5-0.1,10.1,0,15.1c0.1,2.5-0.5,3.8-3.3,4.3c-9.8,1.6-19.5,2.9-29.4,2.3
		c-3.7-0.2-7.3-1-10.7-2.3c-7.3-2.8-11.8-7.7-12.4-15.9c-0.6-9,1.5-16.5,10-21.1c5.9-3.2,12.4-4.3,19-4.6c7.6-0.4,15.1,0.5,22.6,1.5
		c4.2,0.6,4.2,0.7,4.2,5.1C581.1,524.1,581.1,529.3,581.1,534.5z"/>
	<path class="st7" d="M1128,509.7c-0.5,8.8-1,17.7-4.2,26.1c-6.8,18-26,25.7-43.3,17.2c-7-3.5-11.2-9.4-13.8-16.5
		c-4-11.1-5-22.6-4.1-34.3c0.5-6.8,1.6-13.4,4.1-19.8c4.9-12.6,13.7-19,26.9-19.3c14.7-0.3,23.9,5.3,29.5,18.1
		C1127,490.3,1127.6,499.9,1128,509.7z"/>
</g>
</svg>
