<?xml version="1.0" encoding="utf-8"?>
<!-- Generator: Adobe Illustrator 25.2.1, SVG Export Plug-In . SVG Version: 6.00 Build 0)  -->
<svg version="1.1" id="Calque_1" xmlns="http://www.w3.org/2000/svg" xmlns:xlink="http://www.w3.org/1999/xlink" x="0px" y="0px"
	 viewBox="0 0 1920 1080" style="enable-background:new 0 0 1920 1080;" xml:space="preserve">
<style type="text/css">
	.st0{fill:#201F20;}
	.st1{fill:#00CDC2;}
</style>
<path class="st0" d="M393.3,838.2c9.5-0.1,18.9-0.1,28.4-0.2c2.4,0,4.8,0.1,7.2,0c1.8-0.1,2.5,0.5,2.5,2.4c-0.1,5.9,0,11.7,0,17.6
	c0,1.3,0,2.6,0,3.9c1,0.4,1-0.5,1.2-0.9c7.6-14,19.7-21.4,35-24.2c6.2-1.1,12.4-1.2,18.6-0.2c1.5,0.2,2,0.7,2,2.2
	c0,11.6-0.1,23.2,0,34.8c0,1.9-0.7,2.2-2.3,2c-6.3-0.8-12.6-1-19-0.1c-11.6,1.6-21.3,6.3-27.6,16.6c-3.7,6-5.5,12.7-6.4,19.6
	c-0.6,4.5-0.7,9.1-0.7,13.6c0,23.1,0,46.2,0,69.3c0,0.7-0.1,1.4,0,2.2c0.2,1.7-0.6,2.3-2.3,2.2c-7.7-0.1-15.3,0-23,0
	c-4.5,0-9.1,0.1-13.6,0.1C393.3,945.5,393.3,891.8,393.3,838.2z"/>
<path class="st1" d="M1212.3,338.4c-25.5,0-51,0-76.6,0c-0.8,0-1.7-0.1-2.5,0c-2,0.3-2.6-0.7-2.9-2.6c-1.5-9.2-3.6-18.3-6.5-27.2
	c-12.8-39.8-36.4-71.1-72.6-92.5c-17.6-10.4-36.6-17-56.8-20.6c-12.7-2.2-25.4-3.3-38.3-2.8c-35.9,1.2-69.1,11.1-98.5,32.4
	c-23.4,17-40.6,39.1-52.2,65.5c-6.3,14.3-10.6,29.2-13.1,44.7c-0.5,3.2-0.5,3.2-3.9,3.2c-52.1,0-104.2,0-156.4,0c-0.4,0-0.7,0-1.1,0
	c-2.5-0.1-2.5-0.1-2.2-2.4c2.3-22.8,6.3-45.3,12.7-67.3c17.1-58.9,47.1-110.1,92.2-152c35.6-33.1,76.8-56.5,123.2-71
	c19-5.9,38.4-10.1,58.2-12.6c17.5-2.2,35.1-3.3,52.7-2.9c47.9,1,93.9,10.5,137.5,30.6c62.9,29.1,111.2,74.1,145.3,134.3
	c18.6,32.9,31,68.1,38.1,105.2c2.2,11.4,3.9,22.9,5,34.5c0.3,3.5,0.2,3.6-3.3,3.6C1264.3,338.4,1238.3,338.4,1212.3,338.4z"/>
<path class="st1" d="M1290.5,437.2c0,3.5-0.9,6.7-1.5,10c-9.9,52.7-30,101.1-62.3,144.1c-37.2,49.4-84.8,85-142.6,107.1
	c-22.4,8.6-45.6,14.5-69.3,18.1c-23.3,3.5-46.7,4.7-70.2,3.6c-46.6-2.2-91.2-12.8-133.2-33.3c-43.8-21.4-80.8-51.1-111-89.4
	c-32.6-41.5-53.8-88.3-64.9-139.8c-1.2-5.5-2.2-11-3.3-16.6c-0.2-1.2-0.5-2.4-0.2-3.6c1-0.7,2.1-0.4,3.1-0.4c53,0,105.9,0,158.9,0
	c3.2,0,3.2,0,4.1,3.1c9.8,31.1,26.3,57.9,51.5,78.9c21.7,18.1,46.6,29.5,74.2,35.3c16.4,3.4,33,4.5,49.7,3.3
	c44.9-3.2,83.8-19.6,114.8-53.1c15.1-16.3,25.9-35.3,33.3-56.2c1.1-3.2,2.1-6.4,3.1-9.6c0.4-1.3,1.1-2,2.6-1.9c0.8,0.1,1.7,0,2.5,0
	c52.1,0,104.2,0,156.4,0C1287.6,437,1289,436.8,1290.5,437.2z"/>
<path class="st0" d="M867.1,857c0-3.3,0-6.6,0-9.9c0-2.2,0-4.3,0-6.5c0-2.6,0.1-2.6,2.9-2.6c9.2,0,18.5,0,27.7,0c1.3,0,2.6,0,4,0
	c2.5,0.1,2.5,0.1,2.5,2.7c0,0.5,0,1,0,1.4c0,46.5,0,93,0,139.5c0,12.7-1.3,25.1-5.7,37.1c-8.6,23.4-24.9,38.5-49.1,44.7
	c-19.6,5-39.1,5.2-58.4-1.6c-18.6-6.6-32.9-18.4-41.3-36.5c-2.2-4.8-3.7-9.9-4.7-15c-0.2-1.3-0.3-2.2,1.4-2.7
	c11.1-2.8,22.2-5.8,33.2-8.7c0.9,1,0.9,2.1,1.1,3.2c3.6,17.3,17.3,29.5,35,31.1c6.7,0.6,13.4,0.2,20-1.3
	c15.5-3.5,24.7-13.3,28.5-28.5c1.5-6,1.9-12.1,2-18.2c0.1-5.1,0-10.2,0-15.2c-1-0.2-1.2,0.3-1.4,0.7c-8,11.5-19.3,17.7-32.8,20
	c-40.7,6.9-76.9-18.2-85-58.8c-3.9-19.8-2.1-38.9,7.2-56.9c11.9-22.9,30.8-36.2,56.5-39.3c11.4-1.4,22.7-0.5,33.6,3.6
	C853.6,842.6,861.2,848.4,867.1,857z M825.9,868.1c-19.8,0-34.9,11.4-40.1,30.5c-2.9,10.7-2.7,21.4,0.5,31.9
	c4.1,13.3,12.7,22.6,26.3,26.7c5.6,1.7,11.3,2.2,17.1,1.7c15.8-1.5,27.1-9.3,33.4-24c4.3-10,5-20.4,3.4-31
	C863,882.6,847.3,868,825.9,868.1z"/>
<path class="st0" d="M1290.9,929.2c0.3,9.1,3.1,17.3,8.7,24.5c9.1,11.7,21.3,17.1,35.9,17.1c5,0,10-0.7,14.9-2.2
	c10.8-3.5,18.2-10.7,22.9-20.9c0.4-0.9,0.7-1.8,1.1-2.7c0.9-2.2,0.9-2.2,3.4-1.5c5.9,1.8,11.9,3.7,17.8,5.6c3,0.9,5.9,1.8,8.9,2.8
	c3.2,1,3.2,1,2.2,4.1c-2.9,8.2-7.1,15.7-12.8,22.3c-11.3,13.2-25.6,21-42.6,24.1c-18,3.3-35.6,1.5-52.3-6.4
	c-24-11.4-38.5-30.7-44.1-56.4c-4.4-20.1-3.3-40.1,5.2-59.1c11.3-25.1,30.4-41.6,57.8-46.3c24.7-4.2,47.8,0.5,67.1,17.6
	c11.3,10,17.8,23,21.5,37.4c3,11.7,3.6,23.6,2.8,35.7c0,0.6-0.1,1.2-0.2,1.8c-0.1,1.4-0.6,2.2-2.3,2c-0.8-0.1-1.7,0-2.5,0
	c-36.4,0-72.8,0-109.3,0C1293.6,928.9,1292.3,928.6,1290.9,929.2z M1370.5,900.6c0.3-12-6.2-23.7-16.4-29.8
	c-6.5-3.9-13.7-5.4-21.2-5.7c-18.6-0.9-34.6,10.4-39.7,28.3c-0.7,2.3-1.4,4.7-1.1,7.3C1318.4,900.6,1344.4,900.6,1370.5,900.6z"/>
<path class="st0" d="M1008,1004c-27.2-0.6-50-10.5-66.6-32.7c-9.6-12.9-14.6-27.6-16.1-43.5c-1.5-15.7,0.3-30.9,6.6-45.4
	c11.6-26.6,31.8-42.6,60.3-47.9c16.7-3.1,33.2-1.7,49,4.8c20.3,8.3,35,22.5,43.3,42.7c11.2,27.4,10.3,54.6-3.9,80.7
	c-12.5,22.9-32.5,35.8-58.1,40.2C1017.7,1003.6,1012.9,1003.8,1008,1004z M963.2,918.4c-0.1,6.9,0.9,14,3.2,20.8
	c6.6,18.9,23,30.7,42.5,30.4c19.4-0.3,35.3-12.4,41.3-31.5c3.4-11,3.8-22.2,1.6-33.4c-5-24.7-22.5-34.9-37.9-36.7
	c-16.4-2-36.1,4.8-45.4,24.6C964.7,900.7,963.2,909.2,963.2,918.4z"/>
<path class="st0" d="M617.8,858.1c1.2-0.3,1.4-1.3,1.9-1.9c9.3-13.4,22.4-20.5,38.4-22.5c10-1.2,19.9-0.3,29.4,3.2
	c16.6,6,26.9,18.2,32.3,34.7c2.4,7.2,3.6,14.7,3.7,22.2c0.1,34.1,0.1,68.3,0.1,102.4c0,2.7-0.1,2.7-2.8,2.8c-10.7,0-21.3,0-32,0
	c-3.6,0-3.5,0.4-3.5-3.5c0-30,0-59.9,0-89.9c0-4.8-0.3-9.6-1.4-14.3c-3.2-13.9-13.1-22.2-27.4-23.2c-6.4-0.4-12.7-0.1-18.6,2.7
	c-10.3,4.9-15.5,13.4-17.9,24.1c-1,4.5-1.2,9-1.2,13.6c0,28.5,0,57,0,85.5c0,0.8-0.1,1.7,0,2.5c0.1,1.6-0.4,2.4-2.2,2.3
	c-11.3-0.1-22.5-0.1-33.8,0c-2,0-2.6-0.7-2.4-2.5c0.1-0.6,0-1.2,0-1.8c0-50.9,0-101.8,0-152.8c0-4.5-0.6-4,4-4c9.8,0,19.6,0,29.5,0
	c4.6,0,3.9-0.4,3.9,4.1c0,5,0,10.1,0,15.1C617.7,857.4,617.7,857.6,617.8,858.1z"/>
<path class="st0" d="M1089.2,838.2c1.1-0.5,2.1-0.2,3.2-0.2c11.7,0,23.5,0,35.2,0c3.9,0,3.2-0.3,4.5,3.2
	c13.3,35.8,26.5,71.5,39.8,107.3c0.4,1.2,0.6,2.6,1.8,3.8c0.4-1.1,0.8-2,1.1-2.9c12.9-35.8,25.9-71.5,38.8-107.3
	c0.3-0.9,0.7-1.8,1-2.7c0.3-1.1,1-1.5,2.1-1.5c12.6,0,25.2,0,37.7,0.1c0.2,0,0.4,0.2,0.6,0.3c0.1,1.1-0.5,2-0.9,3
	c-20.2,51.4-40.3,102.9-60.5,154.3c-1.5,3.9-0.9,3.3-4.8,3.4c-10.3,0-20.6,0-30.9,0c-4.6,0-3.7,0.7-5.4-3.5
	c-14.9-36.7-29.8-73.3-44.7-110c-5.9-14.5-11.8-29-17.7-43.5C1089.8,840.8,1088.9,839.7,1089.2,838.2z"/>
<path class="st0" d="M1526.2,875.8c-6.9-0.8-13.7-1.1-20.5-0.4c-16.7,1.8-28.3,11.7-32.6,28c-1.8,6.8-2.2,13.7-2.2,20.7
	c0,23.5,0,47,0,70.5c0,0.7-0.1,1.4,0,2.2c0.2,2-0.7,2.4-2.5,2.4c-11.1-0.1-22.3,0-33.4,0c-2.5,0-2.5-0.1-2.6-2.6c0-0.7,0-1.4,0-2.2
	c0-50.4,0-100.9,0-151.3c0-0.7,0-1.4,0-2.2c0.1-2.7,0.1-2.7,2.8-2.7c10.7,0,21.3,0,32,0c2.5,0,2.6,0.1,2.6,2.5c0,7.2,0,14.3,0,21.5
	c1.2,0.2,1.2-0.7,1.5-1.3c7.7-13.9,19.9-21.3,35.2-23.9c6.1-1,12.1-1.2,18.2-0.2c1.3,0.2,1.9,0.5,1.9,1.9
	c-0.1,12.2-0.1,24.4-0.1,36.6C1526.5,875.3,1526.4,875.4,1526.2,875.8z"/>
<path class="st0" d="M506.4,918.7c0-25.3,0-50.5,0-75.8c0-0.7,0-1.4,0-2.2c0.1-2.7,0.1-2.7,2.8-2.7c10.9,0,21.8,0,32.7,0
	c2.5,0,2.5,0.1,2.5,2.6c0,8.5,0,17,0,25.5c0,43,0,86,0,129c0,4.6,0.4,4-4,4c-10.3,0-20.6,0-30.9,0c-3.1,0-3.1,0-3.1-3.1
	C506.4,970.2,506.4,944.4,506.4,918.7z"/>
<path class="st0" d="M550.4,781.2c0.1,13.7-10.8,24.7-24.8,25c-13.7,0.2-25-10.9-25.1-24.7c-0.1-13.8,11.1-25.2,24.6-25.3
	C538.9,756.1,550.3,767.3,550.4,781.2z"/>
</svg>
