<?xml version="1.0" encoding="utf-8"?>
<!-- Generator: Adobe Illustrator 25.2.1, SVG Export Plug-In . SVG Version: 6.00 Build 0)  -->
<svg version="1.1" id="Calque_1" xmlns="http://www.w3.org/2000/svg" xmlns:xlink="http://www.w3.org/1999/xlink" x="0px" y="0px"
	 viewBox="0 0 1920 1080" style="enable-background:new 0 0 1920 1080;" xml:space="preserve">
<style type="text/css">
	.st0{fill:#731213;}
	.st1{fill:#BD1622;}
	.st2{fill:#95C01F;}
	.st3{fill:#fffffff;}
	.st4{fill:#3C1B10;}
	.st5{fill:#E5007E;}
	.st6{fill:#662483;}
	.st7{fill:#13130E;}
	.st8{fill:#161874;}
	.st9{fill:#36A8E0;}
	.st10{fill:#0B70C6;}
	.st11{fill:#31006F;}
	.st12{fill:#ffffff;}
	.st13{fill:#ffffff;}
	.st14{fill:#227F1D;}
	.st15{fill:#FEFEFE;}
</style>
<g>
	<path class="st0" d="M1112.6,400.6c-6.6-7.5-12.5-15.4-17.2-24.3c-13.6-25.8-35.1-41.2-63.9-45.6c-26.5-4-49.7,3.8-70,21.2
		c-11.1,9.6-24.3,15.2-38.7,17.8c-11.7,2.1-23.3,1.8-34.9-0.9c-0.3-0.1-0.6,0-1,0c-0.7-0.2-1.4-0.5-2.1-0.7
		c-23.8-6.8-41.7-21.1-53.3-43c-7.8-14.5-10.9-30.2-9.5-46.7c0.6-7.2,2.2-14.1,4.2-21c0.1-0.1,0.3-0.1,0.4-0.2
		c2.7,0.8,5.4,1.7,8.1,2.5c7.7,2.3,15.6,3.7,23.7,3.8c8.6,0.2,17.1-0.9,25.5-3.4c18.6-5.4,33.5-16,45.1-31.4
		c5.2-6.9,8.9-14.5,12-22.5c8.8,3.3,16.4,8.5,23.4,14.6c9.4,8.1,16,18.3,21.8,29.2c4.6,8.6,10.6,16.2,18.1,22.5
		c10.8,9.9,23.5,16.2,37.7,19.3c25,5.4,48.1,0.7,69.1-14c4.3-3,8-6.8,12.3-9.7c6.9-4.7,14.2-8.5,22.1-11.1c10-3.3,20.2-4.8,30.6-4.3
		c17.5,0.9,33.3,6.4,47.5,16.8c9.8,7.1,17.5,15.9,23.5,26.3c5.4,9.5,9.1,19.6,10.4,30.6c0.6,5.1,1.2,10.1,0.9,15.2
		c-1,17.8-6.4,33.9-17.2,48.3c-9,11.9-20.4,20.6-33.7,27.1c-0.3,0.1-0.5,0.3-0.8,0.5c-0.3-0.1-0.6,0-0.8,0.3c0,0,0,0,0,0
		c-0.4,0-0.9,0-1,0.6c0,0,0,0,0,0c-0.8-0.3-1.4,0.1-2.1,0.4c-12.3,4.5-24.9,6.4-38,5.1c-18.7-1.8-35.1-8.8-49.2-21.2
		c-0.6-0.5-1-1.4-2-0.9l0,0c0.3-0.6,0-0.9-0.6-1c0,0,0,0,0,0C1113.3,400.8,1113.1,400.6,1112.6,400.6z"/>
	<path class="st1" d="M651.1,673.8c0.5-4.3,1.7-8.6,2.1-13c2.1-22.7-3.6-43.1-17.4-61.1c-14.4-18.7-33.5-29.5-56.8-32.7
		c-8.3-1.1-16.7-1.7-24.6-4.5c-32.3-11.6-52.3-34.2-57.9-68c-5-29.8,4.2-55.8,26.4-76.5c19-17.7,41.9-25.3,67.8-22.3
		c37.8,4.4,66.9,31.2,74.6,68.3c3.2,15.1,1.8,30.1-2.9,44.8c-15,46.4,11.9,96.2,58.9,109c4,1.1,8.1,1.7,12.1,2.6
		c-5.4,0-10.9,0.2-16.3,1.1c-26.2,4.8-46.3,18.5-60.1,41.3C654.8,666.4,653,670.2,651.1,673.8z"/>
	<path class="st2" d="M1113.8,402.1c1-0.5,1.5,0.4,2,0.9c14.1,12.4,30.5,19.4,49.2,21.2c13.1,1.2,25.7-0.7,38-5.1
		c0.7-0.2,1.3-0.6,2.1-0.4c-4,3.1-8.2,5.8-12,9.1c-16.4,14.6-26.1,32.7-28.6,54.4c-2.9,25.5,4.5,47.8,21.1,67.3
		c9.9,11.7,16,25.3,18.5,40.3c6.9,41.9-17.2,82-57.5,95.7c-48.1,16.3-100.5-13.5-111.1-63.2c-2.1-9.9-2.2-19.8-1.3-29.9
		c0.2-0.8,0.4-1.6,0.6-2.3c0.1-0.1,0.2-0.2,0.1-0.3c0.1-0.2,0.1-0.4,0.2-0.6c1-0.8,1.1-2,1.4-3c1.8-4.9,3.4-9.8,3.8-15
		c0.2-0.9,0.5-1.7,0.7-2.6c0.1-0.3,0.3-0.5,0.4-0.8l0,0c4.5-8.9,9.9-17.1,17.1-24.2c6.5-6.5,13.8-11.8,22-16
		c24.9-12.9,40.5-32.9,46.1-60.4c4.6-22.5,0.3-43.5-11.8-62.9C1114.5,403.6,1113.7,403.1,1113.8,402.1z"/>
	<path class="st3" d="M651.1,673.8c1.9-3.6,3.7-7.4,5.8-10.9c13.8-22.8,34-36.5,60.1-41.3c5.4-1,10.8-1.2,16.3-1.1
		c9.8,0.5,19.5,2,28.6,5.9c0.4,0.2,0.9,0.2,1.4,0.2c0.3,0.3,0.7,0.5,1.2,0.4c0,0-0.1,0-0.1,0c0.6,0.3,1.1,0.7,1.7,0.9
		c21.2,9.8,36.1,25.6,44.8,47.3c4.1,10.2,5.7,20.9,6,31.9c-0.6,16.6-4.8,32.1-14,46.1c-36.3,54.8-116.2,51-147.3-5.8
		c-11.8-21.6-13.5-44.3-6.2-67.8C649.8,677.6,650.5,675.7,651.1,673.8z"/>
	<path class="st4" d="M617,379.3c-40.9-1.5-73.7-28.9-82.3-68.8c-8.7-40.6,14.8-83.1,54-97.5c20.4-7.5,40.9-7.4,61.2,0.4
		c0.4,0.1,0.8,0.1,1.2,0.2c0.3,0.4,0.7,0.5,1.2,0.4c0,0,0.1,0.1,0.1,0.1c0.5,0.3,1.1,0.7,1.6,1c12.3,5.5,22.7,13.5,31.2,24
		c10.5,12.9,16.8,27.6,18.8,44.2c0.4,3.5,0,7,0.8,10.4c0,0.5-0.1,1.1-0.1,1.6c-0.3,0.2-0.3,0.4-0.1,0.7c-0.3,4.5-0.6,9-1.5,13.5
		c-0.7,3.4-1.5,6.7-2.2,10.1l0,0c-0.5-0.1-0.4,0.2-0.4,0.5c-0.2,0.4-0.4,0.7-0.6,1.1c-0.4,0.1-0.8,0.2-1.1,0.4
		c-14,9.8-24.6,22.4-31,38.3c-0.6,1.4-2.1,2.8-1.1,4.7c-0.4,0.3-0.9,0.7-1.3,1c-5.7,3.5-11.6,6.5-17.9,8.8
		C637.6,377.8,627.4,379.3,617,379.3z"/>
	<path class="st5" d="M1005.7,626.7c3.3,7.5,7.8,14.3,13,20.5c12.4,14.6,19.4,31.5,20.4,50.7c2.1,42.2-24.8,78.5-65.7,88.6
		c-47.4,11.7-96.5-20.1-104.4-68.3c-5.6-34,5.7-61.9,32.5-83.6c0.3-0.3,0.6-0.6,0.9-0.8c0.4-0.1,0.8-0.2,1.2-0.2
		c8.3,0.4,16.5,1.5,24.4,4.2c14.9,5,30,6.1,45.4,2.9c11.6-2.4,22.3-6.9,31.9-13.9l0.2,0L1005.7,626.7z"/>
	<path class="st6" d="M814.2,445.9c23,15,36.7,36,39.6,63.3c4.8,44.6-24.2,84.3-67.8,93.6c-46.3,9.9-92.8-21-101.7-67.7
		c-2.7-14.3-1.9-28.5,2.5-42.4c3.5-11,5.3-22.1,4.5-33.6c0-0.4,0-0.8,0.1-1.2c0.4,0.2,0.8,0.3,1.1,0.5
		c20.3,16.7,43.7,22.6,69.4,18.4c21.1-3.5,38.4-14.1,52.1-30.7C814,446,814.1,446,814.2,445.9z"/>
	<path class="st5" d="M929.3,474.8c-3.7-8.2-6.5-16.6-7.6-25.6c-3.4-28.7,4.9-53.6,25.8-73.6c47.6-45.6,126.3-22.8,142.5,41.1
		c9.7,38.2-8.4,78.7-43.3,96.9c-4.2,2.2-8.3,4.8-12.4,7.2c-0.2-0.4-0.5-0.8-0.7-1.3c-8.7-18-22-31.5-39.9-40.3
		c-10.4-5.2-21.5-7.9-33-8.6c-10.5-0.6-20.9,0.6-30.9,4.2C929.6,474.9,929.5,474.9,929.3,474.8z"/>
	<path class="st7" d="M850.5,57.6c0.5,0.2,1,0.4,1.5,0.6c11.7,9.3,20.4,20.9,27.2,34.2c5.1,9.9,12.6,18.1,21.4,25
		c8.6,6.8,18.1,11.6,28.5,14.9c0,0,0.1,0.2,0.1,0.2c-0.5,1.4,0.3,2.7,0.3,4.1c0,7,0.4,14.1-1,21.1c-1,4.9-1.7,9.9-3.9,14.4
		c-9.9-0.9-19.8-1.1-29.6,0.9c-13,2.7-25,7.8-35.3,16.2c-8.1,6.7-16.4,12.7-26,17c-0.8-0.1-1.4,0.3-2.1,0.6
		c-9.5,3.6-19.4,5.8-29.6,5.8c-5.9,0-11.6-0.4-17.4-1.4c-12.1-2.2-23.1-6.8-33.2-13.8c-4.4-3-8.3-6.8-12.4-10.2
		c-0.2-0.2-0.3-0.4-0.5-0.7c0-0.6,0.4-1,0.8-1.5c3.8-4.7,7.2-9.8,10-15.2c6.1-11.5,8.7-24,9.8-36.8c0.9-10.2,4.1-19.8,8.8-28.9
		c7.3-14.1,17.8-25.4,31.4-33.8c14.6-8.9,30.5-12.8,47.5-12.7C848.1,57.6,849.3,58.8,850.5,57.6z"/>
	<path class="st8" d="M965.8,135.1c0.2-0.1,0.4-0.2,0.6-0.3c0.5,0,1,0,1.5,0c10.5-1.8,20.3-5.4,29.6-10.8
		c9.1-5.2,16.4-13.1,25.5-18.3c0.3-0.1,0.6-0.2,0.9-0.3c0.3,0,0.6,0.1,1,0.1c7-0.1,14-0.3,20.9,1.1c20.4,3.9,37.6,13.4,51,29.4
		c11.9,14.2,18.4,30.6,20,49c0.7,8.2,0,16.5-1.9,24.7c-4.7,20.4-15.4,37-32,49.8c-2.8,2.2-5.8,4.1-8.6,6.2c-0.3,0.1-0.7,0.2-1,0.3
		c-1.1,0-2.3,0-3.4,0c-14.3,0.7-28-1.9-40.9-8.1c-18-8.6-31.3-22-40.4-39.8c-5.1-10-12-18.7-20.5-26.1c-6.5-5.6-13.7-9.9-21.3-13.5
		c0.8-9.9,4.3-18.8,8.8-27.5C958.3,145.2,962.2,140.3,965.8,135.1z"/>
	<path class="st9" d="M929.3,474.8c0.2,0,0.3,0,0.4,0.1c0.2,0.6,0.4,1.2,0.7,1.8c3.3,6.6,7.7,12.3,12.3,18.1
		c17,21.2,23.3,45.4,17.8,72c-5.6,26.9-21.2,46.7-45.5,59.5c-4,2.1-8.1,4-11.4,7.3c-0.4,0.1-0.8,0.2-1.2,0.2
		c-15.3-0.5-29.5,3.3-42.6,10.9c-23.9,13.9-38.1,34.5-42.7,61.8c0,0.2-0.2,0.4-0.3,0.6c-0.2-11-1.9-21.7-6-31.9
		c-8.7-21.6-23.6-37.4-44.8-47.3c-0.6-0.3-1.1-0.6-1.7-0.9c3.4,0.5,6.7,1.1,10.1,1.5c23.5,2.8,44.7-3.1,63.3-17.5
		c17.8-13.8,28.3-32.2,32-54.3c1.1-6.9,1.2-13.9,3-20.7c7.1-27,23.4-46.1,48.6-57.9C923.9,476.8,926.7,475.9,929.3,474.8z"/>
	<path class="st10" d="M827,424.1c-0.2,0.2-0.4,0.3-0.6,0.5c-4.5,0.7-8.9,1.7-13.4,1.9c-13.9,0.8-27.4-1-40.4-6.5
		c-19.1-8.2-33.5-21.4-43-39.9c-7.2-13.9-10.4-28.8-9.2-44.6c0.7-9,2.5-17.6,5.7-25.9c1.1-2.9,2.9-5.6,3.5-8.7
		c0.6-0.8,1.2-1.5,1.8-2.3c0.1-0.2,0.2-0.3,0.3-0.5l0,0c1,0,1.6-0.9,2.1-1.5c2-2.4,3.9-4.7,5.8-7.2c1.7-2.3,3.6-4.5,4.3-7.5l0,0
		c0.2-0.2,0.3-0.4,0.5-0.5c0.5-0.6,1-1.3,1.5-1.9c0.4-0.2,0.6-0.5,0.5-0.9l0-0.1c1.4-0.5,2.4-1.5,3.5-2.5
		c12.3-10.5,26.3-17,42.2-19.7c3-0.5,2.3,0.7,1.9,2.3c-3,11.4-3.6,23-1.9,34.7c2.3,14.9,8,28.4,17.4,40.2c4.8,6,9.8,12,13.3,18.9
		c7.1,13.9,10.6,28.6,9.6,44.3c-0.5,7.2-1.7,14.3-3.7,21.2C828.1,420,827,421.9,827,424.1z"/>
	<path class="st11" d="M903.6,633.5c3.3-3.3,7.4-5.2,11.4-7.3c24.4-12.8,39.9-32.5,45.5-59.5c5.5-26.6-0.7-50.8-17.8-72
		c-4.6-5.7-9.1-11.5-12.3-18.1c-0.3-0.6-0.5-1.2-0.7-1.8c10-3.6,20.4-4.8,30.9-4.2c11.6,0.6,22.6,3.4,33,8.6
		c17.9,8.9,31.2,22.4,39.9,40.3c0.2,0.4,0.5,0.9,0.7,1.3c0,0.1-0.1,0.3-0.1,0.4c-0.6,0.4-1.3,0.7-1.9,1.1
		c-27.2,19.6-40.3,56.1-32.1,89.1c1.3,5.2,3.3,10.1,5.1,15.2c-9.6,7-20.3,11.5-31.9,13.9c-15.4,3.2-30.5,2-45.4-2.9
		C920.1,635,911.9,633.9,903.6,633.5z"/>
	<path class="st12" d="M919.8,886.9c5.9-2.2,11.7-4.3,17.8-4.5c11.9-0.4,23.2,1.8,33.2,8.5c12,8,17.2,19.8,17.3,33.9
		c0.1,24.6,0,49.2,0,73.8c0,5.2-1.9,7.1-7.1,7.1c-4.4,0-8.8,0-13.2,0c-4.2,0-6.3-2.1-6.4-6.3c-0.1-2.8,0-5.5,0-8.3c0-21,0-42,0-63
		c0-16.4-13.1-26.6-29-22.8c-3.6,0.9-7.2,2-10.8,2.8c-1.5,0.3-1.9,1-1.9,2.5c0.1,3.3,0,6.7,0,10c0,25.7,0,51.5,0,77.2
		c0,1.1,0,2.3-0.2,3.4c-0.6,2.8-2.4,4.4-5.3,4.5c-5.2,0.1-10.4,0.1-15.6,0c-2.9,0-4.7-1.7-5.3-4.5c-0.2-1-0.2-2.1-0.2-3.2
		c0-51.6,0-103.2,0-154.9c0-1.2,0.1-2.5,0.3-3.6c0.6-2.4,2.1-3.9,4.6-4c5.5-0.1,11.1-0.1,16.6,0c2.6,0.1,4.2,1.6,4.8,4.1
		c0.2,1.1,0.3,2.3,0.3,3.4c0,13.7,0,27.4,0,41C919.8,884.9,919.8,885.8,919.8,886.9z"/>
	<path class="st8" d="M813.9,446c-13.6,16.6-30.9,27.2-52.1,30.7c-25.7,4.2-49.1-1.7-69.4-18.4c-0.3-0.2-0.7-0.4-1.1-0.5
		c-0.1-0.2-0.1-0.3-0.2-0.5c0-0.8,0.1-1.6,0-2.4c-1.5-12-5.1-23.3-11.2-33.7c-4.9-8.2-10.8-15.7-18.3-21.7c-0.1-0.2-0.2-0.4-0.3-0.6
		c0-1.5,0.2-3.1,0.1-4.6c-0.2-6.2,0.3-12.4,1.5-18.5c0.7-3.5,1.7-6.9,2.5-10.3c0.4-0.3,0.9-0.7,1.3-1c9-5.9,16.4-13.4,22.6-22.2
		c3.6-5.1,6.4-10.7,9-16.3c0,0.4,0,0.8-0.1,1.2c-2.9,11.9-3.3,24-1,36c3.9,20.3,13.8,37.2,29.7,50.5c13.3,11,28.6,17.5,45.9,19.2
		c7.4,0.7,14.7,1.6,21.7,4C801.4,439.1,808,441.8,813.9,446z"/>
	<path class="st9" d="M827,424.1c0-2.2,1.1-4,1.7-6c2.1-6.9,3.3-14,3.7-21.2c1-15.7-2.5-30.4-9.6-44.3c-3.5-6.9-8.4-12.8-13.3-18.9
		c-9.4-11.8-15.1-25.2-17.4-40.2c-1.8-11.7-1.1-23.2,1.9-34.7c0.4-1.6,1.2-2.8-1.9-2.3c-15.9,2.6-30,9.2-42.2,19.7
		c-1.1,0.9-2.1,2-3.5,2.5c1.5-3.7,3.2-7.4,4.5-11.2c4.4-12.7,6.1-25.8,4.2-39.2c0.1-0.1,0.1-0.3,0.2-0.4c0.9-0.3,1.8-0.6,2.7-0.9
		c11-4.4,22.4-6.4,34.3-6.1c6.9,0.2,13.6,1.4,20.2,2.9c0.1,0.1,0.1,0.2,0.2,0.3c-8.1,9.3-14,19.7-17.7,31.9
		c10.7-1.2,20.9-0.7,31,1.9c-1.9,6.9-3.6,13.8-4.2,21c-1.3,16.5,1.8,32.1,9.5,46.7c11.6,21.8,29.5,36.2,53.3,43
		c0.7,0.2,1.4,0.5,2.1,0.7c-4.4,13.4-11.9,24.9-22.1,34.5c-10.3,9.8-22.4,16.6-36.2,20.3C828.1,424,827.5,424,827,424.1z"/>
	<path class="st13" d="M665.8,947c0-17.3,0-34.7,0-52c0-3.9,1.7-6.3,5.3-7.1c14.9-3.3,29.8-6.5,45.1-5.3c13.1,1,25,5,34.2,15
		c6.5,7,10,15.4,10.1,25c0.2,25.7,0.1,51.3,0.1,77c0,4.3-2.1,6.2-6.4,6.2c-4.5,0-9,0-13.4,0c-4.7,0-6.7-2-6.7-6.7
		c0-23.5,0-46.9,0-70.4c0-14.1-9.4-23.8-23.5-24.2c-5.6-0.2-11.2,0.8-16.7,1.9c-1.4,0.3-1.6,0.9-1.6,2.1c0,3.7,0,7.5,0,11.2
		c0,25.9,0,51.8,0,77.7c0,1.2,0,2.5-0.2,3.7c-0.4,2.6-2.3,4.5-5,4.5c-5.4,0.1-10.7,0.1-16.1,0c-3.1-0.1-5.1-2.3-5.3-5.6
		c-0.1-2.3,0-4.6,0-6.8C665.8,977.8,665.8,962.4,665.8,947z"/>
	<path class="st13" d="M1104.5,957.8c0,12.6,0,25.2,0,37.9c0,3.9-1.9,6.6-5.7,7.4c-15.8,3.5-31.7,6.6-48.1,5
		c-10.6-1.1-20.6-3.8-29.1-10.6c-12.4-9.9-14.8-26.6-5.5-39.5c7.6-10.6,18.3-16.9,30.2-21.4c9.6-3.6,19.8-5,29.8-7.2
		c2.3-0.5,2.9-1.3,2.9-3.6c-0.1-5.7-1.1-11-4.6-15.6c-5.5-7.3-13.1-8.6-21.4-7.4c-7,1.1-13.5,4-19.7,7.4c-3.7,2-7,1.2-9-2.6
		c-1.4-2.7-2.6-5.4-3.8-8.2c-1.1-2.6-0.2-6.1,2.5-7.4c17.3-8.4,35.3-13,54.5-7.8c16.9,4.6,26.7,18.2,27,36.3c0,0.4,0,0.8,0,1.2
		C1104.5,933.8,1104.5,945.8,1104.5,957.8z M1078.9,966.8c0-4.7,0-9.4,0-14.2c0-5.3,0-5.4-5.2-4.2c-7.7,1.8-15.6,3-22.7,6.9
		c-5.1,2.8-9.8,6.1-12.6,11.5c-3.3,6.4-1.1,13.7,5.1,17.3c2.2,1.3,4.5,2.2,6.9,2.9c9.1,2.5,18.1,0.8,27.1-0.6
		c1.4-0.2,1.5-1.1,1.5-2.3C1078.9,978.4,1078.9,972.6,1078.9,966.8z"/>
	<path class="st13" d="M1273.8,951.1c-10.5,0-21,0-31.5,0c-0.8,0-2.1-0.6-2,1.2c0.6,12.2,4.1,23,14.2,30.8
		c6.3,4.8,13.4,4.8,20.7,3.7c6.5-1,12.5-3.4,18.3-6.3c4.5-2.3,7-1.3,8.9,3.5c1.2,3,2.4,6,3.5,9.1c1.2,3.3,0,6.7-3.1,8
		c-16,6.3-32.5,9.5-49.6,6.2c-15.3-2.9-25.5-12.5-32-26.4c-3.9-8.2-5.5-16.9-6.7-25.8c-2-15.5,0.1-30.3,7.2-44.3
		c5.7-11.1,13.6-20.3,25.1-25.3c15.6-6.7,36.9-4.6,51,14c7,9.3,10.6,19.8,12.3,31.2c0.7,4.6,1.1,9.2,1,13.9
		c-0.1,4.5-2.1,6.5-6.6,6.5C1294.4,951.1,1284.1,951.1,1273.8,951.1z M1263.3,933.3c6.9,0,13.8,0,20.8,0c1.2,0,2,0.1,1.8-1.6
		c-1.5-9.4-4.4-18.2-11.5-25c-6-5.7-14.9-6-21.4-0.7c-8.1,6.7-10.8,15.9-12.1,25.8c-0.2,1.6,0.7,1.4,1.7,1.4
		C1249.5,933.3,1256.4,933.3,1263.3,933.3z"/>
	<path class="st13" d="M603.9,951.1c-10.4,0-20.8,0-31.3,0c-0.9,0-2.2-0.6-2.1,1.3c0.7,11.7,4,22.2,13.4,30c6.5,5.4,14,5.5,21.7,4.4
		c6.5-1,12.5-3.4,18.3-6.3c4.3-2.2,6.9-1.2,8.6,3.2c1.3,3.2,2.6,6.3,3.7,9.5c1.2,3.4-0.1,6.7-3.5,8c-16.3,6.3-33,9.5-50.4,5.8
		c-13.6-2.8-23.1-11.3-29.6-23.4c-4.9-9.2-6.9-19.2-8.1-29.4c-1.9-15.2,0.3-29.7,7.3-43.3c5.7-11.2,13.6-20.5,25.3-25.4
		c17.4-7.3,39.1-3.6,52.8,16.7c6.5,9.6,9.4,20.4,10.7,31.8c0.4,3.4,0.5,6.8,0.5,10.2c-0.1,5-1.9,6.9-7,6.9
		C624.2,951.1,614,951.1,603.9,951.1z M593.5,933.3c6.7,0,13.5-0.1,20.2,0.1c2.2,0.1,2.5-0.6,2.2-2.6c-1.2-6.7-3.1-13.1-7-18.8
		c-2.7-4-5.9-7.7-10.8-9c-7.6-2-13.7,0.7-18.6,6.5c-5.3,6.4-7.5,14.1-8.6,22.2c-0.2,1.7,0.6,1.6,1.8,1.6
		C579.7,933.3,586.6,933.3,593.5,933.3z"/>
	<path class="st8" d="M850.5,57.6c-1.2,1.2-2.5,0-3.7,0c-17-0.1-32.9,3.8-47.5,12.7c-13.6,8.4-24.1,19.7-31.4,33.8
		c-4.7,9.1-8,18.7-8.8,28.9c-1.1,12.9-3.7,25.3-9.8,36.8c-2.8,5.4-6.2,10.5-10,15.2c-0.4,0.4-0.8,0.8-0.8,1.5
		c-0.1-0.1-0.3-0.1-0.4-0.1c-5.2-6.2-10.2-12.6-14-19.9c-24.1-45.4-1.6-103.2,46.8-120.2c27.5-9.7,53.5-6.2,77.8,9.7
		C849.4,56.5,850.2,56.8,850.5,57.6z"/>
	<path class="st6" d="M1074.2,265.6c2.9-2.1,5.8-4,8.6-6.2c16.6-12.8,27.3-29.4,32-49.8c1.9-8.1,2.5-16.4,1.9-24.7
		c-1.5-18.3-8-34.8-20-49c-13.5-16-30.7-25.5-51-29.4c-6.9-1.3-13.9-1.1-20.9-1.1c-0.3,0-0.6,0-1-0.1c8.1-4.9,16.9-8,26.1-9.6
		c41.8-7.4,81.4,15.2,96.3,54.8c17.9,47.7-11.1,101.7-60.7,113.1C1081.8,264.7,1078,265.5,1074.2,265.6z"/>
	<path class="st13" d="M830.5,882.2c9.2-0.3,17.9,2.2,26.2,5.8c5,2.1,6.1,5.2,3.9,10.1c-0.9,2-1.8,4-2.7,6c-2,4.4-5.2,5.4-9.4,3.2
		c-6.7-3.4-13.7-6-21.5-5.4c-8.3,0.6-14.4,6.7-14.7,14.8c-0.2,3.6,1.7,6,4.2,8.1c3.8,3.2,8,5.8,12.3,8.4c8.3,4.9,17,9,24.7,14.6
		c2.9,2.1,5.6,4.5,8.3,6.9c7,6.3,8.8,14,6.6,22.8c-4.1,16.2-15,25.6-30.6,29.4c-13.5,3.3-27,1.6-40.2-2.5c-2.9-0.9-5.7-1.8-8.6-2.8
		c-4-1.4-5.5-4.7-3.9-8.7c1.1-2.9,2.3-5.7,3.5-8.6c1.7-4.1,4.6-5.2,8.6-3.4c8.2,3.7,16.6,6.5,25.7,7.2c5.2,0.4,10.1-0.5,14.3-3.7
		c6.8-5,7-13.1,0.5-18.3c-7.7-6.2-16.5-10.6-25.1-15.4c-6.5-3.7-12.6-8-18.1-13.2c-8-7.5-9.6-16.5-6.6-26.5
		c4.6-15.4,15.6-23.8,30.6-27.7C822.3,882.4,826.4,882.2,830.5,882.2z"/>
	<path class="st13" d="M494.1,882.2c9.4,0,18.4,2.3,26.9,6.2c3.6,1.7,4.9,4.7,3.6,8.4c-1.1,3.1-2.3,6.3-3.5,9.4
		c-1.8,4.7-5.2,6-9.6,3.7c-3.7-2-7.4-3.6-11.5-4.7c-8.8-2.3-16.1,0-21.8,7.1c-5.1,6.3-7.6,13.8-8.6,21.7
		c-1.7,12.9-0.3,25.5,5.1,37.5c0.3,0.6,0.6,1.2,0.9,1.7c6.4,11.8,14.7,15.4,27.6,12c4-1.1,7.8-2.7,11.4-4.8c4.1-2.4,7.1-1.3,9,3.1
		c1.3,3.2,2.7,6.4,3.9,9.7c1.2,3.2,0.1,6.4-2.9,7.9c-14.9,6.9-30.3,9.8-46.5,5.8c-10.6-2.6-18.5-9.3-24.5-18.2
		c-12.2-18.1-17.4-54.3-3.6-78.4c7.2-12.6,16.9-22.2,31.2-26.3C485.3,882.5,489.7,882.3,494.1,882.2z"/>
	<path class="st13" d="M1135.8,946.6c0-17.1,0-34.2,0-51.3c0-4.7,1.5-6.7,6.2-8c8.4-2.2,17-3.5,25.7-4.5c10.1-1.2,20-0.6,29.8,2.1
		c4.6,1.2,6.2,4.3,4.6,8.6c-1.2,3.3-2.5,6.7-3.8,10c-1.6,4-4.4,5.7-8.5,4.2c-8.3-3-16.6-2.5-24.9-0.3c-1.8,0.5-2.4,1.2-2.4,3.1
		c0.1,28.9,0.1,57.8,0,86.7c0,1.1,0,2.3-0.1,3.4c-0.3,2.9-2.3,4.8-5.2,4.9c-5.3,0.1-10.6,0.1-15.9,0c-3.4-0.1-5.4-2.4-5.4-6.2
		c0-6.7,0-13.4,0-20C1135.8,968.4,1135.8,957.5,1135.8,946.6z"/>
	<path class="st9" d="M813.9,446c-5.9-4.2-12.5-6.8-19.3-9.1c-7.1-2.4-14.4-3.2-21.7-4c-17.2-1.7-32.6-8.2-45.9-19.2
		c-15.9-13.2-25.8-30.1-29.7-50.5c-2.3-12-1.9-24.1,1-36c0.1-0.4,0.1-0.8,0.1-1.2c0.5-1.7,1-3.3,1.6-5c0.2-0.4,0.4-0.7,0.6-1.1
		c0.1-0.2,0.3-0.3,0.4-0.5c0,0,0,0,0,0c4.1-2.2,8.2-4.3,12.2-6.5c6.1-3.3,11.4-7.8,16.6-12.2c-0.7,3.1-2.4,5.8-3.5,8.7
		c-3.2,8.4-5,17-5.7,25.9c-1.2,15.8,2,30.6,9.2,44.6c9.5,18.4,23.9,31.7,43,39.9c13,5.6,26.5,7.3,40.4,6.5c4.5-0.2,8.9-1.3,13.4-1.9
		c-2.5,7.1-6.5,13.5-10.9,19.6c-0.4,0.6-0.8,1.2-1.3,1.8C814.1,446,814,446,813.9,446z"/>
	<path class="st2" d="M738.2,186.5c0.1,0,0.3,0,0.4,0.1c0.2,0.2,0.3,0.4,0.5,0.7c0.1,0.3,0.2,0.6,0.4,0.9
		c8.7,11.8,13.9,25.1,16,39.6c-0.1,0.1-0.1,0.3-0.2,0.4c-0.3,0.1-0.6,0.2-0.9,0.3c-24.4,11.7-40.4,30.6-47.5,56.8
		c-0.8,2.8-1.3,5.6-2,8.4c-0.8-3.4-0.4-6.9-0.8-10.4c-2-16.6-8.3-31.3-18.8-44.2c-8.5-10.5-18.9-18.4-31.2-24
		c-0.6-0.3-1.1-0.7-1.6-1c3.5,0.5,7,1.1,10.5,1.5c29,3,53.5-6.2,73.6-27.4C737,187.6,737.6,187.1,738.2,186.5z"/>
	<path class="st9" d="M946.7,178.4c7.7,3.6,14.9,8,21.3,13.5c8.6,7.4,15.4,16,20.5,26.1c9,17.8,22.3,31.2,40.4,39.8
		c12.9,6.2,26.6,8.8,40.9,8.1c1.1-0.1,2.3,0,3.4,0c-9.1,5.4-19,8.6-29.4,10.2c-13.4,2.1-26.5,0.6-39.4-3.3
		c-7.5-6.3-13.5-13.9-18.1-22.5c-5.8-10.8-12.4-21-21.8-29.2c-7-6.1-14.7-11.3-23.4-14.6c0-0.1,0-0.2,0-0.4c0.1-0.3,0.3-0.6,0.4-0.9
		c3.1-8.7,4-17.8,4.9-26.9C946.4,178.4,946.5,178.4,946.7,178.4z"/>
	<path class="st9" d="M1005.4,626.7c-1.7-5-3.7-10-5.1-15.2c-8.3-33,4.8-69.5,32.1-89.1c0.6-0.4,1.2-0.8,1.9-1.1
		c3.3,6.1,5,12.6,6.3,19.3c1.5,7.7,2,15.5,1.1,23.3c-0.1,1.3-0.1,2.6-0.1,3.9c0,0,0,0,0,0c-0.5,0.1-0.3,0.5-0.4,0.8
		c-0.2,0.9-0.5,1.7-0.7,2.6c-2.7,5.7-4.5,11.7-5.2,18c-0.1,0.2-0.1,0.4-0.2,0.6c-0.1,0.1-0.2,0.2-0.1,0.3c-0.2,0.8-0.4,1.6-0.6,2.3
		c-3.1,5.8-6.3,11.5-10.3,16.7c-5.2,6.7-11.4,12.4-18.2,17.5c0,0-0.2,0-0.2,0L1005.4,626.7z"/>
	<path class="st2" d="M929.2,132.3c-10.4-3.3-19.9-8.1-28.5-14.9c-8.8-6.9-16.3-15.1-21.4-25c-6.8-13.3-15.5-24.9-27.2-34.2
		c6.4,0.1,12.6,1.5,18.5,3.6C902,73,921.2,95,928.5,127.5C928.8,129.1,928.9,130.7,929.2,132.3z"/>
	<path class="st6" d="M946.7,178.4c-0.2,0-0.3,0-0.5,0c-6.8-3-13.9-5.1-21.3-6c-0.1-0.1-0.2-0.3-0.2-0.4c2.3-4.5,3-9.5,3.9-14.4
		c1.4-7,1-14,1-21.1c0-1.4-0.9-2.7-0.3-4.1c4.1,0.8,8.2,1.7,12.4,2.4c8.1,1.4,16.1,1.1,24.2,0.3c-3.6,5.1-7.5,10.1-10.4,15.8
		C951,159.6,947.5,168.6,946.7,178.4z"/>
	<path class="st9" d="M661.6,399.5c7.5,6,13.4,13.5,18.3,21.7c6.2,10.4,9.8,21.7,11.2,33.7c0.1,0.8,0,1.6,0,2.4
		c-13.3-11.2-22.1-25.4-26.8-42.1C662.8,410.2,661.7,404.9,661.6,399.5z"/>
	<path class="st6" d="M665.4,365.5c-0.8,3.4-1.8,6.8-2.5,10.3c-1.2,6.1-1.7,12.3-1.5,18.5c0.1,1.5-0.1,3.1-0.1,4.6
		c-7.9-6.3-16.4-11.5-26-15c-6-2.2-12.1-3.5-18.3-4.7c10.5,0,20.6-1.5,30.5-5C653.8,372.1,659.7,369,665.4,365.5z"/>
	<path class="st9" d="M1022.9,105.7c-9.1,5.2-16.4,13-25.5,18.3c-9.2,5.3-19.1,8.9-29.6,10.8c-0.5,0.1-1,0-1.5,0
		c11.6-13.4,26.1-22.2,43.1-26.8C1013.9,106.8,1018.3,105.9,1022.9,105.7z"/>
	<path class="st9" d="M764.4,627c-0.5,0.1-0.8-0.1-1.2-0.4C763.8,626.5,764.2,626.5,764.4,627z"/>
	<path class="st2" d="M652.3,214c-0.5,0.1-0.9,0-1.2-0.4C651.6,213.5,652,213.5,652.3,214z"/>
	<path class="st2" d="M1113.3,401.2c0.6,0.1,0.9,0.3,0.6,1C1113.3,402.1,1113.1,401.7,1113.3,401.2z"/>
	<path class="st2" d="M1205.2,418.7c0.1-0.6,0.5-0.6,1-0.6C1206,418.6,1205.7,418.8,1205.2,418.7z"/>
	<path class="st2" d="M1206.1,418.2c0.2-0.3,0.4-0.4,0.8-0.3C1206.7,418.2,1206.4,418.3,1206.1,418.2z"/>
	<path class="st2" d="M1112.6,400.6c0.4,0,0.7,0.1,0.7,0.6C1112.9,401.3,1112.7,401,1112.6,400.6z"/>
	<path class="st1" d="M941,206.2c0,0.1,0,0.2,0,0.4c-3.2,7.9-6.9,15.6-12,22.5c-11.6,15.4-26.6,26-45.1,31.4
		c-8.3,2.4-16.8,3.5-25.5,3.4c-8.1-0.1-16-1.5-23.7-3.8c-2.7-0.8-5.4-1.7-8.1-2.5c0.5-3,1.9-5.6,3.1-8.3c3.2-7.2,7.7-13.6,12.6-19.8
		c0.3-0.2,0.6-0.4,0.9-0.5c4.2,1.1,8.4,0.3,12.5-0.2c11.2-1.6,21.8-5.1,31.5-10.9c8.1-4.8,15.3-10.7,21.4-17.8
		c0.3-0.1,0.6-0.2,0.9-0.3C920.4,199.9,930.8,202.2,941,206.2z"/>
	<path class="st14" d="M1035.2,589.2c0.7-6.3,2.5-12.3,5.2-18c-0.4,5.2-2,10.1-3.8,15C1036.3,587.2,1036.2,588.4,1035.2,589.2z"/>
	<path class="st15" d="M1041.2,568.5c0.1-0.3-0.1-0.7,0.4-0.8C1041.4,568,1041.3,568.3,1041.2,568.5z"/>
	<path class="st14" d="M1034.9,590.1c-0.1-0.1,0-0.2,0.1-0.3C1035,590,1035,590.1,1034.9,590.1z"/>
	<path class="st7" d="M699.9,321.1c-0.5,1.7-1,3.3-1.6,5c-2.7,5.6-5.4,11.2-9,16.3c-6.2,8.7-13.6,16.3-22.6,22.2
		c-1-1.9,0.5-3.2,1.1-4.7c6.4-16,17-28.5,31-38.3C699.1,321.3,699.6,321.2,699.9,321.1z"/>
	<path class="st2" d="M704.7,295.3c0,0.2,0,0.5-0.1,0.7C704.4,295.7,704.4,295.5,704.7,295.3z"/>
	<path class="st15" d="M701,319.5c-0.1,0.2-0.3,0.3-0.4,0.5C700.6,319.8,700.5,319.4,701,319.5z"/>
	<path class="st2" d="M842.3,229.3c-9.7,0-19.1-2.1-28.2-5.2c-0.4-0.1-0.8-0.2-1.2-0.3c-0.1-0.1-0.2-0.2-0.2-0.3
		c2.7-2.5,5.4-5.1,8.1-7.6c4-3.7,8.6-6.6,13-9.7c9.6-4.3,17.9-10.4,26-17c10.2-8.4,22.3-13.5,35.3-16.2c9.8-2,19.7-1.8,29.6-0.9
		c0.1,0.1,0.2,0.3,0.2,0.4c-1.3,4-3.1,7.8-5.1,11.6c-2.9,5.6-6.7,10.5-10.4,15.5c-0.3,0.1-0.6,0.2-0.9,0.3
		c-13.7-0.6-26.6,2.6-38.8,8.5c-10.3,5-19.3,11.7-26.7,20.4C842.8,229,842.6,229.1,842.3,229.3z"/>
	<path class="st14" d="M833.8,206.2c-4.4,3.1-9,6-13,9.7c-2.7,2.5-5.4,5.1-8.1,7.6c-6.7-1.5-13.4-2.7-20.2-2.9
		c-11.9-0.3-23.3,1.7-34.3,6.1c-0.9,0.4-1.8,0.6-2.7,0.9c-2.1-14.5-7.3-27.7-16-39.6c-0.2-0.3-0.3-0.6-0.4-0.9
		c4.1,3.4,8,7.1,12.4,10.2c10.1,6.9,21.1,11.6,33.2,13.8c5.8,1.1,11.6,1.4,17.4,1.4c10.3,0,20.1-2.2,29.6-5.8
		C832.4,206.5,833,206.1,833.8,206.2z"/>
	<path class="st9" d="M731.8,298.1c3.1-6.1,7.1-11.5,12.2-16.2c-0.7,2.9-2.6,5.2-4.3,7.5c-1.8,2.5-3.8,4.8-5.8,7.2
		C733.4,297.2,732.8,298.1,731.8,298.1z"/>
	<path class="st9" d="M745.9,279.5c0-0.4,0.1-0.8,0.5-0.9C746.5,279,746.3,279.3,745.9,279.5z"/>
	<path class="st9" d="M743.9,281.9c0-0.3,0.2-0.5,0.5-0.5C744.3,281.6,744.1,281.8,743.9,281.9z"/>
	<path class="st9" d="M731.5,298.6c-0.1-0.3,0-0.4,0.3-0.5C731.7,298.3,731.6,298.4,731.5,298.6z"/>
	<path class="st0" d="M843.1,228.8c7.4-8.7,16.4-15.5,26.7-20.4c12.2-5.9,25.1-9.1,38.8-8.5c-6.1,7.2-13.3,13-21.4,17.8
		c-9.8,5.8-20.3,9.3-31.5,10.9C851.6,229.1,847.3,229.9,843.1,228.8z"/>
</g>
</svg>
