<svg xmlns="http://www.w3.org/2000/svg" viewBox="0 0 948 296" xmlns:v="https://vecta.io/nano"><path d="M217.5 102.9c0 20.5-14.8 37.7-32.3 37.7-12.5 0-22.7-6.4-28.4-16.7v39h-5v-96h5v15c5.7-10.3 15.9-16.7 28.4-16.7 17.6.1 32.3 17.2 32.3 37.7zm-5 0c0-17.7-13-32.6-28.3-32.6-16 0-27.4 13.5-27.4 32.6 0 19.2 11.4 32.7 27.4 32.7 15.4 0 28.3-14.9 28.3-32.7zm10.9 0c0-20.5 17.1-37.6 37.3-37.6s37.2 17.1 37.2 37.6-17 37.7-37.2 37.7-37.3-17.3-37.3-37.7zm69.5 0c0-17.7-14.8-32.6-32.2-32.6-17.5 0-32.3 14.9-32.3 32.6 0 17.8 14.8 32.7 32.3 32.7 17.4 0 32.2-14.9 32.2-32.7zm-35.2-63.3h6.1l15 19.1h-6.1l-12-14.8L249 58.7h-6.1l14.8-19.1zm49.1 2h5v97.3h-5V41.6zm75.9 84.1l3.5 3.8c-6 6.5-18.5 11.1-30.1 11.1-19.2 0-35.4-17.3-35.4-37.9 0-21 15.6-37.5 35.4-37.5 20.6 0 34.3 16 34.3 40h-64.5c1.1 16.7 14.6 30.4 30.2 30.4 10.3 0 20.6-3.4 26.6-9.9zm-56.8-25.5h59.5c-.8-18-12.3-29.9-29.2-29.9-16.2 0-29.2 13.1-30.3 29.9z" opacity=".2"/><path d="M284.9 128.9l-.1 2.6c-.1.8-.1 1.3-.3 1.4-.3.2-.4.7-.2 1.4.2.9.2 1.6-.2 2.1-.2.7-.3.5-.2-.5.2-1.4-.2-.9-1.2 1.4-.8 1.8-1.1 3-.9 3.4.1.1.4-.3.9-1.4.2-1 .5-1.5.7-1.5.2.2.1.8-.3 1.6-.4.9-.7 1.3-.9 1.3s-.5.3-.9.9l-1.3 2.1c-.5.7-.8 1.5-1.1 2.2s-.4 1.2-.4 1.5c.2.3.2.5-.2.5-.1-.2-.4-.1-.8.3s-.8.9-1.1 1.5l-2.1 2.9c-.2.3-.5.2-.7-.3-.1-.2-.2-.3-.3-.3s0 .3.1.9c-.1.8-.5 1.3-1 1.4-.6-.1-.9.3-.9 1.4.2.8.2 1.2-.2 1.2-.1-.2-.2-.3-.3-.1s-.1.4 0 .6c0 .7-.2.9-.5.5a.47.47 0 0 0-.5.5c0 .2-.1.3-.2.2s-.2-.3-.3-.5l-.5-1v1 1.5c.1.3-.2.9-.9 1.7s-1.2 1.1-1.5 1c-.3 0-.5.3-.5.9-.2.8-.5 1.1-.9.9-.1-.1-.3-.1-.5.2-.2.2-.5.5-.7.9-.5 1-1 1.5-1.7 1.5-.6 0-.7.1-.5.3.3.2.3.6-.1 1-.4.5-.8.6-1.3.5-.6-.1-.7-.1-.5 0 .2.2-.3 1.1-1.6 2.6s-2.7 2.7-4 3.8c-.5.3-1.1.8-1.8 1.5-.7.6-1.3 1.2-1.8 1.8-.3.5-1.1 1.1-2.3 1.9l-3.9 2.4-3.8 2.1c-1.1.6-1.9.9-2.2.9-.2 0-.7.2-1.4.7-.2.2-.8.5-1.8.9-1 .3-1.9.8-2.8 1.4-1.8.7-3.4 1.2-4.8 1.5l-6 1.2c-2.2.3-3.2 1.4-2.9 3.1 0 .7-.2 1-.5 1-.2.2-.3.5-.2.7.2.2.1 1.1-.3 2.6-.2.6-.4 1.1-.5 1.7s-.1 1 .2 1.2c.2.3.1.6-.3.9-.3.3-.5 1.1-.5 2.4v1.5.7c-.3.1-.7.7-.9 1.7-.3 1-.3 1.7-.1 2.1 0 .3-.1.5-.2.5-.2 0-.5.7-.9 2.2l-.5 3.3c.1.2.3.2.7-.2.5-.8.6-.7.3.2-.2.2-.3.5-.3.9v.9c0 .5-.1.6-.3.3-.2-.6-.6-.5-1 .3-.5.8-.6 1.7-.3 2.6l.2 1.2.2-1 .3-.9c0-.1.1.1.2.6.1.2.1.6.1 1-.1.5-.1.9-.1 1.2-.1.9-.4 1.1-.9.7-.1-.2-.2-.3-.3-.1s0 .5.3 1.1c.3 1 .2 1.5-.3 1.5-.6-.1-.7.6-.5 2.1v4.1c-.1.6-.3.7-.5.5-.5-.2-.6-.1-.3.5v.9c0 .4-.1.6-.3.9s-.4.9-.5 1.7l-.2 2.4v2.1c0 .6.1.9.3.9.5 0 .4.5-.2 1.5-.3 1.3-.8 1.7-1.4 1.2l-.6-.3c-.2-.1-.2 0-.1.1-.2.5-.6.4-1.2-.2-.8-.7-1.3-.9-1.5-.7-.3.3-.7 0-1.2-1-.2-.8-.6-1.2-1.2-1.2-.7.1-1.1-.7-1.2-2.3-.1-1.7.1-4.4.5-8.2.5-4.4 1.2-9.4 2.2-15.1a197.72 197.72 0 0 1 3.9-17.5c1-4 1.6-6.7 1.6-8.2.1-1.4-.3-2.1-1.1-2-.7 0-.9-.6-.5-1.9.2-.6.8-.9 1.7-.9l1.5-.3.3-1.4c.1-.5.2-.9.3-1.5.1-.5.3-1.1.5-1.8.2-1.3.5-2.3.7-3.2s.3-1.3.3-1.5c-.2.1-.5.2-.7.2-.2.1-.4.2-.6.2s-.4.1-.6.2c-.6.2-1.6.5-3.2.8-1.5.3-3.2.5-5.1.8-9.4 1-16.2-.3-20.4-4.1-.6-.6-1.2-1.2-2-1.8-.7-.6-1.3-1.1-1.6-1.5s-.8-.9-1.3-1.8l-1.5-2.7c-.5-1-.9-1.9-1.2-2.9s-.5-1.7-.5-2.3c0-.9-.1-1.1-.3-.7-.2.5-.5.5-.9 0-.1-.3-.2-.9-.3-1.5l-.3-2.3c-.1-.9-.1-1.7 0-2.5s.1-1.4.3-1.7c.1-.5.2-.4.3.1s.1 1.4.1 2.7c.1 2.3.3 3.3.4 2.9.2-.3.4-1.8.6-4.5 0-.6.1-1.1.2-1.6s.2-.8.3-.8c.3-.1.5-.5.5-1.2 0-.2.1-.6.3-1.2s.4-1.1.8-1.7c.5-1.1.6-1.9.3-2.4-.2-.3-.1-.4.3-.2.3 0 .5-.1.5-.2s.2-.5.6-1.3a53.32 53.32 0 0 0 1.4-2.6c.5-1 1.1-1.9 1.6-2.8.6-.9 1-1.7 1.4-2.2 1.3-1.8 2.3-3.3 3.3-4.4.9-1.1 1.4-1.6 1.5-1.5s0 .5-.3 1c-.9.9-1.6 1.8-2.1 2.6s-.7 1.3-.6 1.5c0 .1-.2.3-.5.7-.2 0-.6.4-1.2 1.3s-1.2 1.9-1.9 3.2c-1.3 2.3-2.1 3.8-2.4 4.5s-.2.9.3.5c.1-.1.1.1.1.5-.1.5-.2 1-.5 1.6s-.6 1.3-.9 1.9-.5 1-.6 1.1-.2.3-.3.7c-.1.3-.1.7-.3 1v1.5c0 .6-.1 1.2-.2 1.8s-.1 1-.1 1.4c.1.3.1.5.1.3.3-.3.5-.9.5-1.5.1-.7.4-1.7.8-3.2.4-1.4.8-2.5 1.1-3.2.2-.2.4-.6.5-1 .1-.5.3-.9.5-1.4.2-.6.5-1.3.9-2.1s.9-1.6 1.5-2.4c.5-.8.8-1.5 1.1-2.1s.4-1 .4-1.1 1-1.5 3.1-4.3c.5-.5.9-1 1.2-1.7.3-.5.5-.7.4-.7s-.5.2-1.3.7l-1.4 1 1.2-1.2c.2-.2.5-.5.9-.7.3-.2.6-.3.7-.2.3.2.8 0 1.5-.8.6-.7.9-1.4.9-2 0-.7.1-.9.3-.7.3 0 1.1-.6 2.2-1.7.5-.5.9-.8 1.2-1.1s.6-.5.7-.6c.1 0 .7-.5 1.7-1.5 1.1-1 1.4-1.7.9-1.9-.7-.6-1.8 0-3.3 1.7-.3.5-.9 1-1.6 1.7s-1.5 1.4-2.1 2.1a20.93 20.93 0 0 1-1.8 1.6c-.5.4-.8.5-.8.4 0-.2.5-.9 1.5-1.9l3.3-3.3c1.2-1.2 2.3-2.3 3.3-3.2s1.7-1.4 1.9-1.4.2.3-.2.9c-.3.5-.4.7-.2.8s.5-.1.9-.6c.2-.2.8-.6 1.6-1.1.9-.5 1.9-1.1 3-1.8s2.2-1.3 3.2-1.9 1.6-1 1.8-1.2c.6-.5 1-.7 1.2-.7.5-.2 1.3-.7 2.4-1.3s1.7-1 1.7-1.1c-.1-.2-.9-.1-2.2.3-1.4.5-2.2.9-2.6 1.2-.2.1-.7.4-1.4.9a41.94 41.94 0 0 1-2.2 1.5c-.9.6-1.8 1.1-2.7 1.7s-1.5 1-2 1.2c-.9.7-1.7 1-2.2 1-.3-.2-1.2.2-2.6 1.4-1.4 1.1-3 2.6-5 4.5-.7.6-1.5 1.4-2.4 2.4l-2.7 3c-.9 1-1.7 1.8-2.2 2.6-.6.7-.9 1.2-.9 1.3s-.1.2-.2.3l-.7.7c-.3.3-.9 1.1-1.6 2.4s-1.5 2.6-2.4 4.1-1.6 2.9-2.2 4.3-1 2.3-1.1 2.7c-.3 1.4-.6 2.1-.9 2.1s-.3-.5 0-1.6.9-2.5 1.5-4.2c.7-1.7 1.5-3.5 2.5-5.4s2-3.6 3-5.2c1.4-2.1 2.9-4.2 4.7-6.4s3.7-4.3 5.8-6.3a81.14 81.14 0 0 1 6.4-5.5c2.2-1.7 4.2-3.1 6.2-4.2.9-.6 2.1-1.2 3.5-2 1.4-.7 2.7-1.4 3.7-2 1.1-.7 2.5-1.4 3.9-2.1 1.5-.7 3-1.3 4.5-2 1.5-.6 2.9-1.2 4.1-1.6 1.3-.5 2.2-.8 2.9-1 1.5-.3 1.9-.7 1.4-1-.6-.2-.3-.3.7-.2.9 0 1.3-.1 1-.3-.5-.8 3.6-1.5 12.2-2.2l4.9-.3c1.2-.1 2.2-.1 3-.1s1.5.1 2.1.3 1.4.4 2.3.6c1.1.5 2.5 1 4 1.6s2.9 1.2 4 1.8c1.3.6 2.4 1.1 3.5 1.7s1.8 1 2.1 1.2c.5.2 1.2.7 2.1 1.4a22.07 22.07 0 0 1 3 2.5c1 1 2.1 1.9 3.1 2.9s1.9 1.9 2.6 2.7c1.5 1.6 2.8 3.9 3.9 6.8 1.5 2.7 2.1 5.3 2.2 7.7zm-105.6 24.8c-.3.8-.5 1.3-.4 1.6s.2.2.4-.3c.1-.2.2-.5.3-.9.1-.3.1-.6 0-.9 0-.6-.1-.5-.3.5zm.7 9.7c.1-.2.1-.6.1-1-.1-.5-.1-.8-.3-1-.3-.5-.5-.1-.5 1 .1 1 .2 1.6.3 1.8s.3-.1.4-.8zm.1-5.6c.1-.5.2-.9.3-1.5.1-.5.1-.9.3-1.3.1-.7.4-1.7.8-3.1s.9-2.7 1.6-4.1c.6-1.4.7-2.1.3-2.1a.47.47 0 0 0-.5.5c0 .2-.2.7-.7 1.4-.3.6-.5.9-.6.9s0-.2.1-.7c.2-.8.2-1.1 0-.9s-.6 1-1.2 2.2c-.3.6-.6 1.1-.7 1.6s-.1.8 0 .8c.2.2.5-.2.9-1.4.2-1.3.5-1.8.7-1.5.1.1.1.6-.1 1.4s-.4 1.8-.8 2.9c-.2 1.1-.5 2.2-.7 3.3-.2 1-.3 1.7-.2 1.9.1.6.2.8.2.8 0-.1.1-.4.3-1.1zm63.6 15.4c.5-.2.9-.5 1.4-.9s.8-.7 1-.9c.3-.3.9-.8 1.5-1.5.7-.6 1.3-1.2 1.9-1.8.7-.6 1.3-1.1 1.8-1.6s.8-.8.9-.8c.6-.9 1.4-1.9 2.6-2.8 1.1-1 1.9-1.5 2.2-1.6.6 0 .9-.2.9-.7 0-.2.3-.7.9-1.5s1.3-1.7 2.1-2.6c2.7-3.3 5-6.2 6.8-8.7s3.3-4.6 4.5-6.5 2.1-3.6 2.7-5.2 1-3.2 1.4-4.8c.1-.7.1-1.6.1-2.7-.1-1.1-.2-2.3-.5-3.5l-.9-3.9c-.3-1.3-.7-2.6-1.2-3.6-1.6-4.1-5.2-8.1-10.6-12-.3-.2-1.1-.6-2.1-1-1.1-.5-2.1-.9-3.2-1.3-1-.4-1.9-.7-2.7-.9s-1.1-.2-.9 0c.3.3-.1.7-1.5 1-1.3.3-3.8.6-7.5.9l-3.3.3c-1 .1-1.5.1-1.6.3 0 .2-.4.5-1.1.7s-1.6.5-2.5.7l-11.3 4.2c-3.1 1.2-5.8 2.5-8.2 3.9-.9.3-1.5.7-1.6 1s.1.3.8-.2c.6-.2.7-.1.5.3-.3.3-.9.5-1.5.5-.9.2-1.3.5-1.2.7a.47.47 0 0 1-.5.5c-.3 0-.5-.4-.5-1.2.1-.9 0-1.2-.3-.9-.2.1-.5.3-.9.4-.3.2-.7.4-1.2.6-.7.2-1.1.5-1.3.9-.2.3.1.5.8.5.5-.2.7-.5.7-.7a.47.47 0 0 1 .5-.5c.2 0 .5.3.7 1 0 .7-.3 1-.9.9-.6-.2-1.3-.1-2.1.5s-1.1 1.2-1 1.9c0 .8-.3 1.2-1 1.2-1.4.1-1.9 0-1.7-.3 0-.2-.6-.1-1.7.5s-1.7 1-1.7 1.4-.5.5-1.4.5c-.8 0-2.2 1-4.3 3.1-.8.9-1.5 1.7-2 2.2-.5.6-.8.9-.8 1 0 .2.5.2 1.5-.1s1.7-.7 2.1-1.1c.3-.1.3-.5 0-1-.3-.2.2-.9 1.5-2.1 1.3-1 2.1-1.5 2.6-1.5.2 0 .5-.1.9-.4.3-.3.7-.5 1.2-.8 1.1-.8 1.7-1 1.7-.7 0 .2-.5.7-1.5 1.5-1 .7-1.7 1.1-2.1 1.1-.2-.2-.3-.1-.3.3 0 .2-.2.3-.7.3-.5-.5-.8-.3-1 .3-.3.3-.3.5.2.5.3 0 .5.2.3.5-.1.5-.4.5-.9 0-.5-.8-.9-.4-1.2 1.2-.1.6-.5 1.3-1.1 2.1s-1.1 1.1-1.5.9c-.2-.1-.8.1-1.7.8-.9.6-1.3 1.1-1 1.3.2 0 .6-.3 1.2-.9.7-.5 1-.6 1-.3 0 .1-.1.3-.3.6s-.4.5-.6.8c-.7.7-1.2.9-1.5.5-.3-.6-.7-.5-1 .2-.7.8-.7 1.2-.2 1.2.6.2.2 1-1 2.4-.9 1.1-1.8 2.5-2.7 4.2s-1.7 3.3-2.5 5c-.7 1.7-1.4 3.2-1.9 4.7s-.8 2.7-.8 3.6l-.3 1.9c-.1.6-.3.9-.5 1-.3.3-.4.5-.2.5.5 0 .7 1.3.7 4 .1 1.6.3 2.7.4 3.4a8.26 8.26 0 0 0 1.1 2.4c.6 1 1.2 1.9 2 2.5.7.6 1.7 1.1 3 1.3s2.8.3 4.7.3 4.3-.1 7.3-.3c2.6-.2 4.8-.4 6.5-.6s2.6-.4 2.7-.6c.3-.3.9-.5 1.5-.5 1.3-.2 2.5-.5 3.8-.9s2.1-.8 2.4-1.3c.1-.2.3-.7.5-1.3s.5-1.3.7-2l1.9-6c.8-2.5 1.5-4.6 2.1-6.2.2-.6.5-1.7.9-3.3s.8-3.2 1.3-4.8c.3-1.6.7-3.1.9-4.4.3-1.3.5-2.1.8-2.3 0-.3-.3-.1-.9.7-.3.3-.8 1.1-1.3 2.1-.5 1.1-1.1 2.3-1.6 3.5-.5 1.3-.9 2.4-1.5 3.4-.5 1-.9 1.7-1.1 1.9-.7.8-1.1.9-1.4.3-.2-.6-.1-1.7.3-3.5.5-1.8 1.3-3.8 2.4-6.1.6-.9 1-1.8 1.3-2.6s.4-1.3.3-1.5c-.3-.3-.3-.5.2-.5.2 0 .5-.3.9-.8.3-.5.7-1.1 1-1.6 1.1-2.2 2-3.8 2.7-4.9.6-1.1 1.1-1.9 1.5-2.3.3-.5.7-.7 1-.7h1.4c.6 0 1.1.1 1.5.2.5.1.6.3.5.5 0 .3.3.5 1 .5.6-.1 1.1.1 1.6.6s.7 1.2.4 2c0 .2-.1.8-.3 1.8l-.6 2.8a66.05 66.05 0 0 1-.9 4.1c-.3 1.6-.7 3.2-1 4.8s-.7 3.2-1.1 4.7l-1.1 4c-.7 2.4-1.2 3.4-1.5 2.9-.2-.2-.3-.1-.2.5.1.3.1.9.1 1.5-.1.7-.2 1.5-.4 2.3-.2.9-.5 1.7-.8 2.4s-.5 1.3-.8 1.8c-.9 1.4 1.3.6 6.5-2.2 1.5-.8 2.7-1.4 3.8-1.8 1-.4 1.5-.5 1.5-.4 0 .3-.4.6-1.2.9-1 .2-1.3.6-.9 1 .1.2.1.3-.2.3-.5-.5-.8-.3-1 .5-.2.3-.4.5-.5.6s-.2 0-.2-.3c0-.6-.2-.6-.7-.2-.5.5-.8.6-1 .3-.2-.2-.3-.1-.3.3 0 .2-.2.3-.5.3-.3-.3-.5-.3-.5.2s-.8 1-2.4 1.5c-1.3.6-2.2 1.2-2.7 1.9-.6.7-1.1 1.8-1.5 3.3l-.3 1.5 5-2.7c1.4-.9 2.5-1.7 3.4-2.3s1.4-1 1.4-1.1c-.2-.1-.3-.2-.2-.3s.3-.2.5-.2c.6 0 .7.4.3 1.1s-.9 1.2-1.6 1.5c-.9.5-1.4.9-1.4 1.4.1.1.1.2.1.3-.1.1-.1 0-.3-.1-.3-.1-.6.1-.9.5-.1.1-.5.3-1 .7-.6.3-1.2.7-2 1-.7.3-1.5.7-2.1.9-.7.3-1.2.4-1.5.4-.2 0-.3.2-.3.7.1.2.1.7-.2 1.3-.2.6-.5 1.3-.7 2.1-.6 1.4-1.1 2.8-1.5 4.4-.4 1.5-.7 2.7-.8 3.3 0 .6.3.8.9.6s1.7-.6 3.3-1.3c.9-.3 1.9-.8 2.9-1.3s1.9-.9 2.7-1.1c.7-.3 1.6-.8 2.7-1.5l3.3-1.8 2.7-1.6c.8-.5 1.3-.9 1.4-1.1a1.54 1.54 0 0 1 .7-.7c.1 0 .4-.2.8-.5zm-60-30c-.2 0-.6.4-1.2 1.1s-.8 1.3-.7 1.8c0 .5.2.4.5-.2 0-.5.4-.8 1.2-1 .6 0 1.1-.3 1.5-1 .5-1.1 1.2-2.3 2.2-3.6.6-.7.9-1.3.9-1.7 0-.5-.3-.4-.9.2-.6.3-.9.3-.9 0a.47.47 0 0 1 .5-.5c.6-.1 1-.2 1.2-.3s.6-.5 1.2-1c.6-.6.9-1.1.9-1.5-.3-.3 0-1.1 1-2.4 1.1-1.1 1.6-1.9 1.4-2.2-.1-.1-.5.2-1.1.9l-2.1 2.4a32.53 32.53 0 0 0-2.3 2.9c-.7 1-1.3 1.9-1.6 2.6-.8 1.3-1.3 2.1-1.5 2.6s0 .2.6-.7c.2-.3.5-.7.9-1 .3-.3.6-.5.7-.5.5 0 .3.5-.5 1.5-.6.8-.9 1.5-.9 2.2 0 .2-.3.5-.9.7-.8 0-.9-.2-.2-.5.2-.2.3-.4.3-.5.2-.4.1-.4-.2-.3zm18.2-26c.2-.2.1-.3-.5-.3-.9.6-1 .9-.2.9.5 0 .7-.2.7-.6zm2.8 115.4l.3-3.2c.1-1 .2-1.6.2-2 0-.5.3-1.9.8-4.2l1.7-7.9c.6-2.9 1.3-5.8 2-8.7s1.2-5.1 1.5-6.7l1.4-5c.3-1.1.5-2 .6-2.5s.1-.8 0-.9-.2-.2-.4-.3c-.6-.2-.9-.2-1.1.2-.2.3-.5 1.5-1.1 3.4-.7 2.7-1.4 5.8-2.2 9.1s-1.5 6.6-2.2 10c-.7 3.3-1.3 6.5-1.8 9.4-.5 3-.9 5.5-1.1 7.6-.2 2.2-.3 4.1-.2 5.9s.3 2.3.7 1.6c.2-.8.2-1.3 0-1.5-.3-.3-.3-.5.2-.5.1 0 .3-.4.4-1.1 0-.7.2-1.6.3-2.7zm.9 7.6c.2-.6.2-1 0-1.4-.1-.2-.2-.3-.3-.1s0 .4.1.8c0 .4 0 .6.2.7-.1.3 0 .2 0 0zm.5-8.9c0-.7-.1-1.1-.2-1.4-.1-.2-.2 0-.2.7 0 .9.1 1.1.4.7zm.8-1.2c.2-.3.1-.9-.3-1.5-.3-.5-.5-.7-.6-.7s0 .2.3.7c.1.2.2.5.3.9.1.3.1.6.3.7-.1.2-.1.2 0-.1zm-.1-4.5c-.2-.5-.3-.3-.3.5 0 .6.1.7.3.5.1 0 .2-.1.2-.3-.1-.2-.1-.5-.2-.7zm1.5-108.2c-.2-.2-.6-.2-1 .2-.5.3-.7.6-.7.9 0 .2.3.2 1-.2.6-.5.8-.8.7-.9zm-.5 107.4c.1.2.3-.2.5-1.2s.5-2.3.7-4l.6-4.3c.2-1.3.2-2 .1-2.2s0-.5.3-.7c.2 0 .3-.6.3-1.7l-.3-1.7-1.6 7.5-1.1 5.2-.5 2.6c0 .3.2.4.5.2.3-.4.5-.3.5.3zm0 2.7c0-.6-.1-.7-.3-.5-.3.3-.5.6-.5.9.2.9.4.7.8-.4zm1.4 2.1c.2-1.4.3-2.4.3-3.2-.1-.7-.2-.5-.4.6l-.8 3.9c-.2 1.1-.1 1.5.1 1.3.2 0 .4-.3.4-.8 0-.6.1-1.2.4-1.8zm5.8-23.7c.1-.7-.1-1-.5-.9-.2 0-.5.6-.9 1.7s-.8 2.5-1.2 4l-1.2 4.6c-.4 1.5-.7 2.7-.8 3.5 0 .6-.1 1.1-.2 1.7s-.3 1.1-.5 1.7l-.3 2.1c.1.1.3 0 .8-.3.3-.3.7-.5 1-.3 0 .1 0 .1.1 0s.1-.3.1-.5v-.9c0-.4.1-.7.2-.9.5-.9.3-.9-.3 0-.5.9-.6.6-.3-.9.2-2.2.4-3.5.5-4.1s.5-1 1-1.2c.2-.1.4-.3.6-.7.2-.3.3-.7.4-1 .1-.5.2-.9.3-1.5.1-.5.1-.9.3-1.1.1-.7.1-.7-.2-.2-.5.6-.7.5-.7-.2 0-.6.3-.9.9-.9.6-.2.7-.7.3-1.4-.1-.2-.1-.4-.1-.6.1-.2.1-.3.1-.4v-.3c.1 0 .4-.4.6-1zm-3.4 2.5c.2-.7.2-.9-.2-.5-.2.1-.5.1-.7-.2l-.2-.3v-.2c-.2.2-.2.6 0 1.2s.5.9.7.9c.1-.1.2-.2.2-.3 0-.3.1-.4.2-.6zm3.1-14.9c-.1-.8 0-1.1.3-1 .1.1.2.1.3 0s.1-.3 0-.5c0-.2-.1-.4-.2-.6s-.3-.2-.5-.1c-.6 0-.9.3-.9 1 .1.2.1.9-.2 2.1-.2 1.1-.5 2.3-.9 3.6a94.49 94.49 0 0 1-.9 3.6c-.2 1.1-.3 1.8-.3 2.1 0 .6.2.8.5.8.3-.1.6-.4.9-1.1.1-.3.2-.9.2-1.5 0-.7.1-1.3.2-1.9-.2-1.3-.1-2 .5-2.2.2-.2.3-.6.2-1.2-.2-.2-.3-.4-.3-.4.1-.1.2 0 .4.3.7.1.9-.8.7-3zm-2.1 18c.3-.1.5.1.5.5.2.5.1.7-.3.7a1.08 1.08 0 0 1-.7-.3c0-.2.2-.5.5-.9zm1.4-37.6c.6 0 .9-.2.9-.5.3-.3 0-.5-1-.5-.8.2-1.1.5-1 .7.3.2.7.3 1.1.3zm.3 6.4l-1.3 5.2c-.1.5.1.6.4.3s.5-.2.5.3c.1.7.4.6.8-.3s.9-2.6 1.5-5c.3-1.3.6-2.3.8-3.3.2-.9.3-1.5.3-1.7-.5-.2-.9.1-1.5.9-.5.8-1 2-1.5 3.6zm.5-9.3c-.7.2-1.2.5-1.5.9s-.2.5.3.4c.5 0 1-.1 1.7-.3.6-.3.8-.7.7-.9-.1-.3-.5-.3-1.2-.1zm1.2 29a.47.47 0 0 0 .5-.5c-.1-.6-.3-.8-.7-.6-.3.2-.6.5-.9 1.1-.3.7-.3 1 0 .9s.5-.1.5.2a.47.47 0 0 0 .5.5v-.2c0-.1 0-.2-.1-.3s-.1-.2-.1-.4c-.1-.4 0-.7.3-.7zm-.5 3.6c.2-.2.2-.6 0-1-.1-.2-.2-.3-.3-.3-.1.1 0 .3.1.6-.1.5 0 .7.2.7zm1.4-7c.3 0 .5-.2.3-.7 0-.5-.2-.7-.5-.7s-.4-.3-.2-.9c0-.6-.1-.6-.3-.2-.2.6-.5 1.3-.7 2.2s-.2 1.1.2.5c.3-.4.7-.6 1.2-.2zm4.3-18.9l.3-1.1c0-.1-.2.2-.7.8-.8.8-1.2 1.1-1.2.9-.2-.7-.3-1.3-.3-1.7 0-.5.1-.6.3-.5s.3 0 .3-.3-.2-.5-.7-.5c-.2 0-.5.5-.9 1.4-.3.9-.7 2-1 3.2s-.7 2.3-.9 3.4c-.3 1.1-.4 1.7-.3 2 .2.5.5.7.9.7a.47.47 0 0 0 .5-.5c0-.5-.2-.5-.5-.2a.47.47 0 0 1-.5-.5c-.1-.5.1-.7.5-.7.2.2.3.2.3 0-.3-.3-.2-.7.3-1 .5-.1.6-.6.5-1.5-.2-.8-.2-1.1.2-1 .2.2.5 0 .7-.7s.5-.9.9-.7c.4-.1.8-.5 1.3-1.5zm-3.8-6.7c-.3.7-.2.7.3.2.2-.6.3-.9.2-.9-.1-.1-.3.1-.5.7zm.3 23.2c.3-.3.5-.6.3-.9-.2-.2-.5 0-.7.7-.1.9 0 1 .4.2zm-.3-12.4c0-.9.1-1 .3-.3.2.5.2.8 0 1s-.3 0-.3-.7zm3.1-74.2c-.6.5-.2.5 1.2 0 .6-.2 1.1-.4 1.7-.5s1-.2 1.2-.3c.5-.5 0-.5-1.4-.2-.6.2-1.1.4-1.6.5s-.9.3-1.1.5zm1 59.4c.8-.3 1.4-.7 1.7-1s.5-1 .5-2.1c.1-.3.2-.8.3-1.4s.2-1 .4-1.4c.3-1 .7-2.6 1.2-4.8l.6-2.6c.2-.8.3-1.3.4-1.5.1-.5.4-1.4.8-2.8s.8-2.9 1.1-4.6c.3-1.6.7-3.1.9-4.4.3-1.3.4-2.1.4-2.5 0-.5-.2-.2-.7.7s-.7 1.7-.9 2.2c0 .5-.1 1-.3 1.6s-.5 1.3-.7 2c-.2.6-.5 1.4-.9 2.5s-.7 2.1-.9 3.2c-.2 1-.5 1.9-.7 2.6s-.5 1-.7 1c-.3 0-.4.2-.2.7.2.6.1 1.4-.5 2.4-.6 1.1-.8 1.7-.7 1.7s.1.2 0 .6-.3.9-.7 1.5c-.2.6-.4 1.2-.6 1.9s-.3 1.2-.3 1.5c0 .9-.2 1.7-.7 2.4-.2.6-.3.9-.2.9.3.1.7 0 1.4-.3zm-.5 4.9c.6-.3.7-1 .5-1.9s-.5-1.2-.8-.9-.4.9-.4 1.8c0 .8 0 1.3.1 1.4.1 0 .3-.1.6-.4zm2.4 9.9c0 .1.1.2.2.3a.47.47 0 0 1-.5.5c-.3 0-.4-.2-.2-.5l.5-.5v.2zm3.4-21.8c-.1-.2-.3-.3-.7-.3-.2.2-.3.5-.3.9 0 .3.2.4.5.2.4-.1.5-.3.5-.8zm1.8-5.3c.3-1.6.4-2.4.3-2.5-.2-.1-.5.7-.9 2.1-.5 1.6-.6 2.4-.3 2.4.2 0 .5-.6.9-2zm1.2-18.2c.1.6.2.8.3.7s.2-.5.3-1c0-.6-.1-.9-.2-.9-.3.2-.4.6-.4 1.2zm.7-32.1c-.2.1-.1.2.5.3.5 0 .7-.1.7-.3-.3-.3-.7-.3-1.2 0zm2.2-.9c-.5 0-.5.2-.2.5.1.3.3.5.5.5.1 0 .2-.2.2-.5a.47.47 0 0 0-.5-.5zm8.2 53.9c.6 0 .9.1.9.2s-.1.2-.2.2c-.1.1-.3.2-.5.2-.6.3-.9.3-.9 0 0-.4.3-.6.7-.6zm8.8-2c.3-.1.2.1-.4.5-.6.5-1.7 1.1-3.3 2.1l-3.5 1.8c-.4.2-.3 0 .3-.6l2.1-2.1c.5-.5.9-.6 1.2-.3.3.2.5.1.5-.3 0-.5.3-.6 1-.3.6 0 1-.1 1.2-.3-.1-.6.2-.8.9-.5zm24.5-14.8c.6-.6.9-1.1.9-1.5-.1-.2 0-.6.3-1.2s.6-1.1.9-1.7c.8-1.3 1.4-2.5 1.7-3.9.3-1.3.5-2.5.5-3.7-.1-.7-.3-.3-.7 1.2-.1.7-.3 1.3-.5 2-.2.6-.4 1.1-.5 1.3-.3.3-.5.8-.5 1.4 0 .2-.3.9-.9 2s-1.3 2.3-2.1 3.7-1.7 2.8-2.6 4.2-1.8 2.6-2.6 3.5l-2.9 3.7c-1.3 1.5-2.4 2.9-3.4 4.2s-1.9 2.3-2.6 3.3c-.7.9-.9 1.4-.7 1.4.5 0 .7.2.7.7 0 .6-.1.7-.3.5-.1 0-.7.5-1.6 1.4-1 .9-2.1 2-3.3 3.2s-2.3 2.4-3.3 3.5-1.5 1.8-1.5 2.1c-.1.5 1-.5 3.4-2.9.5-.6 1-1.1 1.6-1.6s1.1-.9 1.5-1.1c1-.6 2.1-1.5 3.3-2.9 1-1.3 1.8-1.9 2.4-1.9a.47.47 0 0 0 .5-.5c0-.1.3-.6.9-1.4s1.3-1.7 2.1-2.7c2.6-3 4.8-5.6 6.4-7.7 1.6-2.2 2.2-3.2 1.9-3.1-.2.1-.7.5-1.3 1-.6.6-1.3 1.3-2 2.1s-1.3 1.6-2 2.4c-.6.8-1.1 1.4-1.5 1.9-.2.3-.5.7-.8 1s-.5.5-.8.5-.8.3-1.4.9-.7 1.1-.5 1.3c.3.2-.1.9-1.4 1.9-3.2 2.3-2.9 1.4.9-2.7 2.1-2.4 3.7-4.4 5-6s2.6-3.4 3.9-5.3c.6-.8 1.1-1.6 1.7-2.4.6-1.2 1-1.8 1.2-2.1zm-17 21c0-.2-.5.2-1.6 1.3s-2.1 2.1-3 3.2c-.7.9-.9 1.3-.8 1.2.2-.1.9-.8 2.1-2.1.9-.9 1.7-1.7 2.3-2.4.7-.7 1-1.1 1-1.2zm6.4 3.6c.3-.3.2-.5-.3-.5-.3 0-.5.2-.5.7s.1.6.3.3c.1 0 .3-.2.5-.5zm13.2-21.9c.2-.2.4-.5.4-.8.1-.3 0-.4-.1-.3-.1 0-.4.3-.9 1-.1.2-.2.5-.2.7v.3c.4.2.6-.2.8-.9zm1.6-2.9l.3-.9-.7.3c-.2.5-.4.7-.5.9-.1.1-.2.2-.2.3 0 .6.1.7.3.5.3-.1.5-.5.8-1.1z"/><path d="M326.8 208.3c0-.1.3-.5 1-1l2.3-2.1 2.4-2.2 1.5-1.4-.2 1.5c-.1.5-.4 1.1-.9 2s-1.1 1.7-1.6 2.5l-1.5 1.9c-.4.5-.5.5-.3.2-.2.6-.5 1.1-.7 1.5-.2.5-.5.8-.7 1l-4.5 5.2c-1.8 2.1-3.8 3.9-5.8 5.7-2 1.7-3.9 3.1-5.7 4-1.8 1-3.1 1.1-4 .4-4-.3-6.9-1.7-8.6-3.9-.3-.5-.8-1-1.3-1.5l-1.3-1.5c-1-.9-1.8-2.4-2.4-4.4l-1.4-5.4-.2-10-.7 2.1c-.8 1.8-1.9 3.9-3.2 6.3l-4 6.8-3.7 5.6c-1.1 1.5-1.9 2.4-2.4 2.7-.2 0-.6.2-1.2.6s-1.1.8-1.7 1.1c-2.6 1.7-5.8 2.1-9.6 1-.6-.2-1.2-.5-2-.9l-1.6-.9c-.3-.3-.7-.7-1.2-1s-.8-.5-1-.5c-.7-.5-1-1.1-1-1.9 0-.5-.1-.9-.3-1.5-.2-.5-.4-.9-.6-1.1-.5-.5-.7-1.4-.9-2.7l-.1-4.7c.1-1.8.3-3.7.7-5.7a54.75 54.75 0 0 1 1.5-5.8c.3-1.3.9-2.7 1.5-4.2l2.1-4.8 2.2-4.7c.7-1.5 1.5-2.7 2.1-3.8 7.8-11.9 16.1-17.7 24.9-17.5.7 0 1.5.1 2.4.3s1.8.5 2.7.9 1.7.8 2.4 1.2 1.1.8 1.2 1.1c.2.5.7.6 1.5.3 1-.3 1.6-.2 1.7.5.5.5.9.7 1.4.7 2.2 0 3 .5 2.4 1.4-.2.2-.5 1-.9 2.4l-1.3 4.5c-.5 1.6-.9 3.1-1.3 4.5s-.7 2.1-.8 2.2c-.5.7-.4.9.2.7.2-.1.4 0 .4.4.1.4 0 .6-.1.6-.2 0-.3.2-.3.5.1.3 0 .5-.3.5-.2 0-.5.3-.7.9s-.5 1.1-.7 1.3c-.5.2-.7.5-.7.9a8.33 8.33 0 0 0 .1 1.2c.1.7 0 1.1-.3 1.4-.2.3-.4 1.7-.6 4s-.3 4.8-.4 7.6l-.2 7.7c0 2.4.1 3.8.2 4.1.1.7.4 1 .9 1 .2-.1.3.2.3.9s.1 1.2.3 1.5c.6.9 1.9 1.2 4 .8s4.4-1.3 7-2.8c1.3-.6 2.3-1.2 3.1-1.8s1.4-1.2 1.9-1.6c.2-.1.6-.4 1.2-.9s1.1-1 1.7-1.5 1.1-1 1.5-1.5c.5-.5.8-.7 1-.7.3-.1.6-.3.9-.4.2-.2.2-.3 0-.4-.1-.2-.1-.5 0-.8s.4-.3.9-.1c.3.1.6.1.8.1.9-.4.8-.5.6-.6zm-67.1.1c.2.6.5.6.7.1s.6-1.8 1.2-3.9c.5-1.5 1-3.2 1.6-5.1s1.2-3.5 1.8-4.7l1.9-4c.7-1.4 1.3-2.4 1.7-3.1 1.1-1.7 1.7-2.8 1.7-3.3 0-.3.3-.6.9-.9.5-.5.7-.8.7-1s.2-.6.7-1.2 1-1.3 1.5-2.1c.6-.7 1.1-1.3 1.5-1.7.4-.5.9-1 1.4-1.5.5-.6 1.1-1.2 1.8-1.9l2.9-2.9c1.3-1.3 1.8-1.9 1.7-2s-.9.5-2.4 1.8c-.5.3-.9.7-1.2.9-.3.3-.6.4-.9.4-.1 0-.4.2-.9.7s-1 1-1.6 1.7-1.3 1.4-1.9 2.2-1.2 1.5-1.6 2.2a38.91 38.91 0 0 0-1.2 1.5c-.3.5-.6.8-.9 1-.3.3-.5.7-.5 1.2 0 .3-.3.8-.9 1.4-.2.2-.5.7-.9 1.3s-.8 1.3-1.1 2.1c-.3.7-.7 1.3-1.2 1.9s-.8.9-1 .9c-.3 0-.5.1-.6.3s-.1.8-.3 2c0 .8-.2 1.3-.7 1.5-.3.1-.4.4-.2.9.2.2 0 .7-.7 1.4-.3.3-.4.5-.2.5.6-.3.8-.3.7.1s-.5.8-1 1.3c-.2.1-.5.4-.8.9s-.5 1-.8 1.5c-.2 1.3-.2 1.8 0 1.7.6-.3.8-.2.6.4s-.5 1.3-1.1 2c-.6.8-.7 1.1-.5 1 .5-.2.7-.2.7.2s-.2.5-.5.5-.4.8-.1 1.8zm2.9-1.3c.2-.8.4-1.5.6-2.1s.3-1 .3-1.1c0-.6-.2-.3-.7.9s-.8 2.3-1 3.2c-.1.9-.1 1.3 0 1.2 0-.2.3-.9.8-2.1zm.8-4.3c0 .2.2 0 .5-.7l1.2-2.7.5-2.1c-.1 0-.3.3-.5.8s-.5 1.1-.8 1.8-.5 1.3-.7 1.9c-.1.5-.2.9-.2 1zm2.1-10.7c-.6 1.1-.9 1.3-.9.3 0-.3.2-.6.5-.9.3-.1.4 0 .4.6zm29.7-15.4c1.8-3.2 2.3-5.6 1.4-7.2-.5-.7-1.1-1-2-.9s-2.4.7-4.7 1.9c-.9.5-1.9 1.1-2.9 1.9l-3 2.4c-1 .8-1.8 1.5-2.6 2.2-.7.7-1.2 1.2-1.3 1.5-.1.2-.3.5-.6.9s-.6.7-.9 1-.7.5-.9.8c-.3.2-.5.3-.6.2-.1 0-.2.1-.2.2v.5c0 .6-.2.9-.5.9s-.4.2-.2.7c0 .3-.1.5-.3.5-.1 0-.2.1-.3.2s-.1.2.2.2c.1.3-.1.9-.8 1.7-.6.8-1.1 1.1-1.3.9-.2 0-.3.2-.3.7s-.2.7-.5.7c-.3-.1-.5.2-.5.9 0 .9-.6 2.6-1.7 5.2-1.1 2.5-1.7 4.1-1.7 4.8 0 .6-.3.7-.9.3-.3 0-.5 0-.6.1s0 .4.1.9c.3.6.3.8 0 .7-.5-.1-.8 0-1 .3a.47.47 0 0 0 .5.5c.6 0 .8.4.7 1.1s-.6 2-1.4 3.9c-.6 1.6-1 3.1-1.2 4.5.1.6.2 1.3.2 2.3s-.1 1.9-.2 2.8v2.4c0 .7.1 1.1.2 1.4.2.3.8.5 1.6.3.9-.1 1.6-.4 2.3-.9.3-.2.8-.7 1.5-1.3l2.1-2.1c.7-.8 1.5-1.6 2.3-2.5l2.1-2.3c1.1-1.3 1.6-1.7 1.4-1.4-.1.3 0 .5.3.3s1.1-1.3 2.2-3.2l3.4-5.8c.2-.7.5-1.3.9-1.9s.7-1 .9-1.2c.5-.7.6-1.3.5-1.7 0-.3.2-.5.7-.5.1.1.2.1.3 0s.2-.3.2-.5c.3-.8.1-1-.9-.5-.7.5-1.2 1.1-1.5 2.1-.6 1-1 1.5-1.2 1.5-.2-.2-.1-.7.3-1.4.2-.8 0-1.3-.7-1.4-1.8-.6-2-1.8-.5-3.6.5-.6 1.3-1.6 2.4-3.1l3.5-4.8 3.4-4.9c1.1-1.4 1.8-2.5 2.3-3.2zm-25.8 13.4c.3-.8.4-1.2.2-1.2l-.3.3c-.2.2-.3.5-.3.9-.5.7-.5 1-.2 1l.3-.3.3-.7zm10.9 16.1c.2-.2.5-.7.9-1.4.3-.7.7-1.4 1-2.2.8-1.8 1.4-2.7 1.7-2.7.1 0-.2.9-1 2.7-.9 1.8-1.7 3.2-2.3 4.1s-.9 1.1-.9.5c-.1-.2.1-.5.6-1zm13.2-15.5c.5-.7.7-1.1.7-1.4 0-.2-.1-.2-.3.1a18.39 18.39 0 0 1-.9 1.2c-.3.5-.7 1.1-.9 1.6-.3.6-.5 1-.6 1.4-.1.3-.5 1.1-1.1 2.2s-1.4 2.4-2.2 3.9c-.9 1.4-1.7 2.8-2.6 4.2l-2.1 3.3c-1 1.5-1.5 2.4-1.5 2.7s.5-.1 1.4-1.3c.6-.6 1-1.1 1.4-1.6.3-.5.5-.8.5-.9a4.67 4.67 0 0 1 .5-1c.2-.2.4-.5.6-.9s.4-.7.6-1.2c.6-.8 1-1.5 1.4-2.1.3-.6.5-.9.5-1s.2-.5.6-1.2a41.77 41.77 0 0 1 1.5-2.4c.6-1 1.1-1.9 1.5-2.7.4-.7.5-1.2.4-1.5a1.08 1.08 0 0 1 .3-.7c-.1-.2.1-.4.3-.7zm2.6 7.4c.2-.7.3-1.1.2-1.3s-.3-.2-.5-.1c-.3.2-.5.7-.5 1.4 0 .8-.1 1.2-.3 1.2s-.3.5-.3 1.4c.2.9.5 1.4.9 1.5.3.1.5-.3.5-1.1v-1.3a2.48 2.48 0 0 1 0-1.7zm26.9 17c.1 0 .6-.5 1.5-1.5l3-3.3c1.1-1.2 2.5-2.8 4.2-4.9 0-.1-.2 0-.5.3s-.7.7-1.2 1.1-1 .9-1.7 1.6c-.1 0-.2.1-.2.3s-.1.3-.3.4c-.5.3-1 .9-1.7 1.5-.7.7-1.3 1.3-1.9 2-.6.6-1 1.2-1.3 1.7-.3.6-.2.8.1.8z"/><path d="M375.4 193.5c1.6-1.3 2.6-2 3.1-2.1.5-.2-.3.5-2.2 2.1l-2.6 2.1c-.9.9-2.1 1.9-3.4 3-1.3 1-2.4 1.5-3.5 1.5s-2.7-.8-4.9-2.4c-1.4-1-2.5-2-3.3-3s-1.4-2.1-1.9-3.3-.8-2.6-1-4.3l-.7-5.9-.6-6.2-.4-3.1c-.5.2-.5.6-.2 1 .3.6-.2 1.2-1.5 1.9-.9.7-1.2 1-.9 1 .6 0 .5.4-.3 1.2-.8 1-1.1 1.7-1 2.1 0 .2-.3.5-.9.7-.6 0-.7.2-.5.7a.91.91 0 0 1 0 1c-.2.3-.6.4-1.2.2-.7 0-.9.2-.7.5 0 .3.2.5.7.5.6.2.5.5-.3.9-.3.2-.7.6-1.2 1.1s-.9 1-1.3 1.5-.7 1-.9 1.5-.3.7-.2.9c.3.3-.1 1.2-1.2 2.6-.3.6-.9 1.1-1.7 1.7s-1.1.9-1 1c.1.9-.1 2.1-.6 3.7-.5 1.5-1 2.5-1.5 2.8-.8.5-1.1 1-.9 1.7.5.8.3 1.3-.5 1.5-.5.5-.6.8-.5 1 .2.1.3.4.3.9-.1.5-.2 1.1-.4 1.6l-.5 1.5-.2 1c0 .6-.2 1.4-.5 2.6-.6 1.4-.9 3.2-.9 5.3l-.2 5.3c.2 1.6.1 3-.3 4.1-.2 1.1-.2 2 .2 2.6.2.6.1.9-.5.9-.2.2-.5.3-.9.3s-.6.1-.9.2c-.7.5-1 .3-1-.3 0-.2-.2-.2-.7 0-.3.1-.7-.2-1-.9-.2-.8-.5-1-.9-.7-.6.2-1-.1-1.4-1-.6-1-1.1-1.4-1.7-1-.5.2-.7.2-.9-.2-.1-.3-.2-1.3-.2-2.9 0-1.5.1-3.5.3-5.9l.9-8 1.5-8.9 1.7-8.8 5-22.5c1.4-6.2 2.2-10.6 2.6-13.2.2-1.4.5-2.6.7-3.7s.4-1.7.5-2c.3-.6 1.1-.8 2.4-.7s2.2.5 2.7 1c.6.6.9 1.1 1 1.5.1.5.1.9 0 1.2s-.2.7-.3 1.1 0 .8.3 1.1c.2.6.2 1.1-.1 1.6s-.5 1.1-.8 1.6c-.3.9-.5 1.9-.5 2.9-.1.2-.1.6-.1 1.1.1.5-.1 1-.4 1.5s-.5.8-.3 1.1c.1.3.3.4.5.3.6 0 .7.5.5 1.4 0 .3-.1.7-.2 1.1s-.1.7 0 .8c-.2 1.1-.6 2.7-1 4.7l-1 3.9c-.2.9-.1 1.5.3 1.7a3.04 3.04 0 0 1 .5.7c.1.2.2.5.3.7 0 .5-.2.3-.7-.3s-.8-.3-1 .7c-.5 1.7-.7 2.9-.7 3.4 0 .6.2.7.5.5.3-.3.5-.7.3-1.2 0-.6.3-1.3.9-2.1.2-.3.7-1 1.4-2l2.1-3c.6-1.1 1.4-2.5 2.4-4s2.2-3.1 3.4-4.7c1.6-2.2 2.9-3.7 3.8-4.6s1.7-1.3 2.2-1.5c1.1-.1 2.1-.1 2.9.1s1.1.4 1 .8c-.1.1 0 .2.3.3s.7.1 1.1 0c.9-.1 1.3-.1 1.2.2-.1.2.1.8.5 1.7a27.68 27.68 0 0 0 .6 1.6c.2.5.3.8.4.9-.1.3-.1 1.8 0 4.5l.4 8.4.6 8.2c.2 2.5.5 4 .7 4.3.2.8.5 1.3.9 1.6s1.1.3 2.1.1c.7-.2 1.4-.5 2.1-.9.7-.3 1.5-.7 2.6-1.2 1.7-.7 2.8-1.2 3.3-1.5s.7-.3.6.1c-2.1 1.6-2.9 2.3-2.7 2.2.4.6 1.1.3 2.1-.3zm-50.5 28.8c0-.8-.1-1.3-.2-1.5-.2-.7-.3-.5-.3.7.1.9.3 1.2.5.8zm.2-3c.1-.3.1-.9-.2-1.5-.1-.2-.2-.3-.3-.1s0 .5.1.9c.3 1.1.4 1.3.4.7zm5.3-29.8c-.1-.1-.1-.5 0-1.1s.3-1.4.5-2.3l.6-2.3c.2-.7.2-1.2.1-1.5 0-.5.2-.6.5-.5.5.2.6.2.3-.2-.3-.6-.2-1.2.3-1.9.3-.8.5-1.5.3-2.1-.2-.5-.2-1.3 0-2.6.3-1.1.3-1.5 0-1.2-.1.2-.3.9-.7 2-.3 1.1-.6 2.3-.9 3.7-.2 1.4-.5 2.7-.8 3.9l-.6 2.3c-.1.2-.3 1.2-.7 3-.3 1.8-.7 3.8-1.2 5.9-.6 2.1-1 4-1.4 5.8-.3 1.8-.6 2.9-.7 3.5-.1.3-.2.8-.3 1.3s-.2.9-.2 1.1c.1.2.1.7 0 1.4l-.3 2.2c-.5 2.5-.7 4.3-.8 5.2-.1 1 0 1.5.3 1.5.2 0 .4-.4.4-1.1.1-.7.2-1.6.4-2.7 0-1.1.2-3 .6-5.5s.9-5 1.4-7.5 1-4.7 1.5-6.6.8-2.9 1-2.9c.5-.1.5-.4.4-.8zm3.3 1.6c.3-.1.5-.7.5-1.7-.2-2.6-.9-1.3-1.9 4.1-.6 2.5-.9 4.2-.9 5.1-.1.9.2.2.8-2 .2-.8.3-1.3.3-1.5s.1-.3.3-.4c.1-.1.3-.4.5-.9s.2-.8 0-1c-.1-.3-.1-.7 0-1.1s.3-.6.4-.6zm14-17.7c.8-1 1.3-1.8 1.4-2.2.1-.5.1-.7 0-.7-.1-.1-.4.1-.8.6s-.9 1.1-1.4 1.9a27.21 27.21 0 0 0-1.6 2.5 41.77 41.77 0 0 0-1.5 2.4c-.6 1.4-1 2.2-1.4 2.6-.6.2-1 1-1.4 2.4a5.3 5.3 0 0 1-.8 1.5c-.3.4-.5.6-.6.6-.3 0-.5.2-.5.7.1.6.3.7.7.3.3-.4 1.1-1.7 2.4-4 .7-1.3 1.5-2.7 2.6-4.3 1.1-1.8 2-3.2 2.9-4.3zm4.3-6.5c.9-1.3 1.3-1.9 1.2-1.9-.5 0-1.1.7-1.9 2.1-.6.6-1 1-1.2 1.4-.2.3-.2.5 0 .5.3-.1.9-.8 1.9-2.1zm.4 6.2l.3-.9-.7.5c-1 1-1.3 1.5-.7 1.5l.3-.3.3-.3.5-.5zm19.4 22.3c.7-.1.9-.4.7-.9-.2-.3-.9-.1-2.1.7-.6.3-1.1.7-1.7 1s-1 .6-1.2.9c-.2.2-.2.3 0 .3.2-.1.9-.3 2.1-.8.2-.2.6-.5 1.1-.7s.9-.4 1.1-.5z"/><path d="M460.7 127.9c.2 1-.1 1.9-.9 2.7-.9.7-1.9 1.3-3 1.8s-2.2.8-3.2.9l-1.6.3c-.7 0-1.4.1-2.1.4s-1.1.3-1.1.1c0-.3.3-.5 1-.5.8-.2 1.2-.5 1.2-.7 2.2-.9 3.6-1.7 4.4-2.4.7-.7 1-1.4.9-2.2-.2-.8-1.5-1.5-3.9-2.1-.7-.2-1.1-.4-1.3-.5s0-.1.4.2c1.1.2 1.5.2 1.2-.1s-1.1-.5-2.4-.8l-1.5-.3c-.5-.1-.7-.2-.9-.2-4.8-1.3-9.8-2.1-15.1-2.4s-10.7-.5-16.3-.5h-5.2c-1.5 0-2.9 0-4.3.1s-2.8.1-4.4.3l-5.4.3v2.1c-.3.3-.4.5-.2.5 0 .1 0 .2.1.2s.1.1.1.2c0 .2.1.4.2.5l-.3 1.7c-.1.7-.3 1.2-.4 1.5-.2.3-.3.3-.3.1-.1-.6-.2-.8-.2-.8 0 .1-.1.4-.3.9-.2.6-.2 1 .2 1.4.2 0 .3.1.2.2s-.3.2-.5.3c-.2.3-.4.5-.4.6-.1.1 0 .1.3.3a.47.47 0 0 1 .5.5c0 .2 0 .3-.1.3-.1-.1-.1-.1-.3-.1-.2-.1-.3.2-.3 1 .1.2.1.5.1.8-.1.3-.2.4-.4.3-.2 0-.3.2-.3.7.1.1.2.4.2.9s-.1.9-.2 1.4c-.2.5-.4 1.1-.5 1.9a52.78 52.78 0 0 1-.3 2.1c-.1.3-.2.5-.2.6v.2c0 .1-.1.3-.2.6s-.2 1-.3 1.9c-.6 1.8-1 3.4-1.3 4.6-.3 1.3-.5 2.3-.8 3.1l-1.2 6c-.3 1-.6 1.8-.8 2.4s-.3 1.1-.4 1.5c-.1.5-.2.9-.3 1.5-.1.5-.2 1.2-.3 2.1-.1.8-.3 1.8-.6 2.9s-.5 2.1-.8 2.7c-.2 1.3-.5 2.9-.9 5.1-.4 2.1-.9 5.7-1.6 10.7l-.5 2.7-1.5 7.4c-.2 2.2-.5 3.5-.9 4.1-.6.6-.6.7 0 .5.2-.2.3-.1.3.3 0 .5-.1 1.4-.3 2.9 0 1.6.1 3.5.3 5.8s.6 4.2 1.2 5.8 1.6 3.2 3 4.9 2.5 2.5 3.3 2.7c2.1.1 4 0 5.8-.3s3.7-1.2 5.9-2.7c.6-.6 1.1-1 1.5-1.4.4-.3.7-.5.9-.3.1 0 .5-.3 1-.9.2-.2.7-.4 1.4-.6s1.1-.2 1.4-.1c.6.2.7.1.5-.5-.2-.2-.3-.4-.3-.4.1-.1.1-.1.3-.1.6-.2 1.2-.3 2-.3.7 0 1.6-.7 2.7-2.1 1.3-1.6 2.7-2.9 4.3-4s2.5-1.9 2.7-2.5c0-.2.3-.7 1-1.5.7-.7 1.1-1.2 1.4-1.5 1.7-1.4 2.4-1.8 2.1-1.4-.3.5-1.8 2.7-4.5 6.9-.9 1.3-1.5 2.1-1.6 2.5-.2.4-.5.9-.9 1.5-.3.6-.6.9-.9 1.1-.2.2-.4.3-.6.3h-.3c-.1 0-.1.1-.1.3l-.5.3c-.3.3-.4.7-.2 1 .2.5 0 .8-.6.9-.6.2-1.4.8-2.3 2-.8.8-1.3 1.2-1.4 1.2.1.1-.2.3-.9.5s-1.4.6-2 1.2-1.1 1-1.5 1.4c-.4.3-.6.6-.6.9 0 .1-.1.3-.4.5s-.5.5-.8.7c-.2.3-.5.7-.8 1s-.4.6-.4.9c0 .5-.2.5-.7.2-.2-.1-.6-.1-1 0-.5.1-1 .3-1.5.5-1.1.5-2.4.7-3.9.8-1.4.1-2.4-.2-2.8-.8-.5-.2-.8-.2-1 0-.3.2-.5.1-.5-.3 0-.2-.2-.3-.5-.2-.5.1-1.1 0-2.1-.4-.9-.4-1.7-.9-2.2-1.5-.2-.2-.6-.6-1.2-1-.6-.5-1.2-1-1.9-1.5-1.5-1.3-2.5-2.2-3.2-2.7-.6-.6-1.2-1.5-1.8-2.9-.2-.7-.6-1.5-1-2.5-.5-1-.8-1.7-1-2.3-.9-1.6-1.5-3.4-1.9-5.5-.3-2.1-.5-4.6-.3-7.6-.1-1.6-.1-3.2-.1-4.9.1-1.7.2-2.8.4-3.5a13.33 13.33 0 0 0 .5-2.6c.1-1 .2-1.9.3-2.6.6-2.7 1.2-5.7 1.8-8.9l1.8-9.2 1.6-7.7 1.1-4.6.6-2.8c.2-.8.3-1.4.3-1.6l.7-2.9.3-.9c-.1-.1.1-.5.4-1.5 0-.1 0-.2.1-.3s.1-.1.1-.3v-.2c-.3 0-.3-.5.2-1.4l1.4-5.3c.5-1.9.8-3.6.9-4.9.2-1.3.4-2.4.6-3.3l.5-2.2 1.5-6.9-4.1.3c-2.1.2-4.5.5-7.3.9-2.8.3-5.9.8-9.2 1.5-3.3.6-6.9 1.4-10.7 2.2-3.8.9-7.8 1.9-11.9 3.2-1.6.6-2.8 1-3.7 1.4-.9.3-1.1 0-.6-1 .2-.6.1-1.1-.3-1.7s-.1-1.4.8-2.6c.8-.8 2.7-1.8 5.8-3.1s7.5-2.3 13.2-3.1c4.6-1.3 9.3-2.2 14.3-2.9 4.9-.7 10-1.1 15.1-1.4v-.5c.2-.2.4-.5.4-.8.1-.3.2-.7.4-1.3.2-.8.6-2.2 1-4.1.5-1.9 1.1-3.9 1.9-6 .8-3 1.5-4.9 2-5.8s1.1-1.5 1.8-1.7c.6-.5 1.4-.5 2.4-.3 1 .3 1.9.7 2.6 1.3.2.3.3.6.3.7s-.1.3-.3.5-.3.5-.4.9-.1.9 0 1.6c.1.9.1 1.7-.2 2.4-.2.7-.5 1.1-.7 1.4-.2.1-.2.4 0 .8s.1.9-.3 1.5c-.2.6-.4 1.1-.4 1.5-.1.5-.1.7-.3.9-.3.2-.6 1-.9 2.2l-.3 1.5c-.1.6-.2 1-.4 1.4-.5.6-.7 1-.7 1.2.3-.2 1.3-.4 2.7-.5l5.2-.3c2-.1 4.1-.2 6.4-.2s4.4 0 6.4.1l5 .3c1.4.2 2.1.4 2.2.6.2.2-.3.3-1.6.3h-6.8c-2.1 0-3.4 0-4.1-.1s-1.2-.1-1.5 0-.7.1-1.1.2-1.2.1-2.5.3c-.8.1-1 .2-.7.2s.9 0 1.7.1 1.6.1 2.3.1 1.1.1 1.1.2-.6.3-1.7.4c-1.1.2-2.4.3-3.7.5s-2.5.3-3.6.4-1.6.2-1.6.3c1.4-.2 4.1-.4 8.1-.6s8.3-.2 13-.2c4.6.1 9.1.3 13.4.7s7.4 1.1 9.4 2c.3.2 1.1.4 2.3.5l3.2.3c.6 0 .9.2.9.5 0 .1.6.2 1.7.2.9 0 1.5.2 1.7.5 0 .3.3.5 1 .5.8 0 .9-.2.2-.5-2.3-1.4-4.8-2.5-7.6-3.3-2.7-.8-5.5-1.4-8.2-1.8s-5.4-.7-7.8-.9c-2.5-.2-4.5-.4-6.1-.6-.2 0 .1-.1.9-.2s1.8-.2 3-.2 2.5 0 3.9.1 2.6.1 3.8.3c2.1.3 3.6.5 4.6.5s2 .1 3 .3 2.3.7 3.9 1.3 4.1 1.7 7.4 3.2c.6.2 1.1.7 1.6 1.5.5.7.6 1.2.3 1.3-1 .2-1 .6 0 1.2l.6 2.3zm-71.4-8.3l-5.9.5-4 .3c-1.3.1-1.9.1-1.9 0 .8-.2 1.7-.5 2.7-.8l4.4-1.3c-1 .1-2 .3-3 .4-1 .2-1.6.3-2 .3l-2.7.5c-.5.1-1.1.3-1.9.4-.8.2-1.5.3-2.1.4l-4.9.7c-.5.1-1.1.3-1.9.4-.8.2-1.6.4-2.5.7l-2.2.7c-.6.2-1 .3-1.1.4-.2.5-.5.6-.9.3-.1 0-.6.1-1.5.3s-1.8.4-2.8.7-2 .5-2.8.8c-.9.2-1.3.3-1.5.3-2.2.9-3.3 1.4-3.4 1.5s.5 0 1.8-.3 3.1-.7 5.3-1.4l7-1.8c.8-.2 1.6-.4 2.4-.4.8-.1 1.4-.1 1.7-.1 1.3 0 2.7-.3 4.5-.8 1.7-.5 3.5-.8 5.5-.8l2.4-.5c.3-.1.6-.2.9-.2.2 0 .5 0 .9.1.3.1.8.1 1.4.1s1.4-.1 2.4-.2l5.7-1.2zm-4.8 32.5l1.1-5 .6-2c.1-.3.2-.4.2-.3s-.1 0-.2-.3c-.9 1.4-1.8 4.2-2.7 8.6s-1.8 9.1-2.6 14.3c-.2 1.3-.5 2.5-.9 3.9-.4 1.3-.7 2.5-1 3.6l-.7 2.7c-.2.7-.1 1 .1 1 .1 0 .2.3.3.9s.2 1.1.2 1.7 0 1.1.1 1.5.1.4.1-.1c.1-1.1.4-3.1.9-5.8l1.5-8.7 1.7-9.1c.5-3 1-5.3 1.3-6.9zm5-21.3c.6-2.2.9-3.5 1.1-3.9.2-.5.2-.8.1-1l-.3-.3c-.1-.1-.3 0-.4.4-.2.4-.4 1.2-.6 2.3l-.9 5c-.1.6-.3 1.3-.4 2.1-.2.8-.3 1.5-.5 2.2s-.3 1.3-.4 1.8-.1.8 0 .8.2-.2.3-.7.3-1 .4-1.5c.2-.6.3-1.1.4-1.7s.2-1 .2-1.2v-.3c0-.1.1-.2.2-.4s.2-.6.3-1.1c.1-.7.2-1.5.5-2.5zm2.4-11.5l-.7 1.4v.2c-.1 0 0 .1.3.2s.4.1.4-.2c.1-.3.2-.7.3-1.1s.1-.7.2-1 .1-.4 0-.3c-.1-.1-.3.2-.5.8zm2.9-9.3c.3-1 .4-1.5.3-1.4-.2.1-.5.5-.9 1.2s-.8 1.6-1.1 2.7-.5 2-.3 2.8c.1.8.1 1.2-.2 1.3-.2.1-.3.1-.2.1.3 0 .5-.2.5-.7 0-.2.2-.9.5-2.1.4-1.1.8-2.4 1.4-3.9zm8.6 112.2c-.1 0-.2.1-.3.2s-.2.2-.4.3c0 .5.3.5 1 0 .8-.3 1.3-.5 1.5-.5.1.2.3.3.5.1s.5-.4.7-.8c.6-.6 1.1-.9 1.5-.9a.55.55 0 0 0 .5-.3c.1-.2 0-.4-.3-.6-.5-.2-.8-.2-1.1.2-.3.3-.9.7-1.8 1-.7.9-1.4 1.3-1.8 1.3zm11.8-12.2c.6-.7 1-1 1.4-1 .3 0 .6-.1.9-.3.6-.3.3 0-.8 1s-2.6 2.3-4.6 4c-1.9 1.9-3.2 3-3.7 3.2s.1-.7 2-2.7c1.6-1.5 2.7-2.4 3.4-2.7s1.2-.9 1.4-1.5zm3.5-3.1c.2-.1.5-.4.9-.8.3-.4.5-.5.5-.3-.2.5-.6.9-1 1.5-.5.5-.7.5-.7.1-.1-.3 0-.5.3-.5z"/><path d="M480.5 193.2l-1.4 1.4c-.6.6-1.1 1.3-1.5 2.1-.4.9-1 1.5-1.8 2-.1.2-.8.9-2.1 2.1l-4.6 4.1-4.4 4.1c-1.2 1.3-1.8 2-1.8 2.2a.47.47 0 0 1-.5.5c-.3-.1-.5.1-.5.5 0 .5.2.6.7.3.5-.2.7-.6.9-1.2.1-.7.5-1 1.2-1 .5 0 .7-.2.7-.7 0-.6.3-.9.9-.9.3 0 .6-.2.9-.7.2-.6.5-.9.9-.9.3 0 .1.6-.9 1.9-.9 1.3-1.8 2.3-2.7 3.1l-1.5 1.5-1.9 1.9-2.1 2-1.4 1.3c-.2.2-.5.6-.9 1-.4.5-.8.8-1.3 1-.3.3-.9.8-1.7 1.4s-1.7 1.1-2.7 1.7l-3.3 1.8-3.3 1.6c-2.4.9-4.8 1.5-7.3 1.9-2.5.3-4.5.3-6.1-.2-.3-.2-.7-.4-1.2-.5s-.8-.3-1-.5c-.1-.2-.4-.3-.9-.3-.1.1-.4.1-.9-.1s-1-.4-1.5-.7c-.6-.3-1.1-.6-1.6-1l-1.3-1.1c-.2-.3-.5-.7-.9-.9-.3-.3-.6-.5-.9-.8-.6-.2-1.4-1.4-2.4-3.5s-1.9-4.3-2.7-6.6c-.6-1.4-1-2.6-1.1-3.6-.2-1-.2-2.3-.1-4l.4-6.3c.1-.9.3-1.4.5-1.6 0-.1.1-.4.2-.8l.4-1.5c0-.6.1-1.1.3-1.5s.4-.7.6-.9c.5-.2.5-.6.2-1-.4-.3-.2-.5.4-.5.4 0 .4-.2.2-.7s.1-.9.9-1.2c.7-.5 1.1-.8 1.1-1s.1-.5.3-.8.4-.5.6-.8c1-.8 1.2-1.3.5-1.5-.2-.2-.1-1 .5-2.4s1.4-2.8 2.6-4.3c1.4-1.8 3.1-3.6 5.1-5.2 2-1.7 4.1-3.1 6.4-4.4 2.2-1.3 4.4-2.3 6.6-3s4.2-1.1 6.2-1.1c1 0 2.2.3 3.4.8 1.3.5 2.5 1.2 3.7 2.1s2.3 1.8 3.2 2.8 1.5 2 1.7 2.9c.6 2.4.6 4.5.2 6.4-.5 1.8-1.7 3.9-3.6 6.2l-2 2.2-2.7 2.7-2.6 2.5-1.7 1.6c-.9.8-2.3 1.6-4.3 2.5-1.9.9-3.7 1.6-5.3 2.1l-3 .6a17.33 17.33 0 0 1-3.2.3c-1 0-1.9-.1-2.6-.3s-1.1-.4-1.2-.6c-.2-.3-.5-.5-.7-.5-.2.2-.6-.2-1.2-1.2l-.9-1.5h1.4c1.7 0 4.1-.7 7.1-2.1s6-3.2 9-5.5c2.7-1.9 5.2-4.6 7.4-7.9.3-.6.7-1.1 1-1.5.3-.5.6-.6.7-.5.1.2.2-.1.3-1s.1-1.9.1-3.1c-.1-1.1-.1-2.2-.3-3.3-.1-1-.2-1.7-.3-1.9-.2-.3-.8-.5-1.8-.4s-2 .2-3 .4-1.9.5-2.7.9c-.7.4-1 .8-.8 1.1.1.1.1.2-.1.3s-.4 0-.8-.3h-.7c1.3.6.9 1.2-1 1.9-.3.1-.9.5-1.7 1-.8.6-1.6 1.2-2.4 1.9s-1.5 1.3-2.1 1.9-.9 1-.9 1.2c0 .5-.6 1.1-1.7 2.1-.5.5-1 1.2-1.7 2.1l-2.1 3c-.7 1-1.3 2-1.7 2.8-.5.9-.7 1.4-.7 1.6 0 .3-.1.5-.3.5-.3 0-.8.6-1.3 1.9s-1 2.8-1.5 4.6-.8 3.8-1.1 5.8c-.3 2.1-.4 3.8-.4 5.3 0 1.7.3 3.7.9 6s1.1 3.8 1.7 4.5c.2.2.5.5.7.9.2.3.5.7.7 1 .6.6 1.1.9 1.5 1 .5.1 1.6.2 3.4.2 2.3 0 4.7-.4 7.3-1.2s5.3-1.9 8.2-3.4c.8-.6 1.5-1 2.1-1.2s1.1-.3 1.3-.3c.5 0 .9-.3 1.2-.9.3-.5.5-.6.5-.5s.3.1 1-.2.9-.7.7-1.2c-.1-.1-.1-.2-.1-.3.1-.1.1 0 .3.1.8.5 3.7-1 8.8-4.5 1.4-1 3-2.3 4.8-3.8s3.6-3 5.3-4.6c1.7-1.5 3.3-3 4.6-4.3 1.4-1.3 2.3-2.3 2.9-3l1.1-.4zm-62.9 8.4c.3-.2.4-.6.2-1-.2-.2-.3-.1-.3.3 0 .6 0 .8.1.7zm2.3-6.2c.5-.7.7-1.3.7-1.9 0-.3-.1-.3-.3 0-.1.2-.2.5-.3.9s-.2.7-.3.9l-.3.9c-.1 0 .1-.2.5-.8zm1.3-4c-.2.3-.3.5-.3.5.1 0 .2-.1.4-.3.3-.2.5-.5.5-.9-.1-.2-.3 0-.6.7zm0-7.5c-.2.8.2.5 1.2-1 .5-.6 1-1.3 1.5-2.1.6-.8 1.1-1.5 1.7-2.1.5-.6 1.1-1.2 1.9-2 .8-.7 1.5-1.4 2.2-2 .9-.8 1.4-1.3 1.5-1.5s-.1 0-.7.4c-.6.2-1.1.5-1.5.9-.5.4-.8.7-1 .9s-.6.5-1 .9c-.5.3-.9.7-1.4 1s-.9.7-1.2 1.1-.5.7-.5.9c0 .5-.1.7-.3.7-.3 0-.8.4-1.3 1.3-.5 1.1-.8 1.9-1.1 2.6zm2.1 4.4c.2-.2.2-.6 0-1-.1-.2-.2-.1-.3.3 0 .7.1 1 .3.7zm30.9-10.1c-.3.6-.7 1.2-1.1 1.9s-.7 1.1-.9 1.4c-.6.6-1 1.2-1.4 1.9-.2.2-.5.6-.8 1.1l-.9 1.5c-1 1.3-1.2 1.7-.6 1.5.6-.3 1.6-1.2 3-2.8 1.3-1.5 2.3-2.9 3.1-4.2s1.3-2.5 1.4-3.5c.1-.8.1-1.1-.1-.9s-.8.7-1.7 2.1zm.4 33.7a.47.47 0 0 1 .5-.5c.2 0 .3.2.3.5l-.3.3-.2.2c-.2 0-.3-.2-.3-.5zm3.7-2.6c-.2 0-.3-.1-.2-.2.9-.8 1.9-1.6 3.1-2.5 1.1-.9 1.8-1.3 2.1-1.3.2 0 .1.3-.5.9-.9.6-1.8 1.3-2.6 2.1-.9.7-1.5 1-1.9 1zm6.4-5c-.6 0-.2-.4 1-1.2l2.5-2c.3-.2-.1.2-1.1 1.1-.5.6-.9 1.1-1.4 1.5-.4.4-.8.6-1 .6zm6.3-4.5c-1.1 1-1.7 1.3-1.7.7 0-.1.2-.2.5-.3s.7-.3 1.2-.8l1.5-1.4-1.5 1.8z"/><path d="M540.8 210.7c-.5.5-1.1 1.4-2 2.9s-1.8 2.5-2.8 3.1l-2.2 1.7c-.3.3-.6.6-.9.7 0 .1.3 0 1-.4l1.4-.8c.7-.3.6-.1-.3.7l-2.7 2.2c-.7.5-1.3 1-1.7 1.5-.5.6-1.1 1.1-2.1 1.5-.7.7-1.7 1.1-2.9 1.4a24.66 24.66 0 0 1-3.9.3c-1.3 0-2.6-.1-3.8-.4s-2-.7-2.5-1.3c-.8-.6-1.4-.9-1.7-.9-.2 0-.7-.3-1.4-1-.2-.9-.7-1.5-1.5-1.7-.6-.5-1.2-1.2-1.9-2.2-.5-.9-1-1.8-1.7-2.7-.9-1.5-1.3-4.1-1.3-7.9.1-3.8.7-8.1 1.8-13.1l1.6-7.7 1.3-6.4c.3-1.9.6-3.4.7-4.6.1-1.1.1-1.8 0-1.9-.2-.1-.8 0-1.6.4-.9.4-1.4.7-1.6.9l-.9.9c-.5.5-1.1 1-1.6 1.5-.9.7-2 1.7-3.3 3.2-1.3 1.4-2.6 3-4.1 4.7s-2.9 3.5-4.4 5.4c-1.4 1.9-2.7 3.7-3.7 5.4-.6.9-1.1 1.8-1.7 2.6s-1 1.3-1.2 1.5c-.5.7-.7 1.1-.7 1.4 0 .5-.2.7-.7.7-.2 0-.4 0-.6.1s-.2.2-.1.4c.1.8-.3 1.8-1.4 3.1-.9 1-1.3 1.8-1 2.2.2.2.2.3-.2.3-.2-.2-.6.1-1 .9-.5.9-.6 1.5-.3 2l-.3 1c-.1.2-.3.5-.4.9-.2.4-.4.8-.6 1.1l-.9 2.6c-.2.8-.3 1.4-.3 1.7 0 .9-.2 1.6-.7 2.1-.3.3-.5 1.1-.5 2.2.1.6 0 1.4-.3 2.4s-.7 2.1-1.1 3.3a13.01 13.01 0 0 0-1 2.7c-.2.8-.3 1.3-.3 1.5s-.4.3-1.2.3c-1-.2-1.4-.1-1.2.3 0 .3-.3.2-.9-.3-.5-.5-.7-.4-.9.2 0 .7-.2.5-.5-.5s-.8-1.4-1.4-1.2c-.6 0-1-.5-1.4-1.5-.2-.8-.4-1.2-.5-1.3s-.3.2-.5.8c-.3.5-.5.6-.6.4s-.1-.8-.3-2c-.2-3 .4-8.4 1.8-16.3s3.5-17.6 6.3-29.2c.9-3.7 1.5-6.9 1.9-9.8.3-2.9.4-5.1.2-6.7 0-1.3.1-2.1.2-2.4.2-.3.6-.5 1-.6.5-.1.7.1.9.4 0 .5.3.6 1 .3.7 0 1.5.3 2.4.9s1.6 1.3 2.1 2.1c.3.5.5 1.5.4 3.3-.1 1.7-.3 3.8-.6 6.4-.3 2.5-.8 5.3-1.5 8.2-.6 3-1.3 6-2.1 8.9-.3 1.3-.7 2.5-.9 3.9-.3 1.3-.4 2.3-.4 2.8l-.3 1.9 1.5-2.4c.3-.7.8-1.5 1.5-2.6a82.9 82.9 0 0 1 2.1-3.3c.7-1.2 1.5-2.3 2.2-3.4s1.4-2 2-2.7c.9-1.3 1.1-1.3.7-.2-.2.3-.4.7-.6 1s-.4.6-.6.7c-.2.2-.5.5-.7.9-.2.3-.4.6-.5.9-.2.3-.6 1-1.2 2s-1.1 2-1.7 3c-.7 1-1.3 2-2 3-.6 1-1.1 1.7-1.3 2.1-.5.9-.8 1.4-1 1.4-.3 0-.3.2 0 .5.1.3.1.5-.2.5-.2 0-.5.6-.8 1.7s-.5 2.3-.8 3.6c0 1 0 1.6.1 1.6.1.1.3-.3.6-.9.2-.3.5-1 .9-2.1a43.99 43.99 0 0 1 1.5-3.3c.5-1.1.9-2.2 1.5-3.2.5-1 .9-1.6 1.1-1.8.6-.6.9-1.1.9-1.5l.7-1c.3-.5.9-1.1 1.5-2.1.6-.9 1.3-1.9 2.1-3 .9-1.1 1.6-2 2.1-2.8.6-.9 1.1-1.6 1.6-2.1s.9-.7 1.1-.6c.1.1 0 .4-.3.8s-.7.9-1.1 1.5c-.6.6-1.1 1.2-1.5 2-.5.7-.8 1.3-1 1.8l-.5 1.7 1.2-1.5c1.8-2.3 2.7-3.7 2.7-4.1 0-.2.4-.7 1.2-1.5.8-.6 1.2-1.1 1.2-1.5 0-.5-.2-.3-.7.3-.5.9-.8 1-1 .3-.2-.2.1-.9.9-2.1.9-1.2 2.8-3.5 5.8-6.8.9-1 1.8-1.9 2.6-2.7.8-.7 1.3-1.2 1.5-1.5.7-.5.9-.9.5-1.2-.3-.3-.3-.4.2-.2.5 0 .9-.2 1.2-.5.8-.6 1-.9.5-.9-.5-.1-1.1.2-1.9.8-1.1.8-1.6 1.3-1.4 1.5.3.3.2.5-.3.5s-1 .2-1.7.5l-.9.5.3-.9c.3-.6.6-.9.9-.9.1.1.3 0 .5-.3s.5-.6.9-.9c.5-.5 1.1-.9 2.1-1.2.9-.3 2-.7 3.2-.9 1.2-.3 2.4-.5 3.6-.5 1.2-.1 2.3 0 3.3.1.9.2 1.5.5 1.6.7.2.2-.1.5-.8.7s-.1.3 1.7.3c1.7.1 2.6.5 2.7 1 .1.2.3.6.4 1 .2.5.4.9.6 1.4.3 1 .3 1.9 0 2.7-.3.7-.4 1.6-.2 2.7.1.9 0 1.5-.3 1.7-.5 0-.6.2-.3.5v.7c0 .2-.1.5-.2.7-.2.7-.4 1.5-.5 2.4s-.2 1.5-.2 1.7c.1.3-.1.5-.7.5-.7 0-.7.2-.2.5.6.2.7.5.3.9-.6.3-.6.6-.2.7.3.1.3.5 0 1-.7.5-.8 1-.3 1.7 0 .7-.2 1.3-.5 1.7-.7.2-.9.6-.5 1.2.1.2.1 1.1-.1 2.7-.2 1.5-.4 3.3-.8 5.4-.6 3.1-.9 5.4-1 6.8s-.1 2.9.2 4.6c.3 2.6.9 4.4 1.5 5.2.7.8 2.2 1.1 4.5.9.9-.1 1.8-.3 2.7-.5s1.4-.5 1.6-.7c.7-.3 1.1-.3 1.2.2 1.3-.8 1.9-1.1 1.9-1s-.3.4-.8.8l-2.7 2.1c.2.1 1-.1 2.3-.5 1.3-.5 2.1-.9 2.3-1.4.2-.2.5-.4.9-.5.3-.1.6-.3.9-.5 1.9-1 3.6-2.3 5-3.8l2.9-3.1 1.8-.6zm-72.5 9.4c.8-5 1.2-8.2 1.3-9.4s0-1.7-.3-1.6c-.2.2-.3.6-.3 1.2.2.7.2.9-.2.5-.1-.1-.2-.1-.3-.1-.1.1-.2.4-.3.9-.1.6-.2 1.5-.3 2.7-.2 1.3-.4 3-.8 5.3-.6 3.5-.9 5.6-.9 6.2s.2.5.7-.3c.2-.2.5-.9.7-2 .2-1 .5-2.1.7-3.4zm1.5-11.7c.5 0 .6-.4.5-1.2-.2-.9-.2-1.3 0-1 .2.1.3-.1.3-.7 0-.7-.2-1-.5-1-.2 0-.4.2-.5.5s-.3 1.3-.5 2.7c-.2.7.1 1 .7.7zm2.3-9.2c.2-.7.5-1.9.9-3.5.3-1.7.5-2.7.5-3.2 0-.3-.1-.2-.4.5s-.6 1.5-.9 2.6a73.99 73.99 0 0 0-.9 3.3c-.3 1.1-.4 2-.4 2.6 0 .2-.1.4-.2.5s-.2.3-.2.5c-.2 0-.3.3-.3 1 0 .6.1.7.4.3.3-.3.5-.9.8-1.7 0-.3.1-.8.3-1.4.1-.6.3-1.1.4-1.5zm-1.2 19.7c0-.7-.1-1-.2-1-.3 0-.5.3-.5 1s.1 1 .3 1l.4-1zm0-1.7c.1-.1.1-.5 0-1-.1-.2-.2-.1-.3.5s0 .7.3.5zm13.4-15.8c.5-.8.7-1.3.7-1.5a.55.55 0 0 0-.3-.5c-.7-.2-.9-.1-.7.3 0 .5-.4 1.6-1.2 3.4-.9 1.7-1.4 2.9-1.5 3.4-.1.6.3.1 1.1-1.5.2-.6.5-1.2.9-1.8s.7-1.2 1-1.8zm2.9-6.2c.2-.7.2-.9-.2-.5-.3.2-.5.5-.5.9.2.9.5.8.7-.4zm2.2-9.4c-.7.9-1 1.1-1 .7 0-.2.3-.8.9-1.6.6-.9.9-1.2.9-.9 0 .2-.1.5-.3.8 0 .1-.2.5-.5 1zm5.3-6.6c-1.1 1.3-2.1 2.2-2.7 2.9-.7.7-1 .9-.9.7.2-.8 1.1-1.9 2.6-3.4.6-.7 1.1-1.3 1.5-1.9.5-.6.6-1 .5-1.2 0-.2.2-.3.5-.2.2.2.6-.1 1-.9.2-.6.6-.9 1-.9.1.1-.2.6-.9 1.5-.6 1.1-1.5 2.2-2.6 3.4zm-2.5 12.2c.3-.1.5-.4.5-.9s-.2-.5-.5-.2-.5.6-.5.7c.1.3.2.4.5.4zm2.2-4.4c.3 0 .5-.2.5-.7 0-.2 0-.4-.1-.6s-.1-.2-.3-.1l-.3.7c-.2.4-.1.7.2.7zm1.7-3.8c.3-.6.5-1 .3-1.2-.3 0-.7.2-1 .7-.2.2-.4.4-.5.6s-.1.3.2.3c.1.2.3.3.4.2l.6-.6zm1.9-2.6c.3-.3.5-.6.3-.9 0-.3-.1-.4-.3-.2-.3.2-.5.5-.5.7 0 .5.2.6.5.4zm2.8-2.9c1-1.1 1.5-1.8 1.4-1.9-.7.6-1.2 1.1-1.6 1.5l-1.1 1.1c-.3.3-.5.6-.5.7 0 .2.1.3.3.1.1-.2.7-.7 1.5-1.5zm8.4 19.2v-.9c0-.5.1-1 .3-1.5.2-.6.4-1.3.6-2.3l.6-2.8c.3-1.9.7-3.2 1-3.8.2-.2.3-.6.3-1 0-.5-.1-.7-.3-.7s-.5.7-.9 2l-2.1 8.8c-.5 1.9-.8 3.5-1 4.6l-.5 2.7-.3 2.1c-.1.6-.1 1.5-.1 2.5-.1 1.3-.2 1.9-.2 2s.1-.4.3-1.3c.1-.6.3-1.3.4-2.2.2-.9.3-1.7.3-2.4l.6-2.4c.2-.8.4-1.3.6-1.5.5-.8.6-1.4.4-1.9zm-1.9 14.3c.1-.5.1-.9 0-1.4-.1-.2-.2-.3-.3-.1s0 .4.1.8c0 .3 0 .6.2.7 0 .2 0 .2 0 0zm3.4-7.6c0-1.1-.1-1.5-.2-1-.3.8-.6 1.7-.7 2.8s-.1 1.4.2.9c.2-.2.4-.6.4-1.1l.3-1.6zm.4-2.4c.2-.2.2-.6 0-1-.1-.1-.2 0-.3.3-.1.7 0 1 .3.7zm.6-3.4c.3-1 .5-2 .5-2.9-.1-.8-.3-.4-.5 1.2-.3 1.6-.5 2.6-.5 2.9s.2-.1.5-1.2zm.7-5.5c.5 0 .7-.2.7-.5s-.2-.4-.7-.2c-.1.1-.2.2-.3.2s-.1.1-.3.2c-.1.1-.2.2-.3.2.2 0 .5.1.9.1zm.7-1.7c.2-.2.3-.5.3-.9 0-.2-.2-.3-.5-.2-.3.3-.5.6-.3.7 0 .3.2.4.5.4zm.7-3.3c.1-.1.2-.5.3-1 .1-.6.2-1.2.2-1.9s0-1.3-.1-1.9-.1-.9-.3-1c-.2 0-.5.8-.7 2.4 0 .8 0 1.6-.1 2.3s-.1 1.3-.1 1.6c0 .6.1.7.2.5.1-.6.3-1 .6-1zm.4-7.2c.2-.6.2-1.2 0-1.9-.1-.3-.2-.4-.3-.3-.1.2 0 .5.1 1.1 0 .6 0 1 .2 1.1-.1.3 0 .2 0 0zm18.8 36.1c-.2.3-.9.8-2.1 1.4-1.1.6-1.7.7-1.5.5.1-.1.4-.3.9-.6s1-.5 1.7-.8c.6-.2 1-.5 1-.5.3-.3.3-.3 0 0zm4-3.1c-.1.2-.3.5-.7.9l-1 1-.9.9c-.2.2-.3.3-.3.2-.2-.5-.2-.9.2-1.2.2 0 .5-.2.8-.5s.5-.6.8-.7.7-.3.9-.5c.2-.4.3-.4.2-.1z"/><path d="M601.6 208.3c0-.1.3-.5 1-1l2.3-2.1 2.4-2.2 1.5-1.4-.2 1.5c-.1.5-.4 1.1-.9 2s-1.1 1.7-1.6 2.5l-1.5 1.9c-.4.5-.5.5-.3.2-.2.6-.5 1.1-.7 1.5-.2.5-.5.8-.7 1l-4.5 5.2c-1.8 2.1-3.8 3.9-5.8 5.7-2 1.7-3.9 3.1-5.7 4-1.8 1-3.1 1.1-4 .4-4-.3-6.9-1.7-8.6-3.9-.3-.5-.8-1-1.3-1.5l-1.3-1.5c-1-.9-1.8-2.4-2.4-4.4l-1.4-5.4-.2-10-.7 2.1c-.8 1.8-1.9 3.9-3.2 6.3l-3.9 6.8-3.7 5.6c-1.1 1.5-1.9 2.4-2.4 2.7-.2 0-.6.2-1.2.6s-1.1.8-1.7 1.1c-2.6 1.7-5.8 2.1-9.6 1-.6-.2-1.2-.5-2-.9l-1.6-.9c-.3-.3-.7-.7-1.2-1s-.8-.5-1-.5c-.7-.5-1-1.1-1-1.9 0-.5-.1-.9-.3-1.5-.2-.5-.4-.9-.6-1.1-.5-.5-.7-1.4-.9-2.7l-.1-4.7c.1-1.8.3-3.7.7-5.7a54.75 54.75 0 0 1 1.5-5.8c.3-1.3.9-2.7 1.5-4.2l2.1-4.8 2.2-4.7c.7-1.5 1.5-2.7 2.1-3.8 7.8-11.9 16.1-17.7 24.9-17.5.7 0 1.5.1 2.4.3s1.8.5 2.7.9 1.7.8 2.4 1.2 1.1.8 1.2 1.1c.2.5.7.6 1.5.3 1-.3 1.6-.2 1.7.5.5.5.9.7 1.4.7 2.2 0 3 .5 2.4 1.4-.2.2-.5 1-.9 2.4l-1.3 4.5c-.5 1.6-.9 3.1-1.3 4.5s-.7 2.1-.8 2.2c-.5.7-.4.9.2.7.2-.1.4 0 .4.4.1.4 0 .6-.1.6-.2 0-.3.2-.3.5.1.3 0 .5-.3.5-.2 0-.5.3-.7.9s-.5 1.1-.7 1.3c-.5.2-.7.5-.7.9a8.33 8.33 0 0 0 .1 1.2c.1.7 0 1.1-.3 1.4-.2.3-.4 1.7-.6 4s-.3 4.8-.4 7.6l-.2 7.7c0 2.4.1 3.8.2 4.1.1.7.4 1 .9 1 .2-.1.3.2.3.9s.1 1.2.3 1.5c.6.9 1.9 1.2 3.9.8 2.1-.4 4.4-1.3 7-2.8 1.3-.6 2.3-1.2 3.1-1.8s1.4-1.2 1.9-1.6c.2-.1.6-.4 1.2-.9s1.1-1 1.7-1.5 1.1-1 1.5-1.5c.5-.5.8-.7 1-.7.3-.1.6-.3.9-.4.2-.2.2-.3 0-.4-.1-.2-.1-.5 0-.8s.4-.3.9-.1c.3.1.6.1.8.1.8-.4.8-.5.6-.6zm-67.2.1c.2.6.5.6.7.1s.6-1.8 1.2-3.9c.5-1.5 1-3.2 1.6-5.1s1.2-3.5 1.8-4.7l1.9-4c.7-1.4 1.3-2.4 1.7-3.1 1.1-1.7 1.7-2.8 1.7-3.3 0-.3.3-.6.9-.9.5-.5.7-.8.7-1s.2-.6.7-1.2 1-1.3 1.5-2.1c.6-.7 1.1-1.3 1.5-1.7.4-.5.9-1 1.4-1.5.5-.6 1.1-1.2 1.8-1.9l2.9-2.9c1.3-1.3 1.8-1.9 1.7-2s-.9.5-2.4 1.8c-.5.3-.9.7-1.2.9-.3.3-.6.4-.9.4-.1 0-.4.2-.9.7s-1 1-1.6 1.7-1.3 1.4-1.9 2.2-1.2 1.5-1.6 2.2a38.91 38.91 0 0 0-1.2 1.5c-.3.5-.6.8-.9 1-.3.3-.5.7-.5 1.2 0 .3-.3.8-.9 1.4-.2.2-.5.7-.9 1.3s-.8 1.3-1.1 2.1c-.3.7-.7 1.3-1.2 1.9s-.8.9-1 .9c-.3 0-.5.1-.6.3s-.1.8-.3 2c0 .8-.2 1.3-.7 1.5-.3.1-.4.4-.2.9.2.2 0 .7-.7 1.4-.3.3-.4.5-.2.5.6-.3.8-.3.7.1s-.5.8-1 1.3c-.2.1-.5.4-.8.9s-.5 1-.8 1.5c-.2 1.3-.2 1.8 0 1.7.6-.3.8-.2.6.4s-.5 1.3-1.1 2c-.6.8-.7 1.1-.5 1 .5-.2.7-.2.7.2s-.2.5-.5.5-.3.8-.1 1.8zm2.9-1.3c.2-.8.4-1.5.6-2.1s.3-1 .3-1.1c0-.6-.2-.3-.7.9s-.8 2.3-1 3.2c-.1.9-.1 1.3 0 1.2.1-.2.4-.9.8-2.1zm.9-4.3c0 .2.2 0 .5-.7l1.2-2.7.5-2.1c-.1 0-.3.3-.5.8s-.5 1.1-.8 1.8-.5 1.3-.7 1.9c-.1.5-.2.9-.2 1zm2.1-10.7c-.6 1.1-.9 1.3-.9.3 0-.3.2-.6.5-.9.2-.1.4 0 .4.6zm29.7-15.4c1.8-3.2 2.3-5.6 1.4-7.2-.5-.7-1.1-1-2-.9s-2.4.7-4.7 1.9c-.9.5-1.9 1.1-2.9 1.9l-3 2.4c-1 .8-1.8 1.5-2.6 2.2-.7.7-1.2 1.2-1.3 1.5-.1.2-.3.5-.6.9s-.6.7-.9 1-.7.5-.9.8c-.3.2-.5.3-.6.2-.1 0-.2.1-.2.2v.5c0 .6-.2.9-.5.9s-.4.2-.2.7c0 .3-.1.5-.3.5-.1 0-.2.1-.3.2s-.1.2.2.2c.1.3-.1.9-.8 1.7-.6.8-1.1 1.1-1.3.9-.2 0-.3.2-.3.7s-.2.7-.5.7c-.3-.1-.5.2-.5.9 0 .9-.6 2.6-1.7 5.2-1.1 2.5-1.7 4.1-1.7 4.8 0 .6-.3.7-.9.3-.3 0-.5 0-.6.1s0 .4.1.9c.3.6.3.8 0 .7-.5-.1-.8 0-1 .3a.47.47 0 0 0 .5.5c.6 0 .8.4.7 1.1s-.6 2-1.4 3.9c-.6 1.6-1 3.1-1.2 4.5.1.6.2 1.3.2 2.3s-.1 1.9-.2 2.8v2.4c0 .7.1 1.1.2 1.4.2.3.8.5 1.6.3.9-.1 1.6-.4 2.3-.9.3-.2.8-.7 1.5-1.3l2.1-2.1c.7-.8 1.5-1.6 2.3-2.5l2.1-2.3c1.1-1.3 1.6-1.7 1.4-1.4-.1.3 0 .5.3.3s1.1-1.3 2.2-3.2l3.4-5.8c.2-.7.5-1.3.9-1.9s.7-1 .9-1.2c.5-.7.6-1.3.5-1.7 0-.3.2-.5.7-.5.1.1.2.1.3 0s.2-.3.2-.5c.3-.8.1-1-.9-.5-.7.5-1.2 1.1-1.5 2.1-.6 1-1 1.5-1.2 1.5-.2-.2-.1-.7.3-1.4.2-.8 0-1.3-.7-1.4-1.8-.6-2-1.8-.5-3.6.5-.6 1.3-1.6 2.4-3.1l3.5-4.8 3.4-4.9 2.3-3.2zm-25.8 13.4c.3-.8.4-1.2.2-1.2l-.3.3c-.2.2-.3.5-.3.9-.5.7-.5 1-.2 1l.3-.3.3-.7zm10.8 16.1c.2-.2.5-.7.9-1.4.3-.7.7-1.4 1-2.2.8-1.8 1.4-2.7 1.7-2.7.1 0-.2.9-1 2.7-.9 1.8-1.7 3.2-2.3 4.1s-.9 1.1-.9.5c-.1-.2.2-.5.6-1zm13.2-15.5c.5-.7.7-1.1.7-1.4 0-.2-.1-.2-.3.1a18.39 18.39 0 0 1-.9 1.2c-.3.5-.7 1.1-.9 1.6-.3.6-.5 1-.6 1.4-.1.3-.5 1.1-1.1 2.2s-1.4 2.4-2.2 3.9c-.9 1.4-1.7 2.8-2.6 4.2l-2.1 3.3c-1 1.5-1.5 2.4-1.5 2.7s.5-.1 1.4-1.3c.6-.6 1-1.1 1.4-1.6.3-.5.5-.8.5-.9a4.67 4.67 0 0 1 .5-1c.2-.2.4-.5.6-.9s.4-.7.6-1.2c.6-.8 1-1.5 1.4-2.1.3-.6.5-.9.5-1s.2-.5.6-1.2a41.77 41.77 0 0 1 1.5-2.4c.6-1 1.1-1.9 1.5-2.7.4-.7.5-1.2.4-1.5a1.08 1.08 0 0 1 .3-.7c-.1-.2.1-.4.3-.7zm2.6 7.4c.2-.7.3-1.1.2-1.3s-.3-.2-.5-.1c-.3.2-.5.7-.5 1.4 0 .8-.1 1.2-.3 1.2s-.3.5-.3 1.4c.2.9.5 1.4.9 1.5.3.1.5-.3.5-1.1v-1.3c-.1-.6-.1-1.1 0-1.7zm27 17c.1 0 .6-.5 1.5-1.5l3-3.3c1.1-1.2 2.5-2.8 4.2-4.9 0-.1-.2 0-.5.3s-.7.7-1.2 1.1-1 .9-1.7 1.6c-.1 0-.2.1-.2.3s-.1.3-.3.4c-.5.3-1 .9-1.7 1.5-.7.7-1.3 1.3-1.9 2-.6.6-1 1.2-1.3 1.7-.3.6-.3.8.1.8z"/><path d="M637.1 205.5c.3-.3.5-.5.5-.3 0 .1-.1.3-.2.7l-.5 1.7c0 .2-.3.4-.9.5s-.9.5-1 1c0 .2-.2.6-.5 1.2s-.7 1.2-1.2 2l-1.4 2.1-.9 1.4c-.2-.7-.6-.7-1.1.1-.5.7-1.1 1.4-1.6 2l-1.7 2c-.7.7-1.1 1.3-1.4 1.6-.6.6-1.5 1.3-2.9 2.1-1.4.9-2.7 1.6-3.9 2.1-.6 0-1 .2-1.4.5-.3.3-.9.6-1.5.7-1.9.2-3.3.3-4.2.2s-1.5-.3-2-.7c-.5-.5-1-.7-1.5-.7-.6 0-1-.3-1.2-1-.6-1-1.1-1.3-1.5-.9-.3.2-.7.1-1.1-.5s-1-1.7-1.8-3.3c-.5-.7-.9-1.5-1.4-2.4s-.8-1.8-1.1-2.7l-.6-2.1c-.1-.6-.1-.8.2-.7.3 0 .3-.6 0-1.7l-.3-1.6c-.1-.5 0-1 .3-1.5.2-1 .2-1.7 0-1.9s-.1-.5.3-.7c.5-.5.5-.8 0-1-.2-.2-.2-.6 0-1 .2-.5.5-.6.7-.3.1 0 .2-.1.2-.3a.47.47 0 0 0-.5-.5c-.5 0-.6-.6-.3-1.7a5.27 5.27 0 0 1 .5-1.5c.2-.4.4-.3.5.3 0 .2-.2.3-.5.3-.1-.1-.2-.1-.2-.1 0 .1.1.1.2.3.2.6.2.9 0 .9-.5 0-.5.2-.2.5.1.7.3.7.6-.1.3-.7.7-2 1.3-3.7.5-1.5.7-2.5.7-3s-.1-.8-.3-.8c-.3-.1-.6 0-.9.3-.2.3-.2.6.2.9.1.2.1.6-.2 1-.5.3-.7.3-.9 0-.2-.6-.2-1.1.2-1.7.1-.2.3-.7.5-1.4l.5-1.9c.3-2.3.7-2.7 1-1.4.1.2.1.4.1.5-.1.1-.1.1-.1 0-.2 0-.4.3-.5.8s-.1.9.2 1.1c.2.3.5.3.7-.3.2-.5.3-1.1.3-1.8 0-.8-.1-1.3-.2-1.5-.5-.3-.5-1.2-.2-2.6.1-.9.4-2.4.9-4.5l1.4-6.4 1.2-6 .5-3.3c.1-.2.2-.5.3-.8s.1-.5.3-.8c.2-.6.9-.8 1.9-.8 1 .1 2.2.4 3.4.9 1.3.6 2.1 1.3 2.4 2.1s.4 2.3.2 4.5l-.5 2.6-.2 1.5c0 .2-.1.6-.3 1-.2.3-.4.9-.5 1.5 0 .8-.2 1.8-.7 2.9l-.3 1.5c-.1.4 0 .7.1.8v.5c0 .2-.1.5-.2.7-.5.6-.6 1-.3 1.2.2.2.2.8 0 1.8s-.7 2.6-1.4 4.9c0 .9-.3 1.4-.9 1.4l-.5.5c0 .3.1.5.3.5 0-.1 0-.1.1-.1.1.1.1.2.1.4-.3.3-.5.5-.5.3-.3-.2-.4-.1-.2.5.1.5.1 1 0 1.6s-.3 1-.7 1.1c-.2 0-.2.3.2.9.2.6.2 1-.2 1.4-.2.5-.3.9-.3 1.2 0 2.7-.2 4.2-.7 4.3-.1 0-.2.2-.3.6s-.1.8-.1 1.3 0 .9.1 1.3.1.6.3.6c0 .1 0 .3-.1.4-.1.2-.1.5-.1.9-.1.7-.2 1.5-.2 2.5a12.65 12.65 0 0 0 .3 2.8l.6 2.6c.2.8.5 1.4.7 1.7.5 1.1.7 1.8.7 2.1s.3.5 1 .6 1.6 0 2.7-.3c1.1-.2 2.2-.6 3.4-1.1s2.3-1.1 3.3-1.8c.6-.3 1.5-.9 2.7-1.8l3.6-2.7 3.1-2.7c.9-.9 1.2-1.4 1.1-1.6.2.3.2.9-.1 1.5-.3.7-1.2 1.5-2.8 2.4-.6.9-1 1.7-1.3 2.3s-.4.9-.3.9c0 .2.2.2.7 0s.9-.6 1.2-1.2c.2-.3.6-.8 1.1-1.4s.9-1.1 1.1-1.7l6.8-7.5zM604 185.6c.2-.2.1-.5-.5-.7-.1-.3-.2-.3-.2.2.2.2.4.3.5.3l.2.2zm7-33.7c-.2-.1-.4-.3-.4-.4-.1-.2-.1-.3-.3-.3-.6-.5-.5-2.7.2-6.7.1-1.6.4-3 .9-4.1s.9-2.1 1.1-2.9c.2-.6.8-1 1.8-1.3s1.5-.2 1.6.3c0 .3.2.4.7.2 1.5-.2 2.3-.1 2.6.5a.55.55 0 0 0 .3.5c.2.1.3.1.3 0 .3 0 .3.5 0 1.4 0 .3 0 .7-.1.9-.1.3-.1.5-.1.6.2.6.1 1.5-.3 2.7.1-.2-.1.5-.5 2.1-.5 1.6-.7 3.2-.9 4.8l-.3 1.5-.2 1c-.1.3-.5.7-1.1 1.2s-.9.6-.9.3c-.2-.3-.5-.5-.9-.5-.5 0-.9-.2-1.2-.5-.7-.5-1.2-.7-1.5-.7-.6.1-.8-.1-.8-.6z"/><path d="M677.8 193.5c1.6-1.3 2.6-2 3.1-2.1.5-.2-.3.5-2.2 2.1l-2.6 2.1c-.9.9-2.1 1.9-3.4 3-1.3 1-2.4 1.5-3.5 1.5s-2.7-.8-4.9-2.4c-1.4-1-2.5-2-3.3-3s-1.4-2.1-1.9-3.3-.8-2.6-1-4.3l-.7-5.9-.6-6.2-.4-3.1c-.5.2-.5.6-.2 1 .3.6-.2 1.2-1.5 1.9-.9.7-1.2 1-.9 1 .6 0 .5.4-.3 1.2-.8 1-1.1 1.7-1 2.1 0 .2-.3.5-.9.7-.6 0-.7.2-.5.7a.91.91 0 0 1 0 1c-.2.3-.6.4-1.2.2-.7 0-.9.2-.7.5 0 .3.2.5.7.5.6.2.5.5-.3.9-.3.2-.7.6-1.2 1.1s-.9 1-1.3 1.5-.7 1-.9 1.5-.3.7-.2.9c.3.3-.1 1.2-1.2 2.6-.3.6-.9 1.1-1.7 1.7s-1.1.9-1 1c.1.9-.1 2.1-.6 3.7-.5 1.5-1 2.5-1.5 2.8-.8.5-1.1 1-.9 1.7.5.8.3 1.3-.5 1.5-.5.5-.6.8-.5 1 .2.1.3.4.3.9-.1.5-.2 1.1-.4 1.6l-.5 1.5-.2 1c0 .6-.2 1.4-.5 2.6-.6 1.4-.9 3.2-.9 5.3l-.2 5.3c.2 1.6.1 3-.3 4.1-.2 1.1-.2 2 .2 2.6.2.6.1.9-.5.9-.2.2-.5.3-.9.3s-.6.1-.9.2c-.7.5-1 .3-1-.3 0-.2-.2-.2-.7 0-.3.1-.7-.2-1-.9-.2-.8-.5-1-.9-.7-.6.2-1-.1-1.4-1-.6-1-1.1-1.4-1.7-1-.5.2-.7.2-.9-.2-.1-.3-.2-1.3-.2-2.9 0-1.5.1-3.5.3-5.9l.9-8 1.5-8.9 1.7-8.8 5-22.5c1.4-6.2 2.2-10.6 2.6-13.2.2-1.4.5-2.6.7-3.7s.4-1.7.5-2c.3-.6 1.1-.8 2.4-.7s2.2.5 2.7 1c.6.6.9 1.1 1 1.5.1.5.1.9 0 1.2s-.2.7-.3 1.1 0 .8.3 1.1c.2.6.2 1.1-.1 1.6s-.5 1.1-.8 1.6c-.3.9-.5 1.9-.5 2.9-.1.2-.1.6-.1 1.1.1.5-.1 1-.4 1.5s-.5.8-.3 1.1c.1.3.3.4.5.3.6 0 .7.5.5 1.4 0 .3-.1.7-.2 1.1s-.1.7 0 .8c-.2 1.1-.6 2.7-1 4.7l-1 3.9c-.2.9-.1 1.5.3 1.7a3.04 3.04 0 0 1 .5.7c.1.2.2.5.3.7 0 .5-.2.3-.7-.3s-.8-.3-1 .7c-.5 1.7-.7 2.9-.7 3.4 0 .6.2.7.5.5.3-.3.5-.7.3-1.2 0-.6.3-1.3.9-2.1.2-.3.7-1 1.4-2l2.1-3c.6-1.1 1.4-2.5 2.4-4s2.2-3.1 3.4-4.7c1.6-2.2 2.9-3.7 3.8-4.6s1.7-1.3 2.2-1.5c1.1-.1 2.1-.1 2.9.1s1.1.4 1 .8c-.1.1 0 .2.3.3s.7.1 1.1 0c.9-.1 1.3-.1 1.2.2-.1.2.1.8.5 1.7a27.68 27.68 0 0 0 .6 1.6c.2.5.3.8.4.9-.1.3-.1 1.8 0 4.5l.4 8.4.6 8.2c.2 2.5.5 4 .7 4.3.2.8.5 1.3.9 1.6s1.1.3 2.1.1c.7-.2 1.4-.5 2.1-.9s1.5-.7 2.6-1.2c1.7-.7 2.8-1.2 3.3-1.5s.7-.3.6.1c-2.1 1.6-2.9 2.3-2.7 2.2.4.6 1.1.3 2.1-.3zm-50.5 28.8c0-.8-.1-1.3-.2-1.5-.2-.7-.3-.5-.3.7.1.9.3 1.2.5.8zm.2-3c.1-.3.1-.9-.2-1.5-.1-.2-.2-.3-.3-.1s0 .5.1.9c.3 1.1.4 1.3.4.7zm5.3-29.8c-.1-.1-.1-.5 0-1.1s.3-1.4.5-2.3l.6-2.3c.2-.7.2-1.2.1-1.5 0-.5.2-.6.5-.5.5.2.6.2.3-.2-.3-.6-.2-1.2.3-1.9.3-.8.5-1.5.3-2.1-.2-.5-.2-1.3 0-2.6.3-1.1.3-1.5 0-1.2-.1.2-.3.9-.7 2-.3 1.1-.6 2.3-.9 3.7-.2 1.4-.5 2.7-.8 3.9l-.6 2.3c-.1.2-.3 1.2-.7 3-.3 1.8-.7 3.8-1.2 5.9-.6 2.1-1 4-1.4 5.8-.3 1.8-.6 2.9-.7 3.5-.1.3-.2.8-.3 1.3s-.2.9-.2 1.1c.1.2.1.7 0 1.4l-.3 2.2c-.5 2.5-.7 4.3-.8 5.2-.1 1 0 1.5.3 1.5.2 0 .4-.4.4-1.1.1-.7.2-1.6.4-2.7 0-1.1.2-3 .6-5.5s.9-5 1.4-7.5 1-4.7 1.5-6.6.8-2.9 1-2.9c.5-.1.5-.4.4-.8zm3.3 1.6c.3-.1.5-.7.5-1.7-.2-2.6-.9-1.3-1.9 4.1-.6 2.5-.9 4.2-.9 5.1-.1.9.2.2.8-2 .2-.8.3-1.3.3-1.5s.1-.3.3-.4c.1-.1.3-.4.5-.9s.2-.8 0-1c-.1-.3-.1-.7 0-1.1s.3-.6.4-.6zm14.1-17.7c.8-1 1.3-1.8 1.4-2.2.1-.5.1-.7 0-.7-.1-.1-.4.1-.8.6s-.9 1.1-1.4 1.9a27.21 27.21 0 0 0-1.6 2.5 41.77 41.77 0 0 0-1.5 2.4c-.6 1.4-1 2.2-1.4 2.6-.6.2-1 1-1.4 2.4a5.3 5.3 0 0 1-.8 1.5c-.3.4-.5.6-.6.6-.3 0-.5.2-.5.7.1.6.3.7.7.3.3-.4 1.1-1.7 2.4-4 .7-1.3 1.5-2.7 2.6-4.3 1-1.8 1.9-3.2 2.9-4.3zm4.3-6.5c.9-1.3 1.3-1.9 1.2-1.9-.5 0-1.1.7-1.9 2.1-.6.6-1 1-1.2 1.4-.2.3-.2.5 0 .5.2-.1.8-.8 1.9-2.1zm.3 6.2l.3-.9-.7.5c-1 1-1.3 1.5-.7 1.5l.3-.3.3-.3.5-.5zm19.4 22.3c.7-.1.9-.4.7-.9-.2-.3-.9-.1-2.1.7-.6.3-1.1.7-1.7 1s-1 .6-1.2.9c-.2.2-.2.3 0 .3.2-.1.9-.3 2.1-.8.2-.2.6-.5 1.1-.7s.9-.4 1.1-.5z"/><path d="M738.9 193.2l-1.4 1.4c-.6.6-1.1 1.3-1.5 2.1-.4.9-1 1.5-1.8 2-.1.2-.8.9-2.1 2.1l-4.6 4.1-4.4 4.1c-1.2 1.3-1.8 2-1.8 2.2a.47.47 0 0 1-.5.5c-.3-.1-.5.1-.5.5 0 .5.2.6.7.3.5-.2.7-.6.9-1.2.1-.7.5-1 1.2-1 .5 0 .7-.2.7-.7 0-.6.3-.9.9-.9.3 0 .6-.2.9-.7.2-.6.5-.9.9-.9s.1.6-.9 1.9c-.9 1.3-1.8 2.3-2.7 3.1l-1.5 1.5-1.9 1.9-2.1 2-1.4 1.3c-.2.2-.5.6-.9 1-.4.5-.8.8-1.3 1-.3.3-.9.8-1.7 1.4s-1.7 1.1-2.7 1.7l-3.3 1.8-3.3 1.6c-2.4.9-4.8 1.5-7.3 1.9-2.5.3-4.5.3-6.1-.2-.3-.2-.7-.4-1.2-.5s-.8-.3-1-.5c-.1-.2-.4-.3-.9-.3-.1.1-.4.1-.9-.1s-1-.4-1.5-.7c-.6-.3-1.1-.6-1.6-1l-1.3-1.1c-.2-.3-.5-.7-.9-.9-.3-.3-.6-.5-.9-.8-.6-.2-1.4-1.4-2.4-3.5s-1.9-4.3-2.7-6.6c-.6-1.4-1-2.6-1.1-3.6-.2-1-.2-2.3-.1-4l.4-6.3c.1-.9.3-1.4.5-1.6 0-.1.1-.4.2-.8l.4-1.5c0-.6.1-1.1.3-1.5s.4-.7.6-.9c.5-.2.5-.6.2-1-.4-.3-.2-.5.4-.5.4 0 .4-.2.2-.7s.1-.9.9-1.2c.7-.5 1.1-.8 1.1-1s.1-.5.3-.8.4-.5.6-.8c1-.8 1.2-1.3.5-1.5-.2-.2-.1-1 .5-2.4s1.4-2.8 2.6-4.3c1.4-1.8 3.1-3.6 5.1-5.2 2-1.7 4.1-3.1 6.4-4.4 2.2-1.3 4.4-2.3 6.6-3s4.2-1.1 6.2-1.1c1 0 2.2.3 3.4.8 1.3.5 2.5 1.2 3.7 2.1s2.3 1.8 3.2 2.8 1.5 2 1.7 2.9c.6 2.4.6 4.5.2 6.4-.5 1.8-1.7 3.9-3.6 6.2l-2 2.2-2.7 2.7-2.6 2.5-1.7 1.6c-.9.8-2.3 1.6-4.3 2.5-1.9.9-3.7 1.6-5.3 2.1l-3 .6a17.33 17.33 0 0 1-3.2.3c-1 0-1.9-.1-2.6-.3s-1.1-.4-1.2-.6c-.2-.3-.5-.5-.7-.5-.2.2-.6-.2-1.2-1.2l-.9-1.5h1.4c1.7 0 4.1-.7 7.1-2.1s6-3.2 9-5.5c2.7-1.9 5.2-4.6 7.4-7.9.3-.6.7-1.1 1-1.5.3-.5.6-.6.7-.5.1.2.2-.1.3-1s.1-1.9.1-3.1c-.1-1.1-.1-2.2-.3-3.3-.1-1-.2-1.7-.3-1.9-.2-.3-.8-.5-1.8-.4s-2 .2-3 .4-1.9.5-2.7.9c-.7.4-1 .8-.8 1.1.1.1.1.2-.1.3s-.4 0-.8-.3h-.7c1.3.6.9 1.2-1 1.9-.3.1-.9.5-1.7 1-.8.6-1.6 1.2-2.4 1.9s-1.5 1.3-2.1 1.9-.9 1-.9 1.2c0 .5-.6 1.1-1.7 2.1-.5.5-1 1.2-1.7 2.1l-2.1 3c-.7 1-1.3 2-1.7 2.8-.5.9-.7 1.4-.7 1.6 0 .3-.1.5-.3.5-.3 0-.8.6-1.3 1.9s-1 2.8-1.5 4.6-.8 3.8-1.1 5.8c-.3 2.1-.4 3.8-.4 5.3 0 1.7.3 3.7.9 6s1.1 3.8 1.7 4.5c.2.2.5.5.7.9.2.3.5.7.7 1 .6.6 1.1.9 1.5 1 .5.1 1.6.2 3.4.2 2.3 0 4.7-.4 7.3-1.2s5.3-1.9 8.2-3.4c.8-.6 1.5-1 2.1-1.2s1.1-.3 1.3-.3c.5 0 .9-.3 1.2-.9.3-.5.5-.6.5-.5s.3.1 1-.2.9-.7.7-1.2c-.1-.1-.1-.2-.1-.3.1-.1.1 0 .3.1.8.5 3.7-1 8.8-4.5 1.4-1 3-2.3 4.8-3.8s3.6-3 5.3-4.6c1.7-1.5 3.3-3 4.6-4.3 1.4-1.3 2.3-2.3 2.9-3l1.1-.4zm-62.8 8.4c.3-.2.4-.6.2-1-.2-.2-.3-.1-.3.3-.1.6 0 .8.1.7zm2.2-6.2c.5-.7.7-1.3.7-1.9 0-.3-.1-.3-.3 0-.1.2-.2.5-.3.9s-.2.7-.3.9l-.3.9c0 0 .2-.2.5-.8zm1.4-4c-.2.3-.3.5-.3.5.1 0 .2-.1.4-.3.3-.2.5-.5.5-.9-.1-.2-.4 0-.6.7zm0-7.5c-.2.8.2.5 1.2-1 .5-.6 1-1.3 1.5-2.1.6-.8 1.1-1.5 1.7-2.1.5-.6 1.1-1.2 1.9-2 .8-.7 1.5-1.4 2.2-2 .9-.8 1.4-1.3 1.5-1.5s-.1 0-.7.4c-.6.2-1.1.5-1.5.9-.5.4-.8.7-1 .9s-.6.5-1 .9c-.5.3-.9.7-1.4 1s-.9.7-1.2 1.1-.5.7-.5.9c0 .5-.1.7-.3.7-.3 0-.8.4-1.3 1.3-.5 1.1-.9 1.9-1.1 2.6zm2.1 4.4c.2-.2.2-.6 0-1-.1-.2-.2-.1-.3.3-.1.7 0 1 .3.7zm30.9-10.1c-.3.6-.7 1.2-1.1 1.9s-.7 1.1-.9 1.4c-.6.6-1 1.2-1.4 1.9-.2.2-.5.6-.8 1.1l-.9 1.5c-1 1.3-1.2 1.7-.6 1.5.6-.3 1.6-1.2 3-2.8 1.3-1.5 2.3-2.9 3.1-4.2s1.3-2.5 1.4-3.5c.1-.8.1-1.1-.1-.9s-.8.7-1.7 2.1zm.3 33.7a.47.47 0 0 1 .5-.5c.2 0 .3.2.3.5l-.3.3-.2.2c-.2 0-.3-.2-.3-.5zm3.8-2.6c-.2 0-.3-.1-.2-.2.9-.8 1.9-1.6 3.1-2.5 1.1-.9 1.8-1.3 2.1-1.3.2 0 .1.3-.5.9-.9.6-1.8 1.3-2.6 2.1-.9.7-1.6 1-1.9 1zm6.3-5c-.6 0-.2-.4 1-1.2l2.5-2c.3-.2-.1.2-1.1 1.1-.5.6-.9 1.1-1.4 1.5-.4.4-.7.6-1 .6zm6.4-4.5c-1.1 1-1.7 1.3-1.7.7 0-.1.2-.2.5-.3s.7-.3 1.2-.8l1.5-1.4-1.5 1.8z"/><path d="M775.3 207.1c1.9-1.1 2.9-1.6 3-1.3s-.8.9-2.5 1.8l-2.6 1.5c-.2.2-.1.3.3.1s1.1-.4 2-.8c.9-.3 1.6-.7 2.3-1-.5.2-.4.2.3-.2.6-.3 1.3-.8 2.1-1.3l2.1-1.3c.6-.3.7-.3.3 0-.5.3-1.3.9-2.4 1.8l-3.5 2.6-3.3 2.3c-1 .7-1.5 1-1.6 1-.2 0-.5.1-.9.4l-1.2.9c-.4.3-.7.7-1 .9-.3.3-.4.5-.3.6s-.1.2-.6.3-.9.2-1.1.4c-.6.2-1 .5-1.4.9l-2.4 2.4c-1.1 1.1-2.8 2.3-5 3.6-.6.2-1.1.6-1.5 1.1s-.8.9-1.1 1.1c-.6.2-.8.6-.6 1.1s.4 1.1.8 1.6c.7.7.9 1.1.7 1.4-.3.3-.3.7.2 1 .2.2.5.9.9 2s.5 1.7.4 2c-.2.7-.2.9.2.5.3-.2.5.4.3 1.9-.2 2.3-.5 4-.8 5.1s-.6 1.7-.9 2c-.7.5-.9.9-.5 1.2.2.5.1.7-.3.7-.6 0-.9.2-.9.7-.2 1.5-.5 2.6-.9 3.4-.3.8-.6 1.1-.9.9-.3-.3-.5-.2-.5.3 0 .3-.2.8-.7 1.5l-1.6 1.9-1.8 1.7c-.6.5-1 .8-1.2.8-.7 0-.9.3-.5.9 0 .5-.1.6-.3.5-.3-.3-.6-.1-.9.9l-.3.8c-.1.2-.2.1-.2-.1-.5 0-1.7.6-3.6 1.7l-2.5 1.5c-.7.4-1.2.5-1.5.4-.2-.1-.6-.1-1 .2a2.73 2.73 0 0 0-1.2.9l-.9.9c-.1 0 0-.3.3-.9.1-.6-.1-.7-.5-.3-.8.6-2.1.8-4 .6s-3.7-.7-5.4-1.6c-1.9-1-3.2-1.9-3.8-2.5s-1.1-1.6-1.5-3c-.6-2.2-.4-4.4.4-6.8.9-2.3 2-4.6 3.5-6.8s3.1-4.2 4.9-5.9l4.6-4.2 3.8-2.8 4.5-3.2 4-2.6c1.1-.7 1.8-1 2.1-1 .9 0 .7-.8-.6-2.3s-3.3-3.3-6.1-5.4c-.9-.7-2.1-1.9-3.5-3.7l-4-5.5-3.3-5.1c-.9-1.5-1.4-2.3-1.4-2.6s-.3-.8-.9-1.4c-.2-.2-.5-.7-.7-1.5-.2-.7-.4-1.6-.5-2.5a15.04 15.04 0 0 1-.3-2.9c.1-.9.2-1.9.5-2.9l1.2-3.5a54.37 54.37 0 0 1 2.1-4.7l1.4-3c.5-.9.9-1.7 1.5-2.4l1.7-2.3 2.3-2.9c2.4-2.7 4.6-4.7 6.7-5.8s4.4-1.7 7-1.7 5.4.8 8.3 2.5 4.7 4 5.2 7c.1.7.1 1.6-.2 2.7a32.82 32.82 0 0 1-.9 3.7c-.4 1.3-.9 2.6-1.5 3.9l-1.7 3.5-2.9 4-3.9 4.9-3.7 4.2c-1.1 1.2-1.9 1.8-2.4 1.8-.8 0-1.7.3-2.7 1-.9.5-1.5.7-1.9.7s-1-.2-1.9-.5c-1.7-.8-2.6-1.6-2.6-2.4.1-.1.3-.2.5-.3s.7-.4 1.4-.9c1.6-.8 3.3-2.1 5-3.8s3.4-3.7 5-5.8l4.4-6.6c1.3-2.2 2.4-4.3 3.2-6.3.2-.6.4-1.4.6-2.6.2-1.1.2-2.3.1-3.4s-.4-2-.9-2.7c-.5-.6-1.3-.7-2.5-.3l-3 .9c-1.3.4-2.4.9-3.3 1.5-.3 0-.9.3-1.7 1s-1.7 1.5-2.6 2.6l-2.7 3.3c-.9 1.1-1.6 2.1-2.1 2.9l-2.7 4.6-1.6 2.8c-.4.7-.7 1.4-.9 1.9s-.3 1-.4 1.5c0 .6-.1 1.1-.3 1.5l-.4.9c-.5.2-.6.5-.3.7.1.2.2.7.3 1.5l.2 2.6c.1.8.5 1.8 1.1 3s1.4 2.5 2.3 3.8l3 4c1.1 1.4 2.3 2.6 3.5 3.8.9.9 1.6 1.8 2 2.7s.6 1.3.6 1.5c.1.2.4.4.8.5s.8.3 1.3.5c1 .5 1.5.9 1.5 1.2-.1.1-.1.3 0 .5s.3.4.5.5.7.1 1.4 0l1.2 1.3c.2.3.5.3.9.1.7-.3 1.3-.8 1.9-1.3s2.2-1.4 4.8-2.7c.6-.3 1.2-.8 2-1.3l2.1-1.5 1.8-1.4c.5-.4.8-.6.9-.6 1.6-.6 3-1.2 4.3-2 1.3-.7 1.9-1.1 2.1-.9.2.1.7-.1 1.5-.5.5-.5.9-.7 1-.7zm-44.9 50.3c1.7-.6 3.9-1.7 6.4-3.3 2.6-1.7 4.7-3.3 6.3-5.1 1.6-1.6 3.1-3.5 4.5-5.8s2.3-4.3 2.7-6c.6-1.9.8-3.7.7-5.3s-.3-2.4-.5-2.4-.7.2-1.5.7c-.7.5-1.6 1-2.7 1.7l-2.7 1.6c-.7.5-1.2.8-1.3.8-1.1-.3-1.7-.2-1.7.5 0 .2-.1.5-.4.9-.3.3-.5.6-.8.9l-.9.7c-.1 0 .1-.2.4-.5.2-.3.3-.5.3-.6s-.3-.1-.9-.1c-.7 0-.9.2-.7.7 0 .8-.6 1.7-1.9 2.7l-2.3 2.1c-.4.3-.3 0 .3-.8.2-.2.3-.4.3-.6s-.1-.3-.3-.3-.5.3-.8.8-.5 1.1-.6 1.6c0 .3-.2.5-.7.5-.2-.1-.6.2-1.1 1s-.9 1.4-1.3 1.7c-.8.8-1.8 1.9-2.9 3.3s-1.8 2.4-1.9 2.8c0 .6-.3 1.3-.9 2.1-1 1.6-.9 2.8.5 3.7 1.5.9 3.6.9 6.4 0zm.3 2.4c.1-.1-.1-.2-.7-.2-.7.2-1.1.5-1.4.7-.2.3.1.4.9.2.8-.3 1.2-.5 1.2-.7zm0-1.6c.1-.3-.1-.4-.7-.2s-.9.4-1 .5.1.2.7.2c.7.1 1-.1 1-.5zm2.6.6c-1.3 1.1-1.6 1.7-.9 1.7.6 0 1.8-.6 3.5-1.7a9.86 9.86 0 0 1 2-1.3l1.5-.8c.8-.3 1.2-.7 1.2-1.2 0-.3.3-.5.9-.5s.9-.1.9-.3c0-.1.3-.5.8-1.1l2-2.3a18.4 18.4 0 0 0 2.1-2.5l1.8-2.6c.5-.7.8-1.3.9-1.6s-.1-.3-.6 0l-1.8 1.9c-.6.7-.9 1.1-.9 1.4 0 .2-.2.3-.7.3-.2 0-.5.2-.8.5s-.6.7-.9 1.2c-.6 1.1-1.1 1.7-1.7 1.7-.3-.1-.5 0-.5.3 0 .2-.2.6-.6 1.1s-.9 1-1.5 1.5l-1.8 1.4c-.6.4-.9.5-1 .4-.2-.2-.3-.1-.3.3 0 .6-.2.6-.5 0-.3-.5-.5-.5-.5 0 0 .7-.3.9-.9.7-.5-.2-.8-.1-1 .3-.2.3-.2.4.2.2-.1 0-.2.3-.9 1zm1.7-20.5c-.5 0-.7.3-.7.9 0 .5.1.7.2.7l.2-.2a3.04 3.04 0 0 1 .7-.5c.4-.6.3-.9-.4-.9zm11.3 15c1.7-1.9 2.5-2.9 2.2-2.9-.1 0-.6.3-1.5 1s-1.7 1.5-2.7 2.4l-3.4 2.8-3.3 2.3-2.1 1.3c-.6.4-.9.7-.9.8s.3.1.9-.2c.6-.2 1.3-.6 2.1-1l2.3-1.4 1.5-1c.3-.5.7-.7 1-.8s.4.2.2.8c-.1.2-.1.3-.1.3.1 0 .1-.1.3-.3.5 0 .6-.3.3-.9-.1-.2.1-.6.7-1.2.9-.6 1.6-1.2 2.5-2zm-3.2-24.9c-1.3.9-2.1 1.6-2.4 2.1s-.1.5.7.2c.6-.2.9-.5.9-.7 0-.3.2-.5.7-.5.2 0 .5-.2.9-.5s.9-.7 1.5-1c1.1-1 1.5-1.5 1.1-1.4-.5 0-1.6.6-3.4 1.8zm1.7 28.3a.47.47 0 0 0 .5-.5c0-.1 0-.2-.1-.3s-.1-.1-.1-.3v-.2c-.3 0-.5.2-.5.7-.3.4-.3.6.2.6zm2.9-31.1c-.2.3-.1.5.5.5s.9-.2.9-.5a.47.47 0 0 0-.5-.5c-.3 0-.6.2-.9.5zm2.7 22.7l1.3-2.6c.1-.2-.2-.2-.8.2-.5.5-.7.9-.7 1.2.1.3.1.5-.2.5-.5 0-.8.3-1 1-.5.8-.5 1.2 0 1.2s1-.5 1.4-1.5zm2.6-4.3c.1 0 .2-.2.2-.5a.47.47 0 0 0-.5-.5c-.3 0-.4.2-.2.5a.47.47 0 0 0 .5.5zm.2-2.2c.1 0 .3-.5.5-1.4 0-.9-.2-1.1-.5-.7-.3.5-.5.9-.5 1.4 0 .4.2.7.5.7zm14.6-29.6c0-.1-.7.3-2.1 1.3l-4.8 3.3-4.9 3.5-2.4 1.8c-.5.3-.4.5.3.3.6-.1 1.3-.5 2-1 2.2-1.3 4.3-2.7 6.4-4.4s4.5-3.2 7.2-4.6c.3-.1.4-.2.3-.3-.2-.1-.4-.1-.7 0s-.6.1-.9.1c-.4.2-.5.1-.4 0z"/></svg>