<?xml version="1.0" encoding="utf-8"?>
<!-- Generator: Adobe Illustrator 23.0.2, SVG Export Plug-In . SVG Version: 6.00 Build 0)  -->
<svg version="1.1" id="Calque_1" xmlns="http://www.w3.org/2000/svg" xmlns:xlink="http://www.w3.org/1999/xlink" x="0px" y="0px"
	 viewBox="0 0 850.39 850.39" style="enable-background:new 0 0 850.39 850.39;" xml:space="preserve">
<style type="text/css">
	.st0{display:none;}
	.st1{display:inline;opacity:0.5;}
	.st2{fill:#32B6CC;}
	.st3{fill:#64C0BC;}
	.st4{fill:#7CBB4D;}
	.st5{fill:#6ABB8A;}
	.st6{opacity:0.5;fill:#92C168;}
	.st7{opacity:0.5;fill:#64C0BC;}
	.st8{opacity:0.5;fill:#6ABB8A;}
	.st9{opacity:0.45;fill:#32B6CC;}
	.st10{fill:#005885;}
</style>
<g class="st0">
	<g class="st1">
		<circle class="st2" cx="379.86" cy="91.61" r="35.56"/>
		<circle class="st2" cx="387.78" cy="252.91" r="35.56"/>
		<circle class="st2" cx="300.28" cy="176.22" r="35.56"/>
		<path class="st2" d="M384.66,126.85c-3.52,0.6-52.11,7.31-47.99,49.93s40.36,40.56,51.1,40.56c9.45,0-17.34,32.96-24.05,39.61
			c-0.6,0.59-10.15,3.59-11.51-4.05c-1.44-8.07-11.27-43.76-51.93-41.13c-15.8,1.02-15.53-50.57-6.59-66.27
			c1.45-2.54,3.67-4.64,6.59-4.86c10.78-0.78,41.28-7.05,44.02-49.04C346.15,63.2,397.05,124.73,384.66,126.85z"/>
	</g>
	<g class="st1">
		<circle class="st3" cx="387.78" cy="414.21" r="35.56"/>
		<circle class="st3" cx="306.25" cy="332.86" r="35.56"/>
		<circle class="st3" cx="387.78" cy="252.91" r="35.56"/>
		<path class="st3" d="M391.51,389.09c2.53-3.68,15.7-8.15-5.29-10.41c-23.42-2.53-44.77-14.28-44.41-45.82
			c0.51-43.61,39.4-45.88,45.97-44.39c6.57,1.5-35.56-35.56-35.56-35.56s-0.92,47.96-45.97,44.39c-8.04-0.64-2.9,47.35-0.79,64.87
			c0.42,3.44,3.25,6.03,6.71,6.23c12.42,0.73,40.04,6.76,40.04,45.81C352.22,428.72,381.48,403.67,391.51,389.09z"/>
	</g>
	<g class="st1">
		<circle class="st4" cx="548.26" cy="410.48" r="35.56"/>
		<circle class="st4" cx="469.1" cy="332.86" r="35.56"/>
		<circle class="st4" cx="387.78" cy="414.21" r="35.56"/>
		<path class="st4" d="M384.98,386.42c-2.51-2.79-0.95-7.78,2.8-7.78c22.59,0,44.29-10.38,45.76-42.9
			c1.74-38.41,51.96-22.77,68.21-13.01c3.16,1.9,2.66,10.12,2.72,13.85c0.19,13.74,10.45,36.39,47.5,38.54
			c7.53,0.44-13.48,21.66-26.68,34.29c-3.68,3.52-12.59,14.06-12.59,1.08c0-23.38-10.45-40.79-43.59-42.06
			c-32.21-1.24-43.61,19.57-46.23,51.57c-0.22,2.64-17.78,6.43-20.4,4.28L384.98,386.42z"/>
	</g>
	<g class="st1">
		<circle class="st5" cx="550.11" cy="252.91" r="35.56"/>
		<circle class="st5" cx="387.78" cy="252.91" r="35.56"/>
		<circle class="st5" cx="469.1" cy="332.86" r="35.56"/>
		<path class="st5" d="M503.15,340.33c1.31-0.77,1.53-5.96,1.51-7.47c-0.11-9.52,3.11-43.94,44.11-44.76
			c3.9-0.08-21.63-33.08-32.04-41.63c-1.39-1.14-2.16,3.6-2.19,5.4c-0.21,11.96-5.85,48.21-46.78,45.06
			c-38.77-2.99-43.64-32.73-44.43-44.01c-0.16-2.28-0.96-6.29-2.76-4.88l-38.46,35.74c-1.63,1.45-0.74,4.14,1.43,4.32
			c13.54,1.16,51.34,6.68,50.02,43.3C432.83,352.03,490.91,347.51,503.15,340.33z"/>
	</g>
</g>
<g class="st0">
	<g class="st1">
		<circle class="st2" cx="379.86" cy="91.61" r="35.56"/>
		<circle class="st2" cx="387.78" cy="252.91" r="35.56"/>
		<circle class="st2" cx="300.28" cy="176.22" r="35.56"/>
		<path class="st2" d="M384.66,126.85c-3.52,0.6-52.11,7.31-47.99,49.93s40.36,40.56,51.1,40.56c9.45,0-17.34,32.96-24.05,39.61
			c-0.6,0.59-10.15,3.59-11.51-4.05c-1.44-8.07-11.27-43.76-51.93-41.13c-15.8,1.02-15.53-50.57-6.59-66.27
			c1.45-2.54,3.67-4.64,6.59-4.86c10.78-0.78,41.28-7.05,44.02-49.04C346.15,63.2,397.05,124.73,384.66,126.85z"/>
	</g>
	<g class="st1">
		<circle class="st3" cx="387.78" cy="414.21" r="35.56"/>
		<circle class="st3" cx="306.25" cy="332.86" r="35.56"/>
		<circle class="st3" cx="387.78" cy="252.91" r="35.56"/>
		<path class="st3" d="M391.51,389.09c2.53-3.68,15.7-8.15-5.29-10.41c-23.42-2.53-44.77-14.28-44.41-45.82
			c0.51-43.61,39.4-45.88,45.97-44.39c6.57,1.5-35.56-35.56-35.56-35.56s-0.92,47.96-45.97,44.39c-8.04-0.64-2.9,47.35-0.79,64.87
			c0.42,3.44,3.25,6.03,6.71,6.23c12.42,0.73,40.04,6.76,40.04,45.81C352.22,428.72,381.48,403.67,391.51,389.09z"/>
	</g>
	<g class="st1">
		<circle class="st4" cx="548.26" cy="410.48" r="35.56"/>
		<circle class="st4" cx="469.1" cy="332.86" r="35.56"/>
		<circle class="st4" cx="387.78" cy="414.21" r="35.56"/>
		<path class="st4" d="M384.98,386.42c-2.51-2.79-0.95-7.78,2.8-7.78c22.59,0,44.29-10.38,45.76-42.9
			c1.74-38.41,51.96-22.77,68.21-13.01c3.16,1.9,2.66,10.12,2.72,13.85c0.19,13.74,10.45,36.39,47.5,38.54
			c7.53,0.44-13.48,21.66-26.68,34.29c-3.68,3.52-12.59,14.06-12.59,1.08c0-23.38-10.45-40.79-43.59-42.06
			c-32.21-1.24-43.61,19.57-46.23,51.57c-0.22,2.64-17.78,6.43-20.4,4.28L384.98,386.42z"/>
	</g>
	<g class="st1">
		<circle class="st5" cx="550.11" cy="252.91" r="35.56"/>
		<circle class="st5" cx="387.78" cy="252.91" r="35.56"/>
		<circle class="st5" cx="469.1" cy="332.86" r="35.56"/>
		<path class="st5" d="M503.15,340.33c1.31-0.77,1.53-5.96,1.51-7.47c-0.11-9.52,3.11-43.94,44.11-44.76
			c3.9-0.08-21.63-33.08-32.04-41.63c-1.39-1.14-2.16,3.6-2.19,5.4c-0.21,11.96-5.85,48.21-46.78,45.06
			c-38.77-2.99-43.64-32.73-44.43-44.01c-0.16-2.28-0.96-6.29-2.76-4.88l-38.46,35.74c-1.63,1.45-0.74,4.14,1.43,4.32
			c13.54,1.16,51.34,6.68,50.02,43.3C432.83,352.03,490.91,347.51,503.15,340.33z"/>
	</g>
</g>
<g>
	<g>
		<path class="st6" d="M590.18,460.24c-0.02,0-0.03-0.01-0.04-0.01c-0.01,0-0.02,0-0.03,0c-0.82-0.08-1.65-0.15-2.49-0.19
			c-46.78-3.7-59.85-32.82-60.1-50.62c0,0,0-0.01,0-0.02c0.17-1.61,0.25-3.24,0.25-4.89c0-25.89-20.99-46.89-46.89-46.89
			c-25.89,0-46.89,20.99-46.89,46.89c0,0.88,0.03,1.76,0.08,2.63c-0.03,0.39-0.06,0.77-0.08,1.17
			c-1.94,42.88-30.55,56.56-60.34,56.56c-25.89,0-46.89,20.99-46.89,46.89c0,25.89,20.99,46.89,46.89,46.89
			c23.28,0,42.59-16.97,46.25-39.21c0-0.02,0.01-0.03,0.01-0.05c0-0.02,0-0.04,0.01-0.06c0.31-1.9,0.5-3.83,0.57-5.8
			c4.37-38.85,19.92-63.69,60.38-62.13c43.69,1.68,57.48,24.63,57.48,55.46c0,0.57,0.02,1.1,0.04,1.6
			c0.85,25.15,21.49,45.28,46.85,45.28c25.89,0,46.89-20.99,46.89-46.89C632.13,482.64,613.75,462.71,590.18,460.24z"/>
		<path class="st7" d="M373.66,464.89c-0.67,0-1.34,0.02-2.01,0.05c-0.02,0-0.03,0-0.04-0.01c-30.88-3.33-59.03-18.83-58.55-60.42
			c0.57-49.32,38.38-58.54,54.59-58.92c1.97,0.25,3.98,0.4,6.02,0.4c0.36,0.08,0.6,0.07,0.75-0.02
			c25.55-0.4,46.14-21.22,46.14-46.87c0-25.89-20.99-46.89-46.89-46.89c-25.89,0-46.89,20.99-46.89,46.89
			c0,0-1.16,59.96-56.08,58.74c-1.49-0.14-3-0.22-4.52-0.22c-0.18-0.01-0.34-0.01-0.51,0.01c-25.66,0.27-46.38,21.15-46.38,46.87
			c0,25.89,20.99,46.89,46.89,46.89c1.96,0,3.89-0.13,5.79-0.37c0.65,0.18,1.32,0.3,2.02,0.34c16.37,0.97,52.8,8.91,52.8,60.4
			c0,25.89,20.99,46.89,46.89,46.89c25.89,0,46.89-20.99,46.89-46.89C420.54,485.88,399.55,464.89,373.66,464.89z"/>
		<path class="st8" d="M587.68,252.23c-25.06,0-45.52,19.66-46.82,44.39c-0.04,0.42-0.06,0.8-0.07,1.11
			c-0.27,15.78-7.71,63.57-61.68,59.41c-51.12-3.94-57.53-43.16-58.58-58.03c0-25.89-20.99-46.89-46.89-46.89
			c-25.89,0-46.89,20.99-46.89,46.89c0,25.58,20.49,46.36,45.95,46.86c20.56,2.41,62.91,12.04,61.31,56.62c0,0.1,0,0.19,0,0.29
			c-0.02,0.54-0.04,1.09-0.04,1.63c0,25.89,20.99,46.89,46.89,46.89c25.19,0,45.73-19.87,46.83-44.79c0.04-0.88,0.06-1.63,0.05-2.1
			c-0.14-12.26,3.93-55.82,54.49-58.84c1.78,0.21,3.59,0.32,5.42,0.32c25.89,0,46.89-20.99,46.89-46.89
			C634.57,273.22,613.58,252.23,587.68,252.23z"/>
		<path class="st9" d="M373.66,252.23c-14.17,0-61.94,2.72-67.38-53.48c-5.44-56.2,58.63-65.04,63.27-65.84
			c0.03-0.01,0.06-0.02,0.09-0.02c22.85-3.13,40.46-22.72,40.46-46.44c0-25.89-20.99-46.89-46.89-46.89
			c-25.89,0-46.89,20.99-46.89,46.89c-3.61,55.37-43.82,63.63-58.03,64.66c-25.89,0-46.89,20.99-46.89,46.89
			c0,25.39,20.18,46.05,45.38,46.85c0.49,0.05,0.99,0.07,1.51,0.04c1.04,0,2.07-0.05,3.1-0.11c50.99-1.47,63.51,43.91,65.37,54.34
			c0,25.89,20.99,46.89,46.89,46.89c25.89,0,46.89-20.99,46.89-46.89C420.54,273.22,399.55,252.23,373.66,252.23z"/>
	</g>
	<g>
		<path class="st10" d="M123.09,781.89c0,0.96-0.91,3.11-2.72,6.45c-1.82,3.35-4.92,7.02-9.32,11.04
			c-8.6,8.03-20.55,12.04-35.84,12.04h-8.6c-7.84,0-14.91-1.15-21.22-3.44c-6.31-2.29-11.71-5.59-16.2-9.89
			c-4.49-4.3-7.98-9.46-10.47-15.48c-2.49-6.02-3.73-12.66-3.73-19.93V673.8c0-7.26,1.24-13.91,3.73-19.93
			c2.48-6.02,5.97-11.18,10.47-15.48c4.49-4.3,9.89-7.6,16.2-9.89c6.31-2.29,13.38-3.44,21.22-3.44h8.6c7.07,0,13.52,1,19.35,3.01
			c5.83,2.01,10.85,4.44,15.05,7.31c4.2,2.87,7.45,5.98,9.75,9.32c2.29,3.35,3.44,6.45,3.44,9.32c0,0.96-0.57,1.72-1.72,2.29
			l-18.35,9.17c-0.39,0.19-0.86,0.29-1.43,0.29c-0.77,0-1.53-0.57-2.29-1.72c-3.25-4.39-6.5-8.17-9.75-11.33
			c-3.25-3.15-7.93-4.73-14.05-4.73h-8.6c-7.27,0-13.38,2.49-18.35,7.45c-4.97,4.97-7.45,11.09-7.45,18.35v88.88
			c0,7.27,2.48,13.38,7.45,18.35c4.97,4.97,11.08,7.45,18.35,7.45h8.6c3.44,0,6.55-0.62,9.32-1.86c2.77-1.24,4.83-2.63,6.16-4.16
			c3.25-3.82,5.64-6.83,7.17-9.03c1.53-2.2,2.77-3.3,3.73-3.3c0.38,0,0.95,0.19,1.72,0.57l18.06,9.17
			C122.52,780.46,123.09,781.13,123.09,781.89z"/>
		<path class="st10" d="M257.56,806.26c0,1.53-0.96,2.29-2.87,2.29h-22.08l-2.58-2.01l-26.66-76.55l-2.29-1.72h-28.38
			c-1.91,0-2.87,0.96-2.87,2.87v74.55c0,1.91-0.96,2.87-2.87,2.87h-20.07c-1.91,0-2.87-0.95-2.87-2.87v-174.9
			c0-1.91,0.95-2.87,2.87-2.87h57.34c15.86,0,28.43,4.64,37.7,13.91c9.27,9.27,13.91,21.84,13.91,37.7v2.87
			c0,4.97-1.34,10.37-4.01,16.2c-2.68,5.83-6.79,11.33-12.33,16.49c-2.68,2.49-5.07,4.16-7.17,5.02c-2.11,0.86-3.15,2.06-3.15,3.58
			c0,0.38,0.09,0.67,0.29,0.86l27.81,80.28C257.46,805.21,257.56,805.69,257.56,806.26z M230.04,676.66
			c0-7.26-2.49-13.38-7.45-18.35c-4.97-4.97-11.09-7.45-18.35-7.45h-31.54c-1.91,0-2.87,0.96-2.87,2.87v48.74
			c0,1.91,0.95,2.87,2.87,2.87h31.54c7.26,0,13.38-2.48,18.35-7.45c4.97-4.97,7.45-11.08,7.45-18.35V676.66z"/>
		<path class="st10" d="M420.99,808.55h-20.07c-1.91,0-2.87-0.95-2.87-2.87l3.15-127.3l-41,102.65c-0.39,0.96-1.25,1.53-2.58,1.72
			h-9.75c-1.34-0.19-2.2-0.76-2.58-1.72L304.87,678.1l2.58,127.59c0,1.91-0.96,2.87-2.87,2.87h-20.07c-1.91,0-2.87-0.95-2.87-2.87
			v-174.9c0-1.91,0.95-2.87,2.87-2.87h19.78c1.34,0,2.2,0.57,2.58,1.72l45.3,113.83h0.86l45.01-114.11l2.58-1.72l20.36,0.29
			c1.91,0,2.87,0.96,2.87,2.87v174.9C423.85,807.6,422.9,808.55,420.99,808.55z"/>
		<path class="st10" d="M484.78,650c-3.15,1.34-5.93,3.15-8.32,5.45c-2.39,2.29-4.26,5.02-5.59,8.17
			c-1.34,3.15-2.01,6.55-2.01,10.18c0,3.83,0.86,7.12,2.58,9.89c1.72,2.77,4.16,5.35,7.31,7.74c3.15,2.39,7.07,4.69,11.76,6.88
			c4.68,2.2,9.89,4.64,15.63,7.31c7.64,3.44,14.24,7.07,19.78,10.9c5.54,3.83,10.18,7.98,13.91,12.47c3.73,4.49,6.5,9.46,8.32,14.91
			c1.81,5.45,2.72,11.71,2.72,18.78c0,7.27-1.25,13.86-3.73,19.78c-2.49,5.93-5.98,11.04-10.46,15.34
			c-4.49,4.3-9.89,7.65-16.2,10.04c-6.31,2.39-13.38,3.58-21.22,3.58h-12.04c-6.88,0-13-0.77-18.35-2.29
			c-5.35-1.53-9.65-3.53-12.9-6.02c-5.55-4.4-9.65-8.46-12.33-12.19c-2.68-3.73-4.01-6.74-4.01-9.03c0-0.76,0.57-1.43,1.72-2.01
			l18.06-9.17c0.76-0.38,1.24-0.57,1.43-0.57c0.76,0,1.62,0.67,2.58,2.01c1.72,2.29,3.3,4.4,4.73,6.31
			c1.43,1.91,3.01,3.63,4.73,5.16c1.72,1.53,3.73,2.72,6.02,3.58s5.06,1.29,8.31,1.29h12.04c7.07,0,13.14-2.48,18.21-7.45
			c5.06-4.97,7.6-11.08,7.6-18.35c0-4.01-0.77-7.55-2.29-10.61c-1.53-3.06-3.78-5.88-6.74-8.46c-2.97-2.58-6.59-5.02-10.9-7.31
			s-9.22-4.78-14.77-7.45c-7.65-3.63-14.43-7.17-20.36-10.61c-5.93-3.44-10.9-7.21-14.91-11.33c-4.01-4.11-7.02-8.84-9.03-14.19
			c-2.01-5.35-3.01-11.66-3.01-18.92c0-7.26,1.24-13.91,3.73-19.93c2.48-6.02,5.97-11.18,10.46-15.48c4.49-4.3,9.89-7.6,16.2-9.89
			c6.31-2.29,13.38-3.44,21.22-3.44h4.59c7.07,0,13.52,1,19.35,3.01c5.83,2.01,10.85,4.49,15.05,7.45c4.2,2.97,7.46,6.12,9.75,9.46
			c2.29,3.35,3.44,6.36,3.44,9.03c0,0.96-0.57,1.72-1.72,2.29l-18.35,9.17c-0.39,0.19-0.86,0.29-1.43,0.29
			c-0.77,0-1.53-0.57-2.29-1.72c-3.25-4.39-6.5-8.17-9.75-11.33c-3.25-3.15-7.93-4.73-14.05-4.73h-4.59
			C491.24,647.99,487.94,648.66,484.78,650z"/>
		<path class="st10" d="M591.87,652.01c-3.06,3.06-6.79,4.59-11.18,4.59c-4.4,0-8.13-1.48-11.18-4.44
			c-3.06-2.96-4.59-6.74-4.59-11.33c0-4.4,1.53-8.12,4.59-11.18c3.05-3.05,6.78-4.59,11.18-4.59c4.39,0,8.12,1.53,11.18,4.59
			c3.06,3.06,4.59,6.79,4.59,11.18C596.46,645.22,594.92,648.95,591.87,652.01z M590.72,808.55h-20.07c-1.91,0-2.87-0.95-2.87-2.87
			V682.4c0-1.91,0.95-2.87,2.87-2.87h20.07c1.91,0,2.87,0.96,2.87,2.87v123.29C593.59,807.6,592.63,808.55,590.72,808.55z"/>
		<path class="st10" d="M712,808.55h-17.2c-1.91,0-2.87-0.95-2.87-2.87v-3.44c0-2.1-0.67-3.15-2.01-3.15c-0.96,0-2.2,0.48-3.73,1.43
			c-1.53,0.96-3.44,2.06-5.73,3.3c-2.29,1.25-5.02,2.34-8.17,3.3c-3.15,0.96-6.84,1.43-11.04,1.43c-7.27,0-13.91-1.19-19.93-3.58
			c-6.02-2.39-11.23-5.73-15.63-10.04c-4.4-4.3-7.84-9.41-10.32-15.34c-2.49-5.92-3.73-12.52-3.73-19.78v-31.54
			c0-7.07,1.19-13.57,3.58-19.5c2.39-5.92,5.73-11.04,10.04-15.34s9.46-7.69,15.48-10.18c6.02-2.48,12.57-3.73,19.64-3.73
			c3.63,0,6.88,0.48,9.75,1.43c2.87,0.96,5.35,2.06,7.46,3.3c2.1,1.25,3.96,2.34,5.59,3.3c1.62,0.96,2.91,1.43,3.87,1.43
			c1.33,0,2.01-1.05,2.01-3.15v-55.05c0-1.91,0.95-2.87,2.87-2.87H712c1.91,0,2.87,0.96,2.87,2.87v174.9
			C714.87,807.6,713.91,808.55,712,808.55z M689.07,728.27c0-7.07-2.49-13.14-7.46-18.21c-4.97-5.06-11.09-7.6-18.35-7.6
			c-3.63,0-7.02,0.67-10.18,2.01c-3.15,1.34-5.88,3.2-8.17,5.59c-2.29,2.39-4.11,5.16-5.45,8.31c-1.34,3.15-2.01,6.45-2.01,9.89
			v31.54c0,3.44,0.67,6.74,2.01,9.89c1.33,3.15,3.15,5.93,5.45,8.32c2.29,2.39,5.02,4.26,8.17,5.59c3.15,1.34,6.54,2.01,10.18,2.01
			c7.26,0,13.38-2.53,18.35-7.6c4.97-5.06,7.46-11.13,7.46-18.21V728.27z"/>
		<path class="st10" d="M839.59,748.34h-71.68c-1.91,0-2.87,0.96-2.87,2.87v11.47c0,3.44,0.67,6.74,2.01,9.89
			c1.33,3.15,3.15,5.93,5.45,8.32c2.29,2.39,5.02,4.26,8.17,5.59c3.15,1.34,6.54,2.01,10.18,2.01c3.44,0,6.54-0.57,9.32-1.72
			c2.77-1.15,4.92-2.67,6.45-4.59c3.25-3.82,5.59-6.78,7.02-8.89c1.43-2.1,2.63-3.15,3.58-3.15c0.38,0,0.95,0.19,1.72,0.57
			l18.06,9.17c1.15,0.57,1.72,1.25,1.72,2.01c0,0.96-0.91,3.11-2.72,6.45c-1.82,3.35-4.92,7.02-9.32,11.04
			c-8.6,8.03-20.55,12.04-35.84,12.04c-7.84,0-14.91-1.15-21.22-3.44c-6.31-2.29-11.71-5.59-16.2-9.89
			c-4.49-4.3-7.98-9.46-10.46-15.48c-2.49-6.02-3.73-12.66-3.73-19.93v-37.27c0-6.5,1.33-12.71,4.01-18.64
			c2.67-5.92,6.35-11.08,11.04-15.48c4.68-4.39,10.13-7.93,16.34-10.61c6.21-2.67,12.95-4.01,20.21-4.01
			c7.07,0,13.76,1.34,20.07,4.01c6.31,2.68,11.8,6.21,16.49,10.61c4.68,4.4,8.36,9.56,11.04,15.48c2.67,5.93,4.01,12.14,4.01,18.64
			v20.07C842.46,747.39,841.5,748.34,839.59,748.34z M816.22,727.13c0.29-0.76,0.43-2.01,0.43-3.73c0-3.05-0.72-6.02-2.15-8.89
			s-3.35-5.4-5.73-7.6c-2.39-2.2-5.12-3.96-8.17-5.3c-3.06-1.33-6.31-2.01-9.75-2.01c-3.44,0-6.74,0.67-9.89,2.01
			c-3.15,1.34-5.88,3.15-8.17,5.45s-4.16,4.92-5.59,7.88c-1.43,2.97-2.15,5.98-2.15,9.03c0,1.53,0.14,2.63,0.43,3.3
			c0.29,0.67,1.1,1,2.44,1h45.88C815.12,728.27,815.94,727.89,816.22,727.13z"/>
	</g>
</g>
<g>
</g>
<g>
</g>
<g>
</g>
<g>
</g>
<g>
</g>
<g>
</g>
</svg>
