<svg xmlns="http://www.w3.org/2000/svg" width="414.914" height="442.719" viewBox="0 0 414.914 442.719">
  <g id="PRESENTATION_CLIENT" data-name="PRESENTATION CLIENT" transform="matrix(0.996, 0.087, -0.087, 0.996, 23.229, 0)">
    <g id="Groupe_1968" data-name="Groupe 1968" transform="translate(180.464 180.153)">
      <circle id="Ellipse_74" data-name="Ellipse 74" cx="114.239" cy="114.239" r="114.239" fill="#cfe3f9"/>
      <g id="Groupe_1967" data-name="Groupe 1967" transform="translate(94.063 29.656)">
        <ellipse id="Ellipse_75" data-name="Ellipse 75" cx="20.176" cy="20.176" rx="20.176" ry="20.176" fill="#b9d8ef"/>
        <path id="Tracé_1362" data-name="Tracé 1362" d="M23.142,118.605H17.211A17.261,17.261,0,0,1,0,101.394V17.211A17.261,17.261,0,0,1,17.211,0h5.931A17.261,17.261,0,0,1,40.353,17.211v84.184A17.266,17.266,0,0,1,23.142,118.605Z" transform="translate(0 50.554)" fill="#b9d8ef"/>
      </g>
    </g>
    <g id="Groupe_1971" data-name="Groupe 1971" transform="translate(0 0)">
      <g id="Groupe_1970" data-name="Groupe 1970">
        <g id="Groupe_1969" data-name="Groupe 1969">
          <path id="Tracé_1363" data-name="Tracé 1363" d="M271.744,238.6H268.2V169.5a4.183,4.183,0,1,0-8.366,0v69.1H171.055V124.843h85.358a3.418,3.418,0,0,1,3.418,3.418v21.516a4.183,4.183,0,1,0,8.366,0V128.26A11.8,11.8,0,0,0,256.4,116.468H171.046V40.424a11.854,11.854,0,0,0-10.8-11.749V20.283A11.852,11.852,0,0,0,149.374,8.525L41,.037A11.8,11.8,0,0,0,28.29,11.795V18.5a11.8,11.8,0,0,0-10.8,11.749V238.621h-3.54a13.949,13.949,0,1,0,0,27.9H271.736a13.958,13.958,0,0,0,.009-27.916ZM36.665,11.795a3.419,3.419,0,0,1,3.687-3.409l108.386,8.5a3.442,3.442,0,0,1,3.157,3.409v7.731L36.665,18.987V11.795ZM25.864,30.24a3.417,3.417,0,0,1,3.687-3.409l129.98,10.184a3.442,3.442,0,0,1,3.157,3.409V238.6h-11.7v-59.92a6.911,6.911,0,0,0-6.905-6.905H105.2a6.911,6.911,0,0,0-6.905,6.905v27.151a4.183,4.183,0,1,0,8.366,0V180.153h35.952V238.6H106.665V225.4a4.183,4.183,0,1,0-8.366,0v13.2H25.864Zm245.881,227.9H13.949a5.583,5.583,0,0,1,0-11.167H271.736a5.583,5.583,0,0,1,.009,11.167Z"/>
          <path id="Tracé_1364" data-name="Tracé 1364" d="M7.218,27.473H24.151a7.228,7.228,0,0,0,7.218-7.218V7.218A7.228,7.228,0,0,0,24.151,0H7.218A7.228,7.228,0,0,0,0,7.218V20.255A7.217,7.217,0,0,0,7.218,27.473ZM8.366,8.366H23.011v10.74H8.366Z" transform="translate(35.143 53.852)"/>
          <path id="Tracé_1365" data-name="Tracé 1365" d="M7.218,27.473H24.159a7.228,7.228,0,0,0,7.218-7.218V7.218A7.228,7.228,0,0,0,24.159,0H7.218A7.228,7.228,0,0,0,0,7.218V20.255A7.223,7.223,0,0,0,7.218,27.473ZM8.366,8.366H23.011v10.74H8.366Z" transform="translate(77.374 53.852)"/>
          <path id="Tracé_1366" data-name="Tracé 1366" d="M7.218,27.473H24.159a7.228,7.228,0,0,0,7.218-7.218V7.218A7.228,7.228,0,0,0,24.159,0H7.218A7.228,7.228,0,0,0,0,7.218V20.255a7.217,7.217,0,0,0,7.218,7.218ZM8.366,8.366H23.011v10.74H8.366Z" transform="translate(119.614 53.852)"/>
          <path id="Tracé_1367" data-name="Tracé 1367" d="M7.218,27.473H24.151a7.228,7.228,0,0,0,7.218-7.218V7.218A7.228,7.228,0,0,0,24.151,0H7.218A7.228,7.228,0,0,0,0,7.218V20.255a7.217,7.217,0,0,0,7.218,7.218ZM8.366,8.366H23.011v10.74H8.366Z" transform="translate(35.143 91.482)"/>
          <path id="Tracé_1368" data-name="Tracé 1368" d="M7.218,27.473H24.159a7.228,7.228,0,0,0,7.218-7.218V7.218A7.228,7.228,0,0,0,24.159,0H7.218A7.228,7.228,0,0,0,0,7.218V20.255a7.223,7.223,0,0,0,7.218,7.218ZM8.366,8.366H23.011v10.74H8.366Z" transform="translate(77.374 91.482)"/>
          <path id="Tracé_1369" data-name="Tracé 1369" d="M7.218,27.473H24.159a7.228,7.228,0,0,0,7.218-7.218V7.218A7.228,7.228,0,0,0,24.159,0H7.218A7.228,7.228,0,0,0,0,7.218V20.255a7.217,7.217,0,0,0,7.218,7.218ZM8.366,8.366H23.011v10.74H8.366Z" transform="translate(119.614 91.482)"/>
          <path id="Tracé_1370" data-name="Tracé 1370" d="M7.218,27.473H24.151a7.228,7.228,0,0,0,7.218-7.218V7.218A7.228,7.228,0,0,0,24.151,0H7.218A7.228,7.228,0,0,0,0,7.218V20.255A7.217,7.217,0,0,0,7.218,27.473ZM8.366,8.366H23.011v10.74H8.366Z" transform="translate(35.143 129.113)"/>
          <path id="Tracé_1371" data-name="Tracé 1371" d="M45.527,0H8.036A8.045,8.045,0,0,0,0,8.036v11.41a8.045,8.045,0,0,0,8.036,8.036H45.527a8.045,8.045,0,0,0,8.036-8.036V8.036A8.045,8.045,0,0,0,45.527,0Zm-.339,19.107H8.375V8.366H45.2v10.74Z" transform="translate(35.134 171.787)"/>
          <path id="Tracé_1372" data-name="Tracé 1372" d="M7.218,27.473H24.159a7.228,7.228,0,0,0,7.218-7.218V7.218A7.228,7.228,0,0,0,24.159,0H7.218A7.228,7.228,0,0,0,0,7.218V20.255A7.223,7.223,0,0,0,7.218,27.473ZM8.366,8.366H23.011v10.74H8.366Z" transform="translate(77.374 129.113)"/>
          <path id="Tracé_1373" data-name="Tracé 1373" d="M7.218,27.473H24.159a7.228,7.228,0,0,0,7.218-7.218V7.218A7.228,7.228,0,0,0,24.159,0H7.218A7.228,7.228,0,0,0,0,7.218V20.255a7.217,7.217,0,0,0,7.218,7.218ZM8.366,8.366H23.011v10.74H8.366Z" transform="translate(119.614 129.113)"/>
          <path id="Tracé_1374" data-name="Tracé 1374" d="M32.482,7.7a7.705,7.705,0,0,0-7.7-7.7H7.7A7.705,7.705,0,0,0,0,7.7V21.255a7.705,7.705,0,0,0,7.7,7.7H24.785a7.705,7.705,0,0,0,7.7-7.7Zm-8.366,12.88H8.366V8.366h15.75Z" transform="translate(179.873 145.254)"/>
          <path id="Tracé_1375" data-name="Tracé 1375" d="M24.785,0H7.7A7.705,7.705,0,0,0,0,7.7V21.255a7.705,7.705,0,0,0,7.7,7.7H24.785a7.705,7.705,0,0,0,7.7-7.7V7.7A7.705,7.705,0,0,0,24.785,0Zm-.67,20.576H8.366V8.366h15.75Z" transform="translate(179.873 183.876)"/>
          <path id="Tracé_1376" data-name="Tracé 1376" d="M32.482,7.7a7.705,7.705,0,0,0-7.7-7.7H7.7A7.705,7.705,0,0,0,0,7.7V21.255a7.705,7.705,0,0,0,7.7,7.7H24.785a7.705,7.705,0,0,0,7.7-7.7Zm-8.366,12.88H8.366V8.366h15.75v12.21Z" transform="translate(218.799 145.254)"/>
          <path id="Tracé_1377" data-name="Tracé 1377" d="M24.785,0H7.7A7.705,7.705,0,0,0,0,7.7V21.255a7.705,7.705,0,0,0,7.7,7.7H24.785a7.705,7.705,0,0,0,7.7-7.7V7.7A7.705,7.705,0,0,0,24.785,0Zm-.67,20.576H8.366V8.366h15.75v12.21Z" transform="translate(218.799 183.876)"/>
        </g>
      </g>
    </g>
  </g>
</svg>
