<?xml version="1.0" encoding="utf-8"?>
<!-- Generator: Adobe Illustrator 24.0.0, SVG Export Plug-In . SVG Version: 6.00 Build 0)  -->
<svg version="1.1" id="Calque_1" xmlns="http://www.w3.org/2000/svg" xmlns:xlink="http://www.w3.org/1999/xlink" x="0px" y="0px"
	 viewBox="0 0 189.6 48.7" style="enable-background:new 0 0 189.6 48.7;" xml:space="preserve">
<style type="text/css">
	.st0{fill:#FFFFFF;}
</style>
<g id="LOGOS_JLC_LONG_COULEUR_L_-_Bleu_2_L_-_Bleu_2" transform="translate(-80.9 -103.8)">
	<g id="Calque_13" transform="translate(80.9 103.8)">
		<g id="Groupe_2237" transform="translate(0 0)">
			<path id="Tracé_1550" class="st0" d="M178,30.2c0,0.7-0.5,1.3-1.2,1.3c0,0,0,0,0,0h-3.4c-0.7,0-1.3-0.5-1.3-1.2c0,0,0,0,0,0V30
				c0-0.7,0.6-1.2,1.3-1.2c0,0,0,0,0,0h3.4c0.7,0,1.3,0.5,1.3,1.2L178,30.2z M176.8,21.1c0,1.3-1.1,2.4-2.4,2.4s-2.4-1.1-2.4-2.4
				v-0.2c0-1.3,1.1-2.4,2.4-2.4s2.4,1.1,2.4,2.4V21.1z M179.9,30.2V30c0-1.6-1.3-2.9-3-2.9c-0.1,0-0.2,0-0.2,0h-3
				c-0.4-0.1-0.8-0.5-0.8-1c0-0.4,0.3-0.8,0.8-1c0.2,0,0.5,0,0.8,0c2.3,0.1,4.2-1.6,4.3-3.9c0-0.1,0-0.1,0-0.2V17
				c0-0.1-0.1-0.2-0.2-0.2c0,0,0,0-0.1,0h-1.2c-0.1,0-0.2,0.1-0.2,0.2c0,0,0,0,0,0.1v0.7c0,0.3-0.2,0.4-0.4,0.2
				c-0.6-0.6-1.4-1-2.2-1.1c-2.3-0.1-4.2,1.6-4.3,3.8c0,0.1,0,0.1,0,0.2v0.2c0,1.3,0.6,2.5,1.6,3.2c0.1,0.1,0.1,0.2,0.1,0.3
				c0,0,0,0,0,0c-0.3,0.4-0.5,1-0.5,1.5c0,0.5,0.2,0.9,0.4,1.3c0.1,0.1,0,0.2-0.1,0.3c-0.8,0.5-1.4,1.3-1.4,2.3v0.2c0,1.7,1.4,3,3,3
				c0.1,0,0.1,0,0.2,0h3.4c1.6,0.1,3.1-1.1,3.2-2.7C179.9,30.4,179.9,30.3,179.9,30.2 M167.7,27.4v-6.6c0-2.4-1.7-4.1-4.4-4.1
				c-0.9,0-1.7,0.4-2.2,1.1c-0.2,0.2-0.4,0.1-0.4-0.2V17c0-0.1-0.1-0.2-0.2-0.2c0,0,0,0-0.1,0h-1.2c-0.1,0-0.2,0.1-0.2,0.2
				c0,0,0,0,0,0.1v10.4c0,0.1,0.1,0.2,0.2,0.2c0,0,0,0,0.1,0h1.4c0.1,0,0.2-0.1,0.2-0.2c0,0,0,0,0-0.1v-6.6c0-1.3,1.1-2.4,2.4-2.4
				c1.3,0,2.4,1.1,2.4,2.4v6.6c0,0.1,0.1,0.2,0.2,0.2c0,0,0,0,0.1,0h1.4C167.6,27.7,167.7,27.6,167.7,27.4 M155.8,27.4V17
				c0-0.1-0.1-0.2-0.2-0.2c0,0,0,0-0.1,0h-1.4c-0.1,0-0.2,0.1-0.2,0.2c0,0,0,0,0,0.1v10.4c0,0.1,0.1,0.2,0.2,0.2c0,0,0,0,0.1,0h1.4
				C155.7,27.7,155.8,27.6,155.8,27.4 M156,13.2c0-0.7-0.6-1.2-1.2-1.2c-0.7,0-1.2,0.6-1.2,1.2c0,0.7,0.5,1.2,1.2,1.2
				C155.5,14.4,156,13.9,156,13.2 M151.7,27.6v-1.2c0-0.1-0.1-0.2-0.2-0.2c-1.2-0.2-2-1.2-2-2.4v-5.2c0-0.1,0.1-0.2,0.2-0.2
				c0,0,0,0,0.1,0h1.7c0.1,0,0.2-0.1,0.2-0.2c0,0,0,0,0-0.1V17c0-0.1-0.1-0.2-0.2-0.2c0,0,0,0-0.1,0h-1.7c-0.1,0-0.2-0.1-0.2-0.2
				c0,0,0,0,0-0.1v-1.8c0-0.1-0.1-0.2-0.2-0.2c0,0,0,0-0.1,0h-0.6c-0.1,0-0.1,0-0.2,0.1l-2.8,2.9v0.7c0,0.1,0.1,0.2,0.2,0.2
				c0,0,0,0,0.1,0h1.4c0.1,0,0.2,0.1,0.2,0.2c0,0,0,0,0,0.1v5.2c0,1.2,0.5,2.4,1.4,3.1c0.7,0.5,1.6,0.9,2.5,0.9
				C151.6,27.9,151.7,27.8,151.7,27.6 M144,27.4v-15c0-0.1-0.1-0.2-0.2-0.2c0,0,0,0-0.1,0h-1.4c-0.1,0-0.2,0.1-0.2,0.2
				c0,0,0,0,0,0.1v15c0,0.1,0.1,0.2,0.2,0.2c0,0,0,0,0.1,0h1.4C144,27.7,144,27.6,144,27.4 M138.9,27.4V17c0-0.1-0.1-0.2-0.2-0.2
				c0,0,0,0-0.1,0h-1.4c-0.1,0-0.2,0.1-0.2,0.2c0,0,0,0,0,0.1v6.6c0,1.3-1.1,2.4-2.4,2.4c-1.3,0-2.4-1.1-2.4-2.4V17
				c0-0.1-0.1-0.2-0.2-0.2c0,0,0,0-0.1,0h-1.4c-0.2,0-0.2,0.1-0.2,0.2v6.6c-0.1,2.2,1.7,4,3.9,4.1c0.2,0,0.3,0,0.5,0
				c0.9,0,1.7-0.4,2.2-1.1c0.2-0.2,0.4-0.1,0.4,0.2v0.7c0,0.1,0.1,0.2,0.2,0.2c0,0,0,0,0.1,0h1.2C138.8,27.7,138.9,27.6,138.9,27.4
				 M127.7,24.4c0-2-1.6-2.6-3.4-3c-1.7-0.3-3.3-0.5-3.3-1.8c0-0.8,0.6-1.5,2-1.5h0.7c0.9,0,1.8,0.5,2.2,1.4c0,0.1,0.2,0.2,0.3,0.1
				c0,0,0,0,0,0l1.2-0.6c0.1,0,0.2-0.2,0.1-0.3c0,0,0,0,0,0c-0.3-0.5-0.6-0.9-1-1.3c-0.8-0.6-1.8-0.9-2.8-0.9H123
				c-2.2,0-3.9,1.1-3.9,3.3c0,2.1,1.7,2.8,3.4,3.1c1.7,0.3,3.3,0.5,3.3,1.7c0,0.9-0.7,1.7-2.1,1.7H123c-0.9,0-1.8-0.6-2.2-1.4
				c0-0.1-0.2-0.2-0.3-0.1c0,0,0,0,0,0l-1.2,0.6c-0.1,0.1-0.2,0.2-0.1,0.3c0.2,0.5,0.5,0.9,0.9,1.2c0.8,0.7,1.9,1,2.9,1h0.7
				C126.4,27.9,127.7,26.3,127.7,24.4 M116.7,27.4v-6.6c0-2.4-1.7-4.1-4.4-4.1c-0.9,0-1.7,0.4-2.2,1.1c-0.2,0.2-0.4,0.1-0.4-0.2V17
				c0-0.1-0.1-0.2-0.2-0.2c0,0,0,0-0.1,0h-1.2c-0.1,0-0.2,0.1-0.2,0.2c0,0,0,0,0,0.1v10.4c0,0.1,0.1,0.2,0.2,0.2c0,0,0,0,0.1,0h1.4
				c0.1,0,0.2-0.1,0.2-0.2c0,0,0,0,0-0.1v-6.6c0-1.3,1.1-2.4,2.4-2.4c1.3,0,2.4,1.1,2.4,2.4v6.6c0,0.1,0.1,0.2,0.2,0.2
				c0,0,0,0,0.1,0h1.4C116.6,27.7,116.7,27.6,116.7,27.4 M103.1,23.8c0,1.3-1,2.4-2.3,2.5c-1.3,0-2.4-1-2.5-2.3l0,0v-3.4
				c0-1.3,1-2.4,2.3-2.5c1.3,0,2.4,1,2.5,2.3V23.8z M105.1,23.8v-3.3c-0.2-2.4-2.2-4.2-4.6-4.1c-2.2,0.1-3.9,1.9-4.1,4.1v3.3
				c0.2,2.4,2.2,4.2,4.6,4.1C103.2,27.8,104.9,26,105.1,23.8 M94.4,25.7c0.1-0.1,0.1-0.2,0-0.3c0,0,0,0-0.1,0L93,24.7
				c-0.1-0.1-0.2,0-0.3,0.1c0,0,0,0,0,0c-0.4,0.8-1.3,1.4-2.2,1.4c-1.3,0.1-2.3-0.9-2.4-2.2c0-0.1,0-0.1,0-0.2v-3.3
				c-0.1-1.3,0.9-2.3,2.2-2.4c0.1,0,0.1,0,0.2,0c0.9,0,1.7,0.6,2.2,1.4c0.1,0.1,0.2,0.2,0.3,0.1l1.3-0.7c0.1,0,0.2-0.2,0.1-0.3
				c0,0,0,0,0,0c-0.2-0.4-0.6-0.8-0.9-1.2c-0.8-0.7-1.9-1-3-1c-2.2-0.2-4.1,1.5-4.3,3.7c0,0.1,0,0.3,0,0.4v3.3c0,2.2,1.7,4.1,4,4.1
				c0.1,0,0.3,0,0.4,0c1.1,0.1,2.1-0.3,3-1C93.8,26.6,94.1,26.2,94.4,25.7 M80.3,27.4v-2.1c0-0.1-0.1-0.2-0.2-0.2c0,0,0,0-0.1,0
				h-5.8c-0.1,0-0.2-0.1-0.2-0.2c0,0,0,0,0-0.1V12.5c0-0.1-0.1-0.2-0.2-0.2c0,0,0,0-0.1,0h-2.3c-0.1,0-0.2,0.1-0.2,0.2
				c0,0,0,0,0,0.1v15c0,0.1,0.1,0.2,0.2,0.2c0,0,0,0,0.1,0H80C80.2,27.7,80.3,27.6,80.3,27.4 M68,23.3V12.5c0-0.1-0.1-0.2-0.2-0.2
				c0,0,0,0-0.1,0h-2.3c-0.1,0-0.2,0.1-0.2,0.2c0,0,0,0,0,0.1v11.1c0,1-0.7,1.8-1.7,1.8c0,0,0,0,0,0c-0.8,0-1.6-0.6-1.7-1.5
				c0-0.1-0.1-0.1-0.2-0.1c-0.2,0-0.3,0.1-0.4,0.2l-1.9,0.9C59,24.8,59,24.9,59,25c0.1,0.4,0.4,0.7,0.6,1c0.9,1.2,2.3,1.9,3.8,1.9
				C65.9,27.9,68,25.9,68,23.3C68,23.3,68,23.3,68,23.3"/>
			<g id="Groupe_2236">
				<path id="Tracé_1551" class="st0" d="M34.5,12.2c-3.1,0-5.6,2.4-5.6,5.5V29c-0.1,4.8-4.1,8.7-9,8.6c-4.7-0.1-8.5-3.9-8.6-8.6
					v-2.6L0,29c0.2,11.1,9.4,19.9,20.5,19.6c10.7-0.2,19.4-8.9,19.6-19.6V17.8C40.1,14.7,37.6,12.2,34.5,12.2z"/>
				<path id="Tracé_1552" class="st0" d="M54.1,29V17.7c0-0.5-0.1-1.1-0.3-1.6C52.6,8.2,46.7,1.8,38.8,0c2.9,2.4,3.3,6.6,1,9.5
					c-0.6,0.7-1.3,1.3-2,1.7c3.3,1.3,5.4,4.5,5.4,8V29c-0.1,10.8,8.6,19.6,19.4,19.7h2.6l-2.6-11.1C57.9,37.6,54.1,33.7,54.1,29z"/>
				<path id="Tracé_1553" class="st0" d="M34.7,0.9c-2.4,0-4.3,1.9-4.4,4.3c0,2.4,1.9,4.3,4.3,4.4c2.4,0,4.3-1.9,4.4-4.3
					c0,0,0,0,0,0C39,2.9,37,0.9,34.7,0.9z"/>
			</g>
			<path id="Tracé_1554" class="st0" d="M189.2,48.7H64.8l-5.9-0.4c-0.2,0-0.4-0.2-0.3-0.4c0,0,0,0,0-0.1l2.2-10.1
				c0-0.2,0.2-0.3,0.4-0.3c0.3,0.1,0.6,0.1,0.9,0.1c0.4,0,1,0,1.4,0c0.7,0,1.2,0,1.5,0c30,0.9,117.8,0,124.2,0
				c0.2,0,0.4,0.2,0.4,0.4c0,0,0,0,0,0v10.3C189.6,48.5,189.4,48.7,189.2,48.7z"/>
		</g>
	</g>
</g>
</svg>
