<svg xmlns="http://www.w3.org/2000/svg" width="494.492" height="493.257" viewBox="0 0 494.492 493.257">
  <g id="Groupe_2124" data-name="Groupe 2124" transform="translate(0 0)">
    <path id="puzzle_piece_jl" d="M326.682,181.651c11.543,11.653,28,12.979,41.533,3.259,4.584-3.314,9.389-5.689,15.078-5.854s9.168,2.872,9.168,8.561q0,60.642-.221,121.229c0,6.241-3.093,8.782-10,8.726-38.826-.055-77.6.111-116.424-.387-12.868-.166-13.752,7.125-10.6,15.575,1.381,3.756,3.977,6.683,5.965,10,8.34,14.194,5.468,31.26-7.014,41.091a32.514,32.514,0,0,1-42.748-1.823c-12.04-11.6-13.476-28.388-3.59-41.809a30.361,30.361,0,0,0,5.468-11.322c1.657-7.622-1.436-11.653-9.168-11.653-21.1-.11-42.2-.11-63.238-.166-18.447-.055-36.838-.055-55.285-.11-7.953,0-10.328-2.485-10.328-10.549q.083-58.488.166-116.976c0-9.113-3.535-12.206-12.482-10.825-4.474.663-8.284,2.706-11.985,5.3-14.028,9.886-29.493,8.837-41.091-2.43-11.322-10.991-13.089-27.559-4.418-41.2a30.889,30.889,0,0,1,43.8-8.561c4.86,3.314,9.72,6.462,15.851,6.738,7.511.331,10.383-2.264,10.383-9.831q.166-58.737.221-117.473C75.719,2.1,77.873-.054,87.041,0L204.017.332c8.34,0,11.488,3.977,9.941,12.151a29.377,29.377,0,0,1-5.468,11.93c-8.726,11.93-8.837,25.792-.442,37.446,8.063,11.212,22.865,15.851,36.507,11.488a32.185,32.185,0,0,0,22.037-30.1c.11-7.677-3.148-14.028-7.4-19.993-3.148-4.418-5.081-9.334-4.86-14.857.166-4.8,2.761-7.511,7.566-7.9,2.1-.166,4.253-.055,6.351-.055q56.334.166,112.723.276c10.052,0,11.93,1.878,11.93,11.653q-.083,57.908-.166,115.872c0,9.389-4.363,12.592-13.586,10.494-5.026-1.16-8.837-4.308-13.034-6.848-14.194-8.726-31.7-5.689-41.809,7.29A31.891,31.891,0,0,0,326.682,181.651Z" transform="matrix(-0.951, 0.309, -0.309, -0.951, 494.492, 371.844)" fill="#5dbfbf"/>
    <g id="message" transform="translate(125.813 210.258) rotate(-14)">
      <g id="Groupe_2117" data-name="Groupe 2117" transform="translate(5.309 0)">
        <g id="Groupe_2116" data-name="Groupe 2116" transform="translate(0)">
          <path id="Tracé_1450" data-name="Tracé 1450" d="M165.748.149c-.049.012-.1.021-.146.035L3.829,44.3a5.2,5.2,0,0,0-1.938,9.03L52.24,94.813l-9.27,27.81a5.2,5.2,0,0,0,6.577,6.577l27.81-9.27,41.48,50.349a5.2,5.2,0,0,0,9.03-1.938L171.986,6.568c.014-.051.024-.1.036-.154A5.2,5.2,0,0,0,165.748.149ZM16.256,51.693,144.434,16.736l-86.1,69.622Zm59.757,57.723-19.889,6.63,6.63-19.889,69.279-56.02Zm44.463,46.5L85.811,113.838l69.623-86.1Z" fill="#fff"/>
        </g>
      </g>
      <g id="Groupe_2119" data-name="Groupe 2119" transform="translate(0 159.758)">
        <g id="Groupe_2118" data-name="Groupe 2118" transform="translate(0 0)">
          <path id="Tracé_1451" data-name="Tracé 1451" d="M16.225,1.521a5.2,5.2,0,0,0-7.354,0L1.521,8.882a5.2,5.2,0,0,0,0,7.353,5.376,5.376,0,0,0,7.353,0l7.35-7.357A5.2,5.2,0,0,0,16.225,1.521Z" fill="#fff"/>
        </g>
      </g>
      <g id="Groupe_2121" data-name="Groupe 2121" transform="translate(22.188 137.688)">
        <g id="Groupe_2120" data-name="Groupe 2120" transform="translate(0 0)">
          <path id="Tracé_1452" data-name="Tracé 1452" d="M16.086,1.521a5.2,5.2,0,0,0-7.353,0L1.383,8.881a5.575,5.575,0,0,0,0,7.353,5.8,5.8,0,0,0,7.353,0l7.35-7.357A5.2,5.2,0,0,0,16.086,1.521Z" fill="#fff"/>
        </g>
      </g>
    </g>
  </g>
</svg>
