<svg xmlns="http://www.w3.org/2000/svg" width="405.767" height="420.532" viewBox="0 0 405.767 420.532">
  <g id="FINALISATION" transform="translate(14.773) rotate(3)">
    <g id="Groupe_1980" data-name="Groupe 1980" transform="translate(164.409 164.401)">
      <ellipse id="Ellipse_77" data-name="Ellipse 77" cx="107.11" cy="107.11" rx="107.11" ry="107.11" transform="translate(10.754 10.762)" fill="#cfe3f9"/>
      <path id="Tracé_1396" data-name="Tracé 1396" d="M158.469,68.247a9.2,9.2,0,0,1,3.378,12.576l-43.62,75.671a9.21,9.21,0,0,1-12.576,3.378L69.634,139.106a9.207,9.207,0,1,1,9.2-15.953l28.045,16.171L145.9,71.633A9.2,9.2,0,0,1,158.469,68.247Zm73.2,19.049A117.832,117.832,0,1,1,87.3,4.072,117.768,117.768,0,0,1,231.666,87.3Zm-17.783,4.78A99.423,99.423,0,1,0,143.661,213.89,99.365,99.365,0,0,0,213.882,92.077Z" transform="translate(0 0)" fill="#b9d8ef"/>
    </g>
    <g id="Groupe_1981" data-name="Groupe 1981" transform="translate(0 0)">
      <path id="Tracé_1397" data-name="Tracé 1397" d="M4.031,20.04A4.032,4.032,0,0,1,0,16.01V4.031a4.031,4.031,0,0,1,8.061,0V16.01A4.032,4.032,0,0,1,4.031,20.04Z" transform="translate(274.212 59.678)"/>
      <path id="Tracé_1398" data-name="Tracé 1398" d="M266.143,282.274H16.131A16.132,16.132,0,0,1,0,266.143V16.131A16.132,16.132,0,0,1,16.131,0H266.143a16.132,16.132,0,0,1,16.131,16.131V35.486a4.031,4.031,0,0,1-8.061,0V16.131a8.059,8.059,0,0,0-8.061-8.061H16.131a8.059,8.059,0,0,0-8.061,8.061V266.143a8.059,8.059,0,0,0,8.061,8.061H266.143a8.059,8.059,0,0,0,8.061-8.061V103.918a4.031,4.031,0,0,1,8.061,0V266.143A16.12,16.12,0,0,1,266.143,282.274Z"/>
      <path id="Tracé_1399" data-name="Tracé 1399" d="M4.031,116.292A4.032,4.032,0,0,1,0,112.261V4.031a4.031,4.031,0,1,1,8.061,0V112.261A4.032,4.032,0,0,1,4.031,116.292Z" transform="translate(137.106 82.991)"/>
      <path id="Tracé_1400" data-name="Tracé 1400" d="M4.031,54.115A4.032,4.032,0,0,1,0,50.085V4.031a4.031,4.031,0,0,1,8.061,0V50.085A4.032,4.032,0,0,1,4.031,54.115Z" transform="translate(137.106 0)"/>
      <path id="Tracé_1401" data-name="Tracé 1401" d="M4.031,54.115A4.032,4.032,0,0,1,0,50.085V4.031a4.031,4.031,0,0,1,8.061,0V50.085A4.032,4.032,0,0,1,4.031,54.115Z" transform="translate(137.106 228.158)"/>
      <path id="Tracé_1402" data-name="Tracé 1402" d="M112.342,8.061H4.031A4.031,4.031,0,0,1,4.031,0H112.342a4.031,4.031,0,1,1,0,8.061Z" transform="translate(83.354 137.59)"/>
      <path id="Tracé_1403" data-name="Tracé 1403" d="M50.528,8.061H4.031A4.031,4.031,0,1,1,4.031,0h46.5a4.031,4.031,0,1,1,0,8.061Z" transform="translate(227.715 137.59)"/>
      <path id="Tracé_1404" data-name="Tracé 1404" d="M49.722,8.061H4.031A4.031,4.031,0,0,1,4.031,0H49.722a4.031,4.031,0,1,1,0,8.061Z" transform="translate(0 137.59)"/>
      <path id="Tracé_1405" data-name="Tracé 1405" d="M28.231,47.431A28.268,28.268,0,0,1,0,19.2,27.723,27.723,0,0,1,6.272,1.5a4.034,4.034,0,0,1,6.256,5.095h0A19.732,19.732,0,0,0,8.07,19.2a20.161,20.161,0,0,0,40.323,0A19.746,19.746,0,0,0,43.958,6.585,4.034,4.034,0,0,1,50.214,1.49,27.738,27.738,0,0,1,56.462,19.2,28.263,28.263,0,0,1,28.231,47.431Z" transform="translate(40.322 137.575)"/>
      <path id="Tracé_1406" data-name="Tracé 1406" d="M46.248,48.36A4.034,4.034,0,0,1,43.265,41.6a19.692,19.692,0,0,0,5.119-13.366,20.161,20.161,0,1,0-40.322,0A19.678,19.678,0,0,0,13.18,41.6a4.034,4.034,0,1,1-5.957,5.441A27.782,27.782,0,0,1,0,28.231a28.231,28.231,0,1,1,56.461,0,27.8,27.8,0,0,1-7.223,18.815,4.078,4.078,0,0,1-2.991,1.314Z" transform="translate(185.498 97.292)"/>
      <path id="Tracé_1407" data-name="Tracé 1407" d="M28.214,56.461A28.231,28.231,0,1,1,46.481,6.691a4.031,4.031,0,1,1-5.24,6.127h0a20.164,20.164,0,1,0,0,30.81,4.031,4.031,0,1,1,5.24,6.127A28.007,28.007,0,0,1,28.214,56.461Z" transform="translate(97.275 40.314)"/>
      <path id="Tracé_1408" data-name="Tracé 1408" d="M19.64,56.447A28.057,28.057,0,0,1,1.413,49.756a4.031,4.031,0,1,1,5.24-6.127A19.953,19.953,0,0,0,19.64,48.386,20.161,20.161,0,1,0,6.653,12.82a4.031,4.031,0,1,1-5.24-6.127h0A28.226,28.226,0,1,1,19.64,56.447Z" transform="translate(137.104 185.504)"/>
    </g>
  </g>
</svg>
