<svg xmlns="http://www.w3.org/2000/svg" width="419.809" height="392.182" viewBox="0 0 419.809 392.182">
  <g id="PROBLEMATIQUE" transform="matrix(0.998, -0.07, 0.07, 0.998, 0, 20.644)">
    <g id="Groupe_1972" data-name="Groupe 1972" transform="translate(124.723 154.787)">
      <ellipse id="Ellipse_76" data-name="Ellipse 76" cx="86.207" cy="86.207" rx="86.207" ry="86.207" transform="translate(7.312 6.089)" fill="#cfe3f9"/>
      <rect id="Rectangle_848" data-name="Rectangle 848" width="25.366" height="25.366" transform="translate(173.659 135.519) rotate(37.786)" fill="#cfe3f9"/>
      <rect id="Rectangle_849" data-name="Rectangle 849" width="81.128" height="35.564" transform="matrix(0.811, 0.585, -0.585, 0.811, 201.316, 148.691)" fill="#cfe3f9"/>
      <path id="Tracé_1378" data-name="Tracé 1378" d="M137.534,57.947A69.227,69.227,0,1,0,80.52,137.534,69.3,69.3,0,0,0,137.534,57.947ZM10.554,78.929a59.475,59.475,0,1,1,68.375,48.983A59.544,59.544,0,0,1,10.554,78.929Z" transform="translate(22.571 22.81)" fill="#b9d8ef"/>
      <path id="Tracé_1379" data-name="Tracé 1379" d="M184.019,77.536a92.7,92.7,0,1,0-27.344,81.973l17.414,12.474-1.7,2.376a4.883,4.883,0,0,0,1.123,6.809l56.607,40.554a24.858,24.858,0,0,0,28.954-40.415l-56.606-40.554a4.888,4.888,0,0,0-6.809,1.123l-1.7,2.376-17.414-12.474A92.094,92.094,0,0,0,184.019,77.536ZM10.87,106.142A82.872,82.872,0,1,1,106.142,174.4,82.957,82.957,0,0,1,10.87,106.142Zm242.538,83.086a15.109,15.109,0,1,1-17.6,24.561l-52.641-37.711,1.7-2.376h0l15.894-22.2Zm-65.115-37.065-8.518,11.888L163.4,152.322a94.494,94.494,0,0,0,8.518-11.888Z" transform="translate(0 0)" fill="#b9d8ef"/>
    </g>
    <g id="Groupe_1975" data-name="Groupe 1975" transform="translate(0 0)">
      <g id="Groupe_1973" data-name="Groupe 1973">
        <path id="Tracé_1380" data-name="Tracé 1380" d="M175.941,16.667a31.79,31.79,0,0,0-55.913-.024L3.827,228.218a31.793,31.793,0,0,0,27.964,46.915h90.17a5.784,5.784,0,0,0,0-11.568H31.791A20.239,20.239,0,0,1,13.97,233.747l116.2-211.583a20.234,20.234,0,0,1,35.618.032l116.17,211.535a20.234,20.234,0,0,1-17.8,29.842h-90.17a5.784,5.784,0,1,0,0,11.568h90.17A31.795,31.795,0,0,0,292.1,228.194Z"/>
      </g>
      <g id="Groupe_1974" data-name="Groupe 1974" transform="translate(102.581 76.933)">
        <path id="Tracé_1381" data-name="Tracé 1381" d="M10.247,55.673A10.271,10.271,0,0,0,20.518,45.4a24.886,24.886,0,1,1,37,21.743c-13.8,7.717-22.379,22-22.379,37.257v14.647a10.271,10.271,0,0,0,20.542,0V104.4a22.454,22.454,0,0,1,11.87-19.332A45.417,45.417,0,1,0,0,45.41,10.234,10.234,0,0,0,10.247,55.673Z" transform="translate(0 0)"/>
        <path id="Tracé_1382" data-name="Tracé 1382" d="M10.271,0A10.255,10.255,0,0,0,3.015,17.519,10.261,10.261,0,1,0,10.271,0Z" transform="translate(35.117 148.81)"/>
      </g>
    </g>
  </g>
</svg>
