<?xml version="1.0" encoding="UTF-8"?>
<svg xmlns="http://www.w3.org/2000/svg" viewBox="0 0 512 512" width="512" height="512"><g id="Outline"><path d="M48,416a32.036,32.036,0,0,1-32-32V329a105.14,105.14,0,0,1,97.977-104.768l-1.6-1.6a32,32,0,0,1,45.254-45.256l56,56h0a32.037,32.037,0,0,1,0,45.254l-56,56a32,32,0,0,1-45.255-45.255l.58-.58A41.071,41.071,0,0,0,80,329v55A32.036,32.036,0,0,1,48,416Zm73-176a89.1,89.1,0,0,0-89,89v55a16,16,0,0,0,32,0V329a57.064,57.064,0,0,1,57-57h12.059a8,8,0,0,1,5.656,13.657l-15.029,15.03a16,16,0,1,0,22.628,22.626l56-56a16.018,16.018,0,0,0,0-22.627h0l-56-56a16,16,0,1,0-22.628,22.627l15.029,15.029A8,8,0,0,1,133.059,240Z"/><path d="M376,344a31.788,31.788,0,0,1-22.627-9.372l-56-56a32.037,32.037,0,0,1,0-45.255l56-56a32,32,0,0,1,45.255,45.255l-.805.806A41.066,41.066,0,0,0,432,183V128a32,32,0,0,1,64,0v55a105.14,105.14,0,0,1-98.919,104.826l1.546,1.546A32,32,0,0,1,376,344Zm0-159.993a15.945,15.945,0,0,0-11.314,4.68l-56,56a16.018,16.018,0,0,0,0,22.627l56,56a16,16,0,1,0,22.628-22.627l-15.029-15.029A8,8,0,0,1,377.941,272H391a89.1,89.1,0,0,0,89-89V128a16,16,0,0,0-32,0v55a57.064,57.064,0,0,1-57,57H377.941a8,8,0,0,1-5.656-13.657l15.029-15.03A15.993,15.993,0,0,0,376,184.007Z"/><path d="M255.5,223.5a31.788,31.788,0,0,1-22.627-9.372l-56-56a32,32,0,0,1,45.254-45.256l1.306,1.306A41.068,41.068,0,0,0,183,80H128a32,32,0,0,1,0-64h55a105.14,105.14,0,0,1,104.768,97.978l1.105-1.106a32,32,0,0,1,45.255,45.255l-56,56A31.788,31.788,0,0,1,255.5,223.5Zm-56-103.993a15.994,15.994,0,0,0-11.314,27.307l56,56a16,16,0,0,0,22.628,0l56-56a16,16,0,1,0-22.628-22.626l-14.529,14.529A8,8,0,0,1,272,133.059V121a89.1,89.1,0,0,0-89-89H128a16,16,0,0,0,0,32h55a57.064,57.064,0,0,1,57,57v13.059a8,8,0,0,1-13.657,5.657l-15.529-15.529A15.949,15.949,0,0,0,199.5,119.507Z"/><path d="M384,496H329a105.139,105.139,0,0,1-104.826-98.919l-2.047,2.047a32,32,0,0,1-45.255-45.255l56-56a32.037,32.037,0,0,1,45.254,0l56,56a32,32,0,0,1-45.254,45.256l-.08-.08A41.072,41.072,0,0,0,329,432h55a32,32,0,0,1,0,64ZM232,369.941a8,8,0,0,1,8,8V391a89.1,89.1,0,0,0,89,89h55a16,16,0,0,0,0-32H329a57.064,57.064,0,0,1-57-57V378.941a8,8,0,0,1,13.657-5.657l14.529,14.529a16,16,0,1,0,22.628-22.627l-56-56a16.018,16.018,0,0,0-22.628,0l-56,56a16,16,0,1,0,22.628,22.626l15.529-15.529A8,8,0,0,1,232,369.941Z"/></g></svg>
