<?xml version="1.0" encoding="utf-8"?>
<!-- Generator: Adobe Illustrator 25.2.1, SVG Export Plug-In . SVG Version: 6.00 Build 0)  -->
<svg version="1.1" id="Capa_1" xmlns="http://www.w3.org/2000/svg" xmlns:xlink="http://www.w3.org/1999/xlink" x="0px" y="0px"
	 viewBox="0 0 512 512" style="enable-background:new 0 0 512 512;" xml:space="preserve">
<style type="text/css">
	.st0{display:none;fill:#B9D8EF;}
	.st1{display:none;fill:#DDDAEC;}
	.st2{fill:#CFE3F9;}
	.st3{fill:#B9D8EF;}
</style>
<path class="st0" d="M148.7,76.9c-13.8,7.7-31.8-2.1-31.8-18.9V0h20.6v58.1C137.5,66.7,142.2,73.4,148.7,76.9L148.7,76.9z"/>
<path class="st1" d="M267.6,214.7v57.9H251c-10.7,0-19.3,8.6-19.3,19.3c0,5.3,2.2,10.1,5.7,13.6c3.5,3.5,8.3,5.7,13.6,5.7h-22
	c-5.3,0-10.1-2.2-13.6-5.7c-3.5-3.5-5.7-8.3-5.7-13.6c0-10.7,8.6-19.3,19.3-19.3h16.7v-57.9H229c-5.3,0-10.1-2.2-13.6-5.7
	c-3.5-3.5-5.7-8.3-5.7-13.6c0-10.7,8.6-19.3,19.3-19.3h22c-10.7,0-19.3,8.6-19.3,19.3c0,5.3,2.2,10.1,5.7,13.6
	c3.5,3.5,8.3,5.7,13.6,5.7L267.6,214.7z"/>
<path class="st1" d="M290.6,144.5c-3.6,1.3-7.4,2-11.5,2c-18.5,0-33.5-15-33.5-33.5s15-33.5,33.5-33.5c4,0,7.9,0.7,11.5,2
	c-12.8,4.7-22,17-22,31.4C268.6,127.5,277.8,139.8,290.6,144.5z"/>
<g>
	<path class="st2" d="M343.6,255.5l-18.3,6.7l-33.2-6.7c-18.3,0-33.1,14.8-33.1,33.1v185.6l9.1-1.4c0.7-12.1,10.8-21.7,23.1-21.7
		H405l63.1-10V255.5H343.6z M375,294.7c9.1,0,16.5,7.4,16.5,16.5c0,9.1-7.4,16.5-16.5,16.5c-9.1,0-16.5-7.4-16.5-16.5
		C358.5,302,365.9,294.7,375,294.7z M397.3,408.6h-47c-5.2,0-9.5-4.2-9.5-9.5c0-5.2,4.2-9.5,9.5-9.5h8.2v-28.5h-8.2
		c-5.2,0-9.5-4.2-9.5-9.5c0-5.2,4.2-9.5,9.5-9.5h32.1c5,0,9.1,4.1,9.1,9.1v38.4h5.8c5.2,0,9.5,4.2,9.5,9.5
		C406.8,404.3,402.5,408.6,397.3,408.6z"/>
	<path class="st3" d="M451.3,456.3h16.8v35.8h-16.8V456.3z"/>
	<path class="st3" d="M292.2,441.1c-18.3,0-33.1,14.8-33.1,33.1s14.8,33.1,33.1,33.1h175.9v-66.3H292.2z M451.3,492.2H292.2
		c-9.9,0-17.9-8-17.9-17.9s8-17.9,17.9-17.9h159.1l8.4,17.9L451.3,492.2z"/>
	<path class="st3" d="M349,255.5h-51.4v28.6c0,8.9,10.4,13.8,17.3,8.1l8.4-7l8.4,7c6.9,5.7,17.3,0.8,17.3-8.1V255.5z"/>
	<path class="st3" d="M292.2,456.4V255.5c-18.3,0-33.1,14.8-33.1,33.1v185.6l15.6-2.5C276.3,463.4,283.5,457,292.2,456.4z"/>
</g>
<g id="Outline">
	<path d="M127.6,357.3c-12.3,5.4-26.7-0.2-32.1-12.6l-16.8-38.4c-16.9-38.6-1-83.7,36.4-103.2l-1.6-0.6
		c-12.6-4.9-18.8-19.1-13.8-31.6c4.9-12.6,19.1-18.8,31.6-13.8l0,0l56.3,22l0,0c12.5,4.9,18.7,19.1,13.8,31.6l-22,56.3
		c-4.9,12.6-19.1,18.8-31.6,13.8c-12.6-4.9-18.8-19.1-13.8-31.6l0.2-0.6c-12.2,8.6-16.7,24.5-10.7,38.2l16.8,38.4
		C145.5,337.5,139.9,351.8,127.6,357.3z M124.7,212c-34.3,15.1-49.9,55.1-34.9,89.4l16.8,38.4c2.7,6.2,9.9,9,16.1,6.3
		c6.2-2.7,9-9.9,6.3-16.1l-16.8-38.4c-9.6-22,0.4-47.6,22.4-57.3l8.4-3.7c3.1-1.4,6.7,0.1,8,3.1c0.6,1.5,0.7,3.2,0.1,4.7l-5.9,15.1
		c-2.5,6.3,0.6,13.4,6.8,15.8c6.3,2.5,13.4-0.6,15.8-6.8c0,0,0-0.1,0.1-0.1l22-56.3c2.4-6.3-0.7-13.3-6.9-15.8l0,0l-56.3-22
		c-6.3-2.5-13.4,0.6-15.8,6.9c-2.5,6.3,0.6,13.4,6.9,15.8l15.1,5.9c3.1,1.2,4.7,4.8,3.5,7.9c-0.6,1.5-1.8,2.7-3.2,3.4L124.7,212z"/>
	<path d="M334.7,206.6c-5.9,2.6-12.6,2.7-18.7,0.4l-56.3-22c-12.5-4.9-18.7-19.1-13.8-31.6l22-56.3c4.9-12.6,19.1-18.8,31.6-13.8
		c12.6,4.9,18.8,19.1,13.8,31.6l-0.3,0.8c12.7-8.4,17.6-24.7,11.5-38.7l-16.8-38.4c-5.4-12.3,0.2-26.7,12.6-32.1S347,6.7,352.4,19
		l16.8,38.4c17,38.9,0.7,84.2-37,103.5l1.6,0.6c12.6,4.9,18.8,19.1,13.8,31.6C345.2,199.2,340.6,204,334.7,206.6z M285.7,94.9
		c-3,1.3-5.3,3.7-6.5,6.7l-22,56.3c-2.4,6.3,0.7,13.3,6.9,15.8l56.3,22c6.3,2.5,13.4-0.6,15.8-6.9s-0.6-13.4-6.9-15.8l0,0l-15.1-5.9
		c-3.1-1.2-4.7-4.8-3.5-7.9c0.6-1.5,1.8-2.7,3.2-3.4l9.1-4c34.3-15.1,49.9-55.1,34.9-89.4l-16.8-38.4c-2.7-6.2-9.9-9-16.1-6.3
		s-9,9.9-6.3,16.1l16.8,38.4c9.6,22-0.4,47.6-22.4,57.3l-9.1,4c-3.1,1.4-6.7-0.1-8-3.1c-0.6-1.5-0.7-3.2-0.1-4.7l5.9-15.1
		c2.5-6.3-0.6-13.3-6.9-15.8C292,93.5,288.7,93.6,285.7,94.9z"/>
	<path d="M213.6,159.3c-5.9,2.6-12.6,2.7-18.7,0.4l-56.3-22c-12.6-4.9-18.8-19.1-13.8-31.6c4.9-12.6,19.1-18.8,31.6-13.8l1.3,0.5
		c-8.4-12.7-24.7-17.6-38.7-11.5L80.6,98.1c-12.3,5.4-26.7-0.2-32.1-12.6s0.2-26.7,12.6-32.1l38.4-16.8c38.6-16.9,83.7-1,103.2,36.4
		l0.4-1.1c4.9-12.6,19.1-18.8,31.6-13.8s18.8,19.1,13.8,31.6l-22,56.3C224.2,151.9,219.6,156.7,213.6,159.3z M142.7,103.8
		c-6.2,2.7-9,9.9-6.3,16.1c1.3,3,3.7,5.3,6.7,6.5l56.3,22c6.3,2.5,13.4-0.6,15.8-6.9c0,0,0,0,0,0l22-56.3c2.5-6.3-0.6-13.4-6.8-15.8
		c-6.3-2.5-13.4,0.6-15.8,6.8c0,0,0,0.1-0.1,0.1l-5.7,14.6c-1.2,3.1-4.8,4.7-7.9,3.5c-1.5-0.6-2.7-1.8-3.4-3.2l-3.7-8.4
		c-15.1-34.3-55.1-49.9-89.4-34.9L66,64.5c-6.2,2.7-9,9.9-6.3,16.1c2.7,6.2,9.9,9,16.1,6.3l38.4-16.8c22-9.6,47.6,0.4,57.3,22.4
		l4,9.1c1.4,3.1-0.1,6.7-3.1,8c-1.5,0.6-3.2,0.7-4.7,0.1l-15.6-6.1C149,102.4,145.6,102.5,142.7,103.8z"/>
	<path d="M386.8,310.4l-38.4,16.8c-38.9,17-84.2,0.7-103.5-37l-0.8,2.1c-4.9,12.6-19.1,18.8-31.6,13.8s-18.8-19.1-13.8-31.6l22-56.3
		c4.9-12.5,19.1-18.7,31.6-13.8l56.3,22c12.6,4.9,18.8,19.1,13.8,31.6c-4.9,12.6-19.1,18.8-31.6,13.8l-0.1,0
		c8.6,12.2,24.5,16.7,38.2,10.7l38.4-16.8c12.3-5.4,26.7,0.2,32.1,12.6C404.7,290.6,399.1,304.9,386.8,310.4z M242,268.8
		c3.1-1.4,6.7,0.1,8,3.1l4,9.1c15.1,34.3,55.1,49.9,89.4,34.9l38.4-16.8c6.2-2.7,9-9.9,6.3-16.1s-9.9-9-16.1-6.3l-38.4,16.8
		c-22,9.6-47.6-0.4-57.3-22.4l-3.7-8.4c-1.4-3.1,0.1-6.7,3.1-8c1.5-0.6,3.2-0.7,4.7-0.1l14.6,5.7c6.3,2.5,13.4-0.6,15.8-6.9
		s-0.6-13.4-6.9-15.8l0,0l-56.3-22c-6.3-2.4-13.3,0.7-15.8,6.9l-22,56.3c-2.5,6.3,0.6,13.4,6.8,15.8c6.3,2.5,13.4-0.6,15.8-6.8
		c0,0,0-0.1,0.1-0.1l6.1-15.6C239.4,270.7,240.5,269.4,242,268.8z"/>
</g>
</svg>
