<svg id="Capa_1" enable-background="new 0 0 511.997 511.997" height="512" viewBox="0 0 511.997 511.997" width="512" xmlns="http://www.w3.org/2000/svg"><g><g><path d="m468.445.003v377.32l-357.551 56.67-67.342 10.673v-377.331c0-37.189 30.153-67.332 67.342-67.332l67.39 13.61 37.152-13.61h253.009z" fill="#9dc6fb"/><path d="m110.894.003v433.99l-67.342 10.673v-377.331c0-37.189 30.153-67.332 67.342-67.332z" fill="#80b4fb"/><path d="m468.442 377.325h-357.55c-37.189 0-67.336 30.147-67.336 67.336 0 37.189 30.147 67.336 67.336 67.336h357.55z" fill="#80b4fb"/><path d="m110.892 481.092c-20.088 0-36.431-16.343-36.431-36.431s16.343-36.431 36.431-36.431h323.464l17.043 36.431-17.043 36.431z" fill="#f9f6f9"/><path d="m434.356 408.231h34.086v72.861h-34.086z" fill="#9dc6fb"/><path d="m215.436.003h-104.544v58.078c0 18.173 21.171 28.125 35.165 16.531l17.107-14.174 17.107 14.174c13.994 11.594 35.165 1.642 35.165-16.531z" fill="#ffe07d"/><path d="m142.683 76.933c-13.784 7.675-31.791-2.091-31.791-18.852v-58.081h20.583v58.081c0 8.592 4.739 15.349 11.208 18.852z" fill="#ffd064"/></g><g><path d="m324.448 272.582h-11.848v-78.036c0-10.196-8.266-18.462-18.462-18.462h-65.148c-10.651 0-19.286 8.635-19.286 19.286 0 10.651 8.635 19.286 19.286 19.286h16.688v57.927h-16.688c-10.651 0-19.286 8.634-19.286 19.286 0 10.651 8.635 19.286 19.286 19.286h95.458c10.651 0 19.286-8.634 19.286-19.286 0-10.652-8.634-19.287-19.286-19.287z" fill="#f9f6f9"/><path d="m267.648 214.652v57.918h-16.692c-10.653 0-19.284 8.644-19.284 19.297 0 5.314 2.164 10.135 5.651 13.634 3.486 3.486 8.307 5.651 13.634 5.651h-21.967c-5.327 0-10.148-2.164-13.634-5.651-3.499-3.499-5.651-8.32-5.651-13.634 0-10.653 8.631-19.297 19.284-19.297h16.692v-57.918h-16.692c-5.327 0-10.148-2.151-13.634-5.651-3.499-3.486-5.651-8.307-5.651-13.634 0-10.653 8.631-19.284 19.284-19.284h21.967c-10.653 0-19.284 8.631-19.284 19.284 0 5.327 2.164 10.148 5.651 13.634 3.486 3.499 8.307 5.651 13.634 5.651z" fill="#dddaec"/><circle cx="279.139" cy="113.052" fill="#f9f6f9" r="33.462"/><path d="m290.61 144.493c-3.577 1.309-7.439 2.022-11.47 2.022-18.481 0-33.463-14.982-33.463-33.463s14.982-33.462 33.463-33.462c4.031 0 7.893.713 11.47 2.022-12.83 4.679-21.993 16.99-21.993 31.441 0 14.45 9.162 26.762 21.993 31.44z" fill="#dddaec"/></g></g></svg>