<?xml version="1.0" encoding="utf-8"?>
<!-- Generator: Adobe Illustrator 25.2.1, SVG Export Plug-In . SVG Version: 6.00 Build 0)  -->
<svg version="1.1" id="Calque_1" xmlns="http://www.w3.org/2000/svg" xmlns:xlink="http://www.w3.org/1999/xlink" x="0px" y="0px"
	 viewBox="0 0 97.4 416.4" style="enable-background:new 0 0 97.4 416.4;" xml:space="preserve">
<style type="text/css">
	.st0{display:none;}
	
		.st1{display:inline;opacity:0.6;fill:none;stroke:#707070;stroke-width:4;stroke-linecap:round;stroke-dasharray:23,26;enable-background:new    ;}
	.st2{display:inline;}
	.st3{fill:#FFFFFF;}
	.st4{fill:none;stroke:#3D3D3D;stroke-width:2;}
	.st5{fill:#0E5686;}
	.st6{fill:none;stroke:#707070;stroke-width:2;}
	.st7{fill:#00A8CD;}
	
		.st8{opacity:0.6;fill:none;stroke:#707070;stroke-width:4;stroke-linecap:round;stroke-dasharray:23,26;enable-background:new    ;}
	.st9{fill:#4A80A4;}
</style>
<g id="Groupe_4370" transform="translate(-355 -1034)" class="st0">
	<line id="Ligne_580" class="st1" x1="404" y1="1161" x2="404" y2="1440"/>
	<g id="Groupe_4246" transform="translate(1 0.5)" class="st2">
		<g id="Ellipse_104" transform="translate(354 1033.5)">
			<circle class="st3" cx="49.5" cy="50.5" r="43.5"/>
			<circle class="st4" cx="49.5" cy="50.5" r="42.5"/>
		</g>
		<g id="Ellipse_105" transform="translate(369 1048.5)">
			<circle class="st5" cx="35" cy="36" r="29.1"/>
			<circle class="st6" cx="35" cy="36" r="28.1"/>
		</g>
	</g>
</g>
<g id="Groupe_4371" transform="translate(-355 -1471)" class="st0">
	<path id="Tracé_3611" class="st1" d="M403,1602v347"/>
	<g id="Groupe_4245" transform="translate(1 0.5)" class="st2">
		<g id="Ellipse_104_1_" transform="translate(354 1470.5)">
			<circle class="st3" cx="48.5" cy="49.5" r="44"/>
			<circle class="st4" cx="48.5" cy="49.5" r="43"/>
		</g>
		<g id="Ellipse_105_1_" transform="translate(369 1485.5)">
			<circle class="st7" cx="34" cy="35" r="29.5"/>
			<circle class="st6" cx="34" cy="35" r="28.5"/>
		</g>
	</g>
</g>
<g id="Groupe_4372" transform="translate(-355 -1980)">
	<line id="Ligne_578" class="st8" x1="403" y1="2115" x2="403" y2="2382"/>
	<g id="Groupe_4244" transform="translate(1 1.5)">
		<g id="Ellipse_104_2_" transform="translate(354 1978.5)">
			<circle class="st3" cx="48.5" cy="51.5" r="44"/>
			<circle class="st4" cx="48.5" cy="51.5" r="43"/>
		</g>
		<g id="Ellipse_105_2_" transform="translate(369 1993.5)">
			<circle class="st9" cx="34" cy="37" r="29.5"/>
			<circle class="st6" cx="34" cy="37" r="28.5"/>
		</g>
	</g>
</g>
</svg>
