<?xml version="1.0" encoding="utf-8"?>
<!-- Generator: Adobe Illustrator 25.2.1, SVG Export Plug-In . SVG Version: 6.00 Build 0)  -->
<svg version="1.1" id="Calque_1" xmlns="http://www.w3.org/2000/svg" xmlns:xlink="http://www.w3.org/1999/xlink" x="0px" y="0px"
	 viewBox="0 0 512 512" style="enable-background:new 0 0 512 512;" xml:space="preserve">
<style type="text/css">
	.st0{fill:#CFE3F9;}
	.st1{fill:#B9D8EF;}
	.st2{fill:#FFFFFF;}
	.st3{fill:#F4F4F4;}
</style>
<g>
	<path class="st0" d="M363.2,204.1c-64.3,0-116.6,52-116.6,116c0,26.3,8.7,51.2,25.2,71.9l72.8,90.9c4.6,5.7,11.4,9,18.7,9
		c3.7,0,7.2-0.8,10.4-2.3c3.2-1.5,6-3.8,8.3-6.6l72.8-91c16.4-20.7,25.1-45.5,25.1-71.9C479.8,256.2,427.5,204.1,363.2,204.1z"/>
	<path class="st1" d="M479.8,320.1c0,26.3-8.7,51.2-25.1,71.9l-72.8,91c-2.3,2.8-5.1,5.1-8.3,6.6c-3.2,1.5-6.7,2.3-10.4,2.3V204.1
		C427.5,204.1,479.8,256.2,479.8,320.1z"/>
	<path class="st2" d="M363.2,237.2c-45.7,0-82.8,37.2-82.8,82.8c0,45.7,37.2,82.8,82.8,82.8S446,365.7,446,320
		C446,274.3,408.9,237.2,363.2,237.2z"/>
	<path class="st3" d="M446,320c0,45.7-37.2,82.8-82.8,82.8V237.2C408.9,237.2,446,274.3,446,320z"/>
	<path class="st0" d="M375.4,326.6c-2.3,1.1-3.8,3.6-3.8,6.3c0,4.7-3.8,8.4-8.4,8.4s-8.4-3.8-8.4-8.4c0-7.2,3.2-13.9,8.4-18.3
		c1.5-1.3,3.1-2.3,4.9-3.2c4.3-2,6.8-6.4,6.5-11.2c-0.4-5.6-4.9-10.2-10.6-10.6c-0.3,0-0.6,0-0.8,0c-2.9,0-5.7,1.1-7.8,3.1
		c-2.3,2.2-3.6,5.2-3.6,8.4c0,4.7-3.8,8.4-8.4,8.4c-4.7,0-8.4-3.8-8.4-8.4c0-7.8,3.3-15.4,9-20.7c5.3-5,12.1-7.6,19.3-7.6
		c0.7,0,1.3,0,2,0.1c14,1,25.3,12.2,26.2,26.2C392.3,310.8,386,321.6,375.4,326.6z"/>
	<path class="st0" d="M371.6,356v5.3c0,4.7-3.8,8.4-8.4,8.4s-8.4-3.8-8.4-8.4V356c0-4.7,3.8-8.4,8.4-8.4S371.6,351.4,371.6,356z"/>
	<g>
		<path class="st1" d="M371.6,356v5.3c0,4.7-3.8,8.4-8.4,8.4v-22.1C367.9,347.6,371.6,351.4,371.6,356z"/>
		<path class="st1" d="M375.4,326.6c-2.3,1.1-3.8,3.6-3.8,6.3c0,4.7-3.8,8.4-8.4,8.4v-26.8c1.5-1.3,3.1-2.3,4.9-3.2
			c4.3-2,6.8-6.4,6.5-11.2c-0.4-5.6-4.9-10.2-10.6-10.6c-0.3,0-0.6,0-0.8,0v-16.9c0.7,0,1.3,0,2,0.1c14,1,25.3,12.2,26.2,26.2
			C392.3,310.8,386,321.6,375.4,326.6z"/>
	</g>
</g>
<g>
	<path d="M279.1,72.5v42.6c0,3,1.2,5.8,3.3,7.9c2.1,2.1,4.8,3.2,7.8,3.2c0,0,0.1,0,0.1,0c3.3,0,66.1,0,73.9-0.1
		c4.6,0,9-2.1,12.1-5.5c3-3.4,4.5-7.9,4.1-12.4c5.9-4.1,7.6-10.6,7-16.5c2.4-2.3,5.2-6.1,5.2-11.7c0-4.3-1.4-7.6-3-9.9
		c1.4-3.2,1.8-6.6,1.2-10.1c-0.8-4.8-3.5-8.9-7.5-11.7h0c-2.9-2-6.3-3.1-9.8-3.1c0,0,0,0-0.1,0c-3.9,0-15.6,0-22.6,0
		c0.3-2,0.5-4.1,0.7-6.1c0.6-6.8,0.7-15.6-4.3-23.6c-5.6-9.1-15.1-12.6-24.8-9.1c-4,1.4-6.1,4.6-5.6,8.8c0.5,4.9,1.1,10.6,1.5,16.4
		c0.1,0.8-0.1,1.4-0.2,1.6c-3,5.8-12.9,24.7-14.9,28.4c-6.6,0-9.5,0-13-0.1c-3,0-5.8,1.1-7.9,3.2C280.2,66.7,279.1,69.5,279.1,72.5
		L279.1,72.5z M291.2,73.5c3.6,0,6.9,0,15,0c2.7,0,5.2-1.5,6.4-3.9c2.4-4.6,13.3-25.3,16.3-31.1c1.6-3,1.6-6.3,1.5-7.9
		c-0.3-4.7-0.7-9.3-1.2-13.5c3.1-0.2,5.6,1.4,7.6,4.6c2.5,4,3.2,8.7,2.5,16.1c-0.2,2.7-0.6,5.5-1,8.4c-1.6,5,1,11.1,6.8,11
		c0,0,22.4,0,28.2,0c4.4-0.1,7,5.5,4.4,8.9c-2.3,3-1.8,7.3,1.1,9.8c0.7,0.7,1.5,2,1.5,3.9c0,1.8-1.4,3-2.2,3.5
		c-2.6,1.6-3.9,4.8-3.2,7.8c1.4,5.8-1.9,7.2-3,7.7c-3.3,1.4-5.1,5.1-4.2,8.6c1.1,2.9,0,6.2-3.8,6.5c-7.8,0.1-68.4,0.1-72.9,0.1
		L291.2,73.5z"/>
	<path d="M55.5,125.8c0.8,4.8,3.5,8.9,7.5,11.7c2.9,2,6.3,3.1,9.8,3.1h0.1c3.9,0,15.6,0,22.6,0c-0.3,2-0.5,4.1-0.7,6.1
		c-0.6,6.8-0.7,15.6,4.3,23.6c4.2,6.8,10.5,10.4,17.5,10.4c2.4,0,4.9-0.4,7.3-1.3c4-1.4,6.1-4.6,5.6-8.8c-0.5-4.9-1.1-10.6-1.5-16.4
		c-0.1-0.8,0.1-1.4,0.2-1.6c3-5.8,12.9-24.7,14.9-28.4c6.6,0,9.5,0,13,0.1c3,0,5.8-1.1,7.9-3.2c2.1-2.1,3.3-4.9,3.3-7.9V70.6
		c0-3-1.2-5.8-3.3-7.9c-2.1-2.1-4.8-3.2-7.8-3.2c0,0-0.1,0-0.1,0c-3.3,0-66.1,0-73.9,0.1c-4.6,0-9,2.1-12.1,5.5
		c-3,3.4-4.5,8-4.1,12.4c-5.9,4.1-7.6,10.6-7,16.5c-2.4,2.3-5.2,6.1-5.2,11.7c0,4.3,1.4,7.6,3,9.9C55.3,118.9,54.9,122.3,55.5,125.8
		L55.5,125.8z M68,102.2c2.6-1.6,3.8-4.8,3.1-7.8c-1.4-5.8,1.9-7.2,3-7.7c3.3-1.4,5.1-5.1,4.2-8.5c-1.1-2.9,0-6.2,3.8-6.5
		c7.8-0.1,68.4-0.1,72.9-0.1v40.4c-3.6,0-6.9-0.1-15,0c-2.7,0-5.2,1.5-6.4,3.9c-2.4,4.6-13.3,25.3-16.3,31.1c-1.6,3-1.6,6.3-1.5,7.9
		c0.3,4.7,0.7,9.3,1.2,13.5c-3.1,0.2-5.6-1.4-7.6-4.6c-2.5-4-3.2-8.7-2.5-16.1c0.2-2.7,1.3-10.2,1.4-11.1c0.3-2.1-0.4-4.2-1.7-5.7
		c-1.4-1.6-3.4-2.5-5.5-2.5c0,0-22.4,0-28.2,0c-4.4,0.1-7-5.5-4.4-8.9c2.3-3,1.8-7.3-1.1-9.8c-0.7-0.7-1.5-2-1.5-3.9
		C65.8,103.9,67.2,102.8,68,102.2L68,102.2z"/>
	<path d="M414.1,138.3H255.6c-6,0-10.9,4.9-10.9,10.9V164c0,6,4.9,10.9,10.9,10.9h14.7c15,20.3,38.6,32.5,63.8,33V227l-35.2,7.8
		c-3.3,0.7-5.3,4-4.6,7.2c0.7,3.3,4,5.3,7.2,4.6l60.1-13.2c3.9-0.9,7.8,1.6,8.6,5.5c1.4,4.2-0.9,8.8-5.3,9.8l-108.5,23.9v-16
		l19.1-4.2c3.3-0.7,5.3-4,4.6-7.2c-0.7-3.3-4-5.3-7.2-4.6l-16.5,3.6v-5.9c0-15.7-12.8-28.6-28.6-28.6c-15.7,0-28.6,12.8-28.6,28.6
		v18.4l-79.7,17.6v-14.6c22.5-2.4,43.2-14.1,56.8-32.5h13.1c6,0,10.9-4.9,10.9-10.9v-14.8c0-6-4.9-10.9-10.9-10.9H31.2
		c-6,0-10.9,4.9-10.9,10.9v14.8c0,6,4.9,10.9,10.9,10.9h14.7c14.6,19.7,37.2,31.8,61.7,32.9V277l-7.8,1.7
		C89.3,281,82.7,291.4,85,301.8c1.6,10.7,12.8,18.5,23.4,15.9l89.5-19.7c-2.9,14.6-9.6,28.2-19.7,39.4h-12
		c-12.4,0-22.5,10.1-22.5,22.5v7.7c0,5.1,4.2,9.3,9.3,9.3H235c3.4,0,6.1-2.7,6.1-6.1c0-3.4-2.7-6.1-6.1-6.1h-79.3v-4.9
		c0-5.7,4.6-10.3,10.3-10.3h123.7c5.7,0,10.3,4.6,10.3,10.3v4.9H265c-3.4,0-6.1,2.7-6.1,6.1c0,3.4,2.7,6.1,6.1,6.1h38
		c5.1,0,9.3-4.2,9.3-9.3v-7.7c0-12.4-10.1-22.5-22.5-22.5h-12.1c-13-14.5-20.4-33-21.2-52.4l111-24.5c10.9-2.4,17.5-13.6,14.5-24.3
		c-2.3-10.4-12.7-17.1-23.1-14.8l-12.7,2.8v-17.1c21.7-2.9,41.5-14.4,54.7-32.3h13.1c6,0,10.9-4.9,10.9-10.9v-14.8
		C425,143.2,420.1,138.3,414.1,138.3L414.1,138.3z M61.7,227.1h5.8c3.4,0,6.1-2.7,6.1-6.1c0-3.4-2.7-6.1-6.1-6.1H32.4v-12.4h156V215
		H96.9c-3.4,0-6.1,2.7-6.1,6.1c0,3.4,2.7,6.1,6.1,6.1h63.7c-12.9,13.2-30.7,20.9-49.4,20.9C92.4,248,74.6,240.4,61.7,227.1
		L61.7,227.1z M105.7,305.8c-4.3,1.1-8.5-2.4-8.9-6.7c-0.9-3.9,1.6-7.8,5.5-8.6l97-21.4c0,0,0,14.9-0.1,16.1L105.7,305.8z
		 M193.7,337.4c11.6-16.1,17.8-35.5,17.8-55.6v-43.5c0-9,7.4-16.4,16.4-16.4c9,0,16.4,7.4,16.4,16.4v43.5c0,20.1,6.3,39.4,17.8,55.6
		H193.7z M335.6,195.8c-18.7,0-36.5-7.6-49.4-20.9H385C372.2,188.2,354.4,195.8,335.6,195.8L335.6,195.8z M412.9,162.8h-156v-12.4
		h156V162.8z"/>
	<circle cx="227.9" cy="242.2" r="7.3"/>
</g>
</svg>
