<?xml version="1.0" encoding="utf-8"?>
<!-- Generator: Adobe Illustrator 25.2.1, SVG Export Plug-In . SVG Version: 6.00 Build 0)  -->
<svg version="1.1" id="Capa_1" xmlns="http://www.w3.org/2000/svg" xmlns:xlink="http://www.w3.org/1999/xlink" x="0px" y="0px"
	 viewBox="0 0 512 512" style="enable-background:new 0 0 512 512;" xml:space="preserve">
<style type="text/css">
	.st0{fill:#CFE3F9;}
	.st1{fill:#B9D8EF;}
</style>
<g>
	<path class="st0" d="M443.8,366.4h23.7c4.1,0,7.4-3.3,7.4-7.4v-71.2c0-4.1-3.3-7.4-7.4-7.4h-63.8v-16.3c0-17.2-14-31.1-31.1-31.1
		c-17.2,0-31.1,14-31.1,31.1v16.3h-63.8c-4.1,0-7.4,3.3-7.4,7.4v63.8H254c-17.2,0-31.1,14-31.1,31.1s14,31.1,31.1,31.1h16.3v63.8
		c0,4.1,3.3,7.4,7.4,7.4h71.2c4.1,0,7.4-3.3,7.4-7.4v-23.7c0-9,7.3-16.3,16.3-16.3c9,0,16.3,7.3,16.3,16.3v23.7
		c0,4.1,3.3,7.4,7.4,7.4h71.2c4.1,0,7.4-3.3,7.4-7.4v-71.2c0-4.1-3.3-7.4-7.4-7.4h-23.7c-9,0-16.3-7.3-16.3-16.3
		S434.8,366.4,443.8,366.4z"/>
	<path class="st1" d="M443.8,366.4h23.7c4.1,0,7.4-3.3,7.4-7.4v-71.2c0-4.1-3.3-7.4-7.4-7.4h-63.8v-16.3c0-17.2-14-31.1-31.1-31.1
		v204.6c9,0,16.3,7.3,16.3,16.3v23.7c0,4.1,3.3,7.4,7.4,7.4h71.2c4.1,0,7.4-3.3,7.4-7.4v-71.2c0-4.1-3.3-7.4-7.4-7.4h-23.7
		c-9,0-16.3-7.3-16.3-16.3S434.8,366.4,443.8,366.4z"/>
</g>
<g>
	<path d="M410.1,270.7l-28-28c-2.4-2.4-6.3-2.4-8.7,0c-2.4,2.4-2.4,6.3,0,8.6l3.9,3.9l-94,94l-33.5-33.5l94-94l9.6,9.6
		c2.4,2.4,6.3,2.4,8.7,0c2.4-2.4,2.4-6.3,0-8.6l-13.9-13.9c-11-11.3-18.2-24.1-28.4-36.2c11.6-15.6-0.7-38.5-20-37.5
		c0.6-13.6-11-25.3-24.6-24.6c0.6-13.6-11-25.3-24.6-24.6c1.1-22.4-27-32.5-41.6-16.3l-1.4-1.4c-9.2-9.2-24.1-9.2-33.3,0
		c-4.9,4.9-7.2,11.4-6.9,17.8c-13.6-0.7-25.3,11-24.6,24.6c-5.4-0.3-10.9,1.4-15.4,4.8c-8.3-2.9-17.4-1.9-25.5,3.1
		c-9.9,6.1-16.1,16.7-16.3,27.8l-6.9,53.6L7.7,270.7c-2.4,2.4-2.4,6.3,0,8.6L110.3,382c1.2,1.2,2.8,1.8,4.3,1.8
		c1.6,0,3.1-0.6,4.3-1.8l62-62c2.4-2.4,2.4-6.3,0-8.6L170.5,301c11.7-11.7,23.4-17.6,38.3-24.4c14.8,6.7,26.8,12.8,38.3,24.4
		l-10.4,10.4c-1.1,1.1-1.8,2.7-1.8,4.3c0,1.6,0.6,3.2,1.8,4.3l62,62c1.2,1.2,2.8,1.8,4.3,1.8s3.1-0.6,4.3-1.8l102.7-102.7
		c1.1-1.1,1.8-2.7,1.8-4.3C411.9,273.4,411.2,271.9,410.1,270.7L410.1,270.7z M300.8,147.3c7.9,0,13.6,8.6,10.3,15.9
		c-4.9-5-9.9-9.9-14.9-14.9C297.8,147.9,299.3,147.6,300.8,147.3L300.8,147.3z M276.2,122.7c8,0,13.5,8.6,10.3,15.9
		c-5.3-5.1-11.2-9.8-17.8-13C270.8,123.6,273.3,122.7,276.2,122.7L276.2,122.7z M110.3,168l-1.4-1.4c-4.4-4.4-4.4-11.6,0-16
		c2.2-2.2,5.1-3.3,8-3.3s5.8,1.1,8,3.3l1.4,1.4l-8,8L110.3,168z M182.8,76.7c2.2-2.2,5.1-3.3,8-3.3c2.9,0,5.8,1.1,8,3.3l1.4,1.4
		l-16,16l-1.4-1.4C178.4,88.3,178.4,81.1,182.8,76.7L182.8,76.7z M154.9,109.3c0-3,1.2-5.9,3.3-8c2.2-2.2,5.1-3.3,8-3.3
		c2.9,0,5.8,1.1,8,3.3l1.4,1.4l-8,8l-8,8l-1.4-1.4C156,115.2,154.9,112.3,154.9,109.3L154.9,109.3z M141.5,122.7
		c2.9,0,5.8,1.1,8,3.3l1.4,1.4l-16,16l-1.4-1.4c-4.4-4.4-4.4-11.6,0-16C135.7,123.8,138.6,122.7,141.5,122.7z M108.2,128.8
		c2.3-1.4,6.4-3.3,11.2-2.8c-1.1,2.9-1.5,6-1.4,9.1c-7.9-0.4-15.6,3.4-20.2,9.8C98.4,138.5,102.3,132.4,108.2,128.8z M114.6,369.1
		l-94-94l11.1-11.1l94,94L114.6,369.1z M236.1,275.5c-4.3-2.7-8.9-4.9-13.6-6.7c6.1-4.4,11.2-9.8,16.5-15.1c2.4-2.4,2.4-6.3,0-8.6
		c-2.4-2.4-6.3-2.4-8.7,0c-7.4,7.4-14.7,14.6-24.2,19.3c-16.7,8.4-30.8,14.5-44.3,27.9l-52-52c-2.4-2.4-6.3-2.4-8.6,0
		c-2.4,2.4-2.4,6.3,0,8.6l66.7,66.7l-33.5,33.5l-94-94l33.5-33.5l6.1,6.1c2.4,2.4,6.3,2.4,8.6,0c2.4-2.4,2.4-6.3,0-8.6l-6.1-6.1
		l6.1-6.1c1-1,1.6-2.2,1.7-3.5l4.7-36.1c2.2,5.6,6.8,9.5,10.9,13.6c2.4,2.4,6.3,2.4,8.7,0L219,76.7c10.2-10.2,26.2,5.8,16,16
		c-1.2,1.2-1.8,2.8-1.8,4.3s0.6,3.1,1.8,4.3c2.4,2.4,6.3,2.4,8.7,0c10.3-10.3,26.3,5.7,16,16c-1.2,1.2-1.8,2.8-1.8,4.3
		c0-1.4-48.6-0.8-52.5-0.8c-26.6,0-31,39.4-4.7,44.6l30.3,9c4.7,1.4,9.1,4,12.6,7.5l25,25l-17.7,17.7c-2.4,2.4-2.4,6.3,0,8.6
		c2.4,2.4,6.3,2.4,8.6,0l22-22c1.1-1.1,1.8-2.7,1.8-4.3c0-1.6-0.6-3.2-1.8-4.3l-29.3-29.3c-4.9-4.9-11.1-8.6-17.8-10.6l-30.6-9.1
		c-11.3-3.3-12.3-20.5,1.6-20.5h43.5c11.8,0,21.9,6.8,30,14.8c0,0,26.5,26.6,28.3,28.6c10.5,11.6,17.1,25.5,28.1,36.5l-79.3,79.3
		C249.7,286.2,243.6,280.2,236.1,275.5L236.1,275.5z M303.1,369.1L292,357.9l94-94l11.1,11.1L303.1,369.1z"/>
	<path d="M208.9,33.1c3.4,0,6.1-2.7,6.1-6.1V14.5c0-3.4-2.7-6.1-6.1-6.1c-3.4,0-6.1,2.7-6.1,6.1V27
		C202.8,30.4,205.5,33.1,208.9,33.1L208.9,33.1z"/>
	<path d="M174.4,35.4c1,2.3,3.2,3.7,5.6,3.7c0.8,0,1.6-0.2,2.4-0.5c3.1-1.4,4.5-5,3.2-8.1l-5-11.5c-1.4-3.1-5-4.5-8.1-3.2
		c-3.1,1.4-4.5,5-3.2,8.1L174.4,35.4z"/>
	<path d="M151.7,54.4c1.2,1.1,2.7,1.6,4.2,1.6c1.6,0,3.3-0.7,4.5-2c2.3-2.5,2.1-6.3-0.3-8.6l-9.2-8.5c-2.5-2.3-6.3-2.1-8.6,0.3
		c-2.3,2.5-2.1,6.3,0.3,8.6L151.7,54.4z"/>
	<path d="M235.3,38.5c0.8,0.3,1.6,0.5,2.4,0.5c2.4,0,4.6-1.4,5.6-3.7l5-11.5c1.4-3.1-0.1-6.7-3.2-8.1c-3.1-1.4-6.7,0.1-8.1,3.2
		l-5,11.5C230.8,33.5,232.2,37.2,235.3,38.5z"/>
	<path d="M261.9,56c1.5,0,3-0.5,4.2-1.6l9.2-8.5c2.5-2.3,2.6-6.2,0.3-8.6c-2.3-2.5-6.2-2.6-8.6-0.3l-9.2,8.5
		c-2.5,2.3-2.6,6.2-0.3,8.6C258.6,55.4,260.2,56,261.9,56z"/>
	<ellipse cx="134.5" cy="316.4" rx="6.9" ry="6.9"/>
</g>
</svg>
