<?xml version="1.0" encoding="utf-8"?>
<!-- Generator: Adobe Illustrator 25.2.1, SVG Export Plug-In . SVG Version: 6.00 Build 0)  -->
<svg version="1.1" id="Capa_1" xmlns="http://www.w3.org/2000/svg" xmlns:xlink="http://www.w3.org/1999/xlink" x="0px" y="0px"
	 viewBox="0 0 512 512" style="enable-background:new 0 0 512 512;" xml:space="preserve">
<style type="text/css">
	.st0{fill:#CFE3F9;}
	.st1{fill:#C4D7E8;}
	.st2{fill:#A9C6D8;}
	.st3{fill:#B9D8EF;}
</style>
<g>
	<path class="st0" d="M482.4,482.3H216.7c-8.5,0-15.3-6.9-15.3-15.3V283.1c0-8.5,6.9-15.3,15.3-15.3h265.7c8.5,0,15.3,6.9,15.3,15.3
		V467C497.7,475.5,490.8,482.3,482.4,482.3z"/>
	<path class="st1" d="M216.7,482.3h56.2V267.8h-56.2c-8.5,0-15.3,6.9-15.3,15.3V467C201.4,475.5,208.2,482.3,216.7,482.3z"/>
	<path class="st2" d="M313.8,293.3h-20.4c-2.8,0-5.1-2.3-5.1-5.1c0-2.8,2.3-5.1,5.1-5.1h20.4c2.8,0,5.1,2.3,5.1,5.1
		C318.9,291,316.6,293.3,313.8,293.3z"/>
	<path class="st2" d="M252.5,293.3h-30.7c-2.8,0-5.1-2.3-5.1-5.1c0-2.8,2.3-5.1,5.1-5.1h30.7c2.8,0,5.1,2.3,5.1,5.1
		C257.6,291,255.3,293.3,252.5,293.3z"/>
	<g>
		<path class="st0" d="M252.5,344.4h-30.7c-2.8,0-5.1-2.3-5.1-5.1s2.3-5.1,5.1-5.1h30.7c2.8,0,5.1,2.3,5.1,5.1
			S255.3,344.4,252.5,344.4z"/>
		<path class="st0" d="M252.5,385.3h-30.7c-2.8,0-5.1-2.3-5.1-5.1c0-2.8,2.3-5.1,5.1-5.1h30.7c2.8,0,5.1,2.3,5.1,5.1
			C257.6,383,255.3,385.3,252.5,385.3z"/>
		<path class="st0" d="M252.5,426.1h-30.7c-2.8,0-5.1-2.3-5.1-5.1s2.3-5.1,5.1-5.1h30.7c2.8,0,5.1,2.3,5.1,5.1
			S255.3,426.1,252.5,426.1z"/>
		<path class="st0" d="M252.5,364.8h-30.7c-2.8,0-5.1-2.3-5.1-5.1s2.3-5.1,5.1-5.1h30.7c2.8,0,5.1,2.3,5.1,5.1
			S255.3,364.8,252.5,364.8z"/>
		<path class="st0" d="M252.5,405.7h-30.7c-2.8,0-5.1-2.3-5.1-5.1c0-2.8,2.3-5.1,5.1-5.1h30.7c2.8,0,5.1,2.3,5.1,5.1
			C257.6,403.4,255.3,405.7,252.5,405.7z"/>
	</g>
	<g>
		<path class="st2" d="M242.2,456.8h-20.4c-2.8,0-5.1-2.3-5.1-5.1s2.3-5.1,5.1-5.1h20.4c2.8,0,5.1,2.3,5.1,5.1
			S245.1,456.8,242.2,456.8z"/>
		<path class="st2" d="M242.2,313.7h-20.4c-2.8,0-5.1-2.3-5.1-5.1s2.3-5.1,5.1-5.1h20.4c2.8,0,5.1,2.3,5.1,5.1
			S245.1,313.7,242.2,313.7z"/>
	</g>
	<path class="st3" d="M354.6,293.3h-20.4c-2.8,0-5.1-2.3-5.1-5.1c0-2.8,2.3-5.1,5.1-5.1h20.4c2.8,0,5.1,2.3,5.1,5.1
		C359.8,291,357.5,293.3,354.6,293.3z"/>
	<g>
		<path class="st2" d="M395.5,293.3h-20.4c-2.8,0-5.1-2.3-5.1-5.1c0-2.8,2.3-5.1,5.1-5.1h20.4c2.8,0,5.1,2.3,5.1,5.1
			C400.6,291,398.3,293.3,395.5,293.3z"/>
		<path class="st2" d="M436.4,293.3H416c-2.8,0-5.1-2.3-5.1-5.1c0-2.8,2.3-5.1,5.1-5.1h20.4c2.8,0,5.1,2.3,5.1,5.1
			C441.5,291,439.2,293.3,436.4,293.3z"/>
		<path class="st2" d="M477.3,293.3h-20.4c-2.8,0-5.1-2.3-5.1-5.1c0-2.8,2.3-5.1,5.1-5.1h20.4c2.8,0,5.1,2.3,5.1,5.1
			C482.4,291,480.1,293.3,477.3,293.3z"/>
	</g>
	<g>
		<path class="st3" d="M324,359.7c6.5,0,12.5,3,16.4,8.2c1.7,2.3,4.9,2.7,7.2,1c2.3-1.7,2.7-4.9,1-7.2c-5.8-7.8-14.8-12.3-24.5-12.3
			c-16.9,0-30.7,13.8-30.7,30.7c0,16.9,13.8,30.7,30.7,30.7c9.7,0,18.7-4.5,24.5-12.3c1.7-2.3,1.2-5.5-1-7.2c-2.2-1.7-5.5-1.2-7.2,1
			c-3.9,5.2-9.9,8.2-16.3,8.2c-11.3,0-20.4-9.2-20.4-20.4S312.7,359.7,324,359.7z"/>
		<path class="st3" d="M410.8,369.9c0-11.3-9.2-20.4-20.4-20.4h-25.5c-2.8,0-5.1,2.3-5.1,5.1v51.1c0,2.8,2.3,5.1,5.1,5.1
			s5.1-2.3,5.1-5.1v-15.3h12.8l13.8,18.4c1,1.3,2.5,2,4.1,2c1.1,0,2.1-0.3,3.1-1c2.3-1.7,2.7-4.9,1-7.1l-9.6-12.9
			C404.1,387.7,410.8,379.6,410.8,369.9z M390.4,380.2H370v-20.4h20.4c5.6,0,10.2,4.6,10.2,10.2S396,380.2,390.4,380.2z"/>
		<path class="st3" d="M472.1,354.1c-0.2-2.3-2-4.2-4.4-4.6c-2.3-0.3-4.6,1-5.5,3.2l-15.7,39.2l-15.7-39.2c-0.9-2.2-3.2-3.5-5.5-3.2
			c-2.3,0.3-4.1,2.2-4.4,4.6l-5.1,51.1c-0.3,2.8,1.8,5.3,4.6,5.6c2.9,0.2,5.3-1.8,5.6-4.6l3-30.3l12.7,31.7c0.8,1.9,2.7,3.2,4.7,3.2
			s4-1.3,4.7-3.2l12.7-31.7l3,30.3c0.3,2.6,2.5,4.6,5.1,4.6c0.2,0,0.3,0,0.5,0c2.8-0.3,4.9-2.8,4.6-5.6L472.1,354.1z"/>
	</g>
</g>
<g>
	<path d="M201.4,73.5c-80.3,0-145.6,65.3-145.6,145.6c0,32.5,10.4,63.2,30.2,88.8c1.7,2.3,5,2.7,7.2,0.9c2.3-1.7,2.7-5,0.9-7.2
		c-18.4-23.8-28.1-52.3-28.1-82.5c0-74.6,60.7-135.3,135.3-135.3s135.3,60.7,135.3,135.3S276,354.5,201.4,354.5
		c-35.3,0-68.7-13.5-94.1-38.1c-2-2-5.3-1.9-7.3,0.1c-2,2-1.9,5.3,0.1,7.3c27.3,26.4,63.3,41,101.3,41
		c80.3,0,145.6-65.3,145.6-145.6S281.7,73.5,201.4,73.5z"/>
	<path d="M326,94.6C292.7,61.3,248.4,43,201.4,43S110,61.3,76.8,94.6c-33.3,33.3-51.6,77.5-51.6,124.6s18.3,91.3,51.6,124.6
		c33.3,33.3,77.5,51.6,124.6,51.6s91.3-18.3,124.6-51.6c33.3-33.3,51.6-77.5,51.6-124.6S359.3,127.9,326,94.6L326,94.6z
		 M318.7,336.5c-31.3,31.3-73,48.6-117.3,48.6s-86-17.3-117.3-48.6s-48.6-73-48.6-117.3s17.3-86,48.6-117.3s73-48.6,117.3-48.6
		s86,17.3,117.3,48.6s48.6,73,48.6,117.3S350,305.2,318.7,336.5z"/>
	<path d="M198.6,120.9c14.8,0.3,28.9,6.1,39.7,16.4c2.1,2,5.3,1.9,7.3-0.2c2-2.1,1.9-5.3-0.2-7.3c-12.7-12.1-29.2-18.9-46.6-19.2
		c-35.3-0.7-65.6,25.1-70.5,60c-0.4,3.2-0.7,6.4-0.7,9.7c0,12.5,10.2,22.8,22.8,22.8c12.5,0,22.8-10.2,22.8-22.8
		c0-1.2,0.1-2.3,0.2-3.4c1.7-12.1,12.2-21.1,24.5-20.8c12.6,0.3,23,10.3,23.7,22.9c0.4,6.7-2,13.1-6.6,18
		c-4.6,4.9-10.9,7.5-17.6,7.5c-12.5,0-22.8,10.2-22.8,22.8v28c0,12.5,10.2,22.8,22.8,22.8c12.5,0,22.8-10.2,22.8-22.8v-9.1
		c10.6-3.7,20.1-9.8,27.8-17.9c13.3-14,20.1-32.4,19.1-51.7c-0.5-10.4-3.3-20.2-8.3-29.3c-1.4-2.5-4.5-3.4-7-2.1
		c-2.5,1.4-3.4,4.5-2.1,7c4.2,7.7,6.6,16.1,7,24.9c0.9,16.5-4.9,32.1-16.2,44c-7.3,7.7-16.6,13.3-26.9,16.2c-2.2,0.6-3.7,2.7-3.7,5
		v12.9c0,6.9-5.6,12.4-12.4,12.4c-6.9,0-12.4-5.6-12.4-12.4v-28c0-6.9,5.6-12.4,12.4-12.4c9.6,0,18.4-3.8,25-10.8
		c6.6-6.9,9.9-16,9.4-25.6c-0.9-18-15.8-32.3-33.8-32.7c-17.5-0.4-32.5,12.4-34.9,29.7c-0.2,1.6-0.3,3.2-0.3,4.8
		c0,6.9-5.6,12.4-12.4,12.4c-6.9,0-12.4-5.6-12.4-12.4c0-2.8,0.2-5.6,0.6-8.3C142.8,142.2,168.6,120.3,198.6,120.9L198.6,120.9z"/>
	<path d="M197.4,282c-12.5,0-22.8,10.2-22.8,22.8v0.4c0,12.5,10.2,22.8,22.8,22.8c12.5,0,22.8-10.2,22.8-22.8v-0.4
		C220.2,292.2,210,282,197.4,282L197.4,282z M209.8,305.1c0,6.9-5.6,12.4-12.4,12.4s-12.4-5.6-12.4-12.4v-0.4
		c0-6.9,5.6-12.4,12.4-12.4s12.4,5.6,12.4,12.4V305.1z"/>
</g>
</svg>
