<?xml version="1.0" encoding="utf-8"?>
<!-- Generator: Adobe Illustrator 25.2.1, SVG Export Plug-In . SVG Version: 6.00 Build 0)  -->
<svg version="1.1" id="Calque_1" xmlns="http://www.w3.org/2000/svg" xmlns:xlink="http://www.w3.org/1999/xlink" x="0px" y="0px"
	 viewBox="0 0 2685 1991" style="enable-background:new 0 0 2685 1991;" xml:space="preserve">
<style type="text/css">
	.st0{fill:#D9D9D9;}
	.st1{fill:#ECF4FD;}
	.st2{fill:#FFFFFF;}
	.st3{fill:#5D5D5D;}
	.st4{fill:#CDE5F7;}
	.st5{fill:#E08A81;}
	.st6{fill:#FDFDFD;}
	.st7{fill:#8DB32B;}
	.st8{fill:#F0BA39;}
	.st9{fill:none;stroke:#707070;stroke-width:17;}
	.st10{fill:#CFE3F9;}
	.st11{fill:#47C347;stroke:#707070;stroke-width:9;}
	.st12{fill:#EFC94F;stroke:#707070;stroke-width:9;}
	.st13{fill:none;stroke:#707070;stroke-width:10;stroke-linecap:round;}
	.st14{fill:#E89F94;}
	.st15{fill:none;stroke:#707070;stroke-width:11;stroke-linejoin:round;}
	.st16{enable-background:new    ;}
	.st17{fill:#707070;}
</style>
<g>
	<g>
		<path class="st2" d="M907,330H1866c21.6,0,39,17.5,39,39.2v1253.6c0,21.6-17.5,39.2-39,39.2H907c-21.6,0-39-17.5-39-39.2V369.2
			C868,347.5,885.5,330,907,330z"/>
		<path class="st9" d="M898.7,329.6h975.2c17.2,0,31.2,14,31.2,31.2v1270c0,17.2-14,31.2-31.2,31.2H898.7c-17.2,0-31.2-14-31.2-31.2
			v-1270C867.5,343.6,881.5,329.6,898.7,329.6z"/>
	</g>
	<g>
		<path class="st10" d="M912.6,330h948.8c21.3,0,38.6,16.6,38.6,37.2l0,0V500l0,0H874l0,0V367.2C874,346.6,891.3,330,912.6,330z"/>
		<path class="st9" d="M898.7,329.6h975.2c17.2,0,31.2,14,31.2,31.2v124.7c0,4.7-3.8,8.5-8.5,8.5l0,0H876c-4.7,0-8.5-3.8-8.5-8.5
			l0,0V360.8C867.5,343.6,881.5,329.6,898.7,329.6z"/>
	</g>
	<circle class="st11" cx="1019.7" cy="411.4" r="27.6"/>
	<circle class="st12" cx="1106.4" cy="411.4" r="27.6"/>
	<line id="Ligne_561" class="st13" x1="956.4" y1="1088.6" x2="1818.2" y2="1088.6"/>
	<line id="Ligne_561_1_" class="st13" x1="956.4" y1="996.5" x2="1818.2" y2="996.5"/>
	<line id="Ligne_570" class="st13" x1="1390.1" y1="720.3" x2="1818.2" y2="720.3"/>
	<line id="Ligne_570_1_" class="st13" x1="1390.1" y1="812.4" x2="1818.2" y2="812.4"/>
	<line id="Ligne_570_2_" class="st13" x1="1390.1" y1="904.5" x2="1818.2" y2="904.5"/>
	<line id="Ligne_564" class="st13" x1="956.4" y1="1364.8" x2="1818.2" y2="1364.8"/>
	<line id="Ligne_562" class="st13" x1="956.4" y1="1180.7" x2="1818.2" y2="1180.7"/>
	<line id="Ligne_565" class="st13" x1="956.4" y1="1456.9" x2="1818.2" y2="1456.9"/>
	<line id="Ligne_565_1_" class="st13" x1="956.4" y1="1548.9" x2="1818.2" y2="1548.9"/>
	<line id="Ligne_563" class="st13" x1="956.4" y1="1272.7" x2="1818.2" y2="1272.7"/>
	<g>
		<rect x="964" y="556" class="st14" width="340" height="375"/>
		<rect x="963.9" y="556.4" class="st15" width="340.2" height="374.2"/>
	</g>
	<g class="st16">
		<path class="st17" d="M1380.8,622.3c0-14.2,12.5-26.2,27.2-26.2c7.9,0,15.1,3.4,20.1,8.7l-9.2,8.2c-2.7-3.3-6.6-5.5-10.9-5.5
			c-7.7,0-14.3,6.8-14.3,14.7c0,8,6.6,14.8,14.3,14.8c4.3,0,8.3-2.1,11-5.5l9.1,8.1c-5,5.4-12.2,8.8-20.1,8.8
			C1393.2,648.5,1380.8,636.5,1380.8,622.3z"/>
		<path class="st17" d="M1432.3,625.4V597h12.6v27.9c0,7.2,4.6,12.2,10.9,12.2c6.4,0,11-5.1,11-12.2V597h12.5v28.5
			c0,13.6-9.7,23.1-23.5,23.1C1442.1,648.5,1432.3,639,1432.3,625.4z"/>
		<path class="st17" d="M1516.7,647.6l-11.1-15.8h-6.2v15.8h-12.6V597h23.5c11.1,0,19.2,7.2,19.2,17.4c0,7.4-4.2,13.2-10.8,15.8
			l12.2,17.4H1516.7z M1499.4,620.3h9.7c4.3,0,7.4-2.4,7.4-5.9c0-3.5-3.1-5.9-7.4-5.9h-9.7V620.3z"/>
		<path class="st17" d="M1536.1,597h12.6v50.6h-12.6V597z"/>
		<path class="st17" d="M1554.6,622.3c0-14.2,12.5-26.2,27.2-26.2c7.9,0,15.1,3.4,20.1,8.7l-9.2,8.2c-2.7-3.3-6.6-5.5-10.9-5.5
			c-7.7,0-14.3,6.8-14.3,14.7c0,8,6.6,14.8,14.3,14.8c4.3,0,8.3-2.1,11-5.5l9.1,8.1c-5,5.4-12.2,8.8-20.1,8.8
			C1567.1,648.5,1554.6,636.5,1554.6,622.3z"/>
		<path class="st17" d="M1606.2,625.4V597h12.6v27.9c0,7.2,4.6,12.2,10.9,12.2c6.4,0,11-5.1,11-12.2V597h12.5v28.5
			c0,13.6-9.7,23.1-23.5,23.1C1616,648.5,1606.2,639,1606.2,625.4z"/>
		<path class="st17" d="M1697.5,636.4v11.3h-36.9V597h12.5v39.4H1697.5z"/>
		<path class="st17" d="M1702.1,625.4V597h12.6v27.9c0,7.2,4.6,12.2,10.9,12.2c6.4,0,11-5.1,11-12.2V597h12.5v28.5
			c0,13.6-9.7,23.1-23.5,23.1C1711.8,648.5,1702.1,639,1702.1,625.4z"/>
		<path class="st17" d="M1756.8,597h12.6l14.6,26.4l14.6-26.4h12.6v50.6h-12.6v-29.3l-14.6,26.4l-14.6-26.4v29.3h-12.6V597z"/>
	</g>
</g>
</svg>
