<?xml version="1.0" encoding="utf-8"?>
<!-- Generator: Adobe Illustrator 25.2.1, SVG Export Plug-In . SVG Version: 6.00 Build 0)  -->
<svg version="1.1" id="Calque_1" xmlns="http://www.w3.org/2000/svg" xmlns:xlink="http://www.w3.org/1999/xlink" x="0px" y="0px"
	 viewBox="0 0 2949 2443" style="enable-background:new 0 0 2949 2443;" xml:space="preserve">
<style type="text/css">
	.st0{fill:#D9D9D9;}
	.st1{fill:#ECF4FD;}
	.st2{fill:#FFFFFF;}
	.st3{fill:#5D5D5D;}
	.st4{fill:#CDE5F7;}
	.st5{fill:#E08A81;}
	.st6{fill:#FDFDFD;}
	.st7{fill:#8DB32B;}
	.st8{fill:#F0BA39;}
	.st9{fill:none;stroke:#707070;stroke-width:17;}
	.st10{fill:#CFE3F9;}
	.st11{fill:#47C347;stroke:#707070;stroke-width:9;}
	.st12{fill:#EFC94F;stroke:#707070;stroke-width:9;}
	.st13{fill:none;stroke:#707070;stroke-width:10;stroke-linecap:round;}
	.st14{fill:#E89F94;}
	.st15{fill:none;stroke:#707070;stroke-width:11;stroke-linejoin:round;}
</style>
<g id="Groupe_1807" transform="translate(-71.719 -96.072)">
	<path id="Tracé_1233" class="st3" d="M649.5,1862.5V610.9c12.7-28.8,35.8-51.9,64.6-64.6h1675.4c32.5,10.6,58,36.1,68.6,68.6
		v1247.5c-14.3,30.6-35.8,53.7-68.6,64.6H714.1C685.3,1914.3,662.3,1891.3,649.5,1862.5z M1553.6,839c-286.6,0-573.1-0.1-859.7-0.4
		c-17.8,0-23.6,3.7-23.5,22.8c0.7,319.5,0.8,639.1,0.5,958.6c0,61.8,23.6,85.7,85,85.7c532.1,0,1064.2,0,1596.3,0
		c60.4,0,84.6-24,84.6-84c0-319.5,0.2-639.1,0.5-958.6c0-19.1-4-24.6-23.9-24.6C2126.8,839.2,1840.2,839.4,1553.6,839z
		 M1552.9,817.1c288,0,575.9,0.1,863.9,0.3c14.9,0,20.9-2.5,20.5-19.4c-1.2-51.1-0.2-102.3-0.5-153.4c-0.3-50.4-26.9-76.9-77.6-76.9
		c-536.9-0.1-1073.8-0.1-1610.7,0c-50.7,0-77.3,26.4-77.6,76.9c-0.3,49.1,0.9,98.3-0.5,147.3c-0.5,19.4,3.3,25.7,24.6,25.7
		C981,816.8,1266.9,817.1,1552.9,817.1z"/>
	<path id="Tracé_1238" class="st2" d="M1553.6,839c286.6,0,573.1-0.2,859.7-0.5c19.9-0.1,24,5.5,23.9,24.6
		c-0.6,319.5-0.8,639.1-0.5,958.6c0,60-24.2,84-84.6,84c-532.1,0-1064.2,0-1596.3,0c-61.4,0-85-23.8-85-85.7
		c0-319.5-0.2-639.1-0.5-958.6c0-19.2,5.7-22.9,23.5-22.8C980.5,839.2,1267.1,839.3,1553.6,839z M1145.4,1663.1
		c169.6-0.1,307-137.7,306.9-307.3c-0.1-169.6-137.7-307-307.3-306.9c-169.3,0.1-306.5,137.2-306.9,306.5
		C838.1,1525.2,975.6,1662.8,1145.4,1663.1L1145.4,1663.1z M1937.4,1529h-326.9c-5.4,0-10.8-0.2-16.1,0.2
		c-6.5,0.5-12.2,2.5-12.4,10.4c-0.2,8.8,5.8,11.3,13.3,11.6c4,0.2,8.1,0.1,12.1,0.1h657.9c3.4,0,6.7-0.1,10.1,0
		c7.5,0.1,13.6-2,14.2-10.6c0.6-9-5.7-11.2-13.1-11.5c-4.7-0.2-9.4-0.1-14.1-0.1H1937.4z M1935.3,1640.7h-324.9
		c-5.4,0-10.8-0.2-16.1,0.1c-6.7,0.4-11.9,3.1-12.3,10.6c-0.4,7.8,4.7,10.6,11.4,11.3c4.7,0.4,9.4,0.5,14.1,0.3
		c219.3,0,438.6,0,657.9,0c4,0,8.1,0.2,12.1-0.2c6.5-0.5,12.1-2.7,12.1-10.5c0-8.6-5.5-11.5-13.2-11.7c-4.7-0.1-9.4-0.1-14.1-0.1
		H1935.3z M1935.2,1326.7c108.9,0,217.8,0,326.8,0c6,0,12.1,0,18.1-0.5c5.1,0.2,9.4-3.8,9.6-8.9c0-0.6,0-1.1-0.1-1.7
		c0.2-5.5-4.1-10.1-9.6-10.2c-0.2,0-0.4,0-0.6,0c-4.7-0.2-9.4-0.2-14.1-0.2h-659.6c-3.4,0-6.7,0.1-10.1,0
		c-7.6-0.1-13.6,2.3-13.5,11.1c0.2,9.2,7.2,10.2,14.3,10.3c5.4,0.1,10.8,0.1,16.1,0.1L1935.2,1326.7z M1933.3,1438.7h328.8
		c4.7,0,9.4-0.1,14.1,0c7.8,0.2,13.4-2.6,13.3-11.2c-0.1-7.8-5.7-9.9-12.4-10c-4,0-8.1,0-12.1,0h-657.5c-4,0-8.1,0-12.1,0
		c-7.4,0.2-13.9,1.9-13.3,11.1c0.5,8.8,7.1,10.3,14.4,10.1c4.7-0.1,9.4,0,14.1,0L1933.3,1438.7z M1708,1118
		c0-12.6-0.6-23.1,0.2-33.5c0.8-10.4-2.4-14.2-13.3-13.7c-9.8,0.4-16.2,0.5-15.8,13.6c0.9,32.9,1,65.9,0,98.8
		c-0.4,13.2,5.9,13.1,15.7,13.5c10.7,0.4,14-2.9,13.6-13.6c-0.5-11.9-3.7-25.3,11-33.9c7.2,12.3,14.9,24,21.2,36.5
		c9,17.8,23,8.8,38,9.8c-12.4-20.9-22.9-39.5-34.3-57.6c-5.2-6.4-4.7-15.6,1.1-21.4c11-13.9,20.7-28.9,30.7-43.1
		C1733.6,1058.4,1731.9,1101.9,1708,1118z M1621,1196.4c3,0.1,6.1-0.2,9.1-0.8c17.1-4.4,31.7-11.4,33.6-32
		c1.9-20.8-10.2-30.5-27.7-36.3c-7.6-2.5-15.2-5.3-22.6-8.2c-7.2-2.9-14.9-7-10.7-16c4.1-8.7,12.6-8.5,21-5.2
		c5.4,2.5,9.6,7.1,11.6,12.7c5,10.3,15.9,5.8,23.1,4.3c9.4-2,4.7-10.9,2.8-16.6c-7.6-22.7-38.3-33.5-64.9-23.3
		c-12.6,3.6-21.8,14.6-23.1,27.6c-2.4,13.8,4.7,27.4,17.3,33.4c10.1,5.2,21.2,8.2,31.6,12.9c6.3,2.8,16.1,4.8,11.9,15
		c-3.8,9-12.2,9.1-20.7,6.6c-6.6-1.8-11.9-6.6-14.2-12.9c-4.9-11.3-15.7-5.9-22.8-4.6c-9.9,1.9-4.8,10.8-3.1,16.6
		C1578.1,1186.4,1595.2,1196.3,1621,1196.4L1621,1196.4z M2071.8,1196.3c8.6,0,12,0.4,15.4-0.1c21-2.8,34.4-14.4,36.5-31.5
		c2.8-21.8-9.9-31.8-28.3-37.7c-7.6-2.5-15.2-5.3-22.6-8.3c-6.5-2.6-13.2-6.3-10.3-14.6c2.9-8.3,10.3-9.5,18.3-7.2
		c6.6,1.5,12,6.2,14.3,12.6c5,11.8,16.8,7,24.2,5.2c8.1-2,3.9-11.2,1.7-17.2c-7.4-20-33.5-31.2-57.7-24.8
		c-15.9,4.2-28.3,12.3-30,30.8c-1.7,18.2,8.1,29.1,23.3,36c9.7,4.4,20,7.6,30,11.5c5.3,2.1,9.8,5.1,8.1,11.9
		c-1.5,5.4-6.6,9.1-12.2,8.7c-9.1,0.2-18.4-1.7-21.7-11.2c-5.3-14.9-18.2-9.9-24.9-7c-11,4.8-3.6,15.8,0.1,22.5
		C2043.5,1188.4,2057.1,1196.2,2071.8,1196.3z M1861.4,1122.7c0-13.5-0.7-26.9,0.2-40.4c0.7-11.2-5.3-11.6-13.6-11.3
		c-8.1,0.3-15.8-1.5-15.5,11.6c0.8,34.3,0.6,68.6,0.1,102.9c-0.1,9.5,4,11,12,10.9c20.8-0.4,41.7-0.5,62.6,0
		c9.1,0.2,13.2-1.9,13.1-12.1c-0.1-9.8-3.4-12.2-12.8-12.6c-15.1-0.6-35.7,7.6-43.8-3.9C1856.3,1157.5,1861.6,1138.1,1861.4,1122.7
		L1861.4,1122.7z M1933.6,1131.8h1.2c0,20.7-8.2,48.7,2.1,60.3c11.9,13.4,40.4,2.9,61.6,4.3c2.7,0.2,5.4-0.2,8.1,0.1
		c9.5,1,14.6-1,14.6-12.7c0.1-13-7.3-11.8-15.6-11.7c-9.4,0.2-18.9-0.8-28.2,0.2c-13,1.5-15.9-3.9-15.4-15.9
		c0.9-22.8,0-45.7,0.4-68.6c0.2-10.3,0.4-17.4-14.2-17.2c-13.7,0.2-15.4,5.6-14.8,16.8C1934.2,1102.1,1933.6,1117,1933.6,1131.8
		L1933.6,1131.8z M1788.3,1132.6c0,16.8,0.8,33.6-0.3,50.3c-0.9,12.7,5.1,13.7,15.4,13.8s14.1-2.3,13.9-13.3
		c-0.7-32.9-0.5-65.8-0.1-98.7c0.1-9.9-1.9-14.6-13.2-13.9c-9.5,0.6-16.9,0-16,13.4C1789.1,1100.3,1788.3,1116.4,1788.3,1132.6
		L1788.3,1132.6z"/>
	<path id="Tracé_1239" class="st4" d="M1552.9,817.1c-285.9,0-571.9-0.3-857.8,0.6c-21.4,0.1-25.2-6.2-24.6-25.7
		c1.4-49.1,0.2-98.2,0.5-147.3c0.3-50.5,26.8-76.9,77.6-76.9c536.9-0.1,1073.8-0.1,1610.7,0c50.8,0,77.3,26.4,77.6,76.9
		c0.3,51.1-0.7,102.3,0.5,153.4c0.4,16.9-5.6,19.4-20.5,19.4C2128.8,817,1840.8,816.9,1552.9,817.1z M816.9,646.3
		c-29.6-0.1-53.8,23.8-54.1,53.4c0.1,30.2,24.7,54.6,54.9,54.6c0.2,0,0.3,0,0.5,0c29.6-0.1,53.6-24.2,53.6-53.8
		c0.7-29.2-22.4-53.5-51.7-54.2C819,646.3,818,646.3,816.9,646.3z M1163.2,646.3c-29.9-1.6-55.3,21.4-56.9,51.2c0,0.5,0,0.9-0.1,1.4
		c-0.3,29.6,23,54.1,52.6,55.3c29.6,1.4,54.8-21.4,56.2-51c2.3-29.1-19.4-54.5-48.5-56.8C1165.5,646.4,1164.3,646.4,1163.2,646.3
		L1163.2,646.3z M988.7,646.3c-29-0.4-52.9,22.8-53.3,51.8c0,0.6,0,1.1,0,1.7c-0.5,29.6,23,54,52.6,54.6c0.7,0,1.4,0,2.1,0
		c29.6-0.5,53.5-24.3,54-53.9c0.1-29.9-24.1-54.1-54-54.2C989.7,646.3,989.2,646.3,988.7,646.3L988.7,646.3z"/>
	<path id="Tracé_1240" class="st3" d="M1145.4,1663.1c-169.6-0.2-306.9-137.8-306.8-307.3s137.8-306.9,307.3-306.8
		c169.6,0.2,306.9,137.8,306.8,307.3c0,0.2,0,0.5,0,0.7c-0.2,169.2-137.5,306.2-306.7,306
		C1145.8,1663.1,1145.6,1663.1,1145.4,1663.1z M1133.8,1127.6h0.2c0-14.1-0.5-28.3,0.2-42.4c0.5-10.3-2.2-13.7-13.6-12.7
		c-157.1,13.8-273.2,152.4-259.4,309.5c1.7,19.1,5.3,38,10.7,56.3c57.4,193.4,299.7,266.7,454.5,137.8c12.4-10.3,13.1-16.4,0.8-27
		c-17.3-15-33.7-31-49.2-47.8c-10.6-11.4-17.3-13.7-32.2-3.3c-60.9,42.3-126,45.4-189.7,7.9c-60.8-35.8-90.5-91.9-84.8-162.4
		c6-75.6,47.9-125.9,118.7-153.3c14.5-5.6,36.3,1.5,42.8-14.7C1138.2,1161.6,1133.8,1143.7,1133.8,1127.6L1133.8,1127.6z
		 M1143.1,1508.2c84.2,1.2,153.5-65.8,155-150c1.9-81-66.8-152.9-146.9-153.9c-87.7-1.1-157.4,63.9-158.6,147.8
		c-2.4,83.8,63.6,153.6,147.3,156C1141,1508.2,1142,1508.2,1143.1,1508.2L1143.1,1508.2z M1430,1356.3
		c0.4-72.7-27.4-142.7-77.5-195.3c-7.6-8.2-12.1-9.5-19.9-0.1c-17.1,20.7-34.8,40.9-53.4,60.4c-8.4,8.8-7.8,13.8-0.3,23.1
		c52.6,66,55.4,145.5,7.2,214.2c-7.3,10.5-5.5,15.4,2.7,23c18.8,17.3,37.4,34.8,54.9,53.4c10,10.6,15.9,9.9,24.6-1.5
		C1408.5,1483.2,1430.3,1420.7,1430,1356.3L1430,1356.3z M1156.6,1125.9c0,14.1,0.4,28.2-0.1,42.3c-0.3,9.6,2.4,14.9,13,15.8
		c25.5,2.3,50,11.4,70.8,26.4c10.6,7.5,15.7,4.6,22.8-3.8c16.8-20,33.8-40.1,52.1-58.7c10.8-11,6.2-15.7-3.5-22.5
		c-34.1-25.3-73.8-42-115.7-48.7c-47.2-6.7-38.4-13.5-39.4,33.2C1156.5,1115.1,1156.6,1120.5,1156.6,1125.9z"/>
	<path id="Tracé_1241" class="st3" d="M1937.4,1529h324.9c4.7,0,9.4-0.1,14.1,0.1c7.4,0.3,13.7,2.6,13.1,11.5
		c-0.6,8.6-6.7,10.7-14.2,10.6c-3.4-0.1-6.7,0-10.1,0h-657.9c-4,0-8.1,0.1-12.1-0.1c-7.5-0.3-13.4-2.8-13.3-11.6
		c0.1-7.9,5.9-9.9,12.4-10.4c5.4-0.4,10.8-0.2,16.1-0.2H1937.4z"/>
	<path id="Tracé_1242" class="st3" d="M1935.3,1640.6h327c4.7,0,9.4,0,14.1,0.1c7.7,0.1,13.2,3.1,13.2,11.7c0,7.9-5.6,10-12.1,10.5
		c-4,0.3-8.1,0.2-12.1,0.2c-219.3,0-438.6,0-657.9,0c-4.7,0.1-9.4,0-14.1-0.3c-6.6-0.7-11.8-3.6-11.4-11.3
		c0.4-7.5,5.6-10.2,12.3-10.6c5.4-0.3,10.8-0.1,16.1-0.1L1935.3,1640.6z"/>
	<path id="Tracé_1243" class="st3" d="M1935.2,1326.7h-322.7c-5.4,0-10.8,0.1-16.1-0.1c-7.1-0.2-14.1-1.2-14.3-10.3
		c-0.1-8.8,5.9-11.2,13.5-11.1c3.4,0,6.7,0,10.1,0h659.6c4.7,0,9.4,0,14.1,0.2c5.5-0.2,10.1,4.1,10.3,9.6c0,0.2,0,0.4,0,0.6
		c0.7,5.1-2.8,9.8-7.8,10.5c-0.6,0.1-1.1,0.1-1.7,0.1c-6,0.4-12.1,0.5-18.1,0.5C2153,1326.7,2044.1,1326.7,1935.2,1326.7z"/>
	<path id="Tracé_1244" class="st3" d="M1933.3,1438.7h-322.7c-4.7,0-9.4-0.1-14.1,0c-7.4,0.2-13.9-1.3-14.4-10.1
		c-0.6-9.2,6-10.9,13.3-11.1c4-0.1,8.1,0,12.1,0H2265c4,0,8.1,0,12.1,0c6.7,0.1,12.3,2.2,12.4,10c0.1,8.7-5.5,11.4-13.3,11.2
		c-4.7-0.1-9.4,0-14.1,0L1933.3,1438.7z"/>
	<path id="Tracé_1245" class="st3" d="M1708,1118c23.9-16.1,25.7-59.6,68-44.6c-10,14.2-19.7,29.2-30.7,43.1
		c-5.8,5.8-6.3,15.1-1.1,21.4c11.3,18.1,21.9,36.6,34.3,57.6c-15-1-29,8-38-9.8c-6.3-12.5-14-24.2-21.2-36.5
		c-14.7,8.6-11.5,22-11,33.9c0.4,10.6-2.9,14-13.6,13.6c-9.8-0.4-16.1-0.3-15.7-13.5c1-32.9,0.9-65.9,0-98.8
		c-0.4-13.1,6-13.1,15.8-13.6c10.9-0.5,14.1,3.4,13.3,13.7C1707.3,1094.9,1708,1105.4,1708,1118z"/>
	<path id="Tracé_1246" class="st3" d="M1621,1196.4c-25.8,0-43-10-47.9-26.9c-1.7-5.8-6.8-14.7,3.1-16.6c7.1-1.3,17.9-6.8,22.8,4.6
		c2.4,6.4,7.7,11.2,14.2,12.9c8.5,2.5,17,2.4,20.7-6.6c4.2-10.2-5.5-12.2-11.9-15c-10.4-4.6-21.5-7.7-31.6-12.9
		c-12.6-6-19.7-19.7-17.3-33.4c1.3-13.1,10.4-24,23.1-27.6c26.6-10.2,57.3,0.6,64.9,23.3c1.9,5.7,6.7,14.6-2.8,16.6
		c-7.2,1.5-18.1,6-23.1-4.3c-2-5.7-6.2-10.2-11.6-12.7c-8.4-3.3-16.9-3.5-21,5.2c-4.2,9,3.5,13.2,10.7,16c7.4,3,15,5.7,22.6,8.2
		c17.6,5.8,29.6,15.5,27.7,36.3c-1.9,20.6-16.5,27.7-33.6,32C1627.1,1196.2,1624,1196.4,1621,1196.4z"/>
	<path id="Tracé_1247" class="st3" d="M2071.8,1196.3c-14.7-0.1-28.4-7.9-35.9-20.6c-3.7-6.6-11.1-17.7-0.1-22.5
		c6.7-2.9,19.6-7.9,24.9,7c3.4,9.5,12.7,11.4,21.7,11.2c5.6,0.3,10.7-3.3,12.2-8.7c1.8-6.8-2.7-9.8-8.1-11.9
		c-10-3.9-20.3-7.1-30-11.5c-15.3-6.9-25-17.9-23.3-36c1.7-18.4,14.1-26.5,30-30.8c24.2-6.4,50.4,4.9,57.7,24.8
		c2.2,6,6.4,15.1-1.7,17.2c-7.4,1.9-19.2,6.6-24.2-5.2c-2.4-6.3-7.8-11-14.3-12.6c-8-2.3-15.4-1.1-18.3,7.2
		c-2.9,8.3,3.8,12,10.3,14.6c7.4,3,15,5.8,22.6,8.3c18.4,5.9,31.1,16,28.3,37.7c-2.2,17.1-15.5,28.7-36.5,31.5
		C2083.9,1196.7,2080.4,1196.3,2071.8,1196.3z"/>
	<path id="Tracé_1248" class="st3" d="M1861.4,1122.7c0.2,15.4-5.1,34.8,2.2,45.2c8.1,11.5,28.7,3.3,43.8,3.9
		c9.4,0.4,12.8,2.8,12.8,12.6c0.1,10.3-4,12.4-13.1,12.1c-20.8-0.5-41.7-0.4-62.6,0c-8.1,0.1-12.2-1.4-12-10.9
		c0.5-34.3,0.7-68.6-0.1-102.9c-0.3-13.1,7.4-11.3,15.5-11.6c8.3-0.3,14.3,0.1,13.6,11.3C1860.7,1095.7,1861.4,1109.2,1861.4,1122.7
		z"/>
	<path id="Tracé_1249" class="st3" d="M1933.6,1131.8c0-14.8,0.6-29.6-0.2-44.4c-0.6-11.2,1.2-16.6,14.8-16.8
		c14.6-0.2,14.4,6.9,14.2,17.2c-0.4,22.9,0.5,45.8-0.4,68.6c-0.5,12.1,2.4,17.4,15.4,15.9c9.3-1.1,18.8-0.1,28.2-0.2
		c8.3-0.1,15.7-1.3,15.6,11.7c-0.1,11.7-5.1,13.6-14.6,12.7c-2.7-0.3-5.4,0.1-8.1-0.1c-21.2-1.3-49.7,9.1-61.6-4.3
		c-10.3-11.6-2.1-39.6-2.1-60.3L1933.6,1131.8z"/>
	<path id="Tracé_1250" class="st3" d="M1788.3,1132.6c0-16.1,0.9-32.3-0.3-48.3c-0.9-13.4,6.5-12.8,16-13.4
		c11.2-0.7,13.3,4,13.2,13.9c-0.5,32.9-0.6,65.8,0.1,98.7c0.2,11-3.7,13.4-13.9,13.3c-10.2-0.1-16.2-1.1-15.4-13.8
		C1789.1,1166.2,1788.3,1149.3,1788.3,1132.6z"/>
	<path id="Tracé_1251" class="st3" d="M816.9,646.3c29.2-1.1,53.8,21.7,54.8,50.9c0,1.1,0,2.1,0,3.2c0,29.6-23.9,53.7-53.6,53.8
		c-30.2,0.3-55-23.9-55.3-54.1c0-0.2,0-0.3,0-0.5C763.1,670.1,787.3,646.3,816.9,646.3z M817.2,667.9c-17.6,0.3-31.6,14.9-31.2,32.4
		c0,0.1,0,0.1,0,0.2c-0.2,17.2,13.6,31.3,30.8,31.6c0.4,0,0.8,0,1.2,0c17.6-0.3,31.7-14.7,31.7-32.3
		C849.1,682.2,834.8,668.1,817.2,667.9L817.2,667.9z"/>
	<path id="Tracé_1252" class="st3" d="M1163.2,646.3c29.2,0.4,52.5,24.5,52,53.6c0,1.1-0.1,2.2-0.2,3.3
		c-1.5,29.6-26.6,52.4-56.2,51c-29.6-1.2-52.9-25.7-52.6-55.3c0.8-29.9,25.7-53.5,55.5-52.7C1162.3,646.3,1162.8,646.3,1163.2,646.3
		z M1193.5,699.2c-1.2-17.5-15.7-31.2-33.3-31.3c-17.6,0.7-31.4,15.5-30.8,33.1c0,0,0,0.1,0,0.1c0.2,17.3,14.3,31.2,31.6,31
		c0.4,0,0.7,0,1.1,0C1179.7,731.3,1193.6,716.8,1193.5,699.2L1193.5,699.2z"/>
	<path id="Tracé_1253" class="st3" d="M988.7,646.3c29.9-0.7,54.6,22.9,55.3,52.8c0,0.5,0,0.9,0,1.4c-0.6,29.6-24.4,53.4-54,53.9
		c-29.6,0.6-54.1-22.8-54.7-52.4c0-0.7,0-1.4,0-2.1c-0.5-29,22.6-53,51.6-53.5C987.6,646.3,988.1,646.3,988.7,646.3z M989.7,668
		c-17.4,0.5-31.6,14.3-32.6,31.7c0.3,17.5,14.3,31.6,31.8,32.2c17.4,0.3,31.7-13.5,32-30.9c0-0.2,0-0.4,0-0.5
		C1021.1,683,1007.3,668.6,989.7,668L989.7,668z"/>
	<path id="Tracé_1254" class="st5" d="M1133.8,1127.6c0,16.1,4.4,34.1-1.2,48c-6.5,16.2-28.3,9.1-42.8,14.7
		c-70.8,27.4-112.6,77.6-118.7,153.3c-5.6,70.5,24.1,126.6,84.8,162.4c63.7,37.5,128.8,34.4,189.7-7.9c14.9-10.4,21.6-8.1,32.2,3.3
		c15.5,16.8,32,32.8,49.2,47.8c12.3,10.6,11.5,16.6-0.8,27c-154.7,128.9-397.1,55.6-454.5-137.8c-44.9-151.2,41.2-310.1,192.3-355
		c18.4-5.5,37.2-9.1,56.3-10.7c11.3-1,14,2.4,13.6,12.7c-0.6,14.1-0.2,28.3-0.2,42.4L1133.8,1127.6z"/>
	<path id="Tracé_1255" class="st6" d="M1143,1508.2c-83.8-0.7-151.2-69.1-150.5-152.9c0-1,0-2.1,0.1-3.1
		c1.2-83.9,70.9-148.9,158.6-147.8c80.1,1,148.8,72.9,146.9,153.9C1296.5,1442.4,1227.2,1509.5,1143,1508.2z"/>
	<path id="Tracé_1256" class="st7" d="M1430,1356.3c0.2,64.4-21.5,126.9-61.7,177.2c-8.7,11.3-14.6,12.1-24.6,1.5
		c-17.5-18.5-36.1-36.1-54.9-53.4c-8.2-7.6-10.1-12.5-2.7-23c48.1-68.7,45.4-148.2-7.2-214.2c-7.4-9.3-8.1-14.4,0.3-23.1
		c18.5-19.4,36.2-39.7,53.4-60.4c7.8-9.4,12.3-8.1,19.9,0.1C1402.6,1213.7,1430.4,1283.7,1430,1356.3z"/>
	<path id="Tracé_1257" class="st8" d="M1156.6,1125.9c0-5.4-0.1-10.7,0-16.1c1-46.8-7.8-40,39.4-33.2
		c41.9,6.7,81.6,23.5,115.7,48.7c9.7,6.9,14.3,11.6,3.5,22.5c-18.4,18.6-35.3,38.7-52.1,58.7c-7.1,8.4-12.2,11.4-22.8,3.8
		c-20.8-15-45.3-24.1-70.8-26.4c-10.7-1-13.4-6.2-13-15.8C1156.9,1154.1,1156.6,1140,1156.6,1125.9z"/>
	<path id="Tracé_1258" class="st5" d="M817.2,667.9c17.6,0.3,31.8,14.3,32.4,31.9c0,17.6-14.1,32-31.7,32.3
		c-17.2,0.4-31.5-13.2-32-30.4c0-0.4,0-0.8,0-1.2c-0.4-17.6,13.5-32.2,31-32.6C817.1,667.9,817.2,667.9,817.2,667.9z"/>
	<path id="Tracé_1259" class="st8" d="M1193.5,699.2c0.1,17.6-13.8,32.1-31.4,32.9c-17.3,0.8-31.9-12.6-32.6-29.9
		c0-0.4,0-0.7,0-1.1c-0.7-17.6,13-32.5,30.7-33.2c0,0,0.1,0,0.1,0C1177.8,668,1192.3,681.6,1193.5,699.2z"/>
	<path id="Tracé_1260" class="st7" d="M989.7,668c17.5,0.5,31.4,15,31.2,32.5c0,17.4-14.1,31.4-31.5,31.4c-0.2,0-0.4,0-0.5,0
		c-17.5-0.5-31.5-14.7-31.8-32.2C958.2,682.4,972.3,668.6,989.7,668z"/>
</g>
</svg>
