<?xml version="1.0" encoding="utf-8"?>
<!-- Generator: Adobe Illustrator 25.2.1, SVG Export Plug-In . SVG Version: 6.00 Build 0)  -->
<svg version="1.1" id="Calque_1" xmlns="http://www.w3.org/2000/svg" xmlns:xlink="http://www.w3.org/1999/xlink" x="0px" y="0px"
	 viewBox="0 0 511 511" style="enable-background:new 0 0 511 511;" xml:space="preserve">
<style type="text/css">
	.st0{fill:#FFCDAC;}
	.st1{fill:#6BD5E1;}
	.st2{fill:#FFB677;}
	.st3{fill:#FF8364;}
	.st4{fill:#FFD98E;}
</style>
<g>
	<path class="st0" d="M389.7,333.3l60.3-59.6c22.5-22.5,65.8,5.9,42.4,33.4l-73,85.9c-2.9,3.4-6.1,6.3-9.8,8.9
		c-11.8,7.5-25.8,10-39.6,10H261.7c-7.8,0-15.7,0.5-23.4,1.4l-31.2,3.5L142.5,354c0,0,36.7-69.2,108.6-49.3
		c13.4,3.7,27.4,5.5,41.3,5.5h71.2c33.5,0,33.8,53.2-0.3,53.2h-62"/>
	<path class="st1" d="M164.7,498.2l61.5-63.1c0,0,0,0,0-0.1L121.9,333.9c0,0,0,0-0.1,0l-62,64.4L164.7,498.2z"/>
	<path class="st2" d="M133.5,145.8C114,147.6,98.8,164,98.8,184v40.9c0,7.1,5.7,12.8,12.8,12.8h87.7c7.1,0,12.8-5.7,12.8-12.8V184
		c0-20-15.3-36.4-34.8-38.2"/>
	<path class="st0" d="M198.3,108.7c0,23.7-19.2,42.9-42.9,42.9s-42.9-19.2-42.9-42.9s19.2-42.9,42.9-42.9S198.3,85,198.3,108.7z"/>
	<path class="st3" d="M246.7,145.8C227.3,147.6,212,164,212,184v40.9c0,7.1,5.7,12.8,12.8,12.8h87.7c7.1,0,12.8-5.7,12.8-12.8V184
		c0-20-15.3-36.4-34.8-38.2"/>
	<path class="st0" d="M311.5,108.7c0,23.7-19.2,42.9-42.9,42.9s-42.9-19.2-42.9-42.9s19.2-42.9,42.9-42.9S311.5,85,311.5,108.7z"/>
	<path class="st4" d="M360,145.8c-19.5,1.8-34.7,18.3-34.7,38.2v40.9c0,7.1,5.7,12.8,12.8,12.8h87.7c7.1,0,12.8-5.7,12.8-12.8V184
		c0-20-15.3-36.4-34.8-38.2"/>
	<path class="st0" d="M424.8,108.7c0,23.7-19.2,42.9-42.9,42.9S339,132.4,339,108.7s19.2-42.9,42.9-42.9S424.8,85,424.8,108.7z"/>
</g>
<g>
	<path d="M486.3,250.2c-6.8-6.3-16.2-10.2-25.6-10.7c-10.7-0.6-20.7,3.3-28.1,10.7l-50.9,50.3c-1-1.7-2.2-3.4-3.4-4.9
		c-6.3-7.4-15.4-11.5-25.8-11.5h-71.2c-13.4,0-26.5-1.7-38.9-5.2c-32.3-8.9-63.2-2.4-89.3,18.9c-10.6,8.7-18.4,18.1-23.3,25
		l-12.8-12.4c-1.7-1.6-4-2.6-6.3-2.6c0,0,0,0-0.1,0c-2.4,0-4.8,1-6.5,2.8l-62,64.4c-1.7,1.7-2.6,4-2.5,6.4c0.1,2.4,1.1,4.7,2.8,6.3
		l104.9,99.9c1.7,1.7,4,2.5,6.2,2.5c2.3,0,4.7-0.9,6.4-2.7l61.5-63.1c1.7-1.7,2.6-4.1,2.6-6.5c0-2.4-1-4.7-2.7-6.3l-5.4-5.2
		l12.3-1.4c7.4-0.9,14.9-1.3,22.4-1.3H359c17.6,0,32.5-3.8,44.4-11.4c0.1-0.1,0.2-0.1,0.3-0.2c4.3-3,8.1-6.5,11.5-10.4l73-85.9
		C500.7,281.2,499.9,262.8,486.3,250.2z M153.5,468.6l-92-87.6l49.5-51.4l91.4,88.7L153.5,468.6z M474.5,284.2l-73,85.9
		c-2.3,2.7-5,5.1-7.9,7.2c-8.9,5.6-20.6,8.5-34.6,8.5H250.7c-8.1,0-16.4,0.5-24.4,1.4l-26.9,3L143,335.5
		c3.9-5.8,11.1-15.2,21.6-23.7c21.7-17.7,46.3-22.9,73.2-15.5c14,3.9,28.7,5.8,43.7,5.8h71.2c12.8,0,16.2,11.1,16.2,17.6
		c0,4.8-1.5,9.3-4.2,12.5c-2.9,3.4-7,5.1-12.3,5.1h-62c-5,0-9,4-9,9c0,5,4,9,9,9h62c10.5,0,19.7-4.1,26-11.5
		c5.2-6.2,8.2-14.3,8.5-22.9l58.6-58c8.4-8.4,21.4-6.3,28.8,0.5C477.9,267,483,274.3,474.5,284.2z"/>
	<path d="M262.3,344c-1.1-4.8-6-7.8-10.8-6.7c-4.8,1.1-7.8,6-6.7,10.8l0.1,0.4c1,4.1,4.7,6.9,8.8,6.9c0.7,0,1.4-0.1,2.1-0.2
		c4.8-1.1,7.8-6,6.7-10.8L262.3,344z"/>
	<path d="M100.6,229.6h87.7c4.8,0,9.2-1.5,12.8-4.2c3.6,2.6,8,4.2,12.8,4.2h87.7c4.8,0,9.2-1.5,12.8-4.2c3.6,2.6,8,4.2,12.8,4.2
		h87.7c12,0,21.8-9.8,21.8-21.8V167c0-18.4-10.3-34.3-25.7-42.2c7.5-9,11.9-20.5,11.9-33.1c0-28.6-23.3-51.9-51.9-51.9
		S319,63.1,319,91.7c0,12.6,4.5,24.1,11.9,33.1c-6.6,3.4-12.3,8.3-16.7,14.3c-4.3-6-10-10.9-16.7-14.3c7.5-9,11.9-20.5,11.9-33.1
		c0-28.6-23.3-51.9-51.9-51.9s-51.9,23.3-51.9,51.9c0,12.6,4.5,24.1,11.9,33.1c-6.7,3.4-12.3,8.3-16.7,14.3
		c-4.3-6-10-10.9-16.7-14.3c7.5-9,11.9-20.5,11.9-33.1c0-28.6-23.3-51.9-51.9-51.9c-28.6,0-51.9,23.3-51.9,51.9
		c0,12.6,4.5,24.1,11.9,33.1c-15.4,7.9-25.7,23.8-25.7,42.2v40.9C78.8,219.9,88.6,229.6,100.6,229.6z M370.9,57.8
		c18.7,0,33.9,15.2,33.9,33.9c0,18.7-15.2,33.9-33.9,33.9c-18.7,0-33.9-15.2-33.9-33.9C337,73,352.2,57.8,370.9,57.8z M347.5,138
		c7,3.6,15,5.6,23.4,5.6c8.4,0,16.3-2,23.4-5.6c14,2.4,24.3,14.5,24.3,28.9v40.9c0,2.1-1.7,3.8-3.8,3.8H327c-2.1,0-3.8-1.7-3.8-3.8
		V167C323.2,152.5,333.5,140.5,347.5,138z M257.6,57.8c18.7,0,33.9,15.2,33.9,33.9c0,18.7-15.2,33.9-33.9,33.9
		c-18.7,0-33.9-15.2-33.9-33.9S238.9,57.8,257.6,57.8z M234.3,138c7,3.6,15,5.6,23.4,5.6c8.4,0,16.3-2,23.4-5.6
		c14,2.4,24.3,14.5,24.3,28.9v40.9c0,2.1-1.7,3.8-3.8,3.8h-87.7c-2.1,0-3.8-1.7-3.8-3.8V167C210,152.5,220.3,140.5,234.3,138z
		 M144.4,57.8c18.7,0,33.9,15.2,33.9,33.9c0,18.7-15.2,33.9-33.9,33.9s-33.9-15.2-33.9-33.9C110.5,73,125.7,57.8,144.4,57.8z
		 M96.8,167c0-14.5,10.3-26.5,24.3-28.9c7,3.6,15,5.6,23.4,5.6s16.3-2,23.4-5.6c14,2.4,24.3,14.5,24.3,28.9v40.9
		c0,2.1-1.7,3.8-3.8,3.8h-87.7c-2.1,0-3.8-1.7-3.8-3.8V167z"/>
</g>
</svg>
