<?xml version="1.0" encoding="utf-8"?>
<!-- Generator: Adobe Illustrator 25.2.1, SVG Export Plug-In . SVG Version: 6.00 Build 0)  -->
<svg version="1.1" id="Capa_1" xmlns="http://www.w3.org/2000/svg" xmlns:xlink="http://www.w3.org/1999/xlink" x="0px" y="0px"
	 viewBox="0 0 512 512" style="enable-background:new 0 0 512 512;" xml:space="preserve">
<style type="text/css">
	.st0{fill:#FF6F7F;}
	.st1{fill:#5C84D9;}
	.st2{display:none;fill:#4677D4;}
	.st3{fill:#EAEAEA;}
	.st4{display:none;fill:#E2E2E2;}
	.st5{display:none;}
	.st6{display:inline;}
</style>
<g>
	<path class="st0" d="M493.6,472.1l-5.7-16.7c-2.7-7.8-12.6-10.2-18.5-4.4l-9.5,9.2c-1.4,1.4-2.4,3-3,4.9l-4.7,16.2
		c-1,3.4-0.3,7.1,1.8,9.9l6.9,9.3c5.7,7.7,17.8,5.2,20-4.2l0.3-1.4c0.5-2.3,1.8-4.4,3.6-5.9l5.6-4.9
		C493.8,481.2,495.1,476.4,493.6,472.1L493.6,472.1z"/>
	<path class="st1" d="M222.9,103.8l51.7,171.6l-51.7,175.5c-0.3-0.3-0.5-0.4-0.5-0.4c-5-4.5-12.9-2.8-15.6,3.2
		c-2.3,5.1-8.4,7.3-13.4,4.8l-40.9-20.2c-19.1-9.4-23.5-28.7-16.3-43.2c7.2-14.3,12.6-29.6,14.5-45.6c2.1-17.7,0.8-41.7,8.3-57.9
		c5-10.6,3.2-23.2-4.4-32.1L140,242.4c-4.1-4.8-7.3-10.4-9.2-16.5c0-0.1-5.5-20.4-27.1-29.6l-34.8-14.8c-8.5-3.6-10.3-11-11.8-13.2
		c-5.9-11.5,1-25.4,13.6-27.8l27.3-5.2c3.3-0.6,1.6-0.7,46.3,12.8c7.8,2.4,15-5.2,12.2-12.9l-6.7-18.4c-4.2-11.6,9.3-23.6,20.4-18.4
		c0.2,0.1,29.6,13.9,29.6,13.9c8.2,3.8,18,0.6,22.2-7.4C222.2,104.5,222.6,104.1,222.9,103.8L222.9,103.8z"/>
	<path class="st0" d="M475.2,167.9c0,0-2.7,3.2-3.1,8.2l-2.4,30.2c-0.7,8.8-8.2,15.5-17,15.3c-6.7-0.2-12.9,3.7-15.6,9.9l-17.3,38.9
		c-3.2,7.2,2.4,15.2,10.2,14.6c6.6-0.4,12,5.4,11,11.9l-1.2,8.1c-1.1,7.3,4,11.3,5.6,14.2c4.6,6.4,2.6,15.4-4.4,19.1
		c-5.1,2.8-7.8,8.6-6.5,14.3l4.1,18.9c0.7,3.2,2.5,5.9,5.1,7.8l9.3,6.8c8.4,6.1,10,18,3.4,26.1c-8,9.9-16,22.5-29.3,25.5
		c-11.7,2.6-24.9,7.4-36.7,3c0,0-15.4-5.8-26.5-9.9l-39.7-155.5L364,96.7c3.5,2.2,7.8,4.7,13.4,8.1c10.5,6.4,18.3,7,35.5,10.1
		c3.3,0.6,6.4,2.3,8.6,4.8l11.7,12.9c2.1,2.3,4.8,3.9,7.7,4.6l25.7,6.3C477.4,146.3,481.9,159.1,475.2,167.9L475.2,167.9z"/>
	<path class="st2" d="M190,221.5c0-35.6,1.1-73.7,10.5-108.9c-0.3-0.1-0.5-0.2-0.8-0.3c0,0-29.4-13.8-29.6-13.9
		c-11.1-5.2-24.7,6.9-20.4,18.4l6.7,18.4c2.8,7.7-4.3,15.2-12.2,12.9c-44.7-13.5-43-13.4-46.3-12.8l-27.3,5.2
		c-12.7,2.4-19.5,16.3-13.6,27.8c1.4,2.2,3.3,9.6,11.8,13.2l34.8,14.8c21.6,9.2,27.1,29.5,27.1,29.6c2,6,5.1,11.6,9.2,16.5
		l14.6,17.2c7.6,8.9,9.3,21.5,4.4,32.1c-7.5,16.2-6.2,40.2-8.3,57.9c-1.9,16-7.3,31.3-14.5,45.6c-7.3,14.5-2.8,33.8,16.3,43.2
		l40.9,20.2c5,2.5,11.1,0.3,13.4-4.8c2.8-6.1,10.7-7.7,15.6-3.2c0,0,0.2,0.1,0.5,0.4l22.1-74.8C210.6,333.9,190,280.1,190,221.5
		L190,221.5z"/>
	<path class="st3" d="M364,96.7v334.1c-6.2-2.3-11.1-4.1-11.1-4.1c-14.2-5.3-25.8,4-37.5,10.8c-10.1,5.9-15.7,17.3-14.2,28.9
		c1.1,8.3-5.8,15.5-14.1,14.7c-10-0.9-29.6,1-37.4-6c-0.1,0-23.3-21-26.9-24.3V103.8c7.4-7.6,13.4-8,24.6-9.2c9-1,16.1-8,17.2-16.9
		l2.9-23.2c0.6-5,4.8-8.7,9.8-8.7h9.9c15.8,0,33.6,7.4,45,20.1L349,84.8C353.5,89.8,357.3,92.6,364,96.7L364,96.7z"/>
	<path class="st4" d="M222.9,344.1v106.8c3.6,3.2,26.8,24.2,26.9,24.3c7.8,7.1,27.4,5.1,37.4,6c8.3,0.8,15.2-6.4,14.1-14.7
		c-1.5-11.6,4.1-23,14.2-28.9c0.6-0.4,1.3-0.8,1.9-1.2C278.1,414.8,245.3,382.8,222.9,344.1L222.9,344.1z"/>
</g>
<g class="st5">
	<path class="st6" d="M449.5,425.3c-7.4,7.8-12.2,10.1-14.2,17.2l-4.7,16.2c-1.6,5.5-0.5,11.4,2.9,16l6.9,9.3
		c9.3,12.4,28.8,8.3,32.3-6.7c0.3-0.9,0.2-2.4,1.7-3.7l5.6-4.9c5.6-4.9,7.7-12.6,5.2-19.6l-5.7-16.7
		C475.1,419.7,459.1,415.9,449.5,425.3L449.5,425.3z M470.8,458.2l-5.6,4.9c-5.2,4.5-5.9,10.4-6.1,10.9c-0.8,3.6-5.5,4.6-7.7,1.6
		l-6.9-9.3c-0.8-1.1-1.1-2.5-0.7-3.8c5-16.5,4.4-16.7,5.9-18.1l9.5-9.2c2.3-2.2,6.1-1.3,7.1,1.7l5.7,16.7
		C472.6,455.2,472.2,457.1,470.8,458.2z"/>
	<path class="st6" d="M109.2,207.3c5.1,15.7,14,21.8,25.2,36c5.8,6.8,7.2,16.5,3.4,24.7c-8.2,17.6-6.9,42.5-8.9,60
		c-1.6,13.9-6.1,28-13.8,43.3c-9.4,18.8-2.3,41.8,19.4,52.5c40.8,19.6,41.5,21.9,48.3,21.9c6.3,0,12.5-3.6,15.3-9.9
		c0.8-1.8,3.1-2.4,4.7-0.9c2,1.8,26.1,23.6,27.3,24.6l0,0c10.1,9.2,31,6.9,41.4,7.8c12.8,1.2,23.3-9.8,21.6-22.5
		c-1.2-8.9,3.1-17.5,10.8-22c11.3-6.6,20.8-14.3,31.5-10.3l11.1,4.1h0h0c0.8,0.3,25.8,9.7,26.5,9.9l0,0c13.7,5.2,27.7,0.1,40.6-2.7
		c15.8-3.5,24.5-17.1,33.2-27.9c9.1-11.2,6.9-27.6-4.7-36.1l-9.3-6.8c-1.2-0.9-2.1-2.2-2.4-3.7l-4.1-19c-0.6-2.6,0.7-5.4,3.1-6.7
		c10.4-5.7,13.7-19.2,6.9-29c-2-3.4-5.2-5.6-4.6-9.4l1.2-8.1c1.6-11-7.3-20.6-18.3-19.9c-2.6,0.2-4.5-2.5-3.4-4.9l17.3-38.9
		c1.6-3.6,5.2-5.8,9.1-5.8c12.4,0.3,23.1-9.1,24.1-21.7c2.7-30,1.4-31.2,4.1-34.7c9.8-12.8,3.2-31.4-12.4-35.2l-25.7-6.3
		c-4.2-1-4.6-3.6-15.9-15.5c-5.8-6.4-11.9-6.9-19.6-8.2c-19.1-3.4-19.4-3.6-39.4-16c0,0,0,0,0,0c-11.8-6.8-13.6-11.4-30.2-29.5
		c-12.3-13.9-31.5-22.5-50.2-22.5h-9.9c-8.5,0-15.7,6.3-16.7,14.7L242.8,56c-0.7,5.8-5.3,10.3-11.1,10.9
		c-12.2,1.3-19.9,2.1-28.8,11.3c-0.1,0.1-0.4,0.4-0.3,0.3c-0.8,0.8-1.3,1.4-1.8,2.3c-2.5,4.7-8.3,6.7-13.2,4.4
		c0,0-29.2-13.7-29.6-13.9c-16.6-7.8-36.3,9.6-29.9,27.1l6.7,18.4c0.8,2.3-1.3,4.6-3.6,3.9c-45.8-13.8-44.4-14-49.4-13l-27.5,5.2
		c-17.2,3.3-26.5,22.1-18.5,37.8c3.6,7.1,6.6,12.7,15.2,16.4l34.8,14.8C96.8,186.5,105.3,195.7,109.2,207.3L109.2,207.3z
		 M465.4,151.6c-0.4,0.4-0.9,0.9-1.5,1.3C464.5,152.6,465,152.2,465.4,151.6z M108.9,206.2c0,0.2,0.1,0.3,0.1,0.5
		C109,206.6,109,206.4,108.9,206.2z M48.1,144.1c-3.5-7.3,0.8-16.1,8.9-17.6c36.2-6.9,25.7-4.9,27.7-5.3c2.3,0.3,13.5,3.9,42.6,12.7
		c13.3,4,25.4-8.9,20.7-21.9l-6.7-18.4c-2.1-5.7,5.4-12.4,11-9.8c0.2,0.1,29.6,13.9,29.6,13.9c6.3,2.9,13.2,2.9,19.2,0.5v205.4
		c0,3.8,3.1,6.9,6.9,6.9c3.8,0,6.9-3.1,6.9-6.9V86c4.8-4.1,9.3-4.3,18.4-5.3c12.2-1.3,21.9-10.8,23.4-23l2.9-23.2
		c0.2-1.5,1.4-2.6,2.9-2.6h9.9c14.6,0,30.2,7,39.8,17.8c16.8,18.1,17.7,22.1,30,30.1v70.4c0,3.8,3.1,6.9,6.9,6.9
		c3.8,0,6.9-3.1,6.9-6.9v-62c14.8,8.9,18.4,8.6,40.7,12.7c1.8,0.3,3.5,1.3,4.7,2.6l11.7,12.9c3,3.3,6.9,5.6,11.2,6.7l25.7,6.3
		c5.9,1.5,8.4,8.5,4.7,13.3l0,0c-3.2,3.6-4.4,9.8-4.5,11.8l-2.4,30.2c-0.4,5.1-4.7,9.1-9.9,8.9c-9.6-0.2-18.2,5.3-22.1,14
		l-17.3,38.9c-5.3,11.9,4,25.2,17,24.4c2.2-0.1,4,1.8,3.7,4l-1.2,8.1c-1.6,10.4,5.3,16.7,6.4,18.6c0.1,0.2,0.3,0.4,0.4,0.6
		c2.2,3,1.2,7.2-2.1,9c-7.7,4.2-11.9,13.2-10,21.8l4.1,19c1,4.8,3.8,9.1,7.8,12l9.3,6.8c5.2,3.8,6.2,11.1,2.1,16.1
		c-7.5,9.3-14.8,20.7-25.4,23.1c-10.8,2.4-23.2,6.8-32.7,3.2c-0.1,0-21.8-8.2-22-8.2V178c0-3.8-3.1-6.9-6.9-6.9
		c-3.8,0-6.9,3.1-6.9,6.9v222.1l-1.7-0.6c-17-6.4-30.4,3.7-43.4,11.3c-12.6,7.3-19.5,21.4-17.6,35.8c0.5,3.9-2.7,7.3-6.6,6.9
		c-9-0.8-27.9,0.6-33.4-4.3c-0.5-0.4-20.8-18.7-24.6-22.2v-95.7c0-3.8-3.1-6.9-6.9-6.9c-3.8,0-6.9,3.1-6.9,6.9v88.8
		c-6.5,0-12.6,3.6-15.5,9.9c-0.7,1.5-2.5,2.2-4,1.4l-40.9-20.2c-15-7.4-19-22.1-13.1-33.9c8.4-16.8,13.3-32.4,15.2-47.9
		c2.1-17.8,0.9-41,7.7-55.8c6.1-13.1,4-28.6-5.4-39.5c-11.7-14.6-18.6-19.1-22.6-31.3l0,0c-0.8-3.2-3.1-8.3-6.2-13
		c-6.1-9.3-14.6-16.5-24.8-20.8l-34.8-14.8C50.9,151.9,49.9,147.1,48.1,144.1L48.1,144.1z"/>
</g>
<g>
	<path d="M449.2,425.6c-7.4,7.8-12.2,10.1-14.2,17.2l-4.7,16.2c-1.6,5.5-0.5,11.4,2.9,16l6.9,9.3c9.3,12.4,28.8,8.3,32.3-6.7
		c0.3-0.9,0.2-2.4,1.7-3.7l5.6-4.9c5.6-4.9,7.7-12.6,5.2-19.6l-5.7-16.7C474.8,420.1,458.7,416.3,449.2,425.6L449.2,425.6z
		 M470.5,458.6l-5.6,4.9c-5.2,4.5-5.9,10.4-6.1,10.9c-0.8,3.6-5.5,4.6-7.7,1.6l-6.9-9.3c-0.8-1.1-1.1-2.5-0.7-3.8
		c5-16.5,4.4-16.7,5.9-18.1l9.5-9.2c2.3-2.2,6.1-1.3,7.1,1.7l5.7,16.7C472.3,455.6,471.8,457.4,470.5,458.6z"/>
	<path d="M108.9,207.6c5.1,15.7,14,21.8,25.2,36c5.8,6.8,7.2,16.5,3.4,24.7c-8.2,17.6-6.9,42.5-8.9,60c-1.6,13.9-6.1,28-13.8,43.3
		c-9.4,18.8-2.3,41.8,19.4,52.5c40.8,19.6,41.5,21.9,48.3,21.9c6.3,0,12.5-3.6,15.3-9.9c0.8-1.8,3.1-2.4,4.7-0.9
		c2,1.8,26.1,23.6,27.3,24.6l0,0c10.1,9.2,31,6.8,41.4,7.8c12.8,1.2,23.3-9.8,21.6-22.5c-1.2-8.9,3.1-17.5,10.8-22
		c11.3-6.6,20.8-14.3,31.5-10.3l11.1,4.1h0h0c0.8,0.3,25.8,9.7,26.5,9.9l0,0c13.7,5.2,27.7,0.1,40.6-2.7
		c15.8-3.5,24.5-17.1,33.2-27.9c9.1-11.2,6.9-27.6-4.7-36.1l-9.3-6.8c-1.2-0.9-2.1-2.2-2.4-3.7l-4.1-19c-0.6-2.6,0.7-5.4,3.1-6.7
		c10.4-5.7,13.7-19.2,6.9-29c-2-3.4-5.2-5.6-4.6-9.4l1.2-8.1c1.6-11-7.3-20.6-18.3-19.9c-2.6,0.2-4.5-2.5-3.4-4.9l17.3-38.9
		c1.6-3.6,5.2-5.8,9.1-5.8c12.4,0.3,23.1-9.1,24.1-21.7c2.7-30,1.4-31.2,4.1-34.7c9.8-12.8,3.2-31.4-12.4-35.2l-25.7-6.3
		c-4.2-1-4.6-3.6-15.9-15.5c-5.8-6.4-11.9-6.9-19.6-8.2c-19.1-3.4-19.4-3.6-39.4-16c0,0,0,0,0,0c-11.8-6.8-13.6-11.4-30.2-29.5
		C309.9,27,290.6,18.4,272,18.4h-9.9c-8.5,0-15.7,6.3-16.7,14.7l-2.9,23.2c-0.7,5.8-5.3,10.3-11.1,10.9
		c-12.2,1.3-19.9,2.1-28.8,11.3c-0.1,0.1-0.4,0.4-0.3,0.3c-0.8,0.8-1.3,1.4-1.8,2.3c-2.5,4.7-8.3,6.7-13.2,4.4
		c0,0-29.2-13.7-29.6-13.9c-16.6-7.8-36.3,9.6-29.9,27.1l6.7,18.4c0.8,2.3-1.3,4.6-3.6,3.9c-45.8-13.8-44.4-14-49.4-13L54,113.3
		c-17.2,3.3-26.5,22.1-18.5,37.8c3.6,7.1,6.6,12.7,15.2,16.4l34.8,14.8C96.5,186.9,105,196,108.9,207.6L108.9,207.6z M465.1,152
		c-0.4,0.4-0.9,0.9-1.5,1.3C464.1,153,464.7,152.5,465.1,152z M108.6,206.5c0,0.2,0.1,0.3,0.1,0.5
		C108.7,206.9,108.6,206.8,108.6,206.5z M214.5,86.4c4.8-4.1,9.3-4.3,18.4-5.3c12.2-1.3,21.9-10.8,23.4-23l2.9-23.2
		c0.2-1.5,1.4-2.6,2.9-2.6h9.9c14.6,0,30.2,7,39.8,17.8c16.8,18.1,17.7,22.1,30,30.1l13.9,8.4c14.8,8.9,18.4,8.6,40.7,12.7
		c1.8,0.3,3.5,1.3,4.7,2.6l11.7,12.9c3,3.3,6.9,5.6,11.2,6.7l25.7,6.3c5.9,1.5,8.4,8.5,4.7,13.3l0,0c-3.2,3.6-4.4,9.8-4.5,11.8
		l-2.4,30.2c-0.4,5.1-4.7,9.1-9.9,8.9c-9.6-0.2-18.2,5.3-22.1,14l-17.3,38.9c-5.3,11.9,4,25.2,17,24.4c2.2-0.1,4,1.8,3.7,4l-1.2,8.1
		c-1.6,10.4,5.3,16.7,6.4,18.6c0.1,0.2,0.3,0.4,0.4,0.6c2.2,3,1.2,7.2-2.1,9c-7.7,4.2-11.9,13.2-10,21.8l4.1,19
		c1,4.8,3.8,9.1,7.8,12l9.3,6.8c5.2,3.8,6.2,11.1,2.1,16.1c-7.5,9.3-14.8,20.7-25.4,23.1c-10.8,2.4-23.2,6.8-32.7,3.2
		c-0.1,0-21.8-8.2-22-8.2l-13.9-5.2l-1.7-0.6c-17-6.4-30.4,3.7-43.4,11.3c-12.6,7.3-19.5,21.4-17.6,35.8c0.5,3.9-2.7,7.3-6.6,6.9
		c-9-0.8-27.9,0.6-33.4-4.3c-0.5-0.4-20.5-19.1-24.6-22.2c-3.1-2.4-10-6.5-13.9-6.8c-5.4-0.5-12.6,3.6-15.5,9.9
		c-0.7,1.5-2.5,2.2-4,1.4l-40.9-20.2c-15-7.4-19-22.1-13.1-33.9c8.4-16.8,13.3-32.4,15.2-47.9c2.1-17.8,0.9-41,7.7-55.8
		c6.1-13.1,4-28.6-5.4-39.5C132.9,220,126,215.5,122,203.3l0,0c-0.8-3.2-3.1-8.3-6.2-13c-6.1-9.3-14.6-16.5-24.8-20.8l-34.8-14.8
		c-5.6-2.4-6.6-7.2-8.4-10.2l0,0c-3.5-7.3,0.8-16.1,8.9-17.6c36.2-6.9,25.7-4.9,27.7-5.3c2.3,0.3,13.5,3.9,42.6,12.7
		c13.3,4,25.4-8.9,20.7-21.9l-6.7-18.4c-2.1-5.7,5.4-12.4,11-9.8c0.2,0.1,29.6,13.9,29.6,13.9c6.3,2.9,13.7,3.9,19.2,0.5
		C204.5,96.2,214.5,86.4,214.5,86.4z"/>
</g>
<g>
	<g>
		<g>
			<circle cx="349.3" cy="278.1" r="4"/>
		</g>
	</g>
	<g>
		<g>
			<circle cx="198.4" cy="278.1" r="4"/>
		</g>
	</g>
	<g>
		<g>
			<path d="M216.1,237.9c-2,0.3-3.4,2.1-3.4,4l0,97.2l0,0c2.2,2.1,5.7,2.1,7.9,0l0,0v-97.3C220.7,239.4,218.6,237.5,216.1,237.9z"/>
			<path d="M277.1,284c0-2.4-2.1-4.3-4.6-3.9c-2,0.3-3.4,2.1-3.4,4v55l0,0c2.2,2.1,5.7,2.1,7.9,0l0,0V284z"/>
			<path d="M332,237.8L332,237.8c-2.2,0-4,1.8-4,4l0.2,97.4l0,0c2.2,2.1,5.6,2.2,7.8,0.1l0.1-0.1l-0.2-97.4
				C335.9,239.5,334.1,237.8,332,237.8z"/>
			<path d="M312.6,291.8L312.6,291.8c-2.2,0-4,1.8-4,4l0.1,43.3c0,0,0,0,0,0l0,0c2.2,2.1,5.6,2.1,7.9,0.1l0.1-0.1c0,0,0,0,0,0
				l-0.1-43.3C316.6,293.6,314.8,291.8,312.6,291.8z"/>
			<path d="M233.8,291.9c-2,0.3-3.4,2.1-3.4,4v43.2l0,0c2.2,2.1,5.8,2.1,8,0h0c0,0,0,0,0,0h-0.1v-43.3
				C238.3,293.4,236.2,291.5,233.8,291.9z"/>
			<path d="M249.7,339.8L249.7,339.8c2.4,1.8,5.6,1.8,7.9,0h0V229c0-2-1.4-3.8-3.4-4c-2.4-0.4-4.6,1.5-4.6,3.9v50.6
				c-7.2-0.6-12.8-6.5-12.8-13.5v-38.4c0-6.9,2-13.5,5.8-19.3c6.9-10.6,18.8-16.9,31.7-16.9c12.9,0,24.8,6.3,31.7,16.9
				c3.8,5.8,5.7,12.4,5.7,19.3V266c0,6.8-5.3,12.5-12.1,13.4v-50.5c0-2.4-2.1-4.3-4.6-3.9c-2,0.3-3.4,2.1-3.4,4v110.8l0.3,0.2
				c2.3,1.7,5.4,1.6,7.6-0.2l0,0v-52.4c11.2-1,20-10.2,20-21.4v-38.4c0-6.1-1.3-12.1-3.8-17.6c7.8,0.5,15.1,3.7,20.7,9.1
				c6.1,5.9,9.5,13.8,9.5,22.2l0.1,22.6c0,2.2,1.8,4,4,4h0c2.2,0,4-1.8,4-4l-0.1-22.5c0-10.5-4.3-20.4-12-27.9
				c-4.4-4.2-9.6-7.4-15.3-9.3c4-3.8,6.5-9.2,6.5-15.2c0-11.5-9.4-20.9-21-20.9h0c-3.3,0-6.7,0.8-9.6,2.4c-1.7,0.9-2.6,2.8-2,4.6
				c0.7,2.5,3.5,3.6,5.7,2.5c1.9-1,3.9-1.5,6-1.5c7.2,0,13.1,5.8,13.1,13c0,7.2-5.8,13.1-13,13.1c-0.2,0-0.3,0-0.5,0
				c-0.2,0-0.4,0-0.6,0c-5.7-7.8-13.8-13.5-22.9-16.4c4.9-4.3,7.9-10.5,7.9-17.5c0-13.2-11-23.8-24.4-23.2
				c-11.9,0.6-21.5,10.1-22.1,22c-0.4,7.8,3.1,14.8,8.6,19.3c-8.4,3-15.8,8.5-21.1,15.8c-0.6,0-1.3,0-1.9,0c-0.3,0-0.6,0-0.9,0
				c-0.1,0-0.1,0-0.2,0c-7.2,0-13-5.9-13-13c0-7.2,5.9-13,13-13c2.2,0,4.3,0.5,6.2,1.6c1.7,0.9,3.8,0.5,5-1c1.5-2,0.9-4.8-1.2-5.9
				c-3.1-1.7-6.5-2.5-10-2.5c-11.6,0-21,9.4-21,21c0,6.3,2.8,11.9,7.2,15.8c-15,5.8-25.6,20-25.6,36.6v22.4c0,2,1.4,3.8,3.4,4
				c2.4,0.4,4.6-1.5,4.6-3.9v-22.5c0-16.4,13.1-30,29.8-31.3c-2.5,5.5-3.8,11.5-3.8,17.6V266c0,11.4,9.2,20.8,20.7,21.5L249.7,339.8
				 M274.5,183.4c-9.5,0.9-17.5-7.1-16.7-16.7c0.7-7.3,6.5-13.2,13.9-13.9c9.5-0.9,17.5,7.1,16.7,16.7
				C287.7,176.9,281.8,182.8,274.5,183.4z"/>
		</g>
	</g>
	<line x1="308.8" y1="339.1" x2="316.7" y2="339.1"/>
</g>
</svg>
