<?xml version="1.0" encoding="utf-8"?>
<!-- Generator: Adobe Illustrator 23.0.2, SVG Export Plug-In . SVG Version: 6.00 Build 0)  -->
<svg version="1.1" id="Icons" xmlns="http://www.w3.org/2000/svg" xmlns:xlink="http://www.w3.org/1999/xlink" x="0px" y="0px"
	 viewBox="0 0 512 512" style="enable-background:new 0 0 512 512;" xml:space="preserve">
<style type="text/css">
	.st0{fill:#CFE3F9;}
	.st1{fill:#B9D8EF;}
</style>
<g>
	<circle class="st0" cx="364" cy="364.07" r="132.87"/>
	<path class="st1" d="M414.37,302.51c5.47,3.15,7.34,10.13,4.19,15.6l-54.11,93.87c-3.15,5.46-10.13,7.34-15.6,4.19l-44.68-25.76
		c-5.46-3.15-7.34-10.13-4.19-15.6c3.15-5.46,10.13-7.34,15.6-4.19l34.79,20.06l48.41-83.97
		C401.92,301.24,408.91,299.36,414.37,302.51z M505.17,326.14c20.96,78.03-25.22,158.13-103.24,179.09
		c-78.03,20.96-158.13-25.22-179.09-103.24c-20.96-78.03,25.22-158.13,103.24-179.09C404.11,201.94,484.21,248.12,505.17,326.14z
		 M483.11,332.07c-17.69-65.84-85.28-104.8-151.11-87.11c-65.84,17.69-104.8,85.28-87.11,151.11
		c17.69,65.84,85.28,104.8,151.11,87.11C461.84,465.49,500.8,397.9,483.11,332.07z"/>
</g>
<g>
	<path d="M359,112.8c-2.76,0-5-2.24-5-5V92.94c0-2.76,2.24-5,5-5s5,2.24,5,5v14.86C364,110.56,361.76,112.8,359,112.8z"/>
	<path d="M343.99,364.07H33.85c-11.05,0-20.01-8.96-20.01-20.01V33.92c0-11.05,8.96-20.01,20.01-20.01h310.14
		c11.05,0,20.01,8.96,20.01,20.01v24.01c0,2.76-2.24,5-5,5s-5-2.24-5-5V33.92c0-5.53-4.48-10-10-10H33.85c-5.53,0-10,4.48-10,10
		v310.14c0,5.53,4.48,10,10,10h310.14c5.53,0,10-4.48,10-10V142.82c0-2.76,2.24-5,5-5s5,2.24,5,5v201.24
		C364,355.11,355.04,364.07,343.99,364.07z"/>
	<path d="M188.92,261.12c-2.76,0-5-2.24-5-5V121.86c0-2.76,2.24-5,5-5c2.76,0,5,2.24,5,5v134.26
		C193.92,258.88,191.68,261.12,188.92,261.12z"/>
	<path d="M188.92,81.04c-2.76,0-5-2.24-5-5V18.91c0-2.76,2.24-5,5-5c2.76,0,5,2.24,5,5v57.13C193.92,78.8,191.68,81.04,188.92,81.04
		z"/>
	<path d="M188.92,364.07c-2.76,0-5-2.24-5-5v-57.13c0-2.76,2.24-5,5-5c2.76,0,5,2.24,5,5v57.13
		C193.92,361.83,191.68,364.07,188.92,364.07z"/>
	<path d="M256.6,194.59H122.24c-2.76,0-5-2.24-5-5c0-2.76,2.24-5,5-5H256.6c2.76,0,5,2.24,5,5
		C261.6,192.35,259.36,194.59,256.6,194.59z"/>
	<path d="M359,194.59h-57.68c-2.76,0-5-2.24-5-5c0-2.76,2.24-5,5-5H359c2.76,0,5,2.24,5,5C364,192.35,361.76,194.59,359,194.59z"/>
	<path d="M75.52,194.59H18.84c-2.76,0-5-2.24-5-5c0-2.76,2.24-5,5-5h56.68c2.76,0,5,2.24,5,5
		C80.52,192.35,78.28,194.59,75.52,194.59z"/>
	<path d="M98.88,243.41c-19.33-0.02-34.99-15.69-35.02-35.02c-0.04-8,2.71-15.77,7.78-21.96c1.75-2.14,4.9-2.46,7.04-0.72
		c2.14,1.75,2.46,4.9,0.72,7.04l0,0c-3.61,4.41-5.56,9.94-5.53,15.64c0,13.81,11.2,25.01,25.01,25.01s25.01-11.2,25.01-25.01
		c0.04-5.7-1.9-11.23-5.5-15.65c-1.75-2.14-1.43-5.29,0.72-7.04c2.14-1.75,5.29-1.43,7.04,0.72c5.06,6.2,7.8,13.97,7.75,21.97
		C133.87,227.73,118.21,243.39,98.88,243.41L98.88,243.41z"/>
	<path d="M301.32,194.59c-2.76,0-5-2.23-5.01-5c0-1.25,0.47-2.46,1.31-3.38c4.12-4.54,6.39-10.45,6.35-16.58
		c0-13.81-11.2-25.01-25.01-25.01c-13.81,0-25.01,11.2-25.01,25.01c-0.04,6.13,2.23,12.05,6.35,16.58c1.86,2.04,1.72,5.21-0.32,7.07
		c-2.04,1.86-5.21,1.72-7.07-0.32c-5.8-6.38-9-14.71-8.96-23.34c0-19.34,15.68-35.02,35.02-35.02s35.02,15.68,35.02,35.02
		c0.04,8.63-3.16,16.95-8.96,23.34C304.06,194,302.73,194.59,301.32,194.59L301.32,194.59z"/>
	<path d="M169.51,133.96c-19.34-0.01-35.01-15.7-35-35.04c0.01-19.34,15.7-35.01,35.04-35c8.28,0,16.3,2.95,22.62,8.3
		c2.1,1.8,2.35,4.95,0.55,7.05s-4.95,2.35-7.05,0.55l0,0c-10.55-8.91-26.33-7.58-35.25,2.97s-7.58,26.33,2.97,35.25
		c9.32,7.87,22.96,7.87,32.28,0c2.1-1.8,5.26-1.55,7.05,0.55c1.8,2.1,1.55,5.26-0.55,7.05
		C185.85,131.04,177.81,133.98,169.51,133.96z"/>
	<path d="M208.28,314.05c-8.29,0.01-16.3-2.93-22.61-8.3c-2.1-1.8-2.35-4.95-0.55-7.05s4.95-2.35,7.05-0.55
		c4.49,3.82,10.21,5.92,16.11,5.9c13.81,0,25.01-11.2,25.01-25.01c0-13.81-11.2-25.01-25.01-25.01c-5.9-0.01-11.61,2.08-16.11,5.9
		c-2.1,1.8-5.26,1.55-7.05-0.55c-1.8-2.1-1.55-5.26,0.55-7.05l0,0c14.75-12.5,36.85-10.68,49.35,4.07
		c12.5,14.75,10.68,36.85-4.07,49.35C224.61,311.11,216.58,314.05,208.28,314.05z"/>
</g>
</svg>
