<?xml version="1.0" encoding="utf-8"?>
<!-- Generator: Adobe Illustrator 25.2.1, SVG Export Plug-In . SVG Version: 6.00 Build 0)  -->
<svg version="1.1" id="Capa_1" xmlns="http://www.w3.org/2000/svg" xmlns:xlink="http://www.w3.org/1999/xlink" x="0px" y="0px"
	 viewBox="0 0 512 512" style="enable-background:new 0 0 512 512;" xml:space="preserve">
<style type="text/css">
	.st0{fill:#37474F;}
	.st1{display:none;fill:#607D8B;}
	.st2{fill:#00838F;}
	.st3{fill:#5C84D9;}
	.st4{fill:#FF6F7F;}
	.st5{fill:#EAEAEA;}
	.st6{fill:#FFB301;}
	.st7{fill:#FEC108;}
</style>
<g>
	<rect x="208.6" y="440.2" class="st0" width="127.7" height="31.9"/>
</g>
<rect x="208.6" y="440.2" class="st1" width="103.8" height="31.9"/>
<g>
	<path class="st2" d="M504,145.7l0,238.5H41l0-238.5c-0.1-8.6,3.2-16.9,9.1-23.1s14.2-9.7,22.8-9.8h399.2c8.6,0.1,16.8,3.7,22.8,9.8
		C500.9,128.8,504.1,137.1,504,145.7z"/>
</g>
<g>
	<path class="st0" d="M504,376.3v31.9c0,17.6-14.3,31.9-31.9,31.9H72.9c-17.6,0-31.9-14.3-31.9-31.9v-31.9H504z"/>
</g>
<path class="st1" d="M480.1,376.3v31.9c0,17.6-14.3,31.9-31.9,31.9H72.9c-17.6,0-31.9-14.3-31.9-31.9v-31.9H480.1z"/>
<g>
	<path class="st0" d="M400.2,488v16H144.8v-16c0-8.8,7.2-15.9,16-16h223.5C393.1,472.1,400.2,479.2,400.2,488z"/>
</g>
<path class="st1" d="M376.3,488v16H144.8v-16c0-8.8,7.2-15.9,16-16h199.6C369.1,472.1,376.3,479.2,376.3,488z"/>
<g>
	<g>
		<g>
			<path class="st3" d="M195.3,376.3H41V137.8c0-18.2,14.8-33,33-33h121.3V376.3z"/>
		</g>
		<g>
			<path class="st4" d="M349.7,376.3H504V137.8c0-18.2-14.8-33-33-33H349.7V376.3z"/>
		</g>
		<g>
			<rect x="195.3" y="104.8" class="st5" width="154.3" height="271.4"/>
		</g>
	</g>
</g>
<g>
	<path class="st6" d="M344.3,130.8v71.9c0,17.6-14.3,31.9-31.9,31.9h-79.8c-17.6,0-31.9-14.3-31.9-31.9v-71.9c0-4.4,3.6-8,8-8h127.7
		C340.8,122.8,344.3,126.4,344.3,130.8z"/>
</g>
<g>
	<path class="st7" d="M320.4,129.8v71.9c0,17.6-14.3,31.9-31.9,31.9h-55.9c-17.6,0-31.9-14.3-31.9-31.9v-71.9c0-4.4,3.6-8,8-8h103.8
		C316.8,121.8,320.4,125.4,320.4,129.8z"/>
</g>
<g>
	<ellipse transform="matrix(0.1602 -0.9871 0.9871 0.1602 60.3545 412.3382)" class="st6" cx="272.5" cy="170.7" rx="16" ry="16"/>
</g>
<g>
	<g>
		<g>
			<g>
				<path d="M239.7,267.5c4.4,0,8-3.6,8-8c0-8.8-7.1-16-16-16h-31.9c-8.8,0-16,7.1-16,16v55.9c0,8.8,7.1,16,16,16h31.9
					c8.8,0,16-7.1,16-16v-24c0-4.4-3.6-8-8-8h-16c-4.4,0-8,3.6-8,8s3.6,8,8,8h8v16h-31.9v-55.9h31.9
					C231.7,263.9,235.3,267.5,239.7,267.5z"/>
			</g>
			<g>
				<path d="M350.8,243.5c-4.4,0-8,3.6-8,8v71.8c0,4.4,3.6,8,8,8h23.9c17.6,0,31.9-14.3,31.9-31.9v-24c0-17.6-14.3-31.9-31.9-31.9
					L350.8,243.5L350.8,243.5z M390.7,275.4v24c0,8.8-7.1,16-16,16h-16v-55.9h16C383.6,259.5,390.7,266.6,390.7,275.4z"/>
			</g>
			<g>
				<path d="M303.2,243.5h-31.9c-4.4,0-8,3.6-8,8v71.8c0,4.4,3.6,8,8,8c4.4,0,8-3.6,8-8v-23.9h24c13.2,0,23.9-10.7,23.9-24v-8
					C327.2,254.2,316.4,243.5,303.2,243.5z M311.2,275.4c0,4.4-3.6,8-8,8h-24v-24h24c4.4,0,8,3.6,8,8V275.4z"/>
			</g>
			<g>
				<path d="M104.3,251.5v71.8c0,4.4,3.6,8,8,8s8-3.6,8-8v-24h24c4.4,0,8,3.6,8,8v16c0,4.4,3.6,8,8,8c4.4,0,8-3.6,8-8v-16
					c0-5.9-2.2-11.6-6.2-16c4-4.4,6.2-10.1,6.2-16v-8c0-13.2-10.7-23.9-23.9-23.9h-31.9C107.9,243.5,104.3,247.1,104.3,251.5z
					 M152.2,267.5v8c0,4.4-3.6,8-8,8h-24v-24h24C148.6,259.5,152.2,263,152.2,267.5z"/>
			</g>
		</g>
		<g>
			<g>
				<path d="M454.1,83.8H350.3c-4.4,0-8,3.6-8,8s3.6,8,8,8h103.8c13.2,0,24,10.7,24,23.9v223.5H31V123.8c0-13.2,10.7-23.9,23.9-23.9
					h103.8c4.4,0,8-3.6,8-8s-3.6-8-8-8H54.9c-22,0-39.9,17.9-39.9,39.9v263.5c0,22,17.9,39.9,39.9,39.9h127.7v16h-39.9
					c-13.2,0-24,10.7-24,24v16c0,4.4,3.6,8,8,8h255.5c4.4,0,8-3.6,8-8v-16c0-13.2-10.7-24-24-24h-39.9v-16h127.7
					c22,0,39.9-17.9,39.9-39.9V123.7C494,101.7,476.1,83.9,454.1,83.8z M374.2,467v8H134.7v-8c0-4.4,3.6-8,8-8h223.5
					C370.7,459.1,374.2,462.6,374.2,467z M310.4,443.1H198.6v-16h111.8L310.4,443.1L310.4,443.1z M454.1,411.2H54.9
					c-13.2,0-23.9-10.7-23.9-24v-24H478v24C478,400.4,467.3,411.2,454.1,411.2z"/>
			</g>
			<g>
				<g>
					<path d="M254.5,12c-35.3,0-63.8,28.6-63.9,63.9v23.9c-8.8,0-16,7.1-16,16v71.9c0,22,17.9,39.9,39.9,39.9h79.8
						c22,0,39.9-17.9,39.9-39.9v-71.8c0-8.8-7.1-16-16-16V75.9C318.3,40.6,289.8,12,254.5,12z M294.4,211.6h-79.8
						c-13.2,0-23.9-10.7-23.9-23.9v-8h16c4.4,0,8-3.6,8-8c0-4.4-3.6-8-8-8h-16v-16h16c4.4,0,8-3.6,8-8c0-4.4-3.6-8-8-8h-16v-16
						h127.7v16h-16c-4.4,0-8,3.6-8,8c0,4.4,3.6,8,8,8h16v16h-16c-4.4,0-8,3.6-8,8c0,4.4,3.6,8,8,8h16v8
						C318.4,200.8,307.6,211.6,294.4,211.6z M206.6,99.8V75.9c0-26.5,21.4-47.9,47.9-47.9s47.9,21.4,47.9,47.9v23.9H206.6z"/>
				</g>
				<g>
					<path d="M254.5,131.7c-11.7,0-21.6,8.4-23.6,19.8s4.6,22.7,15.6,26.6v9.5c0,4.4,3.6,8,8,8c4.4,0,8-3.6,8-8v-9.5
						c11-3.9,17.6-15.1,15.6-26.6C276.1,140.1,266.2,131.7,254.5,131.7z M254.5,163.7c-4.4,0-8-3.6-8-8c0-4.4,3.6-8,8-8
						c4.4,0,8,3.6,8,8C262.5,160.1,258.9,163.7,254.5,163.7z"/>
				</g>
				<g>
					<g>
						<path d="M62.9,147.7h8c4.4,0,8-3.6,8-8c0-4.4-3.6-8-8-8h-8c-4.4,0-8,3.6-8,8C54.9,144.1,58.5,147.7,62.9,147.7z"/>
					</g>
					<g>
						<path d="M126.8,147.7c4.4,0,8-3.6,8-8c0-4.4-3.6-8-8-8h-23.9c-4.4,0-8,3.6-8,8c0,4.4,3.6,8,8,8L126.8,147.7L126.8,147.7z"/>
					</g>
					<g>
						<path d="M62.9,179.6h63.9c4.4,0,8-3.6,8-8c0-4.4-3.6-8-8-8H62.9c-4.4,0-8,3.6-8,8C54.9,176.1,58.5,179.6,62.9,179.6z"/>
					</g>
					<g>
						<path d="M446.1,147.7c4.4,0,8-3.6,8-8c0-4.4-3.6-8-8-8h-8c-4.4,0-8,3.6-8,8c0,4.4,3.6,8,8,8L446.1,147.7L446.1,147.7z"/>
					</g>
					<g>
						<path d="M382.2,147.7h24c4.4,0,8-3.6,8-8c0-4.4-3.6-8-8-8h-24c-4.4,0-8,3.6-8,8C374.2,144.1,377.8,147.7,382.2,147.7z"/>
					</g>
					<g>
						<path d="M382.2,179.6h63.9c4.4,0,8-3.6,8-8c0-4.4-3.6-8-8-8h-63.9c-4.4,0-8,3.6-8,8C374.2,176.1,377.8,179.6,382.2,179.6z"/>
					</g>
				</g>
			</g>
		</g>
	</g>
</g>
</svg>
