<?xml version="1.0" encoding="iso-8859-1"?>
<!-- Generator: Adobe Illustrator 19.0.0, SVG Export Plug-In . SVG Version: 6.00 Build 0)  -->
<svg version="1.1" id="Capa_1" xmlns="http://www.w3.org/2000/svg" xmlns:xlink="http://www.w3.org/1999/xlink" x="0px" y="0px"
	 viewBox="0 0 512 512" style="enable-background:new 0 0 512 512;" xml:space="preserve">
<path style="fill:#87D2F3;" d="M480,160v213.333c0,0-10.667,53.333-53.333,53.333v74.667h-224V416c0-32-21.333-32-21.333-32h-64
	c-17.304,0.369-31.631-13.359-32-30.663c-0.01-0.446-0.01-0.891,0-1.337v-39.787c-8.74-8.141-20.071-12.938-32-13.547
	c-11.538,0.244-21.089-8.911-21.333-20.449c-0.006-0.295-0.006-0.589,0-0.884l53.333-96.64V160
	c0-82.475,66.859-149.333,149.333-149.333H320C402.453,10.667,480,77.547,480,160L480,160z"/>
<g>
	<circle style="fill:#FFFFFF;" cx="256" cy="85.333" r="32"/>
	<circle style="fill:#FFFFFF;" cx="170.667" cy="309.333" r="32"/>
	<path style="fill:#FFFFFF;" d="M341.333,288h85.333c23.564,0,42.667,19.103,42.667,42.667v128
		c0,23.564-19.102,42.667-42.667,42.667h-85.333c-23.564,0-42.667-19.103-42.667-42.667v-128
		C298.667,307.103,317.769,288,341.333,288z"/>
	<path style="fill:#FFFFFF;" d="M469.333,330.667c0-23.564-19.102-42.667-42.667-42.667h-85.333
		c-23.564,0-42.667,19.103-42.667,42.667v32h170.667V330.667z"/>
</g>
<g>
	<path style="fill:#2170A6;" d="M426.667,277.333h-85.333c-29.441,0.035-53.298,23.893-53.333,53.333v128
		c0.035,29.441,23.893,53.298,53.333,53.333h85.333c29.441-0.035,53.298-23.893,53.333-53.333v-128
		C479.965,301.226,456.107,277.369,426.667,277.333z M458.667,458.667c0,17.673-14.327,32-32,32h-85.333c-17.673,0-32-14.327-32-32
		v-128c0-17.673,14.327-32,32-32h32V352h-32v21.333h85.333V352h-32v-53.333h32c17.673,0,32,14.327,32,32V458.667z"/>
	<path style="fill:#2170A6;" d="M320,0h-85.333c-88.324,0.1-159.9,71.676-160,160v17.931l-52,94.251
		c-0.873,1.577-1.331,3.35-1.333,5.152c-0.502,17.171,13.01,31.498,30.181,32c0.606,0.018,1.213,0.018,1.819,0
		c7.758,0.431,15.2,3.218,21.333,7.989V352c-0.67,22.895,17.347,41.997,40.242,42.667c0.808,0.024,1.617,0.024,2.425,0h63.691
		C182.859,394.795,192,396.373,192,416v85.333c0,5.891,4.776,10.667,10.667,10.667h74.667v-21.333h-64V416
		c0-33.749-20.928-42.667-32-42.667h-64c-11.064,0.718-20.615-7.668-21.333-18.732c-0.056-0.866-0.056-1.735,0-2.602v-39.765
		c-0.002-3.051-1.31-5.956-3.595-7.979C81.711,294.392,67.869,288.633,53.333,288c-5.135,0.624-9.803-3.033-10.427-8.167
		c-0.006-0.047-0.011-0.095-0.016-0.142l51.776-93.867c0.873-1.577,1.331-3.35,1.333-5.152V160
		c0.088-76.547,62.12-138.579,138.667-138.667H320c79.552,0,149.333,64.8,149.333,138.667v21.333
		c0.527,5.365-3.395,10.14-8.76,10.667c-0.634,0.062-1.273,0.062-1.907,0h-53.333c-17.171-0.502-31.498,13.01-32,30.181
		c-0.018,0.606-0.018,1.213,0,1.819v32h21.333v-31.872c-0.572-5.384,3.329-10.211,8.713-10.783c0.649-0.069,1.304-0.073,1.954-0.012
		h53.333c17.171,0.502,31.498-13.01,32-30.181c0.018-0.606,0.018-1.213,0-1.819V160C490.667,74.763,410.912,0,320,0L320,0z"/>
	<path style="fill:#2170A6;" d="M341.333,245.333c5.891,0,10.667-4.776,10.667-10.667v-53.333c0.502-17.171-13.01-31.498-30.181-32
		c-0.606-0.018-1.213-0.018-1.819,0h-42.539c-5.384,0.572-10.211-3.329-10.783-8.713c-0.069-0.649-0.073-1.304-0.012-1.954v-12.181
		c22.816-5.891,36.536-29.163,30.645-51.978c-5.891-22.816-29.163-36.536-51.979-30.645s-36.536,29.163-30.645,51.978
		c3.88,15.029,15.616,26.765,30.645,30.645v12.181c-0.502,17.171,13.011,31.498,30.181,32c0.606,0.018,1.213,0.018,1.819,0H320
		c5.365-0.527,10.14,3.395,10.667,8.76c0.062,0.634,0.062,1.273,0,1.907V224H288c-17.171-0.502-31.498,13.01-32,30.181
		c-0.018,0.606-0.018,1.213,0,1.819v31.872c0.572,5.384-3.329,10.211-8.713,10.783c-0.649,0.069-1.304,0.073-1.954,0.012h-33.515
		c-5.891-22.816-29.163-36.536-51.978-30.645c-22.816,5.891-36.536,29.163-30.645,51.979c5.891,22.816,29.163,36.536,51.979,30.645
		c15.029-3.88,26.765-15.616,30.645-30.645h33.515c17.171,0.502,31.498-13.01,32-30.181c0.018-0.606,0.018-1.213,0-1.819v-32
		c-0.527-5.365,3.395-10.14,8.76-10.667c0.634-0.062,1.273-0.062,1.907,0L341.333,245.333z M234.667,85.333
		C234.667,73.551,244.218,64,256,64c11.782,0,21.333,9.551,21.333,21.333s-9.551,21.333-21.333,21.333
		C244.218,106.667,234.667,97.115,234.667,85.333z M170.667,330.667c-11.782,0-21.333-9.551-21.333-21.333S158.885,288,170.667,288
		c11.782,0,21.333,9.551,21.333,21.333S182.449,330.667,170.667,330.667z"/>
</g>
<g>
</g>
<g>
</g>
<g>
</g>
<g>
</g>
<g>
</g>
<g>
</g>
<g>
</g>
<g>
</g>
<g>
</g>
<g>
</g>
<g>
</g>
<g>
</g>
<g>
</g>
<g>
</g>
<g>
</g>
</svg>
