<?xml version="1.0" encoding="utf-8"?>
<!-- Generator: Adobe Illustrator 25.2.1, SVG Export Plug-In . SVG Version: 6.00 Build 0)  -->
<svg version="1.1" id="Layer_1" xmlns="http://www.w3.org/2000/svg" xmlns:xlink="http://www.w3.org/1999/xlink" x="0px" y="0px"
	 viewBox="0 0 512 512" style="enable-background:new 0 0 512 512;" xml:space="preserve">
<style type="text/css">
	.st0{fill:#CFE3F9;}
	.st1{fill:#B9D8EF;}
</style>
<g>
	<path class="st0" d="M388.4,245.7h-44.8c-43.3,0-78.4,35.1-78.4,78.4V335l-28,50.7c0,0.2,0,0.3,0,0.5c0.1,6.1,5.1,10.9,11.2,10.7
		c6.3,0.3,12.2,2.8,16.8,7.1v20.9c0,0.2,0,0.5,0,0.7c0.2,9.1,7.7,16.3,16.8,16.1h33.6c0,0,11.2,0,11.2,16.8v44.8h72.8
		c-12.4,0-22.4-10-22.4-22.4v-50.4v-16.8c0-10.8,7.7-19.9,17.9-21.9c1.5-0.3,3-0.5,4.5-0.5h44.8c11.6,0,21.1,8.8,22.3,20.1
		c0.1,0.8,0.1,1.5,0.1,2.3v16.8v19.6c4.2-7,5.6-14,5.6-14v-112C472.4,280.8,431.7,245.7,388.4,245.7z M310,419.3
		c-9.3,0-16.8-7.5-16.8-16.8c0-9.3,7.5-16.8,16.8-16.8c9.3,0,16.8,7.5,16.8,16.8C326.8,411.8,319.3,419.3,310,419.3z M354.8,301.7
		c-9.3,0-16.8-7.5-16.8-16.8c0-9.3,7.5-16.8,16.8-16.8s16.8,7.5,16.8,16.8C371.6,294.2,364.1,301.7,354.8,301.7z"/>
	<path class="st1" d="M444.4,385.7h-44.8c-15.5,0-28,12.5-28,28v67.2c0,15.5,12.5,28,28,28h44.8c15.5,0,28-12.5,28-28v-67.2
		C472.4,398.3,459.8,385.7,444.4,385.7z M461.2,480.9c0,9.3-7.5,16.8-16.8,16.8h-44.8c-9.3,0-16.8-7.5-16.8-16.8v-67.2
		c0-9.3,7.5-16.8,16.8-16.8h16.8v28h-16.8v11.2h44.8v-11.2h-16.8v-28h16.8c9.3,0,16.8,7.5,16.8,16.8V480.9z"/>
	<path class="st1" d="M388.4,240.1h-44.8c-46.4,0.1-84,37.6-84,84v9.4L232.3,383c-0.5,0.8-0.7,1.8-0.7,2.7
		c-0.3,9,6.8,16.5,15.8,16.8c0.3,0,0.6,0,1,0c4.1,0.2,8,1.7,11.2,4.2v18.2c-0.4,12,9.1,22.1,21.1,22.4c0.4,0,0.8,0,1.3,0h33.4
		c1,0.1,5.8,0.9,5.8,11.2v44.8c0,3.1,2.5,5.6,5.6,5.6H366v-11.2h-33.6v-39.2c0-17.7-11-22.4-16.8-22.4H282c-5.8,0.4-10.8-4-11.2-9.8
		c0-0.5,0-0.9,0-1.4v-20.9c0-1.6-0.7-3.1-1.9-4.2c-5.6-5.2-12.9-8.2-20.5-8.5c-2.7,0.3-5.1-1.6-5.5-4.3c0,0,0,0,0-0.1l27.2-49.3
		c0.5-0.8,0.7-1.8,0.7-2.7v-10.9c0-40.2,32.6-72.8,72.8-72.8h44.8c41.8,0,78.4,34,78.4,72.8v11.2c0.3,2.8-1.8,5.3-4.6,5.6
		c-0.3,0-0.7,0-1,0h-28c-9-0.3-16.5,6.8-16.8,15.8c0,0.3,0,0.6,0,1v16.8h11.2v-16.7c-0.3-2.8,1.7-5.4,4.6-5.7c0.3,0,0.7,0,1,0h28
		c9,0.3,16.5-6.8,16.8-15.8c0-0.3,0-0.6,0-1v-11.2C478,279.4,436.1,240.1,388.4,240.1L388.4,240.1z"/>
	<path class="st1" d="M399.6,368.9c3.1,0,5.6-2.5,5.6-5.6v-28c0.3-9-6.8-16.5-15.8-16.8c-0.3,0-0.6,0-1,0H366
		c-2.8,0.3-5.4-1.7-5.7-4.6c0-0.3,0-0.7,0-1v-6.4c12-3.1,19.2-15.3,16.1-27.3c-3.1-12-15.3-19.2-27.3-16.1
		c-12,3.1-19.2,15.3-16.1,27.3c2,7.9,8.2,14.1,16.1,16.1v6.4c-0.3,9,6.8,16.5,15.8,16.8c0.3,0,0.6,0,1,0h22.4
		c2.8-0.3,5.3,1.8,5.6,4.6c0,0.3,0,0.7,0,1v22.4h-22.4c-9-0.3-16.5,6.8-16.8,15.8c0,0.3,0,0.6,0,1v16.7c0.3,2.8-1.7,5.4-4.6,5.7
		c-0.3,0-0.7,0-1,0h-17.6c-3.1-12-15.3-19.2-27.3-16.1c-12,3.1-19.2,15.3-16.1,27.3c3.1,12,15.3,19.2,27.3,16.1
		c7.9-2,14.1-8.2,16.1-16.1h17.6c9,0.3,16.5-6.8,16.8-15.8c0-0.3,0-0.6,0-1v-16.8c-0.3-2.8,1.8-5.3,4.6-5.6c0.3,0,0.7,0,1,0
		L399.6,368.9z M343.6,284.9c0-6.2,5-11.2,11.2-11.2s11.2,5,11.2,11.2s-5,11.2-11.2,11.2C348.6,296.1,343.6,291.1,343.6,284.9z
		 M310,413.7c-6.2,0-11.2-5-11.2-11.2c0-6.2,5-11.2,11.2-11.2s11.2,5,11.2,11.2S316.2,413.7,310,413.7z"/>
</g>
<g>
	<path d="M264.9,96.4c4.4,0,8-3.6,8-8c0-4.4-3.6-8-8-8s-8,3.6-8,8C256.9,92.8,260.5,96.4,264.9,96.4z"/>
	<path d="M287.6,111.4c18.2,13.3,32.3,31.3,40.7,52.1c1.7,4.1,6.3,6.1,10.4,4.4c4.1-1.7,6.1-6.3,4.4-10.4
		c-9.6-23.5-25.5-43.9-46.1-59c-3.6-2.6-8.6-1.8-11.2,1.7C283.2,103.8,284,108.8,287.6,111.4z"/>
	<path d="M414,200.5h-29c-4.1-86.4-73.7-156-160.1-160.1v-29c0-4.4-3.6-8-8-8s-8,3.6-8,8v29c-86.4,4.1-156,73.7-160.1,160.1h-29
		c-4.4,0-8,3.6-8,8s3.6,8,8,8h29c4.1,86.4,73.7,156,160.1,160.1v29c0,4.4,3.6,8,8,8s8-3.6,8-8v-29c86.4-4.1,156-73.7,160.1-160.1h29
		c4.4,0,8-3.6,8-8S418.4,200.5,414,200.5z M368.9,200.5h-56.2c-3.9-46.7-41.2-84-87.8-87.8V56.5C302.4,60.5,364.8,122.9,368.9,200.5
		z M280.9,216.6h15.6c-3.8,37.8-33.9,68-71.7,71.7v-15.6c0-4.4-3.6-8-8-8s-8,3.6-8,8v15.6c-37.8-3.8-68-33.9-71.7-71.7h15.6
		c4.4,0,8-3.6,8-8s-3.6-8-8-8h-15.6c3.8-37.8,33.9-68,71.7-71.7v15.6c0,4.4,3.6,8,8,8s8-3.6,8-8v-15.6c37.8,3.8,68,33.9,71.7,71.7
		h-15.6c-4.4,0-8,3.6-8,8S276.5,216.6,280.9,216.6z M208.8,56.5v56.2c-46.7,3.9-84,41.2-87.8,87.8H64.8
		C68.8,122.9,131.2,60.5,208.8,56.5z M64.8,216.6H121c3.9,46.7,41.2,84,87.8,87.8v56.2C131.2,356.6,68.8,294.2,64.8,216.6z
		 M224.8,360.6v-56.2c46.7-3.9,84-41.2,87.8-87.8h56.2C364.8,294.2,302.4,356.6,224.8,360.6z"/>
	<path d="M248.9,200.5h-24v-24c0-4.4-3.6-8-8-8s-8,3.6-8,8v24h-24c-4.4,0-8,3.6-8,8s3.6,8,8,8h24v24c0,4.4,3.6,8,8,8s8-3.6,8-8v-24
		h24c4.4,0,8-3.6,8-8S253.3,200.5,248.9,200.5z"/>
</g>
</svg>
