<svg xmlns="http://www.w3.org/2000/svg" width="858" height="172" viewBox="0 0 858 172">
  <g id="Groupe_1966" data-name="Groupe 1966" transform="translate(682.153)">
    <g id="Ellipse_71" data-name="Ellipse 71" transform="translate(-0.152 2)" fill="none" stroke="#707070" stroke-width="2">
      <circle cx="84" cy="84" r="84" stroke="none"/>
      <circle cx="84" cy="84" r="83" fill="none"/>
    </g>
    <circle id="Ellipse_70" data-name="Ellipse 70" cx="82.5" cy="82.5" r="82.5" transform="translate(9.848)" fill="#cfe3f9"/>
    <g id="audit" transform="translate(50.077 30.082)">
      <path id="Tracé_1351" data-name="Tracé 1351" d="M210.931,41.448a6.514,6.514,0,1,0-6.514,6.514A6.522,6.522,0,0,0,210.931,41.448Zm-9.945,0a3.431,3.431,0,1,1,3.431,3.431A3.435,3.435,0,0,1,200.985,41.448Z" transform="translate(-164.439 -27.752)" fill="#707070"/>
      <path id="Tracé_1352" data-name="Tracé 1352" d="M83.041,252.813h57.8a1.542,1.542,0,1,0,0-3.084h-57.8a1.542,1.542,0,0,0,0,3.084Z" transform="translate(-71.965 -198.392)" fill="#707070"/>
      <path id="Tracé_1353" data-name="Tracé 1353" d="M83.041,288.709h57.8a1.542,1.542,0,1,0,0-3.084h-57.8a1.542,1.542,0,0,0,0,3.084Z" transform="translate(-71.965 -226.909)" fill="#707070"/>
      <path id="Tracé_1354" data-name="Tracé 1354" d="M83.041,324.6h57.8a1.542,1.542,0,0,0,0-3.084h-57.8a1.542,1.542,0,0,0,0,3.084Z" transform="translate(-71.965 -255.426)" fill="#707070"/>
      <path id="Tracé_1355" data-name="Tracé 1355" d="M124.09,357.417H83.041a1.542,1.542,0,0,0,0,3.084H124.09a1.542,1.542,0,1,0,0-3.084Z" transform="translate(-71.965 -283.943)" fill="#707070"/>
      <path id="Tracé_1356" data-name="Tracé 1356" d="M106.986,175.235a1.542,1.542,0,0,0,1.99-.892l.581-1.525h4.057l.574,1.52a1.542,1.542,0,1,0,2.885-1.089l-3.815-10.108-.016-.041A1.768,1.768,0,0,0,111.6,162h0a1.767,1.767,0,0,0-1.641,1.1l-.013.034-3.85,10.108a1.542,1.542,0,0,0,.892,1.99Zm5.463-5.5h-1.719l.863-2.267Z" transform="translate(-91.423 -128.698)" fill="#707070"/>
      <path id="Tracé_1357" data-name="Tracé 1357" d="M285.742,175.337a1.542,1.542,0,0,0,1.542-1.542V163.543a1.542,1.542,0,0,0-3.084,0v10.252A1.542,1.542,0,0,0,285.742,175.337Z" transform="translate(-232.996 -128.698)" fill="#707070"/>
      <path id="Tracé_1358" data-name="Tracé 1358" d="M226.279,173.8a1.542,1.542,0,0,0,1.542,1.536h.006c.088,0,2.16-.008,2.989-.023,3.227-.056,5.57-2.851,5.57-6.645,0-3.988-2.283-6.668-5.682-6.668h-2.9a1.542,1.542,0,0,0-1.542,1.545Zm4.425-8.716c2.411,0,2.6,2.744,2.6,3.584,0,1.751-.785,3.531-2.54,3.562-.328.006-.872.01-1.4.014,0-1.191-.011-5.92-.013-7.16Z" transform="translate(-186.965 -128.698)" fill="#707070"/>
      <path id="Tracé_1359" data-name="Tracé 1359" d="M168.972,174.553a4.978,4.978,0,0,0,2.718.783h.009a5.239,5.239,0,0,0,2.381-.552,4.608,4.608,0,0,0,2.78-4.194v-7.047a1.542,1.542,0,0,0-3.084,0v7.047c0,.442-.129.959-1.084,1.44a2.156,2.156,0,0,1-.994.223h0a1.916,1.916,0,0,1-1.062-.3c-.747-.477-.9-.873-.9-1.358v-7.055a1.542,1.542,0,0,0-3.084,0V170.6A4.529,4.529,0,0,0,168.972,174.553Z" transform="translate(-139.613 -128.698)" fill="#707070"/>
      <path id="Tracé_1360" data-name="Tracé 1360" d="M312.18,165.085h1.278v8.71a1.542,1.542,0,0,0,3.084,0v-8.71h1.3a1.542,1.542,0,0,0,0-3.084H312.18a1.542,1.542,0,0,0,0,3.084Z" transform="translate(-253.999 -128.698)" fill="#707070"/>
      <path id="Tracé_1361" data-name="Tracé 1361" d="M125.744,96.441a1.542,1.542,0,1,0-3,.7,4.14,4.14,0,0,1,.108.937,4.09,4.09,0,0,1-6.982,2.894l-4.732-4.732a1.542,1.542,0,0,0-2.181,0l-4.731,4.731a4.09,4.09,0,1,1-5.784-5.784l4.732-4.732a1.542,1.542,0,0,0,0-2.18l-4.732-4.732a4.09,4.09,0,1,1,5.783-5.786l4.732,4.732a1.542,1.542,0,0,0,2.181,0l4.732-4.732a4.091,4.091,0,0,1,5.785,5.786l-4.732,4.732a1.542,1.542,0,0,0,0,2.18l2.553,2.553a1.542,1.542,0,1,0,2.18-2.18l-1.463-1.463,3.642-3.642a7.177,7.177,0,0,0-8.759-11.231V25.166a14.851,14.851,0,0,0-14.834-14.834H97.4a9.785,9.785,0,0,0-6.729-2.658H87.4A13.615,13.615,0,0,0,75.1,0a13.759,13.759,0,0,0-3.686.5,1.542,1.542,0,0,0,.826,2.971,10.672,10.672,0,0,1,2.859-.39,10.556,10.556,0,0,1,9.863,6.7,1.542,1.542,0,0,0,1.433.973h4.282a6.775,6.775,0,0,1,0,13.549H59.519a6.775,6.775,0,1,1,0-13.549H63.8a1.542,1.542,0,0,0,1.433-.974A10.5,10.5,0,0,1,67.6,6.193a1.542,1.542,0,1,0-2.176-2.184A13.572,13.572,0,0,0,62.8,7.674H59.519A9.821,9.821,0,0,0,52.8,10.332h-2.84A14.852,14.852,0,0,0,35.119,25.166V85.1A14.852,14.852,0,0,0,49.955,99.932H94.4a7.175,7.175,0,0,0,12,3.22l3.642-3.642,3.643,3.643a7.175,7.175,0,0,0,12.057-6.711ZM38.2,85.1V25.166a11.765,11.765,0,0,1,11.752-11.75h.609A9.855,9.855,0,0,0,59.519,27.39H90.675a9.864,9.864,0,0,0,8.96-13.975h.6a11.764,11.764,0,0,1,11.75,11.75V77.272l-1.946,1.946L106.4,75.575A7.174,7.174,0,1,0,96.258,85.722L99.9,89.364l-3.642,3.642a7.122,7.122,0,0,0-1.995,3.843H49.955A11.765,11.765,0,0,1,38.2,85.1Z" transform="translate(-35.119 0)" fill="#707070"/>
    </g>
    <text id="AUDIT-2" data-name="AUDIT" transform="translate(140.847 159)" fill="#0e5686" font-size="22" font-family="Metropolis-Regular, Metropolis"><tspan x="-34.419" y="0">AUDIT</tspan></text>
  </g>
  <g id="Groupe_1965" data-name="Groupe 1965" transform="translate(333.857 2.017)">
    <g id="Groupe_1963" data-name="Groupe 1963">
      <g id="Ellipse_72" data-name="Ellipse 72" transform="translate(0.143 1.983)" fill="none" stroke="#707070" stroke-width="2">
        <circle cx="84" cy="84" r="84" stroke="none"/>
        <circle cx="84" cy="84" r="83" fill="none"/>
      </g>
      <ellipse id="Ellipse_73" data-name="Ellipse 73" cx="83" cy="82.5" rx="83" ry="82.5" transform="translate(9.143 -0.017)" fill="#cfe3f9"/>
    </g>
    <g id="learning" transform="translate(46.397 30.259)">
      <path id="Tracé_1329" data-name="Tracé 1329" d="M30.989,2H34.5V5.508H30.989Z" transform="translate(12.852 -2)" fill="#707070"/>
      <path id="Tracé_1330" data-name="Tracé 1330" d="M0,0H3.508V3.508H0Z" transform="translate(35.257 2.401) rotate(-22.514)" fill="#707070"/>
      <path id="Tracé_1331" data-name="Tracé 1331" d="M0,0H3.508V3.508H0Z" transform="translate(28.226 7.923) rotate(-45)" fill="#707070"/>
      <path id="Tracé_1332" data-name="Tracé 1332" d="M0,0H3.508V3.508H0Z" transform="translate(23.865 15.696) rotate(-67.486)" fill="#707070"/>
      <path id="Tracé_1333" data-name="Tracé 1333" d="M0,0H3.508V3.508H0Z" transform="translate(62.768 13.79) rotate(-22.514)" fill="#707070"/>
      <path id="Tracé_1334" data-name="Tracé 1334" d="M0,0H3.508V3.508H0Z" transform="translate(57.992 7.926) rotate(-45)" fill="#707070"/>
      <path id="Tracé_1335" data-name="Tracé 1335" d="M0,0H3.508V3.508H0Z" transform="translate(51.374 4.297) rotate(-67.486)" fill="#707070"/>
      <path id="Tracé_1336" data-name="Tracé 1336" d="M97.205,71.7,91.943,26.095A1.754,1.754,0,0,0,90.2,24.542H67.3a16.138,16.138,0,0,0,.1-1.754,15.788,15.788,0,1,0-31.576,0,16.139,16.139,0,0,0,.1,1.754h-22.9a1.754,1.754,0,0,0-1.742,1.552L6.014,71.7a1.754,1.754,0,0,0,.5,1.44,10.652,10.652,0,0,1,0,15.062,1.754,1.754,0,0,0,1.244,3H44.595a10.375,10.375,0,0,0,7.017-2.709A10.374,10.374,0,0,0,58.628,91.2H67.4v10.525a1.754,1.754,0,0,0,2.994,1.24l5.777-5.777,5.777,5.777a1.754,1.754,0,0,0,2.994-1.24V91.2H95.467a1.754,1.754,0,0,0,1.24-2.994,10.652,10.652,0,0,1,0-15.062,1.754,1.754,0,0,0,.5-1.442Zm-45.594-61.2A12.293,12.293,0,0,1,63.891,22.788a12.167,12.167,0,0,1-4.978,9.853,1.754,1.754,0,0,0-.7,1.256l-.568,6.433H53.366v-9.8l4.749-4.749-2.48-2.48-4.022,4.022L47.589,23.3l-2.48,2.48,4.749,4.749v9.8H45.581L45.012,33.9a1.754,1.754,0,0,0-.7-1.256,12.167,12.167,0,0,1-4.978-9.853A12.293,12.293,0,0,1,51.612,10.508ZM46.2,47.347l-.31-3.508H57.332l-.31,3.508Zm10.155,3.508a4.963,4.963,0,0,1-9.49,0ZM81.433,97.493,77.411,93.47a1.754,1.754,0,0,0-2.48,0l-4.022,4.022V80.677H81.433Zm10.5-9.8H84.941V78.923a1.754,1.754,0,0,0-1.754-1.754h-22.8v3.508H67.4v7.017H58.628a6.947,6.947,0,0,1-5.613-2.851,1.819,1.819,0,0,0-2.807,0,6.947,6.947,0,0,1-5.613,2.851h-33.3a14.02,14.02,0,0,0,1.4-3.508H42.84V80.677h-29.7a14.086,14.086,0,0,0-1.852-7.017h33.3a6.947,6.947,0,0,1,5.613,2.851,1.819,1.819,0,0,0,2.807,0,6.947,6.947,0,0,1,5.613-2.851h33.3a14.209,14.209,0,0,0,0,14.034Zm-33.3-17.542a10.374,10.374,0,0,0-7.017,2.708,10.374,10.374,0,0,0-7.017-2.708H9.725l4.859-42.1h22.14a15.672,15.672,0,0,0,4.861,6.913L42.84,49.255a1.694,1.694,0,0,0,.075.265h-.03l.479,1.91a8.492,8.492,0,0,0,16.479,0l.479-1.91h-.03a1.694,1.694,0,0,0,.089-.265l1.263-14.292A15.672,15.672,0,0,0,66.5,28.05h22.14l4.859,42.1Z" transform="translate(-5.997 1.771)" fill="#707070"/>
      <path id="Tracé_1337" data-name="Tracé 1337" d="M13.754,40.3H29.542A1.754,1.754,0,0,0,31.3,38.542V22.754A1.754,1.754,0,0,0,29.542,21H15.508a1.754,1.754,0,0,0-1.744,1.561L12.011,38.349A1.754,1.754,0,0,0,13.754,40.3Zm3.333-15.788h10.7V36.788H15.714Z" transform="translate(-1.47 12.33)" fill="#707070"/>
      <path id="Tracé_1338" data-name="Tracé 1338" d="M12,34H22.525v3.508H12Z" transform="translate(-1.47 22.135)" fill="#707070"/>
      <path id="Tracé_1339" data-name="Tracé 1339" d="M20,34h3.508v3.508H20Z" transform="translate(4.564 22.135)" fill="#707070"/>
      <path id="Tracé_1340" data-name="Tracé 1340" d="M11,38H26.788v3.508H11Z" transform="translate(-2.224 25.151)" fill="#707070"/>
      <path id="Tracé_1341" data-name="Tracé 1341" d="M22,38h8.771v3.508H22Z" transform="translate(6.072 25.151)" fill="#707070"/>
      <path id="Tracé_1342" data-name="Tracé 1342" d="M41,22H58.542v3.508H41Z" transform="translate(20.402 13.084)" fill="#707070"/>
      <path id="Tracé_1343" data-name="Tracé 1343" d="M40,26h3.508v3.508H40Z" transform="translate(19.648 16.101)" fill="#707070"/>
      <path id="Tracé_1344" data-name="Tracé 1344" d="M44,26H58.034v3.508H44Z" transform="translate(22.665 16.101)" fill="#707070"/>
      <path id="Tracé_1345" data-name="Tracé 1345" d="M39,30h8.771v3.508H39Z" transform="translate(18.894 19.118)" fill="#707070"/>
      <path id="Tracé_1346" data-name="Tracé 1346" d="M46,30H56.525v3.508H46Z" transform="translate(24.173 19.118)" fill="#707070"/>
      <path id="Tracé_1347" data-name="Tracé 1347" d="M51,34h3.508v3.508H51Z" transform="translate(27.944 22.135)" fill="#707070"/>
      <path id="Tracé_1348" data-name="Tracé 1348" d="M38,34H57.3v3.508H38Z" transform="translate(18.14 22.135)" fill="#707070"/>
      <path id="Tracé_1349" data-name="Tracé 1349" d="M36,38H53.542v3.508H36Z" transform="translate(16.631 25.151)" fill="#707070"/>
      <path id="Tracé_1350" data-name="Tracé 1350" d="M48,38h8.771v3.508H48Z" transform="translate(25.682 25.151)" fill="#707070"/>
    </g>
    <text id="EXPERTISE" transform="translate(128.144 156.983)" fill="#0e5686" font-size="22" font-family="Metropolis-Regular, Metropolis"><tspan x="-58.861" y="0">EXPERTISE</tspan></text>
  </g>
  <g id="Groupe_1964" data-name="Groupe 1964" transform="translate(0.474 2.017)">
    <g id="Ellipse_72-2" data-name="Ellipse 72" transform="translate(-0.474 1.983)" fill="none" stroke="#707070" stroke-width="2">
      <ellipse cx="84.5" cy="84" rx="84.5" ry="84" stroke="none"/>
      <ellipse cx="84.5" cy="84" rx="83.5" ry="83" fill="none"/>
    </g>
    <circle id="Ellipse_73-2" data-name="Ellipse 73" cx="82.5" cy="82.5" r="82.5" transform="translate(9.526 -0.017)" fill="#cfe3f9"/>
    <g id="customer-relationship-management" transform="translate(36.983 43.035)">
      <path id="Tracé_1316" data-name="Tracé 1316" d="M101.352,72H8.589A8.6,8.6,0,0,0,0,80.589v61.842a8.6,8.6,0,0,0,8.589,8.589h92.762a8.6,8.6,0,0,0,8.589-8.589V80.589A8.6,8.6,0,0,0,101.352,72ZM3.436,142.431V85.743H25.767v61.842H8.589A5.159,5.159,0,0,1,3.436,142.431Zm97.916,5.153H29.2V85.743h67a1.718,1.718,0,0,0,0-3.436H3.436V80.589a5.159,5.159,0,0,1,5.153-5.153h92.762a5.159,5.159,0,0,1,5.153,5.153v1.718h-3.436a1.718,1.718,0,1,0,0,3.436h3.436v56.688A5.159,5.159,0,0,1,101.352,147.584Z" transform="translate(0 -72)" fill="#707070"/>
      <path id="Tracé_1317" data-name="Tracé 1317" d="M33.718,96a1.716,1.716,0,1,0,1.215.5A1.732,1.732,0,0,0,33.718,96Z" transform="translate(-25.129 -90.847)" fill="#707070"/>
      <path id="Tracé_1318" data-name="Tracé 1318" d="M57.718,96a1.716,1.716,0,1,0,1.215.5A1.732,1.732,0,0,0,57.718,96Z" transform="translate(-43.975 -90.847)" fill="#707070"/>
      <path id="Tracé_1319" data-name="Tracé 1319" d="M81.718,96a1.716,1.716,0,1,0,1.215.5A1.732,1.732,0,0,0,81.718,96Z" transform="translate(-62.822 -90.847)" fill="#707070"/>
      <path id="Tracé_1320" data-name="Tracé 1320" d="M33.718,155.436H45.743a1.718,1.718,0,1,0,0-3.436H33.718a1.718,1.718,0,1,0,0,3.436Z" transform="translate(-25.129 -134.822)" fill="#707070"/>
      <path id="Tracé_1321" data-name="Tracé 1321" d="M45.743,184H33.718a1.718,1.718,0,1,0,0,3.436H45.743a1.718,1.718,0,1,0,0-3.436Z" transform="translate(-25.129 -159.95)" fill="#707070"/>
      <path id="Tracé_1322" data-name="Tracé 1322" d="M45.743,216H33.718a1.718,1.718,0,1,0,0,3.436H45.743a1.718,1.718,0,1,0,0-3.436Z" transform="translate(-25.129 -185.079)" fill="#707070"/>
      <path id="Tracé_1323" data-name="Tracé 1323" d="M40.589,248H33.718a1.718,1.718,0,1,0,0,3.436h6.871a1.718,1.718,0,1,0,0-3.436Z" transform="translate(-25.129 -210.208)" fill="#707070"/>
      <path id="Tracé_1324" data-name="Tracé 1324" d="M40.589,280H33.718a1.718,1.718,0,1,0,0,3.436h6.871a1.718,1.718,0,1,0,0-3.436Z" transform="translate(-25.129 -235.337)" fill="#707070"/>
      <path id="Tracé_1325" data-name="Tracé 1325" d="M35.436,312H33.718a1.718,1.718,0,0,0,0,3.436h1.718a1.718,1.718,0,0,0,0-3.436Z" transform="translate(-25.129 -260.465)" fill="#707070"/>
      <path id="Tracé_1326" data-name="Tracé 1326" d="M172.025,227.457a8.532,8.532,0,0,1,6.073,2.516,1.718,1.718,0,1,0,2.429-2.429,12.019,12.019,0,1,0,0,17.006,1.718,1.718,0,0,0-2.429-2.429,8.589,8.589,0,1,1-6.074-14.663Z" transform="translate(-125.644 -191.383)" fill="#707070"/>
      <path id="Tracé_1327" data-name="Tracé 1327" d="M284.029,240.463A8.589,8.589,0,0,0,280.6,224h-6.88A1.718,1.718,0,0,0,272,225.718q0,.086.008.171v20.443a1.718,1.718,0,1,0,3.436,0v-18.9H280.6a5.153,5.153,0,1,1,0,10.307,1.718,1.718,0,0,0-1.215,2.933l6.871,6.871a1.718,1.718,0,0,0,2.429-2.429Z" transform="translate(-213.594 -191.361)" fill="#707070"/>
      <path id="Tracé_1328" data-name="Tracé 1328" d="M387.366,224.054a1.719,1.719,0,0,0-1.933.829l-7.088,12.757-7.088-12.757a1.718,1.718,0,0,0-3.219.834v20.614a1.718,1.718,0,0,0,3.436,0V232.346l5.37,9.665a1.718,1.718,0,0,0,3,0l5.37-9.665v13.985a1.718,1.718,0,0,0,3.436,0V225.717A1.717,1.717,0,0,0,387.366,224.054Z" transform="translate(-289.011 -191.36)" fill="#707070"/>
    </g>
    <text id="CRM" transform="translate(136.526 156.983)" fill="#0e5686" font-size="22" font-family="Metropolis-Regular, Metropolis"><tspan x="-24.024" y="0">CRM</tspan></text>
  </g>
</svg>
