<?xml version="1.0" encoding="utf-8"?>
<!-- Generator: Adobe Illustrator 24.0.0, SVG Export Plug-In . SVG Version: 6.00 Build 0)  -->
<svg version="1.1" id="Calque_1" xmlns="http://www.w3.org/2000/svg" xmlns:xlink="http://www.w3.org/1999/xlink" x="0px" y="0px"
	 viewBox="0 0 69.8 66.4" style="enable-background:new 0 0 69.8 66.4;" xml:space="preserve">
<style type="text/css">
	.st0{fill:#FFFFFF;}
</style>
<g id="N_-_Bleu" transform="translate(-20.6 -40.3)">
	<path id="Tracé_1546" class="st0" d="M57.5,53.4c-3.3,0-6,2.6-6.1,5.9v12.1c-0.1,5.2-4.4,9.3-9.6,9.2c-5-0.1-9.1-4.2-9.2-9.2v-2.7
		l-12.1,2.7c0.2,11.9,10.1,21.3,21.9,21c11.5-0.2,20.8-9.5,21-21V59.3C63.5,56,60.8,53.4,57.5,53.4C57.5,53.4,57.5,53.4,57.5,53.4z"
		/>
	<path id="Tracé_1547" class="st0" d="M89.2,105c0,0.4-0.3,0.7-0.7,0.7c0,0,0,0,0,0h-1.9c-0.4,0-0.7-0.3-0.7-0.7c0,0,0,0,0,0v-0.1
		c0-0.4,0.3-0.7,0.7-0.7c0,0,0,0,0,0h1.9c0.4,0,0.7,0.3,0.7,0.7L89.2,105z M88.6,99.7c0,0.8-0.6,1.4-1.4,1.4s-1.4-0.6-1.4-1.4v-0.1
		c0-0.8,0.6-1.4,1.4-1.4s1.4,0.6,1.4,1.4V99.7z M90.4,105v-0.1c0-0.9-0.8-1.7-1.7-1.7c0,0-0.1,0-0.1,0h-1.7
		c-0.3-0.1-0.4-0.3-0.4-0.6c0-0.3,0.2-0.5,0.4-0.6c0.1,0,0.3,0,0.4,0c1.3,0.1,2.4-0.9,2.5-2.2c0,0,0-0.1,0-0.1v-2.3
		c0-0.1,0-0.1-0.1-0.1c0,0,0,0,0,0h-0.7c-0.1,0-0.1,0-0.1,0.1c0,0,0,0,0,0v0.4c0,0.2-0.1,0.2-0.3,0.1c-0.3-0.4-0.8-0.6-1.3-0.6
		c-1.3-0.1-2.4,0.9-2.5,2.2c0,0,0,0.1,0,0.1v0.1c0,0.7,0.3,1.4,0.9,1.9c0.1,0,0.1,0.1,0,0.2c0,0,0,0,0,0c-0.2,0.2-0.3,0.6-0.3,0.9
		c0,0.3,0.1,0.5,0.2,0.8c0,0.1,0,0.1-0.1,0.2c-0.5,0.3-0.8,0.8-0.8,1.3v0.1c0,1,0.8,1.7,1.7,1.7c0,0,0.1,0,0.1,0h1.9
		c0.9,0.1,1.8-0.6,1.8-1.6C90.4,105.1,90.4,105,90.4,105 M83.3,103.4v-3.8c0-1.3-1-2.3-2.2-2.4c-0.1,0-0.2,0-0.3,0
		c-0.5,0-1,0.2-1.3,0.6c-0.1,0.1-0.2,0.1-0.2-0.1v-0.4c0-0.1,0-0.1-0.1-0.1c0,0,0,0,0,0h-0.7c-0.1,0-0.1,0-0.1,0.1c0,0,0,0,0,0v6
		c0,0.1,0,0.1,0.1,0.1c0,0,0,0,0,0h0.8c0.1,0,0.1,0,0.1-0.1c0,0,0,0,0,0v-3.8c0-0.8,0.6-1.4,1.4-1.4c0,0,0,0,0,0
		c0.8,0,1.4,0.6,1.4,1.4v3.8c0,0.1,0,0.1,0.1,0.1c0,0,0,0,0,0h0.8C83.3,103.5,83.3,103.4,83.3,103.4 M76.4,103.3v-6
		c0-0.1,0-0.1-0.1-0.1c0,0,0,0,0,0h-0.8c-0.1,0-0.1,0-0.1,0.1c0,0,0,0,0,0v6c0,0.1,0,0.1,0.1,0.1c0,0,0,0,0,0h0.8
		C76.4,103.5,76.4,103.4,76.4,103.3C76.4,103.4,76.4,103.4,76.4,103.3 M76.6,95.1c0-0.4-0.3-0.7-0.7-0.7c-0.4,0-0.7,0.3-0.7,0.7
		c0,0.4,0.3,0.7,0.7,0.7C76.3,95.8,76.6,95.5,76.6,95.1C76.6,95.1,76.6,95.1,76.6,95.1 M74.1,103.5v-0.7c0-0.1,0-0.1-0.1-0.1
		c0,0,0,0,0,0c-0.7-0.1-1.2-0.7-1.2-1.4v-3c0-0.1,0-0.1,0.1-0.1h1c0.1,0,0.1,0,0.1-0.1c0,0,0,0,0,0v-0.7c0-0.1,0-0.1-0.1-0.1
		c0,0,0,0,0,0h-1c-0.1,0-0.1,0-0.1-0.1c0,0,0,0,0,0v-1c0-0.1,0-0.1-0.1-0.1c0,0,0,0,0,0h-0.3c0,0-0.1,0-0.1,0l-1.6,1.7V98
		c0,0.1,0,0.1,0.1,0.1c0,0,0,0,0,0h0.8c0.1,0,0.1,0,0.1,0.1c0,0,0,0,0,0v3c0,0.7,0.3,1.4,0.8,1.8c0.4,0.3,0.9,0.5,1.4,0.5
		C74,103.6,74.1,103.6,74.1,103.5C74.1,103.5,74.1,103.5,74.1,103.5 M69.7,103.3v-8.6c0-0.1,0-0.1-0.1-0.1c0,0,0,0,0,0h-0.8
		c-0.1,0-0.1,0-0.1,0.1c0,0,0,0,0,0v8.6c0,0.1,0,0.1,0.1,0.1c0,0,0,0,0,0h0.8C69.6,103.5,69.7,103.4,69.7,103.3
		C69.7,103.4,69.7,103.4,69.7,103.3 M66.7,103.3v-6c0-0.1,0-0.1-0.1-0.1c0,0,0,0,0,0h-0.8c-0.1,0-0.1,0-0.1,0.1c0,0,0,0,0,0v3.8
		c0,0.8-0.7,1.4-1.4,1.4c-0.7,0-1.3-0.6-1.4-1.4v-3.8c0-0.1,0-0.1-0.1-0.1c0,0,0,0,0,0h-0.8c-0.1,0-0.1,0-0.1,0.1c0,0,0,0,0,0v3.8
		c0,1.3,1,2.3,2.2,2.4c0.1,0,0.2,0,0.3,0c0.5,0,1-0.2,1.3-0.6c0-0.1,0.1-0.1,0.2,0c0,0,0.1,0.1,0.1,0.1v0.4c0,0.1,0,0.1,0.1,0.1
		c0,0,0,0,0,0h0.7C66.6,103.5,66.7,103.4,66.7,103.3 M60.3,101.6c0-1.1-0.9-1.5-2-1.7c-1-0.2-1.9-0.3-1.9-1c0-0.5,0.3-0.9,1.1-0.9
		H58c0.5,0,1,0.3,1.3,0.8c0,0.1,0.1,0.1,0.2,0.1c0,0,0,0,0,0l0.7-0.3c0.1,0,0.1-0.1,0.1-0.2c0,0,0,0,0,0c-0.1-0.3-0.3-0.5-0.6-0.7
		c-0.5-0.3-1-0.5-1.6-0.5h-0.4c-1.3,0-2.2,0.6-2.2,1.9c0,1.2,1,1.6,1.9,1.8c1,0.2,1.9,0.3,1.9,1c0,0.5-0.4,1-1.2,1h-0.4
		c-0.5,0-1-0.3-1.3-0.8c0-0.1-0.1-0.1-0.2-0.1c0,0,0,0,0,0l-0.7,0.3c-0.1,0-0.1,0.1-0.1,0.2c0.1,0.3,0.3,0.5,0.5,0.7
		c0.5,0.4,1.1,0.6,1.7,0.6H58c1.1,0.1,2.1-0.6,2.3-1.7C60.3,101.8,60.3,101.7,60.3,101.6 M53.9,103.3v-3.8c0-1.3-1-2.3-2.2-2.4
		c-0.1,0-0.2,0-0.3,0c-0.5,0-1,0.2-1.3,0.6c-0.1,0.1-0.2,0.1-0.2-0.1v-0.4c0-0.1,0-0.1-0.1-0.1c0,0,0,0,0,0H49c-0.1,0-0.1,0-0.1,0.1
		v6c0,0.1,0,0.1,0.1,0.1c0,0,0,0,0,0h0.8c0.1,0,0.1,0,0.1-0.1c0,0,0,0,0,0v-3.8c0-0.8,0.6-1.4,1.4-1.4c0,0,0,0,0,0
		c0.8,0,1.4,0.6,1.4,1.4v3.8c0,0.1,0,0.1,0.1,0.1c0,0,0,0,0,0h0.8C53.8,103.5,53.9,103.4,53.9,103.3 M46.1,101.3
		c0,0.8-0.6,1.4-1.4,1.4c-0.7,0-1.3-0.6-1.4-1.3v-2c0-0.8,0.6-1.4,1.4-1.4c0.7,0,1.3,0.6,1.4,1.3V101.3z M47.2,101.3v-1.9
		c-0.1-1.4-1.3-2.4-2.7-2.3c-1.3,0.1-2.2,1.1-2.3,2.3v1.9c0.1,1.4,1.3,2.4,2.7,2.3C46.1,103.5,47.1,102.5,47.2,101.3 M41,102.4
		c0-0.1,0-0.1,0-0.2c0,0,0,0,0,0l-0.8-0.4c-0.1,0-0.1,0-0.2,0c0,0,0,0,0,0c-0.2,0.5-0.7,0.8-1.3,0.8c-0.7,0-1.4-0.5-1.4-1.3
		c0,0,0-0.1,0-0.1v-1.9c0-0.7,0.5-1.4,1.3-1.4c0,0,0.1,0,0.1,0c0.5,0,1,0.3,1.3,0.8c0,0.1,0.1,0.1,0.2,0.1c0,0,0,0,0,0l0.8-0.4
		c0.1,0,0.1-0.1,0.1-0.2c0,0,0,0,0,0c-0.1-0.3-0.3-0.5-0.5-0.7C40,97.2,39.4,97,38.8,97c-1.3-0.1-2.4,0.9-2.5,2.1c0,0.1,0,0.1,0,0.2
		v1.9c0,1.3,1,2.3,2.3,2.4c0.1,0,0.2,0,0.2,0c0.6,0,1.2-0.2,1.7-0.6C40.7,102.9,40.9,102.6,41,102.4 M32.9,103.3v-1.2
		c0-0.1,0-0.1-0.1-0.1c0,0,0,0,0,0h-3.4c-0.1,0-0.1,0-0.1-0.1c0,0,0,0,0,0v-7.1c0-0.1,0-0.1-0.1-0.1c0,0,0,0,0,0h-1.3
		c-0.1,0-0.1,0-0.1,0.1v8.6c0,0.1,0,0.1,0.1,0.1c0,0,0,0,0,0h5C32.8,103.5,32.9,103.4,32.9,103.3 M25.8,101v-6.3
		c0-0.1,0-0.1-0.1-0.1c0,0,0,0,0,0h-1.4c-0.1,0-0.1,0-0.1,0.1c0,0,0,0,0,0v6.4c0,0.6-0.4,1-1,1c0,0,0,0,0,0c-0.4,0-0.8-0.2-1-0.8
		c0-0.1-0.1-0.1-0.1-0.1c-0.1,0-0.2,0.1-0.3,0.1l-1.1,0.5c-0.1,0-0.1,0.1-0.1,0.1c0.1,0.2,0.2,0.4,0.4,0.6c0.5,0.7,1.3,1.1,2.2,1.1
		C24.6,103.6,25.8,102.4,25.8,101"/>
	<path id="Tracé_1548" class="st0" d="M78.5,71.4V59.3c0-0.6-0.1-1.2-0.3-1.7c-1.3-8.5-7.7-15.4-16.1-17.3c3.1,2.5,3.6,7.1,1,10.2
		c-0.6,0.7-1.3,1.4-2.2,1.8c3.5,1.4,5.8,4.8,5.8,8.6v10.5c-0.1,11.5,9.3,21,20.8,21h2.8l-2.8-11.8C82.6,80.5,78.5,76.4,78.5,71.4
		C78.5,71.4,78.5,71.4,78.5,71.4z"/>
	<path id="Tracé_1549" class="st0" d="M57.7,41.3c-2.6,0-4.7,2-4.7,4.6s2,4.7,4.6,4.7c2.6,0,4.7-2,4.7-4.6c0,0,0,0,0-0.1
		C62.3,43.4,60.3,41.3,57.7,41.3z"/>
</g>
</svg>
