<svg id="Groupe_2122" data-name="Groupe 2122" xmlns="http://www.w3.org/2000/svg" width="494.492" height="493.257" viewBox="0 0 494.492 493.257">
  <path id="puzzle_piece_jl" d="M326.682,181.651c11.543,11.653,28,12.979,41.533,3.259,4.584-3.314,9.389-5.689,15.078-5.854s9.168,2.872,9.168,8.561q0,60.642-.221,121.229c0,6.241-3.093,8.782-10,8.726-38.826-.055-77.6.111-116.424-.387-12.868-.166-13.752,7.125-10.6,15.575,1.381,3.756,3.977,6.683,5.965,10,8.34,14.194,5.468,31.26-7.014,41.091a32.514,32.514,0,0,1-42.748-1.823c-12.04-11.6-13.476-28.388-3.59-41.809a30.361,30.361,0,0,0,5.468-11.322c1.657-7.622-1.436-11.653-9.168-11.653-21.1-.11-42.2-.11-63.238-.166-18.447-.055-36.838-.055-55.285-.11-7.953,0-10.328-2.485-10.328-10.549q.083-58.488.166-116.976c0-9.113-3.535-12.206-12.482-10.825-4.474.663-8.284,2.706-11.985,5.3-14.028,9.886-29.493,8.837-41.091-2.43-11.322-10.991-13.089-27.559-4.418-41.2a30.889,30.889,0,0,1,43.8-8.561c4.86,3.314,9.72,6.462,15.851,6.738,7.511.331,10.383-2.264,10.383-9.831q.166-58.737.221-117.473C75.719,2.1,77.873-.054,87.041,0L204.017.332c8.34,0,11.488,3.977,9.941,12.151a29.377,29.377,0,0,1-5.468,11.93c-8.726,11.93-8.837,25.792-.442,37.446,8.063,11.212,22.865,15.851,36.507,11.488a32.185,32.185,0,0,0,22.037-30.1c.11-7.677-3.148-14.028-7.4-19.993-3.148-4.418-5.081-9.334-4.86-14.857.166-4.8,2.761-7.511,7.566-7.9,2.1-.166,4.253-.055,6.351-.055q56.334.166,112.723.276c10.052,0,11.93,1.878,11.93,11.653q-.083,57.908-.166,115.872c0,9.389-4.363,12.592-13.586,10.494-5.026-1.16-8.837-4.308-13.034-6.848-14.194-8.726-31.7-5.689-41.809,7.29A31.891,31.891,0,0,0,326.682,181.651Z" transform="matrix(0.951, -0.309, 0.309, 0.951, 0, 121.413)" fill="#398caf"/>
  <g id="question_mark" transform="translate(172.806 134.114)">
    <path id="Tracé_1453" data-name="Tracé 1453" d="M24,117.315v-8.8a7.211,7.211,0,0,0,.178-.955c.244-2.4.378-4.82.733-7.2A86.988,86.988,0,0,1,37.037,66.543a89,89,0,0,1,38.934-34.8,86.01,86.01,0,0,1,27.207-7.618c2.11-.222,4.2-.422,6.308-.622h8.129c.4.067.777.155,1.177.2,2.976.333,6,.489,8.951.977,20.145,3.376,37.38,12.46,51.216,27.518,17.835,19.389,25.586,42.4,23.5,68.674a80.49,80.49,0,0,1-8.729,30.961c-14.392,27.763-36.935,44.509-67.941,49.44a83.007,83.007,0,0,1-35.048-2.021c-23.787-6.485-42-20.411-54.615-41.577a85.653,85.653,0,0,1-11.5-34.492C24.422,121.224,24.222,119.27,24,117.315Zm89.484-83.71c-43.443-.067-79.268,35.736-79.334,79.268-.067,43.31,35.669,79.046,79.179,79.157,43.31.111,78.535-35.425,78.868-79.2C192.53,69.43,156.861,33.694,113.484,33.606Z" transform="translate(-24 -23.5)" fill="#fff"/>
    <path id="Tracé_1454" data-name="Tracé 1454" d="M279.761,196.6c.022-14.681,6-25.719,16.3-34.648a39.324,39.324,0,0,1,3.42-2.576c1.888-1.31,2.2-4.309.622-6.463a5.515,5.515,0,0,0-6.263-1.954A5.324,5.324,0,0,0,289.956,156a15.963,15.963,0,0,1-10.839,14.659c-8.662,3.065-19.19-3.287-20.367-12.393a31.118,31.118,0,0,1,3.021-17.5c5.664-12.038,15.236-19.056,28.34-21.011,12.5-1.866,23.387,1.821,32.116,10.972,13.548,14.214,13.9,36.38.2,50.506-2.154,2.221-4.753,4-7.063,6.086-2.021,1.821-3.665,3.931-4.02,6.73-.178,1.444-.067,2.932-.111,4.4a16.118,16.118,0,0,1-12.793,15.17,15.946,15.946,0,0,1-18.39-12.993C279.806,199.064,279.828,197.443,279.761,196.6Zm9.728-.866c0,.911-.044,1.843,0,2.754a5.444,5.444,0,0,0,4.753,5.219c3,.267,5.553-1.377,6.13-4.153a20.388,20.388,0,0,0,.222-4.042,20.018,20.018,0,0,1,1.266-7.307,25.083,25.083,0,0,1,8.951-11.016,23.752,23.752,0,0,0,6.086-6.552c4.553-7.218,4.575-14.947,2.2-22.743-3.531-11.616-14.77-18.856-27.119-17.879a25.892,25.892,0,0,0-23.809,25.63,6.433,6.433,0,0,0,.8,3,5.644,5.644,0,0,0,6.308,2.443c2.51-.689,3.976-2.687,4.042-5.6.178-9,8.729-17.3,18.768-15.081,11.105,2.443,16.746,15.658,9.284,24.92-1.533,1.91-3.687,3.309-5.575,4.908C294.042,176.965,289.489,185.249,289.489,195.733Z" transform="translate(-206.424 -98.008)" fill="#fff"/>
    <path id="Tracé_1455" data-name="Tracé 1455" d="M370.456,591c8.329-.022,15.5,7.285,15.547,15.836a15.87,15.87,0,0,1-15.525,15.7c-8.462.022-15.836-7.152-15.88-15.414A16.068,16.068,0,0,1,370.456,591Zm.089,10.172a5.631,5.631,0,0,0-5.819,5.686,5.551,5.551,0,0,0,5.641,5.508,5.76,5.76,0,0,0,5.486-5.375A5.561,5.561,0,0,0,370.545,601.172Z" transform="translate(-281.172 -464.958)" fill="#fff"/>
  </g>
</svg>
