<?xml version="1.0" encoding="utf-8"?>
<!-- Generator: Adobe Illustrator 25.2.1, SVG Export Plug-In . SVG Version: 6.00 Build 0)  -->
<svg version="1.1" id="Capa_1" xmlns="http://www.w3.org/2000/svg" xmlns:xlink="http://www.w3.org/1999/xlink" x="0px" y="0px"
	 viewBox="0 0 511 511" style="enable-background:new 0 0 511 511;" xml:space="preserve">
<style type="text/css">
	.st0{fill:#CFE3F9;}
	.st1{fill:#B9D8EF;}
	.st2{opacity:0.43;}
	.st3{display:none;}
</style>
<g>
	<circle class="st0" cx="328" cy="345.2" r="140.8"/>
	<circle class="st1" cx="328" cy="345.2" r="101.8"/>
	<g class="st2">
		<path class="st1" d="M270.8,464.5c-45.6-21.9-75.1-68.7-75.1-119.3c0-72.9,59.3-132.2,132.2-132.2c32.6,0,63.9,12,88.2,33.7
			c4.2,3.8,4.6,10.2,0.8,14.4c-3.8,4.2-10.2,4.6-14.4,0.8c-20.5-18.4-47-28.5-74.5-28.5c-61.6,0-111.8,50.1-111.8,111.8
			c0,42.7,24.9,82.3,63.5,100.8c5.1,2.4,7.2,8.6,4.8,13.6C282,464.8,275.8,466.9,270.8,464.5z"/>
	</g>
	<path class="st0" d="M321.6,391.2V353c-11.9-3.4-20.6-8.5-26.2-15.4c-5.6-6.9-8.3-15.3-8.3-25.1c0-10,3.1-18.3,9.4-25.1
		c6.3-6.8,14.6-10.7,25.1-11.7v-9h13.2v9c9.6,1.2,17.3,4.4,23,9.9s9.3,12.7,10.9,21.8l-23,3c-1.4-7.2-5-12-10.9-14.6v35.6
		c14.6,3.9,24.5,9.1,29.8,15.3c5.3,6.3,7.9,14.3,7.9,24.2c0,11-3.3,20.2-10,27.8c-6.6,7.5-15.9,12.1-27.7,13.8v11.1h-13.2V413
		c-10.5-1.3-19-5.2-25.6-11.7c-6.6-6.6-10.7-15.8-12.6-27.8l23.8-2.5c1,4.9,2.8,9,5.5,12.6S318.3,389.6,321.6,391.2z M321.6,295.6
		c-3.6,1.2-6.4,3.3-8.6,6.2s-3.2,6.1-3.2,9.6c0,3.2,1,6.2,2.9,9c1.9,2.8,4.9,5,8.8,6.7V295.6z M334.8,392.4c4.6-0.8,8.3-3,11.1-6.3
		c2.9-3.4,4.3-7.3,4.3-11.9c0-4.1-1.2-7.6-3.6-10.5c-2.4-2.9-6.3-5.2-11.8-6.8V392.4z"/>
</g>
<g>
	<path d="M347.9,350.5c-49.6,5.5-89-16.5-89.4-16.7c-1.3-0.8-2.9-1-4.4-0.6c-0.6,0.2-63.1,16.9-113.3,5.7c-31.3-7-60.9-29-82.5-45.2
		c-2.9-2.2-5.6-4.2-8.2-6.1c-3.5-2.6-9.1-4.7-14.1-6.6c-2.2-0.8-5.3-2-5.9-2.4c-0.6-0.4-0.9-1.1-0.9-1.8v-13.5
		C29.4,252.8,74.1,88.9,81,68.1c0.2-0.2,0.8-0.7,1.3-1l88.4-40.4l28.6,37.2c1.4,1.9,1.3,4.6-0.3,6.4L170.7,102
		c-1.8,2.1-5,2.3-6.9,0.7l-11.4-10.5c-1.3-1.2-3.2-1.6-5-1.3c-1.8,0.3-3.4,1.6-4.2,3.2c-1,1.9-9.6,4.2-18.4,4.2l-2.9-0.3
		c-2.3-0.3-4.5,0.9-5.7,3c-1.1,2-0.9,4.5,0.5,6.4c2.5,3.2,4.4,5.7,5.4,7.2l5.6,96c-3.5,13.6-6.7,17.5-7.5,18.3
		c-2.4,0.7-4.1,2.9-4.1,5.5c0,3.2,2.6,5.8,5.8,5.8c6.6,0,12.2-8.7,16.7-25.5c46.2-34.6,86.5-1.9,89.6,0.7
		c14.7,14.7,15.6,24.5,15.6,24.9c0.1,3.1,2.6,5.7,5.8,5.7c3.2,0,5.8-2.6,5.8-5.8c0-1.3-0.5-12.8-15.5-29.3
		c14.2-17.4,30.3-27.5,48.1-29.6c30.6-3.8,56.4,16.8,56.7,17c2.5,2,6.1,1.7,8.2-0.8c2-2.5,1.7-6.1-0.8-8.2
		c-1.2-1-29.7-23.9-65.3-19.6c-20.8,2.5-39.5,13.8-55.6,33.5c-13.1-8.9-50.5-29-92.4-2.7l-5.2-88.3c-0.1-1-0.3-1.9-0.8-2.7
		c5.2-0.6,11.4-2,15.9-4.9l7.5,6.9c7,5.8,17.2,5.1,23.2-1.7l28.2-31.6c5.2-5.8,5.6-14.7,0.9-21.1l-31.5-41c-1.6-2.1-4.5-2.9-7-1.7
		L77.6,56.5c-1,0.4-5.9,2.8-7.5,7.6C66.8,74,17.5,249.7,17.5,263.4v13.5c0,4.3,1.9,8.3,5.3,11c1.7,1.3,4.2,2.3,8.9,4.1
		c3.8,1.5,9.1,3.5,11.4,5.1c2.6,1.9,5.3,3.9,8.1,6c22.4,16.8,53.2,39.7,86.9,47.2c48.1,10.7,104.5-2.2,116.6-5.3
		c8.1,4.2,37.7,18,76.5,18c5.7,0,11.7-0.3,17.7-1c3.2-0.4,5.5-3.2,5.1-6.4C353.9,352.5,351,350.2,347.9,350.5z"/>
	<path class="st3" d="M319.4,280.2c-0.3-2.9-2.8-5.2-5.8-5.2c-3.2,0-5.8,2.6-5.8,5.8c0,3.9,2.9,17,39.7,23.1c0.3,0.1,0.6,0.1,1,0.1
		c2.8,0,5.2-2,5.7-4.9c0.5-3.2-1.6-6.2-4.8-6.7C323.7,288.2,319.8,281,319.4,280.2z"/>
	<path d="M207.9,310c-76,16.3-108.6-35.7-109.9-38c-1.7-2.7-5.2-3.6-8-2c-2.8,1.6-3.6,5.2-2,8c0.4,0.6,9.6,15.8,29.4,28.7
		c13.6,8.9,34.4,18,62.4,18c9.4,0,19.5-1,30.5-3.4c3.1-0.7,5.1-3.8,4.5-6.9C214.2,311.3,211.1,309.3,207.9,310z"/>
</g>
</svg>
