<?xml version="1.0" encoding="utf-8"?>
<!-- Generator: Adobe Illustrator 25.2.1, SVG Export Plug-In . SVG Version: 6.00 Build 0)  -->
<svg version="1.1" xmlns="http://www.w3.org/2000/svg" xmlns:xlink="http://www.w3.org/1999/xlink" x="0px" y="0px"
	 viewBox="0 0 850.4 850.4" style="enable-background:new 0 0 850.4 850.4;" xml:space="preserve">
<style type="text/css">
	.st0{fill:#CFE3F9;}
	.st1{fill:#FFFFFF;}
	.st2{display:none;}
	.st3{display:inline;}
	.st4{opacity:0.65;}
	.st5{display:inline;clip-path:url(#SVGID_2_);}
	.st6{clip-path:url(#SVGID_4_);}
	.st7{display:inline;clip-path:url(#SVGID_8_);}
	.st8{clip-path:url(#SVGID_10_);}
</style>
<g id="Calque_6">
	<circle class="st0" cx="425" cy="425.5" r="415"/>
	<circle class="st0" cx="803" cy="47.5" r="37"/>
</g>
<g id="Calque_1">
	
		<image style="display:none;overflow:visible;" width="113" height="113" xlink:href="232F1998.png"  transform="matrix(1 0 0 0.9912 -570 202)">
	</image>
	<g>
		<path class="st1" d="M648.4,445.2h-56v-66.2H466.2l-36.9-16.8v-7.7H454v-24.4h-69.2v24.4h24.4l0,9.2l-36.6,15.3H246.2v66.2h-56
			V543h138.5v-97.7h-58v-37.7h101.8l36.7,16.3v21.4h-60.1V543h138.5v-97.7h-58v-21.4l36.7-16.3H568v37.7h-58V543h57.9l0.1,11.2
			H409.2v34.5v2.2h-28.5c-18,0-32.6,14.6-32.6,32.6c0,18,14.6,32.6,32.6,32.6H458c18,0,32.6-14.6,32.6-32.6
			c0-18-14.6-32.6-32.6-32.6h-28.5v-2.2v-10h162.9V543h56V445.2z M306.3,520.6h-93.7v-52.9h93.7V520.6z M465.2,520.6h-93.7v-52.9
			h93.7V520.6z M419.3,405.5l-22.4-10.2l22.4-12.6l22.4,12.6L419.3,405.5z M454,611.2c6.7,0,12.2,5.5,12.2,12.2
			c0,6.7-5.5,12.2-12.2,12.2h-69.2c-6.7,0-12.2-5.5-12.2-12.2c0-6.7,5.5-12.2,12.2-12.2H454z M626,520.6h-93.7v-52.9H626V520.6z"/>
		<g>
			<rect x="303.3" y="256.9" class="st1" width="36.7" height="16.3"/>
			
				<rect x="308.1" y="219.4" transform="matrix(0.8955 0.4451 -0.4451 0.8955 135.6006 -122.2822)" class="st1" width="40.2" height="16.3"/>
			
				<rect x="309.8" y="293.9" transform="matrix(0.902 -0.4317 0.4317 0.902 -98.1629 171.6203)" class="st1" width="38.4" height="16.3"/>
		</g>
		<g>
			
				<rect x="498.8" y="256.9" transform="matrix(-1 -4.488599e-11 4.488599e-11 -1 1034.1727 530.0364)" class="st1" width="36.7" height="16.3"/>
			
				<rect x="490.4" y="219.4" transform="matrix(-0.8955 0.4451 -0.4451 -0.8955 1068.9728 204.1323)" class="st1" width="40.2" height="16.3"/>
			
				<rect x="490.5" y="293.9" transform="matrix(-0.902 -0.4317 0.4317 -0.902 839.0852 794.5464)" class="st1" width="38.4" height="16.3"/>
		</g>
		<path class="st1" d="M419.3,208c-32.6,0-59.1,25.5-59.1,57c0,19,9.6,35.8,24.4,46.1v6.8h12.7h15.8v-28.5v-7.1
			C405,279.7,399,272.1,399,263c0-11.2,9.1-20.4,20.4-20.4s20.4,9.1,20.4,20.4c0,9.1-6,16.7-14.3,19.3v7.1V318h15.8H454v-6.8
			c14.8-10.4,24.4-27.2,24.4-46.1C478.4,233.5,452,208,419.3,208z"/>
	</g>
</g>
<g id="Calque_2" class="st2">
	<g class="st3">
		<path class="st1" d="M323.7,224.6c0,0,2.2-25.6-22.3-25.6c-11.2,0-19.1,10.6-21.2,24.5c-1.9,12.3-1.1,25.6,5.6,32.3
			c3,3,13.2,9.7,18.9,7.8c3.3-1.1,5.4-3.7,6.2-6.1c2.7-8.4-7.3-9.5-9.5-10.6c-6.7-3.3,0.3-13.7,0.3-13.7L323.7,224.6z M298.3,223.5
			c0,0-1-6.8,3.3-7.3s6.5,3.9,5.4,7.3H298.3z"/>
		<path class="st1" d="M372.7,224.6c0,0,2.2-25.6-22.3-25.6c-11.2,0-19.1,10.6-21.2,24.5c-1.9,12.3-1.1,25.6,5.6,32.3
			c3,3,13.2,9.7,18.9,7.8c3.3-1.1,5.4-3.7,6.2-6.1c2.7-8.4-7.3-9.5-9.5-10.6c-6.7-3.3,0.3-13.7,0.3-13.7L372.7,224.6z M347.3,223.5
			c0,0-1-6.8,3.3-7.3c4.3-0.5,6.5,3.9,5.4,7.3H347.3z"/>
		<path class="st1" d="M421.7,224.6c0,0,2.2-25.6-22.3-25.6c-11.2,0-19.1,10.6-21.2,24.5c-1.9,12.3-1.1,25.6,5.6,32.3
			c3,3,13.2,9.7,18.9,7.8c3.3-1.1,5.4-3.7,6.2-6.1c2.7-8.4-7.3-9.5-9.5-10.6c-6.7-3.3,0.3-13.7,0.3-13.7L421.7,224.6z M396.3,223.5
			c0,0-1-6.8,3.3-7.3s6.5,3.9,5.4,7.3H396.3z"/>
		<path class="st1" d="M470.7,224.6c0,0,2.2-25.6-22.3-25.6c-11.2,0-19.1,10.6-21.2,24.5c-1.9,12.3-1.1,25.6,5.6,32.3
			c3,3,13.2,9.7,18.9,7.8c3.3-1.1,5.4-3.7,6.2-6.1c2.7-8.4-7.3-9.5-9.5-10.6c-6.7-3.3,0.3-13.7,0.3-13.7L470.7,224.6z M445.3,223.5
			c0,0-1-6.8,3.3-7.3s6.5,3.9,5.4,7.3H445.3z"/>
		<path class="st1" d="M519.7,224.6c0,0,2.2-25.6-22.3-25.6c-11.2,0-19.1,10.6-21.2,24.5c-1.9,12.3-1.1,25.6,5.6,32.3
			c3,3,13.2,9.7,18.9,7.8c3.3-1.1,5.4-3.7,6.2-6.1c2.7-8.4-7.3-9.5-9.5-10.6c-6.7-3.3,0.3-13.7,0.3-13.7L519.7,224.6z M494.3,223.5
			c0,0-1-6.8,3.3-7.3c4.3-0.5,6.5,3.9,5.4,7.3H494.3z"/>
		<path class="st1" d="M639.6,320.7l-20.6-21.3c-10-10.4-26.4-10.6-36.7-0.5L465.1,414.7c-4.6,4.6-8,10.2-9.9,16.5l-20,66.6
			c-0.7,3.6,2.3,6.8,5.9,6.4l70.4-21.9c6-1.9,11.5-5.2,15.9-9.7l111.8-114.7C649.4,347.7,649.6,331.1,639.6,320.7z M488.5,471.3
			l-13.4,1.9c-0.7,0.1-1.4-0.2-1.9-0.7l-8.2-8.7c-0.5-0.5-0.7-1.3-0.5-2l3-12.1c0.4-1.7,2.5-2.2,3.7-1l18.6,19
			C491,468.8,490.3,471,488.5,471.3z M592.4,378l-82.3,80.2c-1.5,1.5-4,1.5-5.5-0.1l-25.3-26c-1.5-1.5-1.5-4,0.1-5.5l82.3-80.2
			c1.5-1.5,4-1.5,5.5,0.1l25.3,26C594,374,593.9,376.5,592.4,378z M630.4,341.2l-8.5,8.3c-1.5,1.5-4,1.5-5.5-0.1l-25.3-26
			c-1.5-1.5-1.5-4,0.1-5.5l8.5-8.3c1.5-1.5,4-1.5,5.5,0.1l25.3,26C631.9,337.2,631.9,339.7,630.4,341.2z"/>
		<g>
			<path class="st1" d="M338.5,389.9c1.9,4.1,6.7,5.9,10.8,4l18.8-8.7c4.1-1.9,5.9-6.7,4-10.8l-0.4-0.9c-1.9-4.1-6.7-5.9-10.8-4
				l-18.8,8.7c-4.1,1.9-5.9,6.7-4,10.8L338.5,389.9z"/>
			<path class="st1" d="M486.2,506.5l-0.5-0.9c-2.2-3.9-7.2-5.2-11.1-3l-36.6,21.2c-3.9,2.2-5.2,7.2-3,11.1l0.5,0.9
				c2.2,3.9,7.2,5.2,11.1,3l36.6-21.2C487.1,515.4,488.5,510.4,486.2,506.5z"/>
			<path class="st1" d="M431.8,536.6c-2.2-3.9-7.2-5.2-11.1-3L354,572c0,0-0.1,0.1-0.1,0.1c0,0-0.1,0-0.1,0
				c-15.6,0-14.4-12-10.4-17.9c0.1-0.1,0.2-0.2,0.3-0.4l62.2-42.2c1.7-1.1,2.8-2.8,3.3-4.6c6.4-10.7,3.6-27.4-6.3-35.1
				c-5.3-4.1-11.5-6.2-18.5-5.8c-0.4,0-1,0-1.5,0c-2.1,0.1-4.2,0.5-6.2,1.3c-0.1,0-0.3,0.1-0.4,0.1c-2.1,0.6-3.6,1.4-4.6,2.4
				c-2.8,2.3-3.8,6.3-2.2,9.7l0.4,0.9c0.6,1.4,1.6,2.6,2.8,3.6c0.2,0.2,0.5,0.4,0.8,0.6c1.7,1.1,3.8,1.4,5.9,0.5
				c17.9-1.7,13.6,12.4,11.4,15.7c-0.1,0.2-0.2,0.3-0.3,0.5l-55.3,37.5c-1.1,0.6-2.2,1.3-3.4,2.1c-13.7,9.8-12.1,31-0.7,41.4
				c7.1,6.5,19.7,8.6,28.5,5.8c1.1-0.1,2.2-0.4,3.3-1l66.6-38.5c3.9-2.2,5.2-7.2,3-11.1L431.8,536.6z"/>
			<path class="st1" d="M344.9,500.8c0.4-0.1,0.8-0.2,1.1-0.4c1,0,2.1-0.3,3.1-0.7l12.3-5.7c4.1-1.9,5.9-6.7,4-10.8l-0.4-0.9
				c-1.9-4.1-6.7-5.9-10.8-4l-12.3,5.7c-0.1,0-0.2,0.1-0.2,0.1c0,0-0.1,0-0.1,0c-20.9,1.6-18.7-13.7-14.5-20c1.5-2.3,3.1-4,4.6-5.4
				L471,378.2c2.1-0.8,4.3-2.2,6.4-4.3c9.7-10.1,6.1-30.9-4.9-39.8c-6.2-4.9-12.5-8.2-20.4-6.1c-0.8,0.1-1.6,0.3-2.4,0.7l-71,32.8
				c-4.1,1.9-5.9,6.7-4,10.8l0.4,0.9c1.9,4.1,6.7,5.9,10.8,4l67.7-31.3c0.5,0,0.9,0.1,1.4,0.1c12.3,1.1,7.7,14,5.6,17.4
				c-0.3,0.5-0.6,0.9-0.8,1.3l-144.4,83.4c-0.7,0.4-1.2,0.8-1.7,1.3c-14.7,10.4-12.3,33.6,0,44.8
				C321.6,501.4,332.6,504.2,344.9,500.8z"/>
		</g>
		<path class="st1" d="M527.5,456.8v156.6H271.4V312.6h256.2v50.8l17.8-15.2V230.1c0-3.7-3-6.6-6.6-6.6H264.6c-3.7,0-6.6,3-6.6,6.6
			v394.4c0,3.7,3,6.6,6.6,6.6h274.1c3.7,0,6.6-3,6.6-6.6V442.5L527.5,456.8z M271.4,242.4h256.2V277H271.4V242.4z"/>
	</g>
</g>
<g id="Calque_3" class="st2">
	<image style="overflow:visible;" width="95" height="113" xlink:href="232F199F.png"  transform="matrix(1 0 0 0.9912 -445 234)">
	</image>
	<g class="st3">
		<g>
			<rect x="282.3" y="464" class="st1" width="17.9" height="17.9"/>
			<rect x="313.7" y="464" class="st1" width="17.9" height="17.9"/>
			<rect x="345" y="464" class="st1" width="17.9" height="17.9"/>
			<rect x="488.4" y="464" class="st1" width="17.9" height="17.9"/>
			<rect x="519.8" y="464" class="st1" width="17.9" height="17.9"/>
			<rect x="551.1" y="464" class="st1" width="17.9" height="17.9"/>
		</g>
		<polygon class="st1" points="497.4,638.7 497.4,598.4 479.5,598.4 479.5,638.7 371.9,638.7 371.9,598.4 354,598.4 354,638.7 
			318.2,638.7 318.2,656.6 533.2,656.6 533.2,638.7 		"/>
		<path class="st1" d="M613.4,334H485.1l3.2-17c0.1-0.6,0.2-1.2,0.2-1.9v-18c0-2.3-0.8-4.5-2.2-6.2l-59.8-74.8
			c-1.5-1.9-4.4-1.8-5.8,0.1L365,290.8c-1.3,1.7-2,3.8-2,6v18.4c0,0.6,0.1,1.2,0.2,1.8l3.2,17H233.3c-10.1,0-18.3,8.2-18.3,18.3
			v227.7c0,10.1,8.2,18.3,18.3,18.3h380c10.1,0,18.3-8.2,18.3-18.3V352.3C631.7,342.2,623.5,334,613.4,334z M387.8,418.9
			c-4.8,0-8.8-3.9-8.8-8.8s3.9-8.8,8.8-8.8H463c4.9,0,8.8,3.9,8.8,8.8s-4,8.8-8.8,8.8H387.8z M457.3,432.6v58.2h-63.2v-58.2H457.3z
			 M376.1,386v2.3c-10,2.2-17.6,11.1-17.6,21.9c0,10.7,7.5,19.6,17.6,21.9v63.8c0,4.7,3.8,8.4,8.5,8.4h82.2c4.7,0,8.5-3.8,8.5-8.4
			V432c10-2.2,17.6-11.1,17.6-21.9c0-10.7-7.5-19.6-17.6-21.9V386l1.3-7.1h105.7v174.7H264.3V378.8h110.5L376.1,386z M425.1,297.1
			c4.9,0,9,4,9,9c0,4.9-4,9-9,9c-4.9,0-9-4-9-9C416.1,301.1,420.1,297.1,425.1,297.1z M380,301c0-1.6,0.5-3.1,1.4-4.3l32.3-43.3h4.5
			v29c-10.3,2.9-17.9,12.4-17.9,23.7c0,13.6,11,24.6,24.6,24.6c13.6,0,24.6-11,24.6-24.6c0-11.3-7.6-20.8-17.9-23.7v-29h2l34.7,43.4
			c1,1.3,1.6,2.8,1.6,4.5v12.9c0,0.4,0,0.9-0.1,1.3l-9.5,50.8l-3.4,17h-64.4l-3-17l-9.5-50.8c-0.1-0.4-0.1-0.9-0.1-1.3V301z
			 M617.5,566.6c0,10.1-8.2,18.3-18.3,18.3H246.9c-10.1,0-18.3-8.2-18.3-18.3V365.8c0-10.1,8.2-18.3,18.3-18.3h122l2.9,15.7H246.4
			v206.1h353.9V363.2H479.6l2.9-15.7h116.6c10.1,0,18.3,8.2,18.3,18.3V566.6z"/>
		<path class="st1" d="M544.7,214.3c14.8,0,26.9-12,26.9-26.9c0-14.8-12-26.9-26.9-26.9c-11.2,0-20.8,6.9-24.9,16.7H318.7
			c-4-9.8-13.6-16.7-24.9-16.7c-14.8,0-26.9,12-26.9,26.9c0,14.8,12,26.9,26.9,26.9c12.2,0,22.4-8.1,25.7-19.2h45.1
			c-41.3,26.8-50.7,62.4-50.8,77.3h-19.2v49.3h49.3v-49.3h-11.8c8.6-44.9,53-68.3,73.3-77.3H445c20.3,9,64.8,32.4,73.3,77.3h-13.1
			v49.3h49.3v-49.3h-17.9c-0.1-14.9-9.5-50.5-50.8-77.3H519C522.3,206.2,532.6,214.3,544.7,214.3z M544.7,177.9
			c5.3,0,9.6,4.3,9.6,9.6c0,5.3-4.3,9.6-9.6,9.6c-5.3,0-9.6-4.3-9.6-9.6C535.2,182.2,539.4,177.9,544.7,177.9z M293.8,197
			c-5.3,0-9.6-4.3-9.6-9.6c0-5.3,4.3-9.6,9.6-9.6s9.6,4.3,9.6,9.6C303.4,192.7,299.1,197,293.8,197z M328.2,306h-17.9v-17.9h17.9
			V306z M538.8,306h-17.9v-17.9h17.9V306z"/>
	</g>
	<path class="st4" d="M-408,285l-3-15.8c0-0.1,0-0.3,0-0.4v-4.1c0-0.5,0.2-1,0.4-1.3l12.4-16.6c0.3-0.4,1-0.4,1.3,0l13.4,16.7
		c0.3,0.4,0.5,0.9,0.5,1.4v4c0,0.1,0,0.3,0,0.4l-3,15.8H-408z"/>
	<path d="M-396,261.5V255h-3v6.5c-2.3,0.7-4,2.8-4,5.3c0,3,2.5,5.5,5.5,5.5c3,0,5.5-2.5,5.5-5.5C-392,264.2-393.7,262.1-396,261.5z
		 M-397.5,268.8c-1.1,0-2-0.9-2-2c0-1.1,0.9-2,2-2c1.1,0,2,0.9,2,2C-395.5,267.9-396.4,268.8-397.5,268.8z"/>
	<g>
		<path class="st3" d="M-395,255h-1v6.5c2.3,0.7,4,2.8,4,5.3c0,3-2.5,5.5-5.5,5.5c-3,0-5.5-2.5-5.5-5.5c0-2.5,1.7-4.6,4-5.3V255h-1
			l-7,10v4l2,15h15l2-15v-4L-395,255z"/>
		<circle class="st3" cx="-397.5" cy="266.8" r="2"/>
	</g>
</g>
<g id="Calque_4" class="st2">
	<g>
		<defs>
			<rect id="SVGID_1_" x="-461" y="380" width="149" height="112"/>
		</defs>
		<clipPath id="SVGID_2_" class="st3">
			<use xlink:href="#SVGID_1_"  style="overflow:visible;"/>
		</clipPath>
		<g class="st5">
			<defs>
				<rect id="SVGID_3_" x="-1365" y="-31" width="1920" height="1080"/>
			</defs>
			<clipPath id="SVGID_4_">
				<use xlink:href="#SVGID_3_"  style="overflow:visible;"/>
			</clipPath>
			<g class="st6">
				<defs>
					<rect id="SVGID_5_" x="-442" y="380" width="110" height="112"/>
				</defs>
				<clipPath id="SVGID_6_">
					<use xlink:href="#SVGID_5_"  style="overflow:visible;"/>
				</clipPath>
				<g transform="matrix(1 0 0 1 0 0)" style="clip-path:url(#SVGID_6_);">
					
						<image style="overflow:visible;" width="111" height="113" xlink:href="232F1995.png"  transform="matrix(0.991 0 0 0.9912 -442 380)">
					</image>
				</g>
			</g>
		</g>
	</g>
	<g class="st3">
		<path class="st1" d="M521.2,338.7H416.6c-72.8,0-131.8,59-131.8,131.8v0c0,72.8,59,131.8,131.8,131.8H517l93.1,53.7v-88.3
			c26.3-24.1,42.9-58.7,42.9-97.2v0C653,397.7,594,338.7,521.2,338.7z M585,558.9v12v14.9v28.3l-29-16.5c0.1,0,0.2,0,0.3-0.1
			l-30.7-17.7c-1.7,0.1-3.3,0.1-5,0.1H417.2c-60.5,0-109.5-49-109.5-109.5S356.8,361,417.2,361h103.3C581,361,630,410,630,470.5
			C630,506.8,612.3,539,585,558.9z"/>
		<g>
			<path class="st1" d="M286,485.7c-0.7-5.5-1.1-11-1.1-16.7v0c0-3.4,0.2-6.8,0.4-10.2L265,470.4v-28.3v-14.9v-12
				c-27.3-19.9-45-52.1-45-88.4c0-60.5,49-109.5,109.5-109.5h103.3c60.5,0,109.5,49,109.5,109.5c0,4.1-0.2,8.1-0.7,12
				c7.7,1.2,15.2,3.1,22.5,5.6c0.8-5.8,1.2-11.6,1.2-17.6v0c0-72.8-59-131.8-131.8-131.8H328.8C256,194.9,197,254,197,326.8v0
				c0,38.5,16.6,73.1,42.9,97.2v88.3L286,485.7z"/>
		</g>
		<rect x="262.8" y="254.2" class="st1" width="205.1" height="20.9"/>
		<rect x="262.8" y="291.9" class="st1" width="171.6" height="20.9"/>
		<path class="st1" d="M527.1,528.4c0-19.8-11.3-37.2-28.4-47.3c13.5-10.3,22.2-26.5,22.2-44.8c0-31.2-25.3-56.5-56.5-56.5
			c-31.2,0-56.5,25.3-56.5,56.5c0,18.3,8.7,34.5,22.2,44.8c-17.1,10.1-28.4,27.5-28.4,47.3c0,2.1,0.2,4.2,0.5,6.3h-0.5v20.9h125.5
			v-20.9h-0.5C526.9,532.6,527.1,530.5,527.1,528.4z M428.8,436.3c0-19.6,15.9-35.6,35.6-35.6c19.6,0,35.6,15.9,35.6,35.6
			c0,19.6-15.9,35.6-35.6,35.6C444.7,471.9,428.8,455.9,428.8,436.3z M424.8,528.4c0-19.6,17.7-35.6,39.5-35.6
			c21.8,0,39.5,15.9,39.5,35.6c0,2.1-0.3,4.2-0.7,6.3h-77.7C425.1,532.6,424.8,530.5,424.8,528.4z"/>
	</g>
</g>
<g id="Calque_5" class="st2">
	<g>
		<defs>
			<rect id="SVGID_7_" x="-787" y="269" width="149" height="113"/>
		</defs>
		<clipPath id="SVGID_8_" class="st3">
			<use xlink:href="#SVGID_7_"  style="overflow:visible;"/>
		</clipPath>
		<g class="st7">
			<defs>
				<rect id="SVGID_9_" x="-1692" y="-146" width="1920" height="1080"/>
			</defs>
			<clipPath id="SVGID_10_">
				<use xlink:href="#SVGID_9_"  style="overflow:visible;"/>
			</clipPath>
			<g class="st8">
				<defs>
					<rect id="SVGID_11_" x="-769" y="269" width="113" height="113"/>
				</defs>
				<clipPath id="SVGID_12_">
					<use xlink:href="#SVGID_11_"  style="overflow:visible;"/>
				</clipPath>
				<g style="clip-path:url(#SVGID_12_);">
					
						<image style="overflow:visible;" width="114" height="114" xlink:href="232F1996.png"  transform="matrix(0.9912 0 0 0.9912 -769 269)">
					</image>
				</g>
			</g>
		</g>
	</g>
	<g class="st3">
		<path class="st1" d="M540.9,253.6v136.1h58.2V253.6H540.9z M586.7,273.1v97.2v2.8h-33.3v-2.8v-97.2v-4h33.3V273.1z"/>
		<path class="st1" d="M467,285.7v104h58.2v-104H467z M512.8,374.9h-33.3v-74.3h33.3V374.9z"/>
		<path class="st1" d="M616.8,224.5v165.2H675V224.5H616.8z M662.6,248.1v118v7h-33.3v-7v-118v-8.2h33.3V248.1z"/>
		<g>
			<path class="st1" d="M597.9,389.7h-13.4c3.9,13.4,6.3,27.5,6.8,42.1H423.8V264.2c45.8,1.7,87.1,21.1,117.2,51.5v-17.7
				c-33-29.1-76.2-46.8-123.6-46.9c-3.6,0-6.4,2.9-6.4,6.4v180.6c0,3.6,2.9,6.4,6.4,6.4h180.6c3.6,0,6.4-2.9,6.4-6.4
				C604.3,421.5,602,405.2,597.9,389.7z"/>
		</g>
		<path class="st1" d="M345.9,413.9l-63.6,63.6c-0.3,0.3-0.7,0.3-0.9,0l-9.5-9.5c-0.3-0.3-0.3-0.7,0-0.9l63.6-63.6
			c0.3-0.3,0.7-0.3,0.9,0l9.5,9.5C346.2,413.3,346.2,413.7,345.9,413.9z"/>
		<path class="st1" d="M338,442.6c-13.8,0-25,11.2-25,25c0,13.8,11.2,25,25,25s25-11.2,25-25C363,453.8,351.8,442.6,338,442.6z
			 M338,475.9c-4.6,0-8.3-3.7-8.3-8.3c0-4.6,3.7-8.3,8.3-8.3c4.6,0,8.3,3.7,8.3,8.3C346.4,472.2,342.6,475.9,338,475.9z"/>
		<path class="st1" d="M279.8,384.4c-13.8,0-25,11.2-25,25c0,13.8,11.2,25,25,25c13.8,0,25-11.2,25-25
			C304.7,395.5,293.6,384.4,279.8,384.4z M279.8,417.7c-4.6,0-8.3-3.7-8.3-8.3c0-4.6,3.7-8.3,8.3-8.3c4.6,0,8.3,3.7,8.3,8.3
			C288.1,413.9,284.4,417.7,279.8,417.7z"/>
		<g>
			<circle class="st1" cx="475.3" cy="530" r="8.3"/>
			<path class="st1" d="M566.8,588.3L519.2,543c1.2-4.1,1.9-8.5,1.9-13.1c0-25.3-20.5-45.8-45.8-45.8c-25.3,0-45.8,20.5-45.8,45.8
				c0,25.3,20.5,45.8,45.8,45.8c3.9,0,7.6-0.5,11.2-1.4c0.7,1.6,1.7,3,3.1,4.3l45.4,43.1c9.2,8.8,23.9,8.4,32.7-0.8
				C576.4,611.7,576,597.1,566.8,588.3z M446.2,530c0-16.1,13-29.1,29.1-29.1c16.1,0,29.1,13,29.1,29.1c0,16.1-13,29.1-29.1,29.1
				C459.2,559.1,446.2,546.1,446.2,530z M556.5,608.7c-3.7,3.9-9.8,4-13.7,0.3L506.9,575c-3.9-3.7-4-9.8-0.3-13.7
				c3.7-3.9,9.8-4,13.7-0.3l35.9,34.1C560,598.7,560.2,604.8,556.5,608.7z"/>
		</g>
		<rect x="338" y="521.7" class="st1" width="16.6" height="16.6"/>
		<rect x="367.2" y="521.7" class="st1" width="16.6" height="16.6"/>
		<rect x="396.3" y="521.7" class="st1" width="16.6" height="16.6"/>
		<g>
			<path class="st1" d="M217.4,180.5v104H307l64.3,62.4v-62.4v-104H217.4z M358.8,284.5l0,29.1l-25-25L317.2,272h-87.4V193h129v54.1
				h0L358.8,284.5z"/>
			<rect x="246.5" y="209.6" class="st1" width="95.7" height="12.5"/>
			<rect x="246.5" y="238.7" class="st1" width="95.7" height="12.5"/>
		</g>
		<g>
			<path class="st1" d="M398.6,621.8c-87.5,0.1-159.8-68.3-164.7-155.6c-3.9-69.5,36-131.7,96.2-159.2l-9.4-9.1
				c-60.3,29.5-100.9,92.2-99.2,163.3c2.3,94.5,78.3,170.5,172.8,172.8c42.7,1,82.3-13.2,113.6-37.8l-9-8.6
				C471,609,436.1,621.7,398.6,621.8z"/>
			<path class="st1" d="M573.5,465c-1.2-1.2-2.8-1.9-4.5-1.9l-176.6,0V286.5c0-1.7-0.7-3.3-1.9-4.5c-1.2-1.2-2.9-1.8-4.6-1.6
				c-4.9,0.4-9.8,1-14.6,1.7v2.4v9.9c2.9-0.5,5.9-0.9,8.9-1.3v176c0,3.4,2.7,6.1,6.1,6.1l176.1,0c-3.4,29.6-14.5,56.7-31.2,79.3
				l9,8.6c19.7-26.3,32.4-58.4,34.9-93.5C575.3,467.9,574.7,466.2,573.5,465z"/>
		</g>
		<rect x="246.5" y="209.6" class="st1" width="95.7" height="12.5"/>
		<rect x="246.5" y="238.7" class="st1" width="95.7" height="12.5"/>
	</g>
</g>
</svg>
