<?xml version="1.0" encoding="utf-8"?>
<!-- Generator: Adobe Illustrator 25.2.1, SVG Export Plug-In . SVG Version: 6.00 Build 0)  -->
<svg version="1.1" xmlns="http://www.w3.org/2000/svg" xmlns:xlink="http://www.w3.org/1999/xlink" x="0px" y="0px"
	 viewBox="0 0 850.4 850.4" style="enable-background:new 0 0 850.4 850.4;" xml:space="preserve">
<style type="text/css">
	.st0{fill:#087185;}
	.st1{display:none;}
	.st2{display:inline;}
	.st3{opacity:0.65;}
	.st4{display:inline;clip-path:url(#SVGID_2_);}
	.st5{clip-path:url(#SVGID_4_);}
	.st6{fill:#FFFFFF;}
	.st7{display:inline;clip-path:url(#SVGID_8_);}
	.st8{clip-path:url(#SVGID_10_);}
</style>
<g id="Calque_6">
	<circle class="st0" cx="425" cy="425.5" r="415"/>
	<circle class="st0" cx="803" cy="47.5" r="37"/>
</g>
<g id="Calque_1" class="st1">
	<image style="overflow:visible;" width="113" height="113" xlink:href="DA295602.png"  transform="matrix(1 0 0 0.9912 -570 202)">
	</image>
	<g class="st2">
		<path d="M694.2,441.1h-65.9v-77.9H479.8l-43.4-19.7v-9h29v-28.7H384v28.7h28.7l0,10.8l-43.1,18H221.1v77.9h-65.9v115h162.9v-115
			h-68.3v-44.3h119.8l43.1,19.2v25.2h-70.7v115H505v-115h-68.3v-25.2l43.1-19.2h119.8v44.3h-68.3v115h68.2l0.1,13.2H412.8v40.6v2.6
			h-33.5c-21.2,0-38.3,17.2-38.3,38.3s17.2,38.3,38.3,38.3h91c21.2,0,38.3-17.2,38.3-38.3s-17.2-38.3-38.3-38.3h-33.5v-2.6V598
			h191.6v-41.9h65.9V441.1z M291.8,529.7H181.6v-62.3h110.2V529.7z M478.6,529.7H368.4v-62.3h110.2V529.7z M424.7,394.4l-26.4-12
			l26.4-14.8l26.3,14.8L424.7,394.4z M465.5,636.3c7.9,0,14.4,6.4,14.4,14.4s-6.4,14.4-14.4,14.4H384c-7.9,0-14.4-6.4-14.4-14.4
			s6.4-14.4,14.4-14.4H465.5z M667.9,529.7H557.7v-62.3h110.2V529.7z"/>
		<g>
			<rect x="288.2" y="219.5" width="43.1" height="19.2"/>
			<rect x="293.9" y="175.5" transform="matrix(0.8955 0.4451 -0.4451 0.8955 115.5458 -121.9755)" width="47.3" height="19.2"/>
			<rect x="295.9" y="263" transform="matrix(0.902 -0.4317 0.4317 0.902 -86.496 164.1877)" width="45.1" height="19.2"/>
		</g>
		<g>
			
				<rect x="518.2" y="219.5" transform="matrix(-1 -4.490731e-11 4.490731e-11 -1 1079.4409 458.1454)" width="43.1" height="19.2"/>
			<rect x="508.4" y="175.5" transform="matrix(-0.8955 0.4451 -0.4451 -0.8955 1090.7413 113.9258)" width="47.3" height="19.2"/>
			<rect x="508.5" y="263" transform="matrix(-0.902 -0.4317 0.4317 -0.902 892.3633 747.8071)" width="45.1" height="19.2"/>
		</g>
		<path d="M424.7,162c-38.4,0-69.5,30-69.5,67.1c0,22.3,11.3,42.1,28.7,54.3v8h14.9h18.6v-33.5v-8.4c-9.7-3.1-16.8-12-16.8-22.7
			c0-13.2,10.7-24,24-24c13.2,0,24,10.7,24,24c0,10.7-7.1,19.7-16.8,22.7v8.4v33.5h18.6h14.9v-8c17.4-12.2,28.7-31.9,28.7-54.3
			C494.2,192,463.1,162,424.7,162z"/>
	</g>
</g>
<g id="Calque_2" class="st1">
	<g class="st2">
		<path d="M301.9,158c0,0,3.2-37-32.2-37c-16.2,0-27.5,15.3-30.6,35.4c-2.7,17.8-1.6,37,8,46.7c4.3,4.3,19,14,27.4,11.3
			c4.8-1.6,7.8-5.3,9-8.8c3.9-12.1-10.6-13.7-13.8-15.3c-9.7-4.8,0.4-19.8,0.4-19.8L301.9,158z M265.2,156.4c0,0-1.4-9.8,4.8-10.5
			c6.2-0.7,9.4,5.7,7.8,10.5H265.2z"/>
		<path d="M372.7,158c0,0,3.2-37-32.2-37c-16.2,0-27.5,15.3-30.6,35.4c-2.7,17.8-1.6,37,8,46.7c4.3,4.3,19,14,27.4,11.3
			c4.8-1.6,7.8-5.3,9-8.8c3.9-12.1-10.6-13.7-13.8-15.3c-9.7-4.8,0.4-19.8,0.4-19.8L372.7,158z M336,156.4c0,0-1.4-9.8,4.8-10.5
			c6.2-0.7,9.4,5.7,7.8,10.5H336z"/>
		<path d="M443.5,158c0,0,3.2-37-32.2-37c-16.2,0-27.5,15.3-30.6,35.4c-2.7,17.8-1.6,37,8,46.7c4.3,4.3,19,14,27.4,11.3
			c4.8-1.6,7.8-5.3,9-8.8c3.9-12.1-10.6-13.7-13.8-15.3c-9.7-4.8,0.4-19.8,0.4-19.8L443.5,158z M406.8,156.4c0,0-1.4-9.8,4.8-10.5
			c6.2-0.7,9.4,5.7,7.8,10.5H406.8z"/>
		<path d="M514.4,158c0,0,3.2-37-32.2-37c-16.2,0-27.5,15.3-30.6,35.4c-2.7,17.8-1.6,37,8,46.7c4.3,4.3,19,14,27.4,11.3
			c4.8-1.6,7.8-5.3,9-8.8c3.9-12.1-10.6-13.7-13.8-15.3c-9.7-4.8,0.4-19.8,0.4-19.8L514.4,158z M477.6,156.4c0,0-1.4-9.8,4.8-10.5
			c6.2-0.7,9.4,5.7,7.8,10.5H477.6z"/>
		<path d="M585.2,158c0,0,3.2-37-32.2-37c-16.2,0-27.5,15.3-30.6,35.4c-2.7,17.8-1.6,37,8,46.7c4.3,4.3,19,14,27.4,11.3
			c4.8-1.6,7.8-5.3,9-8.8c3.9-12.1-10.6-13.7-13.8-15.3c-9.7-4.8,0.4-19.8,0.4-19.8L585.2,158z M548.4,156.4c0,0-1.4-9.8,4.8-10.5
			c6.2-0.7,9.4,5.7,7.8,10.5H548.4z"/>
		<path d="M758.3,296.8L728.6,266c-14.5-15-38.2-15.3-53-0.7L506.2,432.7c-6.7,6.6-11.6,14.8-14.3,23.8L463,552.7
			c-1,5.2,3.3,9.8,8.5,9.2l101.7-31.7c8.7-2.7,16.5-7.5,22.9-14.1l161.6-165.7C772.5,335.8,772.8,311.8,758.3,296.8z M540,514.3
			l-19.3,2.7c-1,0.1-2-0.2-2.7-1l-11.8-12.6c-0.7-0.8-1-1.9-0.8-2.9l4.3-17.5c0.6-2.4,3.6-3.2,5.3-1.5l26.8,27.4
			C543.6,510.8,542.6,514,540,514.3z M690.1,379.5L571.2,495.5c-2.2,2.2-5.8,2.1-8-0.1l-36.6-37.6c-2.2-2.2-2.1-5.8,0.1-8
			l118.9-115.9c2.2-2.2,5.8-2.1,8,0.1l36.6,37.6C692.4,373.8,692.3,377.4,690.1,379.5z M745,326.4l-12.3,12c-2.2,2.2-5.8,2.1-8-0.1
			l-36.6-37.6c-2.2-2.2-2.1-5.8,0.1-8l12.3-12c2.2-2.2,5.8-2.1,8,0.1l36.6,37.6C747.2,320.7,747.2,324.2,745,326.4z"/>
		<g>
			<path d="M323.4,396.8c2.7,5.9,9.7,8.5,15.6,5.7l27.2-12.6c5.9-2.7,8.5-9.7,5.7-15.6l-0.6-1.3c-2.7-5.9-9.7-8.5-15.6-5.7
				l-27.2,12.6c-5.9,2.7-8.5,9.7-5.7,15.6L323.4,396.8z"/>
			<path d="M536.7,565.3L536,564c-3.2-5.6-10.4-7.5-16.1-4.3L467,590.3c-5.6,3.2-7.5,10.4-4.3,16.1l0.7,1.3
				c3.2,5.6,10.4,7.5,16.1,4.3l52.9-30.6C538,578.1,540,570.9,536.7,565.3z"/>
			<path d="M458,608.7c-3.2-5.6-10.4-7.5-16.1-4.3L345.7,660c-0.1,0-0.1,0.1-0.2,0.1c0,0-0.1,0-0.1,0c-22.5,0-20.8-17.3-15.1-25.9
				c0.1-0.2,0.2-0.3,0.4-0.5l89.9-61c2.4-1.7,4-4.1,4.7-6.7c9.3-15.5,5.2-39.6-9.2-50.7c-7.7-5.9-16.6-8.9-26.8-8.4
				c-0.6,0-1.4-0.1-2.2,0c-3.1,0.1-6.1,0.8-9,1.9c-0.2,0.1-0.4,0.1-0.6,0.2c-3.1,0.9-5.2,2.1-6.7,3.5c-4,3.3-5.5,9-3.2,14l0.6,1.3
				c0.9,2,2.3,3.8,4,5.2c0.3,0.3,0.7,0.6,1.2,0.8c2.5,1.6,5.5,2.1,8.6,0.8c25.9-2.4,19.6,17.9,16.5,22.6c-0.2,0.2-0.3,0.5-0.5,0.7
				l-79.9,54.2c-1.6,0.8-3.2,1.9-4.9,3.1c-19.8,14.1-17.5,44.7-0.9,59.8c10.3,9.3,28.4,12.4,41.2,8.3c1.6-0.2,3.2-0.6,4.7-1.5
				l96.3-55.6c5.6-3.2,7.5-10.4,4.3-16.1L458,608.7z"/>
			<path d="M332.5,557.1c0.6-0.2,1.1-0.4,1.7-0.6c1.5-0.1,3-0.4,4.5-1.1l17.8-8.2c5.9-2.7,8.5-9.7,5.7-15.6l-0.6-1.3
				c-2.7-5.9-9.7-8.5-15.6-5.7l-17.8,8.2c-0.1,0.1-0.2,0.1-0.3,0.2c0,0-0.1,0-0.1,0c-30.2,2.3-27-19.8-20.9-29
				c2.2-3.3,4.5-5.8,6.6-7.8l201.4-116.3c3.1-1.2,6.2-3.1,9.2-6.2c14.1-14.6,8.9-44.7-7-57.5c-8.9-7.2-18-11.9-29.4-8.8
				c-1.1,0.2-2.3,0.5-3.4,1l-102.6,47.4c-5.9,2.7-8.5,9.7-5.7,15.6l0.6,1.3c2.7,5.9,9.7,8.5,15.6,5.7l97.8-45.2
				c0.7,0.1,1.3,0.1,2,0.2c17.7,1.6,11.1,20.2,8,25.1c-0.4,0.7-0.8,1.3-1.2,1.9L290,480.8c-0.9,0.5-1.8,1.2-2.5,1.9
				c-21.2,15.1-17.7,48.6,0,64.7C298.9,557.8,314.8,561.9,332.5,557.1z"/>
		</g>
		<path d="M596.4,493.4v226.2H226.3V285.1h370.1v73.4l25.7-22V166c0-5.3-4.3-9.6-9.6-9.6h-396c-5.3,0-9.6,4.3-9.6,9.6v569.8
			c0,5.3,4.3,9.6,9.6,9.6h396c5.3,0,9.6-4.3,9.6-9.6v-263L596.4,493.4z M226.3,183.8h370.1v49.9H226.3V183.8z"/>
	</g>
</g>
<g id="Calque_3" class="st1">
	<image style="overflow:visible;" width="95" height="113" xlink:href="DA295606.png"  transform="matrix(1 0 0 0.9912 -445 234)">
	</image>
	<g class="st2">
		<g>
			<rect x="227.4" y="525" width="25.3" height="25.3"/>
			<rect x="271.7" y="525" width="25.3" height="25.3"/>
			<rect x="316" y="525" width="25.3" height="25.3"/>
			<rect x="518.4" y="525" width="25.3" height="25.3"/>
			<rect x="562.7" y="525" width="25.3" height="25.3"/>
			<rect x="607" y="525" width="25.3" height="25.3"/>
		</g>
		<polygon points="531,771.7 531,714.8 505.7,714.8 505.7,771.7 353.9,771.7 353.9,714.8 328.6,714.8 328.6,771.7 278,771.7 
			278,797 581.7,797 581.7,771.7 		"/>
		<path d="M694.8,341.5H513.7l4.5-24c0.2-0.9,0.2-1.7,0.2-2.6v-25.4c0-3.2-1.1-6.3-3.1-8.8l-84.5-105.6c-2.1-2.6-6.2-2.6-8.2,0.1
			l-78.6,105.2c-1.8,2.5-2.8,5.4-2.8,8.5v26c0,0.9,0.1,1.7,0.2,2.5l4.5,24H158.2c-14.3,0-25.8,11.6-25.8,25.8v321.5
			c0,14.3,11.6,25.8,25.8,25.8h536.6c14.3,0,25.8-11.6,25.8-25.8V367.4C720.7,353.1,709.1,341.5,694.8,341.5z M376.3,461.4
			c-6.8,0-12.4-5.5-12.4-12.4c0-6.8,5.5-12.4,12.4-12.4h106.2c6.9,0,12.5,5.5,12.5,12.4c0,6.8-5.6,12.4-12.5,12.4H376.3z
			 M474.5,480.7v82.2h-89.2v-82.2H474.5z M359.8,414.9v3.3c-14.2,3.1-24.8,15.7-24.8,30.9c0,15.1,10.6,27.7,24.8,30.9V570
			c0,6.6,5.4,11.9,12,11.9H488c6.6,0,12-5.3,12-11.9v-90.1c14.2-3.1,24.8-15.7,24.8-30.9c0-15.1-10.6-27.7-24.8-30.9v-3.3l1.9-10.1
			h149.2v246.7H201.9V404.8h156L359.8,414.9z M429,289.3c7,0,12.7,5.7,12.7,12.7c0,7-5.7,12.7-12.7,12.7c-7,0-12.7-5.7-12.7-12.7
			C416.3,295,422,289.3,429,289.3z M365.4,294.9c0-2.2,0.7-4.3,2-6.1l45.7-61.2h6.4v40.9c-14.6,4.1-25.3,17.5-25.3,33.5
			c0,19.2,15.6,34.8,34.8,34.8c19.2,0,34.8-15.6,34.8-34.8c0-15.9-10.7-29.3-25.3-33.5v-40.9h2.8l49.1,61.3c1.4,1.8,2.2,4,2.2,6.3
			v18.2c0,0.6-0.1,1.3-0.2,1.9l-13.5,71.7l-4.7,24h-90.9l-4.2-24l-13.5-71.8c-0.1-0.6-0.2-1.2-0.2-1.8V294.9z M700.7,669.9
			c0,14.3-11.6,25.8-25.9,25.8H177.4c-14.3,0-25.9-11.6-25.9-25.8V386.3c0-14.3,11.6-25.8,25.9-25.8h172.3l4.2,22.1H176.6v291h499.8
			v-291H506l4.2-22.1h164.7c14.3,0,25.9,11.6,25.9,25.8V669.9z"/>
		<path d="M597.9,172.5c21,0,38-17,38-38s-17-38-38-38c-15.9,0-29.4,9.7-35.1,23.6h-284c-5.7-13.8-19.2-23.6-35.1-23.6
			c-21,0-38,17-38,38s17,38,38,38c17.2,0,31.7-11.4,36.4-27.1h63.7c-58.3,37.8-71.5,88.2-71.7,109.1h-27.2v69.6h69.6v-69.6h-16.7
			c12.1-63.4,74.9-96.4,103.5-109.1h56c28.6,12.7,91.4,45.8,103.5,109.1h-18.5v69.6h69.6v-69.6h-25.3c-0.2-21-13.4-71.3-71.7-109.1
			h46.9C566.2,161.1,580.7,172.5,597.9,172.5z M597.9,121c7.5,0,13.5,6,13.5,13.5c0,7.5-6,13.5-13.5,13.5c-7.5,0-13.5-6-13.5-13.5
			C584.4,127.1,590.4,121,597.9,121z M243.6,148c-7.5,0-13.5-6-13.5-13.5c0-7.5,6-13.5,13.5-13.5s13.5,6,13.5,13.5
			C257.1,142,251.1,148,243.6,148z M292.2,302h-25.3v-25.3h25.3V302z M589.6,302h-25.3v-25.3h25.3V302z"/>
	</g>
	<path class="st3" d="M-408,285l-3-15.8c0-0.1,0-0.3,0-0.4v-4.1c0-0.5,0.2-1,0.4-1.3l12.4-16.6c0.3-0.4,1-0.4,1.3,0l13.4,16.7
		c0.3,0.4,0.5,0.9,0.5,1.4v4c0,0.1,0,0.3,0,0.4l-3,15.8H-408z"/>
	<path d="M-396,261.5V255h-3v6.5c-2.3,0.7-4,2.8-4,5.3c0,3,2.5,5.5,5.5,5.5c3,0,5.5-2.5,5.5-5.5C-392,264.2-393.7,262.1-396,261.5z
		 M-397.5,268.8c-1.1,0-2-0.9-2-2c0-1.1,0.9-2,2-2c1.1,0,2,0.9,2,2C-395.5,267.9-396.4,268.8-397.5,268.8z"/>
	<g>
		<path class="st2" d="M-395,255h-1v6.5c2.3,0.7,4,2.8,4,5.3c0,3-2.5,5.5-5.5,5.5c-3,0-5.5-2.5-5.5-5.5c0-2.5,1.7-4.6,4-5.3V255h-1
			l-7,10v4l2,15h15l2-15v-4L-395,255z"/>
		<circle class="st2" cx="-397.5" cy="266.8" r="2"/>
	</g>
</g>
<g id="Calque_4">
	<g class="st1">
		<defs>
			<rect id="SVGID_1_" x="-461" y="380" width="149" height="112"/>
		</defs>
		<clipPath id="SVGID_2_" class="st2">
			<use xlink:href="#SVGID_1_"  style="overflow:visible;"/>
		</clipPath>
		<g class="st4">
			<defs>
				<rect id="SVGID_3_" x="-1365" y="-31" width="1920" height="1080"/>
			</defs>
			<clipPath id="SVGID_4_">
				<use xlink:href="#SVGID_3_"  style="overflow:visible;"/>
			</clipPath>
			<g class="st5">
				<defs>
					<rect id="SVGID_5_" x="-442" y="380" width="110" height="112"/>
				</defs>
				<clipPath id="SVGID_6_">
					<use xlink:href="#SVGID_5_"  style="overflow:visible;"/>
				</clipPath>
				<g transform="matrix(1 0 0 1 0 0)" style="clip-path:url(#SVGID_6_);">
					
						<image style="overflow:visible;" width="111" height="113" xlink:href="DA295601.png"  transform="matrix(0.991 0 0 0.9912 -442 380)">
					</image>
				</g>
			</g>
		</g>
	</g>
	<g>
		<path class="st6" d="M521.2,338.7H416.6c-72.8,0-131.8,59-131.8,131.8v0c0,72.8,59,131.8,131.8,131.8H517l93.1,53.7v-88.3
			c26.3-24.1,42.9-58.7,42.9-97.2v0C653,397.7,594,338.7,521.2,338.7z M585,558.9v12v14.9v28.3l-29-16.5c0.1,0,0.2,0,0.3-0.1
			l-30.7-17.7c-1.7,0.1-3.3,0.1-5,0.1H417.2c-60.5,0-109.5-49-109.5-109.5S356.8,361,417.2,361h103.3C581,361,630,410,630,470.5
			C630,506.8,612.3,539,585,558.9z"/>
		<g>
			<path class="st6" d="M286,485.7c-0.7-5.5-1.1-11-1.1-16.7v0c0-3.4,0.2-6.8,0.4-10.2L265,470.4v-28.3v-14.9v-12
				c-27.3-19.9-45-52.1-45-88.4c0-60.5,49-109.5,109.5-109.5h103.3c60.5,0,109.5,49,109.5,109.5c0,4.1-0.2,8.1-0.7,12
				c7.7,1.2,15.2,3.1,22.5,5.6c0.8-5.8,1.2-11.6,1.2-17.6v0c0-72.8-59-131.8-131.8-131.8H328.8C256,194.9,197,254,197,326.8v0
				c0,38.5,16.6,73.1,42.9,97.2v88.3L286,485.7z"/>
		</g>
		<rect x="262.8" y="254.2" class="st6" width="205.1" height="20.9"/>
		<rect x="262.8" y="291.9" class="st6" width="171.6" height="20.9"/>
		<path class="st6" d="M527.1,528.4c0-19.8-11.3-37.2-28.4-47.3c13.5-10.3,22.2-26.5,22.2-44.8c0-31.2-25.3-56.5-56.5-56.5
			c-31.2,0-56.5,25.3-56.5,56.5c0,18.3,8.7,34.5,22.2,44.8c-17.1,10.1-28.4,27.5-28.4,47.3c0,2.1,0.2,4.2,0.5,6.3h-0.5v20.9h125.5
			v-20.9h-0.5C526.9,532.6,527.1,530.5,527.1,528.4z M428.8,436.3c0-19.6,15.9-35.6,35.6-35.6c19.6,0,35.6,15.9,35.6,35.6
			c0,19.6-15.9,35.6-35.6,35.6C444.7,471.9,428.8,455.9,428.8,436.3z M424.8,528.4c0-19.6,17.7-35.6,39.5-35.6
			c21.8,0,39.5,15.9,39.5,35.6c0,2.1-0.3,4.2-0.7,6.3h-77.7C425.1,532.6,424.8,530.5,424.8,528.4z"/>
	</g>
</g>
<g id="Calque_5" class="st1">
	<g>
		<defs>
			<rect id="SVGID_7_" x="-787" y="269" width="149" height="113"/>
		</defs>
		<clipPath id="SVGID_8_" class="st2">
			<use xlink:href="#SVGID_7_"  style="overflow:visible;"/>
		</clipPath>
		<g class="st7">
			<defs>
				<rect id="SVGID_9_" x="-1692" y="-146" width="1920" height="1080"/>
			</defs>
			<clipPath id="SVGID_10_">
				<use xlink:href="#SVGID_9_"  style="overflow:visible;"/>
			</clipPath>
			<g class="st8">
				<defs>
					<rect id="SVGID_11_" x="-769" y="269" width="113" height="113"/>
				</defs>
				<clipPath id="SVGID_12_">
					<use xlink:href="#SVGID_11_"  style="overflow:visible;"/>
				</clipPath>
				<g style="clip-path:url(#SVGID_12_);">
					
						<image style="overflow:visible;" width="114" height="114" xlink:href="DA295603.png"  transform="matrix(0.9912 0 0 0.9912 -769 269)">
					</image>
				</g>
			</g>
		</g>
	</g>
	<g class="st2">
		<path class="st6" d="M540.9,253.6v136.1h58.2V253.6H540.9z M586.7,273.1v97.2v2.8h-33.3v-2.8v-97.2v-4h33.3V273.1z"/>
		<path class="st6" d="M467,285.7v104h58.2v-104H467z M512.8,374.9h-33.3v-74.3h33.3V374.9z"/>
		<path class="st6" d="M616.8,224.5v165.2H675V224.5H616.8z M662.6,248.1v118v7h-33.3v-7v-118v-8.2h33.3V248.1z"/>
		<g>
			<path class="st6" d="M597.9,389.7h-13.4c3.9,13.4,6.3,27.5,6.8,42.1H423.8V264.2c45.8,1.7,87.1,21.1,117.2,51.5v-17.7
				c-33-29.1-76.2-46.8-123.6-46.9c-3.6,0-6.4,2.9-6.4,6.4v180.6c0,3.6,2.9,6.4,6.4,6.4h180.6c3.6,0,6.4-2.9,6.4-6.4
				C604.3,421.5,602,405.2,597.9,389.7z"/>
		</g>
		<path class="st6" d="M345.9,413.9l-63.6,63.6c-0.3,0.3-0.7,0.3-0.9,0l-9.5-9.5c-0.3-0.3-0.3-0.7,0-0.9l63.6-63.6
			c0.3-0.3,0.7-0.3,0.9,0l9.5,9.5C346.2,413.3,346.2,413.7,345.9,413.9z"/>
		<path class="st6" d="M338,442.6c-13.8,0-25,11.2-25,25c0,13.8,11.2,25,25,25s25-11.2,25-25C363,453.8,351.8,442.6,338,442.6z
			 M338,475.9c-4.6,0-8.3-3.7-8.3-8.3c0-4.6,3.7-8.3,8.3-8.3c4.6,0,8.3,3.7,8.3,8.3C346.4,472.2,342.6,475.9,338,475.9z"/>
		<path class="st6" d="M279.8,384.4c-13.8,0-25,11.2-25,25c0,13.8,11.2,25,25,25c13.8,0,25-11.2,25-25
			C304.7,395.5,293.6,384.4,279.8,384.4z M279.8,417.7c-4.6,0-8.3-3.7-8.3-8.3c0-4.6,3.7-8.3,8.3-8.3c4.6,0,8.3,3.7,8.3,8.3
			C288.1,413.9,284.4,417.7,279.8,417.7z"/>
		<g>
			<circle class="st6" cx="475.3" cy="530" r="8.3"/>
			<path class="st6" d="M566.8,588.3L519.2,543c1.2-4.1,1.9-8.5,1.9-13.1c0-25.3-20.5-45.8-45.8-45.8c-25.3,0-45.8,20.5-45.8,45.8
				c0,25.3,20.5,45.8,45.8,45.8c3.9,0,7.6-0.5,11.2-1.4c0.7,1.6,1.7,3,3.1,4.3l45.4,43.1c9.2,8.8,23.9,8.4,32.7-0.8
				C576.4,611.7,576,597.1,566.8,588.3z M446.2,530c0-16.1,13-29.1,29.1-29.1c16.1,0,29.1,13,29.1,29.1c0,16.1-13,29.1-29.1,29.1
				C459.2,559.1,446.2,546.1,446.2,530z M556.5,608.7c-3.7,3.9-9.8,4-13.7,0.3L506.9,575c-3.9-3.7-4-9.8-0.3-13.7
				c3.7-3.9,9.8-4,13.7-0.3l35.9,34.1C560,598.7,560.2,604.8,556.5,608.7z"/>
		</g>
		<rect x="338" y="521.7" class="st6" width="16.6" height="16.6"/>
		<rect x="367.2" y="521.7" class="st6" width="16.6" height="16.6"/>
		<rect x="396.3" y="521.7" class="st6" width="16.6" height="16.6"/>
		<g>
			<path class="st6" d="M217.4,180.5v104H307l64.3,62.4v-62.4v-104H217.4z M358.8,284.5l0,29.1l-25-25L317.2,272h-87.4V193h129v54.1
				h0L358.8,284.5z"/>
			<rect x="246.5" y="209.6" class="st6" width="95.7" height="12.5"/>
			<rect x="246.5" y="238.7" class="st6" width="95.7" height="12.5"/>
		</g>
		<g>
			<path class="st6" d="M398.6,621.8c-87.5,0.1-159.8-68.3-164.7-155.6c-3.9-69.5,36-131.7,96.2-159.2l-9.4-9.1
				c-60.3,29.5-100.9,92.2-99.2,163.3c2.3,94.5,78.3,170.5,172.8,172.8c42.7,1,82.3-13.2,113.6-37.8l-9-8.6
				C471,609,436.1,621.7,398.6,621.8z"/>
			<path class="st6" d="M573.5,465c-1.2-1.2-2.8-1.9-4.5-1.9l-176.6,0V286.5c0-1.7-0.7-3.3-1.9-4.5c-1.2-1.2-2.9-1.8-4.6-1.6
				c-4.9,0.4-9.8,1-14.6,1.7v2.4v9.9c2.9-0.5,5.9-0.9,8.9-1.3v176c0,3.4,2.7,6.1,6.1,6.1l176.1,0c-3.4,29.6-14.5,56.7-31.2,79.3
				l9,8.6c19.7-26.3,32.4-58.4,34.9-93.5C575.3,467.9,574.7,466.2,573.5,465z"/>
		</g>
		<rect x="246.5" y="209.6" class="st6" width="95.7" height="12.5"/>
		<rect x="246.5" y="238.7" class="st6" width="95.7" height="12.5"/>
	</g>
</g>
</svg>
