<?xml version="1.0" encoding="utf-8"?>
<!-- Generator: Adobe Illustrator 25.2.1, SVG Export Plug-In . SVG Version: 6.00 Build 0)  -->
<svg version="1.1" id="Capa_1" xmlns="http://www.w3.org/2000/svg" xmlns:xlink="http://www.w3.org/1999/xlink" x="0px" y="0px"
	 viewBox="0 0 512 512" style="enable-background:new 0 0 512 512;" xml:space="preserve">
<style type="text/css">
	.st0{fill:#CFE3F9;}
	.st1{fill:#B9D8EF;}
</style>
<g>
	<path class="st0" d="M334.6,270.2c-36.1,0-67.5,19.8-84.1,49.1c-5.5-1.3-11.3-2.1-17.2-2.1c-40.3,0-73,32.7-73,73s32.7,73,73,73
		l101.3,0l20.4-85.7L334.6,270.2C334.6,270.2,334.6,270.2,334.6,270.2z"/>
	<path class="st1" d="M435.9,317.2c-5.9,0-11.7,0.7-17.2,2.1c-16.6-29.3-48-49.1-84.1-49.1v193l101.3,0c40.3,0,73-32.7,73-73
		C508.9,349.8,476.2,317.2,435.9,317.2L435.9,317.2z"/>
</g>
<g id="XMLID_1883_">
	<g id="XMLID_543_">
		<g id="XMLID_544_">
			<path id="XMLID_546_" d="M291.7,256.4c-22.4,0-42.3,11.5-53.9,28.8l-89.8-47.1c3.7-8.8,5.7-18.5,5.7-28.7
				c0-9.9-1.9-19.6-5.7-28.7l89.8-47.1c11.7,17.4,31.5,28.8,53.9,28.8c35.8,0,64.9-29.1,64.9-64.9s-29.1-64.9-64.9-64.9
				s-64.9,29.1-64.9,64.9c0,8.4,1.6,16.5,4.5,23.8l-89.8,47.1c-7.4-11.4-17.7-20.6-29.8-26.6c-3.4-1.7-7.6-0.3-9.2,3.1
				c-1.7,3.4-0.3,7.6,3.1,9.2c21.1,10.4,34.2,31.6,34.2,55.1c0,14.6-5.1,28.1-13.7,38.6c-5.8-11.1-15.3-19.8-26.6-24.6
				c4.5-5,7.2-11.6,7.2-18.9v-5.4c0-15.6-12.7-28.3-28.3-28.3S50,183.6,50,199.2v5.4c0,7.2,2.7,13.9,7.2,18.9
				c-11.4,4.9-20.8,13.5-26.6,24.6c-8.6-10.6-13.7-24-13.7-38.6c0-23.5,13.1-44.7,34.2-55.1c3.4-1.7,4.8-5.8,3.1-9.2
				c-1.7-3.4-5.8-4.8-9.2-3.1c-12.4,6.1-22.9,15.6-30.3,27.2c-7.6,12-11.7,25.9-11.7,40.2c0,41.5,33.8,75.3,75.3,75.3
				c26.4,0,49.7-13.7,63.1-34.4l89.8,47.1c-2.9,7.4-4.5,15.4-4.5,23.8c0,35.8,29.1,64.9,64.9,64.9s64.9-29.1,64.9-64.9
				S327.5,256.4,291.7,256.4z M261.3,138.6c5.1-12,17-20.1,30.3-20.1c13.3,0,25.3,8.1,30.3,20.1c-8.5,6.3-19,10-30.3,10
				S269.8,144.9,261.3,138.6z M280.4,93.4v-4.5c0-6.2,5.1-11.3,11.3-11.3c6.2,0,11.3,5.1,11.3,11.3v4.5c0,6.2-5.1,11.3-11.3,11.3
				C285.5,104.7,280.4,99.7,280.4,93.4z M291.7,46.5c28.2,0,51.1,22.9,51.1,51.1c0,11.6-3.9,22.3-10.4,30.9
				c-4.8-8.5-12.3-15.3-21.1-19.4c3.4-4.3,5.5-9.7,5.5-15.6v-4.5c0-13.8-11.3-25.1-25.1-25.1c-13.8,0-25.1,11.3-25.1,25.1v4.5
				c0,5.9,2.1,11.3,5.5,15.6c-8.8,4.1-16.2,10.8-21.1,19.4c-6.5-8.6-10.4-19.3-10.4-30.9C240.6,69.4,263.5,46.5,291.7,46.5
				L291.7,46.5z M63.8,199.2c0-8,6.5-14.5,14.5-14.5s14.5,6.5,14.5,14.5v5.4c0,8-6.5,14.5-14.5,14.5s-14.5-6.5-14.5-14.5V199.2z
				 M41.1,258.2c6-15.1,20.7-25.4,37.3-25.4c16.6,0,31.3,10.2,37.3,25.4c-10.3,7.9-23.3,12.6-37.3,12.6
				C64.4,270.8,51.4,266.1,41.1,258.2L41.1,258.2z M261.3,362.3c5.1-12,17-20.1,30.3-20.1c13.3,0,25.3,8.1,30.3,20.1
				c-8.5,6.3-19,10-30.3,10S269.8,368.6,261.3,362.3z M280.4,317.1v-4.5c0-6.2,5.1-11.3,11.3-11.3c6.2,0,11.3,5.1,11.3,11.3v4.5
				c0,6.2-5.1,11.3-11.3,11.3C285.5,328.4,280.4,323.3,280.4,317.1z M332.4,352.1c-4.8-8.5-12.3-15.3-21.1-19.4
				c3.4-4.3,5.5-9.7,5.5-15.6v-4.5c0-13.8-11.3-25.1-25.1-25.1c-13.8,0-25.1,11.3-25.1,25.1v4.5c0,5.9,2.1,11.3,5.5,15.6
				c-8.8,4.1-16.2,10.8-21.1,19.4c-6.5-8.6-10.4-19.3-10.4-30.9c0-28.2,22.9-51.1,51.1-51.1c28.2,0,51.1,22.9,51.1,51.1
				C342.8,332.8,338.9,343.5,332.4,352.1L332.4,352.1z"/>
			<path id="XMLID_545_" d="M78.4,148c1.8,0,3.6-0.7,4.9-2c1.3-1.3,2-3.1,2-4.9c0-1.8-0.7-3.6-2-4.9c-1.3-1.3-3.1-2-4.9-2
				c-1.8,0-3.6,0.7-4.9,2c-1.3,1.3-2,3.1-2,4.9c0,1.8,0.7,3.6,2,4.9C74.8,147.2,76.5,148,78.4,148z"/>
		</g>
	</g>
</g>
</svg>
