<?xml version="1.0" encoding="utf-8"?>
<!-- Generator: Adobe Illustrator 25.2.1, SVG Export Plug-In . SVG Version: 6.00 Build 0)  -->
<svg version="1.1" id="Layer_1" xmlns="http://www.w3.org/2000/svg" xmlns:xlink="http://www.w3.org/1999/xlink" x="0px" y="0px"
	 viewBox="0 0 512 618" style="enable-background:new 0 0 512 618;" xml:space="preserve">
<style type="text/css">
	.st0{fill:#CFE3F9;}
	.st1{fill:#B9D8EF;}
</style>
<g>
	<path class="st0" d="M328.1,200.3c-22.4,0.1-40.5,18.2-40.4,40.6c0,16,7.7,24.6,18.3,36.5c0.8,0.9,1.6,1.8,2.4,2.7
		c7,7.9,9.2,16,9.2,21.7h21.1c0-5.8,2.2-13.8,9.2-21.7c0.8-0.9,1.6-1.8,2.4-2.7c10.6-11.9,18.3-20.5,18.3-36.6
		C368.6,218.5,350.5,200.4,328.1,200.3z"/>
	<path class="st1" d="M414.9,135.2c-20.9-13.1-44.9-20.3-69.5-21.1c-1.3,0-2.7-0.1-4-0.1c-83.4-1-152.8,63.9-157.3,147.2
		c-0.1,2.1-0.2,21.5-0.2,33.3c0,0.7-0.1,1.4-0.4,2l-31,81.2c-0.2,0.5-0.1,1,0.2,1.4c0.2,0.4,0.7,0.7,1.2,0.7h47.6
		c1.5,0,2.9,0.6,3.9,1.7c1,1.1,1.6,2.5,1.5,4v53c0.1,8.2,3.5,16,9.3,21.6c5.9,5.7,13.8,8.8,21.9,8.6c4-0.1,63.1-0.3,65.6-0.3h0
		c2.6,0,5,1.7,5.6,4.3l16.9,67h138.6c-2.3-9.5-6.5-27.5-10.3-48.8c-7.6-42.5-10.3-77.2-7.9-103.1c1.7-18.7,18.6-60.6,19.4-62.4
		c0.1-0.2,0.2-0.3,0.2-0.5C501,258,478.8,175.5,414.9,135.2z M322.3,140.4c0-3.2,2.6-5.8,5.8-5.8c3.2,0,5.8,2.6,5.8,5.8v32.9
		c0,3.2-2.6,5.8-5.8,5.8c-3.2,0-5.8-2.6-5.8-5.8V140.4z M258.8,258.5h-32.7c-3.2,0-5.8-2.6-5.8-5.8c0-3.2,2.6-5.8,5.8-5.8h32.7
		c3.2,0,5.8,2.6,5.8,5.8C264.6,255.9,262,258.5,258.8,258.5z M267.3,214.9c-1.6,2.8-5.1,3.7-7.9,2.1l-22-12.7
		c-2.8-1.6-3.7-5.1-2.1-7.9c1.6-2.8,5.1-3.7,7.9-2.1l22,12.7C267.9,208.6,268.9,212.1,267.3,214.9z M274.7,156.1
		c2.8-1.6,6.3-0.6,7.9,2.1l12.7,22.1c1.1,1.8,1.1,4,0.1,5.8c-1,1.8-3,2.9-5.1,2.9c-2.1,0-4-1.2-5-3L272.6,164
		C271,161.2,271.9,157.7,274.7,156.1z M338.7,344.2h-22.1c-3.2,0-5.8-2.6-5.8-5.8c0-3.2,2.6-5.8,5.8-5.8h22.1c3.2,0,5.8,2.6,5.8,5.8
		C344.5,341.6,341.9,344.2,338.7,344.2z M344.5,328.8h-32.7c-3.2,0-5.8-2.6-5.8-5.8c0-3.2,2.6-5.8,5.8-5.8h32.7
		c3.2,0,5.8,2.6,5.8,5.8C350.3,326.2,347.7,328.8,344.5,328.8z M358.9,285.1c-0.8,0.9-1.5,1.7-2.3,2.6c-8.4,9.5-6.1,16.7-5.8,17.5
		c0.9,1.8,0.7,3.8-0.3,5.5c-1.1,1.7-3,2.7-5,2.7h-34.7c-2,0-3.9-1-5-2.7c-1.1-1.6-1.2-3.7-0.3-5.5c0.3-0.8,2.6-8.1-5.8-17.5
		c-0.8-0.9-1.6-1.8-2.3-2.6c-11.4-12.8-21.3-23.8-21.3-44.2c0-28.7,23.3-52,52-52c28.7,0,52,23.3,52,52
		C380.1,261.3,370.3,272.3,358.9,285.1z M387.5,164L374.8,186c-1,1.8-2.9,2.9-5,3c-2.1,0-4-1.1-5-2.9c-1-1.8-1-4,0-5.8l12.7-22.1
		c1.6-2.7,5.1-3.6,7.8-2.1C388.1,157.7,389,161.2,387.5,164z M395.3,207l22-12.7c2.8-1.6,6.3-0.7,7.9,2.1c1.6,2.8,0.7,6.3-2.1,7.9
		l-22,12.7c-2.8,1.6-6.3,0.7-7.9-2.1C391.6,212.1,392.5,208.6,395.3,207z M431.2,258.5h-32.7c-3.2,0-5.8-2.6-5.8-5.8
		c0-3.2,2.6-5.8,5.8-5.8h32.7c3.2,0,5.8,2.6,5.8,5.8C436.9,255.9,434.3,258.5,431.2,258.5z"/>
</g>
<g>
	<g>
		<path d="M273.5,352.5c-0.8-5.2-1.8-9-3.4-12.1c-1.8-3.8-4.1-6.6-7-8.5c-2.9-2.1-6.4-3.3-10-3.3H120.2l31.7-32.5
			c22.7-22.5,41.3-42.6,55.1-59.8c14-17.3,25-33.3,32.7-47.7c8-14.9,13.1-28.4,15.7-41.5c2.5-12.7,3.7-25.6,3.7-38.4
			c0-15.2-2.6-29.7-7.9-43c-5.3-13.5-13.5-25.3-24.2-35.1C216.5,21.2,203,13.5,186.9,8c-15.8-5.3-34.4-8-55.2-8
			c-13,0-25.8,1.2-38.2,3.7c-11.9,2.5-23.1,5.5-33.3,9.1C50,16.5,41.6,20.2,34.5,24.2c-7.1,4-12.1,7.3-15.3,10.1
			c-0.1,0.1-0.2,0.2-0.2,0.2c-2.9,2.9-5,5.3-6.3,7.5c0,0.1-0.1,0.1-0.1,0.2c-1.4,2.5-2.5,5.2-3.2,8.1c-0.8,3-1.3,5.9-1.6,9.2
			c-0.3,3.2-0.4,7-0.4,12.4c0,7.4,0.2,13.2,0.8,17.9c0.5,4.5,1.2,8.6,2.1,12.4c0,0.1,0.1,0.2,0.1,0.3c1.3,4.4,3.1,7.5,5.5,9.6
			c2.8,2.5,6.2,3.8,10,3.8c4.3,0,9.1-1.9,15.1-6c4.3-2.8,9.7-6,16.5-9.7c6.5-3.5,14.1-6.7,22.5-9.4c8.3-2.7,17.9-4.1,28.6-4.1
			c7.3,0,13.7,1,18.7,3.1c5.2,2.1,9.3,4.9,12.5,8.3c3.4,3.7,5.9,7.8,7.6,12.5c1.8,4.9,2.7,10.2,2.7,15.9c0,6.7-0.8,13.8-2.4,21
			c-1.6,7.5-4.6,15.6-8.7,24.2c-1.9,4-0.3,8.7,3.7,10.6c4,1.9,8.7,0.3,10.6-3.7c4.7-9.7,8.1-19.1,10-27.8c1.8-8.3,2.7-16.5,2.7-24.4
			c0-7.5-1.2-14.7-3.6-21.2c-2.3-6.7-6-12.8-10.9-18C146.6,82,140.6,78,133.2,75c-7-2.8-15.3-4.2-24.7-4.2
			c-12.4,0-23.7,1.6-33.6,4.9c-9.3,3-17.7,6.6-25.1,10.5c-7.3,4-13.1,7.4-17.8,10.5c0,0-0.1,0-0.1,0.1c-3,2.1-4.8,2.8-5.7,3.1
			c-0.2-0.3-0.4-0.9-0.6-1.7c-0.7-3-1.3-6.3-1.7-10c-0.4-4.1-0.7-9.4-0.7-16.2c0-4.8,0.1-8.2,0.4-10.8c0.2-2.4,0.6-4.6,1.2-6.8
			c0-0.1,0-0.2,0.1-0.2c0.3-1.3,0.8-2.6,1.4-3.6c0.4-0.7,1.5-2,3.9-4.5c1.3-1.2,4.5-3.7,12.1-7.9c6.3-3.5,14-6.9,23.4-10.2
			c9.5-3.4,19.9-6.2,31.1-8.5c11.3-2.3,23.1-3.4,35-3.4c19.1,0,35.9,2.4,50.1,7.2c13.9,4.7,25.6,11.3,34.6,19.5
			c9,8.2,15.6,17.7,20.1,29.1c4.5,11.4,6.8,23.9,6.8,37.1c0,11.8-1.1,23.7-3.4,35.3c-2.3,11.4-6.9,23.5-14.1,37
			c-7.3,13.5-17.8,28.7-31.1,45.2c-13.5,16.7-31.6,36.3-54,58.5c0,0-0.1,0.1-0.1,0.1l-45,46c-2.2,2.3-2.9,5.7-1.6,8.7
			c1.2,3,4.1,4.9,7.3,4.9h151.8c0.3,0,0.5,0.1,0.7,0.2c0.1,0.1,0.3,0.2,0.5,0.3c0.1,0,0.7,0.5,1.5,2.2c0,0,0,0.1,0.1,0.1
			c0.7,1.5,1.4,4,1.9,7.4c0.5,3.7,0.8,8.1,0.8,13.2c0,5.8-0.2,10.4-0.6,13.8c-0.4,3-1,5.7-1.8,8.1c-0.4,1.1-0.9,1.6-1,1.8
			c-0.1,0.1-0.4,0.1-0.7,0.1H32.7c-3.7,0-6.8-0.3-9.3-1c-1.6-0.4-2.9-1.1-3.7-2.1c-1.1-1.3-2-3.4-2.6-6.4c-0.8-3.7-1.2-8.8-1.2-15.3
			c0-6.2,0.3-11.5,0.8-15.8c0.5-4.2,1.4-7.5,2.6-10.3c1.4-3.2,3.2-6.3,5.3-9.3c2.4-3.4,5.4-6.8,9-10.6c0,0,0.1-0.1,0.1-0.1
			l66.7-71.3c3.4-3.6,6.6-7,9.7-10.4c3-3.3,2.7-8.3-0.6-11.3c-3.3-3-8.3-2.7-11.3,0.6c-2.9,3.2-6.1,6.6-9.4,10.1c0,0,0,0-0.1,0.1
			l-66.7,71.3c-4.2,4.3-7.6,8.3-10.5,12.4c-2.7,3.9-5,7.9-6.9,12c-1.9,4.2-3.1,9-3.9,14.7c-0.7,5.1-1,10.9-1,17.9
			c0,7.7,0.5,13.8,1.5,18.6c1.2,5.7,3.2,10.2,6.1,13.5c2.9,3.4,7,5.9,11.8,7.1c3.8,1,8.2,1.5,13.3,1.5h221.6c3.6,0,7-1,9.9-3
			c0.1,0,0.1-0.1,0.2-0.1c2.8-2,5-5.1,6.5-9c0-0.1,0.1-0.2,0.1-0.4c1.2-3.5,2.1-7.4,2.6-11.6c0.5-4.2,0.8-9.3,0.8-15.8
			C274.5,362.2,274.1,356.9,273.5,352.5L273.5,352.5z"/>
		<path d="M134.9,206.4c0-4.4-3.6-8-8-8h0c-4.4,0-8,3.6-8,8c0,4.4,3.6,8,8,8C131.4,214.4,134.9,210.8,134.9,206.4z"/>
	</g>
</g>
</svg>
