<?xml version="1.0" encoding="utf-8"?>
<!-- Generator: Adobe Illustrator 25.2.1, SVG Export Plug-In . SVG Version: 6.00 Build 0)  -->
<svg version="1.1" id="Layer_1" xmlns="http://www.w3.org/2000/svg" xmlns:xlink="http://www.w3.org/1999/xlink" x="0px" y="0px"
	 viewBox="0 0 512 512" style="enable-background:new 0 0 512 512;" xml:space="preserve">
<style type="text/css">
	.st0{fill:#CFE3F9;}
	.st1{fill:#B9D8EF;}
	.st2{fill:#A6CBE2;}
	.st3{fill:#D8ECFE;}
</style>
<g id="_x34_8_eye">
	<path class="st0" d="M297,228.7C145,231.4,82,339.5,82,339.5s63,108.1,215,110.8c152-2.7,215-110.8,215-110.8S449,231.4,297,228.7z
		"/>
	<circle class="st1" cx="297" cy="339.5" r="110.8"/>
	<path class="st2" d="M297,401.4c-34.1,0-61.9-27.8-61.9-61.9c0-34.1,27.8-61.9,61.9-61.9c34.1,0,61.9,27.8,61.9,61.9
		C358.9,373.6,331.1,401.4,297,401.4z"/>
	<path class="st3" d="M334,332.5c-16.5,0-29.9-13.4-29.9-29.9c0-16.5,13.4-29.9,29.9-29.9c16.5,0,29.9,13.4,29.9,29.9
		C363.9,319,350.5,332.5,334,332.5z"/>
</g>
<g>
	<g>
		<path d="M254.9,354.3c-0.6-4.6-1.6-8.5-3.1-11.7c0,0,0-0.1-0.1-0.1c-1.8-3.7-3.8-6.3-6.4-8.2c-2.9-2.1-6.2-3.2-9.7-3.2h-55.7V17.3
			c0-3.4-0.9-6.4-2.6-8.9c-1.9-2.8-4.9-4.8-9.2-6.1c-3-0.9-7-1.5-12.4-1.9c-4.5-0.3-10.4-0.4-19-0.4c-6.4,0-11.4,0-15.4,0.1
			c-4.2,0.1-7.7,0.3-10.2,0.7c-3,0.4-5.4,0.9-7.5,1.6c-0.1,0-0.1,0-0.2,0.1c-2.2,0.8-4,1.8-5.6,2.9l-83.4,54c-0.1,0-0.1,0.1-0.2,0.1
			c-2.9,2-5.1,3.7-6.8,5.5c-2.3,2.3-4,5.2-5.1,8.3c-1.1,2.8-1.7,6.2-2,10C0.1,86.6,0,90.8,0,95.8c0,8.1,0.3,14.3,1,18.9
			c0.9,5.8,2.6,10.1,5.5,13.1c0.1,0.1,0.1,0.1,0.2,0.2c3.5,3.5,8.1,4.9,13.7,4.1c0.1,0,0.2,0,0.3,0c3.5-0.6,7.8-2.2,13.2-4.8
			c0.1-0.1,0.3-0.1,0.4-0.2l50.8-28l0,77.3c0,4.4,3.6,8,8,8s8-3.6,8-8l0-90.8c0-2.8-1.5-5.4-3.9-6.9c-2.4-1.4-5.4-1.5-7.9-0.1
			l-62.4,34.4c-4.7,2.2-7.4,3-8.8,3.3c-0.1,0-0.2,0-0.2,0c-0.3-0.6-0.7-1.8-1-4c-0.6-3.8-0.8-9.4-0.8-16.6c0-4.7,0.1-8.5,0.3-11.4
			c0.2-2.9,0.7-4.6,1-5.6c0.1-0.1,0.1-0.3,0.1-0.4c0.3-0.9,0.7-1.6,1.3-2.2c0.1-0.1,0.1-0.1,0.2-0.2c0.8-0.9,2.5-2.1,4.3-3.3
			l83.5-54.1c0.2-0.1,0.4-0.3,0.6-0.5c0.1-0.1,0.5-0.3,1.3-0.6c1.1-0.3,2.5-0.6,4.4-0.9c2.1-0.3,5-0.5,8.6-0.6
			c3.8-0.1,8.7-0.1,15-0.1c8.3,0,13.8,0.1,18,0.4c5.4,0.4,7.9,0.9,8.9,1.2c0,0,0.1,0,0.1,0c0.1,0,0.2,0.1,0.3,0.1V339
			c0,4.4,3.6,8,8,8h63.7c0.1,0,0.2,0,0.2,0c0,0,0.1,0,0.1,0.1c0,0,0.5,0.4,1.4,2.2c0.8,1.8,1.4,4.1,1.8,7.1
			c0.4,3.4,0.7,7.9,0.7,13.6c0,5.2-0.3,9.6-0.8,13c-0.6,4.1-1.3,6.1-1.8,7c-0.1,0.1-0.1,0.3-0.2,0.4c-0.5,1.1-0.9,1.6-0.9,1.6
			c0,0-0.1,0-0.1,0.1c-0.1,0-0.1,0.1-0.2,0.1H20.5c0,0-0.1,0-0.1-0.1c-0.1-0.1-0.5-0.6-1.1-1.9c0,0,0-0.1-0.1-0.1
			c-0.5-1-1.2-2.9-1.8-7c-0.5-3.5-0.8-7.9-0.8-13c0-5.7,0.2-10.1,0.7-13.5c0.4-3,1-5.4,1.8-7.1c0.7-1.5,1.3-2.1,1.4-2.3H93
			c4.4,0,8-3.6,8-8v-90.8c0-4.4-3.6-8-8-8c-4.4,0-8,3.6-8,8V331H20.3c-3.7,0-7.1,1.2-9.8,3.4c-2.3,1.9-4.3,4.5-6,8
			c0,0,0,0.1-0.1,0.1c-1.5,3.3-2.5,7.1-3.1,11.8c-0.5,4.2-0.8,9.1-0.8,15.6c0,6.1,0.3,11.2,1,15.5c0.8,5,1.8,8.7,3.3,11.6
			c1.7,3.6,3.8,6.2,6.3,8c2.8,2,5.9,3,9.1,3h215.5c3.4,0,6.7-1,9.4-3c2.6-1.8,4.8-4.6,6.3-8.1c1.4-2.9,2.4-6.6,3.2-11.5
			c0.7-4.4,1-9.4,1-15.5C255.7,363.5,255.5,358.5,254.9,354.3z"/>
		<path d="M93,220.3c4.4,0,8-3.6,8-8s-3.6-8-8-8h0c-4.4,0-8,3.6-8,8S88.6,220.3,93,220.3z"/>
	</g>
</g>
</svg>
