<svg id="Capa_1" enable-background="new 0 0 512.019 512.019" height="512" viewBox="0 0 512.019 512.019" width="512" xmlns="http://www.w3.org/2000/svg"><g><g id="Page-1_16_"><g id="_x30_17---Computer-Plaster" transform="translate(-1)"><path id="Shape_45_" d="m487.409.009h-460.8c-14.544.465-25.983 12.589-25.6 27.136v372.395c-.383 14.547 11.055 26.672 25.6 27.136h62.908c15.255 11.108 33.644 17.084 52.514 17.067 8.911.01 17.775-1.305 26.3-3.9l-10.462 20.966h-28.86c-14.138 0-25.6 11.462-25.6 25.6s11.462 25.6 25.6 25.6h256c14.138 0 25.6-11.461 25.6-25.6 0-14.138-11.462-25.6-25.6-25.6h-28.86l-10.504-21.009c8.53 2.606 17.398 3.934 26.317 3.942 18.862.012 37.241-5.964 52.489-17.067h62.959c14.545-.464 25.983-12.589 25.6-27.136v-372.394c.382-14.547-11.056-26.671-25.601-27.136zm-460.8 17.067h460.8c5.084.526 8.849 4.968 8.533 10.069v331.264h-34.449c1.343-25.328-8.122-50.037-26.044-67.985l-51.456-51.482 51.465-51.465c23.004-22.628 32.104-55.856 23.838-87.047s-32.628-55.551-63.82-63.815-64.419.837-87.045 23.843l-51.422 51.465-51.456-51.456c-35.068-35.075-91.931-35.081-127.006-.013s-35.081 91.931-.013 127.006l51.456 51.482-51.464 51.448c-17.933 17.955-27.402 42.678-26.052 68.019h-34.398v-331.264c-.315-5.101 3.449-9.543 8.533-10.069zm242.432 106.923 51.456-51.456c18.379-18.383 45.169-25.565 70.279-18.841s44.725 26.335 51.456 51.443-.444 51.9-18.823 70.284l-51.465 51.465zm-250.965 275.541v-24.064h36.898c3.033 12.443 8.714 24.086 16.657 34.133h-45.022c-5.084-.525-8.848-4.967-8.533-10.069zm72.533 5.811c-13.647-13.643-21.315-32.15-21.315-51.447s7.667-37.804 21.315-51.447l51.465-51.465 102.869 102.895-51.456 51.456c-13.64 13.654-32.148 21.325-51.447 21.325s-37.808-7.672-51.447-21.325zm210.065 4.267h-87.313l43.648-43.665zm92.869 76.791c0 4.713-3.82 8.533-8.533 8.533h-256c-4.713 0-8.533-3.82-8.533-8.533s3.821-8.533 8.533-8.533h256c4.712 0 8.533 3.821 8.533 8.533zm-56.474-25.6h-160.128l16.691-33.442c.316-.222.614-.461.93-.691h124.911c.282.205.555.427.853.631zm-16.538-55.466-229.922-229.948c-27.832-28.495-27.564-74.077.6-102.244s73.746-28.438 102.244-.609l229.956 229.948c28.402 28.409 28.396 74.463-.013 102.865-28.408 28.402-74.463 28.397-102.865-.012zm166.878 4.266h-45.073c7.943-10.047 13.624-21.69 16.657-34.133h36.949v24.064c.316 5.102-3.449 9.544-8.533 10.069z"/><g clip-rule="evenodd" fill-rule="evenodd"><path id="Path_37_" d="m146.929 378.642c-3.33 3.333-3.328 8.735.004 12.066s8.734 3.331 12.066 0 3.334-8.732.004-12.066c-1.601-1.602-3.773-2.503-6.037-2.503s-4.436.901-6.037 2.503z"/><path id="Path_36_" d="m355.057 378.642c-3.33 3.333-3.328 8.735.004 12.066s8.733 3.331 12.066 0c3.332-3.331 3.334-8.732.004-12.066-1.601-1.602-3.772-2.503-6.037-2.503-2.264 0-4.436.901-6.037 2.503z"/><path id="Path_35_" d="m313.406 128.811c-3.33 3.333-3.328 8.735.004 12.066s8.734 3.331 12.066 0 3.334-8.732.004-12.066c-1.601-1.602-3.772-2.503-6.037-2.503-2.264.001-4.436.901-6.037 2.503z"/><circle id="Oval_19_" cx="361.082" cy="176.487" r="8.533"/><path id="Path_34_" d="m355.04 87.177c-3.33 3.333-3.328 8.735.004 12.066s8.733 3.331 12.066 0c3.332-3.331 3.334-8.732.004-12.066-1.601-1.602-3.772-2.503-6.037-2.503s-4.436.901-6.037 2.503z"/><path id="Path_33_" d="m396.674 128.811c-3.33 3.333-3.328 8.735.004 12.066s8.733 3.331 12.066 0c3.332-3.331 3.334-8.732.004-12.066-1.601-1.602-3.773-2.503-6.037-2.503s-4.436.901-6.037 2.503z"/><path id="Path_32_" d="m355.04 128.811c-3.33 3.333-3.328 8.735.004 12.066s8.733 3.331 12.066 0c3.332-3.331 3.334-8.732.004-12.066-1.601-1.602-3.772-2.503-6.037-2.503s-4.436.901-6.037 2.503z"/><path id="Path_31_" d="m105.235 337.008c-2.441 2.44-3.172 6.111-1.851 9.3s4.432 5.268 7.884 5.268 6.563-2.079 7.884-5.268.59-6.86-1.851-9.3c-3.332-3.331-8.733-3.331-12.066 0z"/><path id="Path_30_" d="m158.944 307.431c3.33-3.333 3.328-8.735-.004-12.066s-8.734-3.331-12.066 0-3.334 8.732-.004 12.066c1.601 1.602 3.773 2.503 6.037 2.503s4.437-.9 6.037-2.503z"/><circle id="Oval_18_" cx="194.537" cy="343.041" r="8.533"/><path id="Path_29_" d="m158.944 349.074c3.33-3.333 3.328-8.735-.004-12.066s-8.734-3.331-12.066 0-3.334 8.732-.004 12.066c1.601 1.602 3.773 2.503 6.037 2.503s4.437-.901 6.037-2.503z"/><path id="Path_28_" d="m146.87 170.454c-3.33 3.333-3.328 8.735.004 12.066s8.733 3.331 12.066 0c3.332-3.331 3.334-8.732.004-12.066-1.601-1.602-3.773-2.503-6.037-2.503s-4.437.901-6.037 2.503z"/><path id="Path_27_" d="m200.578 140.878c3.33-3.333 3.328-8.735-.004-12.066s-8.734-3.331-12.066 0-3.334 8.732-.004 12.066c1.601 1.602 3.773 2.503 6.037 2.503s4.437-.901 6.037-2.503z"/><path id="Path_26_" d="m105.235 128.811c-2.441 2.44-3.172 6.111-1.851 9.3s4.432 5.268 7.884 5.268 6.563-2.079 7.884-5.268.59-6.86-1.851-9.3c-3.332-3.331-8.733-3.331-12.066 0z"/><path id="Path_25_" d="m146.87 87.177c-3.33 3.333-3.328 8.735.004 12.066s8.733 3.331 12.066 0c3.332-3.331 3.334-8.732.004-12.066-1.601-1.602-3.773-2.503-6.037-2.503s-4.437.901-6.037 2.503z"/><path id="Path_24_" d="m146.87 128.811c-3.33 3.333-3.328 8.735.004 12.066s8.733 3.331 12.066 0c3.332-3.331 3.334-8.732.004-12.066-1.601-1.602-3.773-2.503-6.037-2.503s-4.437.901-6.037 2.503z"/><path id="Path_23_" d="m396.674 337.008c-3.33 3.333-3.328 8.735.004 12.066s8.733 3.331 12.066 0c3.332-3.331 3.334-8.732.004-12.066-1.601-1.602-3.773-2.503-6.037-2.503s-4.436.9-6.037 2.503z"/><path id="Path_22_" d="m313.406 337.008c-3.33 3.333-3.328 8.735.004 12.066s8.734 3.331 12.066 0 3.334-8.732.004-12.066c-1.601-1.602-3.772-2.503-6.037-2.503-2.264 0-4.436.9-6.037 2.503z"/><circle id="Oval_17_" cx="361.082" cy="301.398" r="8.533"/><circle id="Oval_16_" cx="361.082" cy="343.041" r="8.533"/></g><path id="Shape_44_" d="m248.655 161.025c-11.301-11.165-29.48-11.165-40.781 0l-28.749 28.757c-11.193 11.306-11.193 29.517 0 40.823l86.187 86.187c11.302 11.17 29.487 11.17 40.789 0l28.749-28.757c11.193-11.306 11.193-29.517 0-40.823zm74.138 114.969-28.749 28.757c-4.628 4.563-12.063 4.563-16.691 0l-86.118-86.135c-4.565-4.634-4.584-12.068-.043-16.725l28.749-28.757c2.211-2.196 5.204-3.424 8.32-3.413 3.131-.01 6.14 1.217 8.371 3.413l86.084 86.135c4.575 4.625 4.609 12.059.077 16.725z"/></g></g></g></svg>