<svg id="Capa_1" enable-background="new 0 0 512 512" height="512" viewBox="0 0 512 512" width="512" xmlns="http://www.w3.org/2000/svg"><g><g id="Page-1_20_"><g id="_x30_21---Install-Software"><path id="Shape_55_" d="m494.933 409.489v-298.667c-.028-23.552-19.114-42.638-42.667-42.667h-61.705c-.607-2.308-1.672-4.47-3.132-6.357-3.355-4.177-6.96-8.146-10.795-11.887-3.857-3.849-7.851-7.475-12.041-10.914-6.508-5.087-15.609-5.212-22.255-.307l-13.09 9.387c-11.95-7.201-24.906-12.579-38.443-15.957l-2.654-16.333c-1.276-8.167-7.974-14.399-16.211-15.087-10.578-.785-21.2-.785-31.778 0-8.261.652-14.998 6.884-16.29 15.07l-2.662 16.358c-13.522 3.382-26.464 8.76-38.4 15.957l-13.065-9.387c-6.717-4.945-15.915-4.774-22.443.418-4.028 3.311-8.021 6.938-11.742 10.658-3.932 3.805-7.626 7.849-11.059 12.109-1.44 1.862-2.491 3.995-3.089 6.272h-61.679c-23.552.028-42.638 19.114-42.667 42.667v298.667c-9.425 0-17.066 7.641-17.066 17.067v25.6c.038 32.974 26.759 59.696 59.733 59.733h392.533c32.974-.038 59.696-26.759 59.733-59.733v-25.6c.001-9.426-7.64-17.067-17.066-17.067zm-344.209-317.44-12.732-17.792c-.382-.451-.474-1.079-.239-1.621 3.005-3.742 6.233-7.298 9.668-10.65 3.473-3.456 7.057-6.716 10.496-9.549.559-.372 1.299-.319 1.801.128l17.749 12.715c2.875 2.063 6.724 2.137 9.677.188 13.144-8.687 27.825-14.786 43.255-17.971 3.46-.717 6.121-3.493 6.69-6.98l3.584-22.042c.064-.43.419-.758.853-.785 9.657-.735 19.356-.735 29.013 0 .413.057.733.388.777.802l3.584 22.016c.568 3.493 3.233 6.274 6.699 6.989 15.439 3.182 30.129 9.281 43.281 17.971 2.941 1.926 6.762 1.852 9.626-.188l17.766-12.732c.445-.396 1.082-.489 1.621-.239 3.601 2.961 7.185 6.221 10.795 9.813 3.362 3.285 6.525 6.767 9.472 10.428.286.556.209 1.23-.196 1.707l-12.714 17.749c-2.063 2.875-2.137 6.724-.188 9.677 8.699 13.147 14.807 27.834 17.997 43.273.719 3.465 3.503 6.127 6.997 6.69l21.555 3.482c.595.054 1.079.503 1.178 1.092 1.087 9.532 1.087 19.157 0 28.689-.1.525-.521.929-1.05 1.007l-21.675 3.499c-3.494.563-6.278 3.225-6.997 6.69-3.181 15.439-9.281 30.129-17.971 43.281-1.95 2.953-1.875 6.802.188 9.677l12.851 17.92c.295.431.341.986.119 1.459-2.961 3.601-6.221 7.185-9.668 10.65-3.046 3.038-6.46 6.135-10.496 9.549-.365.249-.807.358-1.246.307l-28.578-24.269v-17.92c31.7-28.295 42.646-73.22 27.514-112.926s-53.2-65.951-95.692-65.973-80.586 26.186-95.758 65.877-4.27 84.626 27.401 112.953v17.988l-28.049 23.893c-.427.356-1.003.475-1.536.316-4.267-3.618-7.68-6.716-10.735-9.745-3.456-3.473-6.716-7.057-9.549-10.496-.354-.564-.303-1.292.128-1.801l12.715-17.749c2.063-2.875 2.137-6.724.188-9.677-8.683-13.148-14.776-27.832-17.954-43.264-.719-3.465-3.503-6.127-6.997-6.69l-21.555-3.482c-.595-.054-1.079-.503-1.178-1.092-1.087-9.532-1.087-19.157 0-28.689.1-.525.521-.929 1.05-1.007l21.675-3.499c3.494-.563 6.278-3.225 6.997-6.69 3.181-15.439 9.281-30.129 17.971-43.281 1.954-2.95 1.882-6.799-.178-9.676zm-116.591 18.773c0-14.138 11.462-25.6 25.6-25.6h65.118l8.661 12.083c-7.195 11.937-12.573 24.879-15.957 38.4l-16.119 2.603c-8.108 1.378-14.316 7.97-15.206 16.145-1.189 10.656-1.189 21.412 0 32.068.896 8.242 7.179 14.874 15.36 16.213l16 2.56c3.384 13.521 8.762 26.463 15.957 38.4l-9.276 13.047c-5.062 6.72-4.939 16.012.299 22.596 3.311 4.028 6.938 8.021 10.795 11.887 3.413 3.413 7.134 6.827 12.041 10.914 6.74 5.181 16.137 5.128 22.818-.128l28.604-24.388c3.784-3.237 5.966-7.965 5.973-12.945v-18.005c-.014-4.859-2.111-9.48-5.76-12.689-26.346-23.598-35.403-61.004-22.771-94.04 12.632-33.037 44.336-54.856 79.705-54.856s67.073 21.819 79.705 54.856 3.575 70.442-22.771 94.04c-3.633 3.217-5.711 7.837-5.709 12.689v18.005c.005 4.992 2.186 9.735 5.973 12.988l29.124 24.747c6.75 4.966 15.998 4.767 22.528-.486 4.659-3.925 8.405-7.339 11.802-10.726 3.849-3.857 7.475-7.851 10.914-12.041 5.107-6.501 5.233-15.615.307-22.255l-9.387-13.09c7.195-11.937 12.573-24.879 15.957-38.4l16.119-2.56c8.162-1.36 14.412-8.001 15.275-16.23 1.189-10.656 1.189-21.412 0-32.068-.896-8.242-7.179-14.874-15.36-16.213l-16-2.56c-3.384-13.521-8.762-26.463-15.957-38.4l8.653-12.16h65.118c14.138 0 25.6 11.462 25.6 25.6v298.667h-443.733zm145.067 315.734h153.6v8.533c0 9.426-7.641 17.067-17.067 17.067h-119.466c-9.426 0-17.067-7.641-17.067-17.067zm315.733 25.6c-.028 23.552-19.114 42.638-42.667 42.667h-392.533c-23.552-.028-42.638-19.114-42.667-42.667v-25.6h145.067v8.533c0 18.851 15.282 34.133 34.133 34.133h119.467c18.851 0 34.133-15.282 34.133-34.133v-8.533h145.067z"/><g clip-rule="evenodd" fill-rule="evenodd"><path id="Path_42_" d="m136.533 443.622h-25.6c-4.713 0-8.533 3.82-8.533 8.533s3.821 8.533 8.533 8.533h25.6c4.713 0 8.533-3.82 8.533-8.533s-3.82-8.533-8.533-8.533z"/><circle id="Oval_23_" cx="42.667" cy="452.156" r="8.533"/><circle id="Oval_22_" cx="76.8" cy="452.156" r="8.533"/></g><path id="Shape_54_" d="m243.465 336.145c7.001 6.765 18.104 6.765 25.105 0l33.34-32.922c5.114-4.962 6.701-12.533 4.011-19.132-2.604-6.502-8.788-10.864-15.787-11.136v-110.933c0-14.139-11.462-25.6-25.6-25.6h-17.067c-14.138 0-25.6 11.462-25.6 25.6v110.933c-6.988.265-13.169 4.609-15.787 11.093-2.699 6.588-1.121 14.154 3.985 19.115zm-20.83-46.123h7.765c4.713 0 8.533-3.821 8.533-8.533v-119.467c0-4.713 3.821-8.533 8.533-8.533h17.067c4.713 0 8.533 3.821 8.533 8.533v119.467c0 4.713 3.82 8.533 8.533 8.533h7.765c.326-.046.638.148.742.461.111.282.043.341-.119.503v.043l-33.34 32.913c-.355.243-.823.243-1.178 0l-33.604-33.459c.107-.323.435-.52.77-.461z"/><path id="Path_41_" clip-rule="evenodd" d="m401.067 366.822c0-4.713-3.82-8.533-8.533-8.533h-273.067c-4.713 0-8.533 3.82-8.533 8.533s3.821 8.533 8.533 8.533h273.067c4.712.001 8.533-3.82 8.533-8.533z" fill-rule="evenodd"/></g></g></g></svg>