<?xml version="1.0" encoding="utf-8"?>
<!-- Generator: Adobe Illustrator 25.2.1, SVG Export Plug-In . SVG Version: 6.00 Build 0)  -->
<svg version="1.1" id="Layer_1" xmlns="http://www.w3.org/2000/svg" xmlns:xlink="http://www.w3.org/1999/xlink" x="0px" y="0px"
	 viewBox="0 0 512 611.4" style="enable-background:new 0 0 512 611.4;" xml:space="preserve">
<style type="text/css">
	.st0{fill:#CFE3F9;}
	.st1{fill:#D8ECFE;}
	.st2{fill:none;stroke:#B9D8EF;stroke-width:14;stroke-linejoin:round;}
	.st3{fill:none;stroke:#B9D8EF;stroke-width:14;stroke-linecap:round;stroke-linejoin:round;}
	.st4{fill:none;stroke:#B9D8EF;stroke-width:12;stroke-linejoin:round;}
	.st5{fill:none;stroke:#B9D8EF;stroke-width:12;stroke-linecap:round;stroke-linejoin:round;}
</style>
<g>
	<path class="st0" d="M451.6,339c31,0,56.1,25.2,56,56.1c0,31-25.2,56.1-56.1,56c-31,0-56.1-25.2-56-56.1c0-25.3,17-47.5,41.5-54.1
		C441.7,339.6,446.6,339,451.6,339z"/>
	<path class="st0" d="M437,227.7v113.2c-30,8.1-47.6,39-39.5,68.9c0.4,1.6,0.9,3.2,1.5,4.8H283.2c-9.4,0-17.1-7.6-17.1-17.1
		c0,0,0,0,0,0v-13.3l15.7-15.7c7.5-7.5,7.5-19.6,0-27.1c0,0,0,0,0,0l-4.5-4.5l-11.1,8.8V176.5c0-9.4,7.6-17.1,17.1-17.1h85.4v51.3
		c0,9.4,7.6,17.1,17.1,17.1c0,0,0,0,0,0H437z M397.3,325.8V277H379v48.8H397.3z M360.7,325.8v-73.2h-18.3v73.2H360.7z M324.1,325.8
		v-36.6h-18.3v36.6H324.1z"/>
	<path class="st0" d="M437,227.7h-51.3c-9.4,0-17.1-7.6-17.1-17.1c0,0,0,0,0,0v-51.3L437,227.7z"/>
	<rect x="379" y="277" class="st1" width="18.3" height="48.8"/>
	<rect x="342.4" y="252.6" class="st1" width="18.3" height="73.2"/>
	<rect x="305.8" y="289.2" class="st1" width="18.3" height="36.6"/>
	<path class="st0" d="M266.1,384.3v13.3c0,9.4,7.6,17.1,17.1,17.1c0,0,0,0,0,0h22.3v31.8c0,14.1-11.4,25.6-25.6,25.6c0,0,0,0,0,0
		v18.6h-99.8V367.4c0-6.7,2.6-13.1,7.3-17.9l78.7-62.8v59.1l11.1-8.8l4.5,4.5c7.5,7.5,7.5,19.6,0,27.1c0,0,0,0,0,0L266.1,384.3z"/>
	<path class="st0" d="M296.5,498.7v37c0,4.4-3.6,8.1-8.1,8.1H167.1c-4.4,0-8.1-3.6-8.1-8.1v-37c0-4.4,3.6-8.1,8.1-8.1h121.4
		C292.9,490.6,296.5,494.2,296.5,498.7z M196.4,517.8c-0.2-5.3-4.6-9.5-9.9-9.3s-9.5,4.6-9.3,9.9c0.2,5.2,4.4,9.3,9.6,9.3
		C192.2,527.6,196.5,523.2,196.4,517.8z"/>
	<path class="st2" d="M180.1,490.6V367.4c0-6.7,2.6-13.1,7.3-17.9l78.7-62.8"/>
	<path class="st2" d="M305.5,414.9v31.6c0,14.1-11.4,25.6-25.6,25.6c0,0,0,0,0,0v18.6"/>
	<path class="st3" d="M215.8,385.6l50.3-39.8l11.1-8.8l4.5,4.5c7.5,7.5,7.5,19.6,0,27.1c0,0,0,0,0,0l-15.7,15.7l-8.2,8.2l-3.3,3.3
		l-0.3,5.9c0,1.9,0.2,3.7,0.7,5.6c0.4,1.8,1.1,3.6,1.9,5.3c5.1,11,4.2,23.8-2.5,33.9v12.8"/>
	<path class="st3" d="M279.9,490.6h8.6c4.4,0,8.1,3.6,8.1,8.1v37c0,4.4-3.6,8.1-8.1,8.1H167.1c-4.4,0-8.1-3.6-8.1-8.1v-37
		c0-4.4,3.6-8.1,8.1-8.1H279.9z"/>
	<path class="st3" d="M196.4,517.8c-0.2,5.3-4.6,9.5-9.9,9.3c-5.3-0.2-9.5-4.6-9.3-9.9c0.2-5.2,4.4-9.3,9.6-9.3
		C192.2,508,196.5,512.4,196.4,517.8z"/>
	<path class="st4" d="M266.1,346.5V176.5c0-9.4,7.6-17.1,17.1-17.1h85.4l68.3,68.3v113.2"/>
	<path class="st4" d="M399,414.6H283.2c-9.4,0-17.1-7.6-17.1-17.1c0,0,0,0,0,0v-14.8"/>
	<path class="st4" d="M437,227.7h-51.3c-9.4,0-17.1-7.6-17.1-17.1c0,0,0,0,0,0v-51.3"/>
	<rect x="342.4" y="252.6" class="st4" width="18.3" height="73.2"/>
	<rect x="305.8" y="289.2" class="st4" width="18.3" height="36.6"/>
	<rect x="379" y="277" class="st4" width="18.3" height="48.8"/>
	<line class="st5" x1="315.3" y1="354.4" x2="386.9" y2="354.4"/>
	<line class="st5" x1="315.3" y1="382.6" x2="349.1" y2="382.6"/>
	<path class="st5" d="M399,414.6c-10.8-29.1,4-61.4,33.1-72.2c29.1-10.8,61.4,4,72.2,33.1c10.8,29.1-4,61.4-33.1,72.2
		c-6.2,2.3-12.9,3.5-19.5,3.5C428.1,451.3,407.1,436.7,399,414.6z"/>
	<path class="st5" d="M437.9,408.5c0,7.6,6.1,13.7,13.7,13.7s13.7-6.1,13.7-13.7c0-7.6-6.1-13.7-13.7-13.7l0,0
		c-7.6,0-13.7-6.1-13.7-13.7c0-7.6,6.1-13.7,13.7-13.7s13.7,6.1,13.7,13.7"/>
	<line class="st5" x1="451.6" y1="359.9" x2="451.6" y2="367.3"/>
	<polyline class="st5" points="451.6,422.2 451.6,422.2 451.6,430.3 	"/>
</g>
<g>
	<g>
		<path d="M173.8,72.7h-0.6c-2.9,0-5.5,1.5-6.9,4l-33.2,57.9c-2.2,3.8-0.9,8.7,3,10.9c3.8,2.2,8.7,0.9,10.9-3l18.9-33v141.3H85
			l26.3-46c2.2-3.8,0.9-8.7-3-10.9c-3.8-2.2-8.7-0.9-10.9,3l-33.2,57.9c-1.4,2.5-1.4,5.5,0,8s4,4,6.9,4h102.6c4.4,0,8-3.6,8-8V80.7
			C181.7,76.3,178.2,72.7,173.8,72.7L173.8,72.7z"/>
		<path d="M299.7,262.8c-4.6-9.9-10.9-12-15.4-12h-26.4V25.4c0-3.2-1-7.8-5.8-11.8c-0.1-0.1-0.2-0.2-0.4-0.3
			c-3.1-2.3-7.3-4.1-12.4-5.3c-4.8-1.2-10.9-2.1-18.8-2.7c-6.9-0.5-15.7-0.7-26.8-0.7c-9.5,0-17.8,0.2-24.4,0.6
			c-7.3,0.5-13.1,1.1-17.5,2.1c-5.3,1.1-9.1,2.4-12.2,4.1c0,0-0.1,0-0.1,0.1c-3.6,2.1-6.3,4.6-8.1,7.5c0,0,0,0.1-0.1,0.1L11,231.5
			c0,0-0.1,0.1-0.1,0.1c-2.1,3.8-3.9,7.7-5.4,11.6c0,0.1-0.1,0.2-0.1,0.3c-1.5,4.1-2.5,8.1-3.3,12c-0.8,4.1-1.3,8.7-1.7,13.8
			c-0.3,4.5-0.4,9.8-0.4,17.2c0,8.7,0.4,15,1.1,20c0.8,5.6,2.2,10,4.2,13.5c0.1,0.1,0.1,0.2,0.2,0.3c2.6,4.1,5.9,6.9,9.9,8.2
			c2.8,0.9,6.2,1.4,9.9,1.4h140.5v62.4c0,3.7,1.1,7.1,3.2,9.9c2.1,2.8,5.3,5,9.8,6.6c0.1,0,0.2,0.1,0.2,0.1
			c3.6,1.2,8.2,2.1,13.4,2.6c5,0.5,11,0.8,19,0.8c8.4,0,14.6-0.2,19.5-0.8c4.9-0.5,9.3-1.4,13.2-2.5c0.1,0,0.2-0.1,0.3-0.1
			c4.6-1.6,7.9-3.7,10-6.5c2.3-2.9,3.5-6.4,3.5-10.1V330h26.4c4.1,0,11.5-1.7,15.9-13c2.5-6.2,3.7-14.8,3.7-26.3
			C304,277.7,302.6,268.8,299.7,262.8L299.7,262.8z M285.4,311.1c0,0,0,0.1,0,0.1c-0.7,1.7-1.2,2.5-1.5,2.9h-33.9c-4.4,0-8,3.6-8,8
			v70.3c0,0.1,0,0.1,0,0.1c0,0,0,0.1-0.1,0.1c0,0,0,0-0.1,0.1c-0.2,0.1-0.8,0.6-2.4,1.1c-2.9,0.9-6.3,1.5-10.2,1.9
			c-4.2,0.5-10.1,0.7-17.8,0.7c-7.4,0-13-0.2-17.4-0.7c-3.9-0.4-7.5-1.1-10-1.9c-1.4-0.5-2-0.9-2.2-1.1c0-0.1,0-0.2,0-0.4V322
			c0-4.4-3.6-8-8-8H25.4c-2.6,0-4.1-0.3-5-0.6c0,0-0.1,0-0.1,0c-0.2-0.1-0.6-0.4-1.2-1.3c-0.7-1.3-1.6-3.7-2.3-8
			c-0.6-4.1-0.9-9.9-0.9-17.6c0-6.9,0.1-12.1,0.4-16.2c0.3-4.4,0.8-8.4,1.4-11.8c0.6-3.1,1.4-6.2,2.6-9.5c1.3-3.2,2.8-6.5,4.5-9.7
			L145.2,27c0.1-0.1,0.6-0.8,2.1-1.7c1.6-0.9,4.2-1.7,7.8-2.5c3.7-0.8,8.7-1.4,15.2-1.8c6.4-0.4,14.3-0.6,23.5-0.6
			c10.7,0,19.1,0.2,25.6,0.7c6.8,0.5,12.2,1.2,15.9,2.2c0.1,0,0.1,0,0.2,0c3.7,0.9,5.6,1.9,6.4,2.5v232.9c0,4.4,3.6,8,8,8h33.7
			c0.3,0.4,0.9,1.1,1.6,2.7c0,0,0,0.1,0.1,0.1c1.2,2.6,2.7,8.3,2.7,21.1C288,299.9,287.2,306.8,285.4,311.1z"/>
		<path d="M122.2,177.7c4.4,0,8-3.6,8-8s-3.6-8-8-8h0c-4.4,0-8,3.6-8,8S117.8,177.7,122.2,177.7z"/>
	</g>
</g>
</svg>
