<svg id="Capa_1" enable-background="new 0 0 512.02 512.02" height="512" viewBox="0 0 512.02 512.02" width="512" xmlns="http://www.w3.org/2000/svg"><g><g id="Page-1_28_"><g id="_x30_29---Computer-Error" transform="translate(-1)"><path id="Shape_73_" d="m487.41.01h-460.8c-14.551.464-25.993 12.6-25.6 27.153v372.361c-.393 14.553 11.049 26.689 25.6 27.153h148.326l-17.066 34.133h-28.86c-14.138 0-25.6 11.462-25.6 25.6s11.462 25.6 25.6 25.6h256c14.138 0 25.6-11.462 25.6-25.6s-11.462-25.6-25.6-25.6h-28.86l-17.067-34.133h148.327c14.551-.464 25.993-12.6 25.6-27.153v-372.361c.392-14.554-11.049-26.689-25.6-27.153zm-460.8 17.066h460.8c5.091.526 8.858 4.979 8.533 10.086v331.248h-477.867v-331.247c-.324-5.108 3.443-9.561 8.534-10.087zm366.933 469.334c0 4.713-3.82 8.533-8.533 8.533h-256c-4.713 0-8.533-3.821-8.533-8.533s3.821-8.533 8.533-8.533h256c4.713-.001 8.533 3.82 8.533 8.533zm-56.473-25.6h-160.12l17.067-34.133h125.986zm150.34-51.2h-460.8c-5.091-.526-8.858-4.979-8.533-10.086v-24.047h477.867v24.047c.324 5.107-3.443 9.56-8.534 10.086z"/><path id="Shape_72_" d="m110.117 341.343h293.786c18.412.101 35.338-10.09 43.861-26.411 8.465-15.901 7.182-35.226-3.311-49.869l-146.773-209.919c-9.347-13.175-24.499-21.004-40.653-21.004s-31.306 7.829-40.653 21.004l-146.773 209.92c-10.493 14.642-11.776 33.968-3.311 49.869 8.518 16.309 25.428 26.499 43.827 26.41zm-26.564-66.492 146.773-209.92c6.151-8.613 16.083-13.725 26.667-13.725s20.516 5.112 26.667 13.725l146.773 209.92c6.784 9.447 7.624 21.925 2.167 32.196-5.523 10.722-16.638 17.395-28.698 17.229h-293.785c-12.072.18-23.204-6.495-28.732-17.229-5.456-10.271-4.616-22.748 2.168-32.196z"/><path id="Shape_71_" d="m257.01 238.943c13.062.015 23.855-10.186 24.576-23.228l5.495-99.081v-1.22c-.039-10.927-6-20.974-15.571-26.246s-21.249-4.941-30.505.866c-9.257 5.807-14.638 16.175-14.058 27.087l5.478 98.594c.73 13.042 11.523 23.239 24.585 23.228zm-9.464-132.463c3.666-3.866 9.316-5.11 14.267-3.143s8.206 6.75 8.219 12.078v.742l-5.487 98.62c-.233 3.993-3.539 7.112-7.539 7.112s-7.306-3.119-7.539-7.112l-5.478-98.611c-.214-3.583 1.076-7.093 3.557-9.686z"/><path id="Shape_70_" d="m257.01 256.01c-14.139 0-25.6 11.461-25.6 25.6 0 14.138 11.462 25.6 25.6 25.6s25.6-11.462 25.6-25.6c0-14.139-11.462-25.6-25.6-25.6zm0 34.133c-4.713 0-8.533-3.821-8.533-8.533 0-4.713 3.821-8.533 8.533-8.533s8.533 3.821 8.533 8.533c0 4.713-3.82 8.533-8.533 8.533z"/></g></g></g></svg>