<?xml version="1.0" encoding="utf-8"?>
<!-- Generator: Adobe Illustrator 23.0.2, SVG Export Plug-In . SVG Version: 6.00 Build 0)  -->
<svg version="1.1" id="Capa_1" xmlns="http://www.w3.org/2000/svg" xmlns:xlink="http://www.w3.org/1999/xlink" x="0px" y="0px"
	 viewBox="0 0 512 512" style="enable-background:new 0 0 512 512;" xml:space="preserve">
<style type="text/css">
	.st0{fill:#CFE3F9;}
	.st1{fill:#B9D8EF;}
</style>
<g>
	<circle class="st0" cx="306.81" cy="337.33" r="86.73"/>
	
		<rect x="376.96" y="385.96" transform="matrix(0.7903 0.6127 -0.6127 0.7903 326.0033 -155.1723)" class="st0" width="25.52" height="25.52"/>
	
		<rect x="397.06" y="414.58" transform="matrix(0.8108 0.5853 -0.5853 0.8108 335.9785 -174.4733)" class="st0" width="81.62" height="35.78"/>
	<path class="st1" d="M373.8,325.72c-6.26-37.89-42.18-63.62-80.07-57.36c-37.89,6.26-63.62,42.18-57.36,80.07
		s42.18,63.62,80.07,57.36C354.33,399.52,380.06,363.6,373.8,325.72z M246.05,346.83c-5.38-32.55,16.73-63.41,49.28-68.79
		c32.55-5.38,63.41,16.73,68.79,49.28c5.38,32.55-16.73,63.41-49.28,68.79C282.29,401.48,251.43,379.38,246.05,346.83z"/>
	<path class="st1" d="M397.86,322.48c-8.38-50.7-56.44-85.13-107.13-76.75s-85.13,56.44-76.75,107.13s56.44,85.13,107.13,76.75
		c19.24-3.18,36.13-12.08,49.24-24.66l17.52,12.55l-1.71,2.39c-1.58,2.2-1.07,5.27,1.13,6.85l56.95,40.8
		c5.43,3.89,12.05,5.43,18.64,4.35s12.36-4.68,16.25-10.11s5.43-12.05,4.35-18.64s-4.68-12.37-10.11-16.26l-56.95-40.8
		c-1.06-0.76-2.37-1.06-3.66-0.85s-2.43,0.92-3.19,1.98l-1.71,2.39l-17.52-12.55C398.05,360.58,401.04,341.72,397.86,322.48z
		 M223.66,351.26c-7.5-45.36,23.31-88.36,68.67-95.85c45.36-7.5,88.36,23.31,95.85,68.67c7.49,45.36-23.31,88.36-68.67,95.85
		S231.16,396.62,223.66,351.26z M467.67,434.85c3.3,2.37,5.48,5.87,6.14,9.88s-0.28,8.03-2.64,11.33
		c-4.88,6.81-14.39,8.39-21.21,3.5L397,421.62l1.71-2.39c0,0,0,0,0,0l15.99-22.33L467.67,434.85z M402.16,397.56l-8.57,11.96
		l-16.47-11.8c3.16-3.76,6.03-7.76,8.57-11.96L402.16,397.56z"/>
</g>
<g>
	<g>
		<circle cx="212.73" cy="371.06" r="7.27"/>
		<path d="M247.88,53.44c-7-12.92-20.47-20.95-35.15-20.95s-28.16,8.03-35.13,20.92L31.54,319.35c-3.15,5.8-4.81,12.37-4.81,19.01
			c0,22.03,17.93,39.96,39.96,39.96h113.34c4.01,0,7.27-3.25,7.27-7.27s-3.25-7.27-7.27-7.27H66.69
			c-14.02,0-25.43-11.41-25.43-25.43c0-4.22,1.05-8.4,3.03-12.05L190.35,60.35c4.45-8.23,13.03-13.34,22.37-13.34
			c9.35,0,17.92,5.11,22.4,13.38l146.02,265.89c2,3.68,3.05,7.86,3.05,12.08c0,14.02-11.41,25.43-25.43,25.43H245.42
			c-4.01,0-7.27,3.25-7.27,7.27s3.25,7.27,7.27,7.27h113.34c22.03,0,39.96-17.93,39.96-39.96c0-6.64-1.66-13.21-4.83-19.05
			L247.88,53.44z"/>
	</g>
	<g>
		<path d="M168.55,199.17c7.13,0,12.91-5.78,12.91-12.91c0-8.88,3.8-17.38,10.42-23.3c6.71-6.01,15.4-8.77,24.47-7.77
			c14.33,1.58,25.88,13.13,27.46,27.46c1.39,12.63-4.82,24.78-15.84,30.94c-17.35,9.7-28.13,27.65-28.13,46.83v18.41
			c0,7.13,5.78,12.91,12.91,12.91c7.12,0,12.91-5.78,12.91-12.91v-18.41c0-9.85,5.72-19.16,14.92-24.3
			c20.09-11.24,31.44-33.34,28.9-56.3c-2.9-26.24-24.05-47.38-50.28-50.28c-16.21-1.79-32.45,3.38-44.52,14.2
			c-12.08,10.82-19.01,26.32-19.01,42.53C155.64,193.39,161.42,199.17,168.55,199.17z"/>
		<path d="M212.72,316.24c-3.39,0-6.72,1.38-9.12,3.78s-3.79,5.73-3.79,9.12c0,3.41,1.38,6.72,3.79,9.12
			c2.4,2.41,5.73,3.78,9.12,3.78c3.4,0,6.72-1.37,9.12-3.78c2.4-2.4,3.78-5.73,3.78-9.12c0-3.39-1.38-6.72-3.78-9.12
			C219.45,317.62,216.12,316.24,212.72,316.24z"/>
	</g>
</g>
</svg>
