<?xml version="1.0" encoding="utf-8"?>
<!-- Generator: Adobe Illustrator 23.0.2, SVG Export Plug-In . SVG Version: 6.00 Build 0)  -->
<svg version="1.1" id="Capa_1" xmlns="http://www.w3.org/2000/svg" xmlns:xlink="http://www.w3.org/1999/xlink" x="0px" y="0px"
	 viewBox="0 0 512 512" style="enable-background:new 0 0 512 512;" xml:space="preserve">
<style type="text/css">
	.st0{display:none;}
	.st1{display:inline;fill-rule:evenodd;clip-rule:evenodd;fill:#FFDA8F;}
	.st2{display:inline;fill-rule:evenodd;clip-rule:evenodd;fill:#F3EFF0;}
	.st3{display:inline;fill-rule:evenodd;clip-rule:evenodd;fill:#CDC0C4;}
	.st4{fill-rule:evenodd;clip-rule:evenodd;fill:#CFE3F9;}
	.st5{fill:#B9D8EF;}
</style>
<g class="st0">
	<path class="st1" d="M342.42,243.4c8.13-52.1,54.93-64.4,54.87-128.68C397.21,48.08,345.62,9.3,295.43,10.01
		c-50.2-0.71-101.78,38.07-101.87,104.7C193.47,179,240.3,191.3,248.43,243.4c0.82-0.11,1.64-0.14,2.49-0.14h89
		C340.78,243.26,341.6,243.28,342.42,243.4z"/>
</g>
<g class="st0">
	<path class="st2" d="M250.93,288.18h89h0.71c12.05-0.37,21.77-10.35,21.77-22.45c0-11.54-8.79-21.09-19.98-22.33
		c-0.82-0.11-1.64-0.14-2.49-0.14h-89c-0.85,0-1.67,0.03-2.49,0.14c-11.2,1.25-19.98,10.8-19.98,22.33
		c0,12.1,9.72,22.08,21.77,22.45H250.93z"/>
</g>
<g class="st0">
	<path class="st3" d="M317.56,334.33c12.7,0,23.07-10.37,23.07-23.07v-23.07c-0.23,0-0.48,0-0.71,0h-89c-0.25,0-0.48,0-0.71,0v23.07
		c0,12.7,10.37,23.07,23.04,23.07H317.56z"/>
</g>
<g>
	<g>
		<path class="st4" d="M200.12,367.98c4.31-7.82,12.61-13.12,22.07-13.12h50.71c7.48,0,8.53-1.25,13.2-5.64
			c37.4-35.22,67.91-33.49,105.31-18.73c8.05,3.17,9.09,3.12,16.46,3.46h19.41v94.74h-29.07c-3.94,0-3.57,0.2-9.38,1.76
			l-96.53,25.81c-33.94,9.21-47.54,17.65-79.78-3.85L93.56,367.7c-10.88-7.76-14.93-22.07-7.9-33.46c7.03-11.36,21.56-14,33.43-7.88
			L200.12,367.98z"/>
	</g>
	<g>
		<path class="st4" d="M427.29,428.7v-94.74v-1.56c0-8.5,6.94-15.44,15.41-15.44h37.31c8.47,0,15.41,6.94,15.41,15.44v97.86
			c0,8.47-6.94,15.41-15.41,15.41H442.7c-8.47,0-15.41-6.94-15.41-15.41V428.7z"/>
	</g>
	<path class="st5" d="M123.66,317.47l73.6,37.8c6.37-6.42,15.2-10.4,24.94-10.4h50.71c2.26,0,3.08-0.14,3.33-0.2
		c0.46-0.31,1.61-1.39,2.54-2.27l0.48-0.46c41.28-38.87,76.16-36.41,115.83-20.75c6.21,2.45,6.33,2.45,12.48,2.73l11.17,0.01
		c3.49-9.88,12.91-16.99,23.96-16.99h37.31c14.01,0,25.41,11.41,25.41,25.44v97.86c0,14.01-11.4,25.41-25.41,25.41H442.7
		c-11.05,0-20.47-7.1-23.96-16.97h-20.52c-2.32,0.2-4.59,0.67-6.8,1.42l-96.49,25.8c-4.23,1.15-8.1,2.27-11.86,3.36
		c-12.46,3.62-22.94,6.66-33.86,6.66c-12.34,0-25.25-3.89-42.23-15.21c-0.08-0.06-0.17-0.11-0.25-0.17L87.76,375.83
		c-15.64-11.16-20.2-31.3-10.6-46.85C86.64,313.64,106.64,308.7,123.66,317.47L123.66,317.47z M437.28,430.26
		c0,2.94,2.48,5.42,5.42,5.42h37.31c2.94,0,5.42-2.48,5.42-5.42V332.4c0-2.95-2.48-5.45-5.42-5.45H442.7
		c-2.94,0-5.42,2.49-5.42,5.45V430.26z M99.36,359.56l118.84,84.63c24.19,16.1,34.48,13.11,59.29,5.9c3.84-1.11,7.8-2.27,12.24-3.47
		l96.52-25.81c3.88-1.2,7.87-1.9,11.97-2.1h19.07v-74.75l-10.64-0.05c-7.61-0.35-9.97-0.58-18.91-4.11
		c-34.38-13.57-60.92-15.19-94.8,16.72l-0.48,0.45c-5.83,5.49-9.45,7.9-19.57,7.9h-50.71c-8.36,0-15.16,6.8-15.16,15.16
		c0,8.35,6.8,15.14,15.16,15.14h82.22c5.52,0,10,4.47,10,10s-4.47,10-10,10h-82.22c-19.38,0-35.15-15.76-35.15-35.13
		c0-2.45,0.25-4.84,0.73-7.15l-73.26-37.63c-6.68-3.44-15.81-3.09-20.34,4.24C90.17,345.96,92.41,354.59,99.36,359.56z"/>
</g>
<g>
	<path d="M155.09,275.57c-10.81,5.26-18.28,16.36-18.28,29.17c0,14.12,9.09,26.16,21.74,30.58v14.87c0,18.21,14.8,33.02,32.99,33.02
		h44.23c18.21,0,33.02-14.81,33.02-33.02v-14.87c12.64-4.43,21.74-16.46,21.74-30.58c0-12.81-7.47-23.91-18.28-29.17
		c4.37-16.24,13.24-28.34,22.56-41.02c14.34-19.52,30.59-41.64,30.56-80.6c0-3.48-0.14-7.05-0.43-10.61
		c-0.44-5.5-5.24-9.59-10.75-9.16c-5.5,0.44-9.6,5.25-9.16,10.75c0.24,3.04,0.36,6.08,0.36,9.04c0.03,32.41-12.94,50.07-26.68,68.76
		c-10.42,14.18-21.15,28.81-26.26,49.59h-77.58c-5.11-20.78-15.84-35.4-26.27-49.59c-13.74-18.69-26.72-36.35-26.68-68.77
		c0.04-34.56,14.85-56.39,27.27-68.62c17.1-16.83,40.51-26.3,64.32-25.96c0.1,0,0.19,0,0.29,0c19.4-0.29,38.85,6.03,54.74,17.77
		c4.43,3.28,10.69,2.34,13.96-2.09c3.28-4.43,2.34-10.69-2.09-13.96c-19.34-14.3-43.04-21.99-66.76-21.68
		c-29.04-0.35-57.63,11.18-78.47,31.7c-21.69,21.36-33.18,50-33.23,82.82c-0.05,38.98,16.21,61.1,30.55,80.62
		C141.85,247.24,150.72,259.33,155.09,275.57L155.09,275.57z M248.83,350.2c0,7.2-5.85,13.05-13.05,13.05h-44.23
		c-7.18,0-13.02-5.86-13.02-13.05v-13.05h70.31V350.2z M169.24,292.29h88.86c6.87,0,12.46,5.59,12.46,12.46
		c0,6.85-5.59,12.43-12.46,12.43h-88.86c-6.87,0-12.46-5.58-12.46-12.43C156.79,297.87,162.37,292.29,169.24,292.29L169.24,292.29z"
		/>
	<path d="M223.66,112.35c0-5.51-4.47-9.98-9.98-9.98s-9.98,4.47-9.98,9.98v61.92c0,5.51,4.47,9.98,9.98,9.98s9.98-4.47,9.98-9.98
		V112.35z"/>
	<path d="M213.68,209.46c-5.51,0-9.98,4.47-9.98,9.98v0.06c0,5.51,4.47,9.96,9.98,9.96s9.98-4.5,9.98-10.01
		C223.66,213.93,219.19,209.46,213.68,209.46z"/>
	<path d="M413.37,153.87h-40.55c-5.51,0-9.98,4.47-9.98,9.98s4.47,9.98,9.98,9.98h40.55c5.51,0,9.98-4.47,9.98-9.98
		C423.35,158.34,418.88,153.87,413.37,153.87z"/>
	<path d="M356.04,89.56c1.91,0,3.85-0.55,5.55-1.7l33.65-22.58c4.58-3.07,5.8-9.28,2.73-13.85c-3.07-4.58-9.27-5.8-13.85-2.73
		l-33.65,22.58c-4.58,3.07-5.8,9.28-2.73,13.85C349.67,88.01,352.82,89.56,356.04,89.56L356.04,89.56z"/>
	<path d="M395.24,262.44l-33.65-22.58c-4.58-3.07-10.78-1.85-13.85,2.73c-3.07,4.58-1.85,10.78,2.73,13.85l33.65,22.58
		c1.71,1.15,3.64,1.7,5.55,1.7c3.22,0,6.37-1.55,8.3-4.42C401.04,271.71,399.82,265.51,395.24,262.44L395.24,262.44z"/>
	<path d="M13.98,173.84h40.53c5.51,0,9.98-4.47,9.98-9.98c0-5.51-4.47-9.98-9.98-9.98H13.98c-5.51,0-9.98,4.47-9.98,9.98
		S8.47,173.84,13.98,173.84z"/>
	<path d="M32.11,65.28l33.65,22.58c1.71,1.15,3.64,1.7,5.55,1.7c3.22,0,6.37-1.55,8.3-4.42c3.07-4.58,1.85-10.78-2.73-13.85
		L43.24,48.7c-4.58-3.07-10.78-1.85-13.85,2.73S27.53,62.21,32.11,65.28L32.11,65.28z"/>
	<path d="M65.76,239.85l-33.65,22.58c-4.58,3.07-5.8,9.28-2.73,13.85c1.93,2.87,5.08,4.42,8.3,4.42c1.91,0,3.85-0.55,5.55-1.7
		l33.65-22.58c4.58-3.07,5.8-9.28,2.73-13.85S70.34,236.78,65.76,239.85L65.76,239.85z"/>
	<path d="M295.57,108.54c1.95,1.95,4.49,2.92,7.04,2.92c2.56,0,5.11-0.98,7.07-2.93c3.9-3.9,3.88-10.24-0.01-14.14
		c-3.9-3.9-10.22-3.9-14.12,0c-3.9,3.9-3.9,10.22,0,14.12L295.57,108.54z"/>
</g>
</svg>
