<svg xmlns="http://www.w3.org/2000/svg" viewBox="0 0 948 296" xmlns:v="https://vecta.io/nano"><path d="M255.3 112c0 20.5-14.8 37.7-32.3 37.7-12.5 0-22.7-6.4-28.4-16.7v39h-5V76h5v15c5.7-10.3 15.9-16.7 28.4-16.7 17.6.1 32.3 17.2 32.3 37.7zm-5 0c0-17.7-13-32.6-28.3-32.6-16 0-27.4 13.5-27.4 32.6 0 19.2 11.4 32.7 27.4 32.7 15.3 0 28.3-14.9 28.3-32.7zm10.9 0c0-20.5 17.1-37.6 37.3-37.6s37.2 17.1 37.2 37.6-17 37.7-37.2 37.7-37.3-17.2-37.3-37.7zm69.5 0c0-17.7-14.8-32.6-32.2-32.6-17.5 0-32.3 14.9-32.3 32.6 0 17.8 14.8 32.7 32.3 32.7 17.4 0 32.2-14.9 32.2-32.7zm-35.3-63.2h6.1l15 19.1h-6.1l-12-14.8-11.7 14.8h-6.1l14.8-19.1zm49.2 1.9h5V148h-5V50.7zm75.9 84.1l3.5 3.8c-6 6.5-18.5 11.1-30.1 11.1-19.2 0-35.4-17.3-35.4-37.9 0-21 15.6-37.5 35.4-37.5 20.6 0 34.3 16 34.3 40h-64.5c1.1 16.7 14.6 30.4 30.2 30.4 10.3 0 20.6-3.3 26.6-9.9zm-56.8-25.4h59.5c-.8-18-12.3-29.9-29.2-29.9-16.3-.1-29.2 13-30.3 29.9z" opacity=".2"/><path d="M320.2 177.4c.1 0 0 .1-.3.4s-.6.5-.9.8l-4.7 2.2-3.5 1.8-2.2 1.1c.2-.2-.4-.1-1.9.3-.9.6-1.8 1.1-2.6 1.5-.8.5-1.5 1-2.2 1.7l1.6-.6 2.1-.9c.7-.3 1.3-.5 1.7-.6.5-.1.6-.1.5.2-.2.3-.7.7-1.5 1.1l-2.5 1.3-2.4 1.4c-.7.5-1.3.8-1.6 1-.1.1-.3.2-.7.2.1 0 0 .1-.4.3l-1.5.8-1.6.9c-.5.3-.8.6-.9.7-.6.5-1 .5-1.2.2-.1-.3-.1-.6.2-.9.3-.2.3-.5 0-.9-.6-.2-1-.1-1.4.5-.3.6-1.1 1-2.2 1.2-.9.5-1.4.9-1.4 1.2 0 .5 0 .7.1.6s.4-.3.9-.6c.6-.5.9-.7 1.1-.7s.3.2.3.5c0 .7-.4 1.3-1.3 1.7-.9.5-1.7.9-2.7 1.2-.9.3-1.7.6-2.3.9-.6.2-.8.5-.4.9l1.3 1.9.9 1.4c.3.5.4.7.4.9l.5 1.5.6 2.1.5 1.9c.2.5.3.8.4.8.5 0 .6.8.5 2.4 0 1.4.1 2.2.3 2.4.1.1.2.6.3 1.4l.2 2.5c0 .9-.1 1.6-.2 2.3s-.2 1-.3 1c-.2 0-.3.3-.3.9s0 1.2.1 2c.1.7.1 1.5.3 2.4l.2 2.1c0 .9-.2 1.9-.5 2.8l-.9 2.7-2.2 5.1c-.9 2-1.7 3.5-2.4 4.4 0 .3-.5 1-1.4 1.9-.6.6-1.3 1.4-2.1 2.5-.9 1.1-2 2.3-3.5 3.7l-.5.5c-.1.1-.3.2-.5.3s-.4.2-.5.3l-4.5 3.5c-1.1.9-2.6 2-4.5 3.3-.5 0-.7.1-.7.3 0 .1-.6.5-1.8 1.2s-2.7 1.4-4.6 2.2l-5.9 2.6-5.9 2.5-4.6 1.7c-1.2.4-1.8.5-1.8.3 0 .2-.4.3-1.2.3-.3 0-1 .1-2 .2s-1.9.3-2.8.5-2 .4-3.2.5-2.1.1-2.8 0h-2.8c-.9 0-2-.3-3.5-.9-.9-.2-2.5-.9-4.6-2.1-2.2-1.2-4.1-2.8-5.7-4.7s-2.6-3.9-3.1-5.8-.2-4 .9-6.3c.7-1.8 1.9-3.9 3.6-6.1l5.5-6.5 5.6-5.8 4-3.9c.1 0 .3-.1.5-.3.2-.1.4-.3.5-.4.1-.2.3-.4.5-.6.3-.6.7-1 1.1-1.2s.7-.2.8 0c.2.1.3 0 .3-.3-.2-.1-.3-.3-.2-.4.1-.2.3-.4.5-.6.7-.6 1-.5 1 .2s-.3 1.3-1 1.9c-.9.6-1.4 1.2-1.4 1.9 0 .2 0 .3-.1.3s-.3-.2-.6-.7c-.2-.2-.4-.4-.6-.5s-.1-.1.1.2c0 .6-.1.9-.3.9-.3.3-.4.7-.2 1.2 0 .3-.1.5-.3.5-.3-.2-.8 0-1.5.7-.6.7-.8 1.1-.6 1.4.2.1.3.2.3.2-.1 0-.2-.1-.4-.2s-.5 0-.9.4l-1.5 1.5c-.5.6-.9 1.1-1.4 1.5-.5.5-.8.7-1 .9-.3.2-.5.5-.6.9s.1.5.6.3c.7-.2.6 0-.3.7-.6.7-.9 1.1-1.1 1.1-.2.1-.1-.1.1-.6s0-.3-.7.3c-.7.7-1 1.1-1 1.4 0 .5-.4 1.1-1.2 1.9-.8.6-1.3 1.2-1.6 1.8s-.1.8.4.4c.3-.3.5-.2.5.3 0 .3.3.1.9-.7.5-.9 1-1.5 1.7-1.9.8-.3 1.2-.7 1.2-1s.4-.9 1.3-1.7 1.4-1.1 1.6-.9c.1.2.2.3.3.3.1-.1 0-.2-.1-.4-.2-.5 0-1 .6-1.7s1.2-1 1.8-1 .7-.3.5-.9c-.2-.3-.1-.7.5-1 .8-.2 1.2-.5 1.2-.9 0-.6.3-.9.9-.9.5 0 .7-.2.7-.5 0-.5.2-.5.5-.2.3 0 .4-.3.2-.9-.2-.7 0-1 .7-1 .2 0 .7-.3 1.3-.8l2.1-1.8c.6-.6 1.1-1.1 1.7-1.5.6-.5.9-.6.9-.5.2.2.3.1.3-.5s.5-1 1.4-1.4c.2-.1.5-.3.8-.7.3-.3.5-.7.6-1 .2-.7.6-1 1.2-.9.7.1 1.1-.1 1.2-.7.1-.7.5-1 1-1 .2-.1.6-.3 1-.7.5-.3.9-.7 1.4-1a30.04 30.04 0 0 1 2.1-1.9c.6-.5 1.2-.8 1.6-1.1.5-.3.9-.6 1.2-.9s.7-.8 1-1.5c0-.6.2-.8.5-.7.5-.1 1.9-1 4.3-2.7l6.9-5.2a2.19 2.19 0 0 1 1.7-.7c.7 0 1.1.1 1.2.3.1.3.3.1.7-.7.1-.6.7-1.2 1.7-2 1-.7 1.8-1 2.4-.8.3.2.5.1.3-.3-.3-.5-.2-.6.3-.3.6.2.9.2.9-.2s.1-.4.3-.2c.6 0 1-.2 1.2-.7.6-.6.9-1 .9-1.3.1-.3-.1-.3-.6-.1 0 .1-.1.1-.3 0s-.4-.3-.6-.5c-.3-.3-.9-.5-1.5-.6-.7-.1-.9.1-.7.6.1.2.1.3.1.3-.1 0-.1-.1-.3-.3-.2 0-.5.1-.9.2s-.8.3-1.1.7c-.8.6-1.4.9-1.7.9-.3-.1-.5.1-.5.5a.47.47 0 0 1-.5.5c-.7 0-.7-.4-.1-1.2s1.4-1.3 2.3-1.5c1.6-.3 1.8-1 .6-1.9s-4.3-2.5-9.2-4.6c-.8-.5-1.6-.9-2.5-1.2s-1.5-.6-2-.7l-2.4-1.1s-2.3-1.1-3.6-1.6l-3.8-1.5-2.1-.8c-.2-.2-.6-.4-1.1-.5a9.83 9.83 0 0 1-1.6-.5 5.3 5.3 0 0 1-1.5-.8c-.5-.3-.8-.5-1-.8-.2-.1-.5-.2-.8-.3s-.5-.2-.8-.2c-.7 0-1.2-.2-1.5-.5-.3-.6-1.3-1.3-2.7-2.1l-2.1-1.5-1.7-1.3c-.3-.3-.7-.7-1.1-.9-.4-.3-.7-.5-.9-.6-.1-.1-.4-.3-.8-.7-.4-.3-.8-.8-1.1-1.4s-.7-1.1-1.1-1.5c-.4-.5-.7-.8-.9-1-.2-.3-.6-.9-1-1.7-.5-.8-.9-1.7-1.5-2.7a42.33 42.33 0 0 1-1.4-3.1c-.4-1-.7-1.8-.8-2.4-.1-.5-.2-1.4-.3-2.7l-.1-4.5v-4.7c0-1.5.1-2.7.2-3.5 0-.6.1-1.1.3-1.6l.6-1.5 1.6-3.9s.9-2 1.4-3 1-1.6 1.5-2c0-.6.5-1.3 1.4-2.2l4.1-4.5c.9-1 2.2-2.1 3.8-3.1 1.4-1 2.6-1.8 3.7-2.3s1.4-.5.9.1c-.2.3.2.2 1.2-.3.9-.6 1.4-1 1.4-1.2-.5 0-.8.2-1 .5-.5.5-.7.5-.7.2 0-.1.2-.3.6-.6s.8-.6 1.3-.9.9-.5 1.4-.8c.5-.2.8-.3 1-.3v.5c-.2.2.1.1 1-.3 1.1-.5 1.7-.9 1.7-1.2 0-.1-.5 0-1.4.3-.9.7-1.4.9-1.4.5 0-.2.2-.5.7-.8s1-.7 1.5-1.1c3.9-2.2 7-3.7 9.4-4.6s4.6-1.4 6.5-1.5a19.71 19.71 0 0 0 1.5-.3c.5-.1.8-.1 1-.3.2-.1.8-.3 1.7-.4.9-.2 1.9-.3 3.1-.4 1.9-.3 3.3-.5 4.2-.5s1.8.2 2.8.5c1.8.6 2.7.7 2.7.5 0-.3.6-.3 1.7 0 1.6.6 3.1 1.2 4.5 2 1.4.7 2.5 1.6 3.4 2.5 1.1 1.1 2.2 2.6 3.2 4.3s1.3 2.8.9 3.3c0-.1.1 0 .3.4s.3.8.5 1.3.3.9.3 1.3-.2.6-.7.6c.6 0 .7.9.3 2.6-.3 1.7-1 3.4-1.9 5-.3.7-1 1.7-2 3s-2 2.6-3.1 3.9-2.1 2.4-3 3.3c-.9 1-1.5 1.5-1.9 1.6-.2.1-.3.5-.3 1 .1.2.1.3.1.3-.1 0-.1-.1-.1-.3-.7 0-1.2.2-1.5.5-.5.5-.9.7-1.2.7-.2-.2-.6.1-1 .9-.6.6-.6.8 0 .7.5-.2.3 0-.3.8-.7.7-1.7 1.8-2.9 3.2-.6.6-1 1-1.4 1.2-.3.2-.5.2-.3 0 .6-1.5-.1-1.3-2.1.7-1.4 1.6-2.5 2.8-3.5 3.6s-1.6 1.1-2 .9c.1.1-.2.1-1-.1s-1.1-.3-.9-.3c-.5 0-1-.5-1.7-1.4l-1.5-1.7 10.3-9.6c2.7-2.6 5.1-5 7-7 1.9-2.1 2.9-3.2 2.9-3.4 0-.5.2-.7.7-.7s.7-.4.7-1.2.1-1 .3-.5.8 0 1.8-1.4a21.16 21.16 0 0 0 2.3-4.1c.7-1.7 1.2-3.4 1.5-5s.3-2.8 0-3.6c-.2-.7-.4-1.1-.6-1.1-.2-.1-.4 0-.8.3l-.5.3.3-.9c.5-.8.3-1.3-.5-1.4a2.48 2.48 0 0 0-1.7 0c-.1.1-.2.2-.3.2s0-.1.3-.3c0-.5-.3-.7-.9-.7-.9 0-1.4.2-1.4.5s-.5.3-1.5 0c-.5-.1-1.2-.2-2.1-.3-1-.1-1.9-.2-2.8-.2-2.4 0-3.2-.2-2.2-.5.5-.2.7-.4.6-.4-.1-.1-.4 0-.9.3-.5 0-.9 0-1.4.1s-.8.1-1 .1c-.9 0-1.3.3-1 .9.1.5-.2.7-.9.7-.3 0-1.3.2-2.8.7s-3.3 1-5.2 1.5a170.67 170.67 0 0 0-5.4 1.8c-1.7.6-2.9 1.2-3.6 1.6-.3-.3-.5-.2-.5.3a.47.47 0 0 1-.5.5c-.2 0-.7.2-1.4.6s-1.5.9-2.3 1.5c-.9.6-1.7 1.3-2.4 1.9s-1.3 1.1-1.6 1.5c-.8 1-1.4 1.5-1.7 1.5-.2 0-.7.3-1.4 1s-1.4 1.4-2.1 2.2-1.3 1.6-1.9 2.3-.8 1.2-.7 1.3c.2.2.3.4.3.4 0 .1-.1 0-.3-.3-.1 0-.6.3-1.4.9a18.4 18.4 0 0 0-2.1 2.5c-.7 1-.9 1.5-.7 1.5 0 .1-.1.2-.2.3l-.7.7c-.9.7-1.2 1.2-.9 1.5.1.5 0 .6-.3.5-.5-.1-.7.1-.7.7 0 .8-.5 1.9-1.4 3.4-.6 1-.8 1.9-.6 2.7.2.7 0 1.5-.4 2.3-.6 1-.7 2-.4 3s.2 2.1-.3 3.5c.2 1.9.7 3.9 1.5 6s1.5 3.2 2.2 3.4c.2.1.5.3.9.7.4.3.7.6.9.9.3.5 1.2 1.1 2.5 1.8s2.8 1.5 4.4 2.2l4.5 2c1.4.6 2.3.9 2.9.9.2-.1.4-.1.4 0a1.38 1.38 0 0 0 .4.3c0 .1.3.3.9.6s1.2.6 1.9.9 1.3.6 2 .9c.6.2 1.1.4 1.5.5.2 0 .6.1 1.1.3l1.5.6 3.4 1.5c.9.4 1.7.7 2.2 1 .6.3 1.1.6 1.5.9s.8.6 1.3.9c.6.2 1.4.6 2.4 1 1 .5 2.3 1.1 3.8 2.1.7.3 1.4.7 2.2 1.1s1.3.8 1.5 1.1c1.3 1.3 2.5 2.1 3.8 2.6s2.1 1 2.6 1.7c.1.2.4.2.8 0s.8-.5 1.3-.9c.5-.3.9-.6 1.2-.9.3-.2.5-.3.5-.2.1.2 0 .4-.4.6s-.8.4-1.1.8c-.6.7-.9 1.2-1 1.5s.1.6.5.9c.7.5 1.1.5 1.3.3.2-.3.4-.7.6-1.3l.7-1c.7.1 1 .2 1 .3s.5-.3 1.4-1.1a38.91 38.91 0 0 1 1.5-1.2c.4-.3.7-.5.9-.5.2.1.7 0 1.3-.4s1.2-.7 1.8-.9c.6-.6.9-.7.9-.5 0-.1.9-.6 2.7-1.4 2.1-.9 3.1-1.1 3.1-.7 0 .5-.6 1.2-1.7 2.2-.3-.3-.5-.3-.5 0 0 .5-.3.7-.9.7-.5.1-.5.3-.2.5.1.1.4.1.8-.1s.8-.4 1.3-.6c.9-.6 1.6-1 2-1.4.4-.3.7-.7.9-.9.2-.3 0-.4-.4-.4-.5 0-.7-.2-.9-.5 0-.6.3-.9.8-.9.5-.1.9-.2 1.3-.4 1.1-.9 1.8-1.5 2.1-1.6.2-.2.3-.1.3.1 0 .6.3.6.9 0a31.96 31.96 0 0 1 2.2-1.2c1-.5 1.8-.7 2.2-.9.2 0 .6-.1 1.1-.3s1.2-.5 2-.7c.7-.5 1.2-.7 1.6-.9a12.59 12.59 0 0 0 1-.3l.9-.3a12.25 12.25 0 0 0 1.7-.7l4-1.9zm-106.4 72.8c.5-.9 0-.7-1.4.7l-1 1 1-.5c.3-.2.6-.5.9-.7l.5-.5zm67.8-23.5c.1 0 .3-.5.6-1.6s.6-2.4.9-3.9l.6-5.1c.1-1.1 0-2.3-.3-3.7-.2-2.2-.6-4-1.2-5.4s-1.1-2.5-1.7-3.3l-1.4-1.4-2.4 1.5c-.7.5-1.3.9-1.8 1.2s-.9.5-1.1.5c-.5 0-.8.3-1 .9 0 .1-.7.6-2.1 1.5s-2.8 1.7-4 2.4a41.77 41.77 0 0 1-2.4 1.5c-.7.4-1 .7-1 .9s-.6.6-1.7 1.2c-.5.2-.9.5-1.4.9s-1 .8-1.5 1.3c-.8 1-1.5 1.5-2.1 1.5-.8 0-1.7.5-2.7 1.5s-1.7 1.6-2.3 1.8c-.2.2-.7.6-1.5 1.2-.7.6-1.6 1.2-2.5 1.9l-2.7 2.1c-.9.7-1.5 1.3-2 1.8-.2.2-.5.4-.8.6s-.6.3-.9.4c-.8.1-1.1.3-1 .7 0 .3-.1.5-.3.5-.6 0-1.1.3-1.5 1-.5.7-.8.9-1 .7s-.3-.1-.3.5c0-.1-.3.1-.8.7s-1.1 1.2-1.7 1.9-1.2 1.3-1.7 1.9-.8.8-.9.7c.1.1 0 .4-.3.9s-.8 1-1.3 1.5c-.5.6-1 1.1-1.5 1.5-.5.5-.9.7-1.1.7-.3-.2-.6 0-.9.7l-.3 1.4c-.1.2-.6.6-1.5 1-.3.1-.6.2-.8.3s-.1.2.1.2c.5 0 .7.2.6.5s-.3.5-.8.5-.7.3-.7.9c-1.8 2.4-3.3 4.3-4.3 5.8a138.08 138.08 0 0 0-2.7 4.2c-.7 1.3-.9 2-.4 2.1-.6 0-.7.3-.3.9.2.7 1 1.3 2.2 1.8 1.3.5 2.9.9 4.8 1 1.9.2 4.1.2 6.4.1s4.7-.5 7.1-1c2.3-.3 4.6-.9 7-1.8 2.3-.9 5.1-2.1 8.2-3.7 6.5-3.3 9.7-5.3 9.6-6-.1-.2 0-.3.3-.3.5.5 1.1.2 1.9-.9.5-.3 1-.8 1.7-1.3s1.3-1 1.9-1.5c1-.7 2.2-1.7 3.5-2.9l3.9-3.9c1.3-1.4 2.4-2.7 3.4-4.1s1.8-2.6 2.4-3.6c1.3-2.4 1.8-4 1.5-4.8-.2-.5-.1-.9 0-1zM216 246.4c-.1-.3-.2-.2-.3.3 0 1.5.4 1.9 1.2 1.4.3 0 .3-.2 0-.5-.4-.2-.7-.6-.9-1.2zm4-3.1c.2-.6.5-.9.7-.9.5 0 .4.3-.2.9-.2.2-.3.4-.3.5l-.2.2c-.3 0-.3-.2 0-.7zm.5-86.7c-.2-.5-.3-.2-.3.7 0 .7.1.9.3.7v-1.4zm6.3 109.2c.9.3 1.4.3 1.4 0 0-.2-.5-.4-1.4-.6s-1.9-.1-3.1.1l-1.9.3 1.5.2c1.1.2 1.7.2 1.7-.2h.6c.4.1.8.1 1.2.2zm3.3-138.7c-.8.8-1.1 1.2-1 1.2s.7-.5 1.9-1.4c1.6-1.1 2.4-1.8 2.4-2.1 0-.2-.4-.1-1.1.5-.8.6-1.5 1.2-2.2 1.8zm5.8 137.5c.2-.3.1-.6-.3-.8-.5-.2-1-.1-1.5.1-.7.5-1.5.7-2.4.7-1.1.2-1.8.5-2.1.9-.2.1-.1.2.3.3.5.1 1.3 0 2.4-.1.9-.1 1.7-.3 2.5-.4.7-.2 1.1-.4 1.1-.7zm-2.6 4.2c-.2-.3-.6-.4-1-.2-.3.1-.2.2.3.2h.7zm2.3-146.2c-1.3 1-1.7 1.5-1.4 1.5.5 0 1.2-.5 2.2-1.5 1.3-1 1.7-1.5 1.2-1.5-.1 0-.4.1-.9.4a5.73 5.73 0 0 0-1.1 1.1zm4.4 96.9c.2.3.6.1 1.2-.7.5-.6.7-.9.9-.9.1 0 .3.2.5.5.3.6.3 1.1-.3 1.6-.5.5-1.1.7-1.6.4-.6-.1-.7.1-.5.5 0 .5-.2.9-.7 1.4-.7.7-.9 1.1-.7 1.4.1.3 0 .4-.3.2-.3-.3-1 .1-2.1 1.2-.9.9-1.5 1.4-1.7 1.5s-.2-.2 0-1c.2-.9.3-1.4.3-1.5s.5-.5 1.4-1l3.6-3.6zm-3 48.9c.7 0 1-.2 1-.5s-.3-.5-.9-.5c-.3 0-.7.2-1 .5-.2.3.1.5.9.5zm14-9.4c.1 0 .6-.2 1.4-.5s1.7-.7 2.6-1.2 1.7-.9 2.4-1.4 1-.8 1-1c0-.3-1.3.2-3.8 1.5-.8.6-1.8 1.1-3 1.7s-2.4 1.1-3.5 1.6-2.2.9-3.1 1.3c-.9.3-1.4.5-1.5.5-.3-.1-.5 0-.5.3s-.2.4-.7.2c-.7-.2-1-.1-1 .3-.3.6-.7.7-1 .5-.6-.2-1.3-.2-2.1.1s-1.2.6-1.2.9c0 .6.2.9.7.9.7 0 .9-.1.7-.3-.2-.3.2-.5 1.4-.5.2 0 .8-.2 1.7-.5s1.7-.7 2.4-1c1.9-.6 3.1-1 3.4-1.4.6-.1 1.3-.4 2.1-.8.9-.4 1.3-.7 1.3-.9s.1-.3.3-.3zm-7.2 7.4c.9-.3 1.1-.5.4-.6-.6-.1-1.4.1-2.3.4-.8.2-1.2.4-1.3.4-.1.1.2.1.8.1h1.2c.5 0 .9-.1 1.2-.3zm12-58.8c.3.3.5.2.5-.5 0-.6.4-1 1.1-1.3s1.2-.2 1.5.3c.1.2-.1.6-.8 1.2-.6.6-1.1.9-1.3 1-.7.2-1 .5-1 .7a2.55 2.55 0 0 1-1.1.9l-1.5.9c-.5.3-.9.5-1.3.6-.3.1-.5.1-.3 0 .1.5-.4 1.2-1.5 2.1-1.1 1-1.9 1.5-2.5 1.5-.3-.2-.8.1-1.5.9-.6.9-1.4 1.5-2.3 2 0 .6-.1.9-.3.9-.3 0-.5-.2-.5-.7s.6-1.2 1.9-2.2l10.9-8.3zm-3.6 54.8c1.3-.5 1.9-.8 1.9-1s-.3-.2-.9 0-1.3.6-2.2 1c-.9.5-1.7.8-2.4 1.1s-1.1.4-1.4.4c-.1.1-.5.2-1.2.2-.3.1-.5.3-.6.7-.1.3.1.5.6.5a.47.47 0 0 0 .5-.5c0-.2.2-.3.5-.2.1 0 .4 0 .8-.1s.8-.3 1.1-.6c.5-.2 1-.5 1.6-.8.7-.2 1.3-.5 1.7-.7zm-1.5-148.9c-.3.3-.4.5-.2.5.5 0 .9-.2 1.2-.5s.4-.5.2-.5c-.1 0-.3.1-.5.2-.3.1-.5.2-.7.3zm.8 106.1c-.6.2-.9.4-.9.5s.2.2.5.2c.1 0 .3-.2.7-.5.1-.2 0-.3-.3-.2zm5 40.9c.1-.3.1-.5-.2-.5a.47.47 0 0 0-.5.5c0 .2.1.3.2.3.1.1.3 0 .5-.3zm.9-3.1c.3-.5.3-.5-.2-.2-.6.6-.9.9-.9 1 .1.4.4.1 1.1-.8zm5.1-6c-1 .8-1.9 1.6-2.7 2.3l-.8.8c.2 0 .7-.3 1.5-.9s1.8-1.3 3.1-2.1c1.1-.9 2.1-1.7 2.9-2.3s1.2-1 1.2-1.1c0-.2-.4-.1-1.2.3-.8.5-1.5 1-2.2 1.5-.1.2-.4.5-.8.8a4.31 4.31 0 0 1-1 .7zm-.5 5.7c.9-.9 1.1-1.3.4-1-.6.2-1.5.8-2.5 1.7-.3.3-.6.6-.8.9-.2.2-.2.3-.1.2.3-.3.7-.5 1-.5.4-.1 1-.5 2-1.3zm-1.3-52.4c0 .6-.2.9-.7.9-.3 0-.5-.1-.5-.3l.2-.2.3-.7c.4-.4.7-.3.7.3zm0-93.9c-.1 0 0 .1.3.2.2 0 .4 0 .5-.1s.1-.1 0-.1c0-.3-.3-.3-.8 0zM262 204c-.1.3-.2.3-.3 0 0-.6.3-1 .8-1.4.5-.3 1.1-.5 1.8-.5l2.9-1.2-2.9 1.9c-.9.7-1.5 1-1.7.9 0-.1-.1-.1-.2-.1-.1.1-.3.2-.4.4zm.7 7.1a.47.47 0 0 0-.5.5c0 .3.1.5.3.5l.2-.2.3-.3c.1-.4-.1-.5-.3-.5zm1 41.4c-.3.5-.3.7 0 .7s.6-.1.9-.3c.2-.5.3-.7.1-.9s-.5 0-1 .5zm.6-139.5c-.5 0-.5.2-.2.5.1.3.3.5.5.5.1 0 .2-.2.2-.5a.47.47 0 0 0-.5-.5zm4.8 138.4c.9-.8 1.6-1.5 2.1-2.1s.7-.9.6-1-.6.3-1.5 1.2c-.9 1-2 2.1-3.2 3.1s-1.9 1.5-2.1 1.5a.47.47 0 0 0-.5.5c-.4 1.2 1.1.1 4.6-3.2zm-1.8-60.1c.2.5.5.7.9.9.4.1.6.1.6-.2 0-.1-.4-.4-1.2-.9l-.7-.5.4.7zm.2 15.8c-.3-.1-.5 0-.5.3a.47.47 0 0 0 .5.5c0-.1.1-.2.2-.2l.2-.2c-.1 0-.2-.1-.2-.2-.1 0-.2-.1-.2-.2zm9-64c.5-.2.7-.6.6-1.2s-.3-.9-.8-1c-.5-.5-.7-.5-.7 0 0 .2-.1.5-.4.9s-.6.9-1 1.4-.8.9-1.3 1.3c-.5.3-.7.5-.9.5a.47.47 0 0 0-.5.5c0 .3-.3.5-.9.5a.47.47 0 0 0-.5.5c.2.3.1.6-.5.9-.2 0-.5.1-.8.3s-.4.5-.4.7c0 .7.6.5 1.7-.7 1-1 1.8-1.7 2.2-1.9.2-.2.5-.4.7-.6s.5-.4.7-.6c.6-.5 1-.6 1.2-.3.1.2.2.2.2-.2-.3-.3-.3-.7.2-1.2.1-.5.3-.5.7-.2-.1.6.1.7.5.4zm-6.7 103.2c.7-.6 1.1-.8 1.4-.8.2.1.2.4-.2.9-.5.5-.5.5 0 .2.3-.3.6-.8.8-1.3s.1-.8-.3-.8c-.2 0-.5.1-.9.3-.3.2-.7.5-1 .9-.3.3-.6.7-.9 1-.2.3-.3.6-.2.7 0 .1.1.3.3.5l.2.2c.2 0 .2-.2 0-.7-.2-.3.1-.7.8-1.1zm1.5-132.4h0c-.3.1-.5.2-.7.2-.7 0-.8-.1-.3-.3.4-.3.8-.3 1 .1zm-.9 40c0-.3.2-.7.5-1s.6-.4.7-.2c.2.2.1.6-.5 1-.4.3-.7.4-.7.2zm.9 50.5c-.1 0-.2.2-.2.7.5.5.7.3.7-.3 0-.7-.2-.8-.5-.4zm1-10.5c.8.9 1.2 1.2 1.2.9 0-.1-.3-.5-.9-1l-.7-.3.4.4zm.5 51.2c.1 0 .3-.1.6-.4l.8-.8c.6-.9.8-1.4.7-1.4s-.6.5-1.4 1.4c-.8.8-1 1.2-.7 1.2zm9.3-11.2c.7-.3.6-.5-.2-.5-.5 0-.6.4-.5 1.2v.7.2c-.2-.2-.6 0-1 .6-.5.6-.6 1.1-.3 1.5.1.3-.1.5-.7.5-.5 0-.7.2-.7.7 0 .6-.5 1.3-1.4 2.2-.7.6-1.2 1.3-1.5 2.1l-1.2 3.3-.5 1.4 1.4-1.4c1-.9 1.5-1.5 1.4-1.7-.1-.1-.4.1-.9.5-.3.6-.5.6-.5 0 0-.3.4-1 1.2-2.1.6-.6 1-.9 1.3-1s.5-.1.8.2.4.3.2-.2c-.2-.3-.1-.4.3-.2.6 0 .7-.2.5-.5 0-.5.3-.9 1-1.2.6-.3.7-.8.5-1.4-.2-.5-.2-.8 0-1s.3-.5.2-.9c0-.5.1-.7.3-.7.3.3.5.1.5-.7.2-.7.1-1-.3-1-.3-.1-.2-.3.1-.6zm-6.7-31.8c-.2 0-.4 0-.5.1s-.1.1.2.3c0 .2.1.3.2.3h.2c.3 0 .6-.1.7-.3.2-.1.2-.2 0-.3-.3 0-.6-.1-.8-.1zm2.8 41.4c.5-.3.4-.5-.2-.5-.5 0-.9.2-1.2.5-.3.7.1.7 1.4 0zm11.1-117.4c-.6 1.1-1.3 2.2-2.2 3.1-.7.9-1 1.5-1 1.7 0 .3-.2.3-.7 0-.6-.5-.9-.5-1 0-.3.3-.3.7.2 1.2.2.1.3.2.3.3-.1.1-.3 0-.6-.3-.6-.2-.9-.2-1.1.2-.2.3 0 .6.6.9.5 0 .3.3-.3 1-.8.6-1.1 1.1-.9 1.7.1.2.2.4.2.5s-.1.1-.3-.2c-.3-.3-.6-.1-.9.7-.5.7-1.1 1-1.9 1-1-.3-1.1-.3-.3.2.3.5.1.7-.7.7s-1.3.3-1.6.8-.1.9.6 1.1c.5.2.5.5.2.9-.1.2 0 .3.3.2s.7-.4 1.1-.8c.5-.4 1-.9 1.5-1.4.6-.5 1.1-1.1 1.5-1.6.6-.9.9-1.5 1.1-1.8s.1-.5-.1-.8c-.2-.2-.3-.4-.3-.4.1-.1.3 0 .6.3.6.1 1 0 1.4-.3.3-.3 1-1.1 1.9-2.4a41.77 41.77 0 0 0 1.5-2.4c.4-.7.6-1.1.6-1.4a.47.47 0 0 1 .5-.5c.1 0 .2-.2.3-.6a19.71 19.71 0 0 0 .3-1.5l.3-2.1-1.1 2zm-8.9 9.6c-.1.8 0 .9.3.3.6-.6.7-.9.3-.9 0-.1-.3.1-.6.6zm3.6 91.2c.3 0 .5-.6.5-1.7s-.1-1.6-.4-1.5c-.3.2-.5.9-.8 2.1 0 .6-.1 1.2-.2 1.9s-.2 1.1-.3 1.4c-.1.5-.1.7-.1.7.1 0 .3-.2.6-.7s.5-1 .5-1.7c-.2-.4-.1-.5.2-.5zm0-23.9c0-.7-.2-1.1-.7-1.4-.5-.2-.1 1 1 3.8 1.4 2.5 2.3 4.7 2.9 6.4.6 1.8 1 3.8 1.2 5.9.3 2.2.6 3.3.9 3.3s.4-.4.2-1.2c-.1-.2-.2-.7-.3-1.4s-.1-1.4-.3-2.2c-.3-2.1-.6-3.4-.8-4.1s-.5-1.9-1.1-3.6c-.8-2.1-1.4-3.4-1.7-4.1s-.6-.9-.9-.7c-.2.3-.4.1-.4-.7zm-.2 28.3c0-.3-.1-.5-.3-.5s-.3.2-.3.5v.3c0 .1.1.2.2.2l.4-.5zm.4-92c.2-.1.4-.2.4-.3.1-.1.2-.3.4-.5.1-.2.3-.4.5-.5 0-.8-.7-.2-2.1 1.7-.1.5.1.4.8-.4zm1.9 51.3c.1-.1-.1.1-.8.7-.6.6-1 .9-1.1 1-.1.2-.2.2-.3-.2 0-.7.2-1 .7-1l1.5-.5zm-1.9 21.5c0 .5 0 .7.1.9.1.1.1.1.1-.2.2-.3.2-.8 0-1.4 0-.2 0-.3-.1-.1s-.1.5-.1.8zm.2 9.3c0-.1-.1-.1 0 0-.1.1-.2.3-.2.7 0 .5 0 .7.1.9.1.1.1.1.1-.2.2-.4.2-.9 0-1.4zm.5-4.2a1.95 1.95 0 0 0 0-1.5c0-.2 0-.3-.1-.2s-.1.4-.1.9c0 .4 0 .8.2.8-.1.3 0 .3 0 0zm1-21.2c.5 0 .9-.1 1.2-.3s.6-.5.7-.7.1-.3-.1-.3-.5.2-1.1.5c-.5.2-.7.4-.9.6-.1.1 0 .2.2.2zm1-59.3c.2-.6.1-.7-.3-.5-.3 0-.5.2-.5.7s.1.7.3.6c.1-.1.3-.3.5-.8zm.2-10.1c-.3.9-.3 1.1.2.7.2-.1.3-.5.3-1-.1-.2-.2-.3-.3-.2s-.2.2-.2.5zm0 63c0 .1.3 0 1-.3s1.5-.6 2.3-.9c.9-.3 1.7-.7 2.4-1.1s1.2-.7 1.3-.9.3-.2.4 0c.2.2.3.2.3 0a.47.47 0 0 1 .5-.5c.5 0 .5.2 0 .7-.2.2-.8.6-1.6 1-.9.5-1.8.9-2.7 1.3-1 .4-1.9.7-2.7.9s-1.2.1-1.2-.2zm1.9-55.5c.1-.3.1-.5-.2-.5-.3.2-.5.5-.5.9 0 .9.2.8.7-.4zm2.2-3.9c0-.6-.5.1-1.4 1.9l-.3.7.9-.7c.5-.9.8-1.6.8-1.9zm1.2 63.5a.47.47 0 0 1 .5.5c-.2.5-.5.7-.9.6-.3-.1-.5-.3-.5-.8.1-.5.3-.6.9-.3zm5.5-8.4c-.6.3-.8.4-.8.2.1-.2.3-.5.8-.9.5-.7.8-.9 1-.7.2.1.2.4-.1.8-.2.4-.5.6-.9.6zm5.5-2.6c-.6 0-1.2.1-2 .4-.7.3-1 .3-.8.1.6-.3 1.3-.7 2.3-1s1.5-.3 1.5 0c0 .4-.3.5-1 .5zm3.1-1.7c-.3 0-.1-.1.7-.3s1.4-.5 1.9-.9c.2-.1.7-.3 1.5-.7.7-.3 1.5-.6 2.1-.9l1.7-.5c.5-.1.6-.1.5.2-1.7.7-3.1 1.2-4.1 1.6s-2 .7-2.8 1c-.9.4-1.4.5-1.5.5z"/><path d="M373.7 183.1l-1.5 1-.9.6c-.3.2-.7.4-1.2.7s-1.3.7-2.5 1.3c-.6.2-.8.4-.7.5.3.3.3.5-.2.5-.8-.1-1.5.2-2.2.9-.2.2-.5.5-.9.7l-1.1.5-3.3 1.4-4.2 1.9-3.7 1.8-1.8.9c-.2.6-.1.9.5.9.6.1 1.3-.2 2.2-.8 1.4-.6 2.7-1 4.1-1.2l2.1-.5-2.1 1.9c-.6.6-1.3 1.1-2.3 1.6s-1.9.9-2.8 1.1c-.9.3-1.9.7-2.9.9l-1.9.6c-.1.2-.4.4-.8.4-.4.1-.8.1-1.1.3-.1.9-.3 2.3-.7 4.1l-.7 3.6c-.2 1-.6 2.3-1.1 3.7l-1.3 3.9c-.3 1.3-.8 2.7-1.4 4.2s-1.1 2.8-1.7 3.7-1 1.8-1.3 2.7-.4 1.4-.3 1.6c0 .5-.3 1-.9 1.5.1-.2-.1.1-.8 1.1-.6 1-1.5 2.1-2.7 3.3-1.1 1.3-2.5 2.5-4 3.6s-3.2 1.7-4.9 1.7c-1.6.6-2.7.9-3.2.9s-1.4-.2-2.7-.7c-1.9-.7-3.9-1.9-5.8-3.6l-2.4-1.8c-.6-.5-1.1-1.1-1.6-1.6-.5-.6-.8-1.2-.9-1.9-2.3-3.1-3.5-7.1-3.6-11.9-.1-4.9.7-10.8 2.6-17.9.2-1.3.5-2.4.8-3.3.3-1 .5-1.5.8-1.6.2-.2.3-.6.3-1.2.1-.2.3-.7.6-1.4l.9-2.1c.3-.8.6-1.7.8-2.8s.3-2.2.3-3.3c.1-4.2 1.4-7.6 4-10.1 1.3-1.1 2.6-1.9 3.9-2.4 1.4-.5 3.4-.8 6-1 1.1-.1 2.1-.2 2.7-.3.7-.1 1.3 0 1.9.1s1.1.3 1.7.5 1.3.5 2.2.9c.9.6 2 1.2 3.3 1.9s2.3 1.3 3.1 1.9c1.5 1 2.5 1.9 3.1 2.6s1.1 1.8 1.7 3.3c.1.5.3 1.2.6 2.1.3 1 .5 2 .7 3.1s.3 2.1.3 3c.1.9 0 1.4-.1 1.5.1.5.7.6 1.6.4 1-.2 2.1-.5 3.3-.9 1.3-.5 2.5-.9 3.9-1.4 1.3-.5 2.3-.8 3-1 1.9-.9 3.1-1.1 3.4-.7.3.6.5.5.5-.2 0-.3.4-.7 1.2-1s1.7-.7 2.6-1 1.8-.7 2.7-1 1.5-.6 1.7-.9c.2-.1.6-.3 1.2-.5s1.1-.4 1.7-.6 1.1-.3 1.5-.5c.6-.3.8-.3.7-.2zm-42.6 35.3c.1.1.4-.6.9-2.1s1.1-3.1 1.6-5c.6-1.8 1.1-3.5 1.5-5.2.5-1.6.7-2.6.7-2.9s-.4-.6-1.3-.8-1.9-.2-3.2-.1c-.7.1-1.6.1-2.7-.1s-2.3-.4-3.5-.8c-1.2-.3-2.3-.7-3.3-1.2s-1.9-1-2.6-1.5c-1.5-.9-2.4-1.4-2.7-1.4-.2 0-.8.9-1.6 2.8-.9 1.9-1.5 3.6-2 5.2-.2 1-.5 2.4-.8 4.2s-.5 3.6-.7 5.6c-.2 1.9-.3 3.8-.4 5.6l-.2 4.2c.2 2.6.7 4.6 1.5 6s1.7 2.1 2.6 2.2c.9.2 1.8.3 2.7.3.9-.1 1.9-.4 3.2-.9.6-.3 1.3-.8 2.1-1.3s1.3-1 1.5-1.5a35.56 35.56 0 0 0 1.2-1.7c.2-.3.5-.7.7-.9.2-.3.5-.7.9-1.3.3-.6.9-1.5 1.5-2.7.2-.6.5-1.3.9-2.1.3-.8.6-1.2.9-1.2.2-.6.3-.9.3-1-.1-.2 0-.4.3-.4zm5.6-23.8c.5-.2.8-.7 1.1-1.5.3-.7.3-1.1-.1-1.1-.1 0-.3.2-.7.5v-1.3c0-.7-.1-1.7-.2-2.8-.1-3.3-.3-5-.7-5-.5 0-.6-.2-.3-.5.2-.3.1-1-.3-2-.5-1-1.1-1.9-2.1-2.7-.6-.7-1.2-1-1.9-1s-1 .3-1 1c.1.9-.3 1.5-1.1 1.8-.9.3-1.7.4-2.5.3-.8.1-1.8.5-3 1.3-1.2.7-1.8 1.4-1.8 2 0 .2-.1.6-.4 1.2s-.7 1.1-1.1 1.7c-1.3 1.8-1.9 3.3-1.9 4.4s.1 1.8.3 2.1c.2.7 1.3 1.3 3.3 1.9 1.3.3 2.5.5 3.6.6s2.7 0 4.8-.1l3.9-.3c1.2-.1 1.9-.3 2.1-.5zM333 219c.1-.1.3-.6.7-1.4.3-.8.7-1.6.9-2.5.3-.9.5-1.6.6-2.3s.1-1-.2-.9c-.5 1.3-.8 2.3-1.1 3.2s-.5 1.7-.8 2.4c-.2.7-.4 1.2-.5 1.3-.2.5-.3.7-.2.6s.3-.2.6-.4zm2.9-9c0-.5-.1-.6-.3-.5-.3.3-.5.6-.5.9 0 .5.1.7.3.6 0-.1.2-.4.5-1zm.7-2.4c.2-.6.2-.9 0-.9-.6.3-.7.7-.5 1.2 0 .6.1.8.2.7 0-.1.1-.4.3-1zm.5-2.2c0 .2 0 .3.1.2s.1-.3.3-.7a3.73 3.73 0 0 0 .2-1.2v-1c0 .1-.1.4-.3.9-.2.2-.3.5-.3.9-.1.4 0 .7 0 .9zm.8-14.1c.2-.1.3-.3.3-.4-.1-.2-.1-.4-.1-.6-.2-.2-.4-.1-.5.3.1.6.2.8.3.7zm1.9 2.2c.3-.3.5-.9.3-1.7.2-1.3.1-1.7-.3-1.2-.3.2-.5.8-.4 1.6 0 .9.2 1.3.4 1.3zm1.6 9.8c.2-.2.2-.6 0-1-.2-.5-.3-.4-.3.2-.1.6 0 .8.3.8zm1-9.8c.2 0 .3-.4.3-1.2 0-1.4-.1-2.8-.3-4.4-.2-1.5-.4-2.5-.6-3-.2-.3-.3-.1-.3.7s.1 1.8.2 3.1c.1 1.4.2 2.5.3 3.4 0 1 .2 1.4.4 1.4zm16.1-.5c.1 0 .5-.1 1-.4a22.02 22.02 0 0 1 2.1-.9l2.7-1.2-1 1.2c-.7.7-1.3 1.1-1.7 1.2-.6 0-1 .2-1.4.5-.2.3-.5.5-.7.5-.3.2-.6.3-.7.1a1.38 1.38 0 0 0-.3-.4c-.2-.4-.2-.6 0-.6zm4.7-4.9c.5-.5.5-.7.2-.7s-.9.3-1.5.9c-.3.1-.5.2-.5.3s.1.2.3.2a3.4 3.4 0 0 0 1.5-.7zm6.8-3.3c.2-.2.5-.4.9-.4.3-.1.3-.1 0-.1-.2 0-.9.3-2.1.9-1.1.6-1.8 1-2.1 1.2-.5.2-.2.1.7-.3 1-.4 1.8-.9 2.6-1.3z"/><path d="M406.1 93.4c.7-.1 1 1.1 1 3.7s-.3 5.5-.9 8.7l-1.1 3.6c-.3.8-.4.9-.4.3v-2.1l-.5 2.4c.1-.5 0 .1-.3 1.6l-1.4 5.8-1.8 7.1-1.5 5.2c0 .8-.5 2.4-1.4 4.9l-2.6 6.8c.9-.7.7-.2-.5 1.5-.3.6-.6 1-.7 1.2s-.1.2.2 0c.2-.2.1-.1-.3.3s-.7 1-.9 1.8a19.13 19.13 0 0 0-1 2.7l-.6 1.6-.5 1.4c-.2.5-.3 1.1-.4 1.9l-1.3 3.5-2.9 7.2-3.9 9.2-4.2 9.7-3.8 8.4-2.7 5.4c-.6 1-1 1.9-1.3 2.5s-.5 1.2-.7 1.6c-.2.5-.4 1-.7 1.5l-1.1 2.4c-.1.2-.1.9 0 2.1l.4 3.5s.3 2.2.4 2.9 0 .9-.3.4c-.2-.2-.3-.3-.3-.2a1.76 1.76 0 0 0 .1.6c.1.3.2.7.4 1.1.2-.1.4.1.5.6s.2 1.2.3 2.1c.1 1.3.4 2.7.8 4.4s.9 3.3 1.6 4.9 1.4 3 2.2 4.3 1.7 2.1 2.7 2.4c1.4.6 3.2.7 5.4.4s4.6-.9 7.1-2c2.5-1 5-2.4 7.6-4 2.5-1.7 4.7-3.6 6.5-5.9.1-.2.5-.6 1.1-1.2s1.1-1 1.5-1.2c.3-.2.2.1-.5.9l-2.1 2.7-1.9 2-1.9 2s-1 1.1-1.4 1.5c-.3.4-.4.5-.2.4s.5-.3.9-.5.7-.5.9-.7.5-.5.7-.8.5-.4.7-.4c.1 0 .6-.5 1.5-1.5s1.8-2.1 2.8-3.3l2.7-3.2c.8-.9 1.2-1.3 1.2-1l-4.3 7.8c-1.5 2.6-3.2 4.9-5.2 7-1.9 2.1-4.2 3.8-6.8 5.2s-5.6 2.3-9 2.7c-1.9.2-3.8.1-5.6-.5s-3.4-1.3-5-2.2c-1.5-.9-2.9-1.9-4-2.9s-2-1.9-2.6-2.7c-2.6-3.5-4.6-8.8-6-15.6s-1.8-15.3-1.2-25.2c.1-1.3.2-2.4.2-3.5s.1-1.7.2-2c0-.2 0-.5.1-.7s0-.5-.1-.7-.1-1.3.2-3.3c.2-1.9.5-4.3.9-7 .3-2.7.8-5.6 1.4-8.8a204.18 204.18 0 0 0 1.5-8.8c.5-2.7.9-5.1 1.4-7s.8-3.1 1-3.4c.2-.2.3-.5.3-.9s.1-.9.3-1.5c0-.5.1-1.2.3-2.1.2-1 .5-1.9.7-2.8s.5-2 .9-3.2.6-2.3.9-3.2c.1-1 .7-3.2 1.9-6.6 1.1-3.4 2.4-7 3.9-10.9l4-11c1.3-3.4 2.2-5.7 2.7-6.7 1.4-2.7 2.6-4.8 3.7-6.2s2.3-2.2 3.5-2.6c1.8-.6 3.8-.9 5.9-1s3.6-.1 4.6.2c1.3.6 2.5 1.3 3.6 2.2s1.7 1.6 1.7 2.1c.3.4.5.7.8.7zm-42.4 81.3l-1 8.7-.8 8.6c-.2 2.7-.3 5-.3 7-.1 1.9 0 3.3.1 4 .2.9.3 1.4.3 1.5s0-.3 0-1.2c.1-.6.2-1.3.2-2.1v-2.5c.2-.9.3-1.9.3-2.9v-2.4c0-.6 0-1.2.1-2 .1-.7.1-1.4.3-2 .1-.6.3-2.1.6-4.7l1.1-8.7a150.64 150.64 0 0 1 1.1-8.8c.4-2.7.7-4.3.9-4.9s.4-1.1.4-1.7c.1-.6.1-1 .3-1.4 0-.2.1-.9.3-2.1s.5-2.5.9-4c.6-2.6.9-4.4 1-5.4s-.1-1-.5-.1c-.2.6-.6 1.9-1 4-.5 2.1-1 4.6-1.5 7.4-.6 2.8-1.1 5.6-1.6 8.5-.6 2.6-1 5.1-1.2 7.2zm-1.6 34.8c.3-.3.3-.8 0-1.4-.2-.3-.4-.1-.5.7.3.6.4.8.5.7zm.6 4.7c.2-.1.2-.5 0-1.2-.2-.2-.3-.1-.3.5-.1.7 0 .9.3.7zm.8-9v-.7c0-.2-.1-.5-.2-.7s-.2-.3-.3-.2 0 .4.1.9c0 .3 0 .6.1.8s.2.2.3-.1zm.2-7c.1-.3.1-1-.2-1.9-.1-.2-.2-.3-.3-.2s0 .5.1 1c.2.6.2 1 .4 1.1 0 .2 0 .2 0 0zm.5 7.5c.2 3 .4 4.6.5 4.8s.2-.6.2-2.4c0-1.1-.1-2.3-.2-3.5s-.3-2.1-.5-2.7c-.2-.9-.4-1.1-.4-.5-.1.6.1 2.1.4 4.3zm.8-7l.3-2.9c.1-1 0-1.7-.1-2.1-.2-.9-.4-.7-.5.7s-.1 3 0 4.8l-.2 3.1.5-3.6zm.9-7.7c0-.7-.2-1-.5-.9-.2.2-.3.7-.3 1.4.1.6.3.8.4.7.2-.1.3-.5.4-1.2zm-.1 24.9c0-.8-.1-1.4-.3-1.7s-.3-.1-.3.7c.1 1.1.3 1.4.6 1zm1.7-47.6l.5-3.9c.1-1.1.1-1.6 0-1.6s-.3.5-.5 1.5-.5 2.2-.7 3.6l-.6 3.9c-.2 1.2-.3 1.9-.3 2.1.1 1.3.7-.6 1.6-5.6zm-1.1 39.8c.2-.1.2-.5 0-1.2-.2-.2-.3-.1-.3.5 0 .7.1 1 .3.7zm34.2-110.2c.2-1.9.1-3.1-.3-3.6s-.6.2-.6 2.1c0 .9-.2 2.6-.5 5s-.7 4.8-1.1 7.3-.8 4.6-1.3 6.3-.8 2.3-1 1.9c.1-.7.3-1.5.5-2.4.2-.8.4-1.7.6-2.7l.6-3c.9-4.6 1.4-8 1.4-10.2s-.3-4-.9-5.2c-.3-1.1-.6-1.7-.9-1.7-.3.1-.7.3-1.2.6s-.6.5-.3.8c.1.1-.1.6-.7 1.5s-1.3 1.9-2.1 3c-.9 1.1-1.7 2.1-2.2 3-.6.9-.8 1.4-.7 1.6.1.1.1.5-.1 1.2s-.5 1.5-.9 2.4c-.3.8-.7 1.8-1 2.9s-.6 2.1-.9 2.7c-.5 1.7-1 2.6-1.7 2.6-.5 0-1 .9-1.7 2.7s-1.4 3.9-2.1 6.4l-2.3 7.8-2.2 7.2c0 .2.1 0 .4-.8.3-.7.7-1.7 1.1-3 .1-.6.4-1.5.9-2.8l1.5-4 2-5.2c-.6 1.9-1 3.5-1.4 4.7-.3 1.2-.7 2.3-1 3.4s-.6 1.8-.7 2.1c-.2.7-.5 1.6-.9 2.8l-1.1 3.3c-.6 2.2-1.1 3.4-1.5 3.6-.6-.1-.9-.1-1.1.1s0 .4.4.6c.6.2.7.7.5 1.4s-.6 1.1-1.2 1.2c-.7 0-.7.2-.2.5.5 0 .5.7.2 2.2-.2.7-.5 1.8-.9 3.4-.3 1.6-.7 3.2-1 4.8-.2 1.5-.5 2.8-.8 3.9s-.5 1.6-.8 1.5c-.1-.1-.2 0-.2.4s.1.8.3 1.3c.3 1.4.2 2.2-.3 2.4-.6.6-.8 1-.7 1.2.2.2.3.8.3 1.6-.1.9-.2 1.7-.4 2.7l-1.1 6.4-1.1 6.6-.8 5.2c-.2 1.4-.1 2.1.1 2.1.9-1.9 1.9-4.1 2.9-6.4.9-1.9 1.9-4.2 3-6.8s2.1-5.3 3.2-8.2c1.9-5.5 3.9-10.8 6-15.9s3.7-9.4 5-12.8l1.8-5.2c.4-1.1.5-1.1.3.2a1.08 1.08 0 0 0-.3.7c.1.2.1.2.3 0 .2-.1.4-.4.4-.8.1-.4 0-.8-.1-1.1 0-1.1 0-1.8.1-2.1.1-.2.3-.2.8 0 .3.3.4.3.2-.2-.3-.3-.3-1.1.1-2.3s.9-1.8 1.5-1.8c.2 0 .3-.3.3-.9-.1-.5 0-1.3.3-2.5s.6-2.4 1-3.6a60.05 60.05 0 0 1 1.2-3.3c.4-1 .7-1.5.9-1.5.6 0 .9.2.9.7.1.2.3.2.7-.2.2-.7.3-1.2.3-1.5-.1-.3-.3-.4-.6-.2-.2.3-.3.4-.1.1s.4-1 .8-2.1l2.2-16.1zm-31.4 58.9c.1-.9.1-1.4.1-1.5-.1-.1-.2.3-.4 1.2s-.5 1.8-.7 2.6c-.2.9-.3 1.7-.3 2.2.2.6.5.3.8-.9.2-1.1.4-2.3.5-3.6zm.3-3.6c-.3 1.8-.3 2.1.1.8s1.1-3.7 2-7.1l1.5-5.7 1.6-5.2c.5-1.5.9-2.6 1.3-3.3.3-.7.5-.8.5-.3-.2.9-.2 1.3.1 1.1s.5-.7.8-1.6c0-.7-.1-1-.3-.9-.3.2-.5.2-.5 0s.3-1.1.9-2.7c.2-.8.5-1.6.7-2.4s.5-1.4.7-1.7c.2-.9.6-1.4 1-1.4.1.1.3-.1.6-.7s.6-1.2.9-1.9.5-1.3.5-2c.1-.6 0-1-.1-1.1s-.1-.3.1-.7l.6-.9c.7-.9.9-1.7.5-2.4-.2-.5-.2-.6.2-.3.6 0 .7-.2.3-.7-.3-.6-.3-.8.2-.7.5.2.9-.1 1.3-.9.4-.9.5-1.9.4-3V106l-1 1.5-1.5 3.7-2.7 6.9c-1 2.6-1.9 5.2-2.8 7.9s-1.7 5-2.2 6.8c-.2.9-.5 1.9-.9 2.9s-.7 1.8-.9 2.2c-.2.5-.4 1.1-.6 1.9s-.4 1.5-.6 2.2c-.1.9-.3 1.8-.4 2.7-.2.9-.4 1.6-.6 2.1-.2.6-.4 1.1-.5 1.5s-.2.7-.2.9c-.1.1-.2.2-.2.3s-.1.1-.2.3c.1.1.1.3.1.4-.1.2-.1.4-.1.6a3.73 3.73 0 0 0-.2 1.2c-.2.4-.3.8-.4 1.2zm0-7.4l.9-1.5c.2-.6.5-1.2.7-1.8s.4-1.1.5-1.5c0-.5.3-1.5.8-3.2a85.31 85.31 0 0 1 1.8-5.4c.7-1.9 1.2-3.7 1.6-5.2s.5-2.2.4-2.2c-.1-.1-.3.2-.6.9s-.6 1.5-.9 2.4c-1.3 3.9-2.3 7.1-3 9.5-.7 2.5-1.3 4.3-1.6 5.6l-.6 2.4zm1.4 18.6c.2-.2.2-.6 0-1.2-.2-.2-.3-.1-.3.5 0 .7.1.9.3.7zm16.8-17c.2-.6.2-.9-.2-.9-.1 0-.5.8-1 2.3-.6 1.5-1.2 3.2-1.9 5.1-.7 1.8-1.3 3.5-1.8 5.2l-.8 2.6c-.1.2-.2.5-.3.9-.1.2-.3.5-.4.9-.2.3-.3.7-.4 1L374 180l-2.5 6.1c-.1.3.7-1.3 2.3-4.8l7.7-17.1c.3-.8.8-1.6 1.3-2.3s.9-1.4 1.3-2c.2-.5.3-1 .3-1.5 0-.6.1-1.1.2-1.5 0-.2.1-.8.4-1.8l.9-3c.3-1 .7-2 1-2.9.5-1.2.7-1.7.8-1.8zm-11.8-10.2c0-.6-.2-.8-.5-.7-.3.6-.5.9-.3 1 0 .5.1.7.3.6.1 0 .3-.3.5-.9zm1.2-15.3c-.5 1.4-.6 2.1-.5 2.1.1.1.4-.5.9-1.8.6-1.3.7-2 .5-2.2-.4 0-.7.7-.9 1.9zm3.9-11c-.1 0-.3.4-.7 1.2-.3.8-.7 1.7-1 2.7s-.7 1.9-.9 2.7c-.3.8-.4 1.3-.4 1.4.2 1 .8.1 1.7-2.7.2-.8.5-1.6.8-2.4s.5-1.4.6-1.7c.2-.8.2-1.2-.1-1.2zm1.6-4.1c-.3.3-.5.7-.5 1 .2.9.5.8.9-.3 0-.7-.1-.9-.4-.7zm1.9 3.5c-.3 1.1-.6 1.3-.9.3 0-.3.2-.6.5-.9.4-.2.5 0 .4.6zm.3 4.6c.3-.3.5-.2.5.3.1.2 0 .5-.3.9-.5.2-.7.2-.7-.2s.2-.8.5-1zm1-3.1c.2-.6.1-.7-.3-.5-.3.3-.5.7-.5 1 .1.9.4.8.8-.5zm.6-7.4c-.7.5-1 .8-1 1 .1 0 .2-.1.3-.2.1 0 .4-.1.9-.3.7-.5 1-.8 1-1s-.4-.1-1.2.5zm9.1 129.8c-.7.2-1.4.7-2.1 1.5-.7.7-.8 1.1-.3.9.1 0 .4-.2.9-.5s1.1-.7 1.7-1.1 1.2-.8 1.6-1.3c.5-.5.7-.8.7-1s-.4-.1-1.1.5-1.2.9-1.4 1zm1.2-111.6c.7-2.6.8-3.5.3-2.7s-1.1 2.5-1.8 5.2a117.09 117.09 0 0 0-1.2 4.1l-.5 1.9c0 .2.1 0 .4-.6s.6-1.4.9-2.3.7-1.9 1-2.9c.3-1.1.6-2 .9-2.7zm-2.8 2.4l-.3 1.1c.1.1.3-.3.6-.9.5-.9.7-1.5.7-1.7-.1-.6-.4-.1-1 1.5zm5.5-12.9a.47.47 0 0 0 .5-.5c0-.5-.1-.7-.3-.7a3.04 3.04 0 0 0-.5.7c-.4.6-.3.8.3.5zm1-7.3c.2.7.3.9.3.7a.55.55 0 0 0 .3-.5 1.08 1.08 0 0 0-.3-.7c-.2-.3-.3-.5-.3-.3.2 0 .2.3 0 .8zm3.5 8.4c.2-.7.5-1.3.8-1.7.3-.5.4-.6.4-.3 0 .2-.1.9-.4 2.1a94.49 94.49 0 0 0-.9 3.6c-.3 1.3-.7 2.4-.9 3.3-.3 1-.4 1.3-.4 1.1.2-1.5.4-2.7.6-3.5.2-.9.3-1.7.5-2.7 0-1 .2-1.6.3-1.9zm.1-11.2c-.1 0-.2.1-.3.3s-.1.4 0 .6c0 .8.2 1 .5.7.2-.1.4-.3.4-.5.1-.2.1-.4.1-.5 0-.4-.2-.6-.7-.6zm2.3-2.4c0 .5-.1 1-.2 1.7l-.3 2.1c-.1.7-.2 1.2-.2 1.6s.1.5.2.4c0-.1.1-.5.3-1.2s.3-1.4.4-2.1l.3-2.2c.1-.7.1-1.2.1-1.5-.4-2.2-.6-1.8-.6 1.2z"/><path d="M469.5 222.6c.1 0 .1.2.1.6-.1.4-.3.7-.6.9-.5.3-1 .8-1.5 1.3l-1.6 1.3c-.5.3-.9.6-1.1.8s-.2.1 0-.1c.3-.1.9-.2 1.7-.3l1.4-.2c-.8 1.3-2.1 2.7-3.9 4.5-1.8 1.7-3.4 3-4.8 3.9-.3.2-.7.3-1.2.3s-.8.1-1 .2c-.1.2-.5.4-1.3.4-.7.1-1.6.1-2.5.1-2.4 0-4.1-.3-5.2-1-.5-.2-.9-.5-1.2-.7s-.6-.3-.9-.3c-.5 0-1.1-.5-2.1-1.5-.9-1-1.8-2.1-2.7-3.5l-2.5-4.1c-.7-1.4-1.1-2.4-1.1-3.1 0-.6-.1-.7-.3-.5-.2.1-.5-.3-.8-1.1-.3-.9-.5-2-.8-3.3-.2-1.6-.3-3.1-.3-4.5s.1-1.9.3-1.7c.1 0 .2.5.3 1.5l.3 3.4c.1 3.3.3 4.2.5 2.6.2-1.5.2-2.3 0-2.6l.1-2.1.4-4.3.4-6.1c-.1-1.3-.3-1.8-.8-1.5-.3.3-.4.7-.2 1.2s.2.9 0 1.4c-.2.2-.4.6-.4 1.2-.1.6-.1 1.1-.3 1.7.2 1.3.2 2.1-.2 2.4-.2.2-.3-.6-.3-2.6v-3.1l-1 1.5c-.8 1.3-1.2 2.1-1.2 2.4s-.2.7-.7 1c-.5.2-1 1.1-1.6 2.5s-.9 2.5-.9 3.2c0 .6-.2 1.1-.7 1.5-.3.3-.8 1-1.4 2.1-.6 1-1.1 2.1-1.7 3.3-.6 1.1-1.1 2.2-1.5 3.2s-.5 1.5-.4 1.6-.2.5-1 1.2c-.3.2-.7.5-1 .9s-.6.7-.9.9c-.5.8-1.2 1.3-2.2 1.5-.5.2-.9.4-1.3.5s-.7.2-.8.3c-.2.2-.8.4-1.6.5l-2.7.3c-.9.1-1.8.1-2.7.1s-1.3-.1-1.5-.3c-.5-.5-.8-.7-1-.7-.6 0-1.6-.7-3-2.1s-2.4-2.6-3-3.8c-.8-1.4-1.4-2.2-1.9-2.4-.6-.1-1-1.3-1.3-3.5s-.4-4.8-.3-7.6c0-1.9.1-3.7.3-5.4l.8-5.2c.3-1.8.8-3.8 1.3-5.9l2-7.6 1.1-4.4.9-4.2c.3-1.6.6-2.7.9-3.3.2-.6.6-1.1 1-1.3.3-.2.6-.3.8-.3.2.1.2.1.1.3-.2.3.1.5.9.5.7-.1 1.4.1 2.1.5.5.5.9.7 1.2.7s.6.4.8 1.1.3 1.8.3 3.1-.1 2.8-.4 4.6l-1.1 5.2c0 .2 0 .5-.1.7s0 .5.1.7c.2.5.1.7-.3.7-.5 0-.6.1-.3.3.2.2.1.7-.3 1.5-.5.8-.5 1.2-.2 1.2l-.2.5c-.1.1-.3.6-.5 1.4l-.7 2.9-.6 3c-.2 1-.4 1.6-.6 2-.7.7-.7 1-.2 1 .5.2.6.5.3.9-.2.2-.4 1.1-.6 2.7l-.6 6.7c0 .3-.1.7-.2 1.1s-.2.7-.3.9c-.6 1-.5 1.7.3 1.9.5.2.7 1.1.9 2.6l.3 1.9c.1.6.2.9.3 1 .3.2.9.2 1.6-.1s1.6-.7 2.5-1.4c.9-.6 1.9-1.4 2.8-2.2 1-.9 1.8-1.7 2.5-2.7.7-.9 1.2-1.3 1.5-1 .2.1.3-.1.2-.5-.3-.5-.2-.9.3-1.2.5-.2.7-.6.7-1.2 0-.3.2-.5.5-.3.2.2 1.6-1.8 4.2-6.1s5.9-10.2 9.9-17.8l1.5-3.1c.5-.8.7-1.2.9-1.2-.1-.1-.1-.1.1-.1.2.1.4.2.6.4.3.3.3.5 0 .3-.5.1-.9.5-1.2 1-.2.2-.6.9-1.1 1.9s-1.1 2.2-1.6 3.4l-1.7 3.2c-.5.9-.7 1.4-.7 1.6 0 .1-.2.5-.7 1.2s-.5 1.1-.2 1.4c.2.3.6.1 1.2-.7.2-.5.5-.9.9-1.4.3-.5.6-.9.9-1.2.5-.6.7-1 .7-1.4-.1-.1 0-.5.3-1 .5-.5.7-.9.7-1.2 0-.1.2-.5.7-1.2.6-.6.7-1.1.3-1.5-.1-.5-.1-.7.2-.7.3-.1.8-.7 1.4-1.7s1-2 1.2-2.9c.1-.7.1-1.1.1-1.2-.1-.1-.3.1-.8.5-.7.7-.8.5-.3-.5a7.62 7.62 0 0 0 .7-1.3c.2-.5.5-.9.7-1.3.2-.3.5-1 .9-1.9l.9-2.7c.3-1.5.6-2.4.9-2.7.2-.3.7-.6 1.5-.9 1.1-.2 1.9-.2 2.2.2.2.1.6.2 1 .2.3-.2.9-.2 1.7.1s1.1.5.9.8.1.5.9.5c.6-.1.9-.1 1.1.2.2.2.3.9.3 2.1 0 1.5-.2 2.5-.7 2.9-.5.3-.7.9-.7 1.7 0 .3 0 .7-.1 1.2s-.1.8-.1 1l-.9 2.7c-.4 1.2-.6 2.1-.6 2.7 0 .2 0 .5-.1.9s-.2.8-.4 1.1c-.5 1.5-1 4-1.6 7.6l-1.8 11.4c-.2 1.8-.3 4.1-.2 6.9.1 2.7.4 5 .9 6.7.2 1.1.6 2.2 1.2 3.3.6 1 1 1.5 1.4 1.5h1.7l1.8.4c.7.2 1.4.1 2-.1l2.6-.9c1.1-.4 2.1-.8 2.9-1.3.1 0 .4-.1.8-.2s.8-.2 1.3-.2c.6 0 1.1-.2 1.5-.7.5-.5 1-1 1.7-1.5.8-.7 1.4-1 1.9-1 .2 0 .7-.5 1.5-1.5a2.73 2.73 0 0 1 1.3-.7c.2 0 .5-.1.8-.2zm-70.3-9.1c.2-.2.2-.6 0-1-.2-.2-.3-.1-.3.3 0 .7.1.9.3.7zm.9-5.5c.2-.2.3-.4.3-.5s-.1-.1-.3 0c-.8 0-1.1.9-.9 2.7l.2.7.2-.9a3.73 3.73 0 0 1 .2-1.2l.3-.8zm.5-3.8c.3 0 .6-.5.7-1.4s0-1.6-.3-2.1c-.5-.6-.5-.5-.2.3.2.7.1 1.4-.3 2.2-.2.2-.4.6-.6 1-.2.5-.3.9-.3 1.4v.9c.2-.6.6-.6 1-.2.1.2.2.3.3.2s0-.4-.3-.9c-.2-.8-.2-1.3 0-1.4zm1.9-5.5c.2-.2.2-.5-.2-.7-.6-.2-.9-.3-1-.2s-.1.3.2.7c.2.4.5.4 1 .2zm-.7-2.4c-.3 0-.3.2.2.7.7.9.8.8.3-.3-.1-.2-.2-.4-.3-.4-.1-.1-.2-.1-.2 0zm1.2-2.4c.2 0 .3-.3.3-.9 0-.5-.1-.7-.3-.7l-.3.7c-.3.6-.1.9.3.9zm24.6 13.9c.6-.6.7-.9.3-.9-.2-.2-.4 0-.5.7-.1.5-.1.5.2.2zm1.9-3.4c.2 0 .3-.3.3-1l-.2-.9-.2.5c-.2.7-.4 1-.5 1-.3 0-.5.4-.5 1.2.1.6.2.6.3.2.3-.6.5-.9.8-1zm6.3-6c.3-.5.7-1.2 1-2.2s.4-1.5.2-1.5c-.1 0-.3.3-.6.8s-.6 1.1-.9 1.6c-.3.6-.5 1.2-.7 1.8s-.3 1-.3 1.1c.1.7.3.7.5 0 .1-.7.4-1.2.8-1.6zm1.6 2.4c0 .2.1.3.2.1s.3-.4.4-.8c.2-.3.3-.7.4-1.1s.2-.7.2-.9c0-.5-.2-.2-.7.7-.4.9-.5 1.6-.5 2zm1.9 14.6c.2-.1.2-.5 0-1-.1-.3-.2-.2-.3.3 0 .4.1.7.3.7zm2.2 2.7c.3.3.6.5.8.4s.1-.3-.3-.8c-.2-.3-.5-.5-.7-.5s-.3.1-.3.3c.1.2.3.4.5.6zm1.9-15.8l.5.5c.1-.1.2-.3.2-.7 0-.2-.2-.3-.5-.3s-.5.2-.2.5zm25.4 17.7c1-.9 1.8-1.5 2.2-1.7.5-.2.3.1-.5.9-3.3 3.1-6.1 5.4-8.2 6.9-4.1 2.5-3.8 2 .9-1.5a33.66 33.66 0 0 0 3.4-2.7c1-1 1.7-1.6 2.2-1.9zm4.6-1.9c.6-.2.6-.1.2.4-.5.5-1 1.2-1.5 2.1-1.1 1.1-1.7 1.5-1.7 1-.1-.1.2-.5.9-1.2.7-.3.9-.7.7-1.2-.1-.1.1-.3.5-.6.4-.2.7-.4.9-.5z"/><path d="M554.3 137c.2 1-.1 1.9-.9 2.7-.9.7-1.9 1.3-3 1.8s-2.2.8-3.2.9l-1.6.3c-.7 0-1.4.1-2.1.4s-1.1.3-1.1.1c0-.3.3-.5 1-.5.8-.2 1.2-.5 1.2-.7 2.2-.9 3.6-1.7 4.4-2.4.7-.7 1-1.4.9-2.2-.2-.8-1.5-1.5-3.9-2.1-.7-.2-1.1-.4-1.3-.5s0-.1.4.2c1.1.2 1.5.2 1.2-.1s-1.1-.5-2.4-.8l-1.5-.3c-.5-.1-.7-.2-.9-.2-4.8-1.3-9.8-2.1-15.1-2.4s-10.7-.5-16.3-.5h-5.2c-1.5 0-2.9 0-4.3.1s-2.8.1-4.4.3l-5.4.3v2.1c-.3.3-.4.5-.2.5 0 .1 0 .2.1.2s.1.1.1.2c0 .2.1.4.2.5l-.3 1.7c-.1.7-.3 1.2-.4 1.5-.2.3-.3.3-.3.1-.1-.6-.2-.8-.2-.8 0 .1-.1.4-.3.9-.2.6-.2 1 .2 1.4.2 0 .3.1.2.2s-.3.2-.5.3c-.2.3-.4.5-.4.6-.1.1 0 .1.3.3a.47.47 0 0 1 .5.5c0 .2 0 .3-.1.3-.1-.1-.1-.1-.3-.1-.2-.1-.3.2-.3 1 .1.2.1.5.1.8-.1.3-.2.4-.4.3-.2 0-.3.2-.3.7.1.1.2.4.2.9s-.1.9-.2 1.4c-.2.5-.4 1.1-.5 1.9a52.78 52.78 0 0 1-.3 2.1c-.1.3-.2.5-.2.6v.2c0 .1-.1.3-.2.6s-.2 1-.3 1.9c-.6 1.8-1 3.4-1.3 4.6-.3 1.3-.5 2.3-.8 3.1l-1.2 6c-.3 1-.6 1.8-.8 2.4s-.3 1.1-.4 1.5c-.1.5-.2.9-.3 1.5-.1.5-.2 1.2-.3 2.1-.1.8-.3 1.8-.6 2.9s-.5 2.1-.8 2.7c-.2 1.3-.5 2.9-.9 5.1-.4 2.1-.9 5.7-1.6 10.7l-.5 2.7-1.5 7.4c-.2 2.2-.5 3.5-.9 4.1-.6.6-.6.7 0 .5.2-.2.3-.1.3.3 0 .5-.1 1.4-.3 2.9 0 1.6.1 3.6.3 5.8.2 2.3.6 4.2 1.2 5.8s1.6 3.2 3 4.9 2.5 2.5 3.3 2.7c2.1.1 4 0 5.8-.3s3.7-1.2 5.9-2.7c.6-.6 1.1-1 1.5-1.4.4-.3.7-.5.9-.3.1 0 .5-.3 1-.9.2-.2.7-.4 1.4-.6s1.1-.2 1.4-.1c.6.2.7.1.5-.5-.2-.2-.3-.4-.3-.4.1-.1.1-.1.3-.1.6-.2 1.2-.3 2-.3.7 0 1.6-.7 2.7-2.1 1.3-1.6 2.7-2.9 4.3-4s2.5-1.9 2.7-2.5c0-.2.3-.7 1-1.5.7-.7 1.1-1.2 1.4-1.5 1.7-1.4 2.4-1.8 2.1-1.4-.3.5-1.8 2.7-4.5 6.9-.9 1.3-1.5 2.1-1.6 2.5-.2.4-.5.9-.9 1.5-.3.6-.6.9-.9 1.1-.2.2-.4.3-.6.3h-.3c-.1 0-.1.1-.1.3l-.5.3c-.3.3-.4.7-.2 1 .2.5 0 .8-.6.9-.6.2-1.4.8-2.3 2-.8.8-1.3 1.2-1.4 1.2.1.1-.2.3-.9.5s-1.4.6-2 1.2-1.1 1-1.5 1.4c-.4.3-.6.6-.6.9 0 .1-.1.3-.4.5s-.5.5-.8.7c-.2.3-.5.7-.8 1s-.4.6-.4.9c0 .5-.2.5-.7.2-.2-.1-.6-.1-1 0-.5.1-1 .3-1.5.5-1.1.5-2.4.7-3.9.8-1.4.1-2.4-.2-2.8-.8-.5-.2-.8-.2-1 0-.3.2-.5.1-.5-.3 0-.2-.2-.3-.5-.2-.5.1-1.1 0-2.1-.4-.9-.4-1.7-.9-2.2-1.5-.2-.2-.6-.6-1.2-1-.6-.5-1.2-1-1.9-1.5-1.5-1.3-2.5-2.2-3.2-2.7-.6-.6-1.2-1.5-1.8-2.9-.2-.7-.6-1.5-1-2.5-.5-1-.8-1.7-1-2.3-.9-1.6-1.5-3.4-1.9-5.5-.3-2.1-.5-4.6-.3-7.6-.1-1.6-.1-3.2-.1-4.9.1-1.7.2-2.8.4-3.5a13.33 13.33 0 0 0 .5-2.6c.1-1 .2-1.9.3-2.6.6-2.7 1.2-5.7 1.8-8.9l1.8-9.2 1.6-7.7 1.1-4.6.6-2.8c.2-.9.3-1.4.3-1.6l.7-2.9.3-.9c-.1-.1.1-.5.4-1.5 0-.1 0-.2.1-.3s.1-.1.1-.3v-.2c-.3 0-.3-.5.2-1.4l1.4-5.3c.5-1.9.8-3.6.9-4.9.2-1.3.4-2.4.6-3.3l.5-2.2 1.5-6.9-4.1.3c-2.1.2-4.5.5-7.3.9-2.8.3-5.9.8-9.2 1.5-3.3.6-6.9 1.4-10.7 2.2-3.8.9-7.8 1.9-11.9 3.2-1.6.6-2.8 1-3.7 1.4-.9.3-1.1 0-.6-1 .2-.6.1-1.1-.3-1.7s-.1-1.4.8-2.6c.8-.8 2.7-1.8 5.8-3.1s7.5-2.3 13.2-3.1c4.6-1.3 9.3-2.2 14.3-2.9 4.9-.7 10-1.1 15.1-1.4v-.5c.2-.2.4-.5.4-.8.1-.3.2-.7.4-1.3.2-.8.6-2.2 1-4.1.5-1.9 1.1-3.9 1.9-6 .8-3 1.5-4.9 2-5.8s1.1-1.5 1.8-1.7c.6-.5 1.4-.5 2.4-.3 1 .3 1.9.7 2.6 1.3.2.3.3.6.3.7s-.1.3-.3.5-.3.5-.4.9-.1.9 0 1.6c.1.9.1 1.7-.2 2.4-.2.7-.5 1.1-.7 1.4-.2.1-.2.4 0 .8s.1.9-.3 1.5c-.2.6-.4 1.1-.4 1.5-.1.5-.1.7-.3.9-.3.2-.6 1-.9 2.2l-.3 1.5c-.1.6-.2 1-.4 1.4-.5.6-.7 1-.7 1.2.3-.2 1.3-.4 2.7-.5l5.2-.3c2-.1 4.1-.2 6.4-.2s4.4 0 6.4.1l5 .3c1.4.2 2.1.4 2.2.6.2.2-.3.3-1.6.3h-6.8c-2.1 0-3.4 0-4.1-.1s-1.2-.1-1.5 0-.7.1-1.1.2-1.2.1-2.5.3c-.8.1-1 .2-.7.2s.9 0 1.7.1 1.6.1 2.3.1 1.1.1 1.1.2-.6.3-1.7.4c-1.1.2-2.4.3-3.7.5s-2.5.3-3.6.4-1.6.2-1.6.3c1.4-.2 4.1-.4 8.1-.6s8.3-.2 13-.2c4.6.1 9.1.3 13.4.7s7.4 1.1 9.4 2c.3.2 1.1.4 2.3.5l3.2.3c.6 0 .9.2.9.5 0 .1.6.2 1.7.2.9 0 1.5.2 1.7.5 0 .3.3.5 1 .5.8 0 .9-.2.2-.5-2.3-1.4-4.8-2.5-7.6-3.3-2.7-.8-5.5-1.4-8.2-1.8s-5.4-.7-7.8-.9c-2.5-.2-4.5-.4-6.1-.6-.2 0 .1-.1.9-.2s1.8-.2 3-.2 2.5 0 3.9.1 2.6.1 3.8.3c2.1.3 3.6.5 4.6.5s2 .1 3 .3 2.3.7 3.9 1.3 4.1 1.7 7.4 3.2c.6.2 1.1.7 1.6 1.5.5.7.6 1.2.3 1.3-1 .2-1 .6 0 1.2l.6 2.3zm-71.4-8.2l-5.9.5-4 .3c-1.3.1-1.9.1-1.9 0 .8-.2 1.7-.5 2.7-.8l4.4-1.3c-1 .1-2 .3-3 .4-1 .2-1.6.3-2 .3l-2.7.5c-.5.1-1.1.3-1.9.4-.8.2-1.5.3-2.1.4l-4.8.5c-.5.1-1.1.3-1.9.4-.8.2-1.6.4-2.5.7l-2.2.7c-.6.2-1 .3-1.1.4-.2.5-.5.6-.9.3-.1 0-.6.1-1.5.3s-1.8.4-2.8.7-2 .5-2.8.8c-.9.2-1.3.3-1.5.3-2.2.9-3.3 1.4-3.4 1.5s.5 0 1.8-.3 3.1-.7 5.3-1.4l7-1.8c.8-.2 1.6-.4 2.4-.4.8-.1 1.4-.1 1.7-.1 1.3 0 2.7-.3 4.5-.8 1.7-.5 3.5-.8 5.5-.8l2.4-.5c.3-.1.6-.2.9-.2.2 0 .5 0 .9.1.3.1.8.1 1.4.1s1.4-.1 2.4-.2l5.6-1zm-4.8 32.5l1.1-5 .6-2c.1-.3.2-.4.2-.3s-.1 0-.2-.3c-.9 1.4-1.8 4.2-2.7 8.6s-1.8 9.1-2.6 14.3c-.2 1.3-.5 2.5-.9 3.9-.4 1.3-.7 2.5-1 3.6l-.7 2.7c-.2.7-.1 1 .1 1 .1 0 .2.3.3.9s.2 1.1.2 1.7 0 1.1.1 1.5.1.4.1-.1c.1-1.1.4-3.1.9-5.8l1.5-8.7 1.7-9.1c.5-3 .9-5.3 1.3-6.9zM483 140c.6-2.2.9-3.5 1.1-3.9.2-.5.2-.8.1-1l-.3-.3c-.1-.1-.3 0-.4.4-.2.4-.4 1.2-.6 2.3l-.9 5c-.1.6-.3 1.3-.4 2.1-.2.8-.3 1.5-.5 2.2s-.3 1.3-.4 1.8-.1.8 0 .8.2-.2.3-.7.3-1 .4-1.5c.2-.6.3-1.1.4-1.7s.2-1 .2-1.2v-.3c0-.1.1-.2.2-.4s.2-.6.3-1.1c.1-.7.3-1.5.5-2.5zm2.4-11.5l-.7 1.4v.2c-.1 0 0 .1.3.2s.4.1.4-.2c.1-.3.2-.7.3-1.1s.1-.7.2-1 .1-.4 0-.3c-.1-.1-.2.2-.5.8zm3-9.3c.3-1 .4-1.5.3-1.4-.2.1-.5.5-.9 1.2s-.8 1.6-1.1 2.7-.5 2-.3 2.8c.1.8.1 1.2-.2 1.3-.2.1-.3.1-.2.1.3 0 .5-.2.5-.7 0-.2.2-.9.5-2.1.3-1.1.8-2.4 1.4-3.9zm8.6 112.1c-.1 0-.2.1-.3.2s-.2.2-.4.3c0 .5.3.5 1 0 .8-.3 1.3-.5 1.5-.5.1.2.3.3.5.1s.5-.4.7-.8c.6-.6 1.1-.9 1.5-.9a.55.55 0 0 0 .5-.3c.1-.2 0-.4-.3-.6-.5-.2-.8-.2-1.1.2-.3.3-.9.7-1.8 1-.8.9-1.4 1.3-1.8 1.3zm11.8-12.2c.6-.7 1-1 1.4-1 .3 0 .6-.1.9-.3.6-.3.3 0-.8 1s-2.6 2.3-4.6 4c-1.9 1.9-3.2 3-3.7 3.2s.1-.7 2-2.7c1.6-1.5 2.7-2.4 3.4-2.7.7-.4 1.2-.9 1.4-1.5zm3.4-3.1c.2-.1.5-.4.9-.8.3-.4.5-.5.5-.3-.2.5-.6.9-1 1.5-.5.5-.7.5-.7.1 0-.3.1-.5.3-.5z"/><path d="M546.8 214.7c.3-.3.5-.5.5-.3 0 .1-.1.3-.2.7l-.5 1.7c0 .2-.3.4-.9.5s-.9.5-1 1c0 .2-.2.6-.5 1.2s-.7 1.2-1.2 2l-1.4 2.1-.9 1.4c-.2-.7-.6-.7-1.1.1-.5.7-1.1 1.4-1.6 2l-1.7 2c-.7.7-1.1 1.3-1.4 1.6-.6.6-1.5 1.3-2.9 2.1-1.4.9-2.7 1.6-3.9 2.1-.6 0-1 .2-1.4.5-.3.3-.9.6-1.5.7-1.9.2-3.3.3-4.2.2s-1.5-.3-2-.7c-.5-.5-1-.7-1.5-.7-.6 0-1-.3-1.2-1-.6-1-1.1-1.3-1.5-.9-.3.2-.7.1-1.1-.5s-1-1.7-1.8-3.3c-.5-.7-.9-1.5-1.4-2.4s-.8-1.8-1.1-2.7l-.6-2.1c-.1-.6-.1-.8.2-.7.3 0 .3-.6 0-1.7l-.3-1.6c-.1-.5 0-1 .3-1.5.2-1 .2-1.7 0-1.9s-.1-.5.3-.7c.5-.5.5-.8 0-1-.2-.2-.2-.6 0-1 .2-.5.5-.6.7-.3.1 0 .2-.1.2-.3a.47.47 0 0 0-.5-.5c-.5 0-.6-.6-.3-1.7a5.27 5.27 0 0 1 .5-1.5c.2-.4.4-.3.5.3 0 .2-.2.3-.5.3-.1-.1-.2-.1-.2-.1 0 .1.1.1.2.3.2.6.2.9 0 .9-.5 0-.5.2-.2.5.1.7.3.7.6-.1.3-.7.7-2 1.3-3.7.5-1.5.7-2.5.7-3s-.1-.8-.3-.8c-.3-.1-.6 0-.9.3-.2.3-.2.6.2.9.1.2.1.6-.2 1-.5.3-.7.3-.9 0-.2-.6-.2-1.1.2-1.7.1-.2.3-.7.5-1.4l.5-1.9c.3-2.3.7-2.7 1-1.4.1.2.1.4.1.5-.1.1-.1.1-.1 0-.2 0-.4.3-.5.8s-.1.9.2 1.1c.2.3.5.3.7-.3.2-.5.3-1.1.3-1.8 0-.8-.1-1.3-.2-1.5-.5-.3-.5-1.2-.2-2.6.1-.9.4-2.4.9-4.5l1.4-6.4 1.2-6 .5-3.3c.1-.2.2-.5.3-.8s.1-.5.3-.8c.2-.6.9-.8 1.9-.8 1 .1 2.2.4 3.4.9 1.3.6 2.1 1.3 2.4 2.1s.4 2.3.2 4.5l-.5 2.6-.2 1.5c0 .2-.1.6-.3 1-.2.3-.4.9-.5 1.5 0 .8-.2 1.8-.7 2.9l-.3 1.5c-.1.4 0 .7.1.8v.5c0 .2-.1.5-.2.7-.5.6-.6 1-.3 1.2.2.2.2.8 0 1.8s-.7 2.6-1.4 4.9c0 .9-.3 1.4-.9 1.4l-.5.5c0 .3.1.5.3.5 0-.1 0-.1.1-.1.1.1.1.2.1.4-.3.3-.5.5-.5.3-.3-.2-.4-.1-.2.5.1.5.1 1 0 1.6s-.3 1-.7 1.1c-.2 0-.2.3.2.9.2.6.2 1-.2 1.4-.2.5-.3.9-.3 1.2 0 2.7-.2 4.2-.7 4.3-.1 0-.2.2-.3.6s-.1.8-.1 1.3 0 .9.1 1.3.1.6.3.6c0 .1 0 .3-.1.4-.1.2-.1.5-.1.9-.1.7-.2 1.5-.2 2.5a12.65 12.65 0 0 0 .3 2.8l.6 2.6c.2.8.5 1.4.7 1.7.5 1.1.7 1.8.7 2.1s.3.5 1 .6 1.6 0 2.7-.3c1.1-.2 2.2-.6 3.4-1.1s2.3-1.1 3.3-1.8c.6-.3 1.5-.9 2.7-1.8l3.6-2.7 3.1-2.7c.9-.9 1.2-1.4 1.1-1.6.2.3.2.9-.1 1.5-.3.7-1.2 1.5-2.8 2.4-.6.9-1 1.7-1.3 2.3s-.4.9-.3.9c0 .2.2.2.7 0s.9-.6 1.2-1.2c.2-.3.6-.8 1.1-1.4s.9-1.1 1.1-1.7l6.8-7.5zm-33.2-20c.2-.2.1-.5-.5-.7-.1-.3-.2-.3-.2.2.2.2.4.3.5.3l.2.2zm7-33.6c-.2-.1-.4-.3-.4-.4-.1-.2-.1-.3-.3-.3-.6-.5-.5-2.7.2-6.7.1-1.6.4-3 .9-4.1s.9-2.1 1.1-2.9c.2-.6.8-1 1.8-1.3s1.5-.2 1.6.3c0 .3.2.4.7.2 1.5-.2 2.3-.1 2.6.5a.55.55 0 0 0 .3.5c.2.1.3.1.3 0 .3 0 .3.5 0 1.4 0 .3 0 .7-.1.9-.1.3-.1.5-.1.6.2.6.1 1.5-.3 2.7.1-.2-.1.5-.5 2.1-.5 1.6-.7 3.2-.9 4.8l-.3 1.5-.2 1c-.1.3-.5.7-1.1 1.2s-.9.6-.9.3c-.2-.3-.5-.5-.9-.5-.5 0-.9-.2-1.2-.5-.7-.5-1.2-.7-1.5-.7-.5.1-.8-.2-.8-.6z"/><path d="M607.2 183.1l-1.5 1-.9.6c-.3.2-.7.4-1.2.7s-1.3.7-2.5 1.3c-.6.2-.8.4-.7.5.3.3.3.5-.2.5-.8-.1-1.5.2-2.2.9-.2.2-.5.5-.9.7l-1.1.5-3.3 1.4-4.2 1.9-3.7 1.8-1.8.9c-.2.6-.1.9.5.9.6.1 1.3-.2 2.2-.8 1.4-.6 2.7-1 4.1-1.2l2.1-.5-2.1 1.9c-.6.6-1.3 1.1-2.3 1.6s-1.9.9-2.8 1.1c-.9.3-1.9.7-2.9.9l-1.9.6c-.1.2-.4.4-.8.4-.4.1-.8.1-1.1.3-.1.9-.3 2.3-.7 4.1l-.7 3.6c-.2 1-.6 2.3-1.1 3.7l-1.3 3.9c-.3 1.3-.8 2.7-1.4 4.2s-1.1 2.8-1.7 3.7-1 1.8-1.3 2.7-.4 1.4-.3 1.6c0 .5-.3 1-.9 1.5.1-.2-.1.1-.8 1.1-.6 1-1.5 2.1-2.7 3.3-1.1 1.3-2.5 2.5-4 3.6s-3.2 1.7-4.9 1.7c-1.6.6-2.7.9-3.2.9s-1.4-.2-2.7-.7c-1.9-.7-3.9-1.9-5.8-3.6l-2.4-1.8c-.6-.5-1.1-1.1-1.6-1.6-.5-.6-.8-1.2-.9-1.9-2.3-3.1-3.5-7.1-3.6-11.9-.1-4.9.7-10.8 2.6-17.9.2-1.3.5-2.4.8-3.3.3-1 .5-1.5.8-1.6.2-.2.3-.6.3-1.2.1-.2.3-.7.6-1.4l.9-2.1c.3-.8.6-1.7.8-2.8s.3-2.2.3-3.3c.1-4.2 1.4-7.6 3.9-10.1 1.3-1.1 2.6-1.9 4-2.4s3.4-.8 6-1c1.1-.1 2.1-.2 2.7-.3.7-.1 1.3 0 1.9.1s1.1.3 1.7.5 1.3.5 2.2.9c.9.6 2 1.2 3.3 1.9s2.3 1.3 3.1 1.9c1.5 1 2.5 1.9 3.1 2.6s1.1 1.8 1.7 3.3c.1.5.3 1.2.6 2.1.3 1 .5 2 .7 3.1s.3 2.1.3 3c.1.9 0 1.4-.1 1.5.1.5.7.6 1.6.4 1-.2 2.1-.5 3.3-.9 1.3-.5 2.5-.9 3.9-1.4 1.3-.5 2.3-.8 3-1 1.9-.9 3.1-1.1 3.4-.7.3.6.5.5.5-.2 0-.3.4-.7 1.2-1s1.7-.7 2.6-1 1.8-.7 2.7-1 1.5-.6 1.7-.9c.2-.1.6-.3 1.2-.5s1.1-.4 1.7-.6 1.1-.3 1.5-.5c.7-.3.8-.3.7-.2zm-42.6 35.3c.1.1.4-.6.9-2.1s1.1-3.1 1.6-5c.6-1.8 1.1-3.5 1.5-5.2.5-1.6.7-2.6.7-2.9s-.4-.6-1.3-.8-1.9-.2-3.2-.1c-.7.1-1.6.1-2.7-.1s-2.3-.4-3.5-.8c-1.2-.3-2.3-.7-3.3-1.2s-1.9-1-2.6-1.5c-1.5-.9-2.4-1.4-2.7-1.4-.2 0-.8.9-1.6 2.8s-1.5 3.6-2 5.2c-.2 1-.5 2.4-.8 4.2s-.5 3.6-.7 5.6c-.2 1.9-.3 3.8-.4 5.6l-.2 4.2c.2 2.6.7 4.6 1.5 6s1.7 2.1 2.6 2.2c.9.2 1.8.3 2.7.3.9-.1 1.9-.4 3.2-.9.6-.3 1.3-.8 2.1-1.3s1.3-1 1.5-1.5c.6-.8 1-1.4 1.2-1.7s.5-.7.7-.9c.2-.3.5-.7.9-1.3.3-.6.9-1.5 1.5-2.7.2-.6.5-1.3.9-2.1.3-.8.6-1.2.9-1.2.2-.6.3-.9.3-1 0-.2.1-.4.3-.4zm5.7-23.8c.5-.2.8-.7 1.1-1.5.3-.7.3-1.1-.1-1.1-.1 0-.3.2-.7.5v-1.3c0-.7-.1-1.7-.2-2.8-.1-3.3-.3-5-.7-5-.5 0-.6-.2-.3-.5.2-.3.1-1-.3-2-.5-1-1.1-1.9-2.1-2.7-.6-.7-1.2-1-1.9-1s-1 .3-1 1c.1.9-.3 1.5-1.1 1.8-.9.3-1.7.4-2.5.3-.8.1-1.8.5-3 1.3-1.2.7-1.8 1.4-1.8 2 0 .2-.1.6-.4 1.2s-.7 1.1-1.1 1.7c-1.3 1.8-1.9 3.3-1.9 4.4s.1 1.8.3 2.1c.2.7 1.3 1.3 3.3 1.9 1.3.3 2.5.5 3.6.6s2.7 0 4.8-.1l3.9-.3c1.1-.1 1.8-.3 2.1-.5zm-3.8 24.4c.1-.1.3-.6.7-1.4.3-.8.7-1.6.9-2.5.3-.9.5-1.6.6-2.3s.1-1-.2-.9c-.5 1.3-.8 2.3-1.1 3.2s-.5 1.7-.8 2.4c-.2.7-.4 1.2-.5 1.3-.2.5-.3.7-.2.6.2-.1.4-.2.6-.4zm2.9-9c0-.5-.1-.6-.3-.5-.3.3-.5.6-.5.9 0 .5.1.7.3.6.1-.1.3-.4.5-1zm.7-2.4c.2-.6.2-.9 0-.9-.6.3-.7.7-.5 1.2 0 .6.1.8.2.7s.2-.4.3-1zm.5-2.2c0 .2 0 .3.1.2s.1-.3.3-.7a3.73 3.73 0 0 0 .2-1.2v-1c0 .1-.1.4-.3.9-.2.2-.3.5-.3.9v.9zm.9-14.1c.2-.1.3-.3.3-.4-.1-.2-.1-.4-.1-.6-.2-.2-.4-.1-.5.3 0 .6.2.8.3.7zm1.9 2.2c.3-.3.5-.9.3-1.7.2-1.3.1-1.7-.3-1.2-.3.2-.5.8-.4 1.6 0 .9.1 1.3.4 1.3zm1.5 9.8c.2-.2.2-.6 0-1-.2-.5-.3-.4-.3.2s.1.8.3.8zm1-9.8c.2 0 .3-.4.3-1.2 0-1.4-.1-2.8-.3-4.4-.2-1.5-.4-2.5-.6-3-.2-.3-.3-.1-.3.7s.1 1.8.2 3.1c.1 1.4.2 2.5.3 3.4.1 1 .2 1.4.4 1.4zm16.2-.5c.1 0 .5-.1 1-.4a22.02 22.02 0 0 1 2.1-.9l2.7-1.2-1 1.2c-.7.7-1.3 1.1-1.7 1.2-.6 0-1 .2-1.4.5-.2.3-.5.5-.7.5-.3.2-.6.3-.7.1s-.2-.3-.3-.4c-.2-.4-.2-.6 0-.6zm4.6-4.9c.5-.5.5-.7.2-.7s-.9.3-1.5.9c-.3.1-.5.2-.5.3s.1.2.3.2c.6-.1 1.1-.3 1.5-.7zm6.9-3.3c.2-.2.5-.4.9-.4.3-.1.3-.1 0-.1-.2 0-.9.3-2.1.9-1.1.6-1.8 1-2.1 1.2-.5.2-.2.1.7-.3s1.8-.9 2.6-1.3z"/><path d="M665.1 219.8c-.5.5-1.1 1.4-2 2.9s-1.8 2.5-2.8 3.1l-2.2 1.7c-.3.3-.6.6-.9.7 0 .1.3 0 1-.4l1.4-.8c.7-.3.6-.1-.3.7l-2.7 2.2c-.7.5-1.3 1-1.7 1.5-.5.6-1.1 1.1-2.1 1.5-.7.7-1.7 1.1-2.9 1.4a24.66 24.66 0 0 1-3.9.3c-1.3 0-2.6-.1-3.8-.4s-2-.7-2.5-1.3c-.8-.6-1.4-.9-1.7-.9-.2 0-.7-.3-1.4-1-.2-.9-.7-1.5-1.5-1.7-.6-.5-1.2-1.2-1.9-2.2-.5-.9-1-1.8-1.7-2.7-.9-1.5-1.3-4.1-1.3-7.9.1-3.8.7-8.1 1.8-13.1l1.6-7.7 1.3-6.4c.3-1.9.6-3.4.7-4.6.1-1.1.1-1.8 0-1.9-.2-.1-.8 0-1.6.4-.9.4-1.4.7-1.6.9l-.9.9c-.5.5-1.1 1-1.6 1.5-.9.7-2 1.7-3.3 3.2-1.3 1.4-2.6 3-4.1 4.7s-2.9 3.5-4.4 5.4c-1.4 1.9-2.7 3.7-3.7 5.4-.6.9-1.1 1.8-1.7 2.6s-1 1.3-1.2 1.5c-.5.7-.7 1.1-.7 1.4 0 .5-.2.7-.7.7-.2 0-.4 0-.6.1s-.2.2-.1.4c.1.8-.3 1.8-1.4 3.1-.9 1-1.3 1.8-1 2.2.2.2.2.3-.2.3-.2-.2-.6.1-1 .9-.5.9-.6 1.5-.3 2l-.3 1c-.1.2-.3.5-.4.9-.2.4-.4.8-.6 1.1l-.9 2.6c-.2.8-.3 1.4-.3 1.7 0 .9-.2 1.6-.7 2.1-.3.3-.5 1.1-.5 2.2.1.6 0 1.4-.3 2.4s-.7 2.1-1.1 3.3a13.01 13.01 0 0 0-1 2.7c-.2.8-.3 1.3-.3 1.5s-.4.3-1.2.3c-1-.2-1.4-.1-1.2.3 0 .3-.3.2-.9-.3-.5-.5-.7-.4-.9.2 0 .7-.2.5-.5-.5s-.8-1.4-1.4-1.2c-.6 0-1-.5-1.4-1.5-.2-.8-.4-1.2-.5-1.3s-.3.2-.5.8c-.3.5-.5.6-.6.4s-.1-.8-.3-2c-.2-3 .4-8.4 1.8-16.3s3.5-17.6 6.3-29.2c.9-3.7 1.5-6.9 1.9-9.8.3-2.9.4-5.1.2-6.7 0-1.3.1-2.1.2-2.4.2-.3.6-.5 1-.6.5-.1.7.1.9.4 0 .5.3.6 1 .3.7 0 1.5.3 2.4.9s1.6 1.3 2.1 2.1c.3.5.5 1.5.4 3.3-.1 1.7-.3 3.8-.6 6.4-.3 2.5-.8 5.3-1.5 8.2-.6 3-1.3 6-2.1 8.9-.3 1.3-.7 2.5-.9 3.9-.3 1.3-.4 2.3-.4 2.8l-.3 1.9 1.5-2.4c.3-.7.8-1.5 1.5-2.6a82.9 82.9 0 0 1 2.1-3.3c.7-1.2 1.5-2.3 2.2-3.4s1.4-2 2-2.7c.9-1.3 1.1-1.3.7-.2-.2.3-.4.7-.6 1s-.4.6-.6.7c-.2.2-.5.5-.7.9-.2.3-.4.6-.5.9-.2.3-.6 1-1.2 2s-1.1 2-1.7 3c-.7 1-1.3 2-2 3-.6 1-1.1 1.7-1.3 2.1-.5.9-.8 1.4-1 1.4-.3 0-.3.2 0 .5.1.3.1.5-.2.5-.2 0-.5.6-.8 1.7s-.5 2.3-.8 3.6c0 1 0 1.6.1 1.6.1.1.3-.3.6-.9.2-.3.5-1 .9-2.1a43.99 43.99 0 0 1 1.5-3.3c.5-1.1.9-2.2 1.5-3.2.5-1 .9-1.6 1.1-1.8.6-.6.9-1.1.9-1.5l.7-1c.3-.5.9-1.1 1.5-2.1.6-.9 1.3-1.9 2.1-3 .9-1.1 1.6-2 2.1-2.8.6-.9 1.1-1.6 1.6-2.1s.9-.7 1.1-.6c.1.1 0 .4-.3.8s-.7.9-1.1 1.5c-.6.6-1.1 1.2-1.5 2-.5.7-.8 1.3-1 1.8l-.5 1.7 1.2-1.5c1.8-2.3 2.7-3.7 2.7-4.1 0-.2.4-.7 1.2-1.5.8-.6 1.2-1.1 1.2-1.5 0-.5-.2-.3-.7.3-.5.9-.8 1-1 .3-.2-.2.1-.9.9-2.1.9-1.2 2.8-3.5 5.8-6.8.9-1 1.8-1.9 2.6-2.7.8-.7 1.3-1.2 1.5-1.5.7-.5.9-.9.5-1.2-.3-.3-.3-.4.2-.2.5 0 .9-.2 1.2-.5.8-.6 1-.9.5-.9-.5-.1-1.1.2-1.9.8-1.1.8-1.6 1.3-1.4 1.5.3.3.2.5-.3.5s-1 .2-1.7.5l-.9.5.3-.9c.3-.6.6-.9.9-.9.1.1.3 0 .5-.3s.5-.6.9-.9c.5-.5 1.1-.9 2.1-1.2.9-.3 2-.7 3.2-.9 1.2-.3 2.4-.5 3.6-.5 1.2-.1 2.3 0 3.3.1.9.2 1.5.5 1.6.7.2.2-.1.5-.8.7s-.1.3 1.7.3c1.7.1 2.6.5 2.7 1 .1.2.3.6.4 1 .2.5.4.9.6 1.4.3 1 .3 1.9 0 2.7-.3.7-.4 1.6-.2 2.7.1.9 0 1.5-.3 1.7-.5 0-.6.2-.3.5v.7c0 .2-.1.5-.2.7-.2.7-.4 1.5-.5 2.4s-.2 1.5-.2 1.7c.1.3-.1.5-.7.5-.7 0-.7.2-.2.5.6.2.7.5.3.9-.6.3-.6.6-.2.7.3.1.3.5 0 1-.7.5-.8 1-.3 1.7 0 .7-.2 1.3-.5 1.7-.7.2-.9.6-.5 1.2.1.2.1 1.1-.1 2.7-.2 1.5-.4 3.3-.8 5.4-.6 3.1-.9 5.4-1 6.8s-.1 2.9.2 4.6c.3 2.6.9 4.4 1.5 5.2.7.8 2.2 1.1 4.5.9.9-.1 1.8-.3 2.7-.5s1.4-.5 1.6-.7c.7-.3 1.1-.3 1.2.2 1.3-.8 1.9-1.1 1.9-1s-.3.4-.8.8l-2.7 2.1c.2.1 1-.1 2.3-.5 1.3-.5 2.1-.9 2.3-1.4.2-.2.5-.4.9-.5.3-.1.6-.3.9-.5 1.9-1 3.6-2.3 5-3.8l2.9-3.1 1.8-.6zm-72.5 9.5c.8-5 1.2-8.2 1.3-9.4s0-1.7-.3-1.6c-.2.2-.3.6-.3 1.2.2.7.2.9-.2.5-.1-.1-.2-.1-.3-.1-.1.1-.2.4-.3.9-.1.6-.2 1.5-.3 2.7-.2 1.3-.4 3-.8 5.3-.6 3.6-.9 5.6-.9 6.2s.2.5.7-.3c.2-.2.5-.9.7-2 .2-1 .5-2.2.7-3.4zm1.5-11.7c.5 0 .6-.4.5-1.2-.2-.9-.2-1.3 0-1 .2.1.3-.1.3-.7 0-.7-.2-1-.5-1-.2 0-.4.2-.5.5s-.3 1.3-.5 2.7c-.2.7.1.9.7.7zm2.3-9.3c.2-.7.5-1.9.9-3.5.3-1.7.5-2.7.5-3.2 0-.3-.1-.2-.4.5s-.6 1.5-.9 2.6a73.99 73.99 0 0 0-.9 3.3c-.3 1.1-.4 2-.4 2.6 0 .2-.1.4-.2.5s-.2.3-.2.5c-.2 0-.3.3-.3 1 0 .6.1.7.4.3.3-.3.5-.9.8-1.7 0-.3.1-.8.3-1.4.1-.5.3-1 .4-1.5zm-1.2 19.8c0-.7-.1-1-.2-1-.3 0-.5.3-.5 1s.1 1 .3 1l.4-1zm0-1.8c.1-.1.1-.5 0-1-.1-.2-.2-.1-.3.5s0 .8.3.5zm13.4-15.8c.5-.8.7-1.3.7-1.5a.55.55 0 0 0-.3-.5c-.7-.2-.9-.1-.7.3 0 .5-.4 1.6-1.2 3.4-.9 1.7-1.4 2.9-1.5 3.4-.1.6.3.1 1.1-1.5.2-.6.5-1.2.9-1.8s.7-1.2 1-1.8zm2.9-6.1c.2-.7.2-.9-.2-.5-.3.2-.5.5-.5.9.2.8.5.7.7-.4zm2.2-9.5c-.7.9-1 1.1-1 .7 0-.2.3-.8.9-1.6.6-.9.9-1.2.9-.9 0 .2-.1.5-.3.8 0 .2-.2.6-.5 1zm5.3-6.5c-1.1 1.3-2.1 2.2-2.7 2.9-.7.7-1 .9-.9.7.2-.8 1.1-1.9 2.6-3.4.6-.7 1.1-1.3 1.5-1.9.5-.6.6-1 .5-1.2 0-.2.2-.3.5-.2.2.2.6-.1 1-.9.2-.6.6-.9 1-.9.1.1-.2.6-.9 1.5-.6 1-1.5 2.1-2.6 3.4zm-2.5 12.2c.3-.1.5-.4.5-.9s-.2-.5-.5-.2-.5.6-.5.7c.1.3.2.4.5.4zm2.2-4.5c.3 0 .5-.2.5-.7 0-.2 0-.4-.1-.6s-.1-.2-.3-.1l-.3.7c-.2.5-.1.7.2.7zm1.7-3.8c.3-.6.5-1 .3-1.2-.3 0-.7.2-1 .7-.2.2-.4.4-.5.6s-.1.3.2.3c.1.2.3.3.4.2.2-.2.4-.3.6-.6zm1.9-2.5c.3-.3.5-.6.3-.9 0-.3-.1-.4-.3-.2-.3.2-.5.5-.5.7 0 .5.2.6.5.4zm2.8-3c1-1.1 1.5-1.8 1.4-1.9-.7.6-1.2 1.1-1.6 1.5l-1.1 1.1c-.3.3-.5.6-.5.7 0 .2.1.3.3.1.1-.2.7-.6 1.5-1.5zm8.4 19.3v-.9c0-.5.1-1 .3-1.5.2-.6.4-1.3.6-2.3l.6-2.8c.3-1.9.7-3.2 1-3.8.2-.2.3-.6.3-1 0-.5-.1-.7-.3-.7s-.5.7-.9 2l-2.1 8.8c-.5 1.9-.8 3.5-1 4.6l-.5 2.7-.3 2.1c-.1.6-.1 1.5-.1 2.5-.1 1.3-.2 1.9-.2 2s.1-.4.3-1.3c.1-.6.3-1.3.4-2.2.2-.9.3-1.7.3-2.4l.6-2.4c.2-.8.4-1.3.6-1.5.5-.9.6-1.5.4-1.9zm-1.9 14.2c.1-.5.1-.9 0-1.4-.1-.2-.2-.3-.3-.1s0 .4.1.8c0 .4 0 .7.2.7 0 .3 0 .3 0 0zm3.4-7.5c0-1.1-.1-1.5-.2-1-.3.8-.6 1.7-.7 2.8s-.1 1.4.2.9c.2-.2.4-.6.4-1.1l.3-1.6zm.4-2.4c.2-.2.2-.6 0-1-.1-.1-.2 0-.3.3-.1.7 0 .9.3.7zm.7-3.5c.3-1 .5-2 .5-2.9-.1-.8-.3-.4-.5 1.2-.3 1.6-.5 2.6-.5 2.9-.1.4.1 0 .5-1.2zm.6-5.5c.5 0 .7-.2.7-.5s-.2-.4-.7-.2c-.1.1-.2.2-.3.2s-.1.1-.3.2c-.1.1-.2.2-.3.2.2.1.5.1.9.1zm.7-1.7c.2-.2.3-.5.3-.9 0-.2-.2-.3-.5-.2-.3.3-.5.6-.3.7 0 .3.2.4.5.4zm.7-3.2c.1-.1.2-.5.3-1 .1-.6.2-1.2.2-1.9s0-1.3-.1-1.9-.1-.9-.3-1c-.2 0-.5.8-.7 2.4 0 .8 0 1.6-.1 2.3s-.1 1.3-.1 1.6c0 .6.1.7.2.5.1-.7.3-1 .6-1zm.4-7.2c.2-.6.2-1.2 0-1.9-.1-.3-.2-.4-.3-.3-.1.2 0 .5.1 1.1 0 .6 0 1 .2 1.1-.1.2 0 .2 0 0zm18.8 36c-.2.3-.9.8-2.1 1.4-1.1.6-1.7.7-1.5.5.1-.1.4-.3.9-.6s1-.5 1.7-.8c.6-.2 1-.4 1-.5.3-.2.3-.2 0 0zm4-3.1c-.1.2-.3.5-.7.9l-1 1-.9.9c-.2.2-.3.3-.3.2-.2-.5-.2-.9.2-1.2.2 0 .5-.2.8-.5s.5-.6.8-.7.7-.3.9-.5c.2-.3.3-.3.2-.1z"/><path d="M707.5 216.2c1.9-1.1 2.9-1.6 3-1.3s-.8.9-2.5 1.8l-2.6 1.5c-.2.2-.1.3.3.1l2-.8c.9-.3 1.6-.7 2.3-1-.5.2-.4.2.3-.2.6-.3 1.3-.8 2.1-1.3l2.1-1.3c.6-.3.7-.3.3 0-.5.3-1.3.9-2.4 1.8l-3.5 2.6-3.3 2.3c-1 .7-1.5 1-1.6 1-.2 0-.5.1-.9.4l-1.2.9c-.4.3-.7.7-1 .9-.3.3-.4.5-.3.6s-.1.2-.6.3-.9.2-1.1.4c-.6.2-1 .5-1.4.9l-2.4 2.4c-1.1 1.1-2.8 2.3-5 3.6-.6.2-1.1.6-1.5 1.1s-.8.9-1.1 1.1c-.6.2-.8.6-.6 1.1s.4 1.1.8 1.6c.7.7.9 1.1.7 1.4-.3.3-.3.7.2 1 .2.2.5.9.9 2s.5 1.7.4 2c-.2.7-.2.9.2.5.3-.2.5.4.3 1.9-.2 2.3-.5 4-.8 5.1s-.6 1.7-.9 2c-.7.5-.9.9-.5 1.2.2.5.1.7-.3.7-.6 0-.9.2-.9.7-.2 1.5-.5 2.6-.9 3.4-.3.8-.6 1.1-.9.9-.3-.3-.5-.2-.5.3 0 .3-.2.8-.7 1.5l-1.6 1.9-1.8 1.7c-.6.5-1 .8-1.2.8-.7 0-.9.3-.5.9 0 .5-.1.6-.3.5-.3-.3-.6-.1-.9.9l-.3.8c-.1.2-.2.1-.2-.1-.5 0-1.7.6-3.6 1.7l-2.5 1.5c-.7.4-1.2.5-1.5.4-.2-.1-.6-.1-1 .2a2.73 2.73 0 0 0-1.2.9l-.9.9c-.1 0 0-.3.3-.9.1-.6-.1-.7-.5-.3-.8.6-2.1.8-4 .6s-3.7-.7-5.4-1.6c-1.9-1-3.2-1.9-3.8-2.5s-1.1-1.6-1.5-3c-.6-2.2-.4-4.4.4-6.8.9-2.3 2-4.6 3.5-6.8s3.1-4.2 4.9-5.9l4.6-4.2 3.8-2.8 4.5-3.2 4-2.6c1.1-.7 1.8-1 2.1-1 .9 0 .7-.8-.6-2.3s-3.3-3.3-6.1-5.4c-.9-.7-2.1-1.9-3.5-3.7l-4-5.5-3.3-5.1c-.9-1.5-1.4-2.3-1.4-2.6s-.3-.8-.9-1.4c-.2-.2-.5-.7-.7-1.5-.2-.7-.4-1.6-.5-2.5a15.04 15.04 0 0 1-.3-2.9c.1-.9.2-1.9.5-2.9l1.2-3.5a54.37 54.37 0 0 1 2.1-4.7l1.4-3c.5-.9.9-1.7 1.5-2.4l1.7-2.3 2.3-2.9c2.4-2.7 4.6-4.7 6.7-5.8s4.4-1.7 7-1.7 5.4.8 8.3 2.5 4.7 4 5.2 7c.1.7.1 1.6-.2 2.7a32.82 32.82 0 0 1-.9 3.7c-.4 1.3-.9 2.6-1.5 3.9l-1.7 3.5-2.9 4-3.9 4.9-3.7 4.2c-1.1 1.2-1.9 1.8-2.4 1.8-.8 0-1.7.3-2.7 1-.9.5-1.5.7-1.9.7-.3 0-1-.2-1.9-.5-1.7-.8-2.6-1.6-2.6-2.4.1-.1.3-.2.5-.3s.7-.4 1.4-.9c1.6-.8 3.3-2.1 5-3.8s3.4-3.7 5-5.8l4.4-6.6c1.3-2.2 2.4-4.3 3.2-6.3.2-.6.4-1.4.6-2.6.2-1.1.2-2.3.1-3.4s-.4-2-.9-2.7c-.5-.6-1.3-.7-2.5-.3l-3 .9c-1.3.4-2.4.9-3.3 1.5-.3 0-.9.3-1.7 1s-1.7 1.5-2.6 2.6l-2.7 3.3c-.9 1.1-1.6 2.1-2.1 2.9l-2.7 4.6-1.6 2.8c-.4.7-.7 1.4-.9 1.9s-.3 1-.4 1.5c0 .6-.1 1.1-.3 1.5l-.4.9c-.5.2-.6.5-.3.7.1.2.2.7.3 1.5l.2 2.6c.1.8.5 1.8 1.1 3s1.4 2.5 2.3 3.8l3 4c1.1 1.4 2.3 2.6 3.5 3.8.9.9 1.6 1.8 2 2.7s.6 1.3.6 1.5c.1.2.4.4.8.5s.8.3 1.3.5c1 .5 1.5.9 1.5 1.2-.1.1-.1.3 0 .5s.3.4.5.5.7.1 1.4 0l1.2 1.3c.2.3.5.3.9.1.7-.3 1.3-.8 1.9-1.3s2.2-1.4 4.8-2.7c.6-.3 1.2-.8 2-1.3l2.1-1.5 1.8-1.4c.5-.4.8-.6.9-.6 1.6-.6 3-1.2 4.3-2 1.3-.7 1.9-1.1 2.1-.9.2.1.7-.1 1.5-.5.4-.5.9-.7 1-.7zm-45 50.3c1.7-.6 3.9-1.7 6.4-3.3 2.6-1.7 4.7-3.3 6.3-5.1 1.6-1.6 3.1-3.5 4.5-5.8s2.3-4.3 2.7-6c.6-1.9.8-3.7.7-5.3s-.3-2.4-.5-2.4-.7.2-1.5.7c-.7.5-1.6 1-2.7 1.7l-2.7 1.6c-.7.5-1.2.8-1.3.8-1.1-.3-1.7-.2-1.7.5 0 .2-.1.5-.4.9-.3.3-.5.6-.8.9l-.9.7c-.1 0 .1-.2.4-.5.2-.3.3-.5.3-.6s-.3-.1-.9-.1c-.7 0-.9.2-.7.7 0 .8-.6 1.7-1.9 2.7l-2.3 2.1c-.4.3-.3 0 .3-.8.2-.2.3-.4.3-.6s-.1-.3-.3-.3-.5.3-.8.8-.5 1.1-.6 1.6c0 .3-.2.5-.7.5-.2-.1-.6.2-1.1 1s-.9 1.4-1.3 1.7c-.8.8-1.8 1.9-2.9 3.3s-1.8 2.4-1.9 2.8c0 .6-.3 1.3-.9 2.1-1 1.6-.9 2.8.5 3.7 1.6 1 3.6.9 6.4 0zm.3 2.4c.1-.1-.1-.2-.7-.2-.7.2-1.1.5-1.4.7-.2.3.1.4.9.2s1.2-.4 1.2-.7zm0-1.5c.1-.3-.1-.4-.7-.2s-.9.4-1 .5.1.2.7.2c.7 0 1-.2 1-.5zm2.6.5c-1.3 1.1-1.6 1.7-.9 1.7.6 0 1.8-.6 3.5-1.7a9.86 9.86 0 0 1 2-1.3l1.5-.8c.8-.3 1.2-.7 1.2-1.2 0-.3.3-.5.9-.5s.9-.1.9-.3c0-.1.3-.5.8-1.1l2-2.3a18.4 18.4 0 0 0 2.1-2.5l1.8-2.6c.5-.7.8-1.3.9-1.6s-.1-.3-.6 0l-1.8 1.9c-.6.7-.9 1.1-.9 1.4 0 .2-.2.3-.7.3-.2 0-.5.2-.8.5s-.6.7-.9 1.2c-.6 1.1-1.1 1.7-1.7 1.7-.3-.1-.5 0-.5.3 0 .2-.2.6-.6 1.1s-.9 1-1.5 1.5l-1.8 1.4c-.6.4-.9.5-1 .4-.2-.2-.3-.1-.3.3 0 .6-.2.6-.5 0-.3-.5-.5-.5-.5 0 0 .7-.3.9-.9.7-.5-.2-.8-.1-1 .3-.2.3-.2.4.2.2-.1 0-.2.3-.9 1zm1.7-20.4c-.5 0-.7.3-.7.9 0 .5.1.7.2.7l.2-.2a3.04 3.04 0 0 1 .7-.5c.4-.6.3-.9-.4-.9zm11.4 14.9c1.7-1.9 2.5-2.9 2.2-2.9-.1 0-.6.3-1.5 1s-1.7 1.5-2.7 2.4l-3.4 2.8-3.3 2.3-2.1 1.3c-.6.4-.9.7-.9.8s.3.1.9-.2c.6-.2 1.3-.6 2.1-1l2.3-1.4 1.5-1c.3-.5.7-.7 1-.8s.4.2.2.8c-.1.2-.1.3-.1.3.1 0 .1-.1.3-.3.5 0 .6-.3.3-.9-.1-.2.1-.6.7-1.2.8-.5 1.5-1.2 2.5-2zm-3.3-24.9c-1.3.9-2.1 1.6-2.4 2.1s-.1.5.7.2c.6-.2.9-.5.9-.7 0-.3.2-.5.7-.5.2 0 .5-.2.9-.5s.9-.7 1.5-1c1.1-1 1.5-1.5 1.1-1.4-.4 0-1.6.7-3.4 1.8zm1.7 28.3a.47.47 0 0 0 .5-.5c0-.1 0-.2-.1-.3s-.1-.1-.1-.3v-.2c-.3 0-.5.2-.5.7-.3.5-.2.6.2.6zm2.9-31c-.2.3-.1.5.5.5s.9-.2.9-.5a.47.47 0 0 0-.5-.5c-.2-.1-.5.1-.9.5zm2.8 22.6l1.3-2.6c.1-.2-.2-.2-.8.2-.5.5-.7.9-.7 1.2.1.3.1.5-.2.5-.5 0-.8.3-1 1-.5.8-.5 1.2 0 1.2.5.1.9-.4 1.4-1.5zm2.6-4.3c.1 0 .2-.2.2-.5a.47.47 0 0 0-.5-.5c-.3 0-.4.2-.2.5-.1.4.1.5.5.5zm.1-2.2c.1 0 .3-.5.5-1.4 0-.9-.2-1.1-.5-.7-.3.5-.5.9-.5 1.4s.2.7.5.7zm14.6-29.5c0-.1-.7.3-2.1 1.3L693 226l-4.9 3.5-2.4 1.8c-.5.3-.4.5.3.3.6-.1 1.3-.5 2-1 2.2-1.3 4.3-2.7 6.4-4.4s4.5-3.2 7.2-4.6c.3-.1.4-.2.3-.3-.2-.1-.4-.1-.7 0s-.6.1-.9.1c-.4.1-.5.1-.4 0z"/></svg>