<svg xmlns="http://www.w3.org/2000/svg" viewBox="0 0 948 296" xmlns:v="https://vecta.io/nano"><path d="M266.6 82.4c0 20.5-14.8 37.7-32.3 37.7-12.5 0-22.7-6.4-28.4-16.7v39h-5v-96h5v15c5.7-10.3 15.9-16.7 28.4-16.7 17.5.1 32.3 17.2 32.3 37.7zm-5 0c0-17.7-13-32.6-28.3-32.6-16 0-27.4 13.5-27.4 32.6 0 19.2 11.4 32.7 27.4 32.7 15.3 0 28.3-14.9 28.3-32.7zm10.8 0c0-20.5 17.1-37.6 37.3-37.6s37.2 17.1 37.2 37.6-17 37.7-37.2 37.7-37.3-17.2-37.3-37.7zm69.5 0c0-17.7-14.8-32.6-32.2-32.6-17.5 0-32.3 14.9-32.3 32.6 0 17.8 14.8 32.7 32.3 32.7s32.2-14.9 32.2-32.7zm-35.2-63.2h6.1l15 19.1h-6.1l-12-14.8L298 38.3h-6.1l14.8-19.1zm49.2 1.9h5v97.3h-5V21.1zm75.9 84.1l3.5 3.8c-6 6.5-18.5 11.1-30.1 11.1-19.2 0-35.4-17.3-35.4-37.9 0-21 15.6-37.5 35.4-37.5 20.6 0 34.3 16 34.3 40H375c1.1 16.7 14.6 30.4 30.2 30.4 10.3 0 20.6-3.3 26.6-9.9zm-56.9-25.4h59.5c-.8-18-12.3-29.9-29.2-29.9-16.2-.1-29.2 13-30.3 29.9z" opacity=".2"/><path d="M307 85.5c.3.6.4 1.3.1 2.3s-.7 1.9-1.1 2.7c-.5.9-1 1.6-1.6 2.3s-1.1 1-1.5 1c-.2-.1-.2-.6.2-1.4.3-.8.6-1.7.7-2.6s.1-1.5-.1-1.9c-.2-.3-.3-.6-.4-.9-.2-.6-.6-.8-1-.8-.5.1-.9.4-1.2.9-.2.6-.6.6-1 .2-.2-.5-1.1-.7-2.7-.6-1.5.1-4.2.9-7.8 2.5l-11 3.2c-3.9 1.1-7.7 2-11.3 2.8-1.4.6-2.8 1-4.4 1.3a17.61 17.61 0 0 0-4.4 1.5c-1.5.7-2.4 1.2-2.7 1.5s-.5 1-.6 2.1c0 .7-.1 1.6-.3 2.7l-.6 3.1c-.5 1.3-.8 2.1-.9 2.5-.2.4-.5.5-.9.4l-.3-.3c0 .1.1.3.3.8.3.3.5 1 .4 2s-.2 2-.5 3-.6 2-1 2.9-.8 1.4-1.3 1.5c-.2.2-.1.3.3.3.6 0 .7.5.3 1.4-.2 1.1-.3 1.9-.2 2.2.1.2 0 .5-.3.7-.2 0-.3.2-.3.5 0 1-.3 2.3-.9 3.9-.6 1.5-1.2 2.4-1.6 2.5-.3 0-.3.1 0 .3.2.2.4.9.4 2.1.1 1.1-.1 1.7-.4 1.7-.1 0-.2.3-.3.8s-.2 1.1-.2 1.6c-.1.7-.3 1.3-.4 2-.2.6-.3 1.1-.4 1.3-.3.5-.6 1.2-.9 2.2-.2 1-.2 1.4 0 1.2.3 0 .5.1.5.3a.47.47 0 0 1-.5.5.47.47 0 0 0-.5.5c0 .2.2.3.7.2s1-.3 1.5-.5l2.7-.9c1.2-.3 2.5-.7 4-1.1l4.5-1.2 4.1-1.1c2.3-.6 4.2-.9 5.7-1.1s3.5-.3 6-.4h2.9c.7 0 1.3 0 1.8.1s1 .2 1.5.5 1.2.7 2 1.1c.9.6 1.7 1.1 2.3 1.6s.9.9.9 1.1c.1.6.2 1 .3 1.2s.5.5 1 .9c.7.5.9.9.7 1.4-.2.3-.2.7.2 1 .6.3.7.7.3 1-.2.5-.1.8.3 1 .2.3.2.6 0 .9-.9.7-1.9-.1-3.1-2.4-.6-1.3-1.4-2.1-2.6-2.4-1.1-.3-3-.3-5.7 0a175.74 175.74 0 0 0-4.5.9c-1.8.3-3.5.7-5 1-1.4.5-2.7.9-4 1.2s-2.1.5-2.6.5l-4.1 1.5c-1.4.6-1.9 1-1.7 1.2.1.1.1.2.1.3-.1.1-.2 0-.4-.1-.7-.1-2 .1-4 .8-2 .6-3.6 1.3-4.9 2.1-1.5.9-2.4 1.6-2.8 2s-.5.8-.3 1.3c.1.2-.1.6-.5 1-.5.2-.7.8-.7 1.7s-.2 1.5-.5 1.9c-.3.2-.5.7-.5 1.4 0 .3 0 .9.1 1.7s0 1.7-.1 2.6c0 2.1-.3 3.4-.9 4.1-.6.8-.7 1.3-.3 1.4.1 0 .2.1.3.3s0 .3-.3.4c0 .2 0 .6-.1 1-.1.5-.1.9-.1 1.4.2 1.1.1 1.9-.3 2.4-.2.8-.3 1.7-.2 2.7.2 1.5.1 2.2-.3 2.2-.3 0-.3.2 0 .5.1.2.1.6.1 1.2-.1.6-.1 1.1-.3 1.7-.3 1.6-.3 2.6 0 2.9.6.2.5.5-.2.9-.5.2-.7.4-.7.5s.2.3.7.7c.6.3.7 1 .3 1.9-.3.8-.3 1.2 0 1.2s.5.2.5.7c-.1.9-.1 1.9.2 3.1.2 1.1.5 1.8.7 2.1.5.7.7 1.3.7 1.9 0 .7.1 1 .2.9s.7.5 1.9 1.9c.8 1 1.8 1.8 2.9 2.4s2.7 1 4.6 1.2l2.2.3c.8.1 1.4.1 1.7.3h7c2.5 0 4.3-.1 5.5-.3 1.1-.2 2.5-.6 4.1-1.2 2.1-.8 4.4-1.9 7-3.3s4.6-2.6 5.8-3.5c.2-.3.9-.9 1.9-1.6a32.53 32.53 0 0 0 2.9-2.3l3.1-2.7c1.1-1 2-1.7 2.6-2.3 1.5-1.3 2.2-1.7 2.2-1.4-.1.9 0 1.3.4 1.1s1.4-.9 3-2.1c.6-.5.5-.3-.1.6s-1.4 1.7-2.3 2.7c-1 1.3-1.7 1.9-2.1 1.9-.2-.1-.5.1-.7.7 0 .3-.5 1-1.4 2.1-.9 1-1.9 2-2.9 3s-2 1.8-2.8 2.5c-.9.7-1.3.9-1.3.5 0-.1-.2.1-.5.5-.3.6-.5.5-.5-.2 0-.6.4-1.1 1.2-1.7.7-.6.9-.9.8-.9s-1.1.3-2.7.9c-.6.2-1.3.5-2.1.9-.9.4-1.5.8-2 1.1s-1 .7-1.5 1.1c-.6.4-1.1.7-1.5.9-.8.7-1.1 1.1-1 1.2.3.3.2.4-.5.2-.6-.2-.9-.1-1 .3-.3.3-1.2.5-2.6.5s-1.9.2-1.7.5c.1.1.5.2 1.2.2s1.5-.1 2.3-.2c.9-.1 1.7-.3 2.7-.5.9-.2 1.7-.5 2.4-.7 1.6-.8 2.2-.6 1.9.5-.1.5-.5.7-1.2.7-.7-.2-1.1-.1-1.4.3-.2.3 0 .5.7.5.8 0 .9.2.3.7s-1.6 1-2.9 1.5c-1.3.6-2.7 1.1-4.3 1.5-1.5.5-2.8.7-3.9.9l-2.5.3c-.7.1-1.2.2-1.3.4-.1.1-.3.2-.5.2h-.3c-.1-.1-.7-.2-1.6-.3-1-.1-2.1-.1-3.3-.3-2.3-.1-4.7-.4-7.2-.9s-4.2-1.1-5-1.6c-.5-.5-.7-.5-.7-.2s-.2.2-.7-.5c-.6-.3-1-.5-1.4-.5-.1.1-.5 0-1-.4a11.92 11.92 0 0 1-1.8-1.5c-.6-.6-1.2-1.1-1.7-1.7s-.8-1-.8-1.2c0-.3-.2-.5-.7-.5-.6.1-1.3-.6-2.2-2.1s-1.7-3.3-2.2-5.2c-.3-.9-.7-1.8-.9-2.7-.3-.9-.5-1.5-.8-1.7-.2-.2-.4-1.1-.5-2.7l-.3-5.5c-.1-2.1-.2-4.1-.2-6.2a53.07 53.07 0 0 1 .2-4.8 24.91 24.91 0 0 0 .5-3.4l.3-3.6c.1-.9.3-2 .5-3.2s.5-2.1.7-2.8c.3-1.5.4-2.4.3-2.8-.2-.4-.8-.9-1.8-1.5-1-.5-1.7-1.1-1.9-1.9-.2-.7-.5-1-.7-1s-.4-.2-.4-.5c-.1-.3 0-.7.1-1 .1-1.8 1.8-3.4 5-4.8.9-.5 1.5-.8 1.9-1.1.3-.3.6-.8.9-1.5.1-1.3.3-2.3.4-3.2.2-.9.5-2.3 1.1-4.2.3-.9.6-1.9.9-2.9.2-1 .4-1.7.5-2.1 0-.3.1-.7.2-1.2s.2-.8.3-1c.1-.3.3-1.1.6-2.2s.5-2.3.8-3.6l.9-3.7c.2-1.2.4-1.9.5-2.1.2-.6.6-1.9 1.2-4.1s1.1-4.5 1.7-7 1.1-4.7 1.5-6.8c.5-2.1.7-3.3.7-3.6 0-.1-.4-.2-1.1-.3s-1.6 0-2.7.3c-.9.1-1.7.2-2.2.3-.6.1-1 .1-1.4 0-.3-.1-.7-.2-1-.4s-.7-.6-1.2-1c-2.4-2.3-2.7-4.1-.9-5.3.5-.2 1.3-.5 2.4-.9a94.49 94.49 0 0 1 3.6-.9c2.7-.6 4.4-1 5-1.2s.9-.8.9-1.7c0-.6.1-.9.3-1s.7-.2 1.5-.2c1.1-.2 1.8-.1 2.1.3.1.3.6.6 1.5.8s1.4.1 1.4-.3c-.1-.2.5-.4 1.9-.5s3.1-.5 5.2-1.2c4.3-1.3 8.7-2.3 13.1-3.2 4.3-.9 8.8-2.1 13.4-3.7 1.6-.6 3-.9 4.2-1.1s1.7-.3 1.5-.3c-.9 0-2.5.3-4.9.9a175.89 175.89 0 0 1-6.2 1.5c-1.8.4-2.8.6-3 .6s1.3-.6 4.6-1.7c2.9-.9 5.9-1.6 9.1-2.1s5.5-.3 6.9.3c.6.2 1.3.5 2.1.9.8.3 1.5.8 2.1 1.4 1.8 1.1 2.5 1.8 1.9 2.1-1.6.3-1.5 1-.1 2.1zm-74.9 91.3c.2-.3.2-.7 0-1.2-.1-.3-.2-.1-.2.7 0 .2 0 .4.2.5-.1.3 0 .3 0 0zm.8-6.7c.2-.6.2-1 0-1.4-.1-.2-.2 0-.2.7.1.4.1.6.2.7 0 .3 0 .3 0 0zm.6 13.6c0-.7-.1-1.1-.2-1.4 0-.2 0-.3-.1-.2s-.1.4-.1.9c0 .9.1 1.2.4.7zm.8-7.4v-.8c0-.3-.1-.5-.2-.8s-.2-.1-.2.7c.1 1.1.2 1.4.4.9zm.9-6.9c-.1-.2-.2-.3-.3-.1s-.1.5-.1 1.1c0 1.3.1 1.5.3.9v-1.9zm.3-1.7c.2-.2.2-.6 0-1.2-.1-.2-.2-.1-.3.5 0 .5.1.7.3.7zm.4-2.7c.3-.2.4-.6.2-1-.2-.2-.3-.1-.3.5-.1.4-.1.6.1.5zm1-3.5c0-.7-.1-1-.3-.9-.3.3-.5.9-.5 1.5s.1.8.3.7c.1 0 .3-.5.5-1.3zm2.7-12.8c.2 0 .2-.3 0-1-.1-.2-.2-.1-.3.5 0 .5.1.7.3.5zm1.1-4.5c.2-.3.2-.7 0-1.2-.2-.7-.3-.5-.3.7 0 .2 0 .4.1.6 0 .2 0 .1.2-.1zm2.4-10.3c.2-.2.3-.6.3-1v-1-.7l-.3.9c-.2.9-.3 1.6-.3 2.1s0 .4.3-.3zm12.5 10.5c-.2.1-.3.2-.3.3.1.1.4 0 .9-.1.5 0 .8 0 .9-.1.2-.1.1-.1-.1-.1-.3-.3-.8-.3-1.4 0zm2.8-.7c-.2.2-.1.4.5.5.6 0 .7-.1.5-.3 0-.2-.4-.2-1-.2zm1-51.9c.3.3.7.5 1 .4s.5-.3.5-.6-.3-.5-1-.5-.9.3-.5.7zm1.2 51.2c-1.1.7-.1.6 3.1-.3l2.9-.9-2.6.3c-.7.2-1.4.4-2.1.5-.6.2-1.1.3-1.3.4zm14.9.2c.8-.2 1-.3.7-.3s-1.4.1-3.1.2c-2.4.2-4.7.6-6.9 1-2.2.5-3.7 1-4.5 1.5-.3.3-.5.5-.3.5.1 0 .5-.1 1-.2.6-.2 1.1-.4 1.5-.5.5-.1.9-.2 1.2-.2.3-.1.7-.2.9-.2.3 0 .5-.1.8-.3.1-.1.5-.2 1.2-.3l2.2-.3 2.8-.3c1.2-.2 2-.4 2.5-.6zm-11-53.4c.3 0 .5-.1.3-.2-.1-.2-.6-.2-1.5 0-.6.2-.9.4-.9.4-.1.1.2.2.8.4.8.2 1.3.3 1.4.3s.1-.2-.2-.5c-.4-.3-.3-.4.1-.4zm25.6-4.2l-1.4-.2c-.3-.1-.9-.1-1.6-.1-.7.1-1.5.2-2.4.3-.9.2-1.6.4-2.3.6s-1.1.5-1.4.7c-.5.2-.8.2-1-.2-.3-.3-.2-.5.5-.5.2 0 .6-.1 1.2-.2s.9-.3.9-.5c0-.3.3-.4.9-.2.8 0 1.6-.4 2.4-1.2.5-.3.8-.7.9-.9.2-.3.1-.4-.1-.4a.47.47 0 0 0-.5.5c0 .3-.4.4-1.2.2-.3 0-.8.1-1.5.3l-1.8.6c-1.6.6-3.2 1-4.9 1.3l-5.2.9c-.2.2-.9.4-1.9.6l-2.9.6c-1.4.3-2.1.6-2.3.7s.1.2.8.3c1 .2 1.7.2 1.9 0 .3-.1 1-.3 1.9-.5s1.9-.3 3.1-.3c-.2.1-.7.4-1.3.9s-1.2.6-1.6.5c-.6-.2-.9-.2-.9.1-.1.3.2.5.8.8.3.1 0 .3-1 .5-.7 0-1.1 0-1.4-.1-.2-.1-.2.1.2.4.5.5 1 .6 1.7.3.2 0 .9-.1 2.1-.3 1.1-.2 2.3-.5 3.6-.7 1.3-.5 2.5-.8 3.6-.9 1.1-.2 1.8-.3 2.1-.4.2-.2.8-.5 1.6-.8.9-.3 1.7-.5 2.5-.8l2.5-.6c.9-.2 1.6-.3 2.1-.4l1.3-.9zm-12.7 1.6c.9-1.1 1.4-1.3 1.4-.3.1.3-.5.8-1.8 1.4s-2.3.8-2.8.7h-.9l.5-.2c.7-.2.9-.5.7-.7-.1-.2.1-.5.5-.9.7-.2.9-.2.5.2-.2.5-.1.7.5.6s1.1-.4 1.4-.8zm4.7 122.1c.5-.3.6-.3.5.2s-.3.8-.7.9c-.3.2-.6.1-.7-.3.1 0 .2-.1.3-.2.3-.2.4-.4.6-.6zm12.1-13.2c-1 1-1.1 1.2-.2.5.6-.5.9-.5 1 0 .1.3.3.4.5.2.2-.7.2-1.1-.2-1.2-.1-.7-.5-.6-1.1.5zm3-3.8c.1-.1.4-.3.8-.7.4-.3.8-.7 1.2-.9.4-.3.8-.5 1.1-.8.3-.2.5-.3.5-.2l-1.6 1.6c-.4.4-.8.7-1.2 1s-.7.4-.8.4c-.5.5-.7.5-.7.2l.7-.6z"/><path d="M351.9 176.7c.2 0 0 .7-.6 2.1l-2.1 4.4c-.3.6-.8 1.3-1.4 2.3l-1.7 2.9-1.5 2.7c-.4.8-.6 1.3-.6 1.5 0 .1-.1.4-.3.8s-.5.8-.7 1.3l-.8 1.5c-.2.5-.3.8-.3 1 0 .5-.4 1.2-1.2 2.2-.3.5-.8.9-1.4 1.5-.6.5-.8.8-.7.9s.1.2 0 .3-.3.2-.5.2a.55.55 0 0 0-.5.3c-.1.2-.3.4-.5.6 0 .6-.2.7-.7.5a.47.47 0 0 0-.5.5c.1.5-.1.7-.8.9-.6.1-1.6.5-2.8 1-1.3.6-2.1.9-2.6.9-.5.1-1.4 0-2.9-.3-2.7-.6-5.2-1.5-7.2-2.8-2.1-1.3-4.1-3.2-6-5.8-.7-.9-1.4-2-2.2-3.3l-2.3-4-1.9-3.5c-.5-1-.8-1.8-.8-2.2 0-.5-.2-.9-.5-1.2-.2 0-.4-.5-.6-1.5l-.3-1.3c0 .2-.2.5-.5.9-.3.3-.7.7-1 1.2-.2.5-.8 1.2-1.6 2.1l-2.7 3.3c-.3.6-.9 1.4-1.6 2.4l-2.3 3-2.9 3.5c-.1.1-.3.5-.7 1-.3.6-.7 1.2-1.2 1.9-.9 1.5-1.9 2.7-3.1 3.6-1.1.9-2.1 1.3-2.7 1-.2 0-.6-.2-1.1-.5l-1.5-1c-.5-.3-.9-.7-1.2-1s-.5-.6-.5-.7c0-.2.3-.8.9-1.7l7.4-10c3-4.2 6.6-8.7 11-13.5l3.8-5-.2-5.5c-.1-1.1-.2-2.5-.3-4.2s-.3-3.3-.4-5l-.5-4.8c-.2-1.5-.3-2.8-.3-3.9l-.5-7.2 1.7-.3c2.2-.3 3.7.1 4.6 1.2s1.5 4.1 2 8.9c.3 4.5.7 7.4 1 8.9s.7 2.3 1 2.6c.1.1.2.2.3.2a68.06 68.06 0 0 0 2.4-2.5c1-1.1 2.2-2.4 3.4-4l5.6-6.3 3.9-4.4c1.3-1.4 2.1-2.3 2.4-2.7.3-.5 1.1-.8 2.4-1 .9-1 1.6-1.7 2.1-1.9s1.1-.3 2.1-.3c1.5 0 2.6.3 3.4 1 .8.8 1.4 1.2 1.9 1.2a.47.47 0 0 1 .5.5c0 .5-.2.6-.7.3-.2-.1-.7.2-1.5.9l-2.7 2.4c-1 .9-1.9 1.9-2.7 2.8-.8 1-1.3 1.7-1.5 2.1-.2.6-.6.9-1 .9-.2 0-1 .7-2.4 2.2s-2.9 3.3-4.7 5.4l-5.5 6.6c-1.9 2.3-3.3 4.2-4.4 5.7-.8 1-1.4 1.9-1.7 2.5s-.5 1.3-.6 2.1c-.1.7 0 1.7.3 2.8.2 1.1.6 2.7 1.2 4.8.7 2.6 1.5 5.1 2.5 7.3s1.9 4.2 2.9 5.8c1 1.7 1.9 2.9 2.9 3.8s1.9 1.3 2.7 1.3c1.7-.2 4.1-1.1 7.2-2.7s5.7-4.1 7.7-7.4c.7-1 1.4-1.9 2.1-2.6l1.4-1.4c.2-.2.5-.5.7-.9s.3-.7.3-.8a1.08 1.08 0 0 1 .3-.7c.2-.2.4-.5.6-.7.6-.6.9-1.2.9-1.9 0-.3.1-.5.3-.5.1.1.5-.2 1.2-.9.2-.5.5-.8.8-1s.5-.4.8-.5c.3 0 .5 0 .6-.1s-.1-.1-.4-.3c-.5-.2-.4-.6.2-1 .3-.3.5-.5.6-.5s0 .1-.1.3c-.2.3-.2.5 0 .3.6-.2.6-.6.2-1-.2-.3-.1-.6.3-.9.2 0 .3.2.3.5-.1.2 0 .1.3-.3 0 .1.3-.1.5-.1zm-41-13.3l.7-.3h-.9c-.2 0-.2.2 0 .5l.2-.2zm33.8 25.3c.2-.2.5-.5.7-.9.2-.3.3-.6.2-.9-.2-.1-.5.1-.9.8-.4.6-.6 1.1-.6 1.5 0 .1.1.1.3 0 .1-.1.2-.3.3-.5zm3.5-6c.6-1.1.6-1.5.2-1-.5.5-1 1.3-1.5 2.4-.6 1.1-.6 1.5-.2 1s.9-1.3 1.5-2.4z"/><path d="M411.9 181.5l-1.5 2.2c-.3.5-.7.8-.9.9-.3.2-.5.3-.8.4-.2.1-.5.5-.9 1-.1.1 0 .1.3-.1l1-.6c.4-.2.8-.5 1.2-.8s.7-.4.8-.4c.3-.1.5-.1.4.1s-.3.4-.8.6c-.2.3-.5.7-.9.9-.4.3-.6.4-.6.3-.3 0-.5.3-.5.9s-.4 1.3-1.2 2.1l-3.2 3.7c-.9.9-1.7 1.5-2.6 2s-1.8.7-2.7.9l-3.5.3c-.2-.1-.3.1-.2.5.1.5-.3.6-1.2.3-1.5-.2-3.1-.7-4.7-1.5-1.7-.8-3.1-1.9-4.2-3.3-.5-.7-.8-.7-1 0-.1.2-.2.5-.3.7a3.04 3.04 0 0 1-.5.7c-.5.5-.6.8-.3 1 0 .1-.1.2-.2.2h-.9c-.7 0-1 .2-1 .5 0 .2-.1.5-.4.9s-.6.8-1 1.1-.8.7-1.2.9c-.4.3-.7.4-.8.3-.7-.1-.9 0-.7.3 0 .2-.2.6-.5 1.1s-.8 1-1.3 1.5-1 .9-1.5 1.3-.9.6-1.3.6c-.3 0-.7.2-1 .5 0 .2-.3.5-.9.7-.3 0-.9.3-1.5 1-.5.5-.7.6-.9.5 0-.1-.1-.1-.2-.1a1.38 1.38 0 0 0-.3.4c-.5.5-.7.5-.7.2s-.2-.3-.7.2c-.2.2-.8.4-1.7.4l-3 .2c-1.1.1-2.2.1-3.3 0s-2.1-.2-2.7-.4l-4.3-1.4c-.8-.3-1.5-.9-2.1-1.5l-.8-.8c-.3-.3-.4-.4-.4-.3-.1.1-.3.6-.4 1.4-.2.8-.3 1.8-.5 3l-.5 3.9c-.2 1.4-.3 2.6-.3 3.8 0 .6-.1 1.2-.2 1.8s-.2 1.1-.3 1.3c-.2.5-.5 1.5-.7 3.2l-.9 6.1-.9 7.7-.4 5.3c0 .7-.1 1.4-.2 2.1l-.2 2c-.1.6-.2 1.5-.2 2.8l-.2 4.4-.3 4.2-.3 2.5a3.04 3.04 0 0 1-1.2 1.3c-.5.3-.7.2-.7-.3s-.1-.6-.3-.3c-.3 0-.8-.2-1.3-.5s-.8-.6-.8-.9-.3-1-1-1.9l-1-1v1c0 .8-.2 1.1-.5.9-.2-.1-.4-1-.4-2.7-.1-1.7 0-4 .2-6.9s.5-6.2.9-10 .9-7.8 1.5-12l1.7-12.9 1.7-10.4a204.18 204.18 0 0 0 1.5-8.8l1.4-8 2.2-13 2.1-12 1.5-9.8.6-6.3c0-1.3.3-2.5.8-3.9l1.1-2.7c.5-.6 1.4-.7 2.8-.3s2.3 1 2.7 1.8c.2.3.4 1.2.4 2.6.1 1.4.1 2.9 0 4.6l-.3 5.1-.6 4c-.2 1.1-.2 1.7 0 1.7.5-.2 1.1-1 2.1-2.2 1.3-1.5 2.8-3 4.7-4.6s3.8-2.9 5.8-3.8a25.39 25.39 0 0 1 3.4-1.3c1-.3 2.3-.5 4-.6 1.9-.2 3.3-.3 4.2-.2s2.3.6 4.2 1.4l2.9 1.4c.8.3 1.2.6 1.2.7 0 .3.8 1.2 2.4 2.6.8.6 1.4 1.2 1.9 2 .5.7.9 1.6 1.2 2.5.3 1.6.5 2.4.3 2.4-.1 0-.2.5-.2 1.5v4 4.5s-.3 1.1-.7 1.4c-.2.2-.4.4-.6.5s-.3.2-.3.3c0 .6.2.7.5.3.3-.2.5-.2.4.1s-.4 1.3-.9 3l-1.4 4.6-.8 2.7c-.2.6-.3 1-.5 1.2s-.4.3-.6.3c-.5.1-.7.3-.7.7 0 .3.2.4.5.2.2-.2.3-.2.3.2 0 .3-.1.8-.3 1.4-.1.2-.3.6-.4 1l-.6 1.4c-.5.8-.8 1.2-1 1.2-.1-.1-.2.2-.2 1 0 .9.2 1.4.5 1.4.2.1.4.1.6.1.2-.1.4-.1.6-.1.6 0 .7.1.5.3-.3.1-.2.4.5.9 1.6.9 3 1.5 4.3 1.8s3-.1 5.3-1.3c.8-.5 1.2-.6 1.3-.4s.4 0 .9-.6l2.5-2s.6-.2.6.3c0 .2-.2.5-.7.7-.3 0-.4.1-.2.3s.6.1 1.1-.3c.5-.5.8-.9.8-1.4 0-.3-.2-.3-.5 0h-.5c0-.1.3-.5.9-1 .6-.6 1.3-1.2 2.1-1.9l2.4-2.1c.9-.5 1.4-1.1 1.8-1.5zm-66.7 4.1c.2-1.5.3-2.1.1-1.8s-.7 1.9-1.5 4.9l-1.4 5.3-1 3.6-.3 2.2-.2 2.1-.3 1.6s-.1.8-.3.8c-.1.1-.3 1-.6 2.7l-.9 5.5-.8 5.6-.3 2.9c.1 0 .1.1.1.3-.1.2-.1.5-.1.7-.1.2-.3 1-.4 2.3l-.5 4.3-.5 4.5-.3 3.2-.3 2.4c-.3 0-.4.9-.2 2.7.2 1.7.1 2.6-.3 2.6-.3 0-.3.2 0 .5 0 .2.1.3.2.3h.3c.3-.1.5.1.5.7s-.2.7-.5.5c-.6 0-.8.2-.7.5 0 .2.1.3.3.3.5 0 .6.8.3 2.4-.1.6-.1 1.2-.1 1.8.1.6.1 1.1.3 1.3.1.2.2 0 .3-.8l.3-3c0-1.3.1-2.8.3-4.7l.6-5.1a27.66 27.66 0 0 1 .3-4.2l.4-2.7c.2-.5.4-1.1.4-1.8.1-.7.1-1.4.3-2 0-.7.1-1.4.2-2.1s.2-1.3.2-1.8c.2-1.1.3-2.5.3-4.1.2-.8.3-1.5.3-2.1s.1-1.1.2-1.3.3-1.2.4-2.8l.9-5.8.7-5.5s.4-2.5.5-2.6c0-.1.1-.4.2-.9s.2-1 .2-1.5c.2-1.5.6-3.3 1.2-5.5l.6-3.3c.4-1.1.5-2.2.6-3.1zm1.6-14.1c0 .2.1.3.2.2s.3-.3.4-.6c.2-.3.3-.6.5-1s.3-.7.3-.9c0-.6-.1-.9-.3-.9-.3 0-.4.3-.2 1 .2.6.1 1-.3 1.2-.4.3-.6.7-.6 1zm1.2-5.8c-.2 0-.3.2-.3.7 0 .3.1.4.3.2.3 0 .5-.2.5-.7 0-.3-.2-.4-.5-.2zm33.7 16.4c1.9-4.1 3.5-8 4.6-11.5s1.8-7.2 2.1-11c.1-1.1-.1-2.7-.5-4.8-.5-2.1-1-3.5-1.5-4.5-.5-.7-1.3-1.3-2.6-1.7-1-.5-2.5-.7-4.3-.6s-3.1.3-3.8.6c-.2.1-.7.3-1.4.6s-1.4.5-2.1.8c-.6.5-1.1.9-1.7 1.2s-1 .6-1.2.9c-.6.6-1.5 1.3-2.7 2.2s-1.7 1.2-1.5.9c.1-.2 0-.2-.3.1s-.7.7-1.1 1.3c-.6.6-1 1.1-1.2 1.5-.2.5-.3.8-.3 1s-.2.6-.7 1c-.6.2-1.3 1-2.1 2.3-.9 1.3-1.7 2.8-2.5 4.4-.5.9-.8 1.5-1 1.8s-.3.3-.2.1l.2-.9-.3.5c-.3.6-.5 1-.3 1.4.2.2.1.8-.3 1.6-.4.9-.8 1.3-1.1 1.3h-.2v.3c0 .2-.1.6-.3 1-.3 1.3-.7 2.5-1 3.9-.3 1.3-.6 2.4-.7 3.3 0 1.1-.1 1.7-.3 1.7s-.2.2 0 .5c0 .2-.1.3-.2.3s-.3.6-.5 1.9c0 1.3-.2 1.9-.5 1.9-.2.2-.3.7-.2 1.3s.3.9.7.8c.1-.1.4-.3.9-.7.5-.3 1-.8 1.5-1.4 1.3-1.5 2.3-2.7 3.3-3.5.9-.9 1.5-1.3 1.9-1.3.5 0 .7-.2.7-.5 0-.1.2-.3.6-.6s.9-.5 1.6-.8l2.1-.6a7.47 7.47 0 0 1 2-.3c.6 0 1.3.1 2.1.2s1.5.3 2.1.5c1.6.6 2.6.8 3.1.7.3 0 .8.1 1.5.3.6.2 1.3.5 2.1.8.7.3 1.5.6 2.1.9.7.3 1.1.5 1.4.8.5.3.8.4 1 .2 0 0 .4-.8 1-2.1zm-5.5 9c.6-.8 1-1.5 1.4-2 .3-.5.6-.9.7-1.1.1-.3-.2-.7-.9-1.1s-1.5-.8-2.5-1.2-2-.7-3.2-1c-1.1-.3-2.1-.5-2.9-.6-1.3-.1-2.1-.1-2.7.1s-1.2.6-2.1 1.3c-.5.3-.9.6-1.2.9-.3.2-.5.2-.5 0 0-.1-.3.1-.9.7s-1.4 1.3-2.3 2.2l-2.1 2.4c-.6.7-.9 1.1-.9 1.2 0 .2-.3.7-1 1.4-.2.2-.5.7-.8 1.4s-.5 1.3-.8 1.9c-.2 1.5-.5 2.2-.7 2.2s-.3.4-.3 1.1c.1.7.2 1.3.4 1.8.2.3 1.1.5 2.7.3 1.6-.1 3.2-.4 4.8-.9 1-.3 2.3-.9 3.7-1.6s2.9-1.6 4.3-2.6 2.8-2.1 4.1-3.3c1.5-1.2 2.6-2.4 3.7-3.5zm-11 10.3l.3-.7-.7.5c-.2.2-.5.4-.8.6s-.5.3-.6.4c0 .1.1.2.2.2h.3c.2 0 .6-.3 1.3-1zm3.4-2.1c1-.9 2.2-1.9 3.4-3.1 1.3-1.1 1.6-1.6 1-1.4-.2.2-.7.7-1.5 1.3-.7.6-1.5 1.3-2.4 2s-1.9 1.5-3.2 2.6c.4 0 1.2-.5 2.7-1.4zm12-10.1c-.2.1-.7.5-1.3 1.3-.6.7-1.1 1.4-1.5 2-.2.6.1.5.9-.2.8-.8 1.4-1.5 1.9-2.2v-.9zm3.1-5c.1-.1.3-.5.7-1.1.3-.6.7-1.3.9-2.1.3-.8.5-1.5.8-2.2.2-.7.3-1.1.3-1.4 0-.7.1-1.3.3-1.7.2-.5.5-.6.9-.3.1.1.2.1.3.1.1-.1 0-.1-.1-.3-.2-.5-.2-1.1.2-1.9.9-1.8 1-3.3.3-4.3-.2-.2-.5-.1-.7.5-.1.6 0 .8.3.7.5-.5.5-.3 0 .3-.5.5-.5.9 0 1.4.3.3.2.5-.3.3-.3-.2-.7-.1-.9.4-.3.5-.3.9-.1 1.3.2.5.2.9-.2 1.2-.7.5-.9 1.1-.7 2.1 0 1-.2 1.5-.7 1.4-.7-.5-.8-.2-.3.7.1.7-.1 1-.5 1-.7 0-.9.8-.5 2.4 0 .1-.1.3-.3.5-.3.2-.7.7-1 1.4s-.4 1.1-.2 1.4c.2.2.5 0 .7-.7.2-.2.4-.4.5-.6s.2-.4.3-.5zm5.2-16.5c0-.7-.2-.9-.5-.5v.2c0 .2.1.4.2.5.2.3.4.5.5.4.1 0 0-.2-.2-.6zm.1-2.9c-.2-.5-.3-.2-.3.7 0 .2.1.4.2.6s.2.1.2-.1v-1.2zm1.4 12.2c-.5 1.3-.5 1.7 0 1.4.3 0 .5-.5.5-1.4l-.2-.9-.3.9zm0-18c-.1-.2-.2-.1-.3.3 0 .5.1.7.3.7.2-.2.2-.6 0-1zm0 1.9c0-.2-.1-.3-.2-.1s-.2.4-.2.6c0 .8.2 1.2.7 1.2s.7-.3.7-.9c0-.3-.1-.5-.3-.5-.2.1-.5 0-.7-.3zm1-5.7c-.2 0-.3.2-.3.5.2.2.4.3.5.3.2 0 .3-.1.3-.3.1-.3-.1-.5-.5-.5zm11 36.6c.6-.3.8-.6.7-.7-.2-.1-.5 0-.9.3-.5.5-.5.6.2.4zm4.2-4.5c.3 0 .5-.1.5-.3 0-.1 0-.2-.1-.2s-.1-.1-.1-.2v-.2c-.2 0-.4.2-.5.5-.2.3-.2.4.2.4z"/><path d="M466.8 172.7l-1.4 1.4c-.6.6-1.1 1.3-1.5 2.1-.4.9-1 1.5-1.8 2-.1.2-.8.9-2.1 2.1l-4.6 4.1-4.4 4.1c-1.2 1.3-1.8 2-1.8 2.2a.47.47 0 0 1-.5.5c-.3-.1-.5.1-.5.5 0 .5.2.6.7.3.5-.2.7-.6.9-1.2.1-.7.5-1 1.2-1 .5 0 .7-.2.7-.7 0-.6.3-.9.9-.9.3 0 .6-.2.9-.7.2-.6.5-.9.9-.9.3 0 .1.6-.9 1.9-.9 1.3-1.8 2.3-2.7 3.1l-1.5 1.5-1.9 1.9-2.1 2-1.4 1.3c-.2.2-.5.6-.9 1-.4.5-.8.8-1.3 1-.3.3-.9.8-1.7 1.4s-1.7 1.1-2.7 1.7l-3.3 1.8-3.3 1.6c-2.4.9-4.8 1.5-7.3 1.9-2.5.3-4.5.3-6.1-.2-.3-.2-.7-.4-1.2-.5s-.8-.3-1-.5c-.1-.2-.4-.3-.9-.3-.1.1-.4.1-.9-.1s-1-.4-1.5-.7c-.6-.3-1.1-.6-1.6-1l-1.3-1.1c-.2-.3-.5-.7-.9-.9-.3-.3-.6-.5-.9-.8-.6-.2-1.4-1.4-2.4-3.5s-1.9-4.3-2.7-6.6c-.6-1.4-1-2.6-1.1-3.6-.2-1-.2-2.3-.1-4l.4-6.3c.1-.9.3-1.4.5-1.6 0-.1.1-.4.2-.8l.4-1.5c0-.6.1-1.1.3-1.5s.4-.7.6-.9c.5-.2.5-.6.2-1-.4-.3-.2-.5.4-.5.4 0 .4-.2.2-.7s.1-.9.9-1.2c.7-.5 1.1-.8 1.1-1s.1-.5.3-.8.4-.5.6-.8c1-.8 1.2-1.3.5-1.5-.2-.2-.1-1 .5-2.4s1.4-2.8 2.6-4.3c1.4-1.8 3.1-3.6 5.1-5.2 2-1.7 4.1-3.1 6.4-4.4 2.2-1.3 4.4-2.3 6.6-3s4.2-1.1 6.2-1.1c1 0 2.2.3 3.4.8 1.3.5 2.5 1.2 3.7 2.1s2.3 1.8 3.2 2.8 1.5 2 1.7 2.9c.6 2.4.6 4.5.2 6.4-.5 1.8-1.7 3.9-3.6 6.2l-2 2.2-2.7 2.7-2.6 2.5-1.7 1.6c-.9.8-2.3 1.6-4.3 2.5-1.9.9-3.7 1.6-5.3 2.1l-3 .6a17.33 17.33 0 0 1-3.2.3c-1 0-1.9-.1-2.6-.3s-1.1-.4-1.2-.6c-.2-.3-.5-.5-.7-.5-.2.2-.6-.2-1.2-1.2l-.9-1.5h1.4c1.7 0 4.1-.7 7.1-2.1s6-3.2 9-5.5c2.7-1.9 5.2-4.6 7.4-7.9.3-.6.7-1.1 1-1.5.3-.5.6-.6.7-.5.1.2.2-.1.3-1s.1-1.9.1-3.1c-.1-1.1-.1-2.2-.3-3.3-.1-1-.2-1.7-.3-1.9-.2-.3-.8-.5-1.8-.4s-2 .2-3 .4-1.9.5-2.7.9c-.7.4-1 .8-.8 1.1.1.1.1.2-.1.3s-.4 0-.8-.3h-.7c1.3.6.9 1.2-1 1.9-.3.1-.9.5-1.7 1-.8.6-1.6 1.2-2.4 1.9s-1.5 1.3-2.1 1.9-.9 1-.9 1.2c0 .5-.6 1.1-1.7 2.1-.5.5-1 1.2-1.7 2.1l-2.1 3c-.7 1-1.3 2-1.7 2.8-.5.9-.7 1.4-.7 1.6 0 .3-.1.5-.3.5-.3 0-.8.6-1.3 1.9s-1 2.8-1.5 4.6-.8 3.8-1.1 5.8c-.3 2.1-.4 3.8-.4 5.3 0 1.7.3 3.7.9 6s1.1 3.8 1.7 4.5c.2.2.5.5.7.9.2.3.5.7.7 1 .6.6 1.1.9 1.5 1 .5.1 1.6.2 3.4.2 2.3 0 4.7-.4 7.3-1.2s5.3-1.9 8.2-3.4c.8-.6 1.5-1 2.1-1.2s1.1-.3 1.3-.3c.5 0 .9-.3 1.2-.9.3-.5.5-.6.5-.5s.3.1 1-.2.9-.7.7-1.2c-.1-.1-.1-.2-.1-.3.1-.1.1 0 .3.1.8.5 3.7-1 8.8-4.5 1.4-1 3-2.3 4.8-3.8s3.6-3 5.3-4.6c1.7-1.5 3.3-3 4.6-4.3 1.4-1.3 2.3-2.3 2.9-3l1.1-.4zm-62.8 8.4c.3-.2.4-.6.2-1-.2-.2-.3-.1-.3.3-.1.6 0 .8.1.7zm2.2-6.2c.5-.7.7-1.3.7-1.9 0-.3-.1-.3-.3 0-.1.2-.2.5-.3.9s-.2.7-.3.9l-.3.9c0 .1.2-.2.5-.8zm1.4-3.9c-.2.3-.3.5-.3.5.1 0 .2-.1.4-.3.3-.2.5-.5.5-.9-.2-.2-.4 0-.6.7zm0-7.6c-.2.8.2.5 1.2-1 .5-.6 1-1.3 1.5-2.1.6-.8 1.1-1.5 1.7-2.1.5-.6 1.1-1.2 1.9-2 .8-.7 1.5-1.4 2.2-2 .9-.8 1.4-1.3 1.5-1.5s-.1 0-.7.4c-.6.2-1.1.5-1.5.9-.5.4-.8.7-1 .9s-.6.5-1 .9c-.5.3-.9.7-1.4 1s-.9.7-1.2 1.1-.5.7-.5.9c0 .5-.1.7-.3.7-.3 0-.8.4-1.3 1.3-.5 1.2-.9 1.9-1.1 2.6zm2 4.5c.2-.2.2-.6 0-1-.1-.2-.2-.1-.3.3 0 .7.1.9.3.7zm31-10.1c-.3.6-.7 1.2-1.1 1.9s-.7 1.1-.9 1.4c-.6.6-1 1.2-1.4 1.9-.2.2-.5.6-.8 1.1l-.9 1.5c-1 1.3-1.2 1.7-.6 1.5.6-.3 1.6-1.2 3-2.8 1.3-1.5 2.3-2.9 3.1-4.2s1.3-2.5 1.4-3.5c.1-.8.1-1.1-.1-.9-.3-.1-.8.7-1.7 2.1zm.3 33.6a.47.47 0 0 1 .5-.5c.2 0 .3.2.3.5l-.3.3-.2.2c-.2 0-.3-.1-.3-.5zm3.8-2.6c-.2 0-.3-.1-.2-.2.9-.8 1.9-1.6 3.1-2.5 1.1-.9 1.8-1.3 2.1-1.3.2 0 .1.3-.5.9-.9.6-1.8 1.3-2.6 2.1-1 .7-1.6 1-1.9 1zm6.3-4.9c-.6 0-.2-.4 1-1.2l2.5-2c.3-.2-.1.2-1.1 1.1-.5.6-.9 1.1-1.4 1.5-.4.4-.7.6-1 .6zm6.4-4.5c-1.1 1-1.7 1.3-1.7.7 0-.1.2-.2.5-.3s.7-.3 1.2-.8l1.5-1.4-1.5 1.8z"/><path d="M504.8 173c1.6-1.3 2.6-2 3.1-2.1.5-.2-.3.5-2.2 2.1l-2.6 2.1c-.9.9-2.1 1.9-3.4 3-1.3 1-2.4 1.5-3.5 1.5s-2.7-.8-4.9-2.4c-1.4-1-2.5-2-3.3-3s-1.4-2.1-1.9-3.3-.8-2.6-1-4.3l-.7-5.9-.6-6.2-.4-3.1c-.5.2-.5.6-.2 1 .3.6-.2 1.2-1.5 1.9-.9.7-1.2 1-.9 1 .6 0 .5.4-.3 1.2-.8 1-1.1 1.7-1 2.1 0 .2-.3.5-.9.7-.6 0-.7.2-.5.7a.91.91 0 0 1 0 1c-.2.3-.6.4-1.2.2-.7 0-.9.2-.7.5 0 .3.2.5.7.5.6.2.5.5-.3.9-.3.2-.7.6-1.2 1.1s-.9 1-1.3 1.5-.7 1-.9 1.5-.3.7-.2.9c.3.3-.1 1.2-1.2 2.6-.3.6-.9 1.1-1.7 1.7s-1.1.9-1 1c.1.9-.1 2.1-.6 3.7-.5 1.5-1 2.5-1.5 2.8-.8.5-1.1 1-.9 1.7.5.8.3 1.3-.5 1.5-.5.5-.6.8-.5 1 .2.1.3.4.3.9-.1.5-.2 1.1-.4 1.6l-.5 1.5-.2 1c0 .6-.2 1.4-.5 2.6-.6 1.4-.9 3.2-.9 5.3l-.2 5.3c.2 1.6.1 3-.3 4.1-.2 1.1-.2 2 .2 2.6.2.6.1.9-.5.9-.2.2-.5.3-.9.3s-.6.1-.9.2c-.7.5-1 .3-1-.3 0-.2-.2-.2-.7 0-.3.1-.7-.2-1-.9-.2-.8-.5-1-.9-.7-.6.2-1-.1-1.4-1-.6-1-1.1-1.4-1.7-1-.5.2-.7.2-.9-.2-.1-.3-.2-1.3-.2-2.9 0-1.5.1-3.5.3-5.9l.9-8 1.5-8.9 1.7-8.8 5-22.5c1.4-6.2 2.2-10.6 2.6-13.2.2-1.4.5-2.6.7-3.7s.4-1.7.5-2c.3-.6 1.1-.8 2.4-.7s2.2.5 2.7 1c.6.6.9 1.1 1 1.5.1.5.1.9 0 1.2s-.2.7-.3 1.1 0 .8.3 1.1c.2.6.2 1.1-.1 1.6s-.5 1.1-.8 1.6c-.3.9-.5 1.9-.5 2.9-.1.2-.1.6-.1 1.1.1.5-.1 1-.4 1.5s-.5.8-.3 1.1c.1.3.3.4.5.3.6 0 .7.5.5 1.4 0 .3-.1.7-.2 1.1s-.1.7 0 .8c-.2 1.1-.6 2.7-1 4.7l-1 3.9c-.2.9-.1 1.5.3 1.7a3.04 3.04 0 0 1 .5.7c.1.2.2.5.3.7 0 .5-.2.3-.7-.3s-.8-.3-1 .7c-.5 1.7-.7 2.9-.7 3.4 0 .6.2.7.5.5.3-.3.5-.7.3-1.2 0-.6.3-1.3.9-2.1.2-.3.7-1 1.4-2l2.1-3c.6-1.1 1.4-2.5 2.4-4s2.2-3.1 3.4-4.7c1.6-2.2 2.9-3.7 3.8-4.6s1.7-1.3 2.2-1.5c1.1-.1 2.1-.1 2.9.1s1.1.4 1 .8c-.1.1 0 .2.3.3s.7.1 1.1 0c.9-.1 1.3-.1 1.2.2-.1.2.1.8.5 1.7a27.68 27.68 0 0 0 .6 1.6c.2.5.3.8.4.9-.1.3-.1 1.8 0 4.5l.4 8.4.6 8.2c.2 2.5.5 4 .7 4.3.2.8.5 1.3.9 1.6s1.1.3 2.1.1c.7-.2 1.4-.5 2.1-.9.7-.3 1.5-.7 2.6-1.2 1.7-.7 2.8-1.2 3.3-1.5s.7-.3.6.1c-2.1 1.6-2.9 2.3-2.7 2.2.4.7 1.1.3 2.1-.3zm-50.5 28.9c0-.8-.1-1.3-.2-1.5-.2-.7-.3-.5-.3.7.1.9.3 1.1.5.8zm.2-3.1c.1-.3.1-.9-.2-1.5-.1-.2-.2-.3-.3-.1s0 .5.1.9c.2 1.2.4 1.4.4.7zm5.3-29.7c-.1-.1-.1-.5 0-1.1s.3-1.4.5-2.3l.6-2.3c.2-.7.2-1.2.1-1.5 0-.5.2-.6.5-.5.5.2.6.2.3-.2-.3-.6-.2-1.2.3-1.9.3-.8.5-1.5.3-2.1-.2-.5-.2-1.3 0-2.6.3-1.1.3-1.5 0-1.2-.1.2-.3.9-.7 2-.3 1.1-.6 2.3-.9 3.7-.2 1.4-.5 2.7-.8 3.9l-.6 2.3c-.1.2-.3 1.2-.7 3-.3 1.8-.7 3.8-1.2 5.9-.6 2.1-1 4-1.4 5.8-.3 1.8-.6 2.9-.7 3.5-.1.3-.2.8-.3 1.3s-.2.9-.2 1.1c.1.2.1.7 0 1.4l-.3 2.2c-.5 2.5-.7 4.3-.8 5.2-.1 1 0 1.5.3 1.5.2 0 .4-.4.4-1.1.1-.7.2-1.6.4-2.7 0-1.1.2-3 .6-5.5s.9-5 1.4-7.5 1-4.7 1.5-6.6.8-2.9 1-2.9c.4-.2.5-.5.4-.8zm3.3 1.5c.3-.1.5-.7.5-1.7-.2-2.6-.9-1.3-1.9 4.1-.6 2.5-.9 4.2-.9 5.1-.1.9.2.2.8-2 .2-.8.3-1.3.3-1.5s.1-.3.3-.4c.1-.1.3-.4.5-.9s.2-.8 0-1c-.1-.3-.1-.7 0-1.1s.2-.6.4-.6zm14-17.6c.8-1 1.3-1.8 1.4-2.2.1-.5.1-.7 0-.7-.1-.1-.4.1-.8.6s-.9 1.1-1.4 1.9a27.21 27.21 0 0 0-1.6 2.5 41.77 41.77 0 0 0-1.5 2.4c-.6 1.4-1 2.2-1.4 2.6-.6.2-1 1-1.4 2.4a5.3 5.3 0 0 1-.8 1.5c-.3.4-.5.6-.6.6-.3 0-.5.2-.5.7.1.6.3.7.7.3.3-.4 1.1-1.7 2.4-4 .7-1.3 1.5-2.7 2.6-4.3 1-1.8 2-3.2 2.9-4.3zm4.3-6.6c.9-1.3 1.3-1.9 1.2-1.9-.5 0-1.1.7-1.9 2.1-.6.6-1 1-1.2 1.4-.2.3-.2.5 0 .5.3 0 .9-.7 1.9-2.1zm.4 6.2l.3-.9-.7.5c-1 1-1.3 1.5-.7 1.5l.3-.3.3-.3c.1-.1.2-.3.5-.5zm19.4 22.3c.7-.1.9-.4.7-.9-.2-.3-.9-.1-2.1.7-.6.3-1.1.7-1.7 1s-1 .6-1.2.9c-.2.2-.2.3 0 .3.2-.1.9-.3 2.1-.8.2-.2.6-.5 1.1-.7s.8-.4 1.1-.5z"/><path d="M590.1 107.4c.2 1-.1 1.9-.9 2.7-.9.7-1.9 1.3-3 1.8s-2.2.8-3.2.9l-1.6.3c-.7 0-1.4.1-2.1.4s-1.1.3-1.1.1c0-.3.3-.5 1-.5.8-.2 1.2-.5 1.2-.7 2.2-.9 3.6-1.7 4.4-2.4.7-.7 1-1.4.9-2.2-.2-.8-1.5-1.5-3.9-2.1-.7-.2-1.1-.4-1.3-.5s0-.1.4.2c1.1.2 1.5.2 1.2-.1s-1.1-.5-2.4-.8l-1.5-.3c-.5-.1-.7-.2-.9-.2-4.8-1.3-9.8-2.1-15.1-2.4s-10.7-.5-16.3-.5h-5.2c-1.5 0-2.9 0-4.3.1s-2.8.1-4.4.3l-5.4.3v2.1c-.3.3-.4.5-.2.5 0 .1 0 .2.1.2s.1.1.1.2c0 .2.1.4.2.5l-.3 1.7c-.1.7-.3 1.2-.4 1.5-.2.3-.3.3-.3.1-.1-.6-.2-.8-.2-.8 0 .1-.1.4-.3.9-.2.6-.2 1 .2 1.4.2 0 .3.1.2.2s-.3.2-.5.3c-.2.3-.4.5-.4.6-.1.1 0 .1.3.3a.47.47 0 0 1 .5.5c0 .2 0 .3-.1.3-.1-.1-.1-.1-.3-.1-.2-.1-.3.2-.3 1 .1.2.1.5.1.8-.1.3-.2.4-.4.3-.2 0-.3.2-.3.7.1.1.2.4.2.9s-.1.9-.2 1.4c-.2.5-.4 1.1-.5 1.9a52.78 52.78 0 0 1-.3 2.1c-.1.3-.2.5-.2.6v.2c0 .1-.1.3-.2.6s-.2 1-.3 1.9c-.6 1.8-1 3.4-1.3 4.6-.3 1.3-.5 2.3-.8 3.1l-1.2 6c-.3 1-.6 1.8-.8 2.4s-.3 1.1-.4 1.5c-.1.5-.2.9-.3 1.5-.1.5-.2 1.2-.3 2.1-.1.8-.3 1.8-.6 2.9s-.5 2.1-.8 2.7c-.2 1.3-.5 2.9-.9 5.1-.4 2.1-.9 5.7-1.6 10.7l-.5 2.7-1.5 7.4c-.2 2.2-.5 3.5-.9 4.1-.6.6-.6.7 0 .5.2-.2.3-.1.3.3 0 .5-.1 1.4-.3 2.9 0 1.6.1 3.6.3 5.8.2 2.3.6 4.2 1.2 5.8s1.6 3.2 3 4.9 2.5 2.5 3.3 2.7c2.1.1 4 0 5.8-.3s3.7-1.2 5.9-2.7c.6-.6 1.1-1 1.5-1.4.4-.3.7-.5.9-.3.1 0 .5-.3 1-.9.2-.2.7-.4 1.4-.6s1.1-.2 1.4-.1c.6.2.7.1.5-.5-.2-.2-.3-.4-.3-.4.1-.1.1-.1.3-.1.6-.2 1.2-.3 2-.3.7 0 1.6-.7 2.7-2.1 1.3-1.6 2.7-2.9 4.3-4s2.5-1.9 2.7-2.5c0-.2.3-.7 1-1.5.7-.7 1.1-1.2 1.4-1.5 1.7-1.4 2.4-1.8 2.1-1.4-.3.5-1.8 2.7-4.5 6.9-.9 1.3-1.5 2.1-1.6 2.5-.2.4-.5.9-.9 1.5-.3.6-.6.9-.9 1.1-.2.2-.4.3-.6.3h-.3c-.1 0-.1.1-.1.3l-.5.3c-.3.3-.4.7-.2 1 .2.5 0 .8-.6.9-.6.2-1.4.8-2.3 2-.8.8-1.3 1.2-1.4 1.2.1.1-.2.3-.9.5s-1.4.6-2 1.2-1.1 1-1.5 1.4c-.4.3-.6.6-.6.9 0 .1-.1.3-.4.5s-.5.5-.8.7c-.2.3-.5.7-.8 1s-.4.6-.4.9c0 .5-.2.5-.7.2-.2-.1-.6-.1-1 0-.5.1-1 .3-1.5.5-1.1.5-2.4.7-3.9.8-1.4.1-2.4-.2-2.8-.8-.5-.2-.8-.2-1 0-.3.2-.5.1-.5-.3 0-.2-.2-.3-.5-.2-.5.1-1.1 0-2.1-.4-.9-.4-1.7-.9-2.2-1.5-.2-.2-.6-.6-1.2-1-.6-.5-1.2-1-1.9-1.5-1.5-1.3-2.5-2.2-3.2-2.7-.6-.6-1.2-1.5-1.8-2.9-.2-.7-.6-1.5-1-2.5-.5-1-.8-1.7-1-2.3-.9-1.6-1.5-3.4-1.9-5.5-.3-2.1-.5-4.6-.3-7.6-.1-1.6-.1-3.2-.1-4.9.1-1.7.2-2.8.4-3.5a13.33 13.33 0 0 0 .5-2.6c.1-1 .2-1.9.3-2.6.6-2.7 1.2-5.7 1.8-8.9l1.8-9.2 1.6-7.7 1.1-4.6.6-2.8c.2-.9.3-1.4.3-1.6l.7-2.9.3-.9c-.1-.1.1-.5.4-1.5 0-.1 0-.2.1-.3s.1-.1.1-.3v-.2c-.3 0-.3-.5.2-1.4l1.4-5.3c.5-1.9.8-3.6.9-4.9.2-1.3.4-2.4.6-3.3l.5-2.2 1.5-6.9-4.1.3c-2.1.2-4.5.5-7.3.9-2.8.3-5.9.8-9.2 1.5-3.3.6-6.9 1.4-10.7 2.2-3.8.9-7.8 1.9-11.9 3.2-1.6.6-2.8 1-3.7 1.4-.9.3-1.1 0-.6-1 .2-.6.1-1.1-.3-1.7s-.1-1.4.8-2.6c.8-.8 2.7-1.8 5.8-3.1s7.5-2.3 13.2-3.1c4.6-1.3 9.3-2.2 14.3-2.9 4.9-.7 10-1.1 15.1-1.4v-.5c.2-.2.4-.5.4-.8.1-.3.2-.7.4-1.3.2-.8.6-2.2 1-4.1.5-1.9 1.1-3.9 1.9-6 .8-3 1.5-4.9 2-5.8s1.1-1.5 1.8-1.7c.6-.5 1.4-.5 2.4-.3 1 .3 1.9.7 2.6 1.3.2.3.3.6.3.7s-.1.3-.3.5-.3.5-.4.9-.1.9 0 1.6c.1.9.1 1.7-.2 2.4-.2.7-.5 1.1-.7 1.4-.2.1-.2.4 0 .8s.1.9-.3 1.5c-.2.6-.4 1.1-.4 1.5-.1.5-.1.7-.3.9-.3.2-.6 1-.9 2.2l-.3 1.5c-.1.6-.2 1-.4 1.4-.5.6-.7 1-.7 1.2.3-.2 1.3-.4 2.7-.5l5.2-.3c2-.1 4.1-.2 6.4-.2s4.4 0 6.4.1l5 .3c1.4.2 2.1.4 2.2.6.2.2-.3.3-1.6.3h-6.8c-2.1 0-3.4 0-4.1-.1s-1.2-.1-1.5 0-.7.1-1.1.2-1.2.1-2.5.3c-.8.1-1 .2-.7.2s.9 0 1.7.1 1.6.1 2.3.1 1.1.1 1.1.2-.6.3-1.7.4c-1.1.2-2.4.3-3.7.5s-2.5.3-3.6.4-1.6.2-1.6.3c1.4-.2 4.1-.4 8.1-.6s8.3-.2 13-.2c4.6.1 9.1.3 13.4.7s7.4 1.1 9.4 2c.3.2 1.1.4 2.3.5l3.2.3c.6 0 .9.2.9.5 0 .1.6.2 1.7.2.9 0 1.5.2 1.7.5 0 .3.3.5 1 .5.8 0 .9-.2.2-.5-2.3-1.4-4.8-2.5-7.6-3.3-2.7-.8-5.5-1.4-8.2-1.8s-5.4-.7-7.8-.9c-2.5-.2-4.5-.4-6.1-.6-.2 0 .1-.1.9-.2s1.8-.2 3-.2 2.5 0 3.9.1 2.6.1 3.8.3c2.1.3 3.6.5 4.6.5s2 .1 3 .3 2.3.7 3.9 1.3 4.1 1.7 7.4 3.2c.6.2 1.1.7 1.6 1.5.5.7.6 1.2.3 1.3-1 .2-1 .6 0 1.2l.6 2.3zm-71.4-8.2l-5.9.5-4 .3c-1.3.1-1.9.1-1.9 0 .8-.2 1.7-.5 2.7-.8l4.4-1.3c-1 .1-2 .3-3 .4-1 .2-1.6.3-2 .3l-2.7.5c-.5.1-1.1.3-1.9.4-.8.2-1.5.3-2.1.4l-4.8.5c-.5.1-1.1.3-1.9.4-.8.2-1.6.4-2.5.7l-2.2.7c-.6.2-1 .3-1.1.4-.2.5-.5.6-.9.3-.1 0-.6.1-1.5.3s-1.8.4-2.8.7-2 .5-2.8.8c-.9.2-1.3.3-1.5.3-2.2.9-3.3 1.4-3.4 1.5s.5 0 1.8-.3 3.1-.7 5.3-1.4l7-1.8c.8-.2 1.6-.4 2.4-.4.8-.1 1.4-.1 1.7-.1 1.3 0 2.7-.3 4.5-.8 1.7-.5 3.5-.8 5.5-.8l2.4-.5c.3-.1.6-.2.9-.2.2 0 .5 0 .9.1.3.1.8.1 1.4.1s1.4-.1 2.4-.2l5.6-1zm-4.8 32.5l1.1-5 .6-2c.1-.3.2-.4.2-.3s-.1 0-.2-.3c-.9 1.4-1.8 4.2-2.7 8.6s-1.8 9.1-2.6 14.3c-.2 1.3-.5 2.5-.9 3.9-.4 1.3-.7 2.5-1 3.6l-.7 2.7c-.2.7-.1 1 .1 1 .1 0 .2.3.3.9s.2 1.1.2 1.7 0 1.1.1 1.5.1.4.1-.1c.1-1.1.4-3.1.9-5.8l1.5-8.7 1.7-9.1c.5-3 .9-5.3 1.3-6.9zm5-21.3c.6-2.2.9-3.5 1.1-3.9.2-.5.2-.8.1-1l-.3-.3c-.1-.1-.3 0-.4.4-.2.4-.4 1.2-.6 2.3l-.9 5c-.1.6-.3 1.3-.4 2.1-.2.8-.3 1.5-.5 2.2s-.3 1.3-.4 1.8-.1.8 0 .8.2-.2.3-.7.3-1 .4-1.5c.2-.6.3-1.1.4-1.7s.2-1 .2-1.2v-.3c0-.1.1-.2.2-.4s.2-.6.3-1.1c.1-.7.2-1.5.5-2.5zm2.4-11.5l-.7 1.4v.2c-.1 0 0 .1.3.2s.4.1.4-.2c.1-.3.2-.7.3-1.1s.1-.7.2-1 .1-.4 0-.3c-.2-.1-.3.2-.5.8zm2.9-9.3c.3-1 .4-1.5.3-1.4-.2.1-.5.5-.9 1.2s-.8 1.6-1.1 2.7-.5 2-.3 2.8c.1.8.1 1.2-.2 1.3-.2.1-.3.1-.2.1.3 0 .5-.2.5-.7 0-.2.2-.9.5-2.1.4-1.1.8-2.4 1.4-3.9zm8.6 112.1c-.1 0-.2.1-.3.2s-.2.2-.4.3c0 .5.3.5 1 0 .8-.3 1.3-.5 1.5-.5.1.2.3.3.5.1s.5-.4.7-.8c.6-.6 1.1-.9 1.5-.9a.55.55 0 0 0 .5-.3c.1-.2 0-.4-.3-.6-.5-.2-.8-.2-1.1.2-.3.3-.9.7-1.8 1-.7.9-1.4 1.3-1.8 1.3zm11.8-12.2c.6-.7 1-1 1.4-1s.6-.1.9-.3c.6-.3.3 0-.8 1s-2.6 2.3-4.6 4c-1.9 1.9-3.2 3-3.7 3.2s.1-.7 2-2.7c1.6-1.5 2.7-2.4 3.4-2.7.7-.4 1.2-.9 1.4-1.5zm3.5-3.1c.2-.1.5-.4.9-.8.3-.4.5-.5.5-.3-.2.5-.6.9-1 1.5-.5.5-.7.5-.7.1-.1-.3 0-.5.3-.5z"/><path d="M582.6 185.1c.3-.3.5-.5.5-.3 0 .1-.1.3-.2.7l-.5 1.7c0 .2-.3.4-.9.5s-.9.5-1 1c0 .2-.2.6-.5 1.2s-.7 1.2-1.2 2l-1.4 2.1-.9 1.4c-.2-.7-.6-.7-1.1.1-.5.7-1.1 1.4-1.6 2l-1.7 2c-.7.7-1.1 1.3-1.4 1.6-.6.6-1.5 1.3-2.9 2.1-1.4.9-2.7 1.6-3.9 2.1-.6 0-1 .2-1.4.5-.3.3-.9.6-1.5.7-1.9.2-3.3.3-4.2.2s-1.5-.3-2-.7c-.5-.5-1-.7-1.5-.7-.6 0-1-.3-1.2-1-.6-1-1.1-1.3-1.5-.9-.3.2-.7.1-1.1-.5s-1-1.7-1.8-3.3c-.5-.7-.9-1.5-1.4-2.4s-.8-1.8-1.1-2.7l-.6-2.1c-.1-.6-.1-.8.2-.7.3 0 .3-.6 0-1.7l-.3-1.6c-.1-.5 0-1 .3-1.5.2-1 .2-1.7 0-1.9s-.1-.5.3-.7c.5-.5.5-.8 0-1-.2-.2-.2-.6 0-1 .2-.5.5-.6.7-.3.1 0 .2-.1.2-.3a.47.47 0 0 0-.5-.5c-.5 0-.6-.6-.3-1.7a5.27 5.27 0 0 1 .5-1.5c.2-.4.4-.3.5.3 0 .2-.2.3-.5.3-.1-.1-.2-.1-.2-.1 0 .1.1.1.2.3.2.6.2.9 0 .9-.5 0-.5.2-.2.5.1.7.3.7.6-.1.3-.7.7-2 1.3-3.7.5-1.5.7-2.5.7-3s-.1-.8-.3-.8c-.3-.1-.6 0-.9.3-.2.3-.2.6.2.9.1.2.1.6-.2 1-.5.3-.7.3-.9 0-.2-.6-.2-1.1.2-1.7.1-.2.3-.7.5-1.4l.5-1.9c.3-2.3.7-2.7 1-1.4.1.2.1.4.1.5-.1.1-.1.1-.1 0-.2 0-.4.3-.5.8s-.1.9.2 1.1c.2.3.5.3.7-.3.2-.5.3-1.1.3-1.8 0-.8-.1-1.3-.2-1.5-.5-.3-.5-1.2-.2-2.6.1-.9.4-2.4.9-4.5l1.4-6.4 1.2-6 .5-3.3c.1-.2.2-.5.3-.8s.1-.5.3-.8c.2-.6.9-.8 1.9-.8 1 .1 2.2.4 3.4.9 1.3.6 2.1 1.3 2.4 2.1s.4 2.3.2 4.5l-.5 2.6-.2 1.5c0 .2-.1.6-.3 1-.2.3-.4.9-.5 1.5 0 .8-.2 1.8-.7 2.9l-.3 1.5c-.1.4 0 .7.1.8v.5c0 .2-.1.5-.2.7-.5.6-.6 1-.3 1.2.2.2.2.8 0 1.8s-.7 2.6-1.4 4.9c0 .9-.3 1.4-.9 1.4l-.5.5c0 .3.1.5.3.5 0-.1 0-.1.1-.1.1.1.1.2.1.4-.3.3-.5.5-.5.3-.3-.2-.4-.1-.2.5.1.5.1 1 0 1.6s-.3 1-.7 1.1c-.2 0-.2.3.2.9.2.6.2 1-.2 1.4-.2.5-.3.9-.3 1.2 0 2.7-.2 4.2-.7 4.3-.1 0-.2.2-.3.6s-.1.8-.1 1.3 0 .9.1 1.3.1.6.3.6c0 .1 0 .3-.1.4-.1.2-.1.5-.1.9-.1.7-.2 1.5-.2 2.5a12.65 12.65 0 0 0 .3 2.8l.6 2.6c.2.8.5 1.4.7 1.7.5 1.1.7 1.8.7 2.1s.3.5 1 .6 1.6 0 2.7-.3c1.1-.2 2.2-.6 3.4-1.1s2.3-1.1 3.3-1.8c.6-.3 1.5-.9 2.7-1.8l3.6-2.7 3.1-2.7c.9-.9 1.2-1.4 1.1-1.6.2.3.2.9-.1 1.5-.3.7-1.2 1.5-2.8 2.4-.6.9-1 1.7-1.3 2.3s-.4.9-.3.9c0 .2.2.2.7 0s.9-.6 1.2-1.2c.2-.3.6-.8 1.1-1.4s.9-1.1 1.1-1.7l6.8-7.5zm-33.2-20c.2-.2.1-.5-.5-.7-.1-.3-.2-.3-.2.2.2.2.4.3.5.3l.2.2zm7.1-33.6c-.2-.1-.4-.3-.4-.4-.1-.2-.1-.3-.3-.3-.6-.5-.5-2.7.2-6.7.1-1.6.4-3 .9-4.1s.9-2.1 1.1-2.9c.2-.6.8-1 1.8-1.3s1.5-.2 1.6.3c0 .3.2.4.7.2 1.5-.2 2.3-.1 2.6.5a.55.55 0 0 0 .3.5c.2.1.3.1.3 0 .3 0 .3.5 0 1.4 0 .3 0 .7-.1.9-.1.3-.1.5-.1.6.2.6.1 1.5-.3 2.7.1-.2-.1.5-.5 2.1-.5 1.6-.7 3.2-.9 4.8l-.3 1.5-.2 1c-.1.3-.5.7-1.1 1.2s-.9.6-.9.3c-.2-.3-.5-.5-.9-.5-.5 0-.9-.2-1.2-.5-.7-.5-1.2-.7-1.5-.7-.6.1-.8-.2-.8-.6z"/><path d="M621.7 186.6c1.9-1.1 2.9-1.6 3-1.3s-.8.9-2.5 1.8l-2.6 1.5c-.2.2-.1.3.3.1l2-.8c.9-.3 1.6-.7 2.3-1-.5.2-.4.2.3-.2.6-.3 1.3-.8 2.1-1.3l2.1-1.3c.6-.3.7-.3.3 0-.5.3-1.3.9-2.4 1.8l-3.5 2.6-3.3 2.3c-1 .7-1.5 1-1.6 1-.2 0-.5.1-.9.4l-1.2.9c-.4.3-.7.7-1 .9-.3.3-.4.5-.3.6s-.1.2-.6.3-.9.2-1.1.4c-.6.2-1 .5-1.4.9l-2.4 2.4c-1.1 1.1-2.8 2.3-5 3.6-.6.2-1.1.6-1.5 1.1s-.8.9-1.1 1.1c-.6.2-.8.6-.6 1.1s.4 1.1.8 1.6c.7.7.9 1.1.7 1.4-.3.3-.3.7.2 1 .2.2.5.9.9 2s.5 1.7.4 2c-.2.7-.2.9.2.5.3-.2.5.4.3 1.9-.2 2.3-.5 4-.8 5.1s-.6 1.7-.9 2c-.7.5-.9.9-.5 1.2.2.5.1.7-.3.7-.6 0-.9.2-.9.7-.2 1.5-.5 2.6-.9 3.4-.3.8-.6 1.1-.9.9-.3-.3-.5-.2-.5.3 0 .3-.2.8-.7 1.5l-1.6 1.9-1.8 1.7c-.6.5-1 .8-1.2.8-.7 0-.9.3-.5.9 0 .5-.1.6-.3.5-.3-.3-.6-.1-.9.9l-.3.8c-.1.2-.2.1-.2-.1-.5 0-1.7.6-3.6 1.7l-2.5 1.5c-.7.4-1.2.5-1.5.4-.2-.1-.6-.1-1 .2a2.73 2.73 0 0 0-1.2.9l-.9.9c-.1 0 0-.3.3-.9.1-.6-.1-.7-.5-.3-.8.6-2.1.8-4 .6s-3.7-.7-5.4-1.6c-1.9-1-3.2-1.9-3.8-2.5s-1.1-1.6-1.5-3c-.6-2.2-.4-4.4.4-6.8.9-2.3 2-4.6 3.5-6.8s3.1-4.2 4.9-5.9l4.6-4.2 3.8-2.8 4.5-3.2 3.9-2.6c1.1-.7 1.8-1 2.1-1 .9 0 .7-.8-.6-2.3s-3.3-3.3-6.1-5.4c-.9-.7-2.1-1.9-3.5-3.7l-4-5.5-3.3-5.1c-.9-1.5-1.4-2.3-1.4-2.6s-.3-.8-.9-1.4c-.2-.2-.5-.7-.7-1.5-.2-.7-.4-1.6-.5-2.5a15.04 15.04 0 0 1-.3-2.9c.1-.9.2-1.9.5-2.9l1.2-3.5a54.37 54.37 0 0 1 2.1-4.7l1.4-3c.5-.9.9-1.7 1.5-2.4l1.7-2.3 2.3-2.9c2.4-2.7 4.6-4.7 6.7-5.8s4.4-1.7 7-1.7 5.4.8 8.3 2.5 4.7 4 5.2 7c.1.7.1 1.6-.2 2.7a32.82 32.82 0 0 1-.9 3.7c-.4 1.3-.9 2.6-1.5 3.9l-1.7 3.5-2.9 4-3.9 4.9-3.7 4.2c-1.1 1.2-1.9 1.8-2.4 1.8-.8 0-1.7.3-2.7 1-.9.5-1.5.7-1.9.7-.3 0-1-.2-1.9-.5-1.7-.8-2.6-1.6-2.6-2.4.1-.1.3-.2.5-.3s.7-.4 1.4-.9c1.6-.8 3.3-2.1 5-3.8s3.4-3.7 5-5.8l4.4-6.6c1.3-2.2 2.4-4.3 3.2-6.3.2-.6.4-1.4.6-2.6.2-1.1.2-2.3.1-3.4s-.4-2-.9-2.7c-.5-.6-1.3-.7-2.5-.3l-3 .9c-1.3.4-2.4.9-3.3 1.5-.3 0-.9.3-1.7 1s-1.7 1.5-2.6 2.6l-2.7 3.3c-.9 1.1-1.6 2.1-2.1 2.9l-2.7 4.6-1.6 2.8c-.4.7-.7 1.4-.9 1.9s-.3 1-.4 1.5c0 .6-.1 1.1-.3 1.5l-.4.9c-.5.2-.6.5-.3.7.1.2.2.7.3 1.5l.2 2.6c.1.8.5 1.8 1.1 3s1.4 2.5 2.3 3.8l3 4c1.1 1.4 2.3 2.6 3.5 3.8.9.9 1.6 1.8 2 2.7s.6 1.3.6 1.5c.1.2.4.4.8.5s.8.3 1.3.5c1 .5 1.5.9 1.5 1.2-.1.1-.1.3 0 .5s.3.4.5.5.7.1 1.4 0l1.2 1.3c.2.3.5.3.9.1.7-.3 1.3-.8 1.9-1.3s2.2-1.4 4.8-2.7c.6-.3 1.2-.8 2-1.3l2.1-1.5 1.8-1.4c.5-.4.8-.6.9-.6 1.6-.6 3-1.2 4.3-2 1.3-.7 1.9-1.1 2.1-.9.2.1.7-.1 1.5-.5.6-.5 1-.7 1.1-.7zm-45 50.3c1.7-.6 3.9-1.7 6.4-3.3 2.6-1.7 4.7-3.3 6.3-5.1 1.6-1.6 3.1-3.5 4.5-5.8s2.3-4.3 2.7-6c.6-1.9.8-3.7.7-5.3s-.3-2.4-.5-2.4-.7.2-1.5.7c-.7.5-1.6 1-2.7 1.7l-2.7 1.6c-.7.5-1.2.8-1.3.8-1.1-.3-1.7-.2-1.7.5 0 .2-.1.5-.4.9-.3.3-.5.6-.8.9l-.9.7c-.1 0 .1-.2.4-.5.2-.3.3-.5.3-.6s-.3-.1-.9-.1c-.7 0-.9.2-.7.7 0 .8-.6 1.7-1.9 2.7l-2.3 2.1c-.4.3-.3 0 .3-.8.2-.2.3-.4.3-.6s-.1-.3-.3-.3-.5.3-.8.8-.5 1.1-.6 1.6c0 .3-.2.5-.7.5-.2-.1-.6.2-1.1 1s-.9 1.4-1.3 1.7c-.8.8-1.8 1.9-2.9 3.3s-1.8 2.4-1.9 2.8c0 .6-.3 1.3-.9 2.1-1 1.6-.9 2.8.5 3.7 1.6 1 3.7.9 6.4 0zm.4 2.4c.1-.1-.1-.2-.7-.2-.7.2-1.1.5-1.4.7-.2.3.1.4.9.2s1.2-.4 1.2-.7zm0-1.5c.1-.3-.1-.4-.7-.2s-.9.4-1 .5.1.2.7.2 1-.2 1-.5zm2.6.5c-1.3 1.1-1.6 1.7-.9 1.7.6 0 1.8-.6 3.5-1.7a9.86 9.86 0 0 1 2-1.3l1.5-.8c.8-.3 1.2-.7 1.2-1.2 0-.3.3-.5.9-.5s.9-.1.9-.3c0-.1.3-.5.8-1.1l2-2.3a18.4 18.4 0 0 0 2.1-2.5l1.8-2.6c.5-.7.8-1.3.9-1.6s-.1-.3-.6 0L594 226c-.6.7-.9 1.1-.9 1.4 0 .2-.2.3-.7.3-.2 0-.5.2-.8.5s-.6.7-.9 1.2c-.6 1.1-1.1 1.7-1.7 1.7-.3-.1-.5 0-.5.3 0 .2-.2.6-.6 1.1s-.9 1-1.5 1.5l-1.8 1.4c-.6.4-.9.5-1 .4-.2-.2-.3-.1-.3.3 0 .6-.2.6-.5 0-.3-.5-.5-.5-.5 0 0 .7-.3.9-.9.7-.5-.2-.8-.1-1 .3-.2.3-.2.4.2.2-.1 0-.3.3-.9 1zm1.7-20.4c-.5 0-.7.3-.7.9 0 .5.1.7.2.7l.2-.2a3.04 3.04 0 0 1 .7-.5c.4-.6.3-.9-.4-.9zm11.3 14.9c1.7-1.9 2.5-2.9 2.2-2.9-.1 0-.6.3-1.5 1s-1.7 1.5-2.7 2.4l-3.4 2.8-3.3 2.3-2.1 1.3c-.6.4-.9.7-.9.8s.3.1.9-.2c.6-.2 1.3-.6 2.1-1l2.3-1.4 1.5-1c.3-.5.7-.7 1-.8s.4.2.2.8c-.1.2-.1.3-.1.3.1 0 .1-.1.3-.3.5 0 .6-.3.3-.9-.1-.2.1-.6.7-1.2.8-.5 1.6-1.2 2.5-2zm-3.3-24.9c-1.3.9-2.1 1.6-2.4 2.1s-.1.5.7.2c.6-.2.9-.5.9-.7 0-.3.2-.5.7-.5.2 0 .5-.2.9-.5s.9-.7 1.5-1c1.1-1 1.5-1.5 1.1-1.4-.4 0-1.5.7-3.4 1.8zm1.8 28.3a.47.47 0 0 0 .5-.5c0-.1 0-.2-.1-.3s-.1-.1-.1-.3v-.1c-.3 0-.5.2-.5.7-.4.4-.3.5.2.5zm2.9-31c-.2.3-.1.5.5.5s.9-.2.9-.5a.47.47 0 0 0-.5-.5c-.3-.1-.6.1-.9.5zm2.7 22.6l1.3-2.6c.1-.2-.2-.2-.8.2-.5.5-.7.9-.7 1.2.1.3.1.5-.2.5-.5 0-.8.3-1 1-.5.8-.5 1.2 0 1.2s1-.4 1.4-1.5zm2.6-4.3c.1 0 .2-.2.2-.5a.47.47 0 0 0-.5-.5c-.3 0-.4.2-.2.5 0 .4.2.5.5.5zm.2-2.2c.1 0 .3-.5.5-1.4 0-.9-.2-1.1-.5-.7-.3.5-.5.9-.5 1.4s.1.7.5.7zm14.6-29.5c0-.1-.7.3-2.1 1.3l-4.8 3.3-4.9 3.5-2.4 1.8c-.5.3-.4.5.3.3.6-.1 1.3-.5 2-1 2.2-1.3 4.3-2.7 6.4-4.4s4.5-3.2 7.2-4.6c.3-.1.4-.2.3-.3-.2-.1-.4-.1-.7 0s-.6.1-.9.1c-.5.1-.5.1-.4 0z"/><path d="M682 172.7l-1.4 1.4c-.6.6-1.1 1.3-1.5 2.1-.4.9-1 1.5-1.8 2-.1.2-.8.9-2.1 2.1l-4.6 4.1-4.4 4.1c-1.2 1.3-1.8 2-1.8 2.2a.47.47 0 0 1-.5.5c-.3-.1-.5.1-.5.5 0 .5.2.6.7.3.5-.2.7-.6.9-1.2.1-.7.5-1 1.2-1 .5 0 .7-.2.7-.7 0-.6.3-.9.9-.9.3 0 .6-.2.9-.7.2-.6.5-.9.9-.9.3 0 .1.6-.9 1.9-.9 1.3-1.8 2.3-2.7 3.1l-1.5 1.5-1.9 1.9-2.1 2-1.4 1.3c-.2.2-.5.6-.9 1-.4.5-.8.8-1.3 1-.3.3-.9.8-1.7 1.4s-1.7 1.1-2.7 1.7l-3.3 1.8-3.3 1.6c-2.4.9-4.8 1.5-7.3 1.9-2.5.3-4.5.3-6.1-.2-.3-.2-.7-.4-1.2-.5s-.8-.3-1-.5c-.1-.2-.4-.3-.9-.3-.1.1-.4.1-.9-.1s-1-.4-1.5-.7c-.6-.3-1.1-.6-1.6-1l-1.3-1.1c-.2-.3-.5-.7-.9-.9-.3-.3-.6-.5-.9-.8-.6-.2-1.4-1.4-2.4-3.5s-1.9-4.3-2.7-6.6c-.6-1.4-1-2.6-1.1-3.6-.2-1-.2-2.3-.1-4l.4-6.3c.2-.9.3-1.4.5-1.6 0-.1.1-.4.2-.8l.4-1.5c0-.6.1-1.1.3-1.5s.4-.7.6-.9c.5-.2.5-.6.2-1-.4-.3-.2-.5.4-.5.4 0 .4-.2.2-.7s.1-.9.9-1.2c.7-.5 1.1-.8 1.1-1s.1-.5.3-.8.4-.5.6-.8c1-.8 1.2-1.3.5-1.5-.2-.2-.1-1 .5-2.4s1.4-2.8 2.6-4.3c1.4-1.8 3.1-3.6 5.1-5.2 2-1.7 4.1-3.1 6.4-4.4 2.2-1.3 4.4-2.3 6.6-3s4.2-1.1 6.2-1.1c1 0 2.2.3 3.4.8 1.3.5 2.5 1.2 3.7 2.1s2.3 1.8 3.2 2.8 1.5 2 1.7 2.9c.6 2.4.6 4.5.2 6.4-.5 1.8-1.7 3.9-3.6 6.2l-2 2.2-2.7 2.7-2.6 2.5-1.7 1.6c-.9.8-2.3 1.6-4.3 2.5-1.9.9-3.7 1.6-5.3 2.1l-3 .6a17.33 17.33 0 0 1-3.2.3c-1.1 0-1.9-.1-2.6-.3s-1.1-.4-1.2-.6c-.2-.3-.5-.5-.7-.5-.2.2-.6-.2-1.2-1.2l-.9-1.5h1.4c1.7 0 4.1-.7 7.1-2.1s6-3.2 9-5.5c2.7-1.9 5.2-4.6 7.4-7.9.3-.6.7-1.1 1-1.5.3-.5.6-.6.7-.5.1.2.2-.1.3-1s.1-1.9.1-3.1c-.1-1.1-.1-2.2-.3-3.3-.1-1-.2-1.7-.3-1.9-.2-.3-.8-.5-1.8-.4s-2 .2-3 .4-1.9.5-2.7.9c-.7.4-1 .8-.8 1.1.1.1.1.2-.1.3s-.4 0-.8-.3h-.7c1.3.6.9 1.2-1 1.9-.3.1-.9.5-1.7 1-.8.6-1.6 1.2-2.4 1.9s-1.5 1.3-2.1 1.9-.9 1-.9 1.2c0 .5-.6 1.1-1.7 2.1-.5.5-1 1.2-1.7 2.1l-2.1 3c-.7 1-1.3 2-1.7 2.8-.5.9-.7 1.4-.7 1.6 0 .3-.1.5-.3.5-.3 0-.8.6-1.3 1.9s-1 2.8-1.5 4.6-.8 3.8-1.1 5.8c-.3 2.1-.4 3.8-.4 5.3 0 1.7.3 3.7.9 6s1.1 3.8 1.7 4.5c.2.2.5.5.7.9.2.3.5.7.7 1 .6.6 1.1.9 1.5 1 .5.1 1.6.2 3.4.2 2.3 0 4.7-.4 7.3-1.2s5.3-1.9 8.2-3.4c.8-.6 1.5-1 2.1-1.2s1.1-.3 1.3-.3c.5 0 .9-.3 1.2-.9.3-.5.5-.6.5-.5s.3.1 1-.2.9-.7.7-1.2c-.1-.1-.1-.2-.1-.3.1-.1.1 0 .3.1.8.5 3.7-1 8.8-4.5 1.4-1 3-2.3 4.8-3.8s3.6-3 5.3-4.6c1.7-1.5 3.3-3 4.6-4.3 1.4-1.3 2.3-2.3 2.9-3l1.1-.4zm-62.9 8.4c.3-.2.4-.6.2-1-.2-.2-.3-.1-.3.3 0 .6 0 .8.1.7zm2.3-6.2c.5-.7.7-1.3.7-1.9 0-.3-.1-.3-.3 0-.1.2-.2.5-.3.9s-.2.7-.3.9l-.3.9c-.1.1.1-.2.5-.8zm1.4-3.9c-.2.3-.3.5-.3.5.1 0 .2-.1.4-.3.3-.2.5-.5.5-.9-.2-.2-.4 0-.6.7zm0-7.6c-.2.8.2.5 1.2-1 .5-.6 1-1.3 1.5-2.1.6-.8 1.1-1.5 1.7-2.1.5-.6 1.1-1.2 1.9-2 .8-.7 1.5-1.4 2.2-2 .9-.8 1.4-1.3 1.5-1.5s-.1 0-.7.4c-.6.2-1.1.5-1.5.9-.5.4-.8.7-1 .9s-.6.5-1 .9c-.5.3-.9.7-1.4 1s-.9.7-1.2 1.1-.5.7-.5.9c0 .5-.1.7-.3.7-.3 0-.8.4-1.3 1.3-.5 1.2-.9 1.9-1.1 2.6zm2 4.5c.2-.2.2-.6 0-1-.1-.2-.2-.1-.3.3 0 .7.1.9.3.7zm30.9-10.1c-.3.6-.7 1.2-1.1 1.9s-.7 1.1-.9 1.4c-.6.6-1 1.2-1.4 1.9-.2.2-.5.6-.8 1.1l-.9 1.5c-1 1.3-1.2 1.7-.6 1.5.6-.3 1.6-1.2 3-2.8 1.3-1.5 2.3-2.9 3.1-4.2s1.3-2.5 1.4-3.5c.1-.8.1-1.1-.1-.9-.2-.1-.8.7-1.7 2.1zm.4 33.6a.47.47 0 0 1 .5-.5c.2 0 .3.2.3.5l-.3.3-.2.2c-.2 0-.3-.1-.3-.5zm3.7-2.6c-.2 0-.3-.1-.2-.2.9-.8 1.9-1.6 3.1-2.5 1.1-.9 1.8-1.3 2.1-1.3.2 0 .1.3-.5.9-.9.6-1.8 1.3-2.6 2.1-.9.7-1.5 1-1.9 1zm6.4-4.9c-.6 0-.2-.4 1-1.2l2.5-2c.3-.2-.1.2-1.1 1.1-.5.6-.9 1.1-1.4 1.5-.4.4-.8.6-1 .6zm6.4-4.5c-1.1 1-1.7 1.3-1.7.7 0-.1.2-.2.5-.3s.7-.3 1.2-.8l1.5-1.4-1.5 1.8z"/></svg>