<?xml version="1.0" encoding="utf-8"?>
<!-- Generator: Adobe Illustrator 25.2.1, SVG Export Plug-In . SVG Version: 6.00 Build 0)  -->
<svg version="1.1" xmlns="http://www.w3.org/2000/svg" xmlns:xlink="http://www.w3.org/1999/xlink" x="0px" y="0px"
	 viewBox="0 0 850.4 850.4" style="enable-background:new 0 0 850.4 850.4;" xml:space="preserve">
<style type="text/css">
	.st0{fill:#010202;}
	.st1{clip-path:url(#SVGID_2_);fill:#FFFFFF;}
	.st2{clip-path:url(#SVGID_4_);fill:#FFFFFF;}
	.st3{clip-path:url(#SVGID_6_);fill:#FFFFFF;}
	.st4{fill:#FFFFFF;}
	.st5{clip-path:url(#SVGID_8_);fill:#FFFFFF;}
	.st6{clip-path:url(#SVGID_10_);fill:#FFFFFF;}
	.st7{clip-path:url(#SVGID_12_);fill:#FFFFFF;}
	.st8{fill:none;stroke:#FFFFFF;stroke-miterlimit:10;}
	.st9{clip-path:url(#SVGID_14_);fill:#010202;}
	.st10{clip-path:url(#SVGID_16_);fill:#010202;}
	.st11{clip-path:url(#SVGID_18_);fill:#010202;}
	.st12{clip-path:url(#SVGID_20_);fill:#FFFFFF;}
	.st13{clip-path:url(#SVGID_22_);fill:#FFFFFF;}
	.st14{clip-path:url(#SVGID_24_);fill:#FFFFFF;}
	.st15{clip-path:url(#SVGID_26_);fill:#FFFFFF;}
	.st16{clip-path:url(#SVGID_28_);fill:#FFFFFF;}
	.st17{clip-path:url(#SVGID_30_);fill:#FFFFFF;}
	.st18{clip-path:url(#SVGID_32_);fill:#FFFFFF;}
	.st19{clip-path:url(#SVGID_34_);fill:#FFFFFF;}
	.st20{clip-path:url(#SVGID_36_);fill:#FFFFFF;}
	.st21{clip-path:url(#SVGID_38_);fill:#010202;}
	.st22{clip-path:url(#SVGID_40_);fill:#010202;}
	.st23{clip-path:url(#SVGID_42_);fill:#010202;}
	.st24{clip-path:url(#SVGID_44_);fill:#010202;}
	.st25{clip-path:url(#SVGID_46_);fill:#010202;}
	.st26{clip-path:url(#SVGID_48_);fill:#010202;}
	.st27{fill:none;stroke:#010202;stroke-miterlimit:10;}
	.st28{clip-path:url(#SVGID_50_);fill:#010202;}
	.st29{clip-path:url(#SVGID_52_);fill:#010202;}
	.st30{clip-path:url(#SVGID_54_);fill:#010202;}
	.st31{clip-path:url(#SVGID_56_);fill:#010202;}
	.st32{clip-path:url(#SVGID_58_);fill:#010202;}
	.st33{clip-path:url(#SVGID_60_);fill:#010202;}
	.st34{clip-path:url(#SVGID_62_);fill:url(#SVGID_63_);}
	.st35{clip-path:url(#SVGID_65_);fill:url(#SVGID_66_);}
	.st36{clip-path:url(#SVGID_68_);fill:url(#SVGID_69_);}
	.st37{fill:url(#SVGID_70_);}
	.st38{fill:#063540;}
	.st39{display:none;}
	.st40{display:inline;}
	.st41{clip-path:url(#SVGID_72_);fill:url(#SVGID_73_);}
	.st42{clip-path:url(#SVGID_75_);fill:url(#SVGID_76_);}
	.st43{clip-path:url(#SVGID_78_);fill:url(#SVGID_79_);}
	.st44{fill:url(#SVGID_80_);}
	.st45{fill:url(#SVGID_81_);}
	.st46{fill:url(#SVGID_82_);}
	.st47{fill:url(#SVGID_83_);}
	.st48{clip-path:url(#SVGID_85_);fill:url(#SVGID_86_);}
	.st49{clip-path:url(#SVGID_88_);fill:url(#SVGID_89_);}
	.st50{clip-path:url(#SVGID_91_);fill:url(#SVGID_92_);}
	.st51{fill:#627179;}
	.st52{fill:none;stroke:#063540;stroke-miterlimit:10;}
	.st53{clip-path:url(#SVGID_94_);fill:url(#SVGID_95_);}
	.st54{clip-path:url(#SVGID_97_);fill:url(#SVGID_98_);}
	.st55{clip-path:url(#SVGID_100_);fill:url(#SVGID_101_);}
	.st56{fill:url(#SVGID_102_);}
	.st57{display:inline;clip-path:url(#SVGID_104_);fill:url(#SVGID_105_);}
	.st58{fill:url(#SVGID_106_);}
	.st59{fill:url(#SVGID_107_);}
	.st60{display:none;fill:url(#SVGID_108_);}
	.st61{clip-path:url(#SVGID_110_);fill:url(#SVGID_111_);}
	.st62{clip-path:url(#SVGID_113_);fill:url(#SVGID_114_);}
	.st63{clip-path:url(#SVGID_116_);fill:url(#SVGID_117_);}
	.st64{fill:url(#SVGID_118_);}
	.st65{fill:url(#SVGID_119_);}
	.st66{fill:url(#SVGID_120_);}
	.st67{fill:url(#SVGID_121_);}
	.st68{display:inline;clip-path:url(#SVGID_123_);fill:url(#SVGID_124_);}
	.st69{clip-path:url(#SVGID_128_);}
	.st70{fill:url(#SVGID_129_);}
	.st71{display:inline;clip-path:url(#SVGID_133_);fill:url(#SVGID_134_);}
	.st72{display:none;fill:#063540;}
	.st73{font-family:'Metropolis-SemiBold';}
	.st74{font-size:129.6485px;}
	.st75{letter-spacing:-6;}
	.st76{font-family:'ConduitITC-Bold';}
	.st77{font-size:170.3964px;}
	.st78{font-family:'ConduitITC';}
	.st79{font-size:204.1748px;}
	.st80{font-family:'Metropolis-ExtraLight';}
	.st81{font-size:137.6756px;}
	.st82{fill:url(#SVGID_135_);}
	.st83{fill:url(#SVGID_136_);}
	.st84{fill:url(#SVGID_137_);}
	.st85{display:none;fill:#C47D7E;}
	.st86{clip-path:url(#SVGID_139_);fill:url(#SVGID_140_);}
	.st87{clip-path:url(#SVGID_142_);fill:url(#SVGID_143_);}
	.st88{clip-path:url(#SVGID_145_);fill:url(#SVGID_146_);}
	.st89{clip-path:url(#SVGID_148_);fill:url(#SVGID_149_);}
	.st90{clip-path:url(#SVGID_151_);fill:url(#SVGID_152_);}
	.st91{fill:#C47D7E;}
	.st92{clip-path:url(#SVGID_154_);fill:#010202;}
	.st93{clip-path:url(#SVGID_156_);fill:#010202;}
	.st94{clip-path:url(#SVGID_158_);fill:#010202;}
	.st95{clip-path:url(#SVGID_160_);fill:#010202;}
	.st96{clip-path:url(#SVGID_162_);fill:#010202;}
	.st97{clip-path:url(#SVGID_164_);fill:#FFFFFF;}
	.st98{clip-path:url(#SVGID_166_);fill:#FFFFFF;}
	.st99{clip-path:url(#SVGID_168_);fill:#FFFFFF;}
	.st100{clip-path:url(#SVGID_170_);fill:#FFFFFF;}
	.st101{clip-path:url(#SVGID_172_);fill:#FFFFFF;}
</style>
<g id="L_-_Blanc">
</g>
<g id="S_-_Blanc">
</g>
<g id="Calque_20">
</g>
<g id="Calque_22">
</g>
<g id="Calque_21">
</g>
<g id="Calque_19">
</g>
<g id="N_-_Blanc">
</g>
<g id="I_-_Blanc">
</g>
<g id="L_-_Noir">
</g>
<g id="S_-_Noir">
</g>
<g id="N_-_Noir">
</g>
<g id="I_-_Noir">
</g>
<g id="L_-_Bleu">
</g>
<g id="Calque_13">
</g>
<g id="S_-_Bleu">
</g>
<g id="N_-_Bleu">
</g>
<g id="I_-_Bleu">
</g>
<g id="Calque_14">
</g>
<g id="Calque_15">
	<g class="st39">
		<defs>
			<path id="SVGID_122_" d="M378.8,260.7v140c0,58.8-48.8,106.6-108.9,106.6c-60,0-108.9-47.8-108.9-106.6l0-31.8L20.7,400.7
				c0,134.5,111.8,244,249.2,244c137.4,0,249.2-109.5,249.2-244v-140c0-37.9-31.4-68.7-70.1-68.7
				C410.2,192.1,378.8,222.8,378.8,260.7"/>
		</defs>
		<clipPath id="SVGID_2_" class="st40">
			<use xlink:href="#SVGID_122_"  style="overflow:visible;"/>
		</clipPath>
		
			<linearGradient id="SVGID_4_" gradientUnits="userSpaceOnUse" x1="6504.3911" y1="-4945.2114" x2="6507.8237" y2="-4945.2114" gradientTransform="matrix(253.4882 0 0 -253.4882 -1648771.25 -1253134.375)">
			<stop  offset="0" style="stop-color:#005786"/>
			<stop  offset="1.159670e-02" style="stop-color:#005786"/>
			<stop  offset="0.2577" style="stop-color:#005786"/>
			<stop  offset="0.4908" style="stop-color:#00A1C5"/>
			<stop  offset="0.7485" style="stop-color:#00A9CE"/>
			<stop  offset="1" style="stop-color:#62C4F1"/>
		</linearGradient>
		<rect x="20.7" y="192.1" style="display:inline;clip-path:url(#SVGID_2_);fill:url(#SVGID_4_);" width="498.4" height="452.6"/>
	</g>
	<g class="st39">
		<g class="st40">
			<defs>
				<path id="SVGID_125_" d="M398.1,105.2c0,29.6,23.8,53.7,53.1,53.7c29.3,0,53.1-24.1,53.1-53.7c0-29.7-23.8-53.8-53.1-53.8
					C421.9,51.5,398.1,75.6,398.1,105.2"/>
			</defs>
			<clipPath id="SVGID_6_">
				<use xlink:href="#SVGID_125_"  style="overflow:visible;"/>
			</clipPath>
		</g>
		<g class="st40">
			<defs>
				<path id="SVGID_127_" d="M398.1,105.2c0,29.6,23.8,53.7,53.1,53.7c29.3,0,53.1-24.1,53.1-53.7c0-29.7-23.8-53.8-53.1-53.8
					C421.9,51.5,398.1,75.6,398.1,105.2"/>
			</defs>
			<clipPath id="SVGID_8_">
				<use xlink:href="#SVGID_127_"  style="overflow:visible;"/>
			</clipPath>
			<g style="clip-path:url(#SVGID_8_);">
				
					<linearGradient id="SVGID_10_" gradientUnits="userSpaceOnUse" x1="6503.5898" y1="-4944.6455" x2="6507.0151" y2="-4944.6455" gradientTransform="matrix(245.3357 0 0 -245.3357 -1595529.75 -1212992.75)">
					<stop  offset="0" style="stop-color:#005786"/>
					<stop  offset="1.159670e-02" style="stop-color:#005786"/>
					<stop  offset="0.2577" style="stop-color:#005786"/>
					<stop  offset="0.4908" style="stop-color:#00A1C5"/>
					<stop  offset="0.7485" style="stop-color:#00A9CE"/>
					<stop  offset="1" style="stop-color:#62C4F1"/>
				</linearGradient>
				<rect x="398.1" y="51.5" style="fill:url(#SVGID_10_);" width="106.3" height="107.5"/>
			</g>
		</g>
		<g class="st40">
			<defs>
				<path id="SVGID_130_" d="M398.1,105.2c0,29.6,23.8,53.7,53.1,53.7c29.3,0,53.1-24.1,53.1-53.7c0-29.7-23.8-53.8-53.1-53.8
					C421.9,51.5,398.1,75.6,398.1,105.2"/>
			</defs>
			<clipPath id="SVGID_12_">
				<use xlink:href="#SVGID_130_"  style="overflow:visible;"/>
			</clipPath>
		</g>
	</g>
	<g class="st39">
		<defs>
			<path id="SVGID_132_" d="M533.8,105.2c0,32.1-17.9,59.9-44.2,73.9c39.1,15.6,66.9,54.2,66.9,99.2v121.9
				c0,134.5,108.2,244,241.2,244h32l-32-137.4c-58.1,0-105.4-47.8-105.4-106.6V260.3c0-6.9-1.3-13.5-3.2-19.8
				c-15.4-99.4-90.1-179-186.2-200.4C521.7,55.5,533.8,78.9,533.8,105.2"/>
		</defs>
		<clipPath id="SVGID_14_" class="st40">
			<use xlink:href="#SVGID_132_"  style="overflow:visible;"/>
		</clipPath>
		
			<linearGradient id="SVGID_16_" gradientUnits="userSpaceOnUse" x1="6503.5859" y1="-4945.6113" x2="6507.0186" y2="-4945.6113" gradientTransform="matrix(245.3357 0 0 -245.3357 -1595529.75 -1212992.75)">
			<stop  offset="0" style="stop-color:#005786"/>
			<stop  offset="1.159670e-02" style="stop-color:#005786"/>
			<stop  offset="0.2577" style="stop-color:#005786"/>
			<stop  offset="0.4908" style="stop-color:#00A1C5"/>
			<stop  offset="0.7485" style="stop-color:#00A9CE"/>
			<stop  offset="1" style="stop-color:#62C4F1"/>
		</linearGradient>
		<rect x="489.6" y="40.1" style="display:inline;clip-path:url(#SVGID_14_);fill:url(#SVGID_16_);" width="340" height="604.1"/>
	</g>
	<text transform="matrix(1 0 0 1 28.0511 766.0757)" class="st72 st73 st74 st75">CONSULTING</text>
	<g>
		<path class="st38" d="M27.9,724.7c0-26.6,22.2-48.9,48.5-48.9c13.1,0,25.2,5.5,34,14.5l-4.8,4.8c-7.6-7.8-17.9-12.7-29.2-12.7
			c-22.6,0-41.6,19.4-41.6,42.3c0,23,19,42.4,41.6,42.4c11.3,0,21.6-4.8,29.2-12.7l4.8,4.8c-8.8,8.8-20.9,14.5-34,14.5
			C50,773.7,27.9,751.3,27.9,724.7z"/>
		<path class="st38" d="M112.5,724.7c0-26.6,22.2-48.9,48.5-48.9c26.3,0,48.3,22.3,48.3,48.9s-22,49-48.3,49
			C134.7,773.7,112.5,751.3,112.5,724.7z M202.4,724.7c0-22.9-19-42.3-41.4-42.3c-22.6,0-41.6,19.4-41.6,42.3
			c0,23,19,42.4,41.6,42.4C183.4,767.1,202.4,747.7,202.4,724.7z"/>
		<path class="st38" d="M222.5,677.5h6.9l62.5,83.6v-83.6h6.9v94.6h-6.9l-62.5-83.6v83.6h-6.9V677.5z"/>
		<path class="st38" d="M311.2,758.6l4.3-5.4c8.4,8.4,20.2,13.8,33.3,13.8c15.3,0,25.2-8.3,25.2-19.1c0-10.5-8.4-16-27.5-20.5
			c-21.2-4.8-31-11.3-31-24.6c0-15.6,12.8-27,30.7-27c12.4,0,23.8,5.1,32.8,13.5l-4.1,5.4c-8.1-7.7-18.3-12.3-29.1-12.3
			c-13.6,0-23.4,8.5-23.4,19.8c0,9.4,8.5,14.2,27.5,18.7c20.8,5,31,12,31,26.4c0,15-12.5,26.3-32.4,26.3
			C334.1,773.6,320.8,768.1,311.2,758.6z"/>
		<path class="st38" d="M393.3,734.6v-57.1h6.9v57.1c0,19,12.7,32.5,30.7,32.5c18,0,30.7-13.5,30.7-32.5v-57.1h6.9v57.1
			c0,22.9-15.6,39.1-37.6,39.1S393.3,757.5,393.3,734.6z"/>
		<path class="st38" d="M543.2,765.3v6.7h-60.4v-94.6h6.9v87.8H543.2z"/>
		<path class="st38" d="M577.2,684.2h-33.7v-6.7h74.3v6.7h-33.7v87.8h-6.9V684.2z"/>
		<path class="st38" d="M628,677.5h6.9v94.6H628V677.5z"/>
		<path class="st38" d="M651.8,677.5h6.9l62.5,83.6v-83.6h6.9v94.6h-6.9l-62.5-83.6v83.6h-6.9V677.5z"/>
		<path class="st38" d="M788.5,724.2h37.9v35.2c-9.4,8.8-22.9,14.3-36.6,14.3c-26.3,0-48.5-22.4-48.5-49s22.2-48.9,48.5-48.9
			c13.8,0,27.3,5.4,36.6,14.2l-4.8,4.8c-8-7.6-20-12.4-31.8-12.4c-22.6,0-41.6,19.4-41.6,42.3c0,23,19,42.4,41.6,42.4
			c10.9,0,21.9-4,29.7-10.6v-25.6h-31V724.2z"/>
	</g>
	<text transform="matrix(1 0 0 1 28.0511 784.6561)" class="st72 st76 st77">CONSULTING</text>
	<text transform="matrix(1 0 0 1 17.223 776.4331)" class="st72 st78 st79">Consulting</text>
	<text transform="matrix(1 0 0 1 20.7128 772.0799)" class="st72 st80 st81 st75">CONSULTING</text>
	<linearGradient id="SVGID_18_" gradientUnits="userSpaceOnUse" x1="15.1894" y1="418.1638" x2="885.31" y2="418.1638">
		<stop  offset="0" style="stop-color:#005786"/>
		<stop  offset="1.159670e-02" style="stop-color:#005786"/>
		<stop  offset="0.2577" style="stop-color:#005786"/>
		<stop  offset="0.4908" style="stop-color:#00A1C5"/>
		<stop  offset="0.7485" style="stop-color:#00A9CE"/>
		<stop  offset="1" style="stop-color:#62C4F1"/>
	</linearGradient>
	<path style="fill:url(#SVGID_18_);" d="M448.9,191.8c-38.7,0-70.2,30.8-70.2,68.7v140c0,58.8-48.8,106.6-108.9,106.6
		c-60,0-108.9-47.8-108.9-106.6l0-31.8L20.7,400.5c0,134.5,111.8,244,249.2,244c137.4,0,249.2-109.5,249.2-244v-140
		C519.1,222.6,487.7,191.8,448.9,191.8z"/>
	<linearGradient id="SVGID_20_" gradientUnits="userSpaceOnUse" x1="31.988" y1="342.5955" x2="874.0876" y2="342.5955">
		<stop  offset="0" style="stop-color:#005786"/>
		<stop  offset="1.159670e-02" style="stop-color:#005786"/>
		<stop  offset="0.2577" style="stop-color:#005786"/>
		<stop  offset="0.4908" style="stop-color:#00A1C5"/>
		<stop  offset="0.7485" style="stop-color:#00A9CE"/>
		<stop  offset="1" style="stop-color:#62C4F1"/>
	</linearGradient>
	<path style="fill:url(#SVGID_20_);" d="M692.4,400.1C704,243,679.7,82.5,502.9,39.9c46,33.8,38.1,114.8-13.3,139
		c88.5,30.3,64.1,149.5,66.9,221.1c-0.8,148.3,129.4,258,273.1,244l-32-137.4C739.6,506.7,692.4,458.9,692.4,400.1z"/>
	<linearGradient id="SVGID_22_" gradientUnits="userSpaceOnUse" x1="32.8797" y1="105.0227" x2="873.2219" y2="105.0227">
		<stop  offset="0" style="stop-color:#005786"/>
		<stop  offset="1.159670e-02" style="stop-color:#005786"/>
		<stop  offset="0.2577" style="stop-color:#005786"/>
		<stop  offset="0.4908" style="stop-color:#00A1C5"/>
		<stop  offset="0.7485" style="stop-color:#00A9CE"/>
		<stop  offset="1" style="stop-color:#62C4F1"/>
	</linearGradient>
	<path style="fill:url(#SVGID_22_);" d="M451.2,51.3c-29.3,0-53.1,24.1-53.1,53.8c0,29.6,23.8,53.7,53.1,53.7
		c29.3,0,53.1-24.1,53.1-53.7C504.3,75.4,480.5,51.3,451.2,51.3z"/>
</g>
<g id="Calque_16">
</g>
<g id="Calque_17">
</g>
<g id="Calque_18">
</g>
</svg>
