<?xml version="1.0" encoding="utf-8"?>
<!-- Generator: Adobe Illustrator 25.2.1, SVG Export Plug-In . SVG Version: 6.00 Build 0)  -->
<svg version="1.1" xmlns="http://www.w3.org/2000/svg" xmlns:xlink="http://www.w3.org/1999/xlink" x="0px" y="0px"
	 viewBox="0 0 2606.9 850.4" style="enable-background:new 0 0 2606.9 850.4;" xml:space="preserve">
<style type="text/css">
	.st0{fill:#010202;}
	.st1{clip-path:url(#SVGID_2_);fill:#FFFFFF;}
	.st2{clip-path:url(#SVGID_4_);fill:#FFFFFF;}
	.st3{clip-path:url(#SVGID_6_);fill:#FFFFFF;}
	.st4{fill:#FFFFFF;}
	.st5{clip-path:url(#SVGID_8_);fill:#FFFFFF;}
	.st6{clip-path:url(#SVGID_10_);fill:#FFFFFF;}
	.st7{clip-path:url(#SVGID_12_);fill:#FFFFFF;}
	.st8{fill:none;stroke:#FFFFFF;stroke-miterlimit:10;}
	.st9{clip-path:url(#SVGID_14_);fill:#010202;}
	.st10{clip-path:url(#SVGID_16_);fill:#010202;}
	.st11{clip-path:url(#SVGID_18_);fill:#010202;}
	.st12{clip-path:url(#SVGID_20_);fill:#FFFFFF;}
	.st13{clip-path:url(#SVGID_22_);fill:#FFFFFF;}
	.st14{clip-path:url(#SVGID_24_);fill:#FFFFFF;}
	.st15{clip-path:url(#SVGID_26_);fill:#FFFFFF;}
	.st16{clip-path:url(#SVGID_28_);fill:#FFFFFF;}
	.st17{clip-path:url(#SVGID_30_);fill:#FFFFFF;}
	.st18{clip-path:url(#SVGID_32_);fill:#FFFFFF;}
	.st19{clip-path:url(#SVGID_34_);fill:#FFFFFF;}
	.st20{clip-path:url(#SVGID_36_);fill:#FFFFFF;}
	.st21{clip-path:url(#SVGID_38_);fill:#010202;}
	.st22{clip-path:url(#SVGID_40_);fill:#010202;}
	.st23{clip-path:url(#SVGID_42_);fill:#010202;}
	.st24{clip-path:url(#SVGID_44_);fill:#010202;}
	.st25{clip-path:url(#SVGID_46_);fill:#010202;}
	.st26{clip-path:url(#SVGID_48_);fill:#010202;}
	.st27{fill:none;stroke:#010202;stroke-miterlimit:10;}
	.st28{clip-path:url(#SVGID_50_);fill:#010202;}
	.st29{clip-path:url(#SVGID_52_);fill:#010202;}
	.st30{clip-path:url(#SVGID_54_);fill:#010202;}
	.st31{clip-path:url(#SVGID_56_);fill:#010202;}
	.st32{clip-path:url(#SVGID_58_);fill:#010202;}
	.st33{clip-path:url(#SVGID_60_);fill:#010202;}
	.st34{clip-path:url(#SVGID_62_);fill:url(#SVGID_63_);}
	.st35{clip-path:url(#SVGID_65_);fill:url(#SVGID_66_);}
	.st36{clip-path:url(#SVGID_68_);fill:url(#SVGID_69_);}
	.st37{fill:url(#SVGID_70_);}
	.st38{fill:#063540;}
	.st39{display:none;}
	.st40{display:inline;}
	.st41{clip-path:url(#SVGID_72_);fill:url(#SVGID_73_);}
	.st42{clip-path:url(#SVGID_75_);fill:url(#SVGID_76_);}
	.st43{clip-path:url(#SVGID_78_);fill:url(#SVGID_79_);}
	.st44{fill:url(#SVGID_80_);}
	.st45{fill:url(#SVGID_81_);}
	.st46{fill:url(#SVGID_82_);}
	.st47{fill:url(#SVGID_83_);}
	.st48{clip-path:url(#SVGID_85_);fill:url(#SVGID_86_);}
	.st49{clip-path:url(#SVGID_88_);fill:url(#SVGID_89_);}
	.st50{clip-path:url(#SVGID_91_);fill:url(#SVGID_92_);}
	.st51{fill:#627179;}
	.st52{fill:none;stroke:#063540;stroke-miterlimit:10;}
	.st53{clip-path:url(#SVGID_94_);fill:url(#SVGID_95_);}
	.st54{clip-path:url(#SVGID_97_);fill:url(#SVGID_98_);}
	.st55{clip-path:url(#SVGID_100_);fill:url(#SVGID_101_);}
	.st56{fill:url(#SVGID_102_);}
	.st57{display:inline;clip-path:url(#SVGID_104_);fill:url(#SVGID_105_);}
	.st58{fill:url(#SVGID_106_);}
	.st59{fill:url(#SVGID_107_);}
	.st60{display:none;fill:url(#SVGID_108_);}
	.st61{clip-path:url(#SVGID_110_);fill:url(#SVGID_111_);}
	.st62{clip-path:url(#SVGID_113_);fill:url(#SVGID_114_);}
	.st63{clip-path:url(#SVGID_116_);fill:url(#SVGID_117_);}
	.st64{fill:url(#SVGID_118_);}
	.st65{fill:url(#SVGID_119_);}
	.st66{fill:url(#SVGID_120_);}
	.st67{fill:url(#SVGID_121_);}
	.st68{display:none;fill:#063540;}
	.st69{font-family:'ConduitITC';}
	.st70{font-size:400.6113px;}
	.st71{letter-spacing:-10;}
	.st72{display:inline;clip-path:url(#SVGID_123_);fill:url(#SVGID_124_);}
	.st73{clip-path:url(#SVGID_128_);}
	.st74{fill:url(#SVGID_129_);}
	.st75{display:inline;clip-path:url(#SVGID_133_);fill:url(#SVGID_134_);}
	.st76{fill:url(#SVGID_135_);}
	.st77{fill:url(#SVGID_136_);}
	.st78{fill:url(#SVGID_137_);}
	.st79{display:none;fill:#C47D7E;}
	.st80{clip-path:url(#SVGID_139_);fill:url(#SVGID_140_);}
	.st81{clip-path:url(#SVGID_142_);fill:url(#SVGID_143_);}
	.st82{clip-path:url(#SVGID_145_);fill:url(#SVGID_146_);}
	.st83{clip-path:url(#SVGID_148_);fill:url(#SVGID_149_);}
	.st84{clip-path:url(#SVGID_151_);fill:url(#SVGID_152_);}
	.st85{fill:#C47D7E;}
	.st86{clip-path:url(#SVGID_154_);fill:#010202;}
	.st87{clip-path:url(#SVGID_156_);fill:#010202;}
	.st88{clip-path:url(#SVGID_158_);fill:#010202;}
	.st89{clip-path:url(#SVGID_160_);fill:#010202;}
	.st90{clip-path:url(#SVGID_162_);fill:#010202;}
	.st91{clip-path:url(#SVGID_164_);fill:#FFFFFF;}
	.st92{clip-path:url(#SVGID_166_);fill:#FFFFFF;}
	.st93{clip-path:url(#SVGID_168_);fill:#FFFFFF;}
	.st94{clip-path:url(#SVGID_170_);fill:#FFFFFF;}
	.st95{clip-path:url(#SVGID_172_);fill:#FFFFFF;}
</style>
<g id="L_-_Blanc">
</g>
<g id="S_-_Blanc">
</g>
<g id="Calque_20">
</g>
<g id="Calque_22">
</g>
<g id="Calque_21">
</g>
<g id="Calque_19">
</g>
<g id="N_-_Blanc">
</g>
<g id="I_-_Blanc">
</g>
<g id="L_-_Noir">
</g>
<g id="S_-_Noir">
</g>
<g id="N_-_Noir">
</g>
<g id="I_-_Noir">
</g>
<g id="L_-_Bleu">
</g>
<g id="Calque_13">
</g>
<g id="S_-_Bleu">
</g>
<g id="N_-_Bleu">
</g>
<g id="I_-_Bleu">
</g>
<g id="Calque_14">
	<g>
		<linearGradient id="SVGID_2_" gradientUnits="userSpaceOnUse" x1="75.101" y1="504.3596" x2="981.9218" y2="504.3596">
			<stop  offset="0" style="stop-color:#005786"/>
			<stop  offset="1.159670e-02" style="stop-color:#005786"/>
			<stop  offset="0.2577" style="stop-color:#005786"/>
			<stop  offset="0.4908" style="stop-color:#00A1C5"/>
			<stop  offset="0.7485" style="stop-color:#00A9CE"/>
			<stop  offset="1" style="stop-color:#62C4F1"/>
		</linearGradient>
		<path style="fill:url(#SVGID_2_);" d="M527.1,268.5c-40.4,0-73.1,32.1-73.1,71.6v145.9c0,61.3-50.9,111.1-113.5,111.1
			c-62.6,0-113.5-49.9-113.5-111.1l0-33.2L80.9,485.9c0,140.2,116.5,254.3,259.7,254.3c143.2,0,259.7-114.1,259.7-254.3V340.1
			C600.2,300.5,567.5,268.5,527.1,268.5z"/>
		<linearGradient id="SVGID_4_" gradientUnits="userSpaceOnUse" x1="92.6082" y1="425.6041" x2="970.2261" y2="425.6041">
			<stop  offset="0" style="stop-color:#005786"/>
			<stop  offset="1.159670e-02" style="stop-color:#005786"/>
			<stop  offset="0.2577" style="stop-color:#005786"/>
			<stop  offset="0.4908" style="stop-color:#00A1C5"/>
			<stop  offset="0.7485" style="stop-color:#00A9CE"/>
			<stop  offset="1" style="stop-color:#62C4F1"/>
		</linearGradient>
		<path style="fill:url(#SVGID_4_);" d="M780.8,485.5c0,0,0-145.8,0-145.8c-10-110.9-89.7-206.3-197.4-229.5
			c47.9,35.3,39.7,119.6-13.8,144.9c92.3,31.6,66.8,155.8,69.8,230.4c-0.8,154.6,134.8,268.9,284.6,254.3l-33.3-143.2
			C830.1,596.6,780.8,546.8,780.8,485.5z"/>
		<linearGradient id="SVGID_6_" gradientUnits="userSpaceOnUse" x1="93.5375" y1="178.0108" x2="969.3238" y2="178.0108">
			<stop  offset="0" style="stop-color:#005786"/>
			<stop  offset="1.159670e-02" style="stop-color:#005786"/>
			<stop  offset="0.2577" style="stop-color:#005786"/>
			<stop  offset="0.4908" style="stop-color:#00A1C5"/>
			<stop  offset="0.7485" style="stop-color:#00A9CE"/>
			<stop  offset="1" style="stop-color:#62C4F1"/>
		</linearGradient>
		<path style="fill:url(#SVGID_6_);" d="M529.5,122c-30.5,0-55.4,25.1-55.4,56c0,30.9,24.8,56,55.4,56c30.5,0,55.4-25.1,55.4-56
			C584.9,147.1,560,122,529.5,122z"/>
	</g>
	<linearGradient id="SVGID_8_" gradientUnits="userSpaceOnUse" x1="-1440.8231" y1="667.3717" x2="2753.032" y2="667.3717">
		<stop  offset="0.1406" style="stop-color:#00A9CE"/>
		<stop  offset="1" style="stop-color:#62C4F1"/>
	</linearGradient>
	<path style="fill:url(#SVGID_8_);" d="M2527,739.7l-1603.2,0c-0.1,0-4.8,0-4.9,0l-76-5c-2.9-0.2-5-3-4.4-5.8l28.1-130.1
		c0.5-2.5,3-4.2,5.5-3.7c2.7,0.5,6.7,1,12,1.3c5,0.3,12.4,0.4,18.5,0.5c8.5,0.1,15,0.2,19.2,0.4c387.4,11.2,1521.6,0.4,1605.1-0.5
		c2.7,0,4.9,2.1,4.9,4.8v133.3C2531.9,737.6,2529.7,739.7,2527,739.7z"/>
	<text transform="matrix(1 0 0 1 869.7526 485.0421)" class="st68 st69 st70 st71">Consulting</text>
	<g>
		<path class="st38" d="M852.4,429.6c0-52.2,43.6-96.1,95.3-96.1c25.7,0,49.5,10.8,66.9,28.4l-9.5,9.5
			c-14.9-15.4-35.2-24.9-57.4-24.9c-44.4,0-81.7,38.2-81.7,83.1c0,45.2,37.4,83.4,81.7,83.4c22.2,0,42.5-9.5,57.4-24.9l9.5,9.5
			c-17.3,17.3-41.1,28.4-66.9,28.4C896,525.9,852.4,481.8,852.4,429.6z"/>
		<path class="st38" d="M1018.9,429.6c0-52.2,43.6-96.1,95.3-96.1c51.7,0,95,43.8,95,96.1s-43.3,96.4-95,96.4
			C1062.5,525.9,1018.9,481.8,1018.9,429.6z M1195.6,429.6c0-44.9-37.4-83.1-81.5-83.1c-44.4,0-81.7,38.2-81.7,83.1
			c0,45.2,37.4,83.4,81.7,83.4C1158.3,512.9,1195.6,474.8,1195.6,429.6z"/>
		<path class="st38" d="M1235.2,336.7h13.5L1371.6,501V336.7h13.5v185.9h-13.5l-122.9-164.3v164.3h-13.5V336.7z"/>
		<path class="st38" d="M1409.5,496.1l8.4-10.6c16.5,16.5,39.8,27.1,65.5,27.1c30,0,49.5-16.2,49.5-37.6c0-20.6-16.5-31.4-54.1-40.3
			c-41.7-9.5-60.9-22.2-60.9-48.4c0-30.6,25.2-53,60.4-53c24.4,0,46.8,10,64.4,26.5l-8.1,10.6c-16-15.2-36-24.1-57.1-24.1
			c-26.8,0-46,16.8-46,39c0,18.4,16.8,27.9,54.1,36.8c40.9,9.7,60.9,23.5,60.9,52c0,29.5-24.6,51.7-63.6,51.7
			C1454.4,525.6,1428.4,514.8,1409.5,496.1z"/>
		<path class="st38" d="M1570.8,449V336.7h13.5V449c0,37.4,24.9,63.9,60.4,63.9c35.5,0,60.4-26.5,60.4-63.9V336.7h13.5V449
			c0,44.9-30.6,76.9-73.9,76.9C1601.4,525.9,1570.8,494,1570.8,449z"/>
		<path class="st38" d="M1865.5,509.4v13.3h-118.8V336.7h13.5v172.7H1865.5z"/>
		<path class="st38" d="M1932.4,350h-66.3v-13.3h146.2V350h-66.3v172.7h-13.5V350z"/>
		<path class="st38" d="M2032.3,336.7h13.5v185.9h-13.5V336.7z"/>
		<path class="st38" d="M2079.1,336.7h13.5L2215.5,501V336.7h13.5v185.9h-13.5l-122.9-164.3v164.3h-13.5V336.7z"/>
		<path class="st38" d="M2347.8,428.5h74.4v69.3c-18.4,17.3-44.9,28.1-72,28.1c-51.7,0-95.3-44.1-95.3-96.4s43.6-96.1,95.3-96.1
			c27.1,0,53.6,10.6,72,27.9l-9.5,9.5c-15.7-14.9-39.2-24.4-62.5-24.4c-44.4,0-81.7,38.2-81.7,83.1c0,45.2,37.4,83.4,81.7,83.4
			c21.4,0,43-7.8,58.5-20.8v-50.3h-60.9V428.5z"/>
	</g>
</g>
<g id="Calque_15">
</g>
<g id="Calque_16">
</g>
<g id="Calque_17">
</g>
<g id="Calque_18">
</g>
</svg>
