<?xml version="1.0" encoding="utf-8"?>
<!-- Generator: Adobe Illustrator 25.2.1, SVG Export Plug-In . SVG Version: 6.00 Build 0)  -->
<svg version="1.1" id="Calque_1" xmlns="http://www.w3.org/2000/svg" xmlns:xlink="http://www.w3.org/1999/xlink" x="0px" y="0px"
	 viewBox="0 0 512 512" style="enable-background:new 0 0 512 512;" xml:space="preserve">
<style type="text/css">
	.st0{fill:#B9D8EF;}
	.st1{fill:#CFE3F9;}
	.st2{fill:#AFCCDD;}
</style>
<g>
	<path class="st0" d="M505.9,415.3V260.1c0-8.8-7.5-16-16.8-16h-237c-9.3,0-16.8,7.2-16.8,16v155.2L505.9,415.3L505.9,415.3z"/>
	<rect x="252.1" y="260.1" class="st1" width="237" height="150.4"/>
	<path class="st0" d="M235.3,410.5v25.6c0,8.8,7.5,16,16.8,16h237c9.3,0,16.8-7.2,16.8-16v-25.6H235.3L235.3,410.5z"/>
	<rect x="325" y="452.1" class="st0" width="91.1" height="25.8"/>
	<path class="st0" d="M436.7,477.9H304.5c-4.2,0-7.6,3.2-7.6,7.2l0,0c0,4,3.4,7.2,7.6,7.2h132.2c4.2,0,7.6-3.2,7.6-7.2l0,0
		C444.3,481.1,440.9,477.9,436.7,477.9z"/>
	<path class="st2" d="M375.6,439.3h-10.1c-4.7,0-8.4-3.6-8.4-8s3.8-8,8.4-8h10.1c4.7,0,8.4,3.6,8.4,8
		C384.1,435.7,380.3,439.3,375.6,439.3z"/>
	<polygon class="st2" points="325,452.1 416.2,472 416.2,452.1 	"/>
	<g>
		<path class="st2" d="M277.6,423.4h-17.2c-4.6,0-8.3,3.5-8.3,7.9c0,4.3,3.7,7.9,8.3,7.9h17.2c4.6,0,8.3-3.5,8.3-7.9
			C285.9,426.9,282.2,423.4,277.6,423.4z"/>
		<path class="st2" d="M299.4,423.4h-1c-4.6,0-8.3,3.5-8.3,7.9c0,4.3,3.7,7.9,8.3,7.9h1c4.6,0,8.3-3.5,8.3-7.9
			C307.7,426.9,304,423.4,299.4,423.4z"/>
	</g>
</g>
<g>
	<path d="M239.2,167.7c-36.5,0-66.2,29.7-66.2,66.2s29.7,66.2,66.2,66.2s66.2-29.7,66.2-66.2S275.7,167.7,239.2,167.7z M239.2,285
		c-28.2,0-51.1-22.9-51.1-51.1s22.9-51.1,51.1-51.1s51.1,22.9,51.1,51.1S267.4,285,239.2,285z"/>
	<path d="M239.2,200c-4.2,0-7.5,3.4-7.5,7.5c0,4.2,3.4,7.5,7.5,7.5c10.4,0,18.8,8.4,18.8,18.8c0,4.2,3.4,7.5,7.5,7.5
		c4.2,0,7.5-3.4,7.5-7.5C273,215.2,257.8,200,239.2,200z"/>
	<path d="M52.4,98.1c-1.9-3.7-6.4-5.1-10.1-3.2c-3.7,1.9-5.1,6.4-3.2,10.1l20.2,39.1c1.3,2.5,4,4.1,6.8,4.1c2.8,0,5.4-1.7,6.7-4.3
		L85,118.4l13.3,25.7c1.3,2.5,3.9,4.1,6.7,4.1h0.1c2.9,0,5.4-1.7,6.7-4.3l18.8-39.1c1.8-3.7,0.2-8.2-3.5-10c-3.7-1.8-8.2-0.2-10,3.5
		l-12.3,25.5L91.4,98.1c-1.3-2.5-4-4.1-6.8-4.1c-2.9,0-5.4,1.7-6.7,4.3l-12.3,25.5L52.4,98.1z"/>
	<path d="M100.8,56.4c2,0,3.9-0.8,5.3-2.2c1.4-1.4,2.2-3.3,2.2-5.3s-0.8-3.9-2.2-5.3c-1.4-1.4-3.3-2.2-5.3-2.2c-2,0-3.9,0.8-5.3,2.2
		c-1.4,1.4-2.2,3.3-2.2,5.3s0.8,3.9,2.2,5.3C96.9,55.6,98.8,56.4,100.8,56.4z"/>
	<path d="M391.1,170.7V71.4c0-16.6-13.5-30.1-30.1-30.1H132.4c-4.2,0-7.5,3.4-7.5,7.5s3.4,7.5,7.5,7.5H361c8.3,0,15,6.7,15,15v99.3
		c0,8.3-6.7,15-15,15h-36.1c-0.2,0-0.4,0-0.6,0c-11.6-20.5-30.4-36.3-52.9-44.2l11.1-23.2l13.3,25.7c1.3,2.5,3.9,4.1,6.7,4.1h0.1
		c2.8,0,5.4-1.7,6.7-4.3l18.8-39.1c1.8-3.7,0.2-8.2-3.5-10c-3.7-1.8-8.2-0.2-10,3.5l-12.3,25.5L289,98.1c-1.3-2.5-4-4.1-6.8-4.1
		c-2.9,0-5.4,1.7-6.7,4.3l-12.3,25.5L250,98.1c-1.9-3.7-6.4-5.1-10.1-3.2c-3.7,1.9-5.1,6.4-3.2,10.1l16.6,32.1
		c-4.6-0.7-9.3-1-14.1-1c-9.2,0-18.2,1.3-26.7,3.7l16.8-35c1.8-3.7,0.2-8.2-3.5-10c-3.7-1.8-8.2-0.2-10,3.5l-12.3,25.5l-13.3-25.7
		c-1.3-2.5-3.9-4.1-6.8-4.1c-2.8,0-5.4,1.7-6.7,4.3l-12.3,25.5l-13.3-25.7c-1.9-3.7-6.4-5.1-10.1-3.2s-5.1,6.4-3.2,10.1l20.2,39.1
		c1.3,2.5,3.9,4.1,6.8,4.1c2.8,0,5.4-1.7,6.7-4.3l12.3-25.5l13.3,25.7c0.2,0.4,0.5,0.8,0.8,1.2c-18.4,8.6-33.8,22.8-43.8,40.5h-118
		c-8.3,0-15-6.7-15-15V71.4c0-8.3,6.7-15,15-15H67c4.2,0,7.5-3.4,7.5-7.5s-3.4-7.5-7.5-7.5H36.1c-16.6,0-30.1,13.5-30.1,30.1v99.3
		c0,16.6,13.5,30.1,30.1,30.1h111c-3.7,10.3-5.8,21.5-5.8,33.1c0,53.9,43.9,97.8,97.8,97.8c17.7,0,34.3-4.7,48.7-13l59.7,59.7
		c5,5,11.5,7.5,18,7.5c6.5,0,13.1-2.5,18-7.5c9.9-9.9,9.9-26.1,0-36.1l-23.4-23.4c-2.9-2.9-7.7-2.9-10.6,0c-2.9,2.9-2.9,7.7,0,10.6
		l23.4,23.5c4.1,4.1,4.1,10.7,0,14.8c-4.1,4.1-10.7,4.1-14.8,0l-57.7-57.7c22.2-17.9,36.5-45.4,36.5-76.1c0-11.6-2-22.7-5.8-33.1
		H361C377.6,200.8,391.1,187.3,391.1,170.7z M239.2,316.6c-45.6,0-82.7-37.1-82.7-82.7s37.1-82.7,82.7-82.7s82.7,37.1,82.7,82.7
		S284.8,316.6,239.2,316.6z"/>
	<path d="M331.7,300.9c-1.4,1.4-2.2,3.3-2.2,5.3c0,2,0.8,3.9,2.2,5.3c1.4,1.4,3.3,2.2,5.3,2.2c2,0,3.9-0.8,5.3-2.2
		c1.4-1.4,2.2-3.3,2.2-5.3c0-2-0.8-3.9-2.2-5.3c-1.4-1.4-3.3-2.2-5.3-2.2C335,298.7,333.1,299.5,331.7,300.9z"/>
</g>
</svg>
